<svg xmlns="http://www.w3.org/2000/svg" width="538" height="549" viewBox="0 0 538 549">
  <path fill-rule="evenodd" d="M463.119036,131.422399 C462.083265,129.333736 461.475722,126.803439 461.459665,124.473625 C461.331198,104.696341 461.384724,84.9163673 461.384724,65.1390832 L461.384724,59.9634523 L456.302231,59.9634523 C441.573974,59.9634523 426.848391,59.8274888 412.125486,60.0493739 C407.961001,60.1127866 404.840313,58.8939416 401.639333,56.2678728 C360.915151,22.8417085 314.193144,3.98642049 261.64996,0.758148652 C200.678504,-2.98881766 145.389596,13.535589 96.9276573,50.8960304 C88.2304144,57.6015173 80.0004673,60.8177633 69.1845797,60.1486664 C56.3991208,59.358045 43.5301653,59.9634523 30.0932725,59.9634523 L30.0932725,65.3296378 C30.0932725,85.1082668 30.1513487,104.886896 30.0164573,124.664457 C30.0009344,126.988376 29.3238031,129.502058 28.2845589,131.597407 C-9.27985933,207.440057 -9.4425843,283.276813 28.0225375,359.209104 C29.2392305,361.6714 29.9985253,364.639533 30.0076278,367.380164 C30.1323486,406.790224 30.0932725,446.200284 30.0932725,485.613034 L30.0932725,490.767778 L461.384724,490.767778 L461.384724,485.431024 C461.384724,445.873766 461.357959,406.316508 461.456986,366.7619 C461.465017,364.433432 462.104678,361.909583 463.143123,359.819298 C500.891142,283.667575 500.891142,207.567199 463.119036,131.422399 Z M42.2296987,479.277975 L42.2296987,383.09599 C74.2764371,429.05255 116.128724,460.775986 168.028771,479.277975 L42.2296987,479.277975 Z M239.467376,479.235172 C198.654606,477.993304 160.979657,467.081613 125.680013,446.13604 C163.563457,395.378036 201.217266,344.930488 239.467376,293.682666 L239.467376,479.235172 Z M449.228491,479.19502 L323.306304,479.19502 C375.340973,460.746555 417.146423,429.079331 449.228491,383.087999 L449.228491,479.19502 Z M251.993488,479.01036 L251.993488,293.738879 C290.105498,344.989351 327.687579,395.530574 365.269661,446.071837 C340.780556,463.94219 283.711568,480.538555 251.993488,479.01036 Z M302.732777,190.180451 C302.770248,191.004262 302.786308,191.83286 302.786308,192.66577 C302.786308,222.251293 280.430296,246.655567 251.699084,249.891316 C251.712466,259.322994 251.728527,267.370908 251.749936,271.241021 C251.760641,273.04759 252.788382,275.105753 253.912472,276.623267 C293.552708,330.046979 333.262532,383.419857 372.967004,436.792736 C373.719072,437.807101 374.548757,438.762564 375.445353,439.875946 C376.360683,439.297834 377.099372,438.8723 377.795238,438.387864 C406.890438,418.317489 430.319688,392.985324 448.042844,362.415421 C449.118759,360.558018 449.514869,358.058221 449.520221,355.85824 C449.597836,302.156153 449.584261,248.451416 449.584261,194.748262 L449.584261,189.988828 L302.732777,190.180451 Z M187.659134,190.185277 L42.1071179,190.144848 C42.0278976,191.603498 41.9130783,192.734285 41.9130783,193.866141 C41.9062217,248.151679 41.8863168,302.439869 41.9765107,356.728058 C41.98106,358.76213 42.5733496,361.101318 43.6805795,362.774061 C50.1285746,372.508166 56.3611167,382.434923 63.5071182,391.64444 C78.1136014,410.470296 95.6496759,426.266426 115.698092,439.76352 C116.484417,438.805367 116.96055,438.264757 117.388778,437.691985 C157.616217,383.794558 197.853826,329.905121 238.003117,275.94614 C239.098301,274.474119 239.737428,272.290159 239.746258,270.432717 C239.762318,266.741963 239.779447,259.06337 239.795239,250.006392 C210.539185,247.279171 187.606406,222.629474 187.606406,192.66577 C187.606406,191.836064 187.624073,191.010394 187.659134,190.185277 Z M29.8457058,333.657467 C18.0044829,304.324052 12.0928414,274.990637 12.0973841,245.657262 C12.1022089,216.325469 18.0226839,186.991777 29.8457058,157.65678 L29.8457058,333.657467 Z M461.604189,333.636026 L461.604189,157.769444 C485.295729,216.335913 485.311786,274.990637 461.604189,333.636026 Z M202.249821,169.763779 C198.598136,176.593401 196.527935,184.3898 196.527935,192.66577 C196.527935,217.705674 215.478757,238.354675 239.810224,241.039647 C239.836455,224.171356 239.857331,205.616636 239.861077,199.180148 L245.736055,203.773395 L251.648235,199.148027 L251.648235,199.1199 L245.736055,203.773395 L202.249821,169.763779 Z M288.456835,170.358742 L251.648235,199.148027 C251.653587,205.68887 251.66697,224.045797 251.685701,240.905306 C275.484299,237.728935 293.865847,217.326978 293.865847,192.66577 C293.865847,184.628774 291.912072,177.044134 288.456835,170.358742 Z M295.589454,164.780561 C297.842986,168.842297 299.62012,173.205351 300.843237,177.792704 L449.581779,177.950623 C449.581779,163.42872 449.678128,149.310673 449.490782,135.197175 C449.458664,132.752839 448.706592,130.053942 447.483475,127.932881 C437.275665,110.211861 424.766148,94.2369653 410.265386,79.8202098 C409.379495,78.9391571 408.386551,78.1630142 407.417689,77.3132525 L295.589454,164.780561 Z M195.133263,164.197663 L83.8957077,77.1984134 C70.6731957,89.9560348 59.6041163,103.895553 49.4517083,118.690451 C44.0239615,126.601372 41.0654606,134.585082 41.7313532,144.385014 C42.4828866,155.409684 41.9053168,166.525578 41.9053168,177.79219 L189.584807,177.658085 C190.867606,172.899166 192.745908,168.383534 195.133263,164.197663 Z M289.47922,155.861168 L394.908172,71.8153758 L251.945313,71.8153758 L251.586677,135.426022 C266.775276,137.104936 280.194771,144.703778 289.47922,155.861168 Z M239.193582,135.384802 L239.61565,71.7976931 L96.5272672,71.7976931 L201.344661,155.349436 C210.690668,144.379119 224.076977,136.953702 239.193582,135.384802 Z M449.330197,71.9593697 L449.330197,107.229843 C439.531875,95.3934261 429.867377,83.7200312 420.133291,71.9593697 L449.330197,71.9593697 Z M42.36245,71.8076223 L71.4517596,71.8076223 C61.6547792,83.6439993 52.0400618,95.2620119 42.36245,106.956571 L42.36245,71.8076223 Z M218.106452,13.4095152 C280.122509,6.9674105 336.003171,22.1736797 386.145622,58.7435392 C386.017155,59.1037613 385.888688,59.463746 385.757543,59.8250757 L105.600283,59.8250757 C116.137558,43.7856595 181.998267,17.1599627 218.106452,13.4095152 Z M282.501834,161.422735 C273.570668,150.772013 260.169908,143.996428 245.198096,143.996428 C230.463414,143.996428 217.25027,150.557367 208.323923,160.912901 L245.736055,190.73368 L282.501834,161.422735 Z" transform="translate(23.196 27)"/>
</svg>
