<?xml version="1.0" encoding="UTF-8"?>
<svg width="456px" height="257px" viewBox="0 0 456 257" version="1.1" xmlns="http://www.w3.org/2000/svg" xmlns:xlink="http://www.w3.org/1999/xlink">
    <title>01</title>
    <g id="Symbols" stroke="none" stroke-width="1" fill="none" fill-rule="evenodd" fill-opacity="0">
        <g id="Project-hero" transform="translate(-566.000000, -300.000000)" fill="#000000" fill-rule="nonzero" stroke="#FFFFFF">
            <path d="M598.192811,553.480824 C603.714118,553.480824 608.815326,552.080492 613.496434,549.27983 C618.177542,546.479167 621.978441,542.718277 624.899132,537.997159 C627.819824,533.276042 629.320179,528.034801 629.400198,522.273438 C629.320179,513.79143 626.139426,506.529711 619.857939,500.488281 C613.576453,494.446851 606.354743,491.426136 598.192811,491.426136 C589.550766,491.426136 582.169019,494.446851 576.04757,500.488281 C569.926121,506.529711 566.905406,513.79143 566.985425,522.273438 C566.905406,530.915483 569.926121,538.277225 576.04757,544.358665 C582.169019,550.440104 589.550766,553.480824 598.192811,553.480824 Z M769.473351,556.00142 C790.998446,556.00142 809.502826,550.940223 824.98649,540.817827 C840.470155,530.695431 852.412982,516.03196 860.81497,496.827415 C869.216959,477.622869 873.419086,454.497396 873.419086,427.450994 C873.497972,400.564631 869.336988,377.679214 860.934999,358.794744 C852.53301,339.910275 840.550174,325.52687 824.98649,315.644531 C809.422807,305.762192 790.918427,300.821023 769.473351,300.821023 C748.028275,300.821023 729.563905,305.762192 714.08024,315.644531 C698.596576,325.52687 686.673754,339.89027 678.311774,358.73473 C669.949795,377.57919 665.728796,400.484612 665.647645,427.450994 C665.568758,454.417377 669.729743,477.482836 678.131732,496.647372 C686.53372,515.811908 698.496552,530.495384 714.020226,540.697798 C729.5439,550.900213 748.028275,556.00142 769.473351,556.00142 Z M769.473351,507.389915 C760.991344,507.389915 753.509573,504.489228 747.028039,498.687855 C740.546505,492.886482 735.525316,484.064394 731.964473,472.221591 C728.403631,460.378788 726.663219,445.455256 726.743238,427.450994 C726.823256,400.884706 730.784194,381.180043 738.62605,368.337003 C746.467906,355.493963 756.75034,349.072443 769.473351,349.072443 C778.035378,349.072443 785.517149,351.913116 791.918664,357.59446 C798.320179,363.275805 803.321363,371.897846 806.922215,383.460582 C810.523067,395.023319 812.323493,409.68679 812.323493,427.450994 C812.403512,454.577415 808.482584,474.682173 800.560709,487.76527 C792.638834,500.848366 782.276381,507.389915 769.473351,507.389915 Z M1021.17293,550 L1021.17293,304.181818 L966.079885,304.181818 L905.465539,341.870739 L905.465539,393.242898 L960.43855,359.634943 L961.878891,359.634943 L961.878891,550 L1021.17293,550 Z" id=".01"></path>
        </g>
    </g>
</svg>