<?xml version="1.0" encoding="UTF-8"?>
<svg width="456px" height="224px" viewBox="0 0 456 224" version="1.1" xmlns="http://www.w3.org/2000/svg" xmlns:xlink="http://www.w3.org/1999/xlink">
    <title>02</title>
    <g id="Symbols" stroke="none" stroke-width="1" fill="none" fill-rule="evenodd" fill-opacity="0">
        <g id="Project-hero" transform="translate(-566.000000, -332.000000)" fill="#000000" fill-rule="nonzero" stroke="#FFFFFF">
            <path d="M593.775935,552.80715 C598.579322,552.80715 603.017234,551.588899 607.08967,549.152399 C611.162107,546.715898 614.468786,543.444026 617.009708,539.336783 C619.55063,535.229539 620.855898,530.669802 620.925512,525.657573 C620.855898,518.278457 618.088729,511.96096 612.624007,506.70508 C607.159284,501.4492 600.876594,498.821261 593.775935,498.821261 C586.257591,498.821261 579.835672,501.4492 574.510178,506.70508 C569.184684,511.96096 566.556744,518.278457 566.626359,525.657573 C566.556744,533.175917 569.184684,539.580433 574.510178,544.871119 C579.835672,550.161806 586.257591,552.80715 593.775935,552.80715 Z M742.785343,555 C761.511589,555 777.609896,550.596896 791.080263,541.790687 C804.55063,532.984478 814.940564,520.227658 822.250065,503.520226 C829.559567,486.812794 833.215302,466.694262 833.215302,443.164628 C833.283932,419.774224 829.663988,399.864534 822.354487,383.43556 C815.044985,367.006585 804.620244,354.493415 791.080263,345.896049 C777.540282,337.298683 761.441975,333 742.785343,333 C724.128711,333 708.065211,337.298683 694.594844,345.896049 C681.124477,354.493415 670.751947,366.989182 663.477252,383.383349 C656.202558,399.777516 652.530404,419.70461 652.459804,443.164628 C652.391175,466.624647 656.011119,486.690969 663.32062,503.363594 C670.630122,520.036218 681.037459,532.810442 694.542633,541.686265 C708.047807,550.562088 724.128711,555 742.785343,555 Z M742.785343,512.709313 C735.406227,512.709313 728.89729,510.185795 723.258532,505.138758 C717.619774,500.091722 713.251476,492.416745 710.15364,482.113829 C707.055804,471.810913 705.541693,458.827846 705.611307,443.164628 C705.680921,420.052681 709.126829,402.91016 715.94903,391.737065 C722.771232,380.56397 731.716669,374.977422 742.785343,374.977422 C750.234073,374.977422 756.74301,377.44873 762.312154,382.391345 C767.881298,387.33396 772.232191,394.834901 775.364835,404.894167 C778.497478,414.953434 780.0638,427.710254 780.0638,443.164628 C780.133414,466.763876 776.722314,484.254468 769.830498,495.636406 C762.938682,507.018344 753.923631,512.709313 742.785343,512.709313 Z M1021.17293,549.778928 L1021.17293,508.11477 L934.503123,508.11477 L934.503123,506.757291 L960.086378,483.158043 C975.610366,469.652869 987.601429,458.062088 996.059567,448.385701 C1004.5177,438.709313 1010.38271,429.868297 1013.65458,421.862653 C1016.92645,413.857008 1018.56239,405.78175 1018.56239,397.636877 C1018.56239,384.827846 1015.27311,373.567733 1008.69456,363.856538 C1002.11601,354.145343 992.839905,346.574788 980.866246,341.144873 C968.892586,335.714958 954.795691,333 938.575559,333 C922.842727,333 909.041693,335.87159 897.172455,341.61477 C885.303217,347.357949 876.096726,355.520226 869.552981,366.101599 C863.009237,376.682973 859.737365,389.248354 859.737365,403.797742 L859.737365,403.797742 L908.711025,403.797742 C908.711025,397.323612 909.946679,391.824083 912.417986,387.299153 C914.889294,382.774224 918.352605,379.310913 922.80792,376.909219 C927.263235,374.507526 932.449501,373.306679 938.366716,373.306679 C944.214317,373.306679 949.400583,374.455315 953.925512,376.752587 C958.450442,379.049859 962.000771,382.304327 964.5765,386.515992 C967.152229,390.727658 968.440093,395.792098 968.440093,401.709313 C968.440093,407 967.361072,411.890405 965.203029,416.380527 C963.044985,420.870649 959.912342,425.325964 955.805098,429.746472 C951.697854,434.16698 946.720432,439.022578 940.872831,444.313264 L940.872831,444.313264 L862.870009,512.604892 L862.870009,549.778928 L1021.17293,549.778928 Z" id=".02"></path>
        </g>
    </g>
</svg>