<?xml version="1.0" encoding="UTF-8"?>
<svg width="461px" height="222px" viewBox="0 0 461 222" version="1.1" xmlns="http://www.w3.org/2000/svg" xmlns:xlink="http://www.w3.org/1999/xlink">
    <title>03</title>
    <g id="Symbols" stroke="none" stroke-width="1" fill="none" fill-rule="evenodd" fill-opacity="0">
        <g id="Project-hero" transform="translate(-566.000000, -334.000000)" fill="#000000" fill-rule="nonzero" stroke="#FFFFFF">
            <path d="M593.68547,552.826905 C598.445583,552.826905 602.843513,551.61963 606.879261,549.20508 C610.915009,546.79053 614.191898,543.548134 616.709929,539.477893 C619.22796,535.407651 620.521469,530.888993 620.590456,525.921919 C620.521469,518.609282 617.77923,512.348699 612.363739,507.140169 C606.948248,501.93164 600.722159,499.327375 593.68547,499.327375 C586.234859,499.327375 579.870795,501.93164 574.593278,507.140169 C569.315762,512.348699 566.711497,518.609282 566.780484,525.921919 C566.711497,533.372531 569.315762,539.719348 574.593278,544.962371 C579.870795,550.205394 586.234859,552.826905 593.68547,552.826905 Z M741.35245,555 C759.909992,555 775.863269,550.636563 789.212281,541.90969 C802.561293,533.182816 812.857624,520.540922 820.101274,503.984008 C827.344925,487.427093 830.967726,467.489809 830.967726,444.172154 C831.035737,420.992474 827.448405,401.262151 820.204755,384.981185 C812.961105,368.70022 802.63028,356.29978 789.212281,347.779868 C775.794282,339.259956 759.841005,335 741.35245,335 C722.863896,335 706.945113,339.259956 693.5961,347.779868 C680.247088,356.29978 669.968004,368.682973 662.758847,384.929445 C655.549691,401.175917 651.910619,420.923487 651.840656,444.172154 C651.772645,467.420822 655.359976,487.306366 662.603626,503.828786 C669.847276,520.351207 680.160854,533.010348 693.54436,541.806209 C706.927866,550.60207 722.863896,555 741.35245,555 Z M741.35245,513.09031 C734.039813,513.09031 727.589515,510.589526 722.001557,505.587959 C716.413598,500.586391 712.084655,492.980558 709.014727,482.770461 C705.944799,472.560364 704.444329,459.694262 704.513316,444.172154 C704.582303,421.268423 707.997167,404.280339 714.757907,393.207902 C721.518647,382.135466 730.383495,376.599247 741.35245,376.599247 C748.734075,376.599247 755.184373,379.048291 760.703344,383.946378 C766.222316,388.844465 770.534012,396.27783 773.638433,406.246472 C776.742855,416.215114 778.295066,428.857008 778.295066,444.172154 C778.364053,467.558796 774.983683,484.891816 768.153956,496.171214 C761.324228,507.450611 752.390393,513.09031 741.35245,513.09031 Z M940.96675,552.723424 C957.523664,552.723424 972.200679,550.015679 984.997794,544.600188 C997.794909,539.184697 1007.79804,531.734086 1015.0072,522.248354 C1022.21636,512.762622 1025.82178,501.8799 1025.82178,489.600188 C1025.88992,476.561618 1021.73345,465.696143 1013.35151,457.003763 C1004.96957,448.311383 992.569133,442.999373 976.150193,441.067733 L976.150193,441.067733 L976.150193,439.412041 C988.429904,437.618376 998.48478,432.858263 1006.31482,425.131703 C1014.14486,417.405143 1018.02539,407.574475 1017.9564,395.639699 C1017.9564,384.118846 1014.7485,373.788021 1008.33269,364.647225 C1001.91689,355.506428 992.948562,348.280025 981.427709,342.968015 C969.906856,337.656005 956.557844,335 941.380672,335 C926.134514,335 912.561293,337.724992 900.661011,343.174976 C888.760729,348.624961 879.361231,356.161806 872.462516,365.785513 C865.563802,375.409219 862.045458,386.533396 861.907483,399.158043 L861.907483,399.158043 L910.853861,399.158043 C910.991836,394.328943 912.406072,390.086234 915.096571,386.429915 C917.787069,382.773597 921.426141,379.945124 926.013786,377.944497 C930.601431,375.94387 935.723727,374.943556 941.380672,374.943556 C946.76167,374.943556 951.504536,375.94387 955.609271,377.944497 C959.714006,379.945124 962.921908,382.75635 965.232977,386.378175 C967.544046,390 968.665088,394.190969 968.5961,398.951082 C968.665088,403.849169 967.354332,408.178112 964.663833,411.937912 C961.973335,415.697711 958.230782,418.612418 953.436176,420.682032 C948.641569,422.751646 943.105351,423.786453 936.827521,423.786453 L936.827521,423.786453 L916.234859,423.786453 L916.234859,460.211665 L936.827521,460.211665 C944.002184,460.211665 950.228274,461.280966 955.50579,463.419567 C960.783306,465.558169 964.870795,468.559109 967.768255,472.422389 C970.665715,476.285669 972.079951,480.700847 972.010964,485.667921 C972.079951,490.634995 970.803689,495.032926 968.182178,498.861712 C965.560666,502.690499 961.921594,505.691439 957.264962,507.864534 C952.60833,510.037629 947.24458,511.124177 941.173711,511.124177 C935.102842,511.124177 929.687352,510.123863 924.927239,508.123236 C920.167126,506.122609 916.407327,503.345876 913.647841,499.793039 C910.888355,496.240201 909.405131,492.152712 909.19817,487.530574 L909.19817,487.530574 L857.664774,487.530574 C857.802748,500.293195 861.459067,511.572593 868.63373,521.368768 C875.808393,531.164942 885.621814,538.839762 898.073993,544.393227 C910.526173,549.946692 924.823758,552.723424 940.96675,552.723424 Z" id=".03"></path>
        </g>
    </g>
</svg>