<svg  width="571px" height="656px" viewBox="0 0 571 656" version="1.1" xmlns="http://www.w3.org/2000/svg" xmlns:xlink="http://www.w3.org/1999/xlink">
    <title>about-background</title>
    <g id="Main" stroke="none" stroke-width="1" fill="none" fill-rule="evenodd" fill-opacity="0" opacity="0.516260901">
        <g id="About" transform="translate(-780.000000, -244.000000)" fill="#000000" fill-rule="nonzero" stroke="#FFFFFF" stroke-width="2">
            <g id="about-background" transform="translate(780.877967, 244.107000)">
                <path d="M236.967757,1 C271.559494,1 301.419918,8.0917135 326.541847,22.3000174 C351.638694,36.4941357 370.979188,55.3137662 384.556575,78.7656166 C398.133636,102.216905 404.919867,127.931456 404.919867,155.908013 C404.919867,185.538442 397.617211,212.751878 383.012119,237.539472 L383.012119,237.539472 L381.293414,240.398024 C366.772327,264.070063 346.6258,285.117908 320.862211,303.548783 L320.862211,303.548783 L286.058359,328.432152 L380.997285,435.176459 L383.35549,430.887538 C387.021476,424.068973 390.399011,416.961916 393.487944,409.566296 C404.186919,383.950482 409.597887,355.841916 409.713149,325.238976 L409.713149,325.238976 L530.080151,325.238976 C530.010106,362.868367 525.983942,397.808714 517.998022,430.059545 C509.949791,462.562015 497.931324,491.660588 481.942135,517.346506 L481.942135,517.346506 L479.832008,520.677128 C476.996074,525.075241 474.046344,529.340845 470.986678,533.468704 L470.986678,533.468704 L469.809628,535.035266 L567.053955,644.372214 L415.054273,644.372214 L378.854965,605.088949 C354.607811,622.481217 328.407735,634.958123 300.220238,642.543122 C271.839036,650.180246 243.922355,654 216.469891,654 C171.919916,654 133.502188,646.070494 101.222647,630.188547 C68.9960124,614.332631 44.2272688,592.974534 26.9290578,566.100527 C9.64126537,539.242707 1,509.348708 1,476.420104 C1,452.162234 5.77130135,430.728199 15.3311376,412.122496 C24.9080658,393.483528 38.1945866,376.288267 55.181181,360.537036 L55.181181,360.537036 L58.6310267,357.376664 C73.7330816,343.707215 90.9695132,330.232279 110.335254,316.953751 L110.335254,316.953751 L114.902593,313.856569 L113.752762,312.398422 C98.6367114,293.151212 85.7915118,272.153615 75.2176357,249.408226 L75.2176357,249.408226 L74.5148528,247.886637 C63.5998407,224.100149 58.1455666,198.20225 58.1455666,170.194405 C58.1455666,138.701658 65.5511378,110.191857 80.3716642,84.6676168 C95.1901638,59.1468676 116.030785,38.8254012 142.888793,23.6984772 C169.768497,8.55933349 201.130085,1 236.967757,1 Z" id="Path"></path>
                <path d="M237.278331,122.123755 C254.131154,121.920782 266.895437,126.334922 275.528321,135.475623 C284.133367,144.586848 288.454718,154.705779 288.454718,165.846373 C288.454718,176.236774 285.336668,186.623215 279.123985,197.011635 C272.875042,207.460687 262.257832,217.381995 247.29911,226.808066 L247.29911,226.808066 L218.260322,245.377077 L217.160705,243.970173 C208.152665,232.35541 200.760367,221.269254 194.985953,210.710325 C187.828798,197.622955 184.238502,184.844129 184.238502,172.368421 C184.238502,162.8258 186.414635,154.295928 190.780462,146.782645 C195.143189,139.274697 201.283626,133.291236 209.196869,128.827356 C217.132934,124.350601 226.495623,122.123755 237.278331,122.123755 Z" id="Path"></path>
                <path d="M187.893545,401.138447 L294.462722,516.459835 L293.465601,516.971005 L290.267248,518.531625 C268.877391,528.712375 247.488277,533.807966 226.097677,533.807966 C210.115739,533.807966 196.179644,530.949055 184.294398,525.21135 C172.464048,519.500146 163.330353,511.652771 156.904479,501.656966 C150.481177,491.665164 147.280228,479.937853 147.280228,466.481745 C147.280228,453.435773 151.156725,441.359518 158.902321,430.250704 C166.060803,419.983933 175.726992,410.282146 187.893545,401.138447 L187.893545,401.138447 Z" id="Path"></path>
            </g>
        </g>
    </g>
</svg>