<?xml version="1.0" encoding="UTF-8"?>
<svg width="489px" height="796px" viewBox="0 0 489 796" version="1.1" xmlns="http://www.w3.org/2000/svg" xmlns:xlink="http://www.w3.org/1999/xlink">
    <title>Group</title>
    <g id="Page-1" stroke="none" stroke-width="1" fill="none" fill-rule="evenodd" opacity="0.121888626">
        <g id="Desktop-HD-Copy" transform="translate(-874.000000, -2459.000000)" fill="#FFFFFF" fill-rule="nonzero">
            <g id="Group" transform="translate(1118.908908, 2856.931116) rotate(-270.000000) translate(-1118.908908, -2856.931116) translate(721.504124, 2612.931116)">
                <path d="M0.466985646,70.9818182 C0.466985646,31.7796425 32.2466281,0 71.4488038,0 L71.4488038,0 C73.5120762,0 75.184689,1.67261276 75.184689,3.73588517 L75.184689,174.185646 C75.184689,176.248918 73.5120762,177.921531 71.4488038,177.921531 L3.73588517,177.921531 C1.67261276,177.921531 0,176.248918 0,174.185646 L0,71.4488038 L0.466985646,70.9818182 Z" id="Path"></path>
                <path d="M0.466985646,211.077512 C0.466985646,209.01424 2.13959841,207.341627 4.20287081,207.341627 L71.9157895,207.341627 C73.9790619,207.341627 75.6516746,209.01424 75.6516746,211.077512 L75.6516746,211.077512 C75.6516746,250.279688 43.8720322,282.05933 4.66985646,282.05933 L4.66985646,282.05933 C2.60658405,282.05933 0.933971292,280.386717 0.933971292,278.323445 L0.933971292,210.610526 L0.466985646,211.077512 Z" id="Path"></path>
                <path d="M0.466985646,313.814354 C0.466985646,311.751082 2.13959841,310.078469 4.20287081,310.078469 L174.652632,310.078469 C176.715904,310.078469 178.388517,311.751082 178.388517,313.814354 L178.388517,381.527273 C178.388517,383.590545 176.715904,385.263158 174.652632,385.263158 L4.20287081,385.263158 C2.13959841,385.263158 0.466985646,383.590545 0.466985646,381.527273 L0.466985646,313.814354 L0.466985646,313.814354 Z" id="Path"></path>
                <path d="M0.466985646,481.929187 C0.466985646,442.727011 32.2466281,410.947368 71.4488038,410.947368 L71.4488038,410.947368 C73.5120762,410.947368 75.184689,412.619981 75.184689,414.683254 L75.184689,482.396172 C75.184689,484.459445 73.5120762,486.132057 71.4488038,486.132057 L3.73588517,486.132057 C1.67261276,486.132057 0,484.459445 0,482.396172 L0,482.396172 L0.466985646,481.929187 Z" id="Path"></path>
                <path d="M103.203828,5.60382775 C103.203828,3.54055535 104.876441,1.86794258 106.939713,1.86794258 L209.676555,1.86794258 C248.878731,1.86794258 280.658373,33.6475851 280.658373,72.8497608 L280.658373,72.8497608 C280.658373,74.9130332 278.98576,76.5856459 276.922488,76.5856459 L106.472727,76.5856459 C105.481909,76.5856459 104.531672,76.1920449 103.831058,75.4914305 C103.130443,74.7908161 102.736842,73.8405791 102.736842,72.8497608 L102.736842,5.13684211 L103.203828,5.60382775 Z" id="Path"></path>
                <path d="M103.203828,108.34067 C103.203828,106.277397 104.876441,104.604785 106.939713,104.604785 L174.652632,104.604785 C176.715904,104.604785 178.388517,106.277397 178.388517,108.34067 L178.388517,176.053589 C178.388517,178.116861 176.715904,179.789474 174.652632,179.789474 L106.939713,179.789474 C104.876441,179.789474 103.203828,178.116861 103.203828,176.053589 L103.203828,108.34067 L103.203828,108.34067 Z" id="Path"></path>
                <path d="M103.203828,243.766507 C103.203828,223.133783 119.929955,206.407656 140.562679,206.407656 L140.562679,206.407656 C161.195403,206.407656 177.921531,223.133783 177.921531,243.766507 L177.921531,243.766507 C177.921531,264.399231 161.195403,281.125359 140.562679,281.125359 L140.562679,281.125359 C119.929955,281.125359 103.203828,264.399231 103.203828,243.766507 L103.203828,243.766507 Z" id="Path"></path>
                <path d="M103.203828,416.551196 C103.203828,414.487924 104.876441,412.815311 106.939713,412.815311 L277.389474,412.815311 C279.452746,412.815311 281.125359,414.487924 281.125359,416.551196 L281.125359,484.264115 C281.125359,486.327387 279.452746,488 277.389474,488 L174.652632,488 C135.450456,488 103.670813,456.220358 103.670813,417.018182 L103.670813,417.018182 L103.203828,416.551196 Z" id="Path"></path>
                <path d="M205.94067,173.71866 C205.94067,134.516485 237.720312,102.736842 276.922488,102.736842 L276.922488,102.736842 C278.98576,102.736842 280.658373,104.409455 280.658373,106.472727 L280.658373,276.922488 C280.658373,278.98576 278.98576,280.658373 276.922488,280.658373 L276.922488,280.658373 C237.720312,280.658373 205.94067,248.878731 205.94067,209.676555 L205.94067,174.652632 L205.94067,173.71866 Z" id="Path"></path>
                <path d="M205.94067,379.192344 C205.94067,339.990169 237.720312,308.210526 276.922488,308.210526 L311.946411,308.210526 C351.148587,308.210526 382.92823,339.990169 382.92823,379.192344 L382.92823,379.192344 C382.92823,380.183163 382.534629,381.1334 381.834014,381.834014 C381.1334,382.534629 380.183163,382.92823 379.192344,382.92823 L208.742584,382.92823 C206.679311,382.92823 205.006699,381.255617 205.006699,379.192344 L205.006699,379.192344 L205.94067,379.192344 Z" id="Path"></path>
                <path d="M308.677512,5.60382775 C308.677512,3.54055535 310.350125,1.86794258 312.413397,1.86794258 L380.126316,1.86794258 C382.189588,1.86794258 383.862201,3.54055535 383.862201,5.60382775 L383.862201,176.053589 C383.862201,178.116861 382.189588,179.789474 380.126316,179.789474 L312.413397,179.789474 C310.350125,179.789474 308.677512,178.116861 308.677512,176.053589 L308.677512,5.60382775 Z" id="Path"></path>
                <path d="M308.677512,243.766507 C308.677512,223.133783 325.40364,206.407656 346.036364,206.407656 L346.036364,206.407656 C366.669088,206.407656 383.395215,223.133783 383.395215,243.766507 L383.395215,243.766507 C383.395215,264.399231 366.669088,281.125359 346.036364,281.125359 L346.036364,281.125359 C325.40364,281.125359 308.677512,264.399231 308.677512,243.766507 L308.677512,243.766507 Z" id="Path"></path>
                <path d="M308.677512,416.551196 C308.677512,414.487924 310.350125,412.815311 312.413397,412.815311 L482.863158,412.815311 C484.92643,412.815311 486.599043,414.487924 486.599043,416.551196 L486.599043,484.264115 C486.599043,486.327387 484.92643,488 482.863158,488 L380.126316,488 C340.92414,488 309.144498,456.220358 309.144498,417.018182 L309.144498,417.018182 L308.677512,416.551196 Z" id="Path"></path>
                <path d="M411.414354,5.60382775 C411.414354,3.54055535 413.086967,1.86794258 415.150239,1.86794258 L585.6,1.86794258 C587.663272,1.86794258 589.335885,3.54055535 589.335885,5.60382775 L589.335885,73.3167464 C589.335885,75.3800188 587.663272,77.0526316 585.6,77.0526316 L415.150239,77.0526316 C413.086967,77.0526316 411.414354,75.3800188 411.414354,73.3167464 L411.414354,5.60382775 Z" id="Path"></path>
                <path d="M411.414354,173.71866 C411.414354,134.516485 443.193997,102.736842 482.396172,102.736842 L482.396172,102.736842 C484.459445,102.736842 486.132057,104.409455 486.132057,106.472727 L486.132057,276.922488 C486.132057,278.98576 484.459445,280.658373 482.396172,280.658373 L414.683254,280.658373 C412.619981,280.658373 410.947368,278.98576 410.947368,276.922488 L410.947368,174.185646 L411.414354,173.71866 Z" id="Path"></path>
                <path d="M411.414354,313.814354 C411.414354,311.751082 413.086967,310.078469 415.150239,310.078469 L517.887081,310.078469 C557.089257,310.078469 588.8689,341.858111 588.8689,381.060287 L588.8689,381.060287 C588.8689,383.123559 587.196287,384.796172 585.133014,384.796172 L482.396172,384.796172 C443.193997,384.796172 411.414354,353.01653 411.414354,313.814354 L411.414354,313.814354 Z" id="Path"></path>
                <path d="M514.151196,108.34067 C514.151196,106.277397 515.823809,104.604785 517.887081,104.604785 L585.6,104.604785 C587.663272,104.604785 589.335885,106.277397 589.335885,108.34067 L589.335885,176.053589 C589.335885,178.116861 587.663272,179.789474 585.6,179.789474 L585.6,179.789474 C546.397824,179.789474 514.618182,148.009831 514.618182,108.807656 L514.618182,108.807656 L514.151196,108.34067 Z" id="Path"></path>
                <path d="M514.151196,211.077512 C514.151196,209.01424 515.823809,207.341627 517.887081,207.341627 L620.623923,207.341627 C659.826099,207.341627 691.605742,239.121269 691.605742,278.323445 L691.605742,278.323445 C691.605742,280.386717 689.933129,282.05933 687.869856,282.05933 L517.420096,282.05933 C515.356823,282.05933 513.684211,280.386717 513.684211,278.323445 L513.684211,210.610526 L514.151196,211.077512 Z" id="Path"></path>
                <path d="M514.151196,416.551196 C514.151196,414.487924 515.823809,412.815311 517.887081,412.815311 L688.336842,412.815311 C690.400115,412.815311 692.072727,414.487924 692.072727,416.551196 L692.072727,484.264115 C692.072727,486.327387 690.400115,488 688.336842,488 L517.887081,488 C515.823809,488 514.151196,486.327387 514.151196,484.264115 L514.151196,416.551196 L514.151196,416.551196 Z" id="Path"></path>
                <path d="M616.888038,38.292823 C616.888038,17.6600989 633.614166,0.933971292 654.24689,0.933971292 L654.24689,0.933971292 C674.879614,0.933971292 691.605742,17.6600989 691.605742,38.292823 L691.605742,38.292823 C691.605742,58.925547 674.879614,75.6516746 654.24689,75.6516746 L654.24689,75.6516746 C633.614166,75.6516746 616.888038,58.925547 616.888038,38.292823 L616.888038,38.292823 Z" id="Path"></path>
                <path d="M616.888038,141.029665 C616.888038,120.396941 633.614166,103.670813 654.24689,103.670813 L654.24689,103.670813 C674.879614,103.670813 691.605742,120.396941 691.605742,141.029665 L691.605742,141.029665 C691.605742,161.662389 674.879614,178.388517 654.24689,178.388517 L654.24689,178.388517 C633.614166,178.388517 616.888038,161.662389 616.888038,141.029665 L616.888038,141.029665 Z" id="Path"></path>
                <path d="M616.888038,313.814354 C616.888038,311.751082 618.560651,310.078469 620.623923,310.078469 L791.073684,310.078469 C793.136957,310.078469 794.809569,311.751082 794.809569,313.814354 L794.809569,381.527273 C794.809569,383.590545 793.136957,385.263158 791.073684,385.263158 L620.623923,385.263158 C618.560651,385.263158 616.888038,383.590545 616.888038,381.527273 L616.888038,313.814354 L616.888038,313.814354 Z" id="Path"></path>
                <path d="M719.62488,5.60382775 C719.62488,3.54055535 721.297493,1.86794258 723.360766,1.86794258 L791.073684,1.86794258 C793.136957,1.86794258 794.809569,3.54055535 794.809569,5.60382775 L794.809569,73.3167464 C794.809569,75.3800188 793.136957,77.0526316 791.073684,77.0526316 L791.073684,77.0526316 C751.871509,77.0526316 720.091866,45.2729891 720.091866,6.0708134 L720.091866,6.0708134 L719.62488,5.60382775 Z" id="Path" transform="translate(757.217225, 39.460287) rotate(-180.000000) translate(-757.217225, -39.460287) "></path>
                <path d="M719.62488,108.34067 C719.62488,106.277397 721.297493,104.604785 723.360766,104.604785 L723.360766,104.604785 C762.562941,104.604785 794.342584,136.384427 794.342584,175.586603 L794.342584,175.586603 C794.342584,177.649875 792.669971,179.322488 790.606699,179.322488 L722.89378,179.322488 C720.830507,179.322488 719.157895,177.649875 719.157895,175.586603 L719.157895,107.873684 L719.62488,108.34067 Z" id="Path"></path>
                <path d="M719.62488,211.077512 C719.62488,209.01424 721.297493,207.341627 723.360766,207.341627 L791.073684,207.341627 C793.136957,207.341627 794.809569,209.01424 794.809569,211.077512 L794.809569,211.077512 C794.809569,250.279688 763.029927,282.05933 723.827751,282.05933 L723.827751,282.05933 C721.764479,282.05933 720.091866,280.386717 720.091866,278.323445 L720.091866,210.610526 L719.62488,211.077512 Z" id="Path"></path>
                <path d="M719.62488,416.551196 C719.62488,414.487924 721.297493,412.815311 723.360766,412.815311 L791.073684,412.815311 C793.136957,412.815311 794.809569,414.487924 794.809569,416.551196 L794.809569,484.264115 C794.809569,486.327387 793.136957,488 791.073684,488 L791.073684,488 C751.871509,488 720.091866,456.220358 720.091866,417.018182 L720.091866,417.018182 L719.62488,416.551196 Z" id="Path"></path>
            </g>
        </g>
    </g>
</svg>