<svg xmlns="http://www.w3.org/2000/svg" width="35" height="22" viewBox="0 0 35 22">
  <path d="M28.5842857,2.59857143 L19.4892857,2.59857143 L19.4892857,0 L28.5842857,0 L28.5842857,2.59857143 Z M30.8268529,15.5914286 C30.2525686,17.2766021 28.1906021,19.4892857 24.1991964,19.4892857 C20.2051921,19.4892857 16.9699707,17.2428207 16.9699707,12.1158393 C16.9699707,7.03563214 19.99081,4.42406786 24.0718664,4.42406786 C28.076265,4.42406786 30.5215207,6.739395 31.0555271,10.1747064 C31.1568714,10.832145 31.1971493,11.7182579 31.1789593,12.9551779 L20.7495929,12.9551779 C20.9185,17.1271843 25.275005,17.2584121 26.7107157,15.5914286 L30.8268529,15.5914286 Z M20.8405429,10.3942857 L27.2914964,10.3942857 C27.1550714,8.38429071 25.8155079,7.51117071 24.0731657,7.51117071 C22.1684129,7.51117071 21.1146921,8.50902214 20.8405429,10.3942857 Z M8.40118143,19.4736943 L0,19.4736943 L0,0.027285 L9.03393357,0.027285 C16.1488221,0.132527143 16.2839479,7.10059643 12.5679907,9.00015214 C17.0648186,10.6372521 17.2155357,19.4736943 8.40118143,19.4736943 Z M3.89785714,7.79571429 L8.55449714,7.79571429 C11.8131057,7.79571429 12.3302214,3.89785714 8.14912,3.89785714 L3.89785714,3.89785714 L3.89785714,7.79571429 Z M8.303735,11.6935714 L3.89785714,11.6935714 L3.89785714,15.6122171 L8.23877071,15.6122171 C12.2080886,15.6122171 11.9651221,11.6935714 8.303735,11.6935714 L8.303735,11.6935714 Z" transform="translate(1.317 .995)"/>
</svg>
