<?xml version="1.0" encoding="UTF-8"?>
<svg width="787px" height="787px" viewBox="0 0 787 787" version="1.1" xmlns="http://www.w3.org/2000/svg" xmlns:xlink="http://www.w3.org/1999/xlink">
    <title>behance</title>
    <g id="behance" stroke="none" stroke-width="1" fill="none" fill-rule="evenodd">
        <path d="M605.772974,276.748351 L457.179967,276.748351 L457.179967,234.293206 L605.772974,234.293206 L605.772974,276.748351 Z M642.411764,489.024076 C633.029177,516.556238 599.34102,552.706794 534.129917,552.706794 C468.876359,552.706794 416.019704,516.004321 416.019704,432.24032 C416.019704,349.240511 465.37381,306.573091 532.049615,306.573091 C597.472993,306.573091 637.423285,344.400625 646.147817,400.526327 C647.803568,411.267478 648.461623,425.744683 648.164437,445.953332 L477.770712,445.953332 C480.530296,514.115067 551.706347,516.259052 575.162815,489.024076 L642.411764,489.024076 Z M479.256642,404.113786 L584.65154,404.113786 C582.422644,371.274732 560.537017,357.009803 532.070842,357.009803 C500.951221,357.009803 483.73566,373.312579 479.256642,404.113786 Z M276.023863,552.452063 L138.766379,552.452063 L138.766379,234.738985 L286.361691,234.738985 C402.603878,236.458419 404.811545,350.30189 344.100688,381.336601 C417.569316,408.083342 420.031715,552.452063 276.023863,552.452063 Z M202.449097,361.658641 L278.528716,361.658641 C331.767468,361.658641 340.216042,297.975924 271.905714,297.975924 L202.449097,297.975924 L202.449097,361.658641 Z M274.431795,425.341359 L202.449097,425.341359 L202.449097,489.363717 L273.370416,489.363717 C338.22065,489.363717 334.251094,425.341359 274.431795,425.341359 L274.431795,425.341359 Z" id="Shape" fill="#000000" fill-rule="nonzero" transform="translate(393.500000, 393.500000) rotate(-360.000000) translate(-393.500000, -393.500000) "></path>
    </g>
</svg>