<?xml version="1.0" encoding="UTF-8"?>
<svg width="787px" height="787px" viewBox="0 0 787 787" version="1.1" xmlns="http://www.w3.org/2000/svg" xmlns:xlink="http://www.w3.org/1999/xlink">
    <title>codepen</title>
    <g id="codepen" stroke="none" stroke-width="1" fill="none" fill-rule="evenodd">
        <path d="M393.486805,645.131617 C393.432367,645.131617 393.377929,645.131395 393.323493,645.130952 L393.513195,645.131617 C393.39222,645.131617 393.271496,645.130543 393.151032,645.128404 C393.049858,645.127109 392.948553,645.124643 392.847267,645.121408 C392.834609,645.120325 392.821961,645.1199 392.809316,645.119462 C392.593422,645.112857 392.377631,645.102061 392.162021,645.087774 C392.135985,645.084959 392.109648,645.08315 392.083326,645.081291 C388.703044,644.844983 385.370265,643.749088 382.425984,641.794697 L382.425984,641.794697 L149.847147,487.410697 C144.264028,483.704666 140.907969,477.448803 140.907969,470.747617 L140.907969,470.747617 L140.907969,314.252383 C140.907969,307.551197 144.264028,301.295334 149.847147,297.589303 L149.847147,297.589303 L382.425984,143.205303 C385.678921,141.046029 389.406079,139.934682 393.147166,139.871262 C393.230389,139.870174 393.313242,139.869193 393.396213,139.868718 C393.42669,139.868451 393.456747,139.868383 393.486805,139.868383 L393.513195,139.868383 L393.513195,139.868383 C397.884211,139.868383 401.927726,141.270585 405.218457,143.649708 L636.427336,297.124357 C638.885671,298.605463 641.062399,300.641498 642.755111,303.191562 C645.22368,306.91045 646.285092,311.153479 646.066206,315.292852 L646.065893,469.703073 C646.287775,473.884809 645.203205,478.170856 642.68538,481.912777 C641.002365,484.414026 638.852903,486.413637 636.430661,487.873738 L405.226288,641.344628 C401.934142,643.727189 397.887679,645.131617 393.513195,645.131617 Z M278.088,416.023 L196.913969,470.642383 L373.512969,587.867383 L373.513,479.365 L278.088,416.023 Z M508.937,416.023 L413.513,479.365 L413.512969,587.831383 L590.084969,470.625383 L508.937,416.023 Z M393.513,338.358 L314.007,391.855 L393.513,444.631 L473.019,391.855 L393.513,338.358 Z M180.906969,351.515383 L180.906969,433.201383 L242.02,392.081 L180.906969,351.515383 Z M606.064969,351.550383 L545.006,392.081 L606.064969,433.165383 L606.064969,351.550383 Z M413.512969,197.166383 L413.513,303.604 L509.088,367.913 L589.914969,314.260383 L413.512969,197.166383 Z M373.512969,197.130383 L197.083969,314.242383 L277.938,367.913 L373.513,303.604 L373.512969,197.130383 Z" id="Combined-Shape" fill="#000000" fill-rule="nonzero"></path>
    </g>
</svg>