<?xml version="1.0" encoding="UTF-8"?>
<svg width="787px" height="787px" viewBox="0 0 787 787" version="1.1" xmlns="http://www.w3.org/2000/svg" xmlns:xlink="http://www.w3.org/1999/xlink">
    <title>github</title>
    <g id="github" stroke="none" stroke-width="1" fill="none" fill-rule="evenodd">
        <path d="M572.192624,138.219994 C589.187461,181.240615 578.490864,213.018097 575.263667,220.877884 C595.303521,242.739542 607.40551,270.613157 607.40551,304.706934 C607.40551,424.659773 534.351134,451.075944 464.810239,458.805602 C476.001326,468.487193 486.229459,487.486016 486.229459,516.634894 L486.229459,644.747094 C486.229459,645.029435 486.235239,645.313463 486.247027,645.598613 L486.294377,645.609145 C458.047372,646.85941 426.995293,647.500727 392.883033,647.500727 C370.622219,647.500727 349.664596,647.227619 329.93927,646.690399 L329.981051,646.68069 C330.044375,646.031753 330.074755,645.385039 330.074755,644.747094 L330.074755,544.196199 C243.200688,563.090918 225.112768,507.343689 225.112768,507.343689 C211.613194,473.050815 192.452946,462.668999 190.570671,461.71655 L190.444762,461.654071 C190.428591,461.646254 190.420398,461.642412 190.420398,461.642412 C163.495423,443.222663 189.677427,442.677488 192.362939,442.66902 L192.500594,442.669037 C192.518091,442.669105 192.532806,442.669192 192.54465,442.669278 L192.580538,442.669616 L192.580538,442.669616 C223.314386,444.812058 239.775997,473.67433 240.422167,474.827964 L240.441955,474.86351 L240.441955,474.86351 C268.289544,522.594798 313.496331,508.801133 331.323993,500.811217 C334.108752,480.641235 342.20277,466.847569 351.15564,459.06586 C281.796926,451.127995 208.872679,424.347464 208.872679,304.706934 C208.872679,270.587131 221.078771,242.739542 241.040548,220.877884 C237.813351,212.992071 227.116753,181.214589 244.085564,138.219994 C244.085564,138.219994 270.319555,129.839691 329.996678,170.231708 C354.903353,163.308849 381.605808,159.84742 408.152107,159.717291 C434.698407,159.84742 461.426887,163.308849 486.385614,170.231708 C546.010685,129.839691 572.192624,138.219994 572.192624,138.219994 Z" fill="#000000" fill-rule="nonzero"></path>
    </g>
</svg>