<svg xmlns="http://www.w3.org/2000/svg" width="34" height="39" viewBox="0 0 34 39">
  <path d="M523.248806,720.965106 C525.116524,720.44597 527.118905,720.186402 529.109576,720.176644 C531.100247,720.186402 533.104579,720.44597 534.9762,720.965106 C538.050152,718.882708 539.93875,718.528989 540.818934,718.511273 L540.967895,718.511445 C541.266738,718.518495 541.410751,718.564591 541.410751,718.564591 C542.68517,721.790648 541.883047,724.173599 541.641044,724.762993 C543.143805,726.402369 544.051317,728.492574 544.051317,731.04922 C544.051317,740.04432 538.573069,742.025232 533.358292,742.604869 C534.197496,743.330878 534.96449,744.755574 534.96449,746.941409 L534.964244,755.752081 C532.744593,756.404704 530.395472,756.754859 527.964569,756.754859 C526.353812,756.754859 524.778963,756.60112 523.253895,756.307515 L523.254661,749.008193 C516.740093,750.425083 515.383705,746.244674 515.383705,746.244674 C514.318111,743.537752 512.782171,742.817597 512.782171,742.817597 C510.824627,741.478414 512.610504,741.39918 512.904686,741.395016 L512.944157,741.394853 L512.944157,741.394853 C515.295881,741.558791 516.53322,743.80903 516.53322,743.80903 C518.621473,747.388334 522.011468,746.353966 523.34834,745.754813 C523.557165,744.242293 524.164125,743.207925 524.835488,742.624385 C519.634373,742.029136 514.165883,740.0209 514.165883,731.04922 C514.165883,728.490622 515.081201,726.402369 516.578107,724.762993 C516.336104,724.171647 515.533981,721.788697 516.806449,718.564591 C516.806449,718.564591 516.950748,718.518495 517.250086,718.511445 L517.39929,718.511273 C518.280889,718.528989 520.172171,718.882708 523.248806,720.965106 Z" transform="translate(-511 -718)"/>
</svg>
