<?xml version="1.0" encoding="UTF-8"?>
<svg  viewBox="0 0 2361 2128" version="1.1" xmlns="http://www.w3.org/2000/svg" xmlns:xlink="http://www.w3.org/1999/xlink">
    <title>lines</title>
    <g id="lines" stroke="none" stroke-width="1" fill="none" fill-rule="evenodd" opacity="0.451081032">
        <g id="Page-1" stroke="#979797" transform="translate(0.000000, 0.000000)">
            <g id="Group" transform="translate(1180.500000, 1064.000000) scale(-1, 1) translate(-1180.500000, -1064.000000) ">
                <path d="M15.162234,0 C295.784044,26.8351877 520.196529,226.697129 688.399689,599.585824 C940.704429,1158.91886 1550.21667,1776.68828 2361,1819.89394" id="Path-9"></path>
                <path d="M15.162234,45.3368873 C295.784044,72.1720754 520.196529,272.034016 688.399689,644.922711 C940.704429,1204.25576 1550.21667,1822.02516 2361,1865.23083" id="Path-9"></path>
                <path d="M9.80988343,87.7170209 C290.431693,114.552209 514.844178,314.41415 683.047338,687.302845 C935.352078,1246.63589 1544.86432,1864.4053 2355.64764,1907.61096" id="Path-9"></path>
                <path d="M9.80988343,133.053908 C290.431693,159.889096 514.844178,359.751038 683.047338,732.639732 C935.352078,1291.97277 1544.86432,1909.74219 2355.64764,1952.94785" id="Path-9"></path>
                <path d="M5.3523506,175.052152 C285.974161,201.88734 510.386646,401.749281 678.589805,774.637974 C930.894546,1333.97102 1540.40678,1951.74043 2351.19012,1994.94609" id="Path-9"></path>
                <path d="M5.3523506,220.38904 C285.974161,247.224228 510.386646,447.086168 678.589805,819.974866 C930.894546,1379.30791 1540.40678,1997.07732 2351.19012,2040.28298" id="Path-9"></path>
                <path d="M0,262.769173 C280.62181,289.604361 505.034295,489.466302 673.237454,862.354997 C925.542195,1421.68804 1535.05444,2039.45745 2345.83776,2082.66312" id="Path-9"></path>
                <path d="M0,308.106061 C280.62181,334.941248 505.034295,534.80319 673.237454,907.691881 C925.542195,1467.02493 1535.05444,2084.79434 2345.83776,2128" id="Path-9"></path>
            </g>
        </g>
    </g>
</svg>