<?xml version="1.0" encoding="UTF-8"?>
<svg width="1842px" height="1057px" viewBox="0 0 1842 1057" version="1.1" xmlns="http://www.w3.org/2000/svg" xmlns:xlink="http://www.w3.org/1999/xlink">
    <title>Group 4</title>
    <g id="Page-1" stroke="none" stroke-width="1" fill="none" fill-rule="evenodd">
        <g id="Desktop-HD" transform="translate(201.000000, -2145.000000)" stroke="#979797">
            <g id="Group-4" transform="translate(-200.666148, 2145.071106)">
                <path d="M1035.02336,0 C992.437444,454.826242 1082.93744,708.560561 1306.52336,761.202956 C1530.10927,813.845352 1708.20472,829.389401 1840.8097,807.835106" id="Path-11"></path>
                <path d="M998.171848,0 C979.542926,440.621895 1032.49343,705.084661 1157.02336,793.388298 C1281.55328,881.691935 1479.14129,963.238022 1749.78737,1038.02656" id="Path-12"></path>
                <path d="M955.767433,13.6609417 C944.239408,658.032745 1061.15805,1005.58847 1306.52336,1056.32812" id="Path-14"></path>
                <path d="M10.2202398,1.8189894e-12 C-32.3656723,454.826242 58.1343277,708.560561 281.72024,761.202956 C505.306152,813.845352 683.401601,829.389401 816.006587,807.835106" id="Path-11" transform="translate(408.003293, 408.613729) scale(-1, 1) translate(-408.003293, -408.613729) "></path>
                <path d="M94.6585358,1.8189894e-12 C76.0296146,440.621895 128.980117,705.084661 253.510044,793.388298 C378.039971,881.691935 575.627977,963.238022 846.274062,1038.02656" id="Path-12" transform="translate(468.648196, 519.013280) scale(-1, 1) translate(-468.648196, -519.013280) "></path>
                <path d="M535.062323,13.6609417 C523.534298,658.032745 640.452939,1005.58847 885.818246,1056.32812" id="Path-14" transform="translate(710.052297, 534.994531) scale(-1, 1) translate(-710.052297, -534.994531) "></path>
                <line x1="921.023356" y1="13.6609417" x2="916.318246" y2="1038.02656" id="Path-15"></line>
            </g>
        </g>
    </g>
</svg>