<?xml version="1.0" encoding="UTF-8"?>
<svg width="1934px" height="1515px" viewBox="0 0 1934 1515" version="1.1" xmlns="http://www.w3.org/2000/svg" xmlns:xlink="http://www.w3.org/1999/xlink">
    <title>Group 5</title>
    <g id="Page-1" stroke="none" stroke-width="1" fill="none" fill-rule="evenodd">
        <g id="Desktop-HD" transform="translate(127.000000, -1967.000000)" stroke="#979797">
            <g id="Group-5" transform="translate(-126.053867, 1967.722644)">
                <path d="M0,94 C364.954156,119.923859 592.119912,288.761453 681.497267,600.512784 C815.5633,1068.13978 1545.93392,1488.76599 1839.8097,1513.63939" id="Path-16"></path>
                <path d="M36.5613546,57 C401.515511,82.9238586 628.681267,251.761453 718.058622,563.512784 C852.124655,1031.13978 1582.49527,1451.76599 1876.37106,1476.63939" id="Path-16"></path>
                <path d="M18.0076674,73 C383.160189,98.9238586 610.449417,267.761453 699.875352,579.512784 C834.014254,1047.13978 1564.78186,1467.76599 1858.81737,1492.63939" id="Path-16"></path>
                <path d="M56.0538672,37 C421.008023,62.9238586 648.173779,231.761453 737.551134,543.512784 C871.617167,1011.13978 1601.98779,1431.76599 1895.86357,1456.63939" id="Path-16"></path>
                <path d="M92.6152218,0 C457.569378,25.9238586 684.735134,194.761453 774.112489,506.512784 C908.178522,974.13978 1638.54914,1394.76599 1932.42492,1419.63939" id="Path-16"></path>
                <path d="M74.0615346,16 C439.214056,41.9238586 666.503284,210.761453 755.929219,522.512784 C890.068122,990.13978 1620.83572,1410.76599 1914.87124,1435.63939" id="Path-16"></path>
            </g>
        </g>
    </g>
</svg>