<?xml version="1.0" encoding="UTF-8"?>
<svg width="1686px" height="3087px" viewBox="0 0 1686 3087" version="1.1" xmlns="http://www.w3.org/2000/svg" xmlns:xlink="http://www.w3.org/1999/xlink">
    <title>Group</title>
    <g id="Page-1" stroke="none" stroke-width="1" fill="none" fill-rule="evenodd" opacity="0.451081032">
        <g id="Desktop-HD-Copy" transform="translate(135.000000, -3180.000000)" stroke="#979797">
            <g id="Group" transform="translate(708.364748, 4723.527077) scale(-1, 1) translate(-708.364748, -4723.527077) translate(-134.000000, 3181.027077)">
                <path d="M10.8192558,0 C211.061459,38.9034558 371.194595,328.646919 491.218663,869.230388 C671.254766,1680.10559 1106.18202,2575.69706 1684.7295,2638.33308" id="Path-9"></path>
                <path d="M10.8192558,65.7257037 C211.061459,104.62916 371.194595,394.372622 491.218663,934.956092 C671.254766,1745.8313 1106.18202,2641.42276 1684.7295,2704.05879" id="Path-9"></path>
                <path d="M7,127.164948 C207.242203,166.068404 367.375339,455.811867 487.399407,996.395337 C667.43551,1807.27054 1102.36277,2702.86201 1680.91024,2765.49803" id="Path-9"></path>
                <path d="M7,192.890652 C207.242203,231.794108 367.375339,521.537571 487.399407,1062.12104 C667.43551,1872.99624 1102.36277,2768.58771 1680.91024,2831.22374" id="Path-9"></path>
                <path d="M3.8192558,253.776264 C204.061459,292.67972 364.194595,582.423183 484.218663,1123.00665 C664.254766,1933.88186 1099.18202,2829.47332 1677.7295,2892.10935" id="Path-9"></path>
                <path d="M3.8192558,319.501968 C204.061459,358.405424 364.194595,648.148886 484.218663,1188.73236 C664.254766,1999.60756 1099.18202,2895.19903 1677.7295,2957.83505" id="Path-9"></path>
                <path d="M0,380.941212 C200.242203,419.844668 360.375339,709.588131 480.399407,1250.1716 C660.43551,2061.04681 1095.36277,2956.63827 1673.91024,3019.2743" id="Path-9"></path>
                <path d="M0,446.666916 C200.242203,485.570372 360.375339,775.313835 480.399407,1315.8973 C660.43551,2126.77251 1095.36277,3022.36398 1673.91024,3085" id="Path-9"></path>
            </g>
        </g>
    </g>
</svg>