<svg xmlns="http://www.w3.org/2000/svg" width="28" height="26" viewBox="0 0 28 26">
  <path d="M5.11862275,2.56958974 C5.11862275,3.9890311 3.97772491,5.13917947 2.56958974,5.13917947 C1.16145456,5.13917947 0.0205567179,3.9890311 0.0205567179,2.56958974 C0.0205567179,1.1511762 1.16145456,0 2.56958974,0 C3.97772491,0 5.11862275,1.1511762 5.11862275,2.56958974 Z M5.13917947,7.19485126 L0,7.19485126 L0,23.6402256 L5.13917947,23.6402256 L5.13917947,7.19485126 Z M13.3433656,7.19485126 L8.23707686,7.19485126 L8.23707686,23.6402256 L13.3443934,23.6402256 L13.3443934,15.0074319 C13.3443934,10.2074383 19.541216,9.81480495 19.541216,15.0074319 L19.541216,23.6402256 L24.6680615,23.6402256 L24.6680615,13.2272201 C24.6680615,5.12787328 15.4977096,5.42286218 13.3433656,9.40983761 L13.3433656,7.19485126 Z" transform="translate(1.508 1.297)"/>
</svg>
