<?xml version="1.0" encoding="UTF-8"?>
<svg width="787px" height="787px" viewBox="0 0 787 787" version="1.1" xmlns="http://www.w3.org/2000/svg" xmlns:xlink="http://www.w3.org/1999/xlink">
    <title>linkedin-square</title>
    <g id="linkedin" stroke="none" stroke-width="1" fill="none" fill-rule="evenodd">
        <rect id="Rectangle" fill="#000000" transform="translate(392.883033, 392.500000) rotate(-360.000000) translate(-392.883033, -392.500000) " x="-1.61696696" y="-2" width="789" height="789" rx="167"></rect>
        <path d="M275.615539,241.366076 C275.615539,264.556737 256.975688,283.347721 233.969747,283.347721 C210.963805,283.347721 192.323954,264.556737 192.323954,241.366076 C192.323954,218.192207 210.963805,199.38443 233.969747,199.38443 C256.975688,199.38443 275.615539,218.192207 275.615539,241.366076 Z M275.951392,316.933038 L191.988101,316.933038 L191.988101,585.61557 L275.951392,585.61557 L275.951392,316.933038 Z M409.99039,316.933038 L326.564464,316.933038 L326.564464,585.61557 L410.007183,585.61557 L410.007183,444.574033 C410.007183,366.152319 511.25012,359.737524 511.25012,444.574033 L511.25012,585.61557 L595.011899,585.61557 L595.011899,415.489149 C595.011899,283.163002 445.187802,287.982495 409.99039,353.121216 L409.99039,316.933038 Z" id="Shape" fill="#FFFFFF" fill-rule="nonzero" transform="translate(393.500000, 392.500000) rotate(-360.000000) translate(-393.500000, -392.500000) "></path>
    </g>
</svg>