<svg xmlns="http://www.w3.org/2000/svg" width="28" height="17" viewBox="0 0 28 17">
  <path d="M44.1353188,502.654113 L44.2402612,502.705424 L56.2402612,509.455424 C56.8821545,509.816489 56.9178152,510.709385 56.3472434,511.129542 L56.2402612,511.198576 L44.2402612,517.948576 C43.7589034,518.219339 43.1491883,518.048619 42.8784245,517.567261 C42.6270009,517.120286 42.7562447,516.562636 43.161393,516.268463 L43.2597388,516.205424 L51.931,511.327 L30,511.327 C29.4477153,511.327 29,510.879285 29,510.327 C29,509.814164 29.3860402,509.391493 29.8833789,509.333728 L30,509.327 L51.934,509.327 L43.2597388,504.448576 C42.8127636,504.197152 42.6336341,503.653469 42.8271134,503.191681 L42.8784245,503.086739 C43.129848,502.639764 43.6735305,502.460634 44.1353188,502.654113 Z" transform="translate(-28 -502)"/>
</svg>
