<svg version="1.1"
      xmlns="http://www.w3.org/2000/svg"
      xmlns:xlink="http://www.w3.org/1999/xlink"  id="snapshot-90147" width="240" height="240" viewBox="0 0 240 240"><desc>This image was made on Patterninja.com</desc><defs>
<!-- image 31635 -->
<g id="transformed-31635" data-image="31635" transform="translate(-125, -121.5) rotate(0, 125, 121.5)"><g><svg version="1.1" width="250px" height="243px" viewBox="0 0 250 243"><g id="original-31635"><svg xmlns="http://www.w3.org/2000/svg" viewBox="0 0 352 343" xmlns:xlink="http://www.w3.org/1999/xlink" version="1.1" preserveAspectRatio="xMidYMid meet">
  <defs>
    <filter id="a">
      <feColorMatrix in="SourceGraphic" values="0 0 0 0 1.000000 0 0 0 0 1.000000 0 0 0 0 1.000000 0 0 0 1.000000 0"/>
    </filter>
  </defs>
  <path d="M129.775 75.462c4.897.033 6.043-.385 9.08-2.694 1.503-1.142 2.697-2.54 3.808-4.008 3.732-4.934 6.058-10.383 6.24-16.58.124-4.178-1.182-7.68-5.064-9.943-.92-.536-1.772-1.203-2.737-1.639-4.299-1.941-8.848-2.536-13.254-.834-2.241.867-4.447 1.443-6.771 1.902-3.892.77-6.938 2.704-8.373 6.528-2.292 6.106-3.491 12.332-.931 18.585 1.05 2.567 2.646 4.904 5.672 6.128 4.3 1.742 8.835 1.894 12.33 2.555zm-22.262-15.95c-.037-3.577.96-6.987 1.84-10.394 1.244-4.826 4.636-7.87 9.32-9.486 4.05-1.398 8.257-2.496 12.529-2.844 4.877-.398 9.66.425 13.618 3.534 1.733 1.362 3.568 2.576 4.793 4.622 2.292 3.825 2.07 7.714 1.151 11.711-1.153 5.026-3.254 9.663-6.431 13.814-3.462 4.52-7.914 7.345-13.858 7.555-4.35.153-8.622-.56-12.667-1.958-6.381-2.208-9.232-7.202-10.184-13.428a9.446 9.446 0 0 1-.106-1.17c-.018-.652-.005-1.305-.005-1.956zm39.914 247.953l.223.043-.16-.15c.662.83 1.758.49 2.577.901.638.322.929 1.057.538 1.64a28.46 28.46 0 0 1-1.66 2.204c-.845 1.03-1.44 2.147-1.893 3.408-1.804 5.004-1.027 9.832 1.218 14.42 1.15 2.352 3.079 4.114 5.988 4.815 2.892.697 5.63.365 8.333-.398 5.583-1.574 9.87-6.85 9.893-12.462.015-3.563-.508-7.02-1.89-10.33-.994-2.383-2.722-4.137-5.057-5.322-.708-.36-1.512-.569-2.169-.995-2.9-1.881-6.166-1.417-9.34-1.353-.865.018-1.768.578-2.565 1.035-1.386.79-2.702 1.696-4.036 2.544zm10.026 30.012c-1.14-.052-1.947-.135-2.75-.117-4.301.093-7.02-2.233-8.907-5.646-2.618-4.742-3.523-9.797-2.63-15.151.264-1.59 1.44-3.2.108-4.838.306-1.661.48-3.362 1.64-4.75 3.658-4.374 8.267-6.383 14.129-5.609 2.827.374 5.477 1.027 7.982 2.432 2.826 1.584 4.677 3.896 5.882 6.718 1.658 3.882 2.302 7.932 2.272 12.168-.02 2.88-.745 5.349-2.397 7.669-1.156 1.623-2.28 3.16-4.381 3.835-1.38.442-2.633 1.276-3.914 1.985-2.304 1.28-4.757 1.712-7.034 1.304zM34.977 198.417c.162-2.298-.551-4.934-3.26-6.51a19.669 19.669 0 0 0-9.566-2.694c-.994-.021-1.824.192-2.135 1.329-.265.978-.92 1.601-2.082 1.307-2.235-.567-3.783 2.075-6.081 1.22-.088-.032-.252.08-.362.151-.224.142-.452.283-.648.459a8.634 8.634 0 0 0-2.408 3.561c-1.272 3.569-1.031 7.176-.118 10.76.36 1.42 1.317 2.543 2.446 3.495.607.512 1.26.975 1.9 1.45 4.73 3.51 11.643 3.448 15.933-.413 3.994-3.594 6.23-8.11 6.381-14.114zm-30.76 4.244c-.26-3.573 1.036-6.695 3.034-9.553 1.711-2.452 3.944-4.254 7.185-4.433 1.512-.083 2.858-.65 4.177-1.306 1.603-.798 3.209-1.082 5.036-.584 1.798.49 3.717.54 5.538.963 6.493 1.512 9.313 7.702 8.492 12.647-.76 4.577-2.603 8.602-5.404 12.04-4.046 4.965-9.647 6.858-16.177 5.54-4.576-.923-8.177-3.232-10.338-7.336-1.31-2.49-1.497-5.24-1.542-7.978zm197.16-76.006c-.137 3.464.314 5.91 1.092 8.286 1.284 3.916 3.742 6.767 7.707 8.532 2.68 1.193 5.46 1.495 8.234 1.502 2.95.007 5.51-1.188 6.786-4.095.893-2.04 1.933-4.031 2.669-6.124 1.664-4.73 1.687-9.42-.56-14.063-1.04-2.15-2.502-3.661-4.86-4.31-2.196-.605-4.418-1.016-6.692-1.33-2.62-.362-5.053.656-7.595.47-1.82-.132-2.953.753-3.937 2.128-.541.755-1 1.518-1.434 2.331-1.284 2.413-1.225 5.038-1.41 6.673zM213.9 112.2c3.129.03 6.079.78 9.084 1.55 4.311 1.105 6.587 3.961 7.648 7.757 1.2 4.299 1.651 8.7-.249 13.026-.888 2.025-1.512 4.158-2.376 6.196-1.862 4.396-5.565 6.64-10.396 6.576-3.417-.045-6.615-.813-9.72-2.153-3.223-1.391-5.51-3.684-6.921-6.757-2.222-4.84-3.073-9.96-2.775-15.235.101-1.813.57-3.6 1.768-5.106.245-.307.547-.619.653-.977.934-3.182 3.544-4.036 6.472-4.36 2.261-.251 4.54-.35 6.812-.517zM106.96 6.43c-.674 0-1.348-.027-2.019.005-1.224.059-1.26.116-.997 1.804.069.445-.085.82-.463.9-1.176.252-2.366.47-3.563.588-1.61.159-2.689.994-3.602 2.219-2.338 3.138-3.791 6.56-3.97 10.478-.19 4.245 1.793 7.574 5.754 9.44.604.286 1.205.59 1.836.807 7.898 2.714 13.82 1.134 19.071-5.727 1.152-1.505 1.425-3.377 2.265-5 1.392-2.695 1.466-5.462.99-8.359-.28-1.707-1.166-2.853-2.64-3.705-3.906-2.254-8.182-3.207-12.663-3.45zm-1.126-2.202c2.524.14 5.068.3 7.525 1.04.64.193 1.293.56 1.926.534 4.797-.188 6.879 3.376 9.359 6.354.381.457.619 1.249.523 1.823-.428 2.548-.31 5.153-.99 7.675-1.72 6.37-5.82 10.89-11.874 13.484-3.714 1.592-7.83 1.688-11.853.63-.774-.203-1.528-.49-2.299-.714-6.018-1.751-9.122-5.238-8.965-13.51.09-4.698 2.062-8.844 5.579-12.193.19-.183.43-.335.571-.548 2.476-3.724 6.268-4.614 10.498-4.575zM37.556 122.007c.385-1.609-.069-3.282-.348-4.943-.838-4.998-3.936-8.147-8.778-9.785-2.04-.691-4.158-.665-5.673.821-1.307 1.28-2.64 2.036-4.426 2.436-2.385.533-4.276 2.179-4.832 4.351-1.061 4.157-1.946 8.449.408 12.582 1.522 2.669 3.015 5.29 6.707 5.453.645.03 1.27.403 1.914.59 2.208.639 4.465.835 6.769.87 1.784.028 3.13-.604 4.192-1.902 2.483-3.034 4.206-6.359 4.067-10.473zm-27.87-2.575c-.29-2.654.442-5.502 2.134-8.146.657-1.026 1.348-1.904 2.61-2.29 1.687-.516 3.078-1.563 4.503-2.55 3.773-2.61 7.814-3.207 12.137-1.407.492.205.951.488 1.444.69 3.937 1.624 6.01 4.465 6.57 8.622.278 2.063.627 4.119.808 6.198.4 4.606-.933 8.779-3.457 12.599-1.979 2.993-4.865 4.368-8.57 4.039-3.476-.31-6.941-.6-10.216-1.947-1.269-.52-2.3-1.263-3.28-2.19-3.49-3.305-4.97-7.334-4.787-12.004.016-.391.05-.782.105-1.614zm50.67-23.58c2.833.021 5.585-.485 8.297-1.242.89-.247 1.89-.35 2.632-.824 3.525-2.25 6.583-5.014 8.508-8.705 1.665-3.196 2.474-6.62 1.67-10.235-.317-1.424-.8-2.756-2.227-3.556-4.144-2.323-8.478-3.922-13.387-3.428-.806.08-1.64.116-2.28.65-.742.62.18 1.14.177 1.716-.001.21-.17.558-.332.603-.642.174-1.308.321-1.973.357-2.174.118-4.355.665-6.164 1.594-5.925 3.044-8.645 7.929-7.61 15.398.204 1.481 1.017 2.612 2.1 3.682 2.935 2.897 6.527 3.975 10.59 3.99zm23.36-17.658c-.67 5.853-2.841 11.107-8.48 14.507-.557.335-.967.892-1.485 1.297-.52.407-1.038.932-1.646 1.1-4.508 1.235-8.971 2.847-13.685 2.977-3.063.084-6.159-.475-8.77-2.347-.324-.231-.601-.539-.95-.722-3.878-2.032-4.587-5.418-4.41-9.303.217-4.84 2.05-8.856 6.005-11.855 2.432-1.844 4.873-3.69 7.43-5.362 7.011-4.587 14.228-4.076 21.307-.274 2.65 1.423 4.427 3.781 4.418 7.013-.003.908.158 1.815.267 2.97zm102.251 165.712c.154 6.431 2.16 11.723 6.845 15.77 4.831 4.175 10.432 5.013 16.488 2.891 2.275-.797 4.015-2.331 4.698-4.552 1-3.249 1.52-6.611.771-10.013-.206-.936-.358-1.786.401-2.562.747-.764.286-1.72-.238-2.072-1.469-.99-1.962-2.377-2.21-3.926-.11-.681-.441-1.197-.825-1.742-2.682-3.812-6.466-5.912-11.108-6.315-2.38-.206-4.828.144-6.867 1.707-.946.725-1.958 1.372-2.96 2.024-3.378 2.196-5.326 5.113-4.995 8.79zm-2.505-.961c-.355-3.364 1.13-5.916 3.803-8.074 2.18-1.761 4.537-3.234 6.97-4.593 5.99-3.343 12.667-1.155 17.02 2.72 1.81 1.61 3.045 3.604 3.725 5.916a53.675 53.675 0 0 1 2.15 13.423c.042 1.285-.156 2.619-.49 3.867-.934 3.485-2.518 6.513-6.416 7.716-1.66.512-3.273 1.168-4.937 1.663-6.499 1.936-11.513-.585-15.673-5.191-2.225-2.463-3.725-5.35-4.584-8.593-.768-2.902-1.882-5.714-1.568-8.854zm-51.257-6.278c.94 0 1.885.072 2.816-.011 4.33-.39 7.606-2.299 9.457-6.259 1.027-2.2 1.274-4.546.982-6.858-.323-2.573-.814-5.18-1.675-7.625-1.421-4.03-3.853-7.173-8.834-7.275-.798-.016-1.59-.227-2.388-.319-3.752-.43-7.03.246-9.868 3.026-3.115 3.05-5.709 6.38-6.086 10.681-.403 4.587.932 8.776 4.978 11.732 3.155 2.303 6.781 2.96 10.618 2.908zm.481 3.073c-3.112-.436-5.834-.538-8.383-1.235-4.212-1.15-7.316-3.805-8.936-7.816-.678-1.68-1.084-3.489-1.409-5.274-.552-3.034-.157-5.967 1.49-8.672.273-.447.605-.877.788-1.36 1.773-4.675 5.565-7.243 10.126-8.782 2.204-.745 4.623-.946 7.005-.39.77.18 1.579.317 2.364.292 2.413-.077 4.324.781 6.122 2.359 1.743 1.53 3.004 3.23 3.765 5.376 1.588 4.48 2.557 8.997 1.538 13.75-.77 3.595-2.8 6.558-5.51 8.884-2.574 2.21-5.993 2.747-8.96 2.868zM53.418 120.497c-.09 5.836 2.481 9.412 8.274 11.535 1.001.368 2.005.445 3.123.376 4.59-.286 7.613-2.661 9.896-6.336a16.375 16.375 0 0 0 2.414-7.367c.215-2.684-.153-5.374-2.11-7.673-2.563-3.016-6.01-3.578-9.669-3.743-1.063-.049-2.211-.167-3.081.575-.996.849-2.001 1.212-3.304.748-.607-.216-.998.313-1.282.735-2.373 3.527-3.99 7.322-4.26 11.15zm26.688-2.095c-.37 5.546-2.092 10.295-6.361 13.385-8.059 5.834-16.861 4.222-21.658-2.996-1.263-1.9-1.671-4.116-1.547-6.364.269-4.897 1.771-9.435 4.495-13.566 1.038-1.574 2.331-2.85 4.435-3.005a3.747 3.747 0 0 0 1.525-.448c4.503-2.567 8.54-.822 12.422 1.379 2.182 1.235 4.26 2.689 5.253 5.186.88 2.212 1.385 4.464 1.436 6.429zm76.973 146.393c.079-2.905-.107-4.849-.707-6.722-1.46-4.564-6.644-7.107-11.24-5.464-2.088.746-4.23 1.475-4.703 4.151-.167.944-1.004 1.838-1.7 2.617-1.377 1.541-1.466 3.266-1.092 5.132 1.04 5.18 4.452 8.175 9.5 9.515 3.568.946 6.308-.33 8.067-3.48 1.163-2.085 2.069-4.241 1.875-5.749zm-22.783-1.156c-.214-2.69.593-5.081 1.5-7.376.833-2.11 2.71-3.57 4.613-4.782 3.977-2.533 8.322-2.696 12.742-1.31 2.128.667 3.603 2.153 4.702 4.066 3.784 6.585 2.654 15.622-2.661 21.129-1.082 1.12-2.444 1.564-3.894 1.863-2.559.525-5.143.166-7.59-.404-1.468-.34-2.906-1.426-4.006-2.512-3.024-2.988-5.906-6.132-5.406-10.674zM293.99 38.767c.417-.055 1.089-.1 1.74-.235 5.39-1.116 9.682-4.069 12.734-8.32 1.933-2.69 3.367-5.826 2.735-9.53-.286-1.68-.872-3.257-1.131-4.914-.239-1.535-1.199-2.566-2.354-3.51-3.213-2.627-7.143-3.491-11.11-4.088-2.062-.31-3.872.83-5.595 1.867-.219 1.674-1.697 2.258-2.885 3.037-4.182 2.742-5.718 6.786-5.697 11.406.01 2.041.476 4.116.894 6.171 1.126 5.529 5.454 7.589 10.669 8.116zM313.392 22.1c.125 3.387-1.311 5.954-2.398 8.518-.789 1.861-2.595 3.244-4.251 4.598-3.253 2.657-7.064 4.182-11.032 5.41-.739.229-1.584.213-2.375.18-2.166-.086-4.193-.74-6.239-1.41-3.28-1.074-4.964-3.467-5.878-6.45a41.041 41.041 0 0 1-1.419-6.498c-.706-5.207 1.161-9.747 4.277-13.852.878-1.155 2.21-1.936 3.603-2.423 1.31-.459 2.441-1.047 3.15-2.243.746-1.259 2.026-1.698 3.351-1.923 1.18-.201 2.415-.32 3.6-.214 3.521.314 6.795 1.58 9.806 3.238 2.036 1.12 3.893 2.74 4.06 5.416.054.863 1.223 1.39.97 2.452-.468 1.963 1.877 3.587.775 5.201zm-71.441 21.31c-2.565-.224-4.715.746-6.714 2.18-3.846 2.762-5.533 6.65-5.87 11.103-.212 2.802.567 5.432 2.602 7.59 1.222 1.296 2.89 1.85 4.444 2.605 5.381 2.616 11.203-.21 13.664-3.472 1.626-2.154 2.627-4.561 3.28-7.09.457-1.77.473-3.674-.303-5.377-1.977-4.339-5.342-7.735-11.103-7.54zm-1.796 26.792c-2.422.345-4.281-.22-6.176-1.513-1.494-1.02-3.334-1.51-4.568-3.024-1.993-2.442-3.167-5.092-3.066-8.256.076-2.364.464-4.69 1.184-6.914.728-2.25 1.986-4.153 4.39-5.298 1.506-.718 2.68-2.082 4.037-3.114 2.374-1.805 4.99-2.426 7.92-1.448.502.166 1.045.22 1.572.304 4.642.747 7.717 3.324 9.468 7.527 1.464 3.513 1.728 6.983.383 10.638-1.396 3.793-3.408 7.014-6.915 9.308-2.596 1.7-5.402 2.184-8.229 1.79zM63.859 59.828c-3.075 3.256-7.191 4.293-11.442 4.918-3.69.542-7.154.091-9.994-2.656-1.036-1.002-2.326-1.753-3.463-2.663-4.779-3.824-6.324-9.637-2.9-15.805 1.628-2.933 4.095-5.183 6.807-7.093 3.512-2.474 7.621-3.937 11.789-4.783a19.54 19.54 0 0 1 9.541.472c7.343 2.222 10.334 9.6 6.934 16.294-1.121 2.208-2.048 4.508-3.099 6.75-.33.7-.722 1.41-1.699 1.418l.045.038c-.211-1.454.915-2.398 1.48-3.543 1.703-3.456 2.923-6.996 2.792-10.903-.098-2.962-1.725-4.95-4.304-6.072-2.061-.9-4.315-1.523-6.549-1.882-2.911-.466-5.823-.256-8.371 1.532a2.53 2.53 0 0 1-1.1.413c-4.754.6-8.055 3.366-10.79 6.902-2.756 3.562-3.246 7.359-.95 11.351 1.331 2.315 3.078 4.244 5.283 5.834 2.155 1.554 4.467 2.256 7.154 2.031 4.42-.37 8.723-1.256 12.961-2.489l-.125-.064zm103.857 73.14c-.302 3.654 1.16 6.344 2.863 8.827 1.8 2.625 6.31 4.169 8.942 3.238 4.131-1.463 7.426-4.637 7.903-9.946.43-4.803-3.608-9.324-7.015-10.988-1.415-.692-3.062-.971-4.63-1.321-1.669-.373-3.174.376-4.647.964-1.165.465-1.083 1.672-1.338 2.68-.188.744-.538 1.478-.954 2.134-.96 1.513-1.33 3.123-1.124 4.411zm-3.577-.637c.193-2.767.369-5.108 2.299-6.905a2.65 2.65 0 0 0 .755-1.36c.277-1.484 1.45-2.27 2.602-2.816 2.297-1.088 4.707-1.768 7.385-1.262 3.665.69 6.968 1.879 9.344 4.87 3.315 4.171 4.73 8.58 2.81 13.858-.933 2.564-2.08 4.815-4.24 6.488-3.206 2.485-6.833 3.672-10.903 2.518-3.347-.95-5.955-2.94-7.597-5.991-1.654-3.067-2.19-6.403-2.455-9.4zm61.943 33.81c.438-2.075 2.024-3.36 3.57-4.575 1.928-1.514 4.297-1.387 6.536-.932 1.31.265 2.61.53 3.933.557 4.992.108 9.757 3.167 11.306 8.845 1.39 5.1 1.568 10.232.74 15.455-.716 4.521-3.07 7.963-6.688 10.719-.874.665-1.924.887-2.957 1.182-6.522 1.859-11.934-.034-16.324-4.793-4.35-4.714-5.455-10.623-5.966-16.684.907-3.415 1.899-6.795 4.51-9.437.375-.38.86-.619 1.45-.47.13.946-.137 1.789-.713 2.568-.625.848-1.19 1.715-1.534 2.735-2.357 6.964.036 18.067 8.579 22.98 8.362 4.809 15.698-.76 16.835-6.557.633-3.227.873-6.435 1.084-9.697.2-3.119-.228-5.91-1.742-8.64-1.612-2.905-3.691-5.076-7.308-5.424-1.195-.116-2.355-.547-3.547-.729-6.277-.954-6.278-.943-11.764 2.897zm16.135-30.88c.053.83.098 2.004.214 3.17.272 2.729 1.567 4.956 3.612 6.807 2.124 1.92 4.565 3.124 7.473 3.577 1.267.197 2.335.044 3.505-.327 3.348-1.061 5.433-3.3 6.478-6.465.57-1.73.955-3.524 1.335-5.307 1.316-6.17-1.527-10.627-6.344-14.209-1.793-1.332-3.85-1.708-6.107-1.39-2.544.36-4.541 1.782-6.213 3.393-2.674 2.578-4.954 5.521-3.962 9.625.06.247.009.52.009 1.126zm25.163-.717c-.242 1.936-.374 3.891-.745 5.803-1.495 7.7-9.522 12.386-17.316 10.28-5.802-1.566-8.981-5.31-9.954-10.93-.31-1.79-.342-3.63-.427-5.45-.063-1.329.084-2.612 1.348-3.498 1.194-.836 1.185-2.288 1.747-3.446.396-.814.445-1.875 1.023-2.5 2.412-2.608 4.792-5.302 8.506-6.285 3.03-.803 5.851-.496 8.347 1.438 1.361 1.054 2.631 2.217 3.933 3.341 1.135.98 1.849 2.213 2.276 3.618.757 2.487 1.65 4.951 1.262 7.63zm-93.833 153.287c.02.41-.055.956.084 1.445 1.682 5.939 4.968 10.643 11.094 12.945 3.357 1.261 6.64.928 9.353-1.541 2.767-2.519 4.986-5.433 5.74-9.17.692-3.433-.649-8.14-5.3-9.794-1.623-.577-3.344-.933-5.05-1.235-1.848-.326-3.595-.298-5.393.736-1.482.853-3.293 1.607-5.145.286-.39-.277-1.329-.05-1.911.185-2.761 1.113-3.454 3.4-3.472 6.143zm13.206-10.518c4.19.472 7.752.89 10.903 2.94 1.401.913 2.448 2.008 3.177 3.43 2.476 4.835 1.405 11.189-2.577 15.117-.48.473-.837.943-1.142 1.54-2.068 4.036-8.805 6.21-13.548 4.388-3.705-1.423-6.433-3.548-8.543-6.696-1.693-2.526-3.029-5.165-3.872-8.093-.913-3.168.079-5.904 1.527-8.594.504-.935 1.351-1.61 2.445-1.919.257-.073.508-.17.76-.26 3.692-1.358 7.685-.878 10.87-1.853zm-131.42 8.48c-1.53-.254-2.833.169-4.015 1.198-.784.684-1.782 1.131-2.623 1.761-2.965 2.222-5.13 4.94-5.403 8.729-.205 2.849.815 5.39 2.394 7.705 2.847 4.174 7.313 5.943 12.004 7.21 2.879.777 5.338-.526 7.24-2.435 4.461-4.474 5.992-9.78 3.698-15.75-.936-2.434-2.354-4.793-5.017-5.799a45.024 45.024 0 0 1-4.013-1.72c-1.32-.651-2.714-1.126-4.265-.899zm16.805 14.256c.02.181.213.634.075.95-1.596 3.644-2.08 7.843-5.503 10.59-.518.414-1.093.768-1.572 1.221-2.738 2.584-6.042 2.47-9.406 1.803-3.21-.637-6.063-2.165-8.724-3.934-4.545-3.021-7.135-10.135-5.749-15.335.336-1.262.68-2.538 1.867-3.375.68-.48 1.002-1.205 1.314-1.936.672-1.567 1.86-2.533 3.6-2.81.691-.111 1.145-.444 1.627-.976 2.966-3.273 6.383-4.082 10.443-2.627 2.545.912 4.891 2.191 6.907 3.926 3.778 3.25 5.178 7.501 5.121 12.503zm49.214-173.616c0-1.11-.074-1.772.013-2.412.454-3.352-1.418-5.46-4.131-6.938-2.604-1.418-5.36-2.432-8.402-.996-.595.281-1.485.271-1.836-.328-.77-1.314-1.76-.96-2.738-.49-.828.397-1.523 1-2.475 1.23-5.28 1.282-9.777 7.861-9.304 14.47.167 2.338.7 4.666 2.405 6.51 2.54 2.75 5.382 4.93 9.233 5.89 3.634.904 6.668.218 9.173-2.319 1.95-1.974 3.894-3.934 6.15-5.571 1.055-.766 1.67-1.888 1.601-2.963-.14-2.208.697-4.348.31-6.083zm-30.885 3.628c0-.91.005-1.82-.002-2.73-.01-1.333.248-2.53 1.252-3.574a6.87 6.87 0 0 0 1.444-2.325c1.357-3.681 4.392-5.432 7.901-6.656 3.293-1.148 6.867-1.035 10.188-2.16 1.58-.537 3.199.38 4.668.876 4.154 1.403 7.558 3.849 7.974 10.1.358 5.394-.604 10.403-4.381 14.595-2.915 3.234-6.14 6.09-10.422 7.576-.902.313-1.825.618-2.748.41-2.212-.496-4.56-.788-6.552-1.752-2.61-1.263-4.996-3.002-6.923-5.237-1.607-1.863-2.748-3.834-2.405-6.392.12-.896.02-1.82.02-2.731h-.014zm239.515 6.913c.525 0 1.196-.006 1.868 0 3.651.034 6.475-1.593 8.66-4.275 1.077-1.321 2.057-2.78 2.753-4.319 1.383-3.057 2.059-6.344.76-9.533-1.331-3.27-3.207-6.33-5.315-9.2-1.51-2.056-3.608-2.38-5.868-1.123-.5.277-.87.324-1.44.258-3.941-.456-7.414.52-10.189 3.403-.735.763-1.425 1.566-2.18 2.31-2.974 2.944-3.512 6.738-3.493 10.528.018 3.663 1.656 6.853 4.65 9.208 2.799 2.2 5.884 3.646 9.794 2.743zm15.937-14.775c.495 5.378-2.443 9.539-5.429 13.538-1.572 2.107-4.044 3.26-6.93 3.55-2.406.243-4.723.296-7.13-.058-6.472-.95-11.832-6.055-12.673-12.366-.42-3.15.06-6.253.75-9.317a6.242 6.242 0 0 1 1.197-2.455c1.566-1.95 3.188-3.867 4.914-5.685 1.582-1.665 3.612-2.735 5.899-3.164 2.889-.543 5.794-1.096 8.72-1.32 2.292-.175 4.186.972 5.17 3.031.681 1.426 1.343 2.823 2.375 4.05 2.501 2.97 3.571 6.375 3.137 10.196zM232.477 7.294c-.908-.266-2.573.253-4.186.932-.595.252-1.262.756-.518 1.44 1.252 1.152 1.15 2.14.018 3.327-1.62 1.694-2.177 3.873-2.44 6.089-.442 3.704 1.531 7.012 5.018 8.547.6.264 1.3.533 1.925.485 3.238-.25 6.32-1.066 8.998-2.928 1.328-.924 2.163-2.232 2.805-3.718 1.426-3.3.769-6.297-.932-9.308-1.633-2.889-4.096-4.356-7.385-4.67-.799-.076-1.604-.097-3.303-.196zm15.37 10.21c-.397 4.75-2.338 9.218-7.838 11.504-1.833.762-3.645 1.474-5.658 1.876-3.797.758-6.532-.85-9.023-3.14-2.575-2.37-3.45-5.588-3.541-8.85-.044-1.563.555-3.277 1.396-4.795.82-1.477 1.608-2.967 1.299-4.805-.19-1.121.609-1.983 1.586-2.521 1.866-1.026 3.82-1.919 5.998-2.003 1.734-.068 3.499-.053 5.211.187 5.931.833 10.574 6.124 10.57 12.547zm-13.803 65.22c-7.827.62-11.676 4.16-11.634 12.042.004.79.17 1.523.481 2.272 1.799 4.335 2.478 4.81 7.186 5.773 6.007 1.228 12.68-2.275 15.243-7.788 1.892-4.071.15-8.952-4.217-10.868-2.192-.962-4.62-1.348-7.059-1.43zm2.205-2.598c3.692.519 7.951 1.482 10.553 5.957.94 1.618 2.106 3.06 1.888 4.937-.33 2.83-.478 5.81-2.566 8.078-1.683 1.829-3.362 3.697-6.02 4.393-1.79.468-3.447 1.399-5.216 1.965-5.367 1.717-13.294-1.262-14.942-7.65-1.274-4.936-.074-9.244 2.044-13.486.685-1.373 2.252-2.364 3.92-2.452 1.528-.08 2.854-.54 4.243-1.042 1.643-.593 3.412-.646 6.096-.7zM68.39 175.891c0-.65-.077-1.31.017-1.945.19-1.305-.39-2.41-1.256-3.17-2.204-1.933-4.574-3.64-7.853-3.271-.847.096-1.519.204-1.948 1.046-.388.76-1.112 1.112-2.011.835-2.524-.775-4.668.52-6.895 1.245-.559.18-1.095.796-1.378 1.342-2.177 4.182-3.061 8.568-2.03 13.228.236 1.068.776 1.995 1.66 2.599 1.425.973 2.974 1.881 4.703 2.12 4.422.611 8.776-.09 12.095-2.975 3.23-2.806 4.888-6.687 4.897-11.054zm-9.824-11.075c5.924.21 5.876.252 9.099 3.78 1.776 1.941 2.75 4.12 2.87 6.692.202 4.271-.332 8.417-3.413 11.695-2.551 2.713-5.62 4.806-9.552 5.328-3.88.515-7.713.775-11.43-.893-1.845-.83-2.907-2.088-3.483-3.998-.974-3.227-.932-6.457-.222-9.656.475-2.145 1.417-4.191 2.114-6.292.676-2.034 1.807-3.336 4.267-3.404 1.586-.044 3.173-.577 4.156-2.038.488-.728 1.3-.92 2.097-.994 1.464-.138 2.935-.188 3.497-.22zM16.82 79.89c-.064 2.412.558 4.175 2.106 5.646a13.215 13.215 0 0 0 3.957 2.607c4.867 2.09 10.009.035 11.674-4.813.633-1.844 1.065-3.757 1.506-5.657.669-2.89-.404-5.123-2.97-6.63a31.273 31.273 0 0 0-4.288-2.115c-3.96-1.568-8.668.306-10.368 4.143-1.01 2.279-1.485 4.706-1.617 6.82zm-2.913.308c-.44-3.885 1.353-7.155 3.357-10.216 2.757-4.212 8.307-5.743 13.16-3.975 2.023.737 3.867 1.795 5.62 3.024 1.754 1.23 2.672 2.932 2.874 4.948.425 4.237-.448 8.293-2.099 12.204a5.512 5.512 0 0 1-1.974 2.439c-3.662 2.472-7.576 3.742-12.125 2.584-3.629-.924-6.073-3.183-8.075-6.055-1.057-1.519-.679-3.275-.738-4.953zm39.737-64.362c.117-4.523-2.647-8.905-7.674-10.968-1.971-.81-4.053-1.423-6.278-.79-3.425.977-6.449 2.55-8.83 5.208-.811.907-1.472 1.848-1.742 3.032-1.127 4.951-.259 9.33 3.862 12.783.61.511 1.21 1.038 1.832 1.536 2.51 2.011 5.333 2.304 8.336 1.335 3.146-1.016 5.748-2.904 7.846-5.31 1.661-1.906 2.704-4.208 2.648-6.826zM26.72 15.38c-.515-4.76 2.141-8.223 6.474-10.766a48.108 48.108 0 0 0 2.035-1.26C41.842-.98 48.389 1.48 52.635 5.781c4.145 4.2 4.951 9.083 2.527 14.405-2.566 5.633-7.043 9.035-13.187 10.427-2.338.53-4.605.181-6.62-.951-2.929-1.644-5.448-3.803-7.145-6.71-1.289-2.206-1.797-4.61-1.49-7.572zm227.198 291.083c.095-.46.245-.844.242-1.226-.035-3.924-1.258-7.397-4.17-10.218-.967-.94-2.22-2.095-3.394-1.824-1.721.395-3.154-.255-4.698-.406-1.466-.144-2.71.282-3.758 1.044-1.933 1.402-3.742 3.009-4.66 5.255-1.292 3.17-2.036 6.397-1.59 9.9.283 2.224 1.359 3.67 3.212 4.623 2.492 1.28 5.14 2.275 7.945 2.662 3.578.492 6.63-.589 8.95-3.347 1.597-1.9 2.24-4.094 1.921-6.463zm2.308-2.968c-.014 4.89-1.46 8.928-4.947 12.216-.793.748-1.513 1.379-2.635 1.635-1.3.295-2.614.682-3.794 1.27-1.502.75-2.667.54-4.108-.27a11.7 11.7 0 0 0-4.144-1.363c-4.842-.662-7.612-3.77-7.788-8.456a9.14 9.14 0 0 1 .115-1.95c1.077-5.874 3.048-11.31 7.774-15.484.997-.881 2.002-1.27 3.262-1.114 1.725.215 3.39.107 5.133-.134 3.136-.43 5.878.822 7.718 3.298 2.324 3.128 3.665 6.661 3.414 10.352zm-97.234-274.22c-.308 1.673.2 3.335.467 4.99.24 1.472 1.263 2.359 2.923 2.795 4.165 1.095 8.189.624 12.283-.327 2.272-.529 3.83-1.687 4.914-3.62 1.217-2.175 2.464-4.333 3.709-6.492 1.814-3.143 1.072-6.313.009-9.437-.233-.684-.89-1.313-1.504-1.775-3.179-2.396-6.787-3.633-10.834-3.456-.921.04-1.845.288-2.742.532-1.011.274-1.084.742-.336 1.62.667.782.561 1.388-.4 1.439-2.854.15-4.706 1.537-5.95 3.96-1.58 3.073-2.766 6.223-2.539 9.77zm27.67-8.625c.056 1.516.028 2.885-.785 4.226-1 1.648-1.16 3.613-2.044 5.39-2.411 4.849-6.349 7.571-11.483 8.965-1.289.35-2.608.654-3.934.802-1.863.207-3.711.216-5.578-.321-2.944-.85-4.713-2.51-5.714-5.44-2.074-6.07-.537-11.557 2.306-16.888 1.14-2.137 3.351-3.327 5.322-4.664 3.962-2.691 8.234-3.611 12.91-1.953.37.131.769.223 1.16.255 3.656.29 5.378 2.987 7.184 5.515.883 1.236.343 2.805.657 4.113zM314.464 320.88c.366-2.522-.894-5.03-1.693-7.638-.253-.825-.789-1.318-1.612-1.578-.762-.24-1.497-.594-2.276-.737-.764-.141-1.684-.603-2.324-.072-.888.736-1.593.502-2.534.199-.71-.229-1.572-.042-2.363.013-.248.017-.485.205-.729.31-1.866.806-3.361 2.013-4.694 3.546-2.873 3.304-3.567 7.302-3.514 11.302.056 4.175 2.016 6.475 5.434 7.32 9.322 2.303 16.965-5.059 16.305-12.665zm-24.842 4.481c.289-5.074 2.417-9.327 6.095-12.84 2.428-2.32 5.206-4.081 8.65-4.726 4.65-.873 8.85 1.25 10.92 5.394 2.164 4.331 1.574 8.64.173 12.96-.44 1.357-1.091 2.684-1.854 3.902-2.071 3.313-5.138 5.264-9.092 5.864-1.725.262-3.448.533-5.176.76-3.426.453-7.353-1.986-8.567-5.19-.757-1.995-.925-4.068-1.15-6.124zm1.857-61.529c0 .532-.047.261.007.012.657-2.946-1.68-4.797-2.77-7.098-.147-.31-.586-.632-.932-.682-1.318-.196-2.499-1.146-3.874-.835-1.377.31-2.65.002-3.97-.231-1.466-.26-2.965-.295-4.344.366-3.037 1.454-5.75 3.199-7.253 6.393-.864 1.835-1.38 3.766-1.424 5.653-.106 4.572 1.66 8.447 5.894 10.826 2 1.123 4.226 1.743 6.517.525 2.216-1.178 4.59-2.142 6.621-3.568 3.64-2.553 6.077-5.87 5.528-11.361zm2.154.306c-.022 4.267-1.717 7.636-4.89 10.702-3.467 3.353-7.576 5.171-12.032 6.664-2.08.697-3.804.495-5.695-.59-5.525-3.168-8.243-9.75-6.398-15.797 1.086-3.56 2.712-6.75 5.813-9.107 1.18-.899 2.403-1.764 3.81-2.117 3.587-.9 7.097-1.843 10.994-1.223 2.686.429 4.295 1.981 6.101 3.428 1.513 1.213 1.98 3.052 2.12 4.92.08 1.04.12 2.08.177 3.12zM15.626 150.828c.805 0 1.61-.012 2.415.003 1.44.027 2.78.674 3.504 1.687 2.509 3.511 5.154 7.01 5.693 11.458.044.362-.091.77-.241 1.119-.089.205-.353.432-.567.464-.175.026-.47-.177-.578-.356-.203-.332-.32-.715-.453-1.084-.99-2.752-2.765-5.04-4.567-7.315a8.71 8.71 0 0 0-3.092-2.451c-.582-.281-1.452-.676-1.892-.455-2.526 1.271-6.023.374-7.807 3.293-.276.452-.787.774-1.367.477-1.544-.79-2.338.362-2.912 1.273-1.067 1.692-1.56 3.624-1.153 5.631.961 4.745 3.343 8.81 6.783 12.22 1.835 1.819 4.337 2.57 6.993 2.49 1.33-.04 2.688-.137 3.973-.444 1.143-.275 2.18-.853 2.724-2.05.537-1.183 1.227-2.3 1.863-3.439.316-.566.72-1.265 1.453-.944.464.203.349.975.153 1.448-1.926 4.653-3.954 6.599-8.684 6.836-1.604.08-3.201.326-4.811-.032-2.684-.598-5.094-1.575-6.691-3.938-.508-.75-1.187-1.407-1.855-2.039-.992-.937-1.86-2.06-2.006-3.318-.262-2.25-1.312-4.219-1.96-6.323-1.248-4.045-.388-7.425 3-10.138.415-.332.85-.646 1.222-1.02 1.451-1.463 3.174-2.307 5.285-2.512 1.859-.18 3.7-.534 5.549-.811l.026.27zm172.141-65.052c-1.18 1.918-2.059 3.953-2.409 6.17-.557 3.521.103 6.76 2.482 9.564.893 1.052 2.05 1.638 3.453 1.833 1.909.265 3.765.14 5.538-.599 5.853-2.44 8.955-6.898 9.793-12.908.276-1.988-.174-3.922-1.436-5.57-2.004-2.615-4.86-2.96-7.915-2.644-2.375.245-4.166 1.744-6.169 2.786-.602.315-1.391-.129-1.509-.793-.07-.403-.058-.81.328-1.03 2.082-1.183 4.16-2.375 6.284-3.487.565-.296 1.272-.418 1.925-.458 4.221-.256 9.002 2.55 10.768 6.284.893 1.885.67 3.924.307 5.791-.755 3.88-2.343 7.473-5.193 10.425-1.119 1.16-2.352 2.142-3.888 2.734-1.499.578-2.976 1.22-4.5 1.73-4.59 1.539-9.85-.538-11.954-4.789-1.887-3.81-2.072-7.783-.76-11.805.29-.892.825-1.692 1.933-1.76 1.156-.072 1.752-1.174 2.825-1.37l.097-.104zm146.198-73.69c-.28 0-.817-.023-1.35.004-4.36.223-7.456 2.765-8.664 6.812-.65 2.181-.737 4.366-.63 6.575.252 5.242 3.427 8.75 8.724 9.772 1.795.345 3.451.198 4.918-1.019a20.03 20.03 0 0 1 2.597-1.844c2.12-1.25 3.087-3.2 3.588-5.425.674-2.996.329-5.943-.47-8.889-1.145-4.218-4.274-6.766-8.713-5.986zm11.966 11.535c-.044.56-.044 1.746-.242 2.9-.442 2.576-.975 5.031-3.579 6.66-1.29.807-2.251 2.1-3.66 2.949-2.164 1.305-4.525 1.585-6.798 1.353-2.793-.284-5.447-1.38-7.58-3.344-1.526-1.405-2.294-3.241-2.82-5.119-1.15-4.122-.806-8.24.31-12.347.816-2.996 2.98-4.466 5.816-5.306 1.15-.34 2.327-.615 3.453-1.023 2.62-.947 5.179-.895 7.888-.168 3.63.973 5.688 3.094 6.5 6.63.473 2.059.77 4.103.712 6.815zM102.783 322.863c-.191-1.652.394-3.336-.242-5.018-1.617-4.277-6.92-7.9-11.585-7.676-1.938.093-3.635.84-4.681 2.566-.554.914-1.24 1.657-2.189 2.235-2.043 1.248-3.23 3.325-3.754 5.387-.876 3.439-.922 6.966 1.633 10.043 1.269 1.529 2.633 2.932 4.047 4.328 2.15 2.123 4.791 2.384 7.377 1.787 2.307-.533 4.48-1.765 6.206-3.486.552-.55 1.176-1.166 1.404-1.863.881-2.698 2.328-5.298 1.784-8.303zm1.598-.592c0 1.83.018 2.876-.003 3.92-.077 3.718-1.307 6.833-4.576 9.108-1.845 1.285-3.449 2.864-5.595 3.773-1.692.716-3.31.842-5.094.435-2.16-.49-3.956-1.544-5.693-2.82-5.355-3.939-6.531-9.317-5.607-15.37.273-1.785.57-3.598 1.458-5.266.771-1.452 1.687-2.687 3.377-3.135 1.23-.327 2.045-1.158 2.96-1.94 2.934-2.504 6.141-3.422 9.995-1.83 2.738 1.131 5.337 2.199 6.977 4.836.866 1.393 1.42 2.797 1.545 4.384.123 1.56.206 3.123.256 3.905zM52.646 208.228c-.767.7-1.457 1.513-2.317 2.08-3.565 2.346-4.665 5.473-3.573 9.491 1.15 4.246 3.369 7.613 7.576 9.554 3.08 1.42 6.192 1.686 9.311.244 4.169-1.926 8.635-6.063 8.43-12.713-.12-3.875-2.19-6.56-4.957-8.958-.181-.156-.537-.322-.71-.251-1.742.711-3.09-.431-4.591-.854-1.049-.296-2.123-.324-3.196-.148-1.312.214-2.375-.17-3.307-1.318 3.836-1.558 7.596-1.293 11.3.085 5.35 1.991 7.637 6.035 7.947 11.41.146 2.537-.132 4.933-1.339 7.222-.494.937-.903 1.85-1.92 2.418-.552.31-.989.868-1.384 1.38-2.847 3.689-7.13 4.361-11.36 5.153-3.52-.674-7.27-.85-9.52-4.24-.283-.427-.776-.717-1.131-1.105-3.235-3.541-4.6-7.555-3.237-12.243-.54-3.06 2.132-4.505 3.525-6.589.4-.599 1.067-.77 1.765-.737.932.045 1.86.136 2.792.207l-.104-.088zm131.236-47.482c-1.512.653-2.391 1.735-3.026 3.32-1.408 3.523-.74 6.947.105 10.377.663 2.694 2.014 4.952 4.136 6.977 5.082 4.846 12.1 4.243 17.468-.05 1.827-1.459 3.31-3.457 4.549-5.445 2.457-3.942 2.886-8.077.244-12.189-.569-.885-1.106-1.792-1.732-2.637-3.496-4.725-12.509-7.02-18.481-1.269-.842.811-1.405 1.89-2.11 2.835-.17.23-.394.21-.587.003-.31-.588.151-1.35-.566-1.922zm-6.037 7.295c.056-2.09.651-4.453 2.165-6.573 1.048-1.469 2.29-2.599 4.234-2.612 1.29-.01 2.336-.408 3.243-1.305.362-.36.948-.497 1.362-.82 5.936-4.628 13.231-2.027 17.153 1.786 5.317 5.169 6.695 12.705 1.973 19.262-.846 1.173-1.762 2.301-2.687 3.416-4.392 5.3-10.889 6.957-17.246 4.387-4.906-1.984-8.054-5.485-9.144-10.544-.463-2.156-1.201-4.297-1.053-6.997zM38.457 314.013c1.506 3.076 2.24 6.28 1.206 9.617-.547 1.764-.714 3.57-1.046 5.356-.277 1.495-.976 2.465-2.378 3.355-6.944 4.398-14.666 3.094-19.261-2.14-2.723-3.103-4.207-6.933-4.558-11.07a2.707 2.707 0 0 1 .342-1.51c.925-1.576 1.924-3.112 2.93-4.641.103-.155.526-.286.669-.206.322.179.712.455.806.768.238.804-.081 1.596-.612 2.176-1.765 1.929-1.672 4.193-.848 6.285 1.555 3.948 3.731 7.481 7.891 9.528 3.12 1.537 6.216 1.466 9.374.485 1.327-.412 2.086-1.568 2.682-2.77 2.328-4.698 2.507-9.539 1.002-14.484-.228-.744-.667-1.442-.803-2.197-.29-1.628-1.475-2.593-2.825-3.072-3.01-1.069-6.062-2.15-9.406-1.19-1.951.562-3.966.681-5.886-.265l-.048-.005c2.085-1.201 4.405-1.815 6.71-2.424 3.886-1.027 7.452.104 10.618 2.138 1.718 1.103 3.249 2.755 2.626 5.215-.146.579.286.95.776 1.22l.039-.169zm287 3.996c-.04 2.2.72 5.285 1.637 6.823 1.253 2.105 3.066 3.133 5.66 2.928 2.05-.163 3.878-.809 5.747-1.589 3.367-1.405 5.763-3.314 5.254-7.285.79-1.96.381-3.926-.325-5.74-.85-2.179-2.049-4.232-3.143-6.315-.342-.65-.923-.838-1.678-.504-.597.265-1.243.567-1.877.586-2.885.087-5.088 1.567-7.099 3.309-2.5 2.165-3.87 4.958-4.176 7.787zm-2.992 2.052c-.055-3.326 1.448-5.646 3.047-7.872 2.665-3.712 6.248-6.379 10.495-8.215.244-.105.494-.2.745-.29 4.227-1.534 5.247-1.09 7.172 2.843 1.827 3.733 2.472 7.751 2.469 11.76-.002 3.16-1.557 5.913-4.32 7.986-3.281 2.462-6.871 3.949-10.983 4.33-1.97.182-3.768.05-4.809-1.92-3.198-2.254-3.16-5.795-3.816-8.622zm-152.633-87.534c.928-.102 1.87-.137 2.781-.317 4.794-.946 7.717-4.917 7.21-9.692-.163-1.55-.21-3.11-.365-4.66-.13-1.29-.36-2.548-.928-3.766-.79-1.695-2.009-2.755-3.925-2.838-3.076-.133-6.15-.105-9.172.61-1.224.288-2.253.852-2.911 1.912-1.391 2.242-2.65 4.573-2.506 7.273.219 4.095 2.016 7.487 5.326 10.051 1.281.993 2.776 1.564 4.49 1.427zm12.328-9.974c.08 5.58-3.161 9.924-8.279 11.521-1.88.588-3.625 1.4-5.793 1.05-2.653-.429-4.876-1.3-6.503-3.413a82.186 82.186 0 0 1-1.658-2.21c-2.33-3.24-3.34-6.754-2.328-10.682.357-1.386.633-2.797 1.09-4.15.476-1.404 1.31-2.588 2.93-2.961 1.064-.246 1.933-.827 2.863-1.35 4.027-2.271 8.32-2.642 12.785-1.456 1.104.293 1.827.948 2.375 1.932 1.105 1.978 1.73 4.1 2.046 6.293.279 1.93.345 3.89.472 5.426zM262.646 97.72c-.175 1.463.234 3.52.912 5.508 2.095 6.143 8.496 8.406 13.89 5.446 3.908-2.145 6.622-5.221 8-9.388 1.395-4.221.582-7.95-2.533-11.232-1.591-1.676-3.692-2.568-5.634-3.71-1.57-.923-3.057-1.16-4.924-.386-1.232.51-2.48.839-3.474 1.773-.47.442-1.103 1.156-1.564 1.091-1.961-.278-2.495 1.1-3.241 2.295-1.542 2.468-1.609 5.184-1.432 8.603zm-2.25-2.118c.266-3.283.718-6.744 3.017-9.696 1.867-2.398 4.364-3.748 7.371-4.257.521-.088 1.15.13 1.588-.077 2.549-1.204 4.647-.154 6.776 1.08 2.306 1.335 4.641 2.6 6.28 4.768 1.133 1.497 2.018 3.104 2.21 4.959.588 5.71-.714 10.916-4.91 15.12-3.598 3.605-8.169 4.949-13.194 4.095-3.021-.512-5.22-2.556-6.652-5.198-1.783-3.288-2.302-6.885-2.486-10.794zM51.181 331.803c.028 4.134 1.962 6.849 5.629 7.954 1.129.34 2.374.346 3.57.43 1.651.117 2.785-.61 3.54-2.054 2.383-4.567 2.075-9.035-.43-13.437-.249-.44-.605-.913-1.04-1.149-1.414-.765-2.973-1.318-4.576-1.274-1.28.035-1.837 1.395-2.736 2.129-.803.655-1.259 1.698-2.021 2.416-1.574 1.482-2.198 3.228-1.936 4.985zm8.502 11.195c-6.355.12-13.127-5.065-11.716-13.535.186-1.127.641-2.204 1.294-3.24 1.118-1.777 2.783-3.102 3.89-4.914.834-1.368 2.688-1.648 4.312-1.71 1.33-.051 2.681.079 4.003.26 1.677.228 2.987 1.113 3.9 2.499 3.234 4.91 3.999 10.103 1.82 15.606-1.628 4.114-2.95 4.986-7.503 5.034zM87.38 61.308c2.172 0 3.385.063 4.588-.018 1.262-.086 2.32-.682 3.081-1.666 2.47-3.19 4.215-6.557 3.828-10.79-.497-5.391-4.398-8.166-9.791-6.705-2.665.721-4.807 2.301-6.95 3.87-.504.369-.88.985-1.146 1.56-.826 1.798-1.365 3.676-1.531 5.656-.186 2.221.668 4.09 1.998 5.788 1.316 1.677 3.148 2.313 5.277 2.272.536-.011 1.074.058.646.032zm.977 2.484c-2.007-.064-3.995-.043-5.945-.752-3.214-1.166-4.96-3.456-5.643-6.568-.334-1.519-.341-3.102-.542-4.651-.18-1.408.656-2.5 1.175-3.674 1.14-2.574 2.757-4.638 5.598-5.821 2.084-.867 4.07-1.896 6.286-2.509 3.411-.942 6.201-.205 8.869 2.033 1.754 1.469 2.706 3.167 2.93 5.3.557 5.294-1.067 10.015-4.149 14.323-.635.888-1.542 1.391-2.61 1.708-1.957.58-3.954.655-5.97.611zm-25.341 198.1c.367 2.244-.169 4.496-1.393 6.583-2.042 3.482-4.837 5.83-9.27 5.598a81.494 81.494 0 0 0-2.016-.083c-3.599-.095-6.849-.752-8.933-4.115-1.166-1.882-2.985-3.365-3.888-5.44-.31-.707-.824-1.638-.586-2.211.894-2.168.799-4.666 2.34-6.596.143-.176.441-.322.67-.328.568-.015.536.454.549.82.045 1.186-.163 2.331-.578 3.454-.482 1.307-.16 2.49.421 3.76a17.3 17.3 0 0 0 3.89 5.432c1.575 1.495 3.492 2.36 5.632 2.89 3.713.92 7.034-.44 9.087-4.107 2.545-4.542 2.399-9.268.097-13.924-.963-1.95-2.54-2.96-4.791-2.97-.801-.003-1.676.102-2.386-.17-1.412-.537-2.57-.071-3.82.435-.972.394-2.017.625-3.043.874-.187.046-.541-.11-.638-.274-.108-.183-.12-.588.011-.714 2.389-2.301 5.112-3.79 8.641-3.2.397.066.792.166 1.192.195 4.52.328 6.977 2.875 8.03 6.975.586 2.285 1.293 4.549.782 7.116zM109.93 90.376c.23-1.943-.4-3.861-1.853-5.519-1.851-2.115-5.65-3.916-9.43-2.35-2.787 1.156-4.825 3.01-5.82 5.611-2.315 6.06-.387 10.584 5.805 12.806 1.462.523 2.833.419 4.31-.013 2.8-.82 4.465-2.759 5.657-5.143.805-1.61 1.84-3.216 1.331-5.392zm-21.19 2.208c-.003-2.097.14-3.78.73-5.407 1.297-3.58 3.819-5.929 7.576-6.942 1.416-.383 2.891-.587 4.352-.782 4.626-.622 8.866 2.113 10.163 6.442 1.86 6.213-.218 11.396-4.793 15.598-2.72 2.497-6.373 2.665-9.876 1.55-2.036-.647-3.874-1.828-5.373-3.368-2.036-2.087-3.084-4.556-2.78-7.091zM306.814 269.82c2.462-1.836 5.39-2.124 8.332-2.352.391-.031.805-.021 1.18.074 4.393 1.105 7.92 5.19 8.263 9.64a28.101 28.101 0 0 1-.754 8.927c-.675 2.742-2.381 4.938-4.264 6.999-.712.777-1.586 1.41-2.334 2.16-2.213 2.22-4.897 2.917-8.026 2.692-1.982-.142-3.857-.75-5.898-.764-2.272-.018-5.404-3.86-5.801-5.84-.283-1.409-.514-2.827-.817-4.23-.146-.677.027-1.253.246-1.887.384-1.105.765-2.245.883-3.397.401-3.884 3.009-6.322 5.94-8.43 1.475-1.06 3.334-1.63 5.051-2.346.47-.196 1.06-.162 1.591-.148.217.005.627.29.608.355-.101.349-.224.805-.5.97-.443.262-1.01.33-1.528.471-7.242 1.968-9.544 8.247-9.715 13.345a18.66 18.66 0 0 0 .197 3.505c.489 3.14 2.289 5.144 5.519 5.99 2.53.663 5.07.491 7.607.337 1.366-.083 2.567-.844 3.597-1.647 1.246-.971 2.458-2.064 3.404-3.307 2.983-3.917 3.275-8.254 2.351-12.972-.929-4.737-6.59-8.461-11.192-8.647-1.366-.055-2.497 1.106-3.861.424l-.08.078zm-2.37-17.387c.085.758.134 1.805.325 2.825 1.046 5.58 7.164 8.052 12.034 4.898 1.125-.729 2.067-1.63 2.991-2.582 1.093-1.125 1.625-2.306 1.257-3.887-.17-.73-.157-1.594.076-2.302.857-2.601-.12-4.84-1.275-7.065-.17-.325-.452-.86-.67-.856-1.896.045-2.964-2.438-5.13-1.552-.327.133-.84-.06-.895-.544-.159-1.364-1.03-1.36-2-.947-3.861 1.65-6.3 4.32-6.44 8.615-.034 1.04-.163 2.078-.272 3.397zm19.66-4.23c-.43 2.303-.735 4.637-1.315 6.902-.896 3.492-3.338 5.937-6.44 7.64-1.854 1.016-3.986 1.522-6.215.809-1.008-.322-2.087-.432-3.132-.645-2.313-.47-3.867-1.85-4.529-3.993-.49-1.593-1.101-3.228-.478-4.971.404-1.131.297-2.316.102-3.487-.5-3.018.302-5.704 2.463-7.888 1.373-1.388 2.714-2.803 4.454-3.868 2.049-1.254 4.136-1.333 6.152-.524 2.6 1.042 5.028 2.502 6.899 4.62 1.347 1.527 2.192 3.281 2.038 5.405zM8.936 42.67c.133 4.776 2.955 8.002 7.111 8.595 2.209.316 3.917-.304 5.254-2.074 1.309-1.733 2.12-3.639 2.268-5.759.283-4.064-4.313-7.785-8.358-6.794-2.797.686-4.476 2.744-6.028 4.888-.277.384-.219.996-.247 1.144zm8.602 11.586c-5.518.194-9.174-3.012-10.898-6.58-.802-1.66-1.024-3.501-.893-5.36.126-1.776.744-3.274 2.27-4.374 1.183-.855 2.286-1.815 3.464-2.677 2.397-1.751 5.016-2.396 7.932-1.382.503.176 1.007.345 1.508.523 4.394 1.551 7.022 5.458 5.407 11.092-.396 1.385-.938 2.694-1.551 4.003-1.687 3.603-4.856 4.585-7.239 4.755zM267.433 246.67c-.614 2.157-2.45 3.084-4.361 3.62-3.609 1.012-7.205.508-10.644-.842-1.517-.595-2.692-1.727-3.512-3.114-2.069-3.5-3.138-7.198-2.155-11.255.307-1.27.68-2.526.927-3.805.443-2.298 1.72-4.117 3.504-5.559 1.54-1.243 3.169-2.434 4.915-3.373 2.404-1.293 4.998-2.059 7.664-.594.92.506 1.821.24 2.745.235 3.358-.016 5.543 1.554 6.678 4.612.506 1.362.92 2.72.95 4.182.061 3.155-.27 6.284-1.195 9.29-.905 2.94-2.665 5.366-5.647 6.74.755-1.37 1.362-2.839 2.289-4.081 2.268-3.041 2.608-6.491 2.604-10.054-.003-2.573-1.03-4.828-2.374-6.96-.832-1.322-2.203-2.193-3.715-1.884-1.781.365-3.359.27-4.968-.45-.225-.101-.544-.09-.796-.033-3.876.866-7.527 2.213-9.471 5.875-1.354 2.55-2.118 5.344-2.138 8.274-.017 2.55.782 4.886 2.066 7.055 1.283 2.168 3.309 3.372 5.843 3.732 3.076.436 6.113.47 8.934-1.1.575-.32 1.125-.73 1.857-.511zm-49.93-27.333c-.635 1.984-.027 3.868 1.014 5.562 1.025 1.668 2.199 3.295 3.555 4.717 3.543 3.716 7.762 5.378 13.036 3.79 2.407-.724 3.968-2.144 4.726-4.377a19.553 19.553 0 0 0 1.067-6.142c.032-3.403-.875-6.4-3.883-8.513-.645-.453-1.193-1.047-1.734-1.623a9.482 9.482 0 0 0-5.564-2.912c-3.647-.534-7.301-.289-9.976 2.595-1.739 1.875-2.653 4.21-2.241 6.903zm24.747 3.677c.016 3.273-.422 6.19-1.825 8.953-.892 1.758-2.272 3.01-4.106 3.512-4.265 1.166-8.47 1.236-12.203-1.626-3.186-2.441-5.893-5.223-7.685-8.867-2.671-5.432-.798-14.51 6.505-18.118.624-.308 1.345-.537 1.906-.122 1.09.804 2.28.554 3.467.564.936.007 1.982-.175 2.79.16 3.997 1.656 7.562 3.942 9.566 7.85 1.262 2.462 2.011 5.116 1.585 7.694zm38.44-91.754c.186 3.872 1.709 7.224 4.663 9.954 3.046 2.813 6.479 3.039 10.463 2.105 4.283-1.003 8.397-7.825 6.573-11.888-.958-2.136-1.517-4.443-2.223-6.683-.426-1.353-1.367-2.17-2.65-2.76-4.265-1.96-10.186-.857-13.754 2.721-1.779 1.783-3.683 3.593-3.073 6.55zm-1.926.149c-.327-5.097 2.5-8.378 6.573-10.896 4.433-2.742 9.03-2.93 13.735-.619 1.135.558 1.984 1.315 2.354 2.527.985 3.24 2.518 6.306 3.036 9.701.39 2.561.153 4.904-1.264 7.142-.92 1.452-1.854 2.882-3.09 4.094-3.783 3.707-7.95 4.188-12.522 1.968-5.8-2.816-8.384-7.801-8.822-13.917zM9.947 277.327c-1.245 3.048-1.144 6.12-.137 9.197 1.516 4.631 4.753 7.515 9.622 8.496 5.798 1.168 11.72-3.364 12.214-9.093.228-2.645-.245-5.209-.894-7.707-.406-1.565-1.817-2.799-2.229-4.475-.127-.516-.793-.693-1.356-.575-1.89.4-3.719.204-5.566-.318-2.299-.65-4.503.468-6.776.534-.389.01-.763.635-1.137.985-.53.497-1.161.615-1.825.37-.19-.07-.385-.373-.407-.587-.078-.745.346-1.22 1.03-1.482.992-.379 1.977-.788 2.993-1.093 2.43-.73 4.913-1.238 7.453-1.414 2.372-.163 4.503.836 6.319 2.006 1.342.865 2.248 2.536 3.042 4.006 2.402 4.45 2.484 9.154 1.265 13.945-.27 1.056-.845 1.902-1.706 2.587-3.654 2.903-7.794 4.544-12.554 4.578-.827.007-1.633-.175-2.246-.717-.576-.511-1.088-.585-1.798-.271-.287.126-.834.014-1.1-.19-1.9-1.447-3.88-2.805-5.25-4.814-2.804-4.116-2.5-8.353-.538-12.629.24-.523.984-.828 1.494-1.234l.087-.105zM281.04 170.943c-.206-3.377-1.814-6.072-3.264-8.873-.987-1.906-2.645-2.84-4.353-3.782-1.769-.976-3.094-.71-4.729.687-.496.423-.946.9-1.46 1.298-4.832 3.727-6.887 8.433-5.535 14.418 1.124 4.98 6.946 8.587 12.007 7.299.884-.225 1.851-.605 2.489-1.204 2.886-2.72 4.613-6.017 4.845-9.843zm-21.543.544c.18-2.361.617-4.927 1.48-7.415 1.17-3.376 3.7-5.666 6.637-7.547 2.254-1.442 6.134-1.102 8.306.71 4.246 3.542 6.643 8.118 7.563 13.445a3.366 3.366 0 0 1-.098 1.547c-.958 2.987-1.906 5.969-3.672 8.649-1.523 2.309-3.775 3.369-6.403 3.49-2.683.125-5.354-.298-7.864-1.385-1.527-.66-2.812-1.635-3.555-3.062-1.332-2.56-2.374-5.237-2.394-8.432zm28.95 131.407c.338-2.418-1.289-4.446-2.567-6.556-.973-1.606-2.642-2.08-4.495-2.003-.124.004-.265-.066-.375-.136-1.586-1.015-3.088-.543-4.546.267-3.433 1.906-5.49 4.862-6.665 8.441-.67 2.045-.478 4.14.075 6.166.66 2.419 2.14 4.394 4.731 4.884 7.276 1.376 14.045-3.19 13.841-11.063zm-21.053 3.716c-.005-6.293 2.593-11.196 8.371-14.344 1.666-.908 3.477-1.36 5.42-1.028.264.045.555-.018.8.063 1.385.458 3.054-.557 4.24.592 1.715 1.66 3.222 3.537 3.876 5.843 1.15 4.059.572 8.027-1.304 11.754-1.56 3.096-4.409 4.816-7.666 5.935-2.68.921-5.533.742-8.295 1.1-1.802.232-3.406-.863-4.038-2.66-.816-2.318-1.586-4.675-1.404-7.255zm38.846-111.302c.217-3.478-.644-6.125-1.711-8.638-.644-1.52-1.905-2.84-3.074-4.087-.902-.966-2.106-1.414-3.596-1.415-2.86-.004-5.548.779-8.28 1.361-.907.194-1.716.783-2.268 1.556-2.598 3.644-4.188 7.497-3.204 12.1.547 2.558 2.01 4.507 3.566 6.475 2.121 2.685 4.995 3.84 8.395 3.953 1.964.066 3.78-.505 5.2-1.744 3.103-2.707 5.37-5.882 4.972-9.561zm2.367-1.165c.353 1.82-.329 3.59-1.096 5.222-1.328 2.822-2.566 5.738-5.639 7.404-4.734 2.568-10.92 2.407-14.75-1.448-3.84-3.867-5.79-8.41-4.735-13.886.271-1.406.508-2.82.827-4.217.518-2.277 1.928-3.977 3.796-5.371.646-.483 1.303-.88 2.133-1.03 3.261-.59 6.5-1.246 9.832-1.482 1.498-.105 2.58.24 3.676 1.086a11.71 11.71 0 0 1 3.1 3.57c1.756 3.13 2.959 6.429 2.856 10.152zM8.991 239.942c-.506 5.058 5.451 11.956 11.997 10.678 3.998-.78 5.063-2.03 6.19-5.163.302-.841.472-1.804.391-2.684-.384-4.183-.654-8.462-5.604-10.337-.351-.133-.585-.534-.917-.75-1.184-.776-2.503-1.007-3.81-.455-1.11.47-2.217.88-3.395 1.166-.898.218-1.034 1.437-2.13 1.607-1.576.244-2.045 1.594-2.384 2.845-.268.992-.237 2.059-.338 3.093zm8.757-11.186c4.265.013 10.5 3.408 11.504 8.345.494 2.432 1.216 4.833.75 7.305-.717 3.813-2.725 6.663-6.813 7.719-1.937.5-3.875.997-5.821 1.465-.79.19-1.659.29-2.35-.167-3.72-2.462-6.83-5.432-8.236-9.749-.04-.122-.047-.256-.062-.385-.141-1.168 1.787-1.96.574-3.366-.899-1.042-.183-2.282-.084-3.398.322-3.589 1.658-4.976 5.405-5.6.735-.122 1.208-.379 1.678-.819 1.027-.961 2.32-1.23 3.455-1.35zm248.429-171.1c.117 1.166.066 2.377.379 3.493 1.557 5.569 6.429 7.988 11.38 6.037 2.119-.834 3.681-2.242 4.584-4.185 1.024-2.199 2.369-4.424 1.255-7.023-.098-.23-.087-.52-.06-.776.29-2.618-.951-4.176-3.505-4.872-.373-.103-.682-.414-1.044-.581-6.239-2.874-12.916 1.192-12.989 7.907zm7.865 12.439c-4.893.22-9.456-3.287-10.12-8.2-.332-2.468-.666-4.85-.108-7.338.642-2.868 2.062-4.98 4.945-6.093 1.477-.57 2.667-1.638 4.293-2.056 3.623-.933 6.51.519 9.342 2.304 1.972 1.244 3.09 2.915 3.613 5.289.74 3.357.397 6.45-1.023 9.472-1.904 4.055-6.463 6.754-10.942 6.622zm-174.997 112.1c.083-.03.235-.054.237-.09.009-.09-.05-.186-.081-.28-.088.029-.243.054-.245.087-.003.093.055.188.09.283zm13.17 19.89c-3.055-.347-5.761-.912-8.236-2.915-5.111-4.138-7.034-9.215-6.434-15.553.25-2.632.952-5.108 1.807-7.524.663-1.87 2.008-3.446 3.706-4.768 3.22-2.507 6.793-4.088 10.804-4.908 1.161-.237 2.248-.842 3.35-1.32 2.743-1.188 5.446-1.257 8.132.17.821.436 1.642.92 2.526 1.192 2.29.705 2.665 2.916 3.87 4.47.052.066-.016.329-.09.358-.22.088-.55.226-.697.133-1.575-.987-3.169-1.956-4.67-3.044-2.898-2.103-5.974-2.003-9.166-.858-1.872.671-3.655 1.532-5.678 1.83-5.292.78-8.852 3.864-10.383 8.679-2.24 7.045-1.422 13.536 4.233 19.2 2.595 2.6 5.612 2.503 8.705 2.88.384.047.793-.13 1.191-.148.935-.043 2.417-1.06 2.649.15.21 1.101-1.652.963-2.583 1.342-.964.391-2.073.448-3.036.635zm41.32-22.536c-.99.702-1.393.861-1.597 1.152-1.975 2.83-2.164 5.921-.787 8.937.91 1.995 2.388 3.746 3.632 5.593.138.204.385.381.623.47 2.404.91 4.77 1.47 7.329.293 3.978-1.83 6.087-6.368 4.652-10.4-.307-.863-.582-1.74-.95-2.579-1.097-2.51-3.107-3.853-5.863-4.138-2.623-.272-4.763.416-5.97 2.936-.213.446-.685.781-1.06 1.144-.264.255-.492.2-.683-.229.162-.759.344-1.625.673-3.179zm-5.523 7.021c-.171-1.863.353-3.644.877-5.376.979-3.225 3.097-4.396 6.66-4.335 2.237.038 4.485-.284 6.725-.477.565-.048 1.069.033 1.506.365 3.683 2.79 5.651 6.493 6.113 10.972.297 2.887-.597 5.389-2.658 7.507a14.872 14.872 0 0 1-6.427 3.897c-3.463 1.042-6.313-.393-8.784-2.63-2.492-2.255-4.306-6.774-4.012-9.923zM128.028 335.11c1.633-2.084 1.511-4.408 1.345-6.735-.268-3.726-2.786-6.192-6.6-6.48-4.321-.326-7.01 3.385-5.21 7.207.276.583.876 1.101.935 1.686.158 1.581 1.349 2.135 2.532 2.71 2.187 1.06 4.62 1.103 6.998 1.612zm4.323-4.712c-.178 1.343-.35 2.758-.556 4.17-.335 2.279-2.108 3.858-4.322 3.58-5.303-.663-10.054-2.502-13.82-6.39-1.382-1.429-1.627-2.884-.776-4.613 1.153-2.342 2.3-4.674 4.26-6.527 1.634-1.545 3.418-2.404 5.78-1.82 1.288.32 2.596.475 3.819 1.093 4.4 2.22 5.523 6.04 5.615 10.507zm22.806-177.896c.185-3.706-1.585-5.587-5.213-5.498-1.864.046-3.763.139-5.44 1.156-.312.188-.831.25-.89-.27-.077-.666-.361-.941-1.014-.786-3.74.889-6.127 3.803-6.547 7.968-.3 2.986 1.596 6.09 4.685 7.554.838.396 1.782.577 2.643.937 2.295.96 4.464.419 6.61-.458 1.852-.755 2.563-2.276 3.35-4.003 1.001-2.198 1.606-4.397 1.816-6.6zm2.459.106c.134 4.073-1.382 7.763-4.416 10.783-1.288 1.284-2.853 2.38-4.967 2.13-.781-.09-1.594.01-2.387.082-4.9.444-8.564-1.623-11.347-5.352-.789-1.056-1.294-2.335-1.22-3.675.175-3.178.921-6.209 3.097-8.704 1.782-2.045 4.256-2.748 6.876-2.69 2.032.044 3.998.074 5.96-.56.731-.235 1.593-.161 2.389-.116 4.388.25 5.637 2.438 6.005 5.951.068.645.01 1.302.01 2.15zM125.39 286.742c-.4.029-.8.066-1.201.084-2.139.094-3.97.586-4.533 2.983-.185.787-.857 1.295-1.513 1.763-1.724 1.232-2.08 2.945-1.722 4.856.264 1.405.5 2.836.984 4.175.91 2.511 2.494 4.555 4.897 5.968.716.421 1.398.66 2.233.689 4.002.144 8.498-2.897 9.835-6.755.252-.726.5-1.532.43-2.273-.171-1.801-.433-3.609-.837-5.375-.546-2.385-1.792-4.348-4.284-5.248-1.373-.497-2.782-.944-4.29-.867zm-11.61 9.409c.036-1.83-.156-3.85 1.279-5.199 2.172-2.043 4.064-4.474 7.005-5.627 1.41-.553 2.894-.422 4.366-.383 1.072.03 2.146.078 3.217.053.911-.023 1.516.404 1.995 1.08.226.319.366.907.629.957 2.566.485 2.627 2.644 3.223 4.433.96 2.883 1.563 5.79.617 8.813-1.052 3.358-2.953 6.078-5.964 8.09-5.078 3.393-9.25 1.773-12.498-1.772-1.83-1.998-4.317-6.456-3.87-10.445zm212.562-79.483c.006 1.732.276 3.432.875 5.014 1.963 5.187 4.862 7.259 10.074 5.39.125-.046.269-.041.393-.088 2.978-1.112 5.546-2.596 5.997-6.08.082-.64.403-1.247.532-1.885.822-4-1.123-8.337-4.763-10.363-1.75-.976-3.597-1.832-5.702-.728-.432.227-1.093.32-1.548.175-1.305-.414-2.202.354-2.808 1.096-1.77 2.17-2.97 4.629-3.05 7.47zm-1.755.78c.47-3.948 1.613-7.722 4.414-10.687 2.083-2.204 4.655-3.063 7.987-1.959 4.232 1.403 7.153 3.95 9.122 7.693.804 1.527 1.045 3.134.792 4.906-.4 2.8-1.516 5.281-3.086 7.574-2.746 4.01-7.011 4.964-11.587 5.1-.608.017-1.326-.319-1.831-.697-2.273-1.696-4.114-3.701-4.756-6.55-.4-1.778-1.104-3.496-1.055-5.38zm-23.721 7.255c0-.778.095-1.57-.016-2.331-.614-4.226-3.83-6.667-8.185-6.215-.93.096-1.831.444-2.761.543-1.47.155-2.537.922-3.278 2.046-2.52 3.825-3.333 7.908-1.663 12.276.18.472.463 1.012.866 1.277 2.18 1.429 4.497 2.449 7.17 1.33 1.478-.62 3.007-1.208 4.329-2.075 2.443-1.607 4.12-3.72 3.538-6.851zm3.222-1.134c-1.134 3.512-1.65 7.213-5.542 9.449-2.817 1.62-5.665 2.871-8.819 3.604-1.4.325-2.647.1-3.878-.504-3.13-1.535-4.848-5.087-4.145-8.498.497-2.41.7-4.856 1.868-7.14 1.433-2.806 3.04-5.093 6.616-5.594 1.507-.211 2.87-1.217 4.54-1.347 4.34-.338 6.647 1.609 8.343 5.35.632 1.394.68 3.036 1.017 4.68zM324 66.076c-.093 1.579-1.153 2.614-2.287 3.508a31.548 31.548 0 0 1-3.956 2.636c-6.45 3.669-14.246 1.347-18.139-4.553-4.53-6.867-1.645-15.887 2.663-19.789 2.163-1.958 5.219-3.109 8.167-1.82 1.67.73 3.102.608 4.625.345 2.117-.366 4.184-.612 6.313-.1.937.223 1.748.543 2.492 1.158 3.185 2.634 4.919 5.809 4.09 9.978-.322 1.613-.265 3.35-1.534 4.673l.1.112c-.006-2.476 0-4.952-.021-7.429-.007-.773-.078-1.493-.576-2.212-2.722-3.926-6.516-5.44-11.177-4.17-1.369.372-2.951.41-3.972 1.707-.298.377-.986-.074-.958-.68.028-.585.57-1.46-.463-1.497-3.497-.125-6.341 1.071-7.945 4.295a46.972 46.972 0 0 0-1.745 3.962c-.78 2.017-.88 4.09-.131 6.137.449 1.226 1.008 2.418 1.554 3.609 1.467 3.196 4.056 5.165 7.437 6.139 3.418.985 6.725.15 9.677-1.402 2.167-1.141 3.934-2.995 5.88-4.53l-.093-.077zm5.792 107.203c3.298.12 4.562-.338 7.214-2.6.404-.344.796-.708 1.235-1.007 2.45-1.662 3.225-4.302 3.102-6.808-.138-2.81-.966-5.657-2.27-8.272-.23-.463-.495-.983-.897-1.278-2.478-1.828-5.032-3.519-8.393-3.146-.631.07-1.325-.103-1.695.68-.383.81-1.331.804-2.036 1.126-1.247.569-2.21 1.41-3.108 2.42-3.077 3.46-3.85 7.557-2.746 11.754 1.292 4.91 3.251 6.501 7.987 6.984.534.055 1.07.098 1.607.147zm-.97 2.153c-4.462-.028-8.19-2.113-10.162-6.699-.89-2.071-1.018-4.37-.906-6.54.276-5.371 2.467-9.778 7.636-12.418 4.146-2.117 8.214-1.901 12.245.2 1.971 1.03 3.293 2.568 3.75 4.785.287 1.395.617 2.828 1.227 4.108 2.309 4.844-1.247 12.744-6.33 14.898-2.221.943-4.387 1.975-7.46 1.666zM266.768 22.914c.221-1.231.054-2.481-.595-3.694-.756-1.412-2.07-2.013-3.53-2.321-1.284-.272-1.856.791-2.54 1.576-.52.597-.939 1.405-1.604 1.728-1.491.724-1.665 2.012-1.65 3.276.016 1.414.263 2.853.614 4.232.472 1.858 2.265 3.262 4.026 3.248 1.923-.017 3.351-.905 4.08-2.654.705-1.69 1.236-3.438 1.199-5.39zm2.904-.058c-.155 1.131-.255 3.096-.719 4.978-.9 3.647-4.191 6.038-7.925 5.992-2.79-.034-6.332-2.693-7.121-5.52-.665-2.382-.782-4.84-.476-7.298.184-1.483.841-2.743 2.094-3.65.964-.699 2.04-1.269 2.934-2.043 2.391-2.07 4.87-1.69 7.42-.41 2.488 1.25 3.728 3.262 3.79 5.97.01.39.003.781.003 1.981zm-47.697 244.739c-.15-.967-.124-1.854 1.13-2.098 1.377-.266 2.604-.096 3.758.839 2.981 2.413 5.086 5.219 5.627 9.118.702 5.056-.29 9.642-3.52 13.64-2.946 3.644-6.585 5.391-11.63 4.185-7.18-1.716-8.513-2.974-9.817-9.986-.929-4.99.84-9.238 4.471-12.756 1.477-1.43 3.362-2.142 5.49-1.966.295.025.625.429.813.73.27.432-.097.704-.434.924a.838.838 0 0 1-.373.133c-2.292.167-4.121 1.207-5.438 2.977-1.604 2.153-2.644 4.585-2.57 7.274.045 1.677.296 3.4.799 5.002.697 2.224 2.306 3.892 4.6 4.608 1.768.552 3.661.737 5.508 1.037 3.204.518 5.482-1.072 7.196-3.381 3.48-4.688 3.914-9.86 1.947-15.226-.996-2.714-2.91-4.658-5.829-5.51-.633-.186-1.324-.315-1.729.449l.001.007zM44.945 156.378c.574-.085 1.257-.108 1.89-.294 2.412-.708 5.623-4.64 5.526-7.134-.064-1.619-.078-3.505-1.66-4.604-1.544-1.073-3.377-1.546-5.291-1.472-.683.026-1.246.363-1.191 1.225.065 1.05-.56 1.681-1.503 2.054-.496.195-.99.414-1.507.528-1.372.302-1.988 1.3-2.28 2.46-.862 3.44 2.281 7.235 6.016 7.237zM35.63 150.3c.318-2.031 1.048-4.32 3.383-5.806.894-.57 1.726-1.17 2.445-1.987 1.983-2.256 4.545-2.52 7.29-1.61 1.136.376 2.37.746 3.27 1.462 2.15 1.71 3.61 3.775 3.068 6.767-.852 4.714-3.176 8.275-7.972 9.88-3.738 1.25-8.044-.247-10.35-3.344-1.103-1.48-1.015-3.188-1.134-5.362zM213.188 12.292c-.226-2.938-.52-5.332-2.495-7.281-5.328-5.26-12.68-2.405-15.718 1.085-.519.597-.984 1.325-.821 2.144.653 3.303.747 6.73 2.403 9.82.526.981 1.21 1.743 2.131 2.275 1.63.942 3.39 1.555 5.313 1.707 2.896.228 6.513-1.547 7.61-4.14.806-1.907 1.14-4 1.577-5.61zm-21.21-.652c-1.98.784-1.552 2.61-2.67 4.046-.376-2.085-.128-3.613.577-5.02 1.604-3.191 3.568-6.269 6.663-8.177 3.984-2.458 8.388-3.467 12.973-1.298 2.438 1.153 3.964 3.166 4.69 5.603.906 3.05 1.114 6.148-.515 9.128-.69 1.263-1.145 2.644-1.826 3.911-1.837 3.426-5.044 4.72-8.725 4.43-3.741-.297-6.857-1.822-8.632-5.499-1.094-2.265-1.626-4.664-2.535-7.124zm140.586 65.62c-1.859 1.53-3.155 3.38-3.477 5.111-.318 1.705-.218 3.457.58 4.977.72 1.369 1.769 2.61 2.836 3.764 1.443 1.562 3.336 2.053 5.485 1.762 3.257-.442 5.112-2.684 6.816-5.038 1.023-1.412 1.335-3.102 1.214-4.854-.2-2.917-2.032-4.909-5.006-5.13-2.397-.178-4.825-.331-6.98 1.148-.569.39-.928-.09-1.08-.666-.093-.356-.25-.697-.388-1.073zm-5.461 5.498c.208-2.394 1.052-5.496 4.207-7.77 2.286-1.647 4.518-1.607 6.732-.483 1.116.566 2.194.786 3.35 1.072 1.41.35 2.775.96 4.08 1.606 1.138.562 1.61 1.68 1.986 2.829 1.819 5.559-.843 10.382-4.854 13.465-.42.324-.907.561-1.344.864-3.528 2.44-7.54 1.025-9.905-1.176-2.71-2.522-4.488-5.516-4.252-10.407zM116.05 243.39c-3.436-.087-5.857 2.745-7.182 5.414-.11.222-.158.515-.12.76.312 2.046.494 4.13 1.738 5.921 1.312 1.891 3.066 2.503 5.209 1.644 1.103-.442 2.12-1.095 3.157-1.685 3.142-1.792 3.512-5.812 2.349-8.295-.968-2.064-2.535-3.679-5.15-3.759zm-10.21 6.394c-.225-2.412.08-4.263 1.468-5.89.74-.867 1.419-1.598 2.668-.997.564.271 1.037.064 1.509-.176.706-.36 1.426-.707 2.093-1.132 2.773-1.77 5.21-.624 7.26 1.111 4.492 3.804 4.35 10.297.747 13.543a23.712 23.712 0 0 1-5.224 3.579c-3.24 1.635-6.41.682-8.247-2.333-1.527-2.507-2.646-5.112-2.274-7.705zm-18.633 6.287c.861.07 2.498-.286 3.942-1.429 1.19-.943 1.915-2.125 2.44-3.497.806-2.108.544-4.435 1.274-6.487.844-2.371-.073-4.15-1.423-5.738-1.618-1.904-3.61-3.517-6.211-4.084-2.783-.606-5.589-1.144-7.63 1.631-.326.442-.763.635-1.374.579-.736-.068-1.142.503-1.632.955-1.255 1.154-1.663 2.643-1.882 4.203-1.074 7.672 4.314 13.634 12.496 13.867zM72.51 243.826c-.2-3.883 1.432-6.703 4.462-7.93.804-.325 1.368-.72 1.794-1.423 1.378-2.268 3.788-2.5 6.028-2.374 4.264.242 7.625 2.366 10.172 5.652.817 1.055 1.228 2.339 1.28 3.67.14 3.526.115 7.038-.873 10.49-1.24 4.325-4.759 6.56-9.41 5.891-.794-.114-1.593-.19-2.39-.284-5.095-.61-8.13-3.631-9.924-8.059-.792-1.955-1.353-3.973-1.14-5.633zm229.773-147.51a10.057 10.057 0 0 0 1.438 5.431c1.548 2.596 4.068 3.339 6.834 2.076 2.516-1.149 4.372-2.955 5.534-5.409.721-1.523 1.768-2.992 1.484-4.773-.513-3.244-1.6-6.285-3.629-8.972-.678-.898-1.538-1.437-2.606-1.677-.72-.163-.79.114-.62.81.361 1.465.251 1.656-1.056 1.81-1.498.177-2.905.404-3.923 1.637-2.151 2.606-3.515 5.493-3.456 9.067zm-1.944-.607c-.289-3.712 1.132-6.91 3.141-9.924.583-.876 1.347-1.643 1.871-2.546 1.325-2.285 3.598-2.564 5.9-2.664 1.086-.048 2.135.499 2.83 1.327 2.747 3.28 4.844 6.83 5.193 11.21.38 4.804-1.937 8.266-5.535 11.116-1.023.81-2.309 1.31-3.483 1.94-2.335 1.25-4.402.636-6.305-.908-1.944-1.575-3.055-3.62-3.392-6.036-.161-1.16-.152-2.343-.22-3.515zm31.515 164.926c.063.781.093 1.566.192 2.342.475 3.712 4.053 6.354 7.75 5.57 3.698-.786 6.865-2.624 8.574-5.95 1.231-2.398 2.272-5.127.853-7.866-1.021-1.973-2.879-3.333-4.418-4.91-.505-.517-1.456-.557-2.298-.45-2.58.331-5.025.95-6.754 3.022-2.018 2.416-4.416 4.682-3.899 8.242zm-2.359 1.093c-1.07-3.095.774-5.273 2.291-7.571 1.322-2.002 3.014-3.715 4.92-5.101 5.8-4.212 12.808-.683 14.424 4.307 1.288 3.978.233 7.692-1.573 11.285a.762.762 0 0 1-.246.306c-2.68 1.69-4.863 4.12-8.004 5.117-4.746 1.504-8.993-.739-11.414-4.32-.854-1.262-1.16-2.63-.398-4.023zM202.95 208.094a8.503 8.503 0 0 0-.723-3.667c-1.313-2.962-3.69-3.68-6.434-1.92-1.476.946-2.442 2.413-3.758 3.497-1.641 1.354-1.618 2.864-.928 4.562.601 1.486 1.617 2.726 2.891 3.686 2.971 2.237 6.838 1.17 8.267-2.201.52-1.224.703-2.504.685-3.957zm-15.2.253c.357-1.417.571-3.105 1.437-4.6.403-.698 1.043-1.463 1.84-1.32 1.401.252 1.83-.585 2.496-1.43 1.634-2.069 3.98-2.6 6.473-2.245 1.595.227 2.966 1.056 3.772 2.584 2.075 3.94 2.228 7.957.592 12.049-.491 1.226-1.31 2.25-2.395 3.07-3.325 2.512-6.94 2.553-10.258-.059-2.521-1.987-3.714-4.694-3.957-8.049zm80.026 122.35c.35-4.004-.935-6.955-4.808-8.632-.83-.36-1.577-.481-2.26-.154-3.555 1.704-6.464 4.016-7.587 7.949-.911 3.19.261 6.715 2.98 8.69.758.551 1.547.943 2.563.92 5.016-.113 9.027-4.008 9.112-8.774zm2.267-2.297c.109 4.063-1.889 7.511-4.72 10.601-1.216 1.327-2.938 1.76-4.606 2.226-1.278.357-2.63.304-3.921.765-1.255.448-2.412-.293-3.228-1.127-1.756-1.796-3.45-3.69-3.16-6.464.025-.257.011-.53-.052-.778-1.15-4.527 1.797-7.345 4.64-10.08 1.688-1.624 4.125-2.37 5.763-4.154.468-.51 1.262-.416 1.912-.248 1.676.43 3.219 1.173 4.653 2.112 2.564 1.676 2.888 4.207 2.72 7.147zm-45.414 11.4c4.016.113 8.037-2.517 8.597-6.063.635-4.005-.371-7.67-3.902-10.287-.356-.264-.748-.836-1.355-.436-.97.636-2.073.353-3.117.465-.82.089-1.608.297-2.213.821-3.127 2.716-5 6.049-4.95 10.2.03 2.685 2.182 4.922 4.942 5.287.655.087 1.332.013 1.998.013zm-1.643 2.771c-.612-.038-1.149-.053-1.682-.11-3.724-.398-4.88-1.442-5.553-5.006-.072-.383-.071-.785-.188-1.153-1.445-4.532.524-8.26 3.384-11.448 2.013-2.245 4.965-3.588 8.022-4.14 2.022-.365 4.007.308 5.365 2.026 4.702 5.946 4.25 12.1-1.538 17.378-2.206 2.01-5.1 2.099-7.81 2.453zM68.833 17.25c-.55 2.31 3.46 5.792 5.657 5.776.754-.006 1.3-.384 1.68-.916.99-1.388 2.005-2.774 2.842-4.25 1.974-3.483.184-5.932-3.328-6.682a8.38 8.38 0 0 0-1.993-.204c-.516.016-1.143.093-1.517.387-1.94 1.52-3.46 3.303-3.34 5.889zm4.943-8.486c3.084.021 5.336 1.195 7.548 2.423.864.48 1.176 1.348 1.316 2.296.235 1.591-.039 3.147-.588 4.595-1.03 2.713-2.679 5.062-5.031 6.895-1.59 1.238-3.281 1.656-5.22.758-1.694-.784-3.243-1.627-4.582-3.03-2.992-3.141-2.722-7.845 1.04-11.367.858-.802 1.535-1.74 2.794-2.11a11.77 11.77 0 0 1 2.723-.46zm90.65 51.191l.2.014c-.08.507-.173 1.012-.236 1.52-.152 1.235.272 2.523 1.092 3.204 2.27 1.885 4.813 3.252 8.044 2.185 1.29-.425 2.365-1.186 3.565-1.732 3.529-1.605 4.488-7.205 2.336-10.54-1.56-2.417-3.816-3.137-6.581-2.16-1.493.526-3.015 1.073-4.253 2.112-.508.427-1.027.735-1.733.866-1.927.355-2.265.689-2.42 2.212-.078.766-.014 1.546-.014 2.32zm18.246-1.542c.15 4.023-2.21 6.524-4.986 8.63-2.902 2.203-6.369 2.746-9.943 2.056-2.054-.398-3.675-1.632-4.562-3.531-1.358-2.912-1.962-5.975-1.27-9.142.717-3.29 2.049-4.338 5.55-4.551 1.612-.098 3.104-.301 4.621-1.036 2.9-1.4 6.681-.5 8.567 2.156 1.144 1.611 3.094 3.175 2.023 5.418zm2.17 268.511c.084.587.089 1.526.361 2.386.873 2.764 2.534 4.897 5.554 5.65 2.979.745 5.576.062 7.613-2.272.521-.596 1.102-1.158 1.533-1.81 1.395-2.114 2.515-4.315 1.918-6.958-.588-2.61-1.66-5.008-3.898-6.633-4.017-2.919-6.986-2.103-10.21 1.337-1.982 2.115-2.712 5.04-2.87 8.3zm6.835 10.604c-1.933.23-3.609-.87-4.947-2.005-2.917-2.47-4.97-5.445-3.816-9.586a35.785 35.785 0 0 1 3.45-8.276c1.83-3.19 4.936-3.851 8.101-3.874 3.079-.021 5.62 1.51 7.14 4.301.376.69.79 1.36 1.2 2.03 4.05 6.626-2.435 17.299-10.195 17.41-.268.004-.536 0-.933 0zm25.868-293.4c-.341-2.495-.596-4.672-.946-6.834-.349-2.15-1.563-3.88-3.15-5.336-2.926-2.691-6.383-3.075-10.118-1.994-4.226 1.222-7.616 3.755-10.758 6.62-1.311 1.195-2.067 2.716-1.675 4.58.14.664.134 1.34-.82 1.418-.754.062-1.385-.34-1.612-.948-.564-1.512-.632-3.073.236-4.526a11.28 11.28 0 0 1 1.415-1.897c4.492-4.821 10.035-7.708 16.717-8.42.923-.098 1.874.014 2.811.046 1.82.062 3.346.691 4.626 2.01 1.473 1.517 3.04 2.921 4.075 4.809 1.038 1.892 1.502 3.827 1.523 5.983.02 1.902-.882 3.103-2.324 4.488zm-70.243 41.754c-.14.477.086 1.081-.474 1.41-.455.267-.909.576-1.41.72-5.224 1.517-8.103 5.153-9.93 9.935-1.995 5.218-1.81 10.192 1.104 15.015 2.99 4.947 8.774 8.865 16.318 7.404 2.354-.456 4.775-.75 6.766-2.281.256-.196.775-.069 1.172-.09l-.098-.1c-1.22 2.416-3.25 3.618-5.974 3.88-1.172.114-2.305.247-3.462.77-2.055.927-4.226.148-6.266-.414-5.585-1.54-9.55-4.881-11.985-10.078-.628-1.339.043-2.502-.311-3.75-.318-1.12-1.373-1.974-1.168-3.255.062-.383-.086-.854.095-1.153 1.825-3.023 1.672-6.795 3.897-9.66.403-.52.873-1.022 1.13-1.608 1.5-3.422 4.55-4.904 7.889-6.022.882-.294 1.812-.454 2.719-.676l-.012-.047zm-12.763-71.833c.816-2.443 2.896-3.69 5.03-4.765 2.33-1.173 6.049-.02 7.378 2.214.86 1.447 2.07 2.846 2.06 4.59-.022 3.09-.206 6.24-1.984 8.93-1.305 1.974-3.59 2.754-5.82 3.17-3.605.673-6.96.186-9.314-3.021-1.494-2.038-1.588-4.357-1.473-6.715.019-.375.34-.743.338-1.113-.014-2.506 1.504-3.324 3.8-3.338 1.594 1.081 1.65 1.291.721 2.223-.46.462-1.165.832-1.358 1.379-.84 2.384-.168 4.576 1.075 6.704 1.033 1.766 2.622 2.021 4.457 1.91.667-.04 1.34.047 2.011.051 1.993.009 3.27-.98 3.983-2.734.744-1.83 1.05-3.756 1.369-5.686.324-1.974-.429-3.546-1.74-4.97-2.093-2.271-4.528-2.59-7.144-.92-1.119.712-2.259 1.395-3.389 2.09zm72.53 56.107c.153 1.084.379 2.36 1.097 3.497.91 1.442 2.068 1.918 3.735 1.549 3.264-.724 4.524-2.044 5.022-5.26.414-2.67-1.938-4.932-4.634-4.397-.91.18-1.789.534-2.664.856-1.717.634-2.528 1.783-2.557 3.755zm-3.324-.256c-.023-3.526 1.99-5.759 5.678-6.334 1.034-.161 2.047-.05 3.123-.402 3.142-1.024 5.767.604 6.63 3.773.637 2.332.707 4.61-.277 6.88-.84 1.935-2.242 3.21-4.34 3.729-.518.127-1.055.181-1.585.26-5.284.8-9.416-1.91-9.229-7.906zm-120.09 80.923c-2.214-.098-2.785-.008-3.791.906-2.1 1.908-3.184 4.097-2.171 6.982a11.894 11.894 0 0 0 3.52 5.152c2.01 1.716 4.471 2.393 7.09 1.308 2.639-1.092 3.532-3.731 5.103-5.762.199-.258.14-.76.09-1.136-.217-1.672-.56-3.332-.694-5.01-.122-1.52-.982-2.285-2.309-2.871-1.32-.583-2.695-.701-3.878-.066-1.024.55-1.949.696-2.96.497zm11.769 5.556c-.463 3.178-1.251 6.781-4.652 9.327-.864.647-1.403 1.43-2.698 1.107-.575-.144-1.397.06-1.915.391-1.757 1.123-3.288.533-4.78-.428-3.734-2.399-6.54-5.354-6.362-10.102.035-.936.161-1.797.72-2.577a22.071 22.071 0 0 1 4.648-4.793c.21-.157.457-.364.695-.375 3.17-.138 6.15-1.703 9.413-1.156 1.095.184 2.085.453 2.654 1.493 1.118 2.05 2.278 4.084 2.277 7.113zM240.88 272.271c0 .52-.028 1.04.004 1.56.21 3.398 2.744 5.172 6.057 4.241 2.782-.781 4.46-2.722 5.73-5.121 1.01-1.905.01-3.529-.657-5.21-.145-.363-.362-.7-.51-1.061-.335-.822-.99-1.143-1.847-1.278-1.041-.165-2.346.387-3.089-.427-1.242-1.36-2.183-.573-3.019.215-2.034 1.918-2.712 4.393-2.67 7.08zm7.56-9.383c.652-.139 1.296-.317 1.954-.405a2.555 2.555 0 0 1 2.2.765c1.583 1.636 2.824 3.4 2.909 5.825.143 4.078-1.966 6.886-5.042 9.26-2.19 1.693-4.924 1.923-7.475 2.634-.826.23-1.622-.187-2.247-.662-1.064-.81-1.869-1.833-2.281-3.13-1.541-4.852-.022-8.982 3.202-12.67.785-.898 1.839-1.497 3.152-1.538 1.203-.035 2.403-.163 3.605-.252l.023.173zm-74.51 2.519c1.184.069 2.037-.452 2.64-1.424.631-1.019 1.09-2.09 1.007-3.305-.123-1.819-.444-3.614-1.207-5.279-.314-.681-.937-1.24-1.47-1.81-.744-.796-1.628-.711-2.565-.32-1.73.723-2.467 2.329-3.437 3.694-1.12 1.577-1.574 3.28-.396 5.087 1.273 1.955 2.773 3.52 5.429 3.357zm5.755-4.719a10.652 10.652 0 0 1-1.04 4.308c-1.365 2.817-4.298 4.038-7.354 3.15-2.59-.751-4.403-2.46-5.842-4.524-1.218-1.75-.936-4.943.538-6.59 1.066-1.192 2.029-2.41 2.706-3.842.11-.235.246-.47.416-.665 1.361-1.559 3.028-2.751 5.195-2.409 2.151.34 3.5 1.912 4.182 3.837.742 2.09 1.154 4.275 1.2 6.735zM339.64 295.13c.918-.398 1.773-.747 2.608-1.137 3.07-1.431 4.165-4.057 3.366-7.065-.232-.874-.63-1.707-.922-2.567-.14-.412-.441-.77-.823-.682-1.4.325-2.56-.542-3.877-.625-2.032-.127-4.203 1.312-4.782 3.276-.776 2.628.42 6.412 2.616 8.032.504.372 1.188.512 1.814.768zm1.586-15.397c4.456-.488 7.217 3.582 7.167 7.195-.079 5.832-3.264 8.628-7.497 9.812-2.413.673-5.06-.457-6.455-2.59-.288-.44-.546-.897-.805-1.353-2.39-4.187-1.63-8.07 2.235-11.07 1.567-1.217 3.14-2.546 5.355-1.994zm-34.715-118.61c-.126-1.119-.125-2.177-.377-3.174-.759-2.987-4.933-5.28-7.573-3.98-3.237 1.592-5.507 4.068-5.67 7.83-.097 2.244.902 4.163 2.85 5.227 1.71.934 3.71 1.43 5.776 1.203 2.442-.268 3.94-1.423 4.533-3.72.29-1.122.322-2.307.461-3.387zm-15.486.315c.05-1.229.571-3.125 1.433-4.876 1.269-2.58 3.95-3.392 6.458-4.157 5.048-1.537 8.834 1.813 9.08 6.008.16 2.7.564 5.305-.77 7.956-.98 1.951-2.298 3.074-4.356 3.576-2.383.582-4.688.735-7.04-.346-3.284-1.51-4.838-3.943-4.805-8.161zM77.646 193.898c-.626 3.435 3.74 6.305 6.746 6.19.373-.014.746-.258 1.104-.426 2.993-1.4 4.448-4.488 3.95-8.167-.296-2.175-1.853-3.356-3.556-4.382-.665-.4-1.692-.476-2.296.037-1.373 1.166-2.752 2.232-4.495 2.878-.492.183-.835 1-1.041 1.592-.252.722-.285 1.516-.412 2.278zm-2.44-1.486c-.485-1.64.653-2.977 2.314-4.082.462-.307.952-.583 1.484-.338 1.156.533 1.724-.076 2.251-.938.272-.444.626-.85.986-1.237 1.54-1.654 3.549-1.729 5.308-.32 2.733 2.187 3.528 5.112 3.504 8.366-.004.517-.23 1.035-.214 1.549.125 3.813-2.518 5.497-5.563 6.866-.35.158-.798.278-1.162.212-3.712-.669-6.944-2.015-8.525-5.722-.544-1.278-.214-2.583-.382-4.356zM212.11 312.457c3.337-.015 6.183-2.747 6.189-5.8.007-3.773-3.662-5.852-6.67-5.895-2.593-.035-5.724 3.085-5.795 5.5-.099 3.353 2.795 6.21 6.276 6.195zm8.614-5.25c-.41 2.193-1.853 4.302-4.089 5.891-.748.533-1.627.907-2.479 1.283-2.27.999-4.424.725-6.44-.664-3.454-2.38-4.69-5.625-3.53-9.125.429-1.292 1.13-2.312 2.403-2.97 1.408-.728 2.933-1.272 4.061-2.465.591-.624 1.467-.584 2.271-.534 4.015.251 7.799 4.174 7.803 8.584zm98.323-116.73c-.148 1.488.038 2.62.6 3.687.532 1.006 1.416 1.555 2.54 1.636 2.336.168 3.906-1.368 5.63-2.525.184-.123.266-.444.318-.69.417-2.004.07-3.889-1.223-5.5-.964-1.2-2.695-1.82-4.255-.798-.442.288-.852.666-1.337.841-1.776.64-2.345 1.954-2.273 3.35zm-2.488.569c.15-1 .312-2.157.498-3.312.279-1.732 1.128-2.972 3.116-2.882 1.064.049 1.775-.371 2.464-1.032 1.114-1.07 2.367-.982 3.71-.434 4.28 1.747 5.772 8.135 2.478 11.172-1.063.98-2.2 1.92-3.429 2.69-3.183 1.99-6.32 1.032-8.005-2.241-.632-1.226-.554-2.525-.832-3.961zm-76.58 59.147c-.15.628-.285 1.821-.717 2.9-1.98 4.948-6.723 6.88-11.803 4.903-1.072-.417-1.84-1.173-2.189-2.178-1.348-3.889-1.492-7.676 1.32-11.115.614-.75 1.32-1.277 2.38-1.242.742.025 1.84.736 1.787 1.258-.061.603-.5.909-1.061.995-1.37.21-2.064 1.092-2.53 2.255-.645 1.609-1.08 3.235-.572 4.962.99 3.369 3.91 4.546 7.255 3.1 2.666-1.152 3.62-3.423 4.163-5.842.387-1.733-.409-3.36-1.867-4.51-1.133-.893-2.115-1.999-3.542-2.512-.483-.173-.476-.571-.23-.896.137-.18.469-.333.698-.314 4.056.338 7.19 3.831 6.907 8.236zm18.6-51.225c0 1.617.357 2.726.994 3.744.986 1.574 3.879 2.632 5.64 2.082 2.776-.866 4.844-3.907 4.401-6.703-.158-1.002-.635-1.977-1.086-2.91-1.615-3.335-3.05-3.724-6.187-1.753-.224.14-.456.271-.693.39-2.339 1.171-2.711 3.366-3.069 5.15zm-1.876 1.221c-.052-3.509 1.84-6.234 4.037-8.705 1.31-1.474 3.447-1.307 5.301-1.34 1.686-.031 2.474 1.298 3.345 2.5 2.308 3.185 2.413 6.536.97 10.028-1.2 2.905-4.71 4.813-7.789 4.288-3.773-.643-5.87-3.065-5.864-6.77zM100.581 221.91c-.076-1.71-.326-3.421-1.188-4.902-1.358-2.33-3.107-4.283-6.232-4.198-1.318.036-2.93 1.052-2.89 2.172.044 1.23-.529 2.263-.617 3.427-.278 3.675 3.13 7.17 6.938 7.033 2.247-.082 4.049-1.671 3.989-3.532zm1.754.436c-.005.336-.128 1.503-.65 2.593-.407.851-.994 1.546-1.887 1.965-3.895 1.827-9.963-.305-11.68-4.139-.657-1.465-1.222-3.157-.39-4.548 1.373-2.291.894-5.486 3.923-7.018 1.484-.752 2.743-.938 4.171-.3.602.27 1.15.68 1.674 1.083 2.677 2.058 4.925 6.487 4.839 10.364zm-3.756 72.047c-.05.37.038.943-.172 1.08-1.439.93-2.842 2.216-4.442 2.541-3.29.67-6.675.622-9.68-1.29-1.026-.652-1.836-1.536-2.359-2.621-1.878-3.894-3.635-7.812-4.287-12.138-.438-2.9.028-5.372 2.126-7.593 1.353-1.432 2.411-3.123 3.631-4.676.582-.74 1.246-1.401 2.36-1.12l-.027-.025c.008 1.335-1.77 1.866-1.727 2.922.065 1.604-.87 2.31-1.86 3.193-1.553 1.387-2.256 3.17-2.357 5.212-.196 3.977.754 7.736 2.309 11.361 1.214 2.834 3.398 4.569 6.575 5.134 1.61.286 3.173.433 4.744-.093 1.762-.589 3.52-1.186 5.281-1.78l-.115-.107z" fill-rule="evenodd" filter="url(#a)" fill="rgba(0, 0, 0, 1)" stroke="none"/>
  <path d="M85.756 268.576c.804-2.09 2.083-3.27 3.8-3.237 1.325.027 2.658.233 3.964.475 2.773.515 5.332 1.67 7.96 2.622 1.717.62 3.02 1.677 3.852 3.246 2.379 4.486 3.571 9.227 3.06 14.294-.228 2.274-1.056 4.395-2.93 5.813-1.984 1.5-4.071 3.037-6.883 2.604l.115.107c1.949-1.36 3.922-2.689 5.837-4.094 1.096-.805 1.904-1.874 2.107-3.232.444-2.962.938-5.918.138-8.915-1.032-3.861-2.817-7.03-7.116-8.24-1.542-.432-3.045-1.024-4.526-1.636-2.472-1.024-4.97-.996-7.489-.284-.635.18-1.21.563-1.916.452l.027.025zM150.55 83.634c2.842-.85 5.69-1.396 8.695-.763 1.953.412 3.928.586 5 2.606.212.402.86.585 1.307.87 2.903 1.846 4.554 4.643 6.064 7.544.118.224.191.5.186.749-.012.548-.206 1.025-.835 1.158-.389.083-.846.186-1.077-.241-.62-1.147-1.237-2.298-1.779-3.481-1.753-3.823-4.882-6.104-8.907-7.154-1.774-.462-3.648-.846-5.564-.64-1.077.114-2.146-.07-3.097-.65l.007.002zm56.82-28.689c-4.376 2.693-8.665 2.173-12.588-.134-2.843-1.672-4.16-4.61-4.049-7.958.013-.374.292-.701.744-.791.522-.104.741.248.803.612.27 1.568 1.023 2.933 1.794 4.3 2.078 3.688 5.354 5.132 9.678 4.433 1.118-.182 2.157-1.063 3.619-.462zm-39.215 56.7c-.013-.917.023-1.844.531-2.639.99-1.552 1.544-3.263 2.105-4.981.037-.111.439-.11.67-.16l-.084-.065c.46 2.952-.723 5.386-2.574 7.594-.127.152-.46.14-.697.204l.05.046zm-7.307 6.35c.483-.74 1.144-1.425 1.412-2.231.574-1.726 1.862-1.903 3.388-1.782a6.954 6.954 0 0 0-.085-.082c-.022 1.92-1.366 2.795-2.939 3.451-.594.248-1.245.366-1.873.545l.097.098zm11.047-21.25c.298 1.788.503 2.65.569 3.524.06.806-.621 1.205-1.621 1.116-.702-.062-1.04-.564-.646-.966.845-.864 1.121-1.928 1.698-3.673zm-40.421 91.179c1.388-1.13 1.215-2.732 1.394-4.238.021-.181.33-.357.538-.486.292-.182.674.297.548.718a99.683 99.683 0 0 1-.925 2.952c-.235.708-.855.925-1.53 1.044l-.025.01z" fill-rule="evenodd" filter="url(#a)" fill="rgba(0, 0, 0, 1)" stroke="none"/>
  <path d="M147.314 85.929c1.137.18 2-.427 2.873-.968.508-.316.564-.801.364-1.327a.071.071 0 0 1-.008-.003c.366.956 1.474 1.477 1.653 2.704-1.714.616-3.316.43-4.884-.438-.01-.015.002.032.002.032zm-23.386 111.185c-.441-.145-1.208.193-1.123-.632.028-.271.485-.616.814-.716.552-.168 1.138.065 1.3.608.268.912-.63.521-.99.74zm44.178-85.516c-.076 1.57-1.182 2.069-2.541 2.304l.083.08c.856-.758.914-2.325 2.507-2.338l-.049-.046zM66.333 56.68c-.071 1.607-1.222 2.415-2.474 3.148l.125.064c.176-1.5 1.037-2.513 2.394-3.174l-.045-.038zm65.165 131.234c-.35.738.545 1.63-.301 2.31-.427-.829.593-1.487.277-2.298 0-.002.024-.012.024-.012zm2.727-11.45c-.067.227-.084.608-.213.647-.284.089-.478-.146-.448-.453.037-.359.107-.715.162-1.071.503.112.444.525.499.877zm-1.264-2.964c-.194-.13-.571-.34-.553-.38.146-.315.364-.6.561-.894.167.166.404.305.483.503.168.416-.017.7-.49.771zM15.584 310.916c.14-1.245.14-1.245 1.57-1.134l-.02-.13c-.773.097-.75 1.22-1.623 1.189l.073.075zm112.6-116.948c-.087-.026-.242-.045-.246-.08-.01-.094.02-.217.084-.281.031-.033.173.038.265.062l-.104.3zm93.79 73.62c-.243-.025-.496-.099-.73-.064-.349.051-.53.009-.497-.226.01-.074.14-.174.229-.188a.58.58 0 0 1 .349.067c.225.123.434.275.65.417v-.006zM325.584 63.71c-.094.6.055 1.31-.766 1.575l.087.095c-.075-.696.275-1.189.81-1.592l-.132-.078z" fill-rule="evenodd" filter="url(#a)" fill="rgba(0, 0, 0, 1)" stroke="none"/>
  <path d="M326.433 62.112c-.156.597.05 1.375-.85 1.6l.131.077c.075-.619.094-1.266.818-1.565l-.1-.112zM171.46 103.865c0-.216-.086-.487.016-.633.164-.234.422-.13.378.16-.024.155-.312.272-.48.407l.086.066zM52.75 208.316c-.015-.1-.061-.28-.038-.29.245-.092.224-.016-.07.199l.108.091zm272.068-143.03c.003.532-.254.81-.817.79l.092.077c-.031-.557.201-.852.812-.772l-.087-.095zm-286.4 248.896l-.132-.229c-.125.232-.069.256.168.068.003-.008-.036.16-.036.16zm-20.682-6.144c-.616.38-.486 1.033-.609 1.603.007.01.025.128.027.14.432-.499.563-1.096.536-1.744-.002-.004.046 0 .046 0zm-2.225 2.803l-1.214.562-.082.138c.455-.21.908-.418 1.366-.626.003 0-.07-.074-.07-.074z" fill-rule="evenodd" filter="url(#a)" fill="rgba(0, 0, 0, 1)" stroke="none"/>
  <path d="M14.297 311.403c.151.502-.43.206.094.26.21.023.177-.218-.17-.127-.006.005.076-.133.076-.133zM9.86 277.432c.276-.45.309.29.095-.184-.075-.166-.216-.08-.013.081.005-.002-.082.103-.082.103zm297.034-7.69l.055.296s-.121-.212-.127-.215c-.007-.003.072-.08.072-.08zM187.67 85.881l-.041-.226s.123.135.13.128a4.37 4.37 0 0 1-.09.098z" fill-rule="evenodd" filter="url(#a)" fill="rgba(0, 0, 0, 1)" stroke="none"/>
</svg>
</g></svg></g></g>
<!-- /image 31635 -->
</defs><rect x="0" y="0" width="240" height="240" fill="rgba(0, 0, 0, 0)"></rect><use xlink:href="#transformed-31635" transform="translate(-240, -240)"></use><use xlink:href="#transformed-31635" transform="translate(0, -240)"></use><use xlink:href="#transformed-31635" transform="translate(240, -240)"></use><use xlink:href="#transformed-31635" transform="translate(-240, 0)"></use><use xlink:href="#transformed-31635" transform="translate(0, 0)"></use><use xlink:href="#transformed-31635" transform="translate(240, 0)"></use><use xlink:href="#transformed-31635" transform="translate(-240, 240)"></use><use xlink:href="#transformed-31635" transform="translate(0, 240)"></use><use xlink:href="#transformed-31635" transform="translate(240, 240)"></use></svg>