<svg xmlns="http://www.w3.org/2000/svg" width="350" height="350" viewBox="0 0 350 350">
  <defs>
    <filter id="pattern-landing-alt-a">
      <feColorMatrix in="SourceGraphic" values="0 0 0 0 1.000000 0 0 0 0 1.000000 0 0 0 0 1.000000 0 0 0 1.000000 0"/>
    </filter>
  </defs>
  <g fill="none" fill-rule="evenodd" filter="url(#pattern-landing-alt-a)">
    <path fill="#000" d="M296.434858 131.03896C296.384404 131.16135 296.283497 131.722307 295.970685 132.109877 295.032248 133.24199 294.113992 134.445498 293.004012 135.394025 287.484387 140.106063 282.661022 145.532045 277.454209 150.55006 272.620752 155.200902 267.716661 159.770151 262.903387 164.441392 258.281836 168.918847 253.680466 173.426901 249.180004 178.026747 247.414127 179.842208 245.708795 181.769859 244.437364 184.023886 244.10437 184.605241 243.82183 185.247792 243.377838 185.737354 242.913665 186.257514 242.207314 186.390104 241.531236 186.216718 240.834976 186.033132 240.421256 185.472175 240.310258 184.768429 240.148807 183.809703 240.219442 182.871375 240.915702 182.096234 241.268877 181.698465 241.662415 181.331293 242.045863 180.953922 246.586688 176.394873 251.107332 171.815425 255.678429 167.286973 262.156673 160.871666 268.584463 154.395164 275.203978 148.132845 280.188795 143.441206 284.891071 138.474188 289.694255 133.609162 290.541876 132.752428 291.278499 131.793702 292.085757 130.896171 292.923287 129.978241 293.861724 129.274495 295.193699 129.325491 295.849596 129.356089 296.485312 129.978241 296.434858 131.03896zM46.9609114 122.226837C46.9114668 123.001977 46.9518297 123.74652 46.2394247 124.39927 41.3070795 128.927722 36.6734196 133.741752 32.3354179 138.851559 30.0589508 141.533953 27.3990363 143.828776 24.6119787 145.909416 22.3345026 147.602486 20.2699407 149.479142 18.3305038 151.539384 17.0409095 152.906078 15.7048978 154.231977 14.4627298 155.639468 13.2266163 157.036761 12.0732467 158.454452 11.492021 160.371905 11.0399567 161.850791 10.193345 163.146091 8.25289906 163.543861 6.51426754 163.900833 5.45272351 165.471512 4.88764303 167.235977 4.51731351 168.398687 4.11872996 169.541 2.87858014 170.122355 2.07031325 170.499726 1.3225907 170.509925.623303615 169.979566.0350144808 169.5308-.0366296505 168.857652.0128148908 168.153906.102622323 166.858606.858417454 165.869282 1.61421259 164.951352 3.39825236 162.778919 5.49914083 160.861467 6.62022012 158.189272 6.76350839 157.842499 7.10255667 157.516124 7.4325233 157.332538 10.5445022 155.61907 12.7039168 152.865282 15.0823002 150.335876 16.9198208 148.377627 18.7452325 146.368381 20.8340121 144.705909 23.1558874 142.87005 25.0791792 140.616023 27.3586734 138.749567 30.7986008 135.934583 33.3293541 132.232268 36.3656525 129.019515 38.4816771 126.785887 40.4251503 124.368672 42.4352223 122.033052 43.0477291 121.319107 43.6037279 120.564365 44.4896934 120.135998 45.531056 119.646435 46.7379064 120.23799 46.9044033 121.400701 46.9437572 121.66588 46.941739 121.941259 46.9609114 122.226837zM97.5366227 143.624792C97.6022124 144.767104 97.3792074 145.86862 96.130985 146.194994 93.882772 146.786549 92.6093228 148.59181 91.1713948 150.131892 87.417646 154.150383 83.7789314 158.270866 80.0998538 162.360752 77.4974565 165.257329 74.8910228 168.143707 72.3118341 171.050484 67.9536509 175.976705 63.6257399 180.923325 59.2655387 185.849546 56.1535598 189.358076 52.9426918 192.785013 50.4563377 196.803504 50.3160767 197.038086 50.1505888 197.252269 49.9760193 197.456254 49.1697706 198.394581 47.9346661 198.700558 47.1314446 198.170199 46.2101616 197.568445 45.7782787 195.885574 46.4987563 194.916649 47.3756401 193.753938 48.449293 192.723817 49.454329 191.6529 52.6611606 188.236162 55.8922101 184.839823 59.0839057 181.402688 62.2796375 177.965552 65.4662878 174.508018 68.6065207 171.019886 73.2613711 165.838684 77.8738404 160.626885 82.503464 155.425285 85.268322 152.324723 88.0513433 149.224162 90.7889564 146.093002 91.8454551 144.889495 92.7838923 143.573796 93.8020462 142.329492 94.413544 141.57475 95.0886134 140.922 96.1874931 141.370765 97.1854655 141.778734 97.5890945 142.553874 97.5366227 143.624792zM159.993151 224.800351C159.606676 226.034456 159.908389 228.002905 157.642013 228.625057 157.074914 228.788245 156.641013 229.461393 156.158676 229.910158 151.938736 233.826657 147.943819 237.987937 143.618935 241.812643 137.504966 247.218228 131.668492 252.939988 125.713957 258.529158 122.671604 261.384939 120.093424 264.658887 117.547535 267.953234 117.220595 268.371402 116.949155 268.860964 116.550572 269.197538 116.004663 269.656503 115.349776 269.6973 114.683788 269.350526 113.896711 268.952757 113.451711 268.381601 113.559681 267.443273 113.671688 266.44375 114.141916 265.678809 114.842212 264.995461 119.547516 260.426212 124.00257 255.591784 128.901616 251.21632 135.287025 245.50476 141.617945 239.721804 147.846948 233.836857 150.66226 231.174861 153.281811 228.278284 155.433153 225.014535 156.04566 224.076207 156.721739 223.311266 157.755029 222.882899 158.815564 222.444332 159.985078 223.239871 159.993151 224.800351zM129.374871 89.6403423C128.318372 89.7117368 127.8098 89.3343658 127.577713 88.6204207 127.158948 87.3353195 127.542396 86.2542026 128.441479 85.2954763 129.819872 83.8267892 131.124602 82.2867076 132.547394 80.8690166 137.001439 76.4119593 141.48172 71.9854996 145.980164 67.5794383 151.148632 62.5206272 156.337282 57.4822146 161.542077 52.4540012 162.995141 51.0567086 164.528931 49.7512089 166.042539 48.4253109 167.838688 46.8444324 169.917377 45.5593312 171.057628 43.2951053 171.340169 42.7239492 171.965793 42.3159806 172.490511 41.8978127 173.136317 41.3980511 173.842668 41.0002817 174.670107 41.5714378 175.437002 42.1119962 175.497546 42.9381327 175.376458 43.7438708 175.225097 44.8555853 174.750833 45.7429171 173.711488 46.35487 170.351278 48.3131195 167.394696 50.842525 164.579384 53.484122 159.786291 57.9615777 155.267665 62.74501 150.379719 67.1102744 146.671379 70.4148203 143.48271 74.2191279 139.791524 77.5440723 136.635146 80.3896535 134.027703 83.8471877 131.778481 87.5291046 131.149829 88.5490262 130.553467 89.6811392 129.374871 89.6403423zM261.177873 252.65441C261.379687 252.695207 261.934677 252.715605 262.419032 252.90939 262.903387 253.113375 263.387741 253.582539 263.276743 254.123097 263.004294 255.428597 262.81257 257.009475 261.319143 257.386846 259.361543 257.886608 258.120384 259.314498 256.758136 260.548603 248.635105 267.963433 240.522164 275.388462 232.51013 282.935882 228.514204 286.689193 224.377007 290.320114 220.865436 294.583386 220.451716 295.072949 219.826091 295.440121 219.240829 295.725699 218.373027 296.164265 216.990598 295.950081 216.647514 295.338128 216.132887 294.440597 216.32461 293.49207 216.788784 292.655735 217.041052 292.206969 217.495134 291.839797 217.918945 291.523622 223.105576 287.709115 227.727127 283.211261 232.530311 278.947988 238.847104 273.33842 245.042807 267.596261 251.188057 261.792907 253.902462 259.232904 256.859044 256.856487 258.746009 253.511144 259.230363 252.65441 260.047712 252.674808 261.177873 252.65441zM175.174643 176.772244C175.235188 178.373521 174.750833 179.362845 173.509674 179.464837 171.693344 179.597426 170.694362 180.729539 169.513748 181.841254 165.800362 185.319187 162.026432 188.746123 158.224247 192.132263 153.428127 196.415933 148.517981 200.556815 144.249605 205.401443 141.676471 208.328618 139.025638 211.184398 137.027675 214.560339 136.538275 215.386475 136.00044 216.141217 135.159882 216.62058 134.561502 216.957154 133.87937 217.161139 133.270899 216.722572 132.576657 216.23301 132.184128 215.437471 132.46465 214.631733 132.766363 213.754601 133.169992 212.785675 133.825889 212.20432 137.739071 208.695789 140.6119 204.228533 144.457474 200.669007 149.676396 195.854977 154.851928 190.979751 160.149557 186.247315 163.852852 182.942769 167.535966 179.628024 170.775088 175.844115 170.855814 175.742123 170.926449 175.619732 171.017265 175.527939 171.743798 174.722201 172.490511 173.732877 173.671126 174.079651 175.093917 174.497819 174.892103 175.986904 175.174643 176.772244zM91.48118 186.57369C91.3631185 187.563014 90.9968253 188.644131 90.0795786 188.878713 86.9201733 189.653853 85.3762928 192.305649 83.4711643 194.488282 79.4954196 199.037132 75.6316818 203.687974 71.7790439 208.338817 69.5530305 211.03141 67.4279243 213.805597 65.2786003 216.569584 62.6338219 219.955724 60.0354608 223.38266 57.3684828 226.758601 56.2837301 228.135495 55.164669 229.451194 54.6016066 231.164662 54.4401551 231.654224 54.0667983 232.092791 53.726741 232.510959 53.0476353 233.326896 51.9386649 233.602275 51.2252508 233.173908 50.2101241 232.561955 49.8397946 231.011674 50.5037641 229.971354 50.7903407 229.522588 51.1879151 229.145217 51.5269634 228.727049 58.1464775 220.598274 64.701411 212.418503 71.4097234 204.371322 74.8425873 200.250839 78.6205539 196.426133 82.1048805 192.346446 83.6638971 190.520787 84.8899199 188.409549 86.2551947 186.420702 86.5589255 185.971936 86.7678034 185.461976 87.0907065 185.033609 87.7970571 184.095281 88.7425579 183.687312 89.904 183.962691 90.6325502 184.136078 91.4478806 185.523171 91.48118 186.57369zM320.047149 30.9846517C319.825153 31.4130188 319.653611 31.9331788 319.310526 32.3105498 318.422543 33.3100729 317.484106 34.2891976 316.505306 35.1969279 306.23295 44.6923979 297.272388 55.4321722 287.867835 65.7537787 286.424861 67.3346571 285.234156 69.1399184 284.325991 71.1287655 283.942543 71.9651012 283.377463 72.76064 282.77202 73.4643859 282.166576 74.1681318 280.915327 74.2293271 280.178704 73.7499639 279.43199 73.2604016 279.169632 72.1996831 279.744803 71.2307576 280.491516 69.9660548 281.278593 68.6809536 282.247302 67.5794383 286.394589 62.8266037 290.582239 58.0941675 294.810252 53.4127274 300.93532 46.6302489 307.030117 39.8375711 313.528542 33.4222643 314.507342 32.463538 315.082514 31.2498313 315.859499 30.1585152 316.686939 28.9856054 318.311545 28.873414 319.391252 29.8321403 319.673793 30.0769215 319.78479 30.5052886 320.047149 30.9846517zM207.565863 346.293616C206.223797 346.313809 205.103727 344.804326 205.537628 343.478427 205.699079 342.988865 205.98162 342.468705 206.354976 342.121932 210.552717 338.164636 214.851365 334.319532 218.978471 330.290841 226.253882 323.161589 234.235643 316.797279 241.258786 309.392648 241.985318 308.627707 242.621034 307.709777 243.862193 307.67918 244.558453 307.658781 245.204259 307.709777 245.658341 308.311531 246.183059 309.025476 246.152787 309.861812 245.77943 310.596155 245.547343 311.05512 245.133624 311.493686 244.689632 311.738468 242.399038 312.962373 240.693706 314.869627 238.887466 316.664689 236.031792 319.500071 233.044938 322.182465 229.896633 324.671073 224.306372 329.087334 219.452735 334.329731 214.245922 339.164159 212.328684 340.949022 210.401356 342.907271 209.240923 345.406079 208.928111 346.089427 208.252032 346.252614 207.565863 346.293616zM173.711488 249.553848C173.45922 249.870024 173.217043 250.451379 172.793233 250.655364 168.817488 252.593215 166.042539 255.958956 163.227228 259.15131 159.847845 262.996415 156.150604 266.494746 152.627932 270.166464 147.793467 275.215075 143.097245 280.375879 138.861159 285.944651 138.292043 286.699393 137.705772 287.443935 137.058956 288.117084 136.583683 288.616845 135.922741 288.790232 135.22749 288.800431 134.098338 288.800431 133.216409 287.668318 133.492895 286.5974 133.739109 285.638674 134.322352 284.924729 134.981277 284.241382 144.20117 274.643919 153.441245 265.077055 162.621784 255.438796 164.750927 253.205168 166.789253 250.900145 168.383587 248.197353 169.644927 246.065716 172.288697 246.361494 173.560128 248.61552 173.681216 248.819505 173.650944 249.115282 173.711488 249.553848zM189.009024 273.787185C189.099841 274.439935 188.908117 274.970294 188.454034 275.28647 183.973753 278.336036 180.482363 282.476917 176.900157 286.434213 172.036428 291.819399 166.980976 297.031198 162.652056 302.895747 160.108185 306.353282 156.995197 309.37225 154.923572 313.207155 154.576451 313.849705 153.746994 314.278072 153.058806 314.655443 152.28283 315.08381 151.482635 314.788033 150.826738 314.278072 150.234413 313.829307 149.963982 312.370819 150.202123 311.728268 150.594652 310.657351 151.32522 309.89241 152.302002 309.382449 153.644068 308.678703 154.627914 307.566988 155.591578 306.445075 161.118267 300.039967 166.577348 293.563465 172.157517 287.188955 175.699361 283.150065 179.392565 279.243766 183.075679 275.327267 183.993935 274.358341 185.124096 273.603599 186.203803 272.808061 186.758793 272.389893 187.434871 272.338897 188.100859 272.644873 188.625577 272.889654 188.968661 273.246627 189.009024 273.787185zM132.677565 187.981182C132.706828 188.429947 132.471714 189.001104 131.951033 189.143893 129.062059 189.929232 127.345627 192.244454 125.328491 194.172106 123.298238 196.120156 121.197349 197.996812 119.198377 199.97546 112.732242 206.380567 106.53452 213.030456 100.533567 219.884329 98.8554802 221.801782 96.9725513 223.474453 95.9231161 225.901867 95.3297816 227.278761 93.910017 227.758124 92.9816705 227.258362 91.7728019 226.615812 91.4478806 224.575969 92.4710799 223.433656 93.8081007 221.934372 95.2379561 220.516681 96.6314849 219.068392 102.772699 212.693882 108.914922 206.319372 115.054117 199.944862 116.544517 198.394581 118.182241 197.027886 119.803821 195.620395 121.506125 194.151708 122.988453 192.397442 124.44858 190.673775 125.929898 188.909311 127.746228 187.542616 129.409179 186.002534 129.957106 185.492573 130.542368 185.329386 131.227528 185.614964 132.154865 186.002534 132.638211 186.757276 132.677565 187.981182zM31.890417 108.243712C30.8581361 108.162118 30.116468 107.070802 30.2779195 106.122275 30.5150515 104.735182 31.2294747 103.633667 32.2718463 102.715737 34.9933142 100.33932 37.5886481 97.7895158 40.4584497 95.6068836 44.1022096 92.8326969 47.0638368 89.344565 50.53 86.3867924 51.3342306 85.703445 52.0718624 84.9385038 52.8942563 84.2551563 54.6359151 82.8068677 56.2453854 81.2259892 57.692395 79.420728 59.6984307 76.9219201 62.1070862 74.7494871 64.3068637 72.4036674 65.9506425 70.6494023 67.5036047 68.8033442 69.1605014 67.0694775 70.11912 66.0597552 70.8950966 65.9271653 71.612547 66.4371261 72.5429116 67.089876 72.6932634 67.895614 72.1645095 69.3031058 71.8759148 70.068047 71.5540208 70.7717929 70.7154817 71.1185662 68.0131862 72.2506792 66.4107794 74.6576942 64.4753788 76.6771389 63.9234163 77.248295 63.514742 77.9826385 62.9103077 78.4925993 58.2766478 82.3683014 54.3402569 86.978347 49.8932754 91.0274357 45.9306486 94.6379581 42.1698362 98.4524648 38.2516086 102.113983 37.0831029 103.1951 36.037704 104.449604 35.0972487 105.744904 34.4504334 106.642435 33.6966564 107.36658 32.8308724 107.978532 32.532187 108.192716 32.0871861 108.192716 31.890417 108.243712zM69.9960132 144.716108C70.0222491 145.817623 69.8073167 146.888541 68.8517252 147.214916 65.6489299 148.306232 63.7044476 151.009024 61.3876177 153.15086 55.9789903 158.148475 50.6823699 163.28888 45.6400358 168.653668 42.2667072 172.243792 38.6229472 175.629931 35.8459803 179.770813 35.6290298 180.097188 35.3515349 180.413364 35.0326681 180.627547 34.3374173 181.086512 33.5271322 181.361891 32.7723462 180.902926 32.1901115 180.545954 31.9933424 179.883005 31.9610521 179.15886 31.8883989 177.506587 32.6563029 176.394873 33.9115888 175.425947 38.6905551 171.723632 42.85096 167.348168 47.0234739 162.982904 48.9598836 160.95326 50.977019 159.00521 52.9971817 157.067359 55.4088644 154.741937 57.8508193 152.457313 60.2998377 150.172689 62.4521889 148.173642 64.7478283 146.317385 66.2180466 143.665589 66.4571967 143.237222 66.977878 142.931245 67.4178335 142.645667 68.5035953 141.941921 69.6266927 142.400886 69.8567612 143.614593 69.9324416 144.012362 69.9586775 144.410132 69.9960132 144.716108zM343.427354 217.569107C343.386991 218.517634 343.124632 219.394767 342.408191 220.098513 341.076215 221.414212 339.804784 222.801305 338.422355 224.055809 331.681753 230.175338 324.880605 236.223473 318.170275 242.363401 315.809046 244.525635 313.578996 246.851056 311.379218 249.196876 310.571961 250.05361 309.996789 251.155125 309.330802 252.164848 309.038171 252.603414 308.826266 253.113375 308.503362 253.531542 307.786921 254.46987 306.465036 254.755448 305.657779 254.204691 304.800067 253.613136 304.456983 252.38923 304.880793 251.338711 305.284422 250.318789 305.970591 249.53345 306.777849 248.799106 310.14815 245.729142 313.427635 242.577585 316.797937 239.51782 321.853389 234.938372 326.989566 230.450717 332.024837 225.86107 334.890602 223.239871 337.635279 220.496282 340.400137 217.773092 341.025762 217.171338 341.691749 216.834764 342.53937 216.906158 342.942999 216.936756 343.275993 217.120342 343.427354 217.569107zM288.574185 176.925232C288.513641 178.679497 288.07974 179.9442 286.959669 180.46436 285.042432 181.37209 283.871908 182.93257 282.509661 184.421656 278.523825 188.797119 274.366448 192.999196 270.320068 197.313464 268.019383 199.761276 265.779242 202.270283 263.549193 204.779291 261.934677 206.574353 259.855988 207.879852 258.382743 209.838102 257.868116 210.521449 256.616866 210.37866 255.779336 209.807504 255.052804 209.317942 254.71981 208.175629 255.042714 207.288298 255.375707 206.360169 256.011423 205.646224 256.859044 205.207658 260.471522 203.290205 263.256562 200.383428 266.02142 197.456254 270.733787 192.468837 275.425973 187.471221 280.077797 182.443008 281.631768 180.770336 283.094923 179.016071 284.537896 177.251607 285.072704 176.609056 285.637785 176.099095 286.40468 175.803318 287.514659 175.364752 288.614548 176.17049 288.574185 176.925232zM256.152693 130.569796C256.061877 130.814577 256.041695 131.120553 255.890334 131.304139 254.255637 133.252189 252.731938 135.32263 250.915608 137.087095 245.254712 142.60487 239.129644 147.602486 233.21648 152.834684 230.017721 155.670066 226.859325 158.576843 224.366916 162.095572 223.680747 163.074697 223.287209 164.257806 222.722129 165.318524 221.965324 166.726016 220.582895 167.072789 219.372009 166.185458 218.292301 165.410317 217.949217 163.594857 218.887654 162.605533 221.753419 159.586565 224.548549 156.486003 227.636311 153.722016 234.619091 147.469896 241.944955 141.615546 248.675467 135.06765 250.673431 133.1094 252.711757 131.16135 255.294982 129.978241 255.466524 129.906847 255.789427 130.110831 256.011423 130.233222 256.092149 130.274018 256.102239 130.457604 256.152693 130.569796zM75.0524743 38.5422707C75.1917263 39.786575 74.8345147 41.1124731 73.6478457 41.5714378 70.7548355 42.6729531 69.029322 45.171761 66.8295444 47.0688152 62.3734813 50.9037203 58.1182235 54.9834067 53.8155393 59.0018978 52.1535973 60.5521786 50.4512924 62.0718617 49.1283986 63.9689159 48.6763342 64.6114665 48.0608002 65.1724234 47.4341663 65.6517865 45.9326667 66.8144971 44.7601248 68.2627858 43.6662904 69.8028674 43.1234095 70.5576094 42.5785105 71.342949 41.9074775 71.9854996 40.8318064 73.0156204 39.1809642 72.3628706 38.8398977 70.8635858 38.5735027 69.7008752 38.8762243 68.7421489 39.7894348 67.9772077 40.9175776 67.0388799 42.0881014 66.1413489 43.1506545 65.1214273 45.6682898 62.7144123 48.1273989 60.2462021 50.6228347 57.8187887 51.8690389 56.605082 53.0355265 55.2689847 54.4290553 54.2592624 57.6964313 51.8930443 60.3280918 48.8230803 63.361363 46.1916826 65.9788965 43.9274567 68.2493091 41.2552621 70.6206289 38.7054581 71.3875239 37.8793216 72.2845891 37.3897593 73.3118247 37.0531852 74.40465 36.6962126 75.0534834 37.2265718 75.0524743 38.5422707zM303.679997 82.0419265C303.780904 82.8986606 303.407547 83.5106135 302.983737 83.9899767 301.389403 85.7952379 299.81525 87.641296 298.059464 89.2833697 293.962631 93.1080757 289.593348 96.6472036 285.647876 100.614699 281.218048 105.061557 276.838675 109.590009 273.56928 115.046589 272.499664 116.831452 270.955783 116.994639 269.674261 115.546351 269.068818 114.863003 268.988092 114.057265 269.502719 113.322922 270.198979 112.343797 270.935602 111.385071 271.763041 110.507938 277.807384 104.062034 283.861818 97.6263283 290.652874 91.9453651 294.154355 89.0283893 297.232025 85.6626481 300.450966 82.4498951 300.915139 81.9807312 301.379312 81.4707704 301.944393 81.1341962 302.196661 80.9710088 302.721378 81.0526025 303.0241 81.2259892 303.326822 81.3993759 303.508455 81.8175437 303.679997 82.0419265zM171.895158 114.036867C170.583364 114.006269 169.836651 113.006746 170.179736 111.65025 170.744816 109.44722 172.298787 107.927536 173.73167 106.356857 179.402656 100.084339 185.578178 94.3115832 191.582158 88.3756395 193.781936 86.2032065 195.911078 83.9899767 197.868679 81.593161 198.706209 80.5630402 199.755644 79.6961068 200.744535 78.7985758 201.269252 78.3294119 201.945331 78.2580174 202.6315 78.3498103 203.6103 78.4722009 204.256106 79.6553099 203.741479 80.461048 203.529574 80.7976221 203.297487 81.123997 203.014947 81.4095751 197.384324 86.9375501 191.723429 92.4349275 186.133168 98.0138985 183.287584 100.849281 180.442001 103.705061 177.838594 106.764826 176.294713 108.590485 175.245278 110.824114 173.953666 112.863957 173.509674 113.557504 172.944594 114.12866 171.895158 114.036867zM339.239865 307.495594C339.249795 308.739898 338.785621 309.37225 338.119634 309.88221 336.202396 311.340698 334.325522 312.870581 332.367922 314.257674 327.655554 317.582618 323.437632 321.488918 319.290345 325.476811 318.129912 326.588526 316.97957 327.720639 315.778774 328.781357 313.952353 330.382634 312.327746 332.157298 310.915045 334.135946 309.895882 335.574035 308.584088 336.706148 307.262204 337.84846 305.990773 338.960175 304.477164 338.562405 303.811176 336.80814 303.619453 336.318578 303.478183 335.757621 303.488273 335.237461 303.488273 334.890688 303.750632 334.299133 303.992809 334.237938 307.342929 333.411801 309.270257 330.658013 311.570942 328.48558 318.10973 322.325254 324.567793 316.093533 331.671662 310.585956 333.044 309.515039 334.335613 308.352328 335.607044 307.15902 336.363848 306.445075 337.171106 306.149297 338.149906 306.383879 338.896619 306.567465 339.229613 307.097824 339.239865 307.495594zM348.987342 173.416702C349.068068 174.151045 348.755255 174.752799 348.26081 175.221963 345.909672 177.424993 343.639259 179.709618 341.156941 181.75966 335.576772 186.369706 330.491047 191.550908 325.213599 196.497527 324.234799 197.415457 323.215636 198.292589 322.267108 199.241116 320.743409 200.770999 319.411434 202.453869 318.52345 204.463115 318.311545 204.952677 318.119821 205.462638 317.82719 205.911403 316.959388 207.216903 315.092604 207.594274 313.962443 206.717142 313.104732 206.054193 312.94328 204.014349 313.831264 203.025025 314.628431 202.137694 315.647594 201.464545 316.525487 200.638409 322.670737 194.845254 328.815987 189.0521 334.941056 183.218148 338.533353 179.801411 342.347646 176.639654 346.222484 173.549291 346.737111 173.141323 347.322373 172.804749 347.907635 172.488573 348.270901 172.294788 348.997433 172.947538 348.987342 173.416702zM43.2475254 43.519488C42.0891105 43.5092888 41.3918415 42.7443476 41.4180774 41.9386096 41.4564221 40.775899 42.0305843 39.878368 42.8095881 39.1134268 45.4816114 36.4718298 48.1395078 33.8098345 50.8609757 31.2294329 56.5975516 25.7728524 62.718584 20.7446389 68.2836176 15.1044726 69.5096404 13.8601682 70.8638154 12.7484537 71.5378756 11.0451846 71.9193049 10.0864583 72.7386716 9.63769283 73.6841723 9.40311087 74.712417 9.15832969 75.9858662 10.0966575 75.9394489 11.1471768 75.870832 12.6770592 75.521693 14.1865431 73.8869959 14.7576992 72.1645095 15.3594529 70.9748133 16.6751518 69.6963187 17.817464 64.7902093 22.1929276 59.9557441 26.6499849 55.1444875 31.1274407 52.8882019 33.2284792 50.7217237 35.4315098 48.5623091 37.6447397 48.0113556 38.2056966 47.6823981 38.980837 47.1889617 39.6131883 46.2777695 40.775899 45.36355 41.9386096 44.3595231 43.0197265 44.0366199 43.3664998 43.4301675 43.4480935 43.2475254 43.519488zM228.443568 60.7867605C227.061139 60.7663621 225.991523 59.3384719 226.415333 58.2165581 226.657511 57.6046052 227.020777 57.0130507 227.444587 56.5234883 232.540402 50.6385407 237.575673 44.7127963 243.075116 39.2154189 245.345529 36.9409938 247.555397 34.6053733 249.82581 32.320749 251.147695 30.9948509 252.530124 29.7301481 253.88228 28.4246485 254.588631 27.7311018 255.325254 27.2517387 256.374689 27.6189105 257.464487 27.9962814 257.656211 28.9346093 257.757118 29.8729372 257.868116 30.9234564 257.161765 32.3513466 256.223328 32.4431396 252.489761 32.8511082 250.582614 35.8088808 248.241566 38.1037044 245.08317 41.1940668 242.338494 44.6719994 239.230551 47.8337564 236.051973 51.0567086 232.964212 54.4530475 230.946068 58.634726 230.582802 59.389468 230.068175 59.9912217 229.382006 60.429788 229.049012 60.6337723 228.655474 60.715366 228.443568 60.7867605zM284.58835 304.568419C283.861818 304.588817 283.286646 304.344036 283.034378 303.589294 282.620659 302.34499 282.590387 301.110885 283.75082 300.294947 287.928379 297.347374 291.328952 293.49207 295.173518 290.156927 301.76276 284.435167 308.634542 279.080578 315.465961 273.664795 315.677866 273.501607 315.899862 273.348619 316.131949 273.226228 316.656666 272.961049 317.161203 272.991646 317.595104 273.399615 318.029005 273.807584 318.089549 274.368541 317.938188 274.8989 317.635467 276.000415 316.858481 276.755157 315.990679 277.407907 313.62945 279.18257 311.248039 280.926636 308.906991 282.721698 301.661852 288.280271 294.860705 294.348804 288.432915 300.835506 287.787109 301.488256 287.403661 302.406185 286.889034 303.181325 286.344135 304.007462 285.627694 304.578618 284.58835 304.568419zM307.050298 309.545636C307.030117 310.453366 306.485218 311.044921 305.788958 311.483487 304.547799 312.258628 303.185552 312.88078 302.035209 313.768112 299.280442 315.899748 296.576128 318.092579 293.94245 320.356805 288.453096 325.089241 283.438007 330.301041 278.927454 336.002402 278.342192 336.736746 277.807384 337.542484 276.90931 337.909656 276.142415 338.225831 275.345248 338.266628 274.648988 337.695472 274.003182 337.185511 273.781186 335.880012 274.245359 335.094672 274.517808 334.645906 274.870984 334.217539 275.264522 333.870766 278.533916 331.08638 281.450135 327.924623 284.467261 324.885257 290.057521 319.265489 296.071592 314.135283 302.448929 309.453843 303.29655 308.831691 304.245077 308.301332 305.223878 307.903562 306.041226 307.566988 307.131024 308.627707 307.050298 309.545636zM174.306841 77.0851075C174.175662 77.0647091 174.044482 77.0545099 173.933484 77.013713 172.773051 76.6159436 171.925431 74.2701239 172.631781 73.2400031 173.166589 72.4648627 173.792214 71.7509176 174.43802 71.0675702 180.361275 64.8460485 186.375345 58.7061205 192.207783 52.4030051 194.942369 49.4554317 198.050312 46.8342332 200.26018 43.4072967 200.572992 42.9279335 201.037166 42.6729531 201.592155 42.6423555 202.459957 42.5913594 203.136036 42.8973359 203.549756 43.7336716 203.902931 44.4272182 203.781842 45.1207649 203.317669 45.6103273 201.743516 47.2626003 200.139091 48.8740764 198.484213 50.4345564 192.793045 55.7687463 187.576141 61.5415025 182.419782 67.3856532 182.066607 67.7834226 181.673069 68.1607936 181.299712 68.5381646 179.513654 70.353625 177.727596 72.1792847 176.819431 74.6576942 176.365349 75.8917993 175.487456 76.6465413 174.306841 77.0851075zM238.917739 84.7243202C237.858213 84.7957148 237.373858 84.3979453 237.010592 83.7757932 236.536328 82.9292582 236.041883 82.0113288 236.808778 81.1647939 239.230551 78.4824001 241.662415 75.8000063 244.205277 73.2400031 246.748139 70.68 249.391909 68.2219889 252.076041 65.8047748 256.737955 61.5822994 261.016421 56.9314569 266.142509 53.2393408 266.798405 52.7701768 267.393758 52.2806145 268.26156 52.2194192 269.129362 52.1582239 269.734806 52.9333643 269.502719 53.7900984 269.270633 54.6162349 268.756006 55.1975902 268.130381 55.7177502 266.374595 57.1558397 264.649082 58.634726 262.852933 60.0320186 258.503831 63.3977598 254.770264 67.4366493 250.774338 71.1899607 249.119459 72.7402416 247.565488 74.4027138 245.961063 76.0243891 243.983281 78.0336346 242.197224 80.1958684 240.976246 82.7864692 240.512073 83.7655939 239.805722 84.5917304 238.917739 84.7243202zM76.9445795 270.309253C76.7456976 272.43069 76.5055384 273.970771 74.4773032 274.480732 73.7739798 274.654119 73.1433096 275.357864 72.604465 275.93922 65.4824329 283.619229 57.8841187 290.840274 51.2080966 298.948651 50.2696594 300.090963 49.2565508 301.141482 48.5512093 302.487779 47.9265936 303.670888 47.0598005 303.885071 46.3171233 303.283318 45.3373141 302.497978 45.0759644 301.345467 45.7036073 300.447936 45.9326667 300.121561 46.2313521 299.835983 46.4977472 299.540205 49.9618923 295.603308 53.3443026 291.595016 56.9133912 287.760111 60.1182047 284.322975 63.4975878 281.049027 66.8598166 277.75468 69.0807846 275.592446 71.0293032 273.195631 72.967731 270.778417 73.3875051 270.258257 73.7558165 269.666702 74.265398 269.248534 74.8032335 268.809968 75.5206839 268.77937 76.1654811 269.075148 76.8819224 269.401522 76.9475121 270.08487 76.9445795 270.309253zM115.618189 61.7454868C115.376011 61.5517017 114.992564 61.3681158 114.783686 61.0621394 113.811949 59.6342491 113.815986 58.2165581 115.187315 57.125242 118.246822 54.6978286 120.691804 51.6380639 123.593896 49.047463 126.989424 46.0182959 130.326426 42.9279335 133.63921 39.8069734 136.368751 37.236771 139.279924 34.8603537 141.632072 31.8821827 142.846995 30.3421011 144.229424 30.1789136 145.062918 31.0356478 145.787431 31.7801905 145.301059 34.024018 144.193097 35.0031428 144.094208 35.0847365 143.966056 35.1459318 143.845976 35.2071271 142.016528 36.1148573 140.738034 37.7263334 139.17599 38.9706377 135.598829 41.816219 132.344571 44.9881751 129.24571 48.3437171 128.70182 48.9250725 128.064086 49.424834 127.477815 49.9755917 124.160995 53.0965518 120.666577 56.0441251 118.197377 59.9810225 117.634315 60.8683543 117.005663 61.8168813 115.618189 61.7454868zM306.394401 162.840115C305.506418 162.778919 304.55789 162.625931 304.184533 161.555014 303.851539 160.575889 304.083626 159.668159 304.870702 158.99501 305.587144 158.393257 306.354039 157.862897 307.090661 157.291741 310.471053 154.650144 313.962443 152.151337 317.181384 149.336353 321.621302 145.450452 325.869496 141.340168 330.147963 137.28088 330.955221 136.505739 331.701934 135.801993 332.872458 135.791794 333.619171 135.771396 334.184252 136.087571 334.285159 136.88311 334.557609 138.933153 333.831076 140.718015 332.105563 141.146383 329.855332 141.69714 328.412358 143.247421 326.828115 144.665112 322.529467 148.479619 318.311545 152.406317 313.962443 156.180027 312.23693 157.689511 310.56187 159.158198 309.401437 161.20824 308.533635 162.748322 307.988736 162.911509 306.394401 162.840115zM70.370379 103.113506C70.048485 102.980917 69.7629175 102.94012 69.5732119 102.776932 68.1968373 101.614222 67.9930047 100.155734 69.196828 98.9624256 71.1070018 97.0857699 73.0615748 95.2397118 75.1099915 93.5160443 78.8042051 90.4052835 82.3026586 87.0905383 85.6477332 83.6126057 86.3914195 82.8374653 87.139142 82.0623249 87.9474089 81.358579 89.4690899 80.0326809 90.9302265 78.6863844 92.0825871 76.9831154 92.6688581 76.116182 93.5326239 75.3920377 94.3862991 74.7698855 95.0613684 74.2803232 95.9120163 74.2905224 96.619376 74.8718777 97.2328919 75.36144 97.2106924 76.0039907 96.9311793 76.6873381 96.5739678 77.5542715 96.4215978 78.5333962 95.5608592 79.0943531 91.5911689 81.6849539 88.6840317 85.4790622 85.0816437 88.4776317 82.1926697 90.8846466 79.7648419 93.7608255 77.1997801 96.4942154 75.2754793 98.5442578 73.2976977 100.553503 71.319916 102.55255 71.0575572 102.817729 70.6589737 102.950319 70.370379 103.113506zM85.4711456 334.564313C84.4096015 334.60511 83.2622863 333.574989 83.4176835 332.575466 83.5569355 331.667735 83.5559264 330.586619 84.4489553 330.035861 88.1330782 327.771635 90.7758385 324.334499 93.8938718 321.437922 98.7908995 316.889072 104.366024 313.166358 109.0794 308.393125 110.290287 307.169219 111.682807 307.485395 112.340722 308.913285 112.717106 309.729222 112.670689 310.524761 111.949202 311.106116 109.658608 312.941975 107.455803 314.930822 105.002748 316.5219 101.720236 318.643337 99.1097664 321.519516 96.1541937 324.008124 92.7738016 326.843506 89.5851332 329.872673 87.167396 333.646383 86.8021119 334.217539 86.1976776 334.564313 85.4711456 334.564313zM213.52948 251.267317C212.772676 251.267317 212.207596 250.991938 211.692969 250.512575 210.966437 249.839426 210.794894 249.125481 211.380156 248.401337 211.975509 247.687392 212.55068 246.851056 213.317575 246.392091 218.584932 243.271131 222.429498 238.548894 226.738236 234.357017 229.523276 231.654224 232.267952 228.900436 235.042901 226.187445 235.618072 225.636687 236.223516 225.085929 236.889503 224.667762 238.191207 223.862023 239.250732 224.147601 239.91672 225.381707 240.713887 226.860593 240.491891 228.186491 238.988374 228.71685 233.821924 230.552709 230.804798 234.989368 227.051049 238.528496 224.13483 241.261886 221.491061 244.291053 218.625295 247.085638 217.565769 248.10556 216.475971 249.084684 215.567806 250.257594 215.043089 250.940942 214.296375 251.185723 213.52948 251.267317zM36.4968319 346.120024C36.4453692 345.110302 36.4534418 344.039384 37.3464708 343.519224 40.435241 341.734362 42.585574 338.939776 44.9397396 336.379773 49.1556436 331.810524 54.2827398 328.342791 58.9567625 324.334499 59.8669457 323.54916 60.7821743 322.774019 61.6752032 321.968281 62.6731757 321.060551 63.7871915 321.019754 64.5561046 321.733699 65.3361174 322.468043 65.2533735 324.150913 64.3593355 325.038245 64.0798225 325.313624 63.7316925 325.527807 63.3815445 325.711393 57.7559665 328.638568 52.8841656 332.565266 48.5239643 337.165113 46.8620223 338.919378 45.1365087 340.612448 43.4977754 342.397311 42.3181699 343.672213 40.9851854 344.834923 40.1971 346.446399 40.0235395 346.803372 39.7753077 347.160344 39.4695588 347.405126 38.8207254 347.904887 38.0830935 348.221063 37.2556543 347.813094 36.5361858 347.456122 36.5038954 346.772774 36.4968319 346.120024zM272.146489 315.440783C272.045581 316.328115 271.621771 317.021661 270.824604 317.358236 267.817568 318.643337 265.426067 320.836168 262.994203 322.927007 257.070949 327.985819 251.521051 333.4322 246.637142 339.531331 246.213331 340.051491 245.759249 340.561452 245.22444 340.949022 244.51809 341.448783 243.720923 341.479381 242.9843 340.938823 242.257768 340.398264 242.076135 339.643522 242.247677 338.786788 242.439401 337.817863 242.974209 337.07332 243.741104 336.461367 248.241566 332.871243 252.378763 328.87315 256.404961 324.742468 259.866079 321.182942 263.458376 317.745806 267.716661 315.124607 268.776187 314.471857 269.855894 314.033291 271.127326 314.359666 271.712587 314.502455 272.015309 314.890025 272.146489 315.440783zM4.94001908 307.352805C4.93406036 306.343082 5.21559152 305.59854 5.68884642 304.925391 7.065221 302.936544 8.48296754 300.988494 10.1459186 299.22403 14.2821059 294.838367 18.3587579 290.38131 22.479809 285.985447 24.0378166 284.312776 25.6038968 282.650304 27.2597844 281.089824 28.2527115 280.151496 29.3889269 280.253488 30.0872049 281.100023 30.9206986 282.119945 30.8117188 283.578433 29.6997211 284.271979 25.6846225 286.811584 22.6796053 290.442505 19.4657101 293.838844 17.2548328 296.174464 15.1791711 298.642674 13.0298472 301.03949 11.3295604 302.936544 9.65450044 304.843798 8.71404509 307.28141 8.56974775 307.648582 8.33665206 307.985156 8.12272874 308.331929 7.55663919 309.23966 6.50014052 309.668027 5.76452684 309.280457 4.8926884 308.831691 4.96130531 307.985156 4.94001908 307.352805zM170.593455 331.943114C170.643909 330.678412 171.07781 329.740084 171.996066 329.423908 176.133262 327.985819 179.261386 324.966851 182.601415 322.37625 186.929326 319.020708 190.926261 315.246998 195.09373 311.677272 196.112893 310.810339 197.202691 310.035199 197.969586 308.903086 198.191582 308.576711 198.504394 308.280933 198.817207 308.056551 199.513466 307.566988 200.81517 307.719977 201.430704 308.32173 201.985694 308.862289 202.005875 310.228984 201.450885 310.942929 201.279343 311.157112 201.107801 311.391694 200.885805 311.514085 194.932278 314.512654 190.724447 319.714254 185.658904 323.834738 181.83452 326.955698 177.737687 329.760482 174.246297 333.29961 173.539946 334.013555 172.651963 334.309332 171.703435 333.738176 170.966812 333.289411 170.674181 332.555067 170.593455 331.943114zM121.737203 156.842976C121.835083 156.587995 121.884528 155.925046 122.236694 155.629269 125.618095 152.722493 128.050968 148.948783 131.17102 145.807424 134.76029 142.196902 138.380841 138.616977 141.954975 134.996255 143.000374 133.935537 144.078063 133.466373 145.529109 134.098724 146.860075 134.68008 147.244532 136.424146 146.175924 137.40327 145.885312 137.66845 145.530118 137.892833 145.172906 138.05602 143.207234 138.994348 141.722888 140.544629 140.057919 141.890925 134.681582 146.245991 130.294136 151.447591 126.520206 157.220347 125.989434 158.026085 125.339591 158.658436 124.365836 158.913417 123.150913 159.219393 121.758393 158.281065 121.737203 156.842976zM287.877925 270.574432C288.039377 271.145588 287.847653 271.696346 287.484387 272.063518 286.54595 273.012045 285.546968 273.919775 284.527805 274.786708 281.853764 277.030536 279.078815 279.162172 276.485499 281.487593 272.994109 284.618753 269.633899 287.9029 266.203053 291.095255 265.032529 292.19677 263.862005 293.318684 262.590574 294.287609 261.187964 295.358527 259.583539 295.297332 259.018458 294.328406 258.392833 293.277887 258.806553 291.442028 260.138529 290.840274 263.145564 289.483779 265.355432 287.097162 267.807478 285.04712 270.572336 282.742097 273.155561 280.212691 275.900237 277.88727 278.957726 275.276271 282.08585 272.767264 285.224065 270.258257 285.607513 269.95228 286.182684 269.789093 286.68722 269.738097 287.232119 269.6871 287.726564 269.95228 287.877925 270.574432zM4.8159989 30.148316C3.36293483 30.2809058 2.07031325 28.3736524 2.64548445 26.9865591 3.1237847 25.8340477 3.98048706 24.9467159 4.96231438 24.24297 9.21050864 21.1832052 13.0570921 17.6338781 17.0247643 14.22734 20.2759952 11.4327548 23.8995737 9.08693518 26.6926857 5.75179158 26.9429357 5.45601432 27.3223468 5.25203 27.6704768 5.0582449 28.2981197 4.71147156 28.9126447 4.67067469 29.5190972 5.17043627 30.1215133 5.67019785 30.2890193 6.3433461 30.0306968 6.9858967 29.3273734 8.74016184 28.5231428 10.4842278 26.3576738 10.7902042 25.3597013 10.9329933 24.6210604 11.5143486 23.9328731 12.1263015 18.9157657 16.5833589 13.9380122 21.0914123 8.92796841 25.5586688 7.98852212 26.3950045 7.47288619 27.4761214 6.93303253 28.5572383 6.4718865 29.485367 5.7514089 29.9953278 4.8159989 30.148316zM113.349794 345.038907C113.355849 344.069982 113.461801 343.18265 114.415375 342.591096 118.99959 339.786311 122.589869 335.706625 126.962179 332.616263 130.230564 330.301041 133.401069 327.843029 136.63111 325.476811 137.052902 325.170835 137.562483 324.966851 138.052893 324.773066 138.863178 324.446691 139.766297 324.742468 140.146718 325.405417 140.620981 326.231553 140.534201 327.526854 139.914631 328.016416 139.498893 328.35299 139.028665 328.61817 138.554401 328.862951 132.906624 331.718732 128.059041 335.737223 123.195312 339.714917 121.652441 340.97962 120.378992 342.580896 118.993535 344.039384 118.067207 345.00831 117.108588 345.946638 115.917883 346.589188 114.318504 347.466321 113.328604 346.864567 113.349794 345.038907zM315.778774 114.699816C314.769701 114.720214 313.084551 113.506507 313.013916 112.659973 312.983643 112.292801 313.124913 111.823637 313.357 111.538059 313.942262 110.824114 314.577978 110.120368 315.264147 109.508415 319.653611 105.602115 324.043075 101.695815 328.472903 97.8303127 330.884585 95.7292742 333.387085 93.7098294 335.849221 91.659787 336.515209 91.1192286 337.241741 90.9458419 338.06918 91.3334121 338.866347 91.7107831 339.209432 92.649111 338.664533 93.2814624 338.059089 93.9750091 337.413283 94.678755 336.686751 95.249911 330.39014 100.20673 324.355888 105.459326 318.927079 111.39527 318.301454 112.078617 317.877644 112.935351 317.373108 113.710492 316.97957 114.312246 316.444761 114.64882 315.778774 114.699816zM235.577709 121.094724C234.669544 121.094724 234.124645 120.75815 233.741198 120.156396 233.34766 119.534244 233.226571 118.901893 233.650381 118.269541 233.943012 117.841174 234.286097 117.392409 234.689726 117.076233 239.119553 113.567703 242.772395 109.294231 246.516053 105.112553 249.190094 102.113983 252.005406 99.2480037 254.750083 96.3208287 255.537159 95.484493 256.404961 94.9847314 257.595666 95.3927001 258.271745 95.6170828 258.645102 96.3208287 258.402924 96.9735785 258.160747 97.6059299 257.807572 98.1464884 257.262673 98.5850546 252.681484 102.317968 249.240548 107.172794 245.042807 111.293278 242.671487 113.618699 240.744159 116.413284 238.665471 119.044682 237.797668 120.135998 236.788596 120.921337 235.577709 121.094724zM5.26200885 106.744427C3.93810603 106.58124 3.27817276 105.959088 2.88867086 105.041158 2.5344865 104.204823 2.74740075 103.46028 3.40329772 102.858526 4.87452509 101.491831 6.36795206 100.155734 7.82101613 98.7686405 13.2387252 93.6078373 18.640289 88.4368348 24.056989 83.2760316 24.7350855 82.633481 25.4464815 82.021528 26.1820952 81.4401727 26.7653389 80.981208 27.3970182 80.9914072 28.0075069 81.4605712 28.6442315 81.9501335 28.6169866 82.5926841 28.4706711 83.2760316 28.288029 84.1327657 27.7007489 84.6427265 27.0337522 85.1220897 20.8491482 89.6505415 15.4738202 95.0561259 10.3507603 100.737089 9.45470413 101.726413 8.4587498 102.644343 8.15199183 104.041635 7.93504129 105.030959 7.13989234 105.612314 6.43152361 106.203869 6.05110336 106.530244 5.50216805 106.642435 5.26200885 106.744427zM10.4254317 270.972202C9.77558912 270.707022 9.32756103 270.452042 9.13886451 269.880886 8.76954406 268.758972 8.9864946 267.73905 9.6888089 266.83132 10.9249224 265.250442 12.0964553 263.587969 13.4667755 262.129481 18.5070915 256.754495 23.6180425 251.450902 28.7027577 246.116713 28.9812617 245.820935 29.2537112 245.525158 29.5534056 245.259978 30.1780214 244.699022 30.8944627 244.311451 31.7390562 244.607229 32.602822 244.913205 32.9015074 245.688345 32.951961 246.524681 33.0135145 247.524204 32.8147272 248.49313 31.7007114 248.768509 30.0407875 249.186677 28.9277808 250.359586 27.7845019 251.4815 23.5675889 255.622382 19.477819 259.875455 15.9238665 264.628289 15.121654 265.699207 14.2467884 266.678332 13.7694972 267.994031 13.4657664 268.840566 12.7836336 269.605507 12.1115914 270.227659 11.658518 270.656026 10.9279496 270.768217 10.4254317 270.972202zM28.6220319 212.07173C28.594787 212.32671 28.650286 212.642886 28.5241519 212.826472 28.1588678 213.387429 27.7834929 213.958585 27.3001473 214.397151 23.6543691 217.742494 20.3092946 221.373415 16.9682563 225.014535 15.9753292 226.105851 14.8734222 227.084976 13.8068328 228.094698 11.379005 230.389522 9.20344514 232.918927 7.12071997 235.529926 6.21760029 236.672239 5.51427691 236.794629 4.76453622 236.26427 3.62125733 235.448333 3.3205538 234.224427 4.09653037 233.122911 4.55364011 232.480361 5.13688388 231.909205 5.71205508 231.358447 9.19234534 228.033503 12.7331799 224.769754 16.1609984 221.393813 18.6362527 218.956201 20.9379466 216.335002 23.3809106 213.856593 24.2174315 213.010058 25.2265037 212.32671 26.1962222 211.633164 26.7774478 211.204797 27.4706805 211.265992 28.1104323 211.510773 28.3213284 211.582168 28.4535169 211.877945 28.6220319 212.07173zM250.199167 5.23163157C250.259711 6.63912336 249.977171 7.37346691 248.685558 7.60804887 246.808684 7.96502143 245.648251 9.28072028 244.37682 10.402634 241.067063 13.3094106 237.858213 16.3385777 234.649363 19.377944 233.20639 20.7446389 231.6726 22.0093417 230.754344 23.9063959 230.088356 25.28329 228.201391 25.6402626 227.384043 24.8549229 226.385061 23.9063959 226.526331 22.0807362 227.747309 20.9282248 229.704909 19.1025652 231.591874 17.1851126 233.700835 15.5532381 237.727033 12.4424772 241.228514 8.72996262 245.103352 5.43561589 245.9207 4.7420692 246.687595 3.99752644 247.706758 3.60995624 249.028643 3.08979623 250.138622 3.82413977 250.199167 5.23163157zM3.84325323 52.8619698C3.560713 52.6477863 3.03195913 52.4132043 2.74941889 51.9950364 1.90987076 50.7711305 2.19543821 48.7210881 3.58493073 48.149932 5.6494926 47.2931979 6.99357686 45.6103273 8.6807457 44.3354253 14.0217652 40.306735 18.8259583 35.6558926 23.6997774 31.0764446 25.0953243 29.770945 26.3909731 29.485367 27.1558499 30.3726987 27.8218376 31.1376399 27.4555444 32.983698 26.4212453 34.0138188 26.2335579 34.1974047 26.0236708 34.4421859 25.7905751 34.493182 23.1377241 35.0439396 21.557517 37.2061734 19.5726718 38.7360558 17.774505 40.1129499 15.9632203 41.5510394 14.4718115 43.2543084 12.0005935 46.069292 8.69285457 48.0377407 6.69791869 51.3218882 6.14999245 52.2296184 5.26099977 52.9333643 3.84325323 52.8619698zM316.646576 8.65856811C316.646576 8.87275164 316.404398 9.63769283 315.647594 10.0864583 309.572979 13.70718 305.26424 19.2555534 300.450966 24.24297 299.906067 24.8141261 299.542801 25.5688681 299.088718 26.2216179 298.715361 26.7723755 298.372277 27.3639301 297.938376 27.8534924 296.969666 28.9040117 295.61751 29.0875975 294.739617 28.3634532 293.871815 27.6393089 293.94245 25.7524539 294.951522 24.7427316 295.799143 23.8859974 296.757761 23.1414547 297.605382 22.2949198 301.77285 18.1234405 305.910047 13.9315627 310.077515 9.77028264 310.925136 8.92374772 311.893845 8.18940418 312.781829 7.38366612 313.679903 6.57792807 314.709157 6.54733042 315.788864 6.84310768 316.364035 7.00629513 316.646576 7.41426377 316.646576 8.65856811zM98.6819197 48.3439411C97.3913163 48.3641156 96.4185706 46.9872214 96.9523699 45.83471 97.4609423 44.7331947 98.1057395 43.6928747 99.0946303 42.9585312 105.015866 38.5932668 109.898767 33.0958894 115.18227 28.0268791 115.854312 27.3843285 116.540481 26.7621763 117.253895 26.1604226 117.83613 25.6708602 118.478909 25.6402626 119.022799 26.2216179 119.507153 26.7417779 119.757403 27.4047269 119.353774 28.0472775 119.007662 28.6082344 118.529362 29.0875975 118.062162 29.5567615 113.249896 34.3707914 108.413413 39.1746221 103.61931 44.0090504 102.685918 44.9473783 101.893797 46.0386944 101.055258 47.0790144 100.435687 47.8439556 99.6990646 48.3539164 98.6819197 48.3439411zM197.273326 126.255527C195.850534 126.35752 194.720373 125.021422 195.073548 123.868911 195.51754 122.420622 196.395433 121.257912 197.404505 120.146197 200.371178 116.882448 203.085582 113.363718 206.667789 110.711922 208.827204 107.35638 212.651587 105.826498 215.133905 102.827928 215.265085 102.67494 215.668714 102.613745 215.860437 102.695339 216.03198 102.766733 216.17325 103.113506 216.17325 103.337889 216.193431 104.75558 215.668714 105.938689 214.649551 106.938212 212.157142 109.365626 209.846366 112.007223 207.212688 114.261249 203.89284 117.106831 201.279343 120.431775 199.442831 124.378872 198.938295 125.470188 198.181491 126.051543 197.273326 126.255527zM111.612172 8.74016184C111.652535 9.49490381 111.296332 10.3210403 110.382113 10.8208019 107.309488 12.5036725 104.807997 14.9514843 102.109738 17.1341165 98.2500368 20.2448774 94.4791337 23.4678296 91.942326 27.8636916 91.6022687 28.4552462 91.1491952 29.0060038 90.4155997 29.016203 88.9867533 29.0366015 87.7748575 28.0574767 88.353056 26.415403 88.8212655 25.0895049 89.7677753 24.1103802 90.7395119 23.2230484 95.1693392 19.143362 99.4750505 14.9208867 104.394278 11.4225556 106.1319 10.1884505 107.740362 8.77075948 109.454775 7.4958575 110.279187 6.88390454 111.489065 7.48565828 111.612172 8.74016184zM93.3509909 122.308431C91.9322353 122.033052 91.2692748 120.034006 92.193585 118.738705 92.4226444 118.42253 92.7334387 118.136952 93.0563418 117.912569 95.9261434 115.903323 98.1814199 113.220929 100.712173 110.834313 103.61931 108.100923 106.595064 105.428729 109.575864 102.776932 110.273133 102.15478 111.097545 101.675417 112.112672 101.746812 112.846267 101.797808 113.388139 102.134382 113.659579 102.817729 113.877539 103.358288 113.722142 103.878448 113.30035 104.276217 112.81095 104.724983 112.309441 105.173748 111.760505 105.551119 108.547619 107.75415 105.671763 110.365149 102.93415 113.108738 100.579985 115.464757 98.4599238 118.065557 96.2318923 120.543966 95.7858823 121.043728 95.3550084 121.574087 94.8413907 121.992255 94.4337255 122.31863 93.9170805 122.532814 93.3509909 122.308431zM298.725452 222.066961C298.654817 222.240348 298.614454 222.689114 298.382368 222.974692 297.797106 223.698836 297.171481 224.402582 296.475221 225.024734 293.891996 227.350155 291.29868 229.655178 288.675092 231.929603 286.636766 233.704267 284.769983 235.580923 283.730638 238.151125 283.538914 238.640687 283.19583 239.089453 282.862836 239.497421 282.317937 240.150171 281.631768 240.547941 280.753875 240.272562 279.835619 239.986984 279.048543 239.487222 278.86691 238.416305 278.655005 237.151602 278.776093 235.866501 279.896164 235.142356 283.75082 232.663947 286.465224 228.880038 290.087794 226.136449 291.470223 225.096129 292.701291 223.851824 294.023175 222.72991 295.163427 221.760985 296.404586 220.975645 297.988829 221.138833 298.352095 221.17963 298.796087 221.291821 298.725452 222.066961zM77.267388 309.423246C76.3824316 309.321253 75.6468179 308.148344 75.690208 307.220215 75.7386435 306.200293 76.2603339 305.384356 76.9454939 304.762204 79.5196373 302.416384 81.6629068 299.621799 84.5952708 297.643151 87.1502418 295.929683 89.5599064 293.981633 92.0583693 292.176372 92.7041756 291.717407 93.4115353 291.299239 94.1471489 291.003462 94.7879098 290.748481 95.4649973 290.840274 95.9019256 291.523622 96.2803277 292.115176 96.4750787 292.71693 96.1632753 293.420676 95.7001112 294.471195 94.8968896 295.215738 93.9049716 295.623706 89.9927984 297.245382 87.0392439 300.243951 83.8223215 302.834552 82.2865135 304.068657 81.1169987 305.802524 79.8970303 307.403801 79.4015758 308.046351 78.9858381 308.739898 78.258297 309.117269 77.9182396 309.300855 77.5115835 309.351851 77.267388 309.423246zM132.136702 107.652158C132.086248 106.785224 132.402088 106.132474 133.025694 105.510322 136.796598 101.695815 140.522092 97.8405119 144.268778 93.9954075 145.211251 93.0366812 146.193079 92.128951 147.512945 91.6801855 148.267731 91.4354043 148.846939 91.7005839 149.274785 92.2513416 149.724831 92.8428961 149.767213 93.5772396 149.238459 94.1075989 147.543217 95.8210671 145.921638 97.6467268 144.027609 99.1154139 141.52511 101.043066 140.101309 103.878448 137.867223 106.010084 137.437358 106.428252 137.40305 107.254388 137.165918 107.87654 136.807697 108.825067 136.118501 109.416622 135.192173 109.753196 133.58573 110.344751 132.243663 109.416622 132.136702 107.652158zM319.693974 300.998693C318.573904 300.845705 317.665739 299.458612 317.867553 298.459088 318.029005 297.65335 318.432634 296.990401 319.068349 296.429445 322.882642 293.084102 326.585938 289.59597 330.501138 286.373018 332.943093 284.343374 335.677679 282.680902 338.301267 280.87564 338.432446 280.783847 338.825984 280.865441 338.957164 280.998031 339.118615 281.171418 339.199341 281.487593 339.18925 281.732374 339.17916 282.589109 338.76544 283.272456 338.149906 283.833413 336.373939 285.465287 334.668606 287.168557 332.811913 288.698439 329.199435 291.666411 325.687863 294.726175 322.892733 298.540682 322.347834 299.285225 321.631393 299.927776 320.914951 300.509131 320.531504 300.825307 319.966423 300.896701 319.693974 300.998693zM196.970604 27.1803442C196.76879 27.1293481 196.365161 27.0681528 196.001895 26.9253638 194.831371 26.4460006 194.447924 25.2730908 195.235 24.3041653 196.334889 22.9476696 197.384324 21.4891817 198.706209 20.3876664 203.035129 16.7873432 207.464956 13.2992113 211.894783 9.8110795 212.83322 9.07673596 213.912928 8.51577909 214.952272 7.90382613 215.164177 7.78143554 215.466899 7.74063868 215.729258 7.76103711 216.294338 7.80183397 216.768602 8.08741202 216.899782 8.65856811 216.980507 9.01554066 216.980507 9.52550146 216.788784 9.78048186 216.486062 10.1986497 216.001707 10.4842278 215.557716 10.780005 210.693987 14.1457463 206.40543 18.2254326 201.915058 22.0501386 200.653718 23.1210562 199.755644 24.4265559 199.079565 25.9258406 198.716299 26.7111802 198.050312 27.1497465 196.970604 27.1803442zM27.2870293 321.682703C27.3566553 322.437445 27.2194215 322.927007 26.7542392 323.294179 26.543343 323.457367 26.3284107 323.620554 26.1074238 323.773542 21.6200794 326.812909 18.2417055 330.96399 14.981393 335.217063 12.9339853 337.879058 10.695863 340.357467 8.2912438 342.693088 7.31547092 343.631416 6.32153473 343.590619 5.54454908 342.591096 5.09551192 342.01994 4.99460469 341.356991 5.56876682 340.785834 5.94515077 340.408463 6.38611536 340.102487 6.82001643 339.786311 9.01172141 338.225831 10.8855686 336.338976 12.5999824 334.268535 16.434457 329.627892 20.1387613 324.875058 24.3314566 320.560789 24.4232822 320.458797 24.4707086 320.326207 24.5625342 320.224215 25.4969351 319.25529 26.6008602 319.459274 27.0236614 320.693379 27.1538318 321.07075 27.2305213 321.46852 27.2870293 321.682703zM183.408673 202.280483C182.80323 202.229487 182.157423 201.382952 182.167397 200.546616 182.177605 199.261515 182.651869 198.1498 183.560034 197.303265 184.831465 196.109957 186.112987 194.916649 187.525688 193.917126 190.149276 192.060868 192.702229 190.153615 194.972641 187.838393 196.34498 186.430901 198.131037 185.431378 199.765735 184.289066 200.371178 183.870898 201.037166 184.044285 201.66279 184.36046 202.308597 184.686835 202.520502 185.543569 202.015966 186.022932 201.037166 186.940862 200.048275 187.838393 199.029112 188.705326 195.870716 191.397919 192.702229 194.080313 189.523651 196.742308 187.97977 198.02741 186.434881 199.281913 185.477271 201.14837 185.103914 201.862315 184.458108 202.402873 183.408673 202.280483zM99.5840303 250.44118C98.7767725 250.369786 98.2863634 249.951618 98.0118957 249.278469 97.512405 248.074962 97.7475188 246.840857 98.9301515 246.106513 102.505295 243.852487 105.10971 240.568339 108.032992 237.620766 109.261033 236.386661 110.487056 235.152555 111.742342 233.938849 112.220642 233.479884 112.747378 233.051517 113.31044 232.704744 114.208515 232.153986 115.176215 232.398767 115.771568 233.245302 116.494063 234.265224 116.427465 235.509528 115.42142 236.070485 109.757497 239.201644 106.222717 244.607229 101.788853 249.043887 101.107729 249.727235 100.584021 250.481977 99.5840303 250.44118zM52.8397664 266.005184C51.6581428 266.05618 50.8882207 264.944465 51.326158 263.822551 51.9729734 262.170278 52.9759912 260.732189 54.1414697 259.426689 56.7368036 256.519913 59.3170013 253.592738 62.0192969 250.798153 63.6903206 249.064286 65.5349047 247.493607 67.8103627 246.565478 68.2301367 246.392091 68.6478926 246.432888 68.8910791 246.759263 69.1090387 247.044841 69.2341636 247.473208 69.2382979 247.84038 69.2452634 248.554325 68.8698885 249.125481 68.3411347 249.574247 63.2433016 253.990507 58.6681679 258.855533 55.1808141 264.699684 54.6389423 265.607414 53.811503 265.92359 52.8397664 266.005184zM58.7408211 3.39577271C58.8720005 3.91593272 58.6368866 4.37489743 58.1727134 4.71147156 57.0839244 5.48661197 55.9376183 6.19035786 54.8851559 7.00629513 50.446247 10.4842278 46.2464882 14.2171408 42.6662998 18.6130028 42.3272515 19.0311707 41.9609583 19.4289401 41.5956741 19.8267095 40.9710584 20.4896585 40.2334266 20.6732444 39.4453411 20.1734829 38.4423233 19.5513307 37.9872317 18.2560303 38.480668 17.4094953 39.0911567 16.3589761 39.8610789 15.4716443 40.8610695 14.7271016 44.0679012 12.3302858 47.3241774 9.98446617 50.0426181 6.9858967 50.6662248 6.30254924 51.4331197 5.71099471 52.2222142 5.22143235 53.6944507 4.30350292 55.2696125 3.58955781 56.5773701 2.38605033 57.3250927 1.69250365 58.5258887 2.29425739 58.7408211 3.39577271zM7.42949609 74.9636706C6.54554878 74.8514793 5.69994621 72.8422337 6.27108112 71.9651012 6.91890552 70.9553788 7.6474557 69.9558556 8.50415805 69.1297191 10.7180626 66.998083 12.9672847 64.8970445 15.303287 62.9081974 17.7412056 60.8275574 20.287095 58.869308 22.8067484 56.8906601 24.0045172 55.9523322 24.9479998 55.9829299 25.5635339 56.8804609 26.2032857 57.8187887 25.9449632 59.0324954 24.7885664 59.5832531 19.8431032 61.9596704 16.349695 66.0699544 12.6181457 69.8946603 11.8885865 70.6392031 11.3608417 71.6183278 10.8724507 72.5668549 10.276089 73.7193663 9.35379691 74.412913 8.20547266 74.8616785 7.96834068 74.9534714 7.68983673 74.933073 7.42949609 74.9636706zM196.930241 156.486003C196.022076 156.465605 195.033186 155.36409 195.124002 154.527754 195.224909 153.589426 195.426724 152.661297 196.133074 151.957551 196.607338 151.488387 197.081602 151.009024 197.555866 150.53986 201.269252 146.89874 204.992729 143.267819 208.706115 139.6165 209.4831 138.861758 210.239905 138.147813 211.440701 138.198809 212.298412 138.229407 213.075398 138.351797 213.337757 139.279926 213.539571 139.983672 213.24694 140.65682 212.68186 141.04439 209.795913 143.00264 207.444774 145.552444 204.942275 147.93906 202.813133 149.968704 200.734444 152.028946 199.241017 154.619547 198.908023 155.180504 198.413578 155.670066 197.919132 156.098433 197.636592 156.333015 197.1926 156.384011 196.930241 156.486003zM165.507731 18.2662295C165.487549 17.4298938 165.759999 16.685351 166.385624 16.1141949 170.835632 12.1059031 175.315913 8.11800967 179.755831 4.08931939 181.067625 2.88581191 182.67205 2.25346053 184.226022 1.50891777 184.599378 1.32533188 185.013098 1.41712482 185.305729 1.76389816 185.578178 2.10047229 185.648813 2.48804249 185.376364 2.84501505 184.659923 3.81394056 183.822393 4.62987783 182.904137 5.42541667 179.564108 8.30159555 176.304804 11.2593682 173.095954 14.2783361 171.935521 15.3594529 170.997084 16.6955502 169.998103 17.9500538 169.584383 18.4600146 169.322024 19.1025652 168.908304 19.6227252 168.403768 20.2652758 167.717599 20.8670295 166.869978 20.5712523 165.870997 20.2346781 165.649001 19.2453542 165.507731 18.2662295zM159.90738 160.014932C158.903353 159.91294 158.004269 158.47485 158.352399 157.485526 158.568341 156.873573 158.963897 156.302417 159.383671 155.792457 163.106139 151.335399 167.606601 147.704478 171.804342 143.757382 172.308878 143.278019 172.954684 143.12503 173.661035 143.155628 175.003101 143.216823 175.749814 144.614116 175.073736 145.787026 174.720561 146.398979 174.185752 146.745752 173.640853 147.143522 169.281661 150.295079 165.316007 153.854606 162.480514 158.525846 161.86498 159.535569 160.92957 159.943537 159.90738 160.014932zM332.055109 52.8313721C332.115654 53.7085047 331.701934 54.381653 331.076309 54.9324106 329.683789 56.1665157 328.30136 57.4210193 326.868478 58.6143276 324.204527 60.858155 321.833207 63.3773614 319.875607 66.2841379 319.340799 67.0694775 318.765627 67.7834226 317.867553 68.1709928 317.211656 68.4565709 316.596122 68.4667701 315.990679 68.0588015 315.213693 67.5284422 315.042151 66.7533018 315.3146 65.9373646 315.516415 65.3152124 315.798955 64.6522634 316.253038 64.2136971 319.482069 61.0315417 322.751463 57.9003824 326.030948 54.7692232 327.383105 53.4739227 328.957257 52.494798 330.682771 51.7808529 331.257942 51.5462709 332.0652 52.1990208 332.055109 52.8313721zM18.1307075 121.54349C18.1690523 122.155443 17.7967046 122.624606 17.1559437 122.991778 14.1246906 124.725645 11.6686087 127.13266 9.31948845 129.713062 8.29931638 130.834975 7.64039219 132.089479 6.93807789 133.37458 6.45775949 134.261912 5.74737261 134.812669 4.67472878 134.68008 2.77060941 134.435299 1.83620849 132.415854 2.93609726 130.753382 3.44668783 129.98844 4.13083883 129.315292 4.82608963 128.69314 7.72111797 126.133137 10.6555001 123.61393 13.5656646 121.074326 14.382004 120.360381 15.2175159 119.748428 16.3628129 119.697432 17.3426221 119.646435 18.1347438 120.37058 18.1307075 121.54349zM23.4787906 190.102619C23.6654689 190.694173 23.4263188 191.051146 23.1185518 191.295927 20.16197 193.570352 17.2144699 195.865176 14.2094527 198.078406 12.4738484 199.353308 10.8028247 200.669007 9.55258414 202.464069 8.77055313 203.596181 7.80285283 204.493712 6.40528773 204.809888 5.40731525 205.04447 4.52538609 204.432517 4.41640628 203.392197 4.29531761 202.229487 4.59198486 201.199366 5.52638578 200.516018 9.62221013 197.49705 13.7543611 194.539278 17.8572489 191.530509 19.3052676 190.469791 21.1054526 190.377998 22.6735509 189.653853 23.107452 189.449869 23.3849468 189.817041 23.4787906 190.102619zM188.655849 236.203075C187.868772 235.978692 187.152331 235.621719 186.889972 234.764985 186.637704 233.969446 186.536797 233.051517 187.233057 232.521158 191.350072 229.349202 194.730464 225.300113 199.099747 222.454532 199.432741 222.240348 199.785916 222.046563 200.149182 221.913973 201.057347 221.597798 202.308597 221.893575 202.712226 222.485129 203.115854 223.076684 202.752588 224.218996 201.723335 224.830949 197.293507 227.462347 194.195656 231.521635 190.673993 235.132157 190.088731 235.723712 189.553923 236.274469 188.655849 236.203075zM150.789403.958160109C150.138551 2.2330621 149.173878 3.53856173 147.921619 4.49728802 145.676434 6.21075629 143.879276 8.38318928 141.850031 10.3210403 140.699689 11.4123564 139.527147 12.5240709 138.761261 13.9825588 138.465603 14.5537149 137.938867 15.0432773 137.41415 15.4206482 136.780452 15.879613 136.055939 16.3385777 135.218409 15.8286169 134.489858 15.3900506 134.061003 13.7785745 134.472704 12.9422388 134.645255 12.5852662 134.894496 12.2588913 135.166946 11.9733133 139.239562 7.69984181 143.880285 4.0995186 148.529081.509394609 148.925646.203418132 149.502836.0810275417 150.014435.00963303047 150.454391-.0617614808 150.722804.264613428 150.789403.958160109zM231.228608 195.477606C231.127701 196.650515 230.401169 197.425656 229.503094 198.047808 228.090393 199.037132 226.607057 199.893866 225.406261 201.209565 224.235737 202.494666 222.954215 203.657377 222.207502 205.289251 221.995597 205.758415 221.682784 206.21738 221.319518 206.594751 220.37099 207.553477 218.453753 207.543278 217.737312 206.615149 216.86951 205.493236 216.980507 203.912357 218.019852 203.045424 220.78471 200.7506 223.529386 198.425179 226.344698 196.181352 227.363861 195.375613 228.413296 194.478082 229.825997 194.345493 230.401169 194.284297 231.268971 194.947246 231.228608 195.477606zM271.833676 15.5736365C270.844785 15.3492537 270.178798 14.7169023 269.744897 13.8397698 269.391721 13.1156255 269.785259 12.4220788 270.269614 12.0345086 274.326085 8.80135713 278.231194 5.32342451 282.862836 2.88581191 283.236193 2.69202681 283.649912 2.74302289 283.932453 3.09999545 284.194811 3.44676879 284.184721 3.82413977 283.972816 4.21170998 283.185739 5.67019785 281.914308 6.71051787 280.68324 7.6896426 278.160559 9.70908734 275.819512 11.8713211 273.821549 14.4211251 273.347285 15.033078 272.741841 15.6246326 271.833676 15.5736365zM338.311357 7.86302927C338.260904 8.00581829 338.220541 8.45458379 337.968273 8.7197634 337.241741 9.4847046 336.464755 10.2394466 335.627225 10.9023956 333.003637 13.0136333 330.571773 15.2778592 328.967348 18.3172256 328.735262 18.7659911 328.271088 19.143362 327.837187 19.4187409 327.231744 19.8063111 326.555665 19.755315 325.950222 19.3575456 325.354869 18.9597762 324.971422 18.3886201 325.132873 17.6644757 325.36496 16.6241557 325.586956 15.6144333 326.47494 14.8188945 329.159072 12.4016803 331.681753 9.82127872 334.597971 7.66924417 335.516227 6.99609592 336.414301 6.55752963 337.544462 6.84310768 337.907728 6.94509984 338.331539 7.07768964 338.311357 7.86302927zM325.657591 339.255952C324.860424 338.990772 324.234799 338.542007 324.032985 337.654675 323.851352 336.838738 323.800898 335.982004 324.537521 335.441445 328.008729 332.901841 330.955221 329.79108 334.012709 326.79251 334.194342 326.608924 334.456701 326.506932 334.688788 326.384542 335.163052 326.119362 335.677679 325.833784 336.162033 326.221354 336.848203 326.79251 336.525299 327.486057 336.11158 328.006217 334.71906 329.801279 333.477901 331.708532 331.863386 333.350606 330.369959 334.870289 329.159072 336.665351 327.766552 338.287027 327.241835 338.89898 326.545575 339.327347 325.657591 339.255952zM325.475958 262.690438C325.516321 262.41506 325.556684 261.741911 325.718135 261.099361 325.798861 260.742388 326.020857 260.263025 326.303397 260.150834 328.896713 259.090115 331.046037 257.315452 333.286177 255.683577 333.750351 255.336804 334.244796 255.326604 334.708969 255.744772 335.152961 256.16294 335.193324 256.693299 335.072235 257.223659 334.99151 257.60103 334.819967 257.998799 334.567699 258.284377 332.912821 260.171232 331.268033 262.068286 329.542519 263.883747 329.108618 264.342711 328.452721 264.638489 327.847278 264.842473 326.495121 265.311637 325.50623 264.526297 325.475958 262.690438z" transform="translate(.066 1.648)"/>
  </g>
</svg>
