<svg xmlns="http://www.w3.org/2000/svg" width="352" height="350" viewBox="0 0 352 350">
  <path fill="#FFF" fill-rule="evenodd" d="M238.631968 332.416855C238.881968 331.0047 239.671968 330.031996 240.811968 329.604679 243.201968 328.711504 245.331968 327.345334 247.461968 326.00241 249.501968 324.711691 251.771968 323.972476 253.851968 322.794729 257.101968 320.956481 260.241968 318.971206 263.191968 316.665978 264.311968 315.791054 265.471968 316.262214 266.421968 317.815992 266.911968 318.615363 266.661968 319.676875 265.751968 320.252851 263.391968 321.745554 261.111968 323.431065 258.601968 324.608609 253.271968 327.106746 248.351968 330.216443 243.651968 333.764774 241.941968 335.061713 240.521968 334.886341 239.121968 333.394555 238.871968 333.122422 238.771968 332.700203 238.631968 332.416855zM346.501968 285.451653C346.351968 285.369065 345.891968 285.270265 345.711968 284.983755 344.861968 283.671522 343.611968 282.944543 342.251968 282.398952 338.171968 280.752288 334.591968 278.200213 330.981968 275.736845 328.461968 274.01371 325.981968 272.250811 323.241968 270.884641 322.351968 270.438971 321.701968 269.812933 321.941968 268.677092 322.171968 267.56776 323.041968 266.806216 324.181968 266.757173 325.111968 266.716389 325.991968 266.855055 326.771968 267.506686 328.601968 269.041193 330.461968 270.528798 332.311968 272.038733 334.781968 274.058573 337.331968 275.919354 340.271968 277.220474 342.431968 278.174723 344.261968 279.771427 346.461968 280.703449 347.601968 281.183581 348.141968 282.365407 348.331968 283.627577 348.471968 284.573772 347.561968 285.629064 346.501968 285.451653zM248.881968 285.796381C250.331968 277.722018 250.481968 270.438971 251.251968 263.223218 251.361968 262.28518 251.361968 261.35428 251.741968 260.459066 252.211968 259.318228 252.881968 258.71768 253.721968 258.828715 254.841968 258.976558 255.951968 260.2216 255.931968 261.314617 255.921968 261.580735 255.911968 261.868162 255.801968 262.10471 253.951968 266.425801 254.101968 271.081425 253.801968 275.623669 253.581968 278.971036 253.011968 282.32452 253.381968 285.707574 253.421968 286.088906 253.281968 286.501949 253.181968 286.885321 252.951968 287.695806 252.121968 288.201632 251.341968 288.028197 249.661968 287.652982 248.801968 286.507047 248.881968 285.796381zM297.311968 159.011717C297.341968 158.091013 297.621968 157.233524 298.551968 156.732897 299.451968 156.244506 300.401968 156.281212 301.171968 156.886858 303.991968 159.10654 307.241968 160.722616 309.801968 163.284886 312.361968 165.844098 315.321968 167.852722 318.221968 169.937817 318.661968 170.247777 319.071968 170.586286 319.501968 170.889109 320.161968 171.344873 320.851968 171.726206 320.641968 172.764165 320.411968 173.903065 319.701968 174.721809 318.631968 174.95122 317.741968 175.140867 317.171968 174.629025 316.551968 174.081496 312.881968 170.807541 309.271968 167.471389 305.291968 164.574688 303.121968 162.999397 300.831968 161.699399 298.441968 160.573754 297.781968 160.264813 297.371968 159.83352 297.311968 159.011717zM277.631968 323.778649C277.711968 322.448165 278.771968 321.272457 280.181968 320.870732 281.221968 320.574129 281.961968 321.08903 282.591968 321.859852 287.211968 327.567608 291.841968 333.277402 296.471968 338.988115 296.721968 339.298177 296.981968 339.609055 297.181968 339.954701 297.641968 340.767327 297.261968 341.878698 296.381968 342.353835 294.931968 343.143112 293.861968 342.907481 293.071968 341.482173 290.781968 337.34247 287.861968 333.694319 284.661968 330.278639 283.021968 328.538171 281.491968 326.659037 279.081968 325.867822 278.171968 325.568058 277.661968 324.706491 277.631968 323.778649zM258.971968 159.006619C258.141968 164.924413 259.301968 171.220481 259.271968 177.535922 259.261968 179.007214 259.571968 180.477486 259.701968 181.952856 259.751968 182.6156 259.771968 183.296697 259.691968 183.953323 259.611968 184.523283 259.161968 184.890342 258.621968 185.011675 258.101968 185.130969 257.561968 185.037165 257.161968 184.625244 256.361968 183.815677 256.091968 182.787914 256.081968 181.680621 256.061968 179.657723 256.041968 177.634824 256.061968 175.611925 256.121968 170.881972 255.291968 166.223392 254.961968 161.525046 254.871968 160.210774 254.541968 158.912815 253.981968 157.655641 253.431968 156.421917 254.211968 155.244272 255.531968 154.93839 256.041968 154.822155 256.581968 154.794626 257.101968 154.825214 258.131968 154.884351 258.871968 155.576664 258.961968 156.576897 259.021968 157.244739 258.971968 157.923797 258.971968 159.006619zM280.171968 307.426307C278.551968 307.209029 277.201968 306.09358 276.191968 304.67541 272.371968 299.339708 269.121968 293.653365 266.561968 287.578551 266.351968 287.093219 266.181968 286.567102 266.131968 286.046185 266.021968 284.908203 267.011968 283.691812 268.171968 283.421719 269.211968 283.183131 270.671968 284.045616 271.021968 285.101928 271.061968 285.229378 271.131968 285.362947 271.121968 285.490398 270.911968 289.233372 273.011968 292.132214 274.581968 295.209284 275.311968 296.638772 276.261968 297.954064 276.981968 299.385693 278.101968 301.59416 279.531968 303.450761 281.811968 304.51421 282.581968 304.872092 283.171968 305.433997 282.751968 306.400583 282.391968 307.247774 281.621968 307.447617 280.781968 307.453794 280.651968 307.454754 280.521968 307.442519 280.171968 307.426307zM270.901968 248.25438C269.881968 248.218795 269.341968 247.875086 268.821968 247.42442 267.211968 246.02185 265.581968 244.647421 263.961968 243.244443 260.211968 239.971507 256.091968 237.341943 251.321968 235.867592 251.071968 235.790102 250.811968 235.733004 250.571968 235.631043 249.141968 235.028456 248.531968 233.924223 249.001968 232.824068 249.771968 231.014267 251.401968 230.214895 252.811968 231.103992 254.151968 231.946187 255.281968 233.177871 256.671968 233.897713 260.471968 235.863514 263.881968 238.422725 267.291968 240.964603 269.001968 242.236052 270.611968 243.651266 272.211968 245.060361 272.771968 245.55589 272.671968 246.285928 272.371968 246.924202 272.011968 247.671165 271.571968 248.360419 270.901968 248.25438zM214.791968 297.486064C214.231968 299.838296 213.241968 302.15892 211.631968 304.156328 210.131968 306.023329 208.641968 307.892267 207.311968 309.899872 206.061968 311.787061 204.701968 313.588705 203.891968 315.75129 203.571968 316.618057 203.051968 317.411209 202.221968 317.936306 201.401968 318.453246 200.421968 318.428877 199.671968 317.814973 198.881968 317.164566 198.441968 316.355916 198.861968 315.347526 200.151968 312.235688 202.081968 309.538931 204.201968 306.966363 205.981968 304.805817 207.731968 302.62284 209.511968 300.459236 210.111968 299.727159 210.591968 298.952258 210.801968 298.001985 210.921968 297.484127 211.121968 296.975344 211.351968 296.493988 211.811968 295.532499 212.761968 295.090092 213.621968 295.381699 214.541968 295.693597 214.651968 296.504184 214.791968 297.486064zM133.861968 255.211153C133.461968 254.997035 132.981968 255.058212 132.591968 255.542627 131.831968 256.476586 130.931968 257.330914 130.331968 258.358677 128.271968 261.818201 125.901968 265.080941 124.281968 268.808723 123.321968 271.025245 122.211968 273.174575 121.191968 275.36683 120.751968 276.308844 120.121968 276.879925 119.051968 276.840059 117.251968 276.773886 116.431968 275.374885 117.271968 273.804793 117.401968 273.568143 117.501968 273.305084 117.671968 273.107281 121.841968 268.335626 124.591968 262.59616 128.021968 257.327855 129.631968 254.863467 131.521968 252.588726 133.311968 250.249749 133.711968 249.721695 134.211968 249.258692 134.701968 248.809147 135.241968 248.311478 135.861968 248.218795 136.511968 248.629595 137.001968 248.937516 137.271968 249.388284 137.251968 249.96324 137.221968 250.494455 137.181968 251.045144 137.021968 251.545669 136.731968 252.439863 136.291968 253.285219 136.021968 254.184409 135.691968 255.300878 135.131968 255.791411 133.861968 255.211153zM237.561968 156.835877C237.461968 158.261287 235.891968 159.939559 234.731968 159.44403 231.711968 158.153209 228.971968 159.401207 226.301968 160.329048 221.191968 162.105202 216.081968 163.959866 211.521968 167.047233 210.431968 167.787467 209.611968 167.604958 208.731968 166.677116 208.031968 165.932804 208.111968 164.80206 208.931968 164.214767 209.251968 163.985356 209.601968 163.779395 209.961968 163.632572 216.201968 161.095792 222.281968 158.119562 228.801968 156.307721 230.581968 155.813212 232.371968 155.362546 234.171968 154.956743 235.081968 154.751802 236.011968 154.773214 236.811968 155.414546 237.251968 155.758154 237.581968 156.143565 237.561968 156.835877zM337.681968 230.244464C336.071968 230.090503 334.411968 229.339054 333.011968 228.02784 332.341968 227.393645 331.731968 226.674823 331.151968 225.937647 328.271968 222.217104 325.001968 218.943149 320.901968 216.60927 320.671968 216.478761 320.461968 216.314604 320.261968 216.14331 319.481968 215.478527 319.061968 214.328411 319.351968 213.678922 319.791968 212.677669 321.301968 211.922141 322.351968 212.365669 323.311968 212.771473 324.261968 213.305746 325.051968 213.987863 327.351968 215.98833 329.591968 218.052013 331.491968 220.502127 333.591968 223.225495 335.681968 226.074275 339.171968 227.213175 339.521968 227.326351 339.801968 227.680154 340.081968 227.962585 340.611968 228.498898 340.261968 229.721406 339.531968 229.958974 339.281968 230.040543 339.031968 230.119052 338.771968 230.162895 338.511968 230.206738 338.251968 230.204699 337.681968 230.244464zM328.991968 156.680897C332.571968 157.055093 335.871968 155.937604 339.191968 155.090312 342.271968 154.306234 345.321968 153.403883 348.391968 152.580041 348.891968 152.444434 349.431968 152.412826 349.961968 152.392434 350.991968 152.354708 351.671968 153.184668 351.521968 154.23894 351.221968 156.269996 350.251968 157.125446 348.311968 156.735956 347.091968 156.489211 345.961968 156.558544 344.791968 156.874622 342.621968 157.462935 340.391968 157.89117 338.261968 158.605914 334.221968 159.958931 329.921968 159.948735 325.851968 161.189596 324.901968 161.479164 323.921968 160.858224 323.581968 160.008892 323.171968 158.944423 323.541968 157.743327 324.431968 157.178465 325.121968 156.734936 325.861968 156.49329 326.681968 156.562623 327.081968 156.59525 327.471968 156.656427 327.871968 156.676819 328.271968 156.696191 328.661968 156.680897 328.991968 156.680897zM230.411968 243.51158C229.451968 243.453462 228.571968 243.19958 228.021968 242.324758 227.521968 241.532524 227.001968 240.738251 226.621968 239.882801 224.321968 234.674653 220.971968 230.156778 217.681968 225.604236 217.211968 224.955767 216.661968 224.350121 216.271968 223.65271 215.741968 222.700398 216.111968 221.381027 216.961968 220.769264 217.831968 220.151382 219.071968 220.256402 219.851968 221.104714 220.301968 221.586988 220.661968 222.160006 220.991968 222.736084 223.451968 227.041881 225.911968 231.349717 228.341968 235.676926 229.321968 237.427589 230.071968 239.325077 231.601968 240.707663 231.691968 240.796368 231.801968 240.894251 231.861968 241.010486 232.171968 241.652838 232.211968 242.325778 231.811968 242.917149 231.501968 243.38005 230.981968 243.549305 230.411968 243.51158zM201.451968 234.717476C200.831968 234.60532 200.241968 234.369791 199.751968 233.869164 197.251968 231.303835 194.691968 228.800702 192.261968 226.167059 190.101968 223.824004 188.111968 221.32291 186.011968 218.924796 185.321968 218.13664 185.051968 217.293426 185.491968 216.35029 186.031968 215.196096 187.691968 214.445666 188.831968 214.748489 189.361968 214.890214 189.761968 215.204253 190.001968 215.727311 192.541968 221.337184 196.771968 225.560393 201.101968 229.691837 201.771968 230.33113 202.431968 230.998972 203.011968 231.717795 203.481968 232.295912 203.351968 232.97191 203.021968 233.601007 202.701968 234.230104 202.211968 234.638967 201.451968 234.717476zM148.031968 196.145774C146.751968 196.297696 146.361968 196.36397 145.971968 196.387421 144.201968 196.489382 143.351968 195.749147 143.451968 194.218719 143.571968 192.510878 144.811968 191.172135 146.231968 191.541233 147.921968 191.976605 149.551968 192.083663 151.291968 192.044918 155.521968 191.951114 159.631968 190.996763 163.801968 190.507352 164.421968 190.43496 164.971968 189.929235 165.581968 189.689628 166.781968 189.211433 167.811968 189.830334 168.231968 191.246567 168.611968 192.528211 168.221968 193.502955 167.111968 193.845543 166.361968 194.078013 165.581968 194.305385 164.801968 194.343111 158.881968 194.632679 153.091968 196.166166 148.031968 196.145774zM52.4617679 246.960907C52.2518679 246.72028 51.8918679 246.468438 51.7618679 246.12483 51.3317679 245.031812 51.6218679 244.042794 52.2518679 243.080286 55.8018679 237.713079 59.2318679 232.259206 63.1917679 227.181567 64.5118679 225.492079 65.8118679 223.794435 67.1118679 222.091693 67.5418679 221.532949 68.0717679 221.203616 68.7518679 221.069028 69.7117679 220.879381 70.7518679 221.717497 70.5318679 222.658594 70.0318679 224.798747 69.2218679 226.839999 67.0817679 227.765801 65.9018679 228.277644 65.1218679 229.059682 64.4318679 230.070111 62.5418679 232.833244 60.5918679 235.558651 58.7418679 238.351353 57.5618679 240.133624 56.4118679 241.923033 55.9818679 244.128441 55.6818679 245.729223 54.2618679 246.387889 52.9218679 247.001692 52.8317679 247.046248 52.6818679 246.983339 52.4617679 246.960907zM129.591968 222.818672C129.471968 221.600243 130.741968 220.430754 131.911968 220.757028 132.671968 220.968087 133.381968 221.341263 134.121968 221.612478 136.241968 222.3833 138.311968 223.348867 140.481968 223.846435 143.371968 224.50714 145.981968 225.74902 148.551968 227.130587 149.721968 227.759684 150.831968 228.453016 152.151968 228.773172 153.661968 229.14125 154.101968 230.103758 153.451968 231.480227 153.281968 231.837089 153.271968 232.266343 153.131968 232.642578 152.881968 233.337949 152.131968 233.636694 151.531968 233.259439 150.521968 232.620146 149.551968 231.923755 148.541968 231.282423 143.521968 228.08086 137.841968 226.792077 132.181968 225.433962 130.711968 225.081178 129.721968 224.058513 129.591968 222.818672zM290.601968 247.736522C290.521968 248.540889 290.381968 249.275006 289.721968 249.88575 285.151968 254.096723 282.181968 259.506754 279.001968 264.765882 278.241968 266.026116 277.541968 267.310921 277.431968 268.846346 277.401968 269.233797 277.231968 269.626447 277.061968 269.983207 276.671968 270.81021 275.571968 271.19766 274.691968 270.859049 273.731968 270.495049 273.241968 269.612071 273.511968 268.609798 273.861968 267.305823 274.501968 266.146429 275.211968 264.999372 278.871968 259.10197 282.511968 253.190395 286.091968 247.237832 286.621968 246.344046 287.221968 245.786321 288.201968 245.654792 289.451968 245.484518 290.541968 246.454163 290.601968 247.736522zM182.211968 206.09917C181.041968 206.162385 180.111968 204.83078 180.491968 203.800977 180.711968 203.188194 181.071968 202.598862 181.481968 202.092118 182.241968 201.162237 183.031968 200.256826 183.881968 199.41871 187.231968 196.125382 189.851968 192.270251 192.351968 188.309081 193.281968 186.845946 194.291968 185.43685 195.311968 184.042029 195.981968 183.13356 196.921968 182.680855 198.051968 182.64109 198.971968 182.608463 199.511968 183.144776 199.911968 183.88399 200.291968 184.578342 200.061968 185.160537 199.501968 185.655046 196.611968 188.242807 194.291968 191.330174 192.081968 194.52562 189.581968 198.153379 186.301968 201.158158 183.991968 204.952113 183.561968 205.673994 182.891968 206.094072 182.211968 206.09917zM203.221968 207.168737C203.271968 205.642386 203.731968 204.986779 205.231968 204.639094 208.701968 203.834624 212.181968 203.04341 215.411968 201.454864 217.541968 200.407728 219.661968 199.317769 221.761968 198.208438 224.111968 196.968596 226.521968 195.901069 229.081968 195.201619 229.691968 195.034403 230.381968 195.01809 231.001968 195.118011 231.301968 195.164913 231.601968 195.614559 231.761968 195.95001 231.841968 196.111108 231.681968 196.536283 231.511968 196.657617 230.751968 197.183733 229.991968 197.71087 229.171968 198.113614 224.901968 200.202787 220.541968 202.070706 216.371968 204.406624 212.931968 206.329601 209.061968 207.44607 205.381968 208.900028 203.981968 209.451635 203.171968 208.780734 203.221968 207.168737zM314.831968 319.773636C315.071968 318.865167 315.641968 318.179074 316.611968 317.870031 317.561968 317.567208 318.471968 317.645718 319.201968 318.375858 319.561968 318.742814 319.821968 319.246602 320.021968 319.733871 321.481968 323.202674 322.981968 326.655978 324.331968 330.170662 325.281968 332.659419 325.751968 335.354238 328.481968 336.725608 329.341968 337.16302 329.011968 338.929997 328.111968 339.509133 326.801968 340.34725 325.091968 340.106725 324.181968 338.868923 323.791968 338.343724 323.571968 337.689238 323.301968 337.080431 322.111968 334.372357 320.901968 331.671421 319.751968 328.946013 318.651968 326.329704 317.371968 323.826571 315.571968 321.63146 315.131968 321.103203 314.731968 320.590443 314.831968 319.773636zM298.451968 99.3484948C296.331968 99.359657 295.211968 97.601856 296.341968 95.8246824 297.481968 94.0148814 298.761968 92.2723744 300.121968 90.6328477 303.641968 86.4208545 307.151968 82.209881 310.301968 77.7052609 311.201968 76.4185179 312.251968 75.9790676 313.681968 76.2594593 314.741968 76.467459 315.311968 77.917339 314.711968 78.8329453 314.571968 79.0552195 314.421968 79.2958465 314.221968 79.4538855 310.711968 82.1935673 308.151968 85.8223457 305.411968 89.2818695 304.251968 90.7480632 303.181968 92.2876685 301.961968 93.6998231 300.821968 95.0191935 299.581968 96.1784857 299.871968 98.2299334 299.971968 98.9008343 299.161968 99.2689121 298.451968 99.3484948zM19.4218679 259.07648C19.1718679 257.167879 20.8018679 256.480562 22.2117679 256.556115 22.8317679 256.588743 23.4718679 256.92715 24.0418679 257.244247 27.5018679 259.175484 30.9118679 261.195221 34.4018679 263.070277 36.0218679 263.942041 37.7818679 264.535451 39.4617679 265.292101 40.6718679 265.834532 41.3317679 266.908075 41.0518679 267.741195 40.7218679 268.740307 39.4417679 269.216565 38.0817679 268.820856 37.0717679 268.526292 36.1318679 268.109171 35.1818679 267.612725 31.9118679 265.896626 28.5618679 264.313177 25.2418679 262.705258 23.9318679 262.075142 22.6418679 261.461339 21.1718679 261.228868 19.7117679 260.999457 19.4517679 260.533599 19.4218679 259.07648zM210.101968 128.404159C210.261968 127.246906 210.911968 126.645338 211.781968 126.195692 212.481968 125.831692 213.091968 126.0713 213.591968 126.520946 215.671968 128.399061 218.051968 129.841804 220.371968 131.373252 224.131968 133.859052 227.981968 136.154185 232.401968 137.22885 233.241968 137.431752 233.351968 138.156692 232.751968 138.96524 232.671968 139.071279 232.571968 139.164063 232.471968 139.242573 231.851968 139.702415 232.061968 140.848452 231.021968 140.977942 230.061968 141.099275 229.171968 140.936138 228.381968 140.403904 223.101968 136.864851 217.551968 133.810111 212.101968 130.571842 211.541968 130.23843 210.991968 129.837725 210.531968 129.375844 210.281968 129.121962 210.211968 128.675374 210.101968 128.404159zM162.531968 276.518985C159.801968 276.389393 157.221968 276.871667 154.671968 277.545626 153.651968 277.813885 152.591968 277.946331 151.541968 278.00241 148.391968 278.170747 145.231968 278.295037 142.081968 278.386801 140.871968 278.422488 140.041968 277.647587 139.881968 276.515824 139.701968 275.209708 140.421968 274.061632 141.651968 273.776142 142.691968 273.533578 143.731968 273.618103 144.791968 273.803672 148.861968 274.522596 152.901968 274.334886 156.931968 273.435594 158.231968 273.146128 159.441968 272.679148 160.681968 272.207988 162.271968 271.600303 163.531968 272.818732 163.201968 274.574596 163.091968 275.21185 162.781968 275.813315 162.531968 276.518985zM335.551968 5.55180952C335.611968 6.42867084 335.271968 7.16992454 334.591968 7.64710023 332.531968 9.08780377 331.121968 11.3013688 328.801968 12.4667787 327.641968 13.051013 326.651968 14.0135213 325.661968 14.9056767 323.291968 17.0478693 320.981968 19.2522578 318.641968 21.4260582 317.881968 22.1377433 317.501968 22.8575853 318.301968 23.8313092 318.571968 24.160642 318.401968 24.6429157 318.041968 24.8651899 317.261968 25.3474636 316.531968 25.9500509 315.521968 25.8827569 314.701968 25.8287177 313.941968 25.6716984 313.471968 24.9069937 312.981968 24.1066029 313.291968 23.3622904 313.701968 22.6455072 314.101968 21.9450378 314.641968 21.39547 315.241968 20.8499807 319.591968 16.9336734 323.901968 12.9765818 328.191968 8.9929804 329.451968 7.81941368 330.591968 6.51431776 331.791968 5.26937861 332.591968 4.4434976 333.521968 4.05706685 334.661968 4.38538004 335.241968 4.55157585 335.521968 4.95330069 335.551968 5.55180952zM203.421968 274.989575C204.681968 275.001709 205.471968 275.405473 205.921968 276.351667 206.561968 277.701626 205.831968 279.001624 204.291968 279.264784 200.531968 279.910093 196.751968 280.515739 192.991968 281.209071 190.921968 281.590506 188.861968 281.947266 186.931968 282.985225 185.431968 283.790714 184.141968 282.982268 183.581968 281.262091 183.171968 280.007058 183.761968 278.696762 185.001968 278.382825 186.531968 277.997312 188.081968 277.616999 189.651968 277.488528 193.751968 277.153078 197.761968 276.380318 201.731968 275.351434 202.371968 275.186359 203.021968 275.074203 203.421968 274.989575zM331.051968 117.540255C332.431968 117.574922 332.951968 117.972568 333.231968 119.349036 334.421968 125.387144 336.131968 131.313095 337.031968 137.413399 337.191968 138.464613 337.301968 139.536219 337.291968 140.59559 337.281968 141.104374 336.921968 141.592765 336.321968 141.722255 335.641968 141.869078 334.971968 141.834412 334.531968 141.237942 334.221968 140.823982 333.961968 140.316218 333.861968 139.812532 333.521968 138.10979 333.281968 136.384616 332.971968 134.675757 332.191968 130.448469 331.031968 126.337417 329.271968 122.413973 329.051968 121.926601 328.811968 121.448405 328.641968 120.942681 327.941968 118.841272 328.911968 117.484177 331.051968 117.540255zM94.2017679 224.028945C94.3418679 219.447854 94.3217679 214.876959 92.9118679 210.446771 92.7518679 209.942066 92.6917679 209.392498 92.6618679 208.858224 92.5717679 207.34105 94.0918679 206.051248 95.5618679 206.453993 96.4018679 206.683404 96.8418679 207.380815 96.9118679 208.260735 97.0817679 210.665986 97.2918679 213.072257 97.3618679 215.480566 97.4417679 217.903151 97.3618679 220.329813 97.3918679 222.754437 97.4218679 225.43804 97.2218679 228.127761 97.9918679 230.777718 98.3818679 232.123598 97.4617679 233.174812 96.1418679 233.250263 95.1418679 233.307361 94.2318679 232.660931 94.2117679 231.698422 94.1618679 229.14227 94.2017679 226.585097 94.2017679 224.028945zM214.931968 325.777077C214.901968 324.37624 216.571968 323.236219 217.831968 323.722673 218.891968 324.134492 219.591968 324.897259 219.751968 326.08194 220.501968 331.882479 223.481968 336.676667 226.481968 341.445366 227.181968 342.562854 228.211968 343.464186 229.081968 344.473596 229.531968 344.993595 229.961968 345.58099 229.451968 346.256887 228.921968 346.960415 228.131968 347.15618 227.321968 346.892204 226.281968 346.554612 225.481968 345.866378 224.891968 344.914066 224.191968 343.774146 223.471968 342.643403 222.731968 341.522856 219.711968 336.908118 217.201968 332.019106 215.251968 326.83553 215.111968 326.461233 215.011968 326.068685 214.931968 325.777077zM292.191968 65.6453589C292.011968 67.5081794 290.111968 68.6430011 288.751968 67.6886497 284.081968 64.4218315 278.871968 62.0033256 274.561968 58.1920377 273.781968 57.5027839 272.761968 57.0990199 271.871968 56.5198835 270.631968 55.7052182 270.661968 54.0646718 271.901968 53.1816929 272.951968 52.4312627 274.171968 52.4363608 275.181968 53.2234967 275.501968 53.4651434 275.791968 53.7475743 276.051968 54.0473385 279.721968 58.2440376 284.431968 60.9266215 289.251968 63.4593232 290.061968 63.8885774 290.901968 64.2923415 291.671968 64.8001054 291.951968 64.9846541 292.061968 65.4332808 292.191968 65.6453589zM244.731968 220.168716C242.951968 220.126912 242.011968 218.789188 242.621968 217.169034 242.761968 216.796878 242.931968 216.400251 243.181968 216.111703 247.451968 211.333828 251.461968 206.292895 256.961968 202.83643 257.921968 202.232823 258.841968 201.916745 259.951968 202.287882 261.391968 202.771175 261.851968 204.292428 260.921968 205.52819 260.501968 206.081837 259.981968 206.43564 259.331968 206.66811 254.261968 208.481989 250.831968 212.417669 247.351968 216.294212 246.651968 217.070132 246.611968 217.940876 246.471968 218.871777 246.331968 219.818991 245.551968 220.094284 244.731968 220.168716zM281.271968 141.888451C286.131968 142.400293 290.741968 142.843822 295.371968 142.856057 297.491968 142.861155 299.601968 142.852998 301.711968 142.863194 302.591968 142.867273 303.241968 143.295507 303.591968 144.092839 303.911968 144.822877 303.421968 146.012758 302.571968 146.513384 301.531968 147.129226 300.381968 147.675735 299.201968 147.002795 297.861968 146.236051 296.431968 146.202404 294.981968 146.178953 290.361968 146.103503 285.731968 146.046405 281.101968 145.982169 280.841968 145.978091 280.571968 145.986248 280.311968 145.956679 279.341968 145.85064 278.631968 145.136916 278.471968 144.148918 278.331968 143.275115 279.011968 142.292215 279.961968 142.069941 280.471968 141.950647 281.001968 141.923117 281.271968 141.888451zM341.251968 96.5659361C342.531968 96.5720537 343.221968 96.9554257 343.481968 97.8210713 343.711968 98.5949524 343.881968 99.5248332 343.191968 100.10397 341.791968 101.263262 340.451968 102.901769 338.371968 101.24185 337.781968 100.77589 337.091968 101.143968 336.451968 101.253066 332.011968 102.008594 327.581968 102.790632 323.381968 104.585139 321.751968 105.283569 320.891968 104.903256 319.961968 103.586944 319.371968 102.752906 319.591968 101.753692 320.381968 101.099105 321.271968 100.358871 322.361968 100.28342 323.381968 100.194715 328.941968 99.7104016 334.321968 98.2890705 339.701968 96.8748768 340.331968 96.7076614 340.981968 96.6169164 341.251968 96.5659361zM182.611968 322.478651C182.681968 321.330575 182.651968 320.653658 182.761968 320.000091 182.891968 319.253637 183.481968 318.912171 184.151968 318.752093 184.851968 318.585795 185.481968 318.798893 185.921968 319.368954 186.411968 320.016404 186.701968 320.77285 186.721968 321.607908 186.751968 322.8192 186.831968 324.03559 186.771968 325.242804 186.581968 328.830798 187.701968 332.148596 188.811968 335.45314 189.311968 336.95502 189.871968 338.437527 191.481968 339.303173 192.391968 339.796662 192.151968 340.955037 191.731968 341.857286 191.301968 342.796344 190.531968 343.288814 189.521968 343.254147 188.991968 343.235794 188.521968 342.96152 188.241968 342.439482 187.791968 341.617679 187.231968 340.844919 186.861968 339.98947 184.371968 334.26122 183.511968 328.132368 182.611968 322.478651zM319.941968 37.2014051C319.991968 36.0247796 321.441968 34.6850171 322.641968 34.7339582 323.041968 34.7492523 323.451968 34.7808601 323.811968 34.9276833 328.361968 36.8037587 333.241968 37.4481498 337.881968 38.9510494 339.271968 39.3986565 340.671968 39.8146558 342.011968 40.3815568 343.811968 41.1411634 344.131968 42.716455 342.901968 44.2458643 341.841968 45.5642151 341.151968 45.6753521 340.201968 44.3182563 339.431968 43.2211601 338.381968 42.7072785 337.271968 42.3861026 333.221968 41.2125359 329.271968 39.5760679 324.951968 39.5668915 323.501968 39.5638327 322.041968 39.3211664 320.781968 38.4850893 320.361968 38.2077564 319.921968 37.8284629 319.941968 37.2014051zM316.921968 115.600964C317.441968 115.701905 317.831968 115.764101 318.211968 115.852807 319.501968 116.148493 320.051968 117.530059 319.341968 118.685273 318.761968 119.630448 317.961968 120.328878 316.931968 120.695936 315.991968 121.031387 315.151968 120.935544 314.431968 120.079074 314.071968 119.648801 313.491968 119.733428 312.951968 119.774212 308.841968 120.076016 304.811968 120.717348 300.931968 122.171306 299.941968 122.542443 298.941968 122.905423 297.911968 123.155226 296.681968 123.453971 295.551968 122.906442 295.231968 121.986758 294.881968 120.980406 295.621968 119.480566 296.761968 119.058449 297.371968 118.833116 298.051968 118.658763 298.681968 118.687312 301.111968 118.794371 303.391968 118.114293 305.721968 117.622843 309.471968 116.832648 313.261968 116.250453 316.921968 115.600964zM83.0018679 284.054894C83.7718679 284.103733 84.1718679 284.120047 84.5618679 284.154816 86.8618679 284.358635 87.5418679 285.189614 87.3618679 287.554183 87.2418679 289.125396 86.7318679 289.543332 85.4318679 288.781686 84.0717679 287.990472 82.6718679 287.952849 81.2218679 287.992511 77.7618679 288.087335 74.4617679 288.965216 71.2518679 290.257159 70.0218679 290.749526 68.8317679 291.328663 67.4718679 291.394019 66.4018679 291.447039 65.7218679 290.934075 65.5118679 289.869708 65.2518679 288.545138 65.6318679 287.575594 66.7117679 287.257375 68.9918679 286.589533 71.2718679 285.874789 73.5918679 285.440539 76.8317679 284.83581 80.1118679 284.469772 83.0018679 284.054894zM113.761968 192.036761C113.701968 190.867273 115.061968 189.403119 116.271968 189.340923 118.001968 189.251197 119.041968 190.20249 119.071968 191.897075 119.161968 196.200833 118.881968 200.517846 119.811968 204.783878 120.131968 206.243954 120.381968 207.631638 121.301968 208.885754 122.081968 209.960418 121.791968 211.104417 120.881968 211.641749 119.921968 212.211709 118.621968 212.045513 118.041968 211.124809 117.551968 210.34481 117.071968 209.466929 116.921968 208.572734 116.561968 206.457052 116.051968 204.372977 115.911968 202.198157 115.711968 198.996593 115.721968 195.700206 114.001968 192.799427 113.861968 192.578172 113.841968 192.292682 113.761968 192.036761zM111.731968 265.21145C109.541968 265.21145 107.941968 265.041176 106.391968 265.245199 102.621968 265.742665 98.7618679 265.736547 95.1118679 266.97129 93.6418679 267.470898 92.5518679 267.071314 91.6218679 265.934453 91.1018679 265.304234 91.2418679 264.275452 91.8618679 263.777884 92.6118679 263.182434 93.4318679 262.844027 94.3818679 262.746042 96.7418679 262.504498 99.0918679 262.177102 101.451968 261.969103 103.941968 261.748868 106.431968 261.576554 108.931968 261.48275 110.231968 261.433809 111.551968 261.530672 112.851968 261.692789 113.461968 261.76926 114.171968 262.007848 114.291968 262.82965 114.421968 263.655531 114.281968 264.456942 113.671968 265.045254 113.421968 265.28894 112.971968 265.457277 112.631968 265.436783 112.121968 265.406195 111.621968 265.177803 111.731968 265.21145zM245.211968 318.876383C244.691968 318.922367 243.831968 318.112698 243.221968 317.016723 242.121968 315.02951 241.081968 313.009569 240.061968 310.975454 238.451968 307.748401 236.881968 304.502994 235.311968 301.257588 235.021968 300.663157 234.721968 300.049456 234.581968 299.410061 234.381968 298.549514 234.771968 297.83375 235.431968 297.301516 236.041968 296.814144 236.691968 297.021124 237.281968 297.341382 238.221968 297.862299 238.911968 298.543396 239.181968 299.735418 239.941968 303.155075 241.641968 306.212874 243.001968 309.399143 243.991968 311.725884 245.091968 314.035292 247.151968 315.672882 247.811968 316.192881 248.091968 316.975837 247.691968 317.817012 247.371968 318.472619 246.771968 318.736799 245.211968 318.876383zM252.541968 21.9970377C252.411968 22.5241741 252.261968 23.0584477 251.721968 23.2939768 251.141968 23.5397019 250.741968 23.2022122 250.341968 22.8280167 248.751968 21.3465289 248.521968 19.2838656 248.161968 17.3272414 247.691968 14.8210494 247.421968 12.2761123 247.021968 9.75666543 246.681968 7.6246689 246.131968 5.60890747 244.901968 3.74200854 243.871968 2.18099147 244.801968.513935356 246.621968.0755046958 247.891968-.227318341 249.051968.394641432 249.411968 1.6915805 249.761968 2.98648036 250.121968 4.30687037 250.221968 5.63745644 250.631968 10.8751734 251.351968 16.0619101 252.441968 21.1966468 252.501968 21.4586856 252.511968 21.7299009 252.541968 21.9970377zM194.591968 243.914324C194.731968 243.021149 195.261968 242.433856 196.011968 242.084131 196.651968 241.789465 197.301968 241.882249 197.881968 242.298248 198.561968 242.777463 198.921968 243.474874 199.271968 244.214088 201.201968 248.213697 203.661968 251.871942 206.191968 255.495623 207.261968 257.038287 208.361968 258.53823 209.801968 259.750439 210.191968 260.075694 210.511968 260.531458 210.751968 260.989261 211.091968 261.655166 210.501968 262.729729 209.771968 262.890827 208.671968 263.133493 207.651968 262.989728 206.881968 262.076161 205.941968 260.950516 204.961968 259.840165 204.171968 258.603383 201.381968 254.190527 198.511968 249.835789 195.321968 245.712909 194.901968 245.177616 194.531968 244.628048 194.591968 243.914324zM34.4018679 228.583525C30.4118679 228.90878 26.7618679 228.446898 23.1718679 227.352861 22.4218679 227.125489 21.6118679 227.085724 20.8217679 227.053097 19.7718679 227.011293 19.0118679 226.650352 18.8018679 225.521648 18.6118679 224.438826 18.5218679 223.352946 19.4818679 222.547457 20.3018679 221.855144 21.6218679 221.653262 22.4218679 222.318045 25.2918679 224.727375 28.7017679 224.985335 32.1618679 224.943531 34.2918679 224.918041 36.3918679 225.054668 38.4818679 225.373805 39.1318679 225.472707 39.8518679 225.511452 40.2418679 226.13749 40.5218679 226.572862 40.8418679 227.111214 40.8118679 227.580233 40.7718679 228.086977 40.2718679 228.553957 39.7117679 228.567212 37.8618679 228.611055 36.0018679 228.583525 34.4018679 228.583525zM311.711968 300.403158C311.781968 301.377901 311.091968 302.047782 310.541968 302.803311 308.301968 305.819306 306.071968 308.838462 303.891968 311.8931 302.421968 313.948626 300.751968 315.908309 300.751968 318.708148 300.751968 319.471833 299.511968 319.842052 298.841968 319.385268 297.801968 318.672563 297.231968 317.46015 297.601968 316.229587 297.901968 315.212938 298.371968 314.214743 298.941968 313.32065 300.231968 311.282356 301.631968 309.317575 302.971968 307.315068 304.541968 304.982311 306.241968 302.75335 307.171968 300.007551 307.681968 298.486298 308.941968 298.060103 310.401968 298.521984 311.261968 298.7932 311.711968 299.397826 311.711968 300.403158zM322.801968 193.941386C322.101968 194.023974 321.281968 194.009699 320.531968 194.228915 317.611968 195.083345 314.711968 196.010167 311.801968 196.915577 310.021968 197.470243 308.231968 197.955575 306.361968 198.017771 305.431968 198.049379 304.751968 197.463105 304.691968 196.664754 304.631968 195.775657 304.931968 195.050717 305.751968 194.686718 306.231968 194.47464 306.771968 194.408365 307.281968 194.295189 311.031968 193.479504 314.801968 192.737231 318.531968 191.83284 321.101968 191.206802 323.611968 190.299352 325.881968 188.842335 326.451968 188.477316 326.991968 188.140846 327.701968 188.149003 328.581968 188.160219 329.251968 188.551747 329.591968 189.365393 329.891968 190.088294 329.531968 190.704136 328.971968 191.118096 327.911968 191.912369 326.721968 192.554721 325.721968 193.416288 324.831968 194.177934 324.021968 194.696914 322.801968 193.941386zM306.971968 215.685507C307.101968 216.741819 306.501968 217.521818 305.891968 218.196797 302.911968 221.47789 301.011968 225.51655 298.461968 229.092309 297.681968 230.17819 297.111968 231.304854 297.271968 232.81897 297.411968 234.084301 296.141968 235.126338 295.041968 235.032535 293.731968 234.919358 292.821968 233.452145 293.221968 232.051206 293.371968 231.541403 293.541968 231.015286 293.811968 230.568699 295.631968 227.609802 297.481968 224.667218 299.331968 221.724635 300.681968 219.577344 302.171968 217.524877 302.761968 214.957508 303.051968 213.71155 303.591968 213.50355 304.831968 213.73704 306.251968 214.005196 306.951968 214.648568 306.971968 215.685507zM281.511968 187.449553C281.731968 186.760299 281.851968 186.078183 282.161968 185.494968 282.561968 184.720067 283.231968 184.374421 284.141968 184.641558 285.071968 184.913792 285.821968 185.329792 286.211968 186.322888 288.421968 192.074487 290.671968 197.815889 292.881968 203.567488 293.121968 204.190467 293.281968 204.851172 293.411968 205.506779 293.551968 206.168503 293.661968 207.048423 293.071968 207.359403 292.101968 207.868187 291.761968 206.863874 291.311968 206.224581 289.771968 204.016114 288.951968 201.423256 287.681968 199.076122 285.771968 195.558481 284.541968 191.663585 282.021968 188.485473 281.791968 188.193866 281.681968 187.801317 281.511968 187.449553zM237.621968 71.1685656C237.571968 69.5647251 239.221968 68.4227662 240.601968 69.1120199 240.841968 69.2292746 241.081968 69.3485686 241.281968 69.5198624 245.531968 73.2240917 250.931968 74.2916194 255.961968 76.1993025 257.071968 76.6193803 258.221968 76.9293406 259.321968 77.3698104 260.031968 77.6563198 260.251968 78.8329453 259.721968 79.4426698 259.291968 79.9422768 258.801968 80.4041584 258.281968 80.8038441 257.561968 81.3523922 256.691968 81.4013333 256.131968 80.7049423 255.061968 79.3600817 253.671968 78.7564748 252.101968 78.3843186 247.441968 77.2872223 243.341968 74.7218932 238.911968 73.0476998 238.071968 72.7336611 237.741968 72.0138191 237.621968 71.1685656zM105.861968 326.756001C104.941968 326.741625 104.541968 326.354174 104.291968 325.89943 103.651968 324.753495 103.811968 323.43912 104.701968 322.583671 109.191968 318.250344 113.151968 313.417411 117.141968 308.622203 117.741968 307.903483 118.261968 307.144794 119.121968 306.710442 119.851968 306.342466 120.871968 306.77172 121.001968 307.575068 121.211968 308.949599 121.131968 310.394381 119.971968 311.226277 115.131968 314.698036 111.801968 319.513636 108.461968 324.34555 108.011968 325.000137 107.541968 325.660944 106.971968 326.203375 106.621968 326.540762 106.061968 326.661076 105.861968 326.756001zM150.031968 311.741179C149.971968 311.917672 149.881968 312.46102 149.651968 312.92902 149.321968 313.584626 148.771968 313.966979 148.041968 313.592783 147.451968 313.296078 146.861968 312.95869 146.371968 312.525256 145.571968 311.820708 144.791968 311.078536 144.111968 310.257652 140.781968 306.234285 137.211968 302.453586 133.451968 298.850297 132.371968 297.811319 132.241968 296.628576 133.001968 295.661989 133.581968 294.930014 134.811968 294.732108 135.491968 295.308186 135.901968 295.648734 136.291968 296.029149 136.591968 296.46238 139.351968 300.45006 142.951968 303.675074 146.051968 307.36095 146.911968 308.391874 147.821968 309.312477 149.141968 309.801888 149.961968 310.109809 150.081968 310.562514 150.031968 311.741179zM102.461968 249.243398C101.461968 249.098614 100.911968 248.781618 100.771968 248.015792 100.491968 246.450085 100.981968 245.488596 102.421968 244.80546 104.811968 243.670638 107.231968 242.611267 109.591968 241.415269 112.421968 239.979664 115.271968 238.556294 117.691968 236.418179 118.391968 235.79622 119.141968 235.267044 120.091968 235.103907 120.911968 234.963201 121.721968 234.955044 122.181968 235.774808 122.531968 236.41716 122.241968 237.068688 121.871968 237.654962 121.191968 238.723509 120.121968 239.277155 119.081968 239.852213 116.301968 241.38774 113.531968 242.935502 110.711968 244.394559 108.481968 245.550792 106.151968 246.515339 104.321968 248.351242 103.751968 248.92732 103.001968 249.202613 102.461968 249.243398zM328.951968 72.1239366C328.691968 72.0015839 328.291968 71.897584 328.001968 71.6528786 324.091968 68.3452761 319.401968 66.4885732 314.861968 64.3769688 314.141968 64.0435576 313.361968 63.8600285 312.641968 63.5429309 311.971968 63.2533628 311.621968 62.6823833 311.681968 61.9411296 311.751968 61.2314837 312.141968 60.6798768 312.761968 60.3566616 313.771968 59.8387017 314.821968 59.8488977 315.831968 60.3067009 317.041968 60.8542294 318.221968 61.4506991 319.391968 62.0757176 322.791968 63.8865382 326.171968 65.7167313 329.551968 67.5510029 330.011968 67.8028456 330.471968 68.0873157 330.891968 68.4054328 331.561968 68.9060595 331.711968 69.8165678 331.201968 70.5547627 330.681968 71.3194673 330.181968 72.1637012 328.951968 72.1239366zM222.501968 26.4863637C225.841968 26.5648734 229.061968 25.7869139 232.251968 24.9120918 234.201968 24.3767985 236.151968 24.2258968 238.141968 24.2819752 238.961968 24.3054261 239.721968 24.5684845 240.301968 25.1690325 240.881968 25.7848747 241.081968 26.5638538 240.771968 27.3989113 240.491968 28.1320081 239.821968 28.471537 239.171968 28.2778118 235.681968 27.2347547 232.401968 28.3654979 229.041968 29.0537321 227.221968 29.4258884 225.421968 29.8265936 223.631968 30.3047889 222.491968 30.6086315 221.291968 30.7554548 220.111968 30.8237684 218.771968 30.9012585 217.851968 30.1691813 217.771968 29.1669084 217.691968 27.943381 218.551968 26.6709124 219.731968 26.5108343 220.641968 26.3895011 221.581968 26.4863637 222.501968 26.4863637zM30.7117679 175.497729C30.8118679 175.102122 30.9018679 174.568868 31.0717679 174.061104 32.9818679 168.320721 34.9018679 162.586456 36.8118679 156.848113 37.1218679 155.912114 37.5918679 155.140272 38.6018679 154.856822 39.2618679 154.670234 39.9118679 154.62741 40.4617679 155.121919 41.0418679 155.628664 41.1218679 156.319957 40.8518679 156.962309 40.0118679 158.933207 39.2218679 160.937753 38.2017679 162.811789 36.5118679 165.921588 36.0817679 169.46268 34.7718679 172.694832 34.5318679 173.283145 34.4118679 174.109026 34.6318679 174.664711 35.2318679 176.189022 34.4018679 176.952707 33.3618679 177.639922 32.8118679 178.004941 32.1818679 178.242509 31.5218679 177.786745 30.9018679 177.361569 30.7718679 176.722276 30.7117679 176.038121 30.7017679 175.903533 30.7117679 175.768945 30.7117679 175.497729zM251.301968 60.4056027C250.631968 60.3913282 250.121968 60.0334465 249.841968 59.3605064 249.461968 58.4122726 249.691968 57.5996465 250.251968 56.7319616 252.131968 53.8199664 253.921968 50.8508731 255.741968 47.9011525 257.631968 44.8351966 259.571968 41.7886134 260.371968 38.1822663 260.571968 37.3013265 261.121968 36.8119156 262.021968 36.7323863 263.501968 36.6008571 264.381968 37.5470516 263.941968 38.9092455 263.691968 39.6637541 263.341968 40.3999097 262.931968 41.0799871 260.951968 44.4028836 258.931968 47.7023292 256.931968 51.0160493 256.031968 52.5026352 255.161968 54.0055347 254.291968 55.5023166 253.951968 56.0794137 253.591968 56.6544716 253.841968 57.3783919 254.061968 57.9983125 254.401968 58.6223115 253.831968 59.2299968 253.151968 59.9396427 252.301968 60.2506226 251.301968 60.4056027zM311.251968 279.759191C311.181968 279.982485 311.181968 280.351582 311.021968 280.448547 309.771968 281.194797 308.531968 281.986011 307.211968 282.580442 303.461968 284.263811 299.691968 285.882946 295.911968 287.473634 294.661968 287.998629 293.621968 288.798 292.571968 289.618783 291.821968 290.208115 291.041968 290.650625 290.041968 290.603723 289.081968 290.559982 288.221968 289.957292 287.931968 289.054941 287.651968 288.182158 288.051968 287.08914 288.881968 286.615023 289.341968 286.356043 289.831968 286.142946 290.341968 285.997244 295.311968 284.553482 299.971968 282.276599 304.711968 280.225253 306.431968 279.476862 308.191968 278.956863 310.041968 278.863977 310.551968 278.839608 311.051968 279.160682 311.251968 279.759191zM293.421968 176.010591C291.041968 174.945103 288.531968 175.680239 286.131968 176.206356 282.591968 176.983296 279.051968 176.632551 275.511968 176.730433 275.141968 176.741649 274.711968 176.630512 274.391968 176.437806 274.081968 176.24816 273.721968 175.919846 273.631968 175.584396 273.281968 174.237496 274.901968 172.142205 276.251968 172.13099 276.511968 172.128951 276.781968 172.168715 277.021968 172.263539 281.161968 173.898987 285.331968 173.096557 289.481968 172.424636 291.051968 172.169735 292.601968 171.863853 294.181968 172.160558 295.171968 172.345107 295.771968 173.228086 295.641968 174.20079 295.471968 175.500788 294.711968 176.161493 293.421968 176.010591zM164.981968 341.334228C164.831968 341.27815 164.341968 341.112974 163.861968 340.919249 161.361968 339.907799 159.351968 338.064351 157.281968 336.444197 154.861968 334.552828 152.341968 332.854164 149.771968 331.201382 149.091968 330.763971 148.421968 330.376623 148.011968 329.637306 147.301968 328.381253 147.961968 326.579507 149.331968 326.464292 150.761968 326.342959 152.261968 326.454096 153.091968 327.97647 154.101968 329.795345 155.591968 331.107578 157.281968 332.186322 159.851968 333.835127 161.921968 336.221923 164.791968 337.415882 165.711968 337.797215 166.211968 338.600664 166.511968 339.532686 166.741968 340.257524 166.051968 341.33015 164.981968 341.334228zM263.751968 101.600751C268.701968 101.605849 273.431968 100.443498 278.101968 98.9283636 279.021968 98.629619 279.831968 98.355345 280.761968 98.8009129 281.341968 99.0813046 281.551968 99.5074999 281.341968 100.074401 280.551968 102.212515 280.091968 102.476593 277.921968 102.594867 276.611968 102.66726 275.241968 102.725377 274.011968 103.134239 271.841968 103.852042 269.591968 104.103885 267.381968 104.379178 264.881968 104.691178 262.371968 104.902236 259.911968 105.433451 259.521968 105.516039 259.121968 105.581294 258.721968 105.575176 257.951968 105.562941 257.071968 105.687333 256.731968 104.705452 256.371968 103.678709 256.901968 102.53573 257.891968 101.989221 258.611968 101.589536 259.361968 101.419262 260.181968 101.491654 260.841968 101.550791 261.501968 101.5773 262.161968 101.597693 262.691968 101.615026 263.221968 101.600751 263.751968 101.600751zM168.021968 110.483561C168.261968 108.625838 168.431968 106.750782 168.781968 104.913452 169.331968 102.008594 170.141968 99.1496182 170.071968 96.151976 170.041968 94.9620956 170.561968 94.0913519 171.531968 93.477549 172.271968 93.0136281 173.051968 92.9412361 173.761968 93.4510392 174.451968 93.943509 174.771968 94.7092332 174.651968 95.5544868 174.581968 96.0724467 174.291968 96.55574 174.131968 97.0635039 172.981968 100.644361 172.251968 104.327178 171.681968 108.041604 171.451968 109.509837 171.331968 110.927089 172.071968 112.365754 172.601968 113.40983 172.041968 114.404966 170.971968 114.931083 170.061968 115.373592 168.951968 114.788338 168.411968 113.671869 167.911968 112.63289 168.081968 111.5725 168.021968 110.483561zM28.4018679 14.063482C28.4818679 12.8562682 28.4818679 11.63478 28.6718679 10.4448996 28.8518679 9.34168571 28.7718679 8.36082456 28.3418679 7.3126694 27.7017679 5.73635824 27.9218679 5.11032004 29.1218679 4.32012525 29.4517679 4.10294913 29.8217679 3.94796899 30.1818679 3.79808688 31.2718679 3.34946016 32.2818679 3.90310632 32.6318679 5.07259461 32.8317679 5.74961312 32.6818679 6.38278856 32.6318679 7.05063061 32.4218679 9.86372408 32.2418679 12.680896 32.1418679 15.5001071 32.0817679 17.5056724 31.9918679 19.5142966 33.3418679 21.2853526 33.9218679 22.0459788 33.2017679 23.1848789 32.2218679 23.3714668 30.9417679 23.6151527 29.8818679 23.127781 29.1818679 22.0041749 28.6718679 21.1793135 28.4918679 20.2749228 28.4918679 19.3154734 28.5018679 17.5658292 28.4918679 15.816185 28.4918679 14.0665408 28.4617679 14.0655212 28.4318679 14.0645016 28.4018679 14.063482zM15.7718679 317.026919C15.5918679 316.00925 17.3818679 314.53286 18.2418679 314.989644 19.7818679 315.814505 21.4918679 316.128544 23.0717679 316.793429 26.1718679 318.098423 29.3718679 318.684697 32.6917679 318.881481 33.6118679 318.936539 34.5318679 319.093559 35.4617679 319.167072 37.6718679 319.340303 37.7218679 320.382443 37.1718679 322.231907 36.9718679 322.913003 36.3317679 323.302493 35.6018679 323.163827 31.9617679 322.463357 28.3217679 321.781241 24.7117679 320.971673 22.6418679 320.508772 20.6518679 319.716538 18.5218679 319.526891 16.9417679 319.386186 16.4617679 318.026031 15.7718679 317.026919zM134.871968 321.853735C134.841968 322.770259 134.431968 323.529865 133.871968 324.043747 130.821968 326.836448 129.481968 330.68852 127.671968 334.239809 126.341968 336.853059 125.221968 339.578467 124.001968 342.251976 123.701968 342.917677 123.211968 343.308288 122.461968 343.240892 121.721968 343.172578 121.321968 342.659818 121.031968 342.023584 120.721968 341.353703 120.721968 340.637837 121.211968 340.137313 122.821968 338.463017 123.531968 336.259648 124.691968 334.324436 125.731968 332.587129 126.491968 330.76601 127.241968 328.90217 128.291968 326.29412 129.431968 323.714414 131.071968 321.41928 131.831968 320.360929 132.741968 320.048012 133.791968 320.388561 134.421968 320.59238 134.931968 321.309163 134.871968 321.853735zM85.0118679 346.903419C84.7518679 346.791263 84.3317679 346.71673 84.0418679 346.476102 82.8918679 345.505437 82.2418679 344.213596 81.8118679 342.758618 80.8518679 339.549 79.9918679 336.314809 79.5418679 332.991811 79.2618679 330.955759 78.7718679 329.093856 77.5018679 327.406408 76.6018679 326.208473 77.1818679 324.716789 78.5118679 324.063221 79.3718679 323.642022 80.5817679 324.031613 80.8217679 324.929785 81.5618679 327.783662 82.7117679 330.527422 83.0318679 333.495496 83.4417679 337.253866 84.0418679 340.951876 86.0918679 344.240106 86.6318679 345.107893 85.9417679 346.788102 85.0118679 346.903419zM234.531968 265.273646C234.541968 265.407215 234.201968 266.108704 233.401968 266.482899 229.581968 268.265171 227.271968 271.421871 225.721968 275.252532 225.301968 276.273158 224.601968 276.633079 223.561968 276.620843 222.401968 276.606569 221.501968 276.210044 220.981968 275.117944 220.591968 274.292063 220.861968 273.496872 221.311968 272.839226 222.291968 271.411675 223.271968 269.95476 224.431968 268.684229 226.311968 266.627683 228.381968 264.751608 230.281968 262.717595 231.041968 261.907926 231.811968 261.734695 232.751968 262.080342 233.831968 262.475847 234.431968 263.34761 234.531968 265.273646zM351.531968 324.273646C351.541968 324.407215 351.201968 325.108704 350.401968 325.482899 346.581968 327.265171 344.271968 330.421871 342.721968 334.252532 342.301968 335.273158 341.601968 335.633079 340.561968 335.620843 339.401968 335.606569 338.501968 335.210044 337.981968 334.117944 337.591968 333.292063 337.861968 332.496872 338.311968 331.839226 339.291968 330.411675 340.271968 328.95476 341.431968 327.684229 343.311968 325.627683 345.381968 323.751608 347.281968 321.717595 348.041968 320.907926 348.811968 320.734695 349.751968 321.080342 350.831968 321.475847 351.431968 322.34761 351.531968 324.273646zM87.0817679 40.3876745C85.9118679 40.3468902 85.2918679 39.7371657 85.3718679 38.6767753 85.4818679 37.3247775 85.7318679 36.0033679 86.4218679 34.8145071 88.5817679 31.1102778 90.6418679 27.3520094 92.2218679 23.3357806 92.5518679 22.4772722 93.2017679 21.7411165 93.7218679 20.9621374 94.3818679 19.9761782 95.4318679 19.7702178 96.4818679 19.60912 97.0817679 19.5173554 97.4617679 19.8762568 97.7218679 20.3880991 97.9617679 20.8724121 98.2418679 21.4699013 97.8018679 21.8787634 94.1818679 25.2669147 93.0817679 30.2374949 90.3618679 34.1925473 89.3718679 35.6322312 88.8018679 37.2890913 88.7518679 39.1121471 88.7318679 40.1286945 87.9617679 40.4029686 87.0817679 40.3876745zM226.301968 115.913983C226.851968 113.867633 227.331968 111.6245 228.061968 109.472111 228.981968 106.78239 229.671968 104.078394 229.951968 101.234713 230.091968 99.8796562 230.331968 98.6948738 229.591968 97.3571505 228.931968 96.1529956 229.901968 94.6939391 231.271968 94.3156652 232.521968 93.9669599 233.801968 94.8825663 233.661968 96.1897014 233.401968 98.5969916 233.131968 101.019576 232.621968 103.378945 231.931968 106.531567 231.041968 109.639327 230.171968 112.744027 229.911968 113.671869 229.821968 114.581358 229.801968 115.528572 229.791968 116.186218 229.741968 116.877511 229.521968 117.486216 229.291968 118.140803 228.731968 118.590449 227.991968 118.517038 227.271968 118.444646 226.811968 117.96645 226.581968 117.283314 226.461968 116.90606 226.421968 116.502296 226.301968 115.913983zM290.921968 43.35065C290.981968 42.9784938 291.041968 42.1556716 291.281968 41.3879081 292.691968 36.7527784 294.161968 32.1329428 295.181968 27.3836172 295.331968 26.6984418 295.751968 26.1906779 296.341968 25.807306 297.201968 25.2424442 298.311968 25.245503 298.881968 25.9174235 299.431968 26.5516185 299.731968 27.2694213 299.291968 28.1309885 298.861968 28.9691048 298.481968 29.8286328 298.061968 30.6738863 296.401968 34.0783514 295.581968 37.7530121 294.741968 41.4225747 294.481968 42.5319063 294.431968 43.5392772 295.211968 44.469158 295.781968 45.1400589 295.491968 45.6977835 294.861968 46.1249985 293.971968 46.7316642 293.071968 47.3281338 291.951968 46.6144094 290.891968 45.9384105 290.751968 44.9137063 290.921968 43.35065zM175.291968 261.899769C174.271968 261.624476 173.531968 260.792477 173.161968 259.537342 172.411968 256.967934 171.601968 254.41484 170.871968 251.838295 170.131968 249.232182 169.031968 246.808986 167.601968 244.530166 167.321968 244.081539 167.091968 243.578874 166.931968 243.074169 166.661968 242.279895 167.211968 241.327583 168.171968 240.807584 168.831968 240.453781 169.791968 240.690329 170.221968 241.442799 170.751968 242.368601 171.251968 243.332129 171.611968 244.336441 172.881968 247.874169 174.101968 251.434531 175.331968 254.988879 175.901968 256.636664 176.511968 258.270991 177.001968 259.943145 177.271968 260.866908 176.331968 262.034357 175.291968 261.899769zM168.941968 174.626986C167.541968 174.548476 166.571968 173.68487 166.261968 172.094284 165.911968 170.243699 165.501968 168.383937 165.391968 166.509901 165.211968 163.640729 164.681968 160.907165 163.341968 158.353051 163.101968 157.89015 163.001968 157.336504 162.911968 156.811407 162.681968 155.420664 163.371968 154.400038 164.681968 154.112509 165.641968 153.905529 166.821968 154.590705 167.201968 155.647017 167.371968 156.142545 167.341968 156.708427 167.491968 157.221288 168.561968 161.145753 168.581968 165.232334 169.271968 169.214916 169.531968 170.668874 169.781968 172.124872 169.951968 173.590046 170.021968 174.246673 169.441968 174.447535 168.941968 174.626986zM166.381968 318.134109C164.931968 318.200486 163.061968 316.058191 163.861968 314.916232 166.791968 310.718615 167.541968 305.432875 170.601968 301.329062 170.841968 301.009925 171.061968 300.672334 171.321968 300.378789 171.931968 299.702688 172.821968 299.545669 173.451968 299.973904 174.291968 300.536726 174.681968 301.622607 174.321968 302.39037 174.271968 302.511703 174.211968 302.639154 174.131968 302.742236 170.941968 306.823618 169.641968 311.763712 168.081968 316.588386 167.821968 317.410189 167.381968 318.023992 166.381968 318.134109zM116.761968 155.390076C117.031968 151.335102 117.851968 147.517696 118.601968 143.694173 118.921968 142.07198 120.001968 141.342961 121.411968 141.328575 122.771968 141.314412 123.791968 142.66641 123.051968 143.768604 121.491968 146.072914 121.091968 148.707577 120.471968 151.31471 119.791968 154.180823 119.881968 156.876662 121.321968 159.506226 121.991968 160.721597 121.751968 161.380262 120.821968 161.815634 119.711968 162.332574 118.661968 162.090928 118.061968 161.073361 117.001968 159.284971 116.771968 157.282465 116.761968 155.390076zM32.1118679 70.1071556C32.0618679 68.3503741 32.4417679 66.0919464 31.6818679 63.8212834 31.1718679 62.294933 32.1218679 61.248817 33.7017679 61.0510134 35.3217679 60.8491314 36.2618679 61.6362674 36.2618679 63.2788529 36.2518679 64.215871 36.2318679 65.1814381 36.0118679 66.0848092 35.5418679 68.0730412 35.5618679 70.0816654 35.5418679 72.0974268 35.5418679 72.9018961 35.6118679 73.7583653 35.3818679 74.4975798 34.8217679 76.2329495 34.8618679 77.8643194 35.3718679 79.6231401 35.8018679 81.1025887 34.5717679 82.1996849 33.0418679 81.940705 32.3418679 81.8203914 31.7818679 81.4523136 31.7418679 80.6702757 31.6917679 79.7352968 31.6318679 78.7778866 31.7718679 77.8592214 32.1218679 75.4529508 32.1518679 73.0385234 32.1118679 70.1071556zM127.171968 110.363247C131.201968 111.36552 134.541968 109.951326 137.911968 108.814465 139.551968 108.261839 141.151968 107.627644 142.901968 107.600114 143.411968 107.591957 143.971968 107.671487 144.441968 107.871329 144.761968 108.006937 145.111968 108.38725 145.191968 108.719642 145.471968 110.024738 144.091968 112.564577 142.891968 113.103948 142.351968 113.345595 142.211968 112.900027 142.011968 112.589047 141.731968 112.153675 141.581968 111.530696 141.201968 111.28701 140.621968 110.92403 139.921968 111.193206 139.281968 111.397128 136.631968 112.242381 133.971968 113.043792 131.331968 113.925751 129.401968 114.572181 127.411968 114.407005 125.441968 114.459005 124.741968 114.476338 124.191968 113.947163 124.021968 113.247713 123.841968 112.55744 124.081968 111.892656 124.601968 111.414461 125.421968 110.659952 126.391968 110.294933 127.171968 110.363247zM76.3718679 211.103423C76.1418679 211.04426 75.6218679 210.96575 75.1418679 210.772025 74.0817679 210.347869 73.6518679 209.125361 74.1718679 208.088421 74.3518679 207.732579 74.5218679 207.326776 74.8018679 207.073913 77.9118679 204.276114 80.0618679 200.728904 82.2318679 197.205145 82.8518679 196.205931 83.6917679 196.213068 84.6318679 196.410872 85.3718679 196.563813 85.9118679 197.061381 85.7918679 197.794477 85.4218679 200.145689 85.3418679 202.717136 82.6318679 203.787723 81.3818679 204.280192 80.7918679 205.230465 80.5918679 206.522306 80.4918679 207.18505 80.3317679 207.843716 80.1418679 208.486068 79.5918679 210.351947 78.5618679 211.108495 76.3718679 211.103423zM343.831968 298.527082C344.311968 298.5852 344.441968 298.595396 344.571968 298.616808 345.161968 298.71367 345.541968 299.137826 345.681968 299.641512 345.841968 300.182923 345.571968 300.765118 345.041968 300.948647 343.301968 301.552356 341.541968 302.113037 339.771968 302.620801 336.101968 303.673035 332.361968 304.481582 328.881968 306.180246 327.241968 306.978598 325.371968 306.554544 324.561968 305.453267 324.221968 304.995464 324.191968 304.387881 324.441968 303.924877 325.201968 302.543311 326.341968 301.783704 327.951968 301.74812 332.201968 301.654215 336.221968 300.274687 340.331968 299.374477 341.611968 299.093066 342.881968 298.758635 343.831968 298.527082zM28.0218679 103.122004C24.7818679 102.974161 22.2117679 103.643023 19.6418679 104.295571 17.5918679 104.816589 15.5418679 105.389608 13.4918679 105.899411 12.4517679 106.156352 11.4818679 105.689372 11.1718679 104.873687 10.8317679 103.984591 11.2418679 103.264749 11.7818679 102.668279 12.4218679 101.972908 13.1718679 101.310164 14.2017679 101.540595 16.3818679 102.028986 18.3818679 101.243889 20.4417679 100.785066 23.5518679 100.095813 26.6718679 99.421853 29.8918679 99.7685191 31.1818679 99.9092248 31.5817679 100.329303 31.5018679 101.514085 31.4218679 102.842632 30.7818679 103.420748 29.4318679 103.327964 28.7718679 103.283102 28.1218679 103.138318 28.0218679 103.122004zM62.7117679 17.5423783C61.8418679 17.2517905 61.3018679 16.8826931 61.0618679 16.209753 60.8518679 15.6499892 61.0518679 15.153441 61.4517679 14.7629318 62.2218679 14.0196389 63.0218679 13.3232479 64.1218679 13.1580717 69.3418679 12.3750141 74.2218679 10.2685077 79.3518679 9.13266644 79.8618679 9.02152937 80.3818679 8.94098048 80.9018679 8.91956875 81.5118679 8.89305899 82.0418679 9.71078315 81.8818679 10.353135 81.5418679 11.7143093 80.7618679 12.7614449 79.6618679 13.5587769 79.2117679 13.8850509 78.5717679 14.0104624 78.1818679 13.669914 77.2017679 12.8256801 76.2318679 13.0999541 75.2117679 13.4231693 71.4617679 14.6191673 67.7017679 15.8100674 63.9517679 17.0183007 63.4718679 17.1732808 63.0118679 17.4118687 62.7117679 17.5423783zM100.811968 120.092329C100.851968 119.004409 100.931968 116.996805 101.271968 114.988181 101.501968 113.575006 101.841968 112.100656 101.121968 110.626305 100.691968 109.738228 101.071968 108.765524 101.631968 107.963094 102.221968 107.128037 104.031968 106.512194 104.801968 106.944507 105.821968 107.517526 105.621968 108.514701 105.481968 109.457837 104.671968 114.91273 103.651968 120.345192 103.841968 125.907143 103.871968 126.884946 103.301968 127.528317 102.521968 127.610905 101.741968 127.693493 100.881968 127.121494 100.831968 126.266045 100.751968 124.522518 100.811968 122.771854 100.811968 120.092329zM128.531968 180.409172C128.451968 179.389566 128.791968 178.529019 129.601968 177.933569 133.701968 174.910436 136.951968 170.959462 140.581968 167.423468 141.381968 166.637352 142.541968 166.626136 143.351968 167.410213 143.991968 168.032173 144.061968 169.163936 143.371968 169.98064 142.601968 170.893188 141.811968 171.863853 140.831968 172.511303 137.801968 174.526045 135.221968 176.97208 133.381968 180.161408 132.611968 181.501171 131.411968 181.862111 130.041968 181.958974 129.251968 182.016072 128.561968 181.274818 128.531968 180.409172zM338.301968 246.794712C338.951968 246.92828 339.601968 247.014946 340.231968 247.206225 340.891968 247.411165 341.471968 247.883243 341.501968 248.603085 341.541968 249.49728 340.751968 249.507476 340.111968 249.632887 335.031968 250.622925 330.141968 252.230844 325.471968 254.508644 324.641968 254.913428 323.801968 255.342682 322.921968 255.604721 322.111968 255.848407 321.351968 255.55578 320.841968 254.806369 320.351968 254.075311 320.541968 252.915 321.361968 252.277746 321.871968 251.87908 322.461968 251.530374 323.081968 251.349904 326.891968 250.2264 330.691968 249.105853 334.391968 247.596734 335.591968 247.104366 336.971968 247.053284 338.301968 246.794712zM197.491968 127.825023C197.321968 128.138042 197.231968 128.613178 196.951968 128.794668 195.961968 129.445177 194.951968 130.100784 193.861968 130.568783 189.501968 132.451995 184.881968 133.620464 180.601968 135.737167 179.601968 136.230656 178.321968 135.570971 178.011968 134.617639 177.611968 133.414504 178.121968 131.884075 179.071968 131.461958 179.301968 131.355919 179.561968 131.266193 179.821968 131.228468 184.801968 130.491293 189.451968 128.589727 194.151968 126.856397 194.921968 126.572946 195.651968 126.391456 196.441968 126.61475 197.021968 126.776867 197.211968 127.280553 197.491968 127.825023zM287.021968 216.806054C286.911968 217.90417 286.231968 218.495542 285.251968 218.679071 283.831968 218.944169 282.431968 219.280639 281.031968 219.657893 277.571968 220.591852 274.271968 221.841889 271.291968 223.897415 271.181968 223.971847 271.071968 224.051376 270.951968 224.114592 269.751968 224.775296 268.641968 224.638669 268.151968 223.773023 267.561968 222.724868 268.131968 220.832479 269.281968 220.319617 270.361968 219.840402 271.511968 219.526364 272.621968 219.129737 276.221968 217.849112 279.821968 216.571545 283.421968 215.276645 284.171968 215.003391 284.921968 214.821901 285.731968 215.014606 286.461968 215.187939 287.081968 216.024016 287.021968 216.806054zM116.181968 86.0099533C116.091968 86.8072853 115.641968 87.2263434 114.931968 87.3905 114.081968 87.5862644 113.291968 87.3823432 112.791968 86.6808541 112.091968 85.7061106 111.431968 84.6834456 110.921968 83.5985846 109.541968 80.6733345 108.181968 77.7725549 105.961968 75.3611862 105.011968 74.3273056 105.251968 73.1333467 106.321968 72.1647209 107.231968 71.3317026 108.691968 71.3786045 109.521968 72.3696617 109.931968 72.8662099 110.171968 73.5167187 110.471968 74.1101295 112.031968 77.231144 113.301968 80.5193739 115.371968 83.3630556 115.951968 84.159368 116.071968 85.0933273 116.181968 86.0099533zM10.0018679 131.380389C10.0518679 130.604469 10.3818679 130.18643 10.8518679 129.915215 12.1218679 129.17906 13.6718679 129.56651 14.1718679 130.904233 16.0018679 135.798343 18.2918679 140.536453 19.1118679 145.784366 19.2017679 146.3166 19.4018679 146.822325 19.1418679 147.346403 18.8918679 147.848049 18.5318679 148.193695 17.9617679 148.306872 17.4918679 148.398636 17.1718679 148.158009 16.9617679 147.829696 16.6118679 147.268913 16.2418679 146.687737 16.0318679 146.061699 14.4218679 141.354177 12.5918679 136.748616 10.2618679 132.359211 10.0817679 132.020702 10.0618679 131.593487 10.0018679 131.380389zM123.881968 2.28193248C125.171968 2.16059935 125.941968 2.62452016 126.431968 3.50851872 128.251968 6.78859182 130.541968 9.72811646 132.751968 12.7339155 133.061968 13.1560325 133.341968 13.646463 133.471968 14.1501485 133.671968 14.9556374 133.591968 15.7611263 132.841968 16.305596 132.081968 16.8561833 131.311968 16.6930463 130.661968 16.1577531 130.051968 15.6550872 129.491968 15.0647352 129.001968 14.4376774 126.701968 11.4961136 124.441968 8.5321184 122.171968 5.56914283 122.011968 5.36012356 121.911968 5.1031828 121.791968 4.86255574 121.261968 3.74608696 121.741968 2.7295396 122.961968 2.42569695 123.351968 2.33087358 123.741968 2.30232461 123.881968 2.28193248zM292.651968 10.966938C292.631968 11.6490545 292.151968 12.2914064 291.351968 12.5748569 286.531968 14.2888149 283.501968 18.2530438 280.121968 21.7910772 279.491968 22.4558605 279.141968 23.3724864 278.261968 23.8333484 277.551968 24.2065243 276.591968 23.7415839 276.461968 22.9085656 276.341968 22.0735082 276.381968 21.2017449 276.971968 20.636883 280.521968 17.2487317 283.381968 13.1499148 287.391968 10.2368999 288.471968 9.44772476 289.591968 8.76458861 291.001968 8.86247081 291.961968 8.92874521 292.711968 9.75054779 292.651968 10.966938zM47.9318679 118.479312C47.8618679 116.860178 48.5817679 115.696807 49.8718679 115.330768 51.0018679 115.008573 52.0918679 115.644807 52.2518679 116.791864 52.4617679 118.258058 52.6418679 119.730369 52.7718679 121.20472 53.0618679 124.436871 53.5118679 127.633337 54.4318679 130.753332 54.7818679 131.933016 54.3718679 132.615132 53.3418679 132.968936 52.1218679 133.389013 51.1518679 133.005642 50.7918679 131.859604 50.4617679 130.837959 50.1718679 129.793882 50.0018679 128.73757 49.4918679 125.547222 49.3518679 122.283463 48.0418679 119.263389 47.9417679 119.0299 47.9617679 118.741351 47.9318679 118.479312zM8.11186794 303.272431C7.33176794 303.053114 6.90186794 302.571962 6.57176794 301.960096 6.23186794 301.320803 6.18186794 300.671416 6.60186794 300.067707 6.82176794 299.747551 7.13186794 299.469198 7.44176794 299.23683 11.1718679 296.471556 14.9018679 293.709443 18.6618679 290.974859 19.1818679 290.590468 19.7918679 290.268272 20.4118679 290.068429 22.2017679 289.487356 23.7618679 290.555801 24.1518679 292.555249 24.3118679 293.369914 23.4818679 294.298877 22.7718679 293.922541 21.6818679 293.347585 20.8718679 293.551404 19.8418679 294.087717 17.5918679 295.262303 15.5418679 296.600027 13.8217679 298.575004 12.4417679 300.172727 10.6917679 301.450293 9.08176794 302.835938 8.80186794 303.075647 8.39186794 303.152016 8.11186794 303.272431zM180.321968 6.52247461C180.381968 7.57674741 179.771968 8.17219742 179.341968 8.82678459 176.841968 12.6431705 174.401968 16.4901447 172.871968 20.8469219 172.691968 21.3536662 172.491968 21.8573516 172.251968 22.3355469 171.961968 22.9146833 170.961968 22.9391538 170.551968 22.402841 169.771968 21.3913916 169.371968 20.3167267 169.921968 19.0371209 170.661968 17.3119473 171.301968 15.5388521 172.121968 13.8514039 173.231968 11.5603488 174.671968 9.45690121 175.461968 6.97823857 175.941968 5.43047638 177.911968 4.80137937 179.421968 5.46820181 179.921968 5.68741714 180.301968 6.06263222 180.321968 6.52247461zM62.7518679 35.668937C62.6917679 35.8616426 62.6318679 36.4214064 62.3718679 36.8567782 59.8918679 41.0453205 58.5918679 45.7344893 56.9617679 50.2778545 56.5218679 51.5024015 55.9918679 52.4455372 54.8818679 53.0705558 54.2518679 53.4284376 53.6118679 53.5528295 53.0418679 53.0685166 52.3618679 52.4934587 52.0918679 51.622715 52.5618679 50.8865594 54.7618679 47.4535453 55.6917679 43.4607675 57.3818679 39.8064989 57.8317679 38.8388927 58.1518679 37.8019532 58.4417679 36.7690921 58.9018679 35.0847027 59.6418679 34.371998 61.3317679 34.1548219 61.9018679 34.0814102 62.6917679 34.7441542 62.7518679 35.668937zM228.521968 50.0453843C228.691968 50.9997356 228.271968 51.7104012 227.851968 52.3833412 226.151968 55.1362779 224.991968 58.136979 223.921968 61.1784642 223.341968 62.8149321 222.661968 64.3983805 222.971968 66.2499854 223.131968 67.1931211 222.281968 67.9537473 221.301968 68.0954726 220.331968 68.2371978 219.871968 67.5734342 219.491968 66.846455 219.001968 65.9390055 219.201968 65.0437913 219.531968 64.1230869 221.081968 59.8407409 222.581968 55.5420812 224.131968 51.2638137 224.571968 50.0606784 225.441968 49.269464 226.701968 48.9727586 227.421968 48.8035039 228.461968 49.4580911 228.521968 50.0453843zM145.371968 24.4002495C145.511968 23.565192 146.041968 22.9677028 146.811968 22.6832327 147.851968 22.3018999 148.981968 22.3600175 149.851968 23.0135851 153.651968 25.8837765 157.311968 28.9303598 160.541968 32.4704324 161.111968 33.0923922 161.531968 33.8418028 160.871968 34.5932525 160.331968 35.2060358 159.561968 35.5190549 158.741968 35.0898007 158.041968 34.7258013 157.331968 34.3567039 156.721968 33.8703517 155.781968 33.1311372 154.901968 32.3236091 154.051968 31.4844733 151.881968 29.3392218 149.701968 27.2418919 146.751968 26.205972 146.021968 25.9480117 145.381968 25.3913067 145.371968 24.4002495zM309.011968 267.754348C308.411968 267.537172 307.961968 267.501588 307.701968 267.258819 307.021968 266.629722 306.431968 265.942508 306.161968 264.964706 305.661968 263.157046 305.091968 261.359378 304.421968 259.609836 303.611968 257.477737 302.771968 255.349819 300.881968 253.855077 300.291968 253.382999 299.891968 252.581588 300.221968 251.681378 300.691968 250.447553 301.821968 250.322243 302.841968 250.188573 303.811968 250.061122 304.711968 250.475082 305.131968 251.447888 307.081968 256.026838 308.751968 260.70785 309.661968 265.633567 309.741968 266.017959 309.741968 266.458429 309.621968 266.82253 309.511968 267.181329 309.201968 267.475996 309.011968 267.754348zM53.8118679 328.98588C52.9617679 328.923582 52.3818679 328.404602 51.9617679 327.677623 51.5318679 326.938409 51.4018679 326.146175 51.8818679 325.391666 52.0918679 325.061416 52.4118679 324.780922 52.7418679 324.566805 55.1318679 323.012925 56.8818679 320.865736 58.5518679 318.566524 59.9617679 316.632229 61.7017679 314.944883 63.3618679 313.210431 63.8018679 312.749569 64.4718679 312.400966 65.1618679 312.772 66.0918679 313.273647 66.3317679 314.160704 66.3217679 315.169095 66.3217679 315.943078 66.0018679 316.483367 65.2718679 316.667916 62.9118679 317.273562 61.6018679 319.195519 60.2418679 320.961579 58.5218679 323.18636 57.0218679 325.578254 55.4018679 327.881646 55.0218679 328.424995 54.5817679 328.947033 53.8118679 328.98588zM230.401968 182.840933C230.301968 184.281637 230.641968 185.90383 230.091968 187.470965 229.831968 188.225473 228.761968 188.41614 228.161968 187.843121 227.531968 187.243593 227.241968 186.479908 227.291968 185.683595 227.561968 181.058662 226.611968 176.641728 225.241968 172.278833 225.091968 171.79248 225.061968 171.206207 225.171968 170.709659 225.311968 170.034679 225.821968 169.502445 226.461968 169.311779 227.411968 169.031387 228.301968 169.316877 228.921968 170.098915 229.241968 170.495541 229.571968 171.033893 229.581968 171.515148 229.671968 175.256083 230.931968 178.905253 230.401968 182.840933zM200.691968 44.9779415C199.611968 44.7597458 198.051968 44.4793541 196.501968 44.1204527 193.271968 43.3700226 190.041968 42.6369257 186.731968 42.3769261 186.471968 42.356534 186.201968 42.3188086 185.941968 42.2688479 184.381968 41.9721425 183.621968 41.1870457 183.711968 39.9492438 183.791968 38.9408533 185.071968 38.035443 186.411968 38.0823449 186.801968 38.0955998 187.241968 38.1374036 187.571968 38.3209327 190.911968 40.1674395 194.671968 40.3927725 198.281968 41.2094771 199.701968 41.5316726 201.121968 41.8406133 202.531968 42.2076715 203.181968 42.3769261 203.801968 42.6940237 203.641968 43.570885 203.511968 44.2886877 203.081968 44.80053 202.371968 44.9626474 201.991968 45.0482943 201.581968 44.9779415 200.691968 44.9779415zM89.4617679 185.667281C87.5817679 185.434811 85.4918679 185.210498 83.4018679 184.899518 82.5418679 184.772067 82.0318679 184.136853 81.8818679 183.257952 81.7117679 182.266895 82.1618679 181.229955 82.9818679 180.878191 83.7117679 180.564153 84.5518679 180.183839 85.2718679 180.62227 88.7518679 182.730816 92.4417679 181.915131 96.1018679 181.574582 96.6218679 181.526661 97.1518679 181.317641 97.6618679 181.367602 98.1718679 181.416543 98.6818679 181.646974 99.1418679 181.89066 99.6318679 182.154738 99.8718679 182.660463 99.8918679 183.223285 99.9118679 183.820775 99.5717679 184.256147 99.0817679 184.499832 98.6218679 184.732303 98.1018679 184.936224 97.5918679 184.984145 94.9617679 185.234968 92.3317679 185.432772 89.4617679 185.667281zM132.111968 63.9314009C130.471968 63.9314009 129.921968 62.79454 130.221968 62.0481883 130.601968 61.1060722 131.341968 60.5228574 132.151968 60.0762699 136.101968 57.883097 139.861968 55.3269443 143.991968 53.4702414 145.561968 52.764674 147.081968 51.9306361 148.651968 51.2260882 149.271968 50.9436573 149.961968 51.0089121 150.421968 51.6482052 150.791968 52.1559691 150.551968 53.4406729 150.001968 53.8638094 149.701968 54.1054561 149.351968 54.3409851 148.981968 54.4521222 146.801968 55.1118074 144.891968 56.3343152 142.861968 57.2958038 139.591968 58.8405072 136.501968 60.6288965 133.711968 62.9444221 132.961968 63.558225 132.141968 63.9303813 132.111968 63.9314009zM87.0118679 76.5500471C86.1118679 76.3899689 85.4218679 76.0351459 85.1618679 75.1531866 84.3118679 72.2707599 82.7318679 69.7788424 81.2117679 67.2410426 80.5218679 66.0766523 79.7518679 65.0132031 78.8518679 64.0058322 77.9118679 62.9383045 78.0118679 61.7912475 79.0218679 60.9031705 79.6418679 60.3536028 80.7017679 60.3576812 81.1418679 60.9949351 82.8217679 63.4215978 84.4718679 65.862535 86.1018679 68.3197859 87.0717679 69.7676267 87.8418679 71.3286438 89.0018679 72.6612691 90.1917679 74.0295806 89.9417679 75.0084025 88.4018679 75.8954599 87.9417679 76.1605575 87.4417679 76.3502042 87.0118679 76.5500471zM7.96176794 188.970806C7.93186794 188.293787 9.11186794 187.307828 9.87186794 187.703435 11.2818679 188.429395 12.8418679 189.057472 13.9517679 190.142333 16.7718679 192.922799 20.1917679 194.617385 23.7017679 196.170245 24.5817679 196.557695 25.4417679 196.878871 25.8018679 197.842399 25.9318679 198.187026 25.9417679 198.701927 25.7718679 198.997613 25.6018679 199.285142 25.1418679 199.544122 24.8018679 199.551259 23.4417679 199.581847 22.2117679 198.995574 21.0418679 198.418476 16.9918679 196.432284 13.1118679 194.128993 9.50186794 191.379115 8.76186794 190.810175 8.00186794 190.261627 7.96176794 188.970806zM68.1917679 263.729962C68.5018679 262.456576 68.7618679 260.712948 69.3418679 259.087695 70.1618679 256.811017 70.9018679 254.535154 71.4218679 252.16355 71.9617679 249.672652 73.9918679 249.151633 75.8418679 250.917693 76.3418679 251.400986 76.6518679 251.968907 76.2518679 252.693745 76.0018679 253.161744 75.8018679 253.678787 75.4918679 254.100802 73.2818679 257.065918 72.0618679 260.405027 71.7017679 264.09906 71.6418679 264.759765 71.4617679 265.422509 71.2518679 266.050586 70.9918679 266.778687 70.3518679 266.979447 69.6618679 266.985648 68.8818679 266.992702 68.4517679 266.538977 68.3418679 265.791708 68.2618679 265.262431 68.2618679 264.722039 68.1917679 263.729962zM196.231968 30.2425929C196.391968 29.4513785 196.471968 28.6407916 196.721968 27.8873026 197.141968 26.6148341 197.611968 25.3495028 198.161968 24.132093 199.161968 21.9491162 200.411968 19.9200999 200.941968 17.4893587 201.411968 15.3808132 203.111968 15.0106961 204.971968 16.2648117 205.811968 16.8276343 205.941968 17.3058296 205.411968 18.2877104 203.881968 21.1130391 202.241968 23.8802503 200.801968 26.7514613 199.901968 28.5367918 199.311968 30.4811808 198.521968 32.3246287 198.401968 32.6111381 197.911968 32.9170199 197.611968 32.8894906 197.311968 32.8619612 196.911968 32.5010206 196.771968 32.1859623 196.511968 31.5864339 196.411968 30.915533 196.231968 30.2425929zM3.23196794 21.2425929C3.39196794 20.4513785 3.47196794 19.6407916 3.72196794 18.8873026 4.14196794 17.6148341 4.61196794 16.3495028 5.16196794 15.132093 6.16196794 12.9491162 7.41196794 10.9200999 7.94196794 8.48935874 8.41196794 6.38081315 10.1119679 6.01069611 11.9719679 7.26481172 12.8119679 7.82763433 12.9419679 8.30582963 12.4119679 9.28771039 10.8819679 12.1130391 9.24196794 14.8802503 7.80196794 17.7514613 6.90196794 19.5367918 6.31196794 21.4811808 5.52196794 23.3246287 5.40196794 23.6111381 4.91196794 23.9170199 4.61196794 23.8894906 4.31196794 23.8619612 3.91196794 23.5010206 3.77196794 23.1859623 3.51196794 22.5864339 3.41196794 21.915533 3.23196794 21.2425929zM18.7117679 46.3329981C18.2518679 46.2422532 18.0018679 46.1943317 17.7418679 46.139273 16.5618679 45.8915087 16.0918679 44.5925304 16.8317679 43.6657084 17.3518679 43.0223369 17.9718679 42.5298671 18.7518679 42.3167694 19.5118679 42.1097893 20.2818679 41.9395151 21.0618679 41.8293976 24.9018679 41.2869671 28.3718679 39.7290089 31.7318679 37.8427374 32.1718679 37.5908947 32.6618679 37.339052 33.1518679 37.2666599 33.8018679 37.170817 34.5018679 37.2564639 34.9118679 37.8926981 35.2418679 38.4045404 35.0318679 38.9785787 34.7418679 39.4057937 33.8618679 40.7231249 33.0918679 41.9884562 31.0518679 41.7988094 29.5218679 41.6560646 28.0618679 42.6787296 26.6318679 43.369003 24.9718679 44.1704134 23.2918679 44.9361377 21.5817679 45.6019405 20.6118679 45.9791948 19.5518679 46.1260181 18.7117679 46.3329981zM95.1018679 305.774545C95.1917679 305.244248 95.2518679 304.433661 95.4818679 303.678133 96.1718679 301.375862 96.9018679 299.083787 97.6718679 296.805987 98.7017679 293.7696 99.7918679 290.756766 100.821968 287.721296 101.231968 286.501949 101.891968 285.608672 103.171968 285.253951 104.031968 285.015363 104.791968 285.535362 104.791968 286.432514 104.801968 287.677453 104.441968 288.806157 103.811968 289.86043 100.831968 294.829073 99.2017679 300.339942 97.6218679 305.869368 97.5118679 306.253658 97.5518679 306.7187 97.3618679 307.031618 97.1718679 307.328323 96.7718679 307.62095 96.4318679 307.652558 95.9118679 307.703538 95.4218679 307.434362 95.2618679 306.836873 95.1917679 306.581971 95.1818679 306.309838 95.1018679 305.774545zM75.2318679 149.469223C75.3118679 147.925539 76.8818679 146.780521 78.3217679 147.323971 79.4318679 147.739971 80.5318679 148.265068 81.5218679 148.9064 83.4218679 150.125849 85.2618679 151.442161 87.0918679 152.76459 87.6318679 153.147962 88.1018679 153.649608 88.5118679 154.167568 89.0918679 154.885371 88.9818679 156.030388 88.3518679 156.762466 87.7117679 157.504739 86.6917679 157.703562 85.8518679 157.146857 84.7418679 156.416819 83.6818679 155.61235 82.6018679 154.842547 80.7618679 153.524196 78.8018679 152.429139 76.6718679 151.65118 75.7518679 151.315729 75.1718679 150.56428 75.2318679 149.469223zM194.931968 81.4778038C197.981968 81.2626669 200.091968 81.0679221 202.211968 80.990432 202.981968 80.9629026 203.781968 81.1382749 204.521968 81.3676863 205.151968 81.5583526 205.541968 82.7818801 205.281968 83.4803103 205.001968 84.2399169 204.261968 84.5315243 203.671968 84.2786619 201.131968 83.1907421 198.691968 84.1185838 196.291968 84.6385829 193.671968 85.2044644 191.051968 85.1850918 188.431968 85.2890917 187.571968 85.3227387 186.861968 84.9740334 186.641968 84.0319173 186.401968 82.9674484 187.021968 81.6786662 188.001968 81.4288627 188.751968 81.2381963 189.571968 81.2188238 190.351968 81.2432943 192.191968 81.3003923 194.031968 81.4288627 194.931968 81.4778038zM199.601968 96.9523668C199.651968 95.6584866 200.751968 94.3941749 201.831968 94.2432732 202.381968 94.1647635 202.881968 94.3819396 203.241968 94.8091546 203.851968 95.5453103 204.171968 96.42625 204.271968 97.3785622 204.581968 100.174322 204.831968 102.979259 205.201968 105.765843 205.401968 107.217762 205.811968 108.638073 206.121968 110.073679 206.251968 110.657913 206.021968 111.197285 205.631968 111.528657 205.071968 112.002774 204.421968 111.869205 203.801968 111.489912 203.211968 111.128971 202.861968 110.630384 202.591968 109.979875 202.121968 108.846073 202.001968 107.671487 201.841968 106.468351 201.471968 103.550238 201.251968 100.579106 199.851968 97.9006006 199.671968 97.5641306 199.651968 97.1440528 199.601968 96.9523668zM115.861968 32.0095704C115.901968 31.2897285 115.811968 30.4556906 116.001968 29.6930252 116.781968 26.5771087 117.511968 23.4795451 117.401968 20.2127269 117.361968 18.8913172 119.081968 18.0450441 120.361968 18.552808 120.911968 18.7669253 121.201968 19.2318657 121.261968 19.7732766 121.391968 21.1181372 121.151968 22.4252723 120.841968 23.7385251 120.391968 25.6890317 120.081968 27.6731853 119.631968 29.6277704 119.251968 31.3519244 119.141968 33.0638432 119.531968 34.7930953 119.661968 35.3467415 119.641968 35.8687799 119.161968 36.2327793 118.581968 36.6752883 117.931968 36.6385825 117.301968 36.3510536 116.691968 36.0655638 116.171968 35.6118391 116.081968 34.8950559 115.961968 33.9682339 115.931968 33.0291766 115.861968 32.0095704zM85.0018679 124.835537C84.9018679 125.883692 83.7017679 126.87271 82.9718679 126.482201 79.3918679 124.556165 76.0717679 126.129417 72.7017679 127.149024 71.5717679 127.491611 70.4818679 127.991218 69.3518679 128.299139 68.2618679 128.593806 67.5218679 128.097257 67.2518679 127.085808 66.9318679 125.815379 67.3418679 124.764165 68.3418679 124.405263 68.7117679 124.272715 69.1018679 124.167695 69.4918679 124.132009 72.1218679 123.890362 74.6718679 123.276559 77.2318679 122.604639 78.7418679 122.208012 80.3518679 122.125424 81.9218679 122.070365 83.1818679 122.026522 84.2218679 122.614835 84.7618679 123.873029 84.9118679 124.229891 84.9517679 124.632636 85.0018679 124.835537zM1.38186794 170.70558C.461767937 170.745345-.278132063 169.621739.101867937 168.717348.411867937 167.9608.811867937 167.293978 1.71176794 167.112488 6.40186794 166.166294 10.6818679 164.153591 14.8518679 161.832967 16.1818679 161.087635 17.8818679 162.402927 17.6818679 163.991474 17.5717679 164.866296 17.0218679 165.565746 16.1218679 165.461746 14.3918679 165.264962 13.0817679 166.133666 11.7318679 166.970763 8.77186794 168.807074 5.50186794 169.785896 2.16186794 170.568953 1.90186794 170.62911 1.64186794 170.660718 1.38186794 170.70558zM40.5118679 283.344127C40.6118679 282.371524 40.9417679 281.816757 41.5918679 281.514953 42.2918679 281.186742 43.0018679 281.435526 43.3317679 282.017619 43.9718679 283.176911 44.6018679 284.398399 44.9417679 285.675966 46.5018679 291.506074 47.9517679 297.364731 49.4617679 303.212173 49.5817679 303.712901 49.3118679 303.951387 48.9617679 304.140014 48.5218679 304.369426 48.0918679 304.130838 47.9417679 303.798548 47.1917679 302.087547 46.4318679 300.373691 45.8317679 298.602533 45.2418679 296.826481 44.8418679 294.980892 44.3618679 293.164973 43.6418679 290.444664 42.9718679 287.71212 41.3618679 285.335418 40.9218679 284.693066 40.7318679 283.876361 40.5118679 283.344127zM333.691968 174.3313C334.351968 174.336398 335.041968 174.268084 335.581968 174.732005 338.871968 177.551216 342.921968 178.962351 346.621968 181.001564 346.851968 181.127995 347.121968 181.249328 347.271968 181.449171 347.501968 181.742817 347.751968 182.094581 347.791968 182.441247 347.831968 182.965325 347.341968 183.025482 346.961968 183.05709 345.891968 183.143756 344.861968 182.996933 343.851968 182.578894 341.181968 181.464465 338.261968 181.01176 335.741968 179.426272 334.881968 178.891998 333.711968 178.894038 332.701968 178.617724 331.581968 178.311842 330.931968 177.337099 331.071968 176.237963 331.201968 175.277494 331.891968 174.572947 332.901968 174.402672 333.161968 174.35781 333.431968 174.352712 333.691968 174.3313zM155.311968 221.001734C155.371968 220.613264 155.381968 220.197265 155.501968 219.814912 156.961968 215.060489 158.411968 210.301987 159.921968 205.563877 160.291968 204.381133 161.201968 203.843801 161.961968 204.103801 162.931968 204.433133 163.381968 205.537367 162.921968 206.804737 162.091968 209.081518 161.171968 211.322612 160.321968 213.590216 159.331968 216.205506 157.881968 218.743306 159.181968 221.726674 159.331968 222.081497 158.961968 222.760555 158.701968 223.202044 158.051968 224.277729 156.791968 224.254278 156.061968 223.282593 155.541968 222.593339 155.461968 221.803144 155.311968 221.001734zM21.1418679 74.4629132C20.8217679 74.3905212 20.2518679 74.4017368 19.8217679 74.1488745 16.1818679 71.9760937 12.6718679 69.6034701 9.76186794 66.4406517 8.74186794 65.3404967 8.99186794 64.3565767 10.3518679 63.5011271 11.6917679 62.6568932 12.5218679 62.6385403 13.4617679 63.8763422 15.2518679 66.251005 17.4118679 68.166845 19.8118679 69.852254 20.9218679 70.6322528 21.5018679 71.887388 22.0018679 73.1262095 22.2318679 73.6716988 21.8918679 74.1366392 21.1418679 74.4629132zM82.5717679 90.2331621C83.1418679 90.3228874 83.6018679 90.6430438 83.7218679 91.1875135 83.8018679 91.5199051 83.6818679 92.0011592 83.4718679 92.2825705 82.1618679 94.0607637 80.2518679 95.1038208 78.4318679 96.1448387 76.2218679 97.4020132 74.1318679 98.7917364 72.1218679 100.331342 71.1818679 101.047105 70.0717679 101.537536 69.0318679 102.105457 68.3418679 102.481691 67.7618679 102.242084 67.2918679 101.669065 66.7718679 101.038948 66.7918679 99.9693815 67.4118679 99.4860882 68.1418679 98.9191872 68.9417679 98.4420115 69.7318679 97.9689142 72.1318679 96.5424852 74.5918679 95.2159775 76.9318679 93.6926859 78.1418679 92.9045303 79.4818679 92.2570804 80.4018679 91.0264157 80.9218679 90.3392011 81.7518679 90.2331621 82.5717679 90.2331621zM155.331968 77.6746727C155.961968 77.826594 156.351968 77.8928684 156.721968 78.0162408 157.381968 78.2374953 157.631968 79.641493 157.061968 80.0758453 156.651968 80.3878447 156.171968 80.7039227 155.691968 80.8109813 151.281968 81.7745092 147.021968 83.2264284 142.821968 84.8628963 142.331968 85.0545823 141.821968 85.21568 141.321968 85.3625033 140.641968 85.5572481 139.961968 85.5256403 139.511968 84.9189746 138.931968 84.1216426 139.371968 83.3661144 139.841968 82.7023508 140.051968 82.3954493 140.411968 82.0406264 140.741968 81.9896461 144.711968 81.3850196 148.091968 78.9298079 152.041968 78.3027501 153.211968 78.1171818 154.381968 77.8582018 155.331968 77.6746727zM3.38186794 253.893822C2.25186794 253.857116 1.70176794 252.461275 2.09186794 251.616021 2.39186794 250.954399 2.94176794 250.590298 3.51186794 250.282376 7.11186794 248.322693 10.5717679 246.155418 13.9318679 243.774638 16.3918679 242.037229 19.2518679 240.889152 21.9417679 239.513704 22.3317679 239.31692 22.7117679 239.595272 22.8418679 239.994958 22.9118679 240.19582 22.8418679 240.553702 22.6917679 240.698486 22.3217679 241.068603 21.9018679 241.411191 21.4517679 241.67323 16.6318679 244.456755 12.4018679 248.114694 7.80186794 251.216336 6.70176794 251.95555 5.63186794 252.726372 4.51186794 253.43092 4.08176794 253.698057 3.57176794 253.81939 3.38186794 253.893822zM39.1318679 335.425611C39.2117679 336.727648 39.0118679 337.381317 38.4318679 337.788038 36.7218679 338.987095 36.3317679 340.862151 36.1618679 342.710697 35.9718679 344.634694 35.3518679 346.380259 34.7017679 348.145198 34.4918679 348.718216 34.0218679 348.961902 33.4818679 348.996569 32.7418679 349.042451 32.1917679 348.624515 31.9417679 347.961669 31.7518679 347.480415 31.6518679 346.904337 31.7117679 346.398714 31.8217679 345.60332 32.0717679 344.82434 32.3018679 344.051581 33.1118679 341.344425 33.9218679 338.63737 34.7618679 335.940512 35.0018679 335.171729 35.3018679 334.418342 35.6418679 333.690343 36.0318679 332.86854 36.7318679 332.566635 37.6118679 332.671756 38.4018679 332.765458 38.7117679 333.332359 38.8718679 334.019676 39.0218679 334.672122 39.1218679 335.338026 39.1318679 335.425611zM114.551968 53.3601444C114.351968 53.3142417 113.811968 53.264281 113.331968 53.0705558 110.151968 51.7868716 106.981968 50.4827953 103.821968 49.1552681 103.471968 49.0084448 103.151968 48.7158178 102.891968 48.4262496 102.491968 47.9827209 102.481968 47.4219375 102.801968 46.9488403 103.761968 45.5315877 105.071968 45.0452355 106.541968 45.7834304 109.511968 47.262879 112.531968 48.5689945 115.661968 49.6242869 116.491968 49.9026394 117.091968 50.4042856 117.001968 51.3453821 116.911968 52.414949 115.831968 53.365222 114.551968 53.3601444zM227.551968 11.3601444C227.351968 11.3142417 226.811968 11.264281 226.331968 11.0705558 223.151968 9.78687162 219.981968 8.48279531 216.821968 7.15526806 216.471968 7.00844477 216.151968 6.71581779 215.891968 6.42624964 215.491968 5.98272095 215.481968 5.42193754 215.801968 4.94884027 216.761968 3.53158767 218.071968 3.04523552 219.541968 3.7834304 222.511968 5.26287898 225.531968 6.5689945 228.661968 7.6242869 229.491968 7.90263939 230.091968 8.40428564 230.001968 9.34538215 229.911968 10.414949 228.831968 11.365222 227.551968 11.3601444zM186.951968 168.872328C186.851968 168.216722 187.261968 167.34088 187.591968 166.471156 189.311968 161.948183 191.051968 157.435406 192.821968 152.932825 193.061968 152.3231 193.431968 151.726631 193.871968 151.250475 194.471968 150.602005 195.281968 150.53777 196.061968 150.915024 196.561968 151.154632 196.921968 151.595102 196.701968 152.201767 196.521968 152.702394 196.281968 153.197922 195.971968 153.626157 193.031968 157.707641 191.801968 162.579319 189.861968 167.122684 189.311968 168.408408 189.941968 169.49021 189.941968 170.663776 189.941968 171.396873 189.371968 171.902598 188.671968 171.97499 188.141968 172.030049 187.671968 171.675226 187.411968 171.151148 187.291968 170.911541 187.151968 170.669894 187.101968 170.412953 187.021968 170.018366 187.011968 169.609504 186.951968 168.872328zM168.911968 65.3547711C168.571968 63.822303 169.071968 62.5202659 169.331968 61.2192485 169.611968 59.8927408 169.821968 58.6376056 169.641968 57.2427843 169.411968 55.3473364 170.671968 54.2002795 172.501968 54.3216126 173.521968 54.3899262 174.251968 55.1372976 174.151968 56.1813743 174.031968 57.3855292 173.821968 58.5856057 173.561968 59.7673292 172.841968 63.0484219 172.081968 66.3203382 171.331968 69.5932741 171.211968 70.1285673 170.971968 70.6699782 170.331968 70.5578215 170.001968 70.499704 169.551968 70.1907633 169.451968 69.8920187 168.921968 68.3809623 168.111968 66.8831608 168.911968 65.3547711zM265.561968 125.494203C265.561968 125.499301 265.441968 126.01828 265.221968 126.48628 264.181968 128.658041 263.081968 130.801253 262.061968 132.986269 261.181968 134.897011 259.871968 136.661949 260.241968 139.01622 260.381968 139.863513 259.671968 140.474257 258.901968 140.821943 258.031968 141.21755 256.841968 140.615982 256.781968 139.685082 256.741968 138.897946 256.731968 138.041477 256.991968 137.316537 257.611968 135.549559 258.351968 133.821327 259.121968 132.113486 259.991968 130.168078 261.191968 128.379688 261.421968 126.14981 261.531968 125.03436 262.311968 124.224793 263.261968 123.656872 263.751968 123.363226 264.281968 123.382598 264.761968 123.676245 265.221968 123.961735 265.581968 124.357342 265.561968 125.494203zM37.5618679 128.772237C35.2818679 129.264706 32.7918679 127.902513 30.1318679 127.916787 28.6818679 127.924944 28.1818679 126.099849 29.1318679 124.852871 30.0717679 123.617108 31.1518679 123.026756 32.1418679 123.66197 34.3018679 125.043537 36.6917679 124.87938 39.0418679 125.109811 39.8118679 125.186282 40.6318679 125.03436 41.3118679 125.600242 41.9517679 126.132476 42.5118679 126.779926 42.2618679 127.647611 42.0618679 128.309335 41.4218679 128.702903 40.7318679 128.754903 39.8118679 128.825256 38.8918679 128.772237 37.5618679 128.772237zM49.5817679 94.0597441C48.9918679 94.0148814 48.4918679 93.8537836 48.1618679 93.381706 47.6518679 92.6710405 48.0717679 92.1275904 48.5218679 91.6249245 50.9118679 88.941321 53.2318679 86.1741098 56.0717679 83.952388 58.1917679 82.2975671 59.8918679 80.2430607 61.4118679 78.0213388 61.7818679 77.4860455 62.2117679 76.9374974 62.7518679 76.5969489 63.3217679 76.2298907 64.0218679 76.2513024 64.5418679 76.8467525 65.0618679 77.4309868 65.1118679 78.1396131 64.6018679 78.6555338 63.0218679 80.2532567 61.4617679 81.8999207 59.7218679 83.29984 56.2718679 86.07011 53.1318679 89.0728502 51.0717679 93.1053927 50.7618679 93.7120584 50.3418679 94.2432732 49.5817679 94.0597441zM61.6318679 181.679602C60.4517679 181.638817 59.4918679 180.334741 59.9218679 179.071449 60.5318679 177.30957 61.2117679 175.535455 62.1318679 173.930595 63.1917679 172.084088 64.5618679 170.42213 65.7818679 168.668407 66.2618679 167.976095 66.9517679 167.596801 67.6818679 167.282762 68.2017679 167.060488 68.7218679 167.070684 69.1118679 167.54888 69.5518679 168.100486 69.8118679 168.81523 69.3918679 169.401504 68.6218679 170.476169 67.6518679 171.400952 66.8518679 172.459303 65.1718679 174.698358 63.4517679 176.913962 63.4818679 179.989095 63.4918679 180.987289 62.5218679 181.71019 61.6318679 181.679602zM47.3018679 215.362292C47.5018679 213.86653 47.6718679 212.448258 48.5418679 211.160495 50.2017679 208.717519 51.3618679 206.031876 51.9118679 203.091332 52.1618679 201.730157 52.8018679 200.581061 53.9218679 199.758239 54.4018679 199.406475 54.9617679 199.430945 55.3718679 199.789847 55.6318679 200.01518 55.8317679 200.497453 55.8018679 200.838002 55.7318679 201.494628 55.5618679 202.165529 55.3018679 202.774234 53.4018679 207.31556 51.4718679 211.844651 49.5218679 216.368643 49.3018679 216.878446 48.8518679 217.208799 48.2818679 217.169034 47.4018679 217.107858 47.3718679 216.381898 47.3018679 215.721193 47.2918679 215.588645 47.3018679 215.453037 47.3018679 215.362292zM157.361968 132.759916C157.321968 133.025014 157.331968 133.303367 157.241968 133.542974 156.981968 134.213875 156.411968 134.53811 155.821968 134.867442 152.661968 136.614028 149.791968 138.750103 147.161968 141.252216 146.301968 142.068921 145.271968 142.711273 144.271968 143.352605 143.691968 143.726801 143.011968 143.758408 142.461968 143.218017 141.931968 142.706175 141.891968 141.570334 142.371968 140.981001 142.531968 140.77606 142.711968 140.566021 142.921968 140.424296 146.921968 137.785555 150.901968 135.13356 154.931968 132.557015 155.431968 132.234819 156.191968 132.290898 156.841968 132.261329 157.001968 132.253172 157.191968 132.585564 157.361968 132.759916zM255.201968 45.9588027C255.091968 45.9220968 254.921968 45.9180184 254.881968 45.8435872 254.761968 45.6070385 254.911968 45.4724505 255.241968 45.5336269 255.341968 45.5519798 255.421968 45.6875874 255.511968 45.7701755 255.411968 45.8333911 255.301968 45.8955871 255.201968 45.9588027z"/>
</svg>
