<svg version="1.1"
      xmlns="http://www.w3.org/2000/svg"
      xmlns:xlink="http://www.w3.org/1999/xlink"  id="snapshot-79076" width="245" height="242" viewBox="0 0 245 242"><desc>This image was made on Patterninja.com</desc><defs>
<!-- image 06313 -->
<g id="transformed-06313" data-image="06313" transform="translate(-125, -121) rotate(0, 125, 121)"><g><svg version="1.1" width="250px" height="243px" viewBox="0 0 250 243"><g id="original-06313"><svg xmlns="http://www.w3.org/2000/svg" viewBox="0 0 352 343" xmlns:xlink="http://www.w3.org/1999/xlink" version="1.1" preserveAspectRatio="xMidYMid meet">
  <defs>
    <filter id="a">
      <feColorMatrix in="SourceGraphic" values="0 0 0 0 1.000000 0 0 0 0 1.000000 0 0 0 0 1.000000 0 0 0 1.000000 0"/>
    </filter>
  </defs>
  <path d="M238.632 326.025c.25-1.385 1.04-2.34 2.18-2.758 2.39-.876 4.52-2.216 6.65-3.533 2.04-1.266 4.31-1.991 6.39-3.146 3.25-1.803 6.39-3.75 9.34-6.011 1.12-.858 2.28-.396 3.23 1.128.49.784.24 1.825-.67 2.39-2.36 1.464-4.64 3.117-7.15 4.272-5.33 2.45-10.25 5.5-14.95 8.98-1.71 1.272-3.13 1.1-4.53-.363-.25-.267-.35-.681-.49-.96zm107.87-46.062c-.15-.081-.61-.178-.79-.46-.85-1.286-2.1-2-3.46-2.534-4.08-1.615-7.66-4.118-11.27-6.534-2.52-1.69-5-3.42-7.74-4.76-.89-.436-1.54-1.05-1.3-2.164.23-1.088 1.1-1.835 2.24-1.883.93-.04 1.81.096 2.59.735 1.83 1.505 3.69 2.964 5.54 4.445 2.47 1.98 5.02 3.806 7.96 5.082 2.16.936 3.99 2.502 6.19 3.416 1.14.47 1.68 1.63 1.87 2.868.14.928-.77 1.963-1.83 1.789zm-97.62.338c1.45-7.92 1.6-15.062 2.37-22.14.11-.92.11-1.832.49-2.71.47-1.12 1.14-1.708 1.98-1.6 1.12.146 2.23 1.367 2.21 2.439-.01.26-.02.543-.13.775-1.85 4.238-1.7 8.804-2 13.259-.22 3.283-.79 6.572-.42 9.89.04.374-.1.779-.2 1.155-.23.795-1.06 1.29-1.84 1.12-1.68-.367-2.54-1.491-2.46-2.188zm48.43-124.347c.03-.903.31-1.744 1.24-2.235.9-.479 1.85-.443 2.62.151 2.82 2.177 6.07 3.762 8.63 6.275 2.56 2.51 5.52 4.48 8.42 6.525.44.304.85.636 1.28.933.66.447 1.35.821 1.14 1.84-.23 1.116-.94 1.92-2.01 2.144-.89.186-1.46-.316-2.08-.853-3.67-3.21-7.28-6.483-11.26-9.324-2.17-1.545-4.46-2.82-6.85-3.924-.66-.303-1.07-.726-1.13-1.532zm-19.68 161.599c.08-1.305 1.14-2.458 2.55-2.852 1.04-.291 1.78.214 2.41.97 4.62 5.598 9.25 11.198 13.88 16.799.25.304.51.609.71.948.46.797.08 1.887-.8 2.353-1.45.774-2.52.543-3.31-.855-2.29-4.06-5.21-7.638-8.41-10.988-1.64-1.707-3.17-3.55-5.58-4.326-.91-.294-1.42-1.14-1.45-2.05zm-18.66-161.604c-.83 5.804.33 11.98.3 18.173-.01 1.443.3 2.885.43 4.332.05.65.07 1.318-.01 1.962-.08.56-.53.92-1.07 1.038-.52.117-1.06.025-1.46-.379-.8-.794-1.07-1.802-1.08-2.888-.02-1.984-.04-3.968-.02-5.952.06-4.639-.77-9.208-1.1-13.816a11.003 11.003 0 0 0-.98-3.795c-.55-1.21.23-2.365 1.55-2.665a5.748 5.748 0 0 1 1.57-.11c1.03.057 1.77.736 1.86 1.717.06.655.01 1.321.01 2.383zm21.2 145.566c-1.62-.213-2.97-1.307-3.98-2.698-3.82-5.233-7.07-10.81-9.63-16.768-.21-.476-.38-.992-.43-1.503-.11-1.116.88-2.31 2.04-2.574 1.04-.234 2.5.612 2.85 1.648.04.125.11.256.1.38-.21 3.672 1.89 6.515 3.46 9.533.73 1.402 1.68 2.692 2.4 4.096 1.12 2.166 2.55 3.987 4.83 5.03.77.35 1.36.902.94 1.85-.36.83-1.13 1.027-1.97 1.033-.13 0-.26-.011-.61-.027zm-9.27-58.034c-1.02-.035-1.56-.372-2.08-.814-1.61-1.376-3.24-2.724-4.86-4.1-3.75-3.21-7.87-5.789-12.64-7.235-.25-.076-.51-.132-.75-.232-1.43-.59-2.04-1.674-1.57-2.753.77-1.775 2.4-2.559 3.81-1.687 1.34.826 2.47 2.034 3.86 2.74 3.8 1.928 7.21 4.438 10.62 6.931 1.71 1.247 3.32 2.635 4.92 4.017.56.486.46 1.202.16 1.828-.36.733-.8 1.409-1.47 1.305zm-56.11 48.285c-.56 2.307-1.55 4.583-3.16 6.542-1.5 1.83-2.99 3.664-4.32 5.633-1.25 1.85-2.61 3.618-3.42 5.739-.32.85-.84 1.628-1.67 2.143-.82.507-1.8.483-2.55-.12-.79-.637-1.23-1.43-.81-2.42 1.29-3.051 3.22-5.696 5.34-8.22 1.78-2.118 3.53-4.26 5.31-6.381.6-.718 1.08-1.478 1.29-2.41.12-.508.32-1.007.55-1.48.46-.942 1.41-1.376 2.27-1.09.92.306 1.03 1.1 1.17 2.064zm-80.93-41.462c-.4-.21-.88-.15-1.27.325-.76.916-1.66 1.754-2.26 2.762-2.06 3.393-4.43 6.593-6.05 10.249-.96 2.174-2.07 4.282-3.09 6.432-.44.924-1.07 1.484-2.14 1.445-1.8-.065-2.62-1.437-1.78-2.977.13-.232.23-.49.4-.684 4.17-4.68 6.92-10.31 10.35-15.476 1.61-2.417 3.5-4.648 5.29-6.942.4-.518.9-.972 1.39-1.413.54-.488 1.16-.58 1.81-.176.49.302.76.744.74 1.308-.03.52-.07 1.06-.23 1.552-.29.877-.73 1.706-1 2.588-.33 1.095-.89 1.576-2.16 1.007zm103.7-96.484c-.1 1.398-1.67 3.044-2.83 2.558-3.02-1.266-5.76-.042-8.43.868-5.11 1.742-10.22 3.561-14.78 6.59-1.09.725-1.91.546-2.79-.364-.7-.73-.62-1.839.2-2.415a5.14 5.14 0 0 1 1.03-.57c6.24-2.489 12.32-5.408 18.84-7.185 1.78-.485 3.57-.927 5.37-1.325.91-.2 1.84-.18 2.64.45.44.336.77.714.75 1.393zm100.12 71.997c-1.61-.15-3.27-.888-4.67-2.174-.67-.622-1.28-1.327-1.86-2.05-2.88-3.649-6.15-6.86-10.25-9.149a4.133 4.133 0 0 1-.64-.457c-.78-.652-1.2-1.78-.91-2.417.44-.982 1.95-1.723 3-1.288.96.398 1.91.922 2.7 1.591 2.3 1.962 4.54 3.986 6.44 6.39 2.1 2.67 4.19 5.464 7.68 6.581.35.111.63.458.91.735.53.526.18 1.725-.55 1.958-.25.08-.5.157-.76.2-.26.043-.52.041-1.09.08zm-8.69-72.149c3.58.367 6.88-.729 10.2-1.56 3.08-.769 6.13-1.654 9.2-2.462.5-.133 1.04-.164 1.57-.184 1.03-.037 1.71.777 1.56 1.811-.3 1.992-1.27 2.831-3.21 2.45-1.22-.243-2.35-.175-3.52.135-2.17.577-4.4.997-6.53 1.698-4.04 1.327-8.34 1.317-12.41 2.534-.95.284-1.93-.325-2.27-1.158-.41-1.044-.04-2.222.85-2.776.69-.435 1.43-.672 2.25-.604.4.032.79.092 1.19.112.4.02.79.004 1.12.004zm-98.58 85.161c-.96-.057-1.84-.306-2.39-1.164-.5-.777-1.02-1.556-1.4-2.395-2.3-5.108-5.65-9.539-8.94-14.004-.47-.636-1.02-1.23-1.41-1.914-.53-.934-.16-2.228.69-2.828.87-.606 2.11-.503 2.89.33.45.472.81 1.034 1.14 1.6 2.46 4.222 4.92 8.447 7.35 12.691.98 1.717 1.73 3.578 3.26 4.934.09.087.2.183.26.297.31.63.35 1.29-.05 1.87-.31.454-.83.62-1.4.583zm-28.96-8.625c-.62-.11-1.21-.34-1.7-.832-2.5-2.516-5.06-4.97-7.49-7.554-2.16-2.298-4.15-4.75-6.25-7.103-.69-.773-.96-1.6-.52-2.525.54-1.132 2.2-1.868 3.34-1.57.53.138.93.446 1.17.96 2.54 5.501 6.77 9.643 11.1 13.695.67.627 1.33 1.282 1.91 1.987.47.567.34 1.23.01 1.847-.32.617-.81 1.018-1.57 1.095zm-53.42-37.83c-1.28.15-1.67.214-2.06.237-1.77.1-2.62-.626-2.52-2.127.12-1.675 1.36-2.988 2.78-2.626 1.69.427 3.32.532 5.06.494 4.23-.092 8.34-1.028 12.51-1.508.62-.07 1.17-.567 1.78-.802 1.2-.469 2.23.138 2.65 1.527.38 1.257-.01 2.213-1.12 2.55-.75.227-1.53.45-2.31.487-5.92.284-11.71 1.788-16.77 1.768zm-95.57 49.838c-.21-.236-.57-.483-.7-.82-.43-1.072-.14-2.042.49-2.986 3.55-5.264 6.98-10.613 10.94-15.593a563.37 563.37 0 0 0 3.92-4.992c.43-.548.96-.87 1.64-1.003.96-.186 2 .636 1.78 1.56-.5 2.098-1.31 4.1-3.45 5.008-1.18.502-1.96 1.27-2.65 2.26-1.89 2.71-3.84 5.383-5.69 8.122-1.18 1.748-2.33 3.503-2.76 5.666-.3 1.57-1.72 2.216-3.06 2.818-.09.044-.24-.018-.46-.04zm77.13-23.678c-.12-1.195 1.15-2.342 2.32-2.022.76.207 1.47.573 2.21.84 2.12.755 4.19 1.702 6.36 2.19 2.89.648 5.5 1.866 8.07 3.221 1.17.617 2.28 1.297 3.6 1.611 1.51.361 1.95 1.305 1.3 2.655-.17.35-.18.771-.32 1.14-.25.682-1 .975-1.6.605-1.01-.627-1.98-1.31-2.99-1.939-5.02-3.14-10.7-4.404-16.36-5.736-1.47-.346-2.46-1.349-2.59-2.565zm161.01 24.439c-.08.789-.22 1.509-.88 2.108-4.57 4.13-7.54 9.436-10.72 14.594-.76 1.236-1.46 2.496-1.57 4.002-.03.38-.2.765-.37 1.115-.39.81-1.49 1.19-2.37.859-.96-.357-1.45-1.223-1.18-2.206.35-1.28.99-2.416 1.7-3.541 3.66-5.784 7.3-11.582 10.88-17.42.53-.877 1.13-1.424 2.11-1.553 1.25-.167 2.34.784 2.4 2.042zm-108.39-40.837c-1.17.062-2.1-1.244-1.72-2.254.22-.6.58-1.179.99-1.676.76-.912 1.55-1.8 2.4-2.622 3.35-3.23 5.97-7.01 8.47-10.896.93-1.435 1.94-2.817 2.96-4.185.67-.89 1.61-1.335 2.74-1.374.92-.032 1.46.494 1.86 1.22.38.68.15 1.251-.41 1.736-2.89 2.538-5.21 5.566-7.42 8.7-2.5 3.558-5.78 6.505-8.09 10.226-.43.708-1.1 1.12-1.78 1.125zm21.01 1.05c.05-1.498.51-2.14 2.01-2.482 3.47-.789 6.95-1.565 10.18-3.123 2.13-1.027 4.25-2.096 6.35-3.184 2.35-1.216 4.76-2.263 7.32-2.949.61-.164 1.3-.18 1.92-.082.3.046.6.487.76.816.08.158-.08.575-.25.694-.76.516-1.52 1.033-2.34 1.428-4.27 2.05-8.63 3.881-12.8 6.172-3.44 1.886-7.31 2.981-10.99 4.407-1.4.541-2.21-.117-2.16-1.698zm111.61 110.439c.24-.891.81-1.564 1.78-1.867.95-.297 1.86-.22 2.59.496.36.36.62.854.82 1.332 1.46 3.402 2.96 6.789 4.31 10.236.95 2.44 1.42 5.084 4.15 6.429.86.429.53 2.162-.37 2.73-1.31.822-3.02.586-3.93-.628-.39-.515-.61-1.157-.88-1.754-1.19-2.656-2.4-5.305-3.55-7.978-1.1-2.566-2.38-5.021-4.18-7.174-.44-.518-.84-1.021-.74-1.822zm-16.38-216.187c-2.12.011-3.24-1.713-2.11-3.456a48.59 48.59 0 0 1 3.78-5.092c3.52-4.13 7.03-8.26 10.18-12.679.9-1.262 1.95-1.693 3.38-1.418 1.06.204 1.63 1.626 1.03 2.524-.14.218-.29.454-.49.61-3.51 2.686-6.07 6.245-8.81 9.638-1.16 1.438-2.23 2.948-3.45 4.333-1.14 1.294-2.38 2.431-2.09 4.443.1.658-.71 1.02-1.42 1.097zM19.422 254.095c-.25-1.872 1.38-2.546 2.79-2.472.62.032 1.26.364 1.83.675 3.46 1.894 6.87 3.875 10.36 5.714 1.62.855 3.38 1.437 5.06 2.179 1.21.532 1.87 1.585 1.59 2.402-.33.98-1.61 1.447-2.97 1.059-1.01-.29-1.95-.698-2.9-1.185-3.27-1.683-6.62-3.236-9.94-4.813-1.31-.618-2.6-1.22-4.07-1.448-1.46-.225-1.72-.682-1.75-2.111zm190.68-128.16c.16-1.135.81-1.725 1.68-2.166.7-.357 1.31-.122 1.81.32 2.08 1.841 4.46 3.256 6.78 4.758 3.76 2.438 7.61 4.69 12.03 5.743.84.2.95.91.35 1.703-.08.104-.18.195-.28.272-.62.451-.41 1.575-1.45 1.702-.96.12-1.85-.04-2.64-.563-5.28-3.47-10.83-6.467-16.28-9.643a7.992 7.992 0 0 1-1.57-1.173c-.25-.249-.32-.687-.43-.953zm-47.57 145.267c-2.73-.127-5.31.346-7.86 1.007-1.02.263-2.08.393-3.13.448-3.15.165-6.31.287-9.46.377-1.21.035-2.04-.725-2.2-1.835-.18-1.281.54-2.407 1.77-2.687 1.04-.238 2.08-.155 3.14.027 4.07.705 8.11.52 12.14-.361 1.3-.284 2.51-.742 3.75-1.204 1.59-.596 2.85.599 2.52 2.32-.11.626-.42 1.216-.67 1.908zM335.552 5.445c.06.86-.28 1.587-.96 2.055-2.06 1.413-3.47 3.584-5.79 4.727-1.16.573-2.15 1.517-3.14 2.392-2.37 2.101-4.68 4.263-7.02 6.395-.76.698-1.14 1.404-.34 2.36.27.322.1.795-.26 1.013-.78.473-1.51 1.064-2.52.998-.82-.053-1.58-.207-2.05-.957-.49-.785-.18-1.515.23-2.218.4-.687.94-1.226 1.54-1.76 4.35-3.842 8.66-7.723 12.95-11.63 1.26-1.15 2.4-2.43 3.6-3.652.8-.81 1.73-1.189 2.87-.867.58.163.86.557.89 1.144zm-132.13 264.257c1.26.012 2.05.408 2.5 1.336.64 1.324-.09 2.599-1.63 2.857-3.76.633-7.54 1.227-11.3 1.907-2.07.374-4.13.724-6.06 1.742-1.5.79-2.79-.003-3.35-1.69-.41-1.231.18-2.516 1.42-2.824 1.53-.378 3.08-.751 4.65-.877 4.1-.33 8.11-1.087 12.08-2.096.64-.162 1.29-.272 1.69-.355zm127.63-154.422c1.38.034 1.9.424 2.18 1.774 1.19 5.922 2.9 11.734 3.8 17.717.16 1.031.27 2.082.26 3.121-.01.5-.37.978-.97 1.105-.68.144-1.35.11-1.79-.475-.31-.406-.57-.904-.67-1.398-.34-1.67-.58-3.362-.89-5.038-.78-4.146-1.94-8.178-3.7-12.026-.22-.478-.46-.947-.63-1.443-.7-2.06.27-3.392 2.41-3.337zM94.202 219.721c.14-4.493.12-8.976-1.29-13.32-.16-.496-.22-1.035-.25-1.559-.09-1.488 1.43-2.753 2.9-2.358.84.225 1.28.91 1.35 1.772.17 2.36.38 4.72.45 7.081.08 2.376 0 4.756.03 7.134.03 2.632-.17 5.27.6 7.87.39 1.32-.53 2.35-1.85 2.424-1 .056-1.91-.578-1.93-1.522-.05-2.507-.01-5.015-.01-7.522zm120.73 99.792c-.03-1.374 1.64-2.492 2.9-2.015 1.06.404 1.76 1.152 1.92 2.314.75 5.689 3.73 10.39 6.73 15.068.7 1.096 1.73 1.98 2.6 2.97.45.51.88 1.086.37 1.749-.53.69-1.32.882-2.13.623-1.04-.331-1.84-1.006-2.43-1.94-.7-1.118-1.42-2.227-2.16-3.326-3.02-4.526-5.53-9.321-7.48-14.405-.14-.367-.24-.752-.32-1.038zm77.26-255.13c-.18 1.827-2.08 2.94-3.44 2.004-4.67-3.204-9.88-5.576-14.19-9.314-.78-.676-1.8-1.072-2.69-1.64-1.24-.799-1.21-2.408.03-3.274 1.05-.736 2.27-.73 3.28.041.32.237.61.514.87.808 3.67 4.116 8.38 6.747 13.2 9.231.81.421 1.65.817 2.42 1.315.28.181.39.621.52.83zm-47.46 151.552c-1.78-.04-2.72-1.353-2.11-2.942.14-.365.31-.754.56-1.037 4.27-4.686 8.28-9.63 13.78-13.02.96-.592 1.88-.902 2.99-.538 1.44.474 1.9 1.966.97 3.178-.42.543-.94.89-1.59 1.118-5.07 1.78-8.5 5.64-11.98 9.441-.7.761-.74 1.615-.88 2.528-.14.93-.92 1.2-1.74 1.272zm36.54-76.775c4.86.502 9.47.937 14.1.95 2.12.004 4.23-.004 6.34.006.88.004 1.53.424 1.88 1.206.32.716-.17 1.883-1.02 2.374-1.04.604-2.19 1.14-3.37.48-1.34-.752-2.77-.785-4.22-.808-4.62-.074-9.25-.13-13.88-.193-.26-.004-.53.004-.79-.025-.97-.104-1.68-.804-1.84-1.773-.14-.857.54-1.82 1.49-2.039.51-.117 1.04-.144 1.31-.178zm59.98-44.45c1.28.005 1.97.381 2.23 1.23.23.76.4 1.671-.29 2.24-1.4 1.136-2.74 2.743-4.82 1.115-.59-.457-1.28-.096-1.92.011-4.44.741-8.87 1.508-13.07 3.268-1.63.685-2.49.312-3.42-.979-.59-.818-.37-1.798.42-2.44.89-.726 1.98-.8 3-.887 5.56-.475 10.94-1.869 16.32-3.256.63-.164 1.28-.253 1.55-.303zm-158.64 221.568c.07-1.126.04-1.79.15-2.431.13-.732.72-1.067 1.39-1.224.7-.163 1.33.046 1.77.605.49.635.78 1.377.8 2.196.03 1.188.11 2.38.05 3.565-.19 3.519.93 6.773 2.04 10.014.5 1.473 1.06 2.927 2.67 3.776.91.484.67 1.62.25 2.505-.43.92-1.2 1.404-2.21 1.37-.53-.018-1-.287-1.28-.8-.45-.805-1.01-1.563-1.38-2.402-2.49-5.618-3.35-11.63-4.25-17.174zm137.33-279.792c.05-1.154 1.5-2.468 2.7-2.42.4.015.81.046 1.17.19 4.55 1.84 9.43 2.472 14.07 3.946 1.39.44 2.79.847 4.13 1.403 1.8.745 2.12 2.29.89 3.79-1.06 1.293-1.75 1.402-2.7.071-.77-1.076-1.82-1.58-2.93-1.895-4.05-1.15-8-2.756-12.32-2.765-1.45-.003-2.91-.24-4.17-1.06-.42-.273-.86-.645-.84-1.26zm-3.02 76.892c.52.1.91.16 1.29.247 1.29.29 1.84 1.645 1.13 2.778-.58.927-1.38 1.612-2.41 1.972-.94.33-1.78.235-2.5-.605-.36-.422-.94-.339-1.48-.299-4.11.296-8.14.925-12.02 2.351-.99.364-1.99.72-3.02.965-1.23.293-2.36-.244-2.68-1.146-.35-.987.39-2.458 1.53-2.872.61-.22 1.29-.392 1.92-.364 2.43.105 4.71-.562 7.04-1.044 3.75-.775 7.54-1.346 11.2-1.983zM83.002 278.593c.77.048 1.17.064 1.56.098 2.3.2 2.98 1.015 2.8 3.334-.12 1.54-.63 1.95-1.93 1.204-1.36-.776-2.76-.813-4.21-.774-3.46.093-6.76.954-9.97 2.22-1.23.484-2.42 1.052-3.78 1.116-1.07.052-1.75-.451-1.96-1.495-.26-1.3.12-2.25 1.2-2.562 2.28-.655 4.56-1.356 6.88-1.782 3.24-.593 6.52-.952 9.41-1.36zm30.76-90.249c-.06-1.147 1.3-2.583 2.51-2.644 1.73-.088 2.77.845 2.8 2.507.09 4.221-.19 8.455.74 12.64.32 1.431.57 2.792 1.49 4.022.78 1.054.49 2.176-.42 2.703-.96.56-2.26.396-2.84-.507-.49-.765-.97-1.626-1.12-2.503-.36-2.075-.87-4.119-1.01-6.252-.2-3.14-.19-6.373-1.91-9.218-.14-.217-.16-.497-.24-.748zm-2.03 71.768c-2.19 0-3.79-.167-5.34.033-3.77.488-7.63.482-11.28 1.693-1.47.49-2.56.098-3.49-1.017-.52-.618-.38-1.627.24-2.115a4.76 4.76 0 0 1 2.52-1.012c2.36-.237 4.71-.558 7.07-.762 2.49-.216 4.98-.385 7.48-.477 1.3-.048 2.62.047 3.92.206.61.075 1.32.309 1.44 1.115.13.81-.01 1.596-.62 2.173-.25.239-.7.404-1.04.384-.51-.03-1.01-.254-.9-.221zm133.48 52.633c-.52.045-1.38-.75-1.99-1.824-1.1-1.95-2.14-3.93-3.16-5.925a862.465 862.465 0 0 1-4.75-9.531c-.29-.583-.59-1.185-.73-1.812-.2-.844.19-1.546.85-2.068.61-.478 1.26-.275 1.85.039.94.51 1.63 1.179 1.9 2.348.76 3.354 2.46 6.353 3.82 9.478.99 2.282 2.09 4.547 4.15 6.153.66.51.94 1.278.54 2.103-.32.643-.92.902-2.48 1.039zm7.33-291.17c-.13.516-.28 1.04-.82 1.271-.58.241-.98-.09-1.38-.457-1.59-1.453-1.82-3.476-2.18-5.395-.47-2.458-.74-4.954-1.14-7.425-.34-2.09-.89-4.068-2.12-5.899-1.03-1.53-.1-3.166 1.72-3.596 1.27-.297 2.43.313 2.79 1.585.35 1.27.71 2.565.81 3.87.41 5.137 1.13 10.224 2.22 15.26.06.257.07.523.1.785zm-57.95 217.65c.14-.877.67-1.453 1.42-1.796.64-.289 1.29-.198 1.87.21.68.47 1.04 1.154 1.39 1.88 1.93 3.922 4.39 7.51 6.92 11.064 1.07 1.513 2.17 2.984 3.61 4.173.39.319.71.766.95 1.215.34.653-.25 1.707-.98 1.865-1.1.238-2.12.097-2.89-.8-.94-1.103-1.92-2.192-2.71-3.405-2.79-4.328-5.66-8.6-8.85-12.643-.42-.525-.79-1.064-.73-1.764zm-160.19-15.037c-3.99.32-7.64-.134-11.23-1.207-.75-.223-1.56-.262-2.35-.294-1.05-.04-1.81-.395-2.02-1.502-.19-1.062-.28-2.127.68-2.917.82-.679 2.14-.877 2.94-.225 2.87 2.363 6.28 2.616 9.74 2.575 2.13-.025 4.23.11 6.32.422.65.097 1.37.135 1.76.75.28.426.6.954.57 1.414-.04.497-.54.955-1.1.968-1.85.043-3.71.016-5.31.016zm277.31 70.439c.07.956-.62 1.613-1.17 2.354-2.24 2.958-4.47 5.919-6.65 8.915-1.47 2.016-3.14 3.938-3.14 6.684 0 .749-1.24 1.112-1.91.664-1.04-.7-1.61-1.888-1.24-3.095.3-.997.77-1.976 1.34-2.853 1.29-2 2.69-3.926 4.03-5.89 1.57-2.288 3.27-4.474 4.2-7.167.51-1.492 1.77-1.91 3.23-1.457.86.266 1.31.859 1.31 1.845zm11.09-104.415c-.7.081-1.52.067-2.27.282-2.92.838-5.82 1.747-8.73 2.635-1.78.544-3.57 1.02-5.44 1.081-.93.031-1.61-.544-1.67-1.327-.06-.872.24-1.583 1.06-1.94.48-.208 1.02-.273 1.53-.384 3.75-.8 7.52-1.528 11.25-2.415 2.57-.614 5.08-1.504 7.35-2.933.57-.358 1.11-.688 1.82-.68.88.011 1.55.395 1.89 1.193.3.71-.06 1.313-.62 1.72-1.06.778-2.25 1.408-3.25 2.253-.89.747-1.7 1.256-2.92.515zm-15.83 21.326c.13 1.036-.47 1.801-1.08 2.463-2.98 3.218-4.88 7.18-7.43 10.686-.78 1.065-1.35 2.17-1.19 3.655.14 1.241-1.13 2.263-2.23 2.171-1.31-.11-2.22-1.55-1.82-2.924.15-.5.32-1.016.59-1.454 1.82-2.902 3.67-5.788 5.52-8.674 1.35-2.106 2.84-4.119 3.43-6.637.29-1.222.83-1.426 2.07-1.197 1.42.263 2.12.894 2.14 1.911zm-25.46-27.693c.22-.676.34-1.345.65-1.917.4-.76 1.07-1.099 1.98-.837.93.267 1.68.675 2.07 1.65 2.21 5.64 4.46 11.271 6.67 16.912.24.611.4 1.26.53 1.902.14.65.25 1.512-.34 1.817-.97.5-1.31-.486-1.76-1.113-1.54-2.166-2.36-4.709-3.63-7.01-1.91-3.45-3.14-7.27-5.66-10.388-.23-.286-.34-.67-.51-1.016zM237.622 69.8c-.05-1.573 1.6-2.693 2.98-2.017.24.115.48.232.68.4 4.25 3.633 9.65 4.68 14.68 6.551 1.11.412 2.26.716 3.36 1.148.71.281.93 1.435.4 2.033-.43.49-.92.943-1.44 1.335-.72.538-1.59.586-2.15-.097-1.07-1.319-2.46-1.91-4.03-2.276-4.66-1.076-8.76-3.592-13.19-5.234-.84-.308-1.17-1.014-1.29-1.843zm-131.76 250.673c-.92-.014-1.32-.394-1.57-.84-.64-1.124-.48-2.413.41-3.252 4.49-4.25 8.45-8.99 12.44-13.693.6-.705 1.12-1.45 1.98-1.875.73-.361 1.75.06 1.88.848.21 1.348.13 2.765-1.03 3.58-4.84 3.406-8.17 8.129-11.51 12.868-.45.642-.92 1.29-1.49 1.822-.35.33-.91.449-1.11.542zm44.17-14.726c-.06.173-.15.706-.38 1.165-.33.643-.88 1.018-1.61.65-.59-.29-1.18-.621-1.67-1.046-.8-.691-1.58-1.42-2.26-2.224-3.33-3.946-6.9-7.654-10.66-11.188-1.08-1.02-1.21-2.18-.45-3.127.58-.718 1.81-.912 2.49-.347.41.334.8.707 1.1 1.132 2.76 3.91 6.36 7.074 9.46 10.689.86 1.01 1.77 1.914 3.09 2.394.82.302.94.746.89 1.902zm-47.57-61.296c-1-.142-1.55-.453-1.69-1.204-.28-1.536.21-2.479 1.65-3.149 2.39-1.113 4.81-2.152 7.17-3.325 2.83-1.408 5.68-2.804 8.1-4.9.7-.61 1.45-1.13 2.4-1.29.82-.138 1.63-.146 2.09.658.35.63.06 1.27-.31 1.844-.68 1.048-1.75 1.591-2.79 2.155-2.78 1.506-5.55 3.024-8.37 4.455-2.23 1.134-4.56 2.08-6.39 3.88-.57.566-1.32.836-1.86.876zm226.49-173.714c-.26-.12-.66-.222-.95-.462-3.91-3.244-8.6-5.065-13.14-7.136-.72-.327-1.5-.507-2.22-.818-.67-.284-1.02-.844-.96-1.57.07-.697.46-1.238 1.08-1.555 1.01-.508 2.06-.498 3.07-.049 1.21.537 2.39 1.122 3.56 1.735 3.4 1.776 6.78 3.571 10.16 5.37.46.247.92.526 1.34.838.67.491.82 1.384.31 2.108-.52.75-1.02 1.578-2.25 1.54zm-106.45-44.76c3.34.077 6.56-.686 9.75-1.544 1.95-.525 3.9-.673 5.89-.618.82.023 1.58.281 2.16.87.58.604.78 1.368.47 2.187-.28.72-.95 1.052-1.6.862-3.49-1.023-6.77.086-10.13.761-1.82.365-3.62.758-5.41 1.227-1.14.298-2.34.442-3.52.51-1.34.075-2.26-.643-2.34-1.626-.08-1.2.78-2.448 1.96-2.605.91-.119 1.85-.024 2.77-.024zM30.712 172.123c.1-.388.19-.91.36-1.409 1.91-5.63 3.83-11.254 5.74-16.882.31-.918.78-1.675 1.79-1.953.66-.183 1.31-.225 1.86.26.58.497.66 1.175.39 1.805-.84 1.933-1.63 3.9-2.65 5.737-1.69 3.05-2.12 6.523-3.43 9.693-.24.577-.36 1.387-.14 1.932.6 1.495-.23 2.244-1.27 2.918-.55.358-1.18.591-1.84.144-.62-.417-.75-1.044-.81-1.715-.01-.132 0-.264 0-.53zm220.59-112.879c-.67-.014-1.18-.365-1.46-1.025-.38-.93-.15-1.727.41-2.578 1.88-2.856 3.67-5.768 5.49-8.66 1.89-3.008 3.83-5.996 4.63-9.533.2-.864.75-1.344 1.65-1.422 1.48-.129 2.36.8 1.92 2.135-.25.74-.6 1.462-1.01 2.13-1.98 3.258-4 6.494-6 9.744-.9 1.458-1.77 2.932-2.64 4.4-.34.566-.7 1.13-.45 1.84.22.608.56 1.22-.01 1.816-.68.696-1.53 1.001-2.53 1.153zm59.95 215.136c-.07.219-.07.58-.23.676-1.25.732-2.49 1.508-3.81 2.09a526.679 526.679 0 0 1-11.3 4.8c-1.25.515-2.29 1.299-3.34 2.104-.75.578-1.53 1.012-2.53.966-.96-.043-1.82-.634-2.11-1.52-.28-.855.12-1.927.95-2.392.46-.254.95-.463 1.46-.606 4.97-1.416 9.63-3.65 14.37-5.661 1.72-.734 3.48-1.244 5.33-1.335.51-.024 1.01.29 1.21.878zm-17.83-101.754c-2.38-1.045-4.89-.324-7.29.192-3.54.762-7.08.418-10.62.514a2.2 2.2 0 0 1-1.12-.287c-.31-.186-.67-.508-.76-.837-.35-1.32 1.27-3.376 2.62-3.387.26-.002.53.037.77.13 4.14 1.604 8.31.817 12.46.158 1.57-.25 3.12-.55 4.7-.259.99.181 1.59 1.047 1.46 2.001-.17 1.275-.93 1.923-2.22 1.775zm-128.44 162.145c-.15-.055-.64-.217-1.12-.407-2.5-.992-4.51-2.8-6.58-4.39-2.42-1.854-4.94-3.52-7.51-5.141-.68-.43-1.35-.81-1.76-1.534-.71-1.232-.05-3 1.32-3.112 1.43-.12 2.93-.01 3.76 1.483 1.01 1.784 2.5 3.07 4.19 4.129 2.57 1.617 4.64 3.958 7.51 5.129.92.374 1.42 1.162 1.72 2.076.23.71-.46 1.763-1.53 1.767zm98.77-235.124c4.95.005 9.68-1.135 14.35-2.62.92-.294 1.73-.563 2.66-.126.58.275.79.693.58 1.25-.79 2.096-1.25 2.355-3.42 2.471-1.31.071-2.68.128-3.91.53-2.17.703-4.42.95-6.63 1.22-2.5.306-5.01.513-7.47 1.034a5.48 5.48 0 0 1-1.19.14c-.77-.013-1.65.11-1.99-.854-.36-1.007.17-2.128 1.16-2.664a3.947 3.947 0 0 1 2.29-.488c.66.058 1.32.084 1.98.104.53.017 1.06.003 1.59.003zm-95.73 8.712c.24-1.822.41-3.66.76-5.463.55-2.849 1.36-5.653 1.29-8.593-.03-1.167.49-2.02 1.46-2.623.74-.455 1.52-.526 2.23-.026.69.483 1.01 1.234.89 2.063-.07.508-.36.982-.52 1.48-1.15 3.512-1.88 7.124-2.45 10.767-.23 1.44-.35 2.83.39 4.241.53 1.024-.03 2-1.1 2.516-.91.434-2.02-.14-2.56-1.235-.5-1.019-.33-2.059-.39-3.127zM28.402 13.793c.08-1.184.08-2.382.27-3.549.18-1.082.1-2.044-.33-3.072-.64-1.546-.42-2.16.78-2.935.33-.213.7-.365 1.06-.512 1.09-.44 2.1.103 2.45 1.25.2.664.05 1.285 0 1.94-.21 2.76-.39 5.522-.49 8.287-.06 1.967-.15 3.937 1.2 5.674.58.746-.14 1.863-1.12 2.046-1.28.24-2.34-.239-3.04-1.34-.51-.81-.69-1.697-.69-2.638.01-1.716 0-3.432 0-5.148l-.09-.003zm-12.63 297.138c-.18-.998 1.61-2.446 2.47-1.998 1.54.809 3.25 1.117 4.83 1.769 3.1 1.28 6.3 1.855 9.62 2.048.92.054 1.84.208 2.77.28 2.21.17 2.26 1.192 1.71 3.006-.2.668-.84 1.05-1.57.914-3.64-.687-7.28-1.356-10.89-2.15-2.07-.454-4.06-1.231-6.19-1.417-1.58-.138-2.06-1.472-2.75-2.452zm119.1 4.734a3.008 3.008 0 0 1-1 2.148c-3.05 2.739-4.39 6.517-6.2 10-1.33 2.563-2.45 5.236-3.67 7.858-.3.653-.79 1.036-1.54.97-.74-.067-1.14-.57-1.43-1.194-.31-.657-.31-1.36.18-1.85 1.61-1.642 2.32-3.803 3.48-5.701 1.04-1.704 1.8-3.49 2.55-5.318 1.05-2.558 2.19-5.088 3.83-7.34.76-1.037 1.67-1.344 2.72-1.01.63.2 1.14.903 1.08 1.437zm-49.86 24.568c-.26-.11-.68-.183-.97-.42-1.15-.951-1.8-2.218-2.23-3.645-.96-3.148-1.82-6.32-2.27-9.58-.28-1.996-.77-3.822-2.04-5.477-.9-1.175-.32-2.638 1.01-3.28.86-.412 2.07-.03 2.31.85.74 2.8 1.89 5.49 2.21 8.402.41 3.686 1.01 7.313 3.06 10.538.54.85-.15 2.499-1.08 2.612zm149.52-80.06c.01.13-.33.819-1.13 1.186-3.82 1.748-6.13 4.844-7.68 8.6-.42 1.002-1.12 1.355-2.16 1.343-1.16-.014-2.06-.403-2.58-1.474-.39-.81-.12-1.59.33-2.235.98-1.4 1.96-2.83 3.12-4.075 1.88-2.017 3.95-3.857 5.85-5.852.76-.794 1.53-.964 2.47-.625 1.08.388 1.68 1.243 1.78 3.132zM87.082 39.61c-1.17-.04-1.79-.638-1.71-1.678.11-1.326.36-2.622 1.05-3.788 2.16-3.633 4.22-7.319 5.8-11.258.33-.842.98-1.564 1.5-2.328.66-.967 1.71-1.169 2.76-1.327.6-.09.98.262 1.24.764.24.475.52 1.061.08 1.462-3.62 3.323-4.72 8.198-7.44 12.077a8.722 8.722 0 0 0-1.61 4.825c-.02.997-.79 1.266-1.67 1.251zm139.22 74.074c.55-2.007 1.03-4.207 1.76-6.318.92-2.638 1.61-5.29 1.89-8.079.14-1.329.38-2.49-.36-3.803-.66-1.18.31-2.612 1.68-2.983 1.25-.342 2.53.556 2.39 1.838-.26 2.361-.53 4.737-1.04 7.051-.69 3.092-1.58 6.14-2.45 9.185-.26.91-.35 1.802-.37 2.731-.01.645-.06 1.323-.28 1.92-.23.642-.79 1.083-1.53 1.011-.72-.07-1.18-.54-1.41-1.21-.12-.37-.16-.766-.28-1.343zm64.62-71.168c.06-.365.12-1.172.36-1.925 1.41-4.546 2.88-9.077 3.9-13.735.15-.672.57-1.17 1.16-1.546.86-.554 1.97-.55 2.54.108.55.622.85 1.326.41 2.171-.43.822-.81 1.665-1.23 2.494-1.66 3.34-2.48 6.943-3.32 10.542-.26 1.088-.31 2.076.47 2.988.57.658.28 1.205-.35 1.624-.89.595-1.79 1.18-2.91.48-1.06-.663-1.2-1.668-1.03-3.2zm-115.63 214.347c-1.02-.27-1.76-1.086-2.13-2.317-.75-2.52-1.56-5.024-2.29-7.551a27.33 27.33 0 0 0-3.27-7.168c-.28-.44-.51-.933-.67-1.428-.27-.779.28-1.713 1.24-2.223.66-.347 1.62-.115 2.05.623.53.908 1.03 1.853 1.39 2.838 1.27 3.47 2.49 6.962 3.72 10.448.57 1.616 1.18 3.219 1.67 4.859.27.906-.67 2.05-1.71 1.919zm-6.35-85.595c-1.4-.077-2.37-.924-2.68-2.484-.35-1.815-.76-3.639-.87-5.477-.18-2.814-.71-5.495-2.05-8-.24-.454-.34-.997-.43-1.512-.23-1.364.46-2.365 1.77-2.647.96-.203 2.14.47 2.52 1.505.17.486.14 1.041.29 1.544 1.07 3.85 1.09 7.857 1.78 11.763.26 1.426.51 2.854.68 4.291.07.644-.51.841-1.01 1.017zm-2.56 140.748c-1.45.065-3.32-2.036-2.52-3.156 2.93-4.117 3.68-9.301 6.74-13.326.24-.313.46-.644.72-.932.61-.663 1.5-.817 2.13-.397.84.552 1.23 1.617.87 2.37-.05.119-.11.244-.19.345-3.19 4.003-4.49 8.848-6.05 13.58-.26.806-.7 1.408-1.7 1.516zm-49.62-159.615c.27-3.977 1.09-7.72 1.84-11.47.32-1.592 1.4-2.307 2.81-2.321 1.36-.014 2.38 1.312 1.64 2.393-1.56 2.26-1.96 4.844-2.58 7.401-.68 2.811-.59 5.455.85 8.034.67 1.192.43 1.838-.5 2.265-1.11.507-2.16.27-2.76-.728-1.06-1.754-1.29-3.718-1.3-5.574zM32.112 68.76c-.05-1.723.33-3.938-.43-6.165-.51-1.497.44-2.523 2.02-2.717 1.62-.198 2.56.574 2.56 2.185-.01.92-.03 1.866-.25 2.752-.47 1.95-.45 3.92-.47 5.897 0 .79.07 1.63-.16 2.354-.56 1.702-.52 3.302-.01 5.027.43 1.451-.8 2.527-2.33 2.273-.7-.118-1.26-.479-1.3-1.246-.05-.917-.11-1.856.03-2.757.35-2.36.38-4.728.34-7.603zm95.06 39.482c4.03.983 7.37-.404 10.74-1.519 1.64-.542 3.24-1.164 4.99-1.19.51-.009 1.07.07 1.54.265.32.133.67.506.75.832.28 1.28-1.1 3.771-2.3 4.3-.54.237-.68-.2-.88-.505-.28-.427-.43-1.038-.81-1.277-.58-.356-1.28-.092-1.92.108-2.65.83-5.31 1.615-7.95 2.48-1.93.634-3.92.472-5.89.523-.7.017-1.25-.502-1.42-1.188-.18-.677.06-1.329.58-1.798.82-.74 1.79-1.098 2.57-1.03zm-50.8 98.803c-.23-.058-.75-.135-1.23-.325-1.06-.416-1.49-1.615-.97-2.632.18-.349.35-.747.63-.995 3.11-2.744 5.26-6.223 7.43-9.679.62-.98 1.46-.973 2.4-.779.74.15 1.28.638 1.16 1.357-.37 2.306-.45 4.828-3.16 5.878-1.25.483-1.84 1.415-2.04 2.682-.1.65-.26 1.296-.45 1.926-.55 1.83-1.58 2.572-3.77 2.567zm267.46 85.743c.48.057.61.067.74.088.59.095.97.51 1.11 1.005a1.03 1.03 0 0 1-.64 1.282c-1.74.592-3.5 1.142-5.27 1.64-3.67 1.032-7.41 1.825-10.89 3.49-1.64.784-3.51.368-4.32-.712a1.39 1.39 0 0 1-.12-1.5c.76-1.354 1.9-2.1 3.51-2.134 4.25-.092 8.27-1.445 12.38-2.328 1.28-.276 2.55-.604 3.5-.831zM28.022 101.139c-3.24-.145-5.81.511-8.38 1.151-2.05.511-4.1 1.073-6.15 1.573-1.04.252-2.01-.206-2.32-1.006-.34-.872.07-1.578.61-2.163.64-.682 1.39-1.332 2.42-1.106 2.18.48 4.18-.29 6.24-.74 3.11-.677 6.23-1.338 9.45-.998 1.29.138 1.69.55 1.61 1.712-.08 1.303-.72 1.87-2.07 1.78-.66-.045-1.31-.187-1.41-.203zm34.69-83.934c-.87-.285-1.41-.647-1.65-1.307-.21-.549-.01-1.036.39-1.419.77-.729 1.57-1.412 2.67-1.574 5.22-.768 10.1-2.834 15.23-3.948a9.225 9.225 0 0 1 1.55-.209c.61-.026 1.14.776.98 1.406-.34 1.335-1.12 2.362-2.22 3.144-.45.32-1.09.443-1.48.11-.98-.829-1.95-.56-2.97-.243-3.75 1.173-7.51 2.341-11.26 3.526-.48.152-.94.386-1.24.514zm38.1 100.578c.04-1.067.12-3.036.46-5.006.23-1.386.57-2.832-.15-4.278-.43-.87-.05-1.825.51-2.612.59-.819 2.4-1.423 3.17-.999 1.02.562.82 1.54.68 2.465-.81 5.35-1.83 10.678-1.64 16.133.03.96-.54 1.59-1.32 1.671-.78.081-1.64-.48-1.69-1.319-.08-1.71-.02-3.427-.02-6.055zm27.72 59.157c-.08-1 .26-1.844 1.07-2.428 4.1-2.965 7.35-6.84 10.98-10.308.8-.77 1.96-.782 2.77-.013.64.61.71 1.72.02 2.521-.77.895-1.56 1.847-2.54 2.482-3.03 1.976-5.61 4.375-7.45 7.503-.77 1.314-1.97 1.668-3.34 1.763-.79.056-1.48-.67-1.51-1.52zm209.77 65.11c.65.13 1.3.215 1.93.403.66.2 1.24.664 1.27 1.37.04.877-.75.887-1.39 1.01-5.08.97-9.97 2.548-14.64 4.782-.83.397-1.67.818-2.55 1.075-.81.239-1.57-.048-2.08-.783-.49-.717-.3-1.855.52-2.48.51-.391 1.1-.733 1.72-.91 3.81-1.102 7.61-2.201 11.31-3.681 1.2-.483 2.58-.533 3.91-.787zm-140.81-116.683c-.17.307-.26.773-.54.951-.99.638-2 1.281-3.09 1.74-4.36 1.847-8.98 2.993-13.26 5.07-1 .483-2.28-.164-2.59-1.099-.4-1.18.11-2.68 1.06-3.095.23-.104.49-.192.75-.229 4.98-.723 9.63-2.588 14.33-4.288.77-.278 1.5-.456 2.29-.237.58.16.77.653 1.05 1.187zm89.53 87.27c-.11 1.077-.79 1.657-1.77 1.837-1.42.26-2.82.59-4.22.96-3.46.916-6.76 2.142-9.74 4.158-.11.073-.22.151-.34.213-1.2.648-2.31.514-2.8-.335-.59-1.028-.02-2.884 1.13-3.387 1.08-.47 2.23-.778 3.34-1.167 3.6-1.256 7.2-2.509 10.8-3.779.75-.268 1.5-.446 2.31-.257.73.17 1.35.99 1.29 1.757zm-170.84-128.28c-.09.781-.54 1.192-1.25 1.353-.85.192-1.64-.008-2.14-.696-.7-.956-1.36-1.959-1.87-3.023-1.38-2.869-2.74-5.714-4.96-8.079-.95-1.014-.71-2.185.36-3.135.91-.817 2.37-.77 3.2.201.41.487.65 1.125.95 1.707 1.56 3.061 2.83 6.286 4.9 9.075.58.781.7 1.697.81 2.596zm-106.18 44.497c.05-.76.38-1.17.85-1.437 1.27-.722 2.82-.342 3.32.97 1.83 4.8 4.12 9.447 4.94 14.594.09.522.29 1.018.03 1.532-.25.492-.61.831-1.18.942-.47.09-.79-.146-1-.468-.35-.55-.72-1.12-.93-1.734-1.61-4.617-3.44-9.134-5.77-13.439-.18-.332-.2-.75-.26-.96zM123.882 2.238c1.29-.119 2.06.336 2.55 1.203 1.82 3.217 4.11 6.1 6.32 9.048.31.414.59.895.72 1.39.2.79.12 1.58-.63 2.113-.76.54-1.53.38-2.18-.145a10.945 10.945 0 0 1-1.66-1.687c-2.3-2.885-4.56-5.792-6.83-8.698-.16-.205-.26-.457-.38-.693-.53-1.095-.05-2.092 1.17-2.39.39-.093.78-.12.92-.14zm168.77 8.518c-.02.67-.5 1.3-1.3 1.577-4.82 1.681-7.85 5.57-11.23 9.04-.63.651-.98 1.55-1.86 2.002-.71.366-1.67-.09-1.8-.907-.12-.819-.08-1.674.51-2.228 3.55-3.323 6.41-7.343 10.42-10.2 1.08-.774 2.2-1.444 3.61-1.348.96.065 1.71.871 1.65 2.064zM47.932 116.201c-.07-1.588.65-2.729 1.94-3.088 1.13-.316 2.22.308 2.38 1.433.21 1.438.39 2.882.52 4.328.29 3.17.74 6.305 1.66 9.365.35 1.157-.06 1.826-1.09 2.173-1.22.412-2.19.036-2.55-1.088-.33-1.002-.62-2.026-.79-3.062-.51-3.129-.65-6.33-1.96-9.292-.1-.229-.08-.512-.11-.769zm-39.82 181.24c-.78-.215-1.21-.687-1.54-1.287-.34-.627-.39-1.264.03-1.856.22-.314.53-.587.84-.815 3.73-2.712 7.46-5.421 11.22-8.103a6.253 6.253 0 0 1 1.75-.89c1.79-.57 3.35.479 3.74 2.44.16.799-.67 1.71-1.38 1.34-1.09-.563-1.9-.363-2.93.163-2.25 1.152-4.3 2.464-6.02 4.4-1.38 1.568-3.13 2.82-4.74 4.18-.28.235-.69.31-.97.428zM180.322 6.397c.06 1.034-.55 1.618-.98 2.26-2.5 3.743-4.94 7.516-6.47 11.79-.18.496-.38.99-.62 1.46-.29.567-1.29.591-1.7.065-.78-.992-1.18-2.046-.63-3.3.74-1.693 1.38-3.432 2.2-5.087 1.11-2.247 2.55-4.31 3.34-6.74.48-1.519 2.45-2.136 3.96-1.482.5.215.88.583.9 1.034zM62.752 34.983c-.06.19-.12.738-.38 1.165-2.48 4.108-3.78 8.707-5.41 13.163-.44 1.201-.97 2.126-2.08 2.74-.63.35-1.27.472-1.84-.003-.68-.564-.95-1.418-.48-2.14 2.2-3.367 3.13-7.283 4.82-10.867.45-.949.77-1.966 1.06-2.979.46-1.652 1.2-2.35 2.89-2.564.57-.072 1.36.578 1.42 1.485zm165.77 14.1c.17.936-.25 1.633-.67 2.293-1.7 2.7-2.86 5.643-3.93 8.626-.58 1.605-1.26 3.158-.95 4.974.16.925-.69 1.671-1.67 1.81-.97.14-1.43-.512-1.81-1.225-.49-.89-.29-1.768.04-2.67 1.55-4.2 3.05-8.417 4.6-12.613.44-1.18 1.31-1.956 2.57-2.247.72-.166 1.76.476 1.82 1.052zm-83.15-25.152c.14-.819.67-1.405 1.44-1.684 1.04-.374 2.17-.317 3.04.324 3.8 2.815 7.46 5.803 10.69 9.275.57.61.99 1.345.33 2.082-.54.601-1.31.908-2.13.487-.7-.357-1.41-.719-2.02-1.196a31.61 31.61 0 0 1-2.67-2.34c-2.17-2.104-4.35-4.16-7.3-5.177-.73-.253-1.37-.799-1.38-1.77zm163.64 238.675c-.6-.213-1.05-.248-1.31-.486-.68-.617-1.27-1.291-1.54-2.25a56.94 56.94 0 0 0-1.74-5.252c-.81-2.091-1.65-4.178-3.54-5.644-.59-.463-.99-1.25-.66-2.132.47-1.21 1.6-1.333 2.62-1.464.97-.125 1.87.28 2.29 1.235 1.95 4.49 3.62 9.082 4.53 13.913.08.377.08.809-.04 1.166-.11.352-.42.64-.61.914zm-255.2 60.054c-.85-.061-1.43-.57-1.85-1.283-.43-.725-.56-1.502-.08-2.242.21-.324.53-.6.86-.81 2.39-1.523 4.14-3.63 5.81-5.884 1.41-1.897 3.15-3.552 4.81-5.253.44-.452 1.11-.794 1.8-.43.93.492 1.17 1.362 1.16 2.35 0 .76-.32 1.29-1.05 1.47-2.36.595-3.67 2.48-5.03 4.212-1.72 2.182-3.22 4.528-4.84 6.787-.38.533-.82 1.045-1.59 1.083zm176.59-143.335c-.1 1.413.24 3.004-.31 4.541-.26.74-1.33.927-1.93.365-.63-.588-.92-1.337-.87-2.118.27-4.536-.68-8.868-2.05-13.147a3.09 3.09 0 0 1-.07-1.539c.14-.662.65-1.184 1.29-1.37.95-.276 1.84.004 2.46.771.32.39.65.917.66 1.39.09 3.668 1.35 7.247.82 11.107zm-29.71-135.212c-1.08-.214-2.64-.489-4.19-.84-3.23-.737-6.46-1.456-9.77-1.71-.26-.02-.53-.058-.79-.107-1.56-.29-2.32-1.06-2.23-2.275.08-.989 1.36-1.877 2.7-1.83.39.012.83.053 1.16.233 3.34 1.811 7.1 2.032 10.71 2.833 1.42.316 2.84.62 4.25.98.65.165 1.27.476 1.11 1.336-.13.704-.56 1.206-1.27 1.365-.38.084-.79.015-1.68.015zM89.462 182.097c-1.88-.228-3.97-.448-6.06-.753-.86-.125-1.37-.748-1.52-1.61-.17-.972.28-1.989 1.1-2.334.73-.308 1.57-.68 2.29-.25 3.48 2.067 7.17 1.267 10.83.933.52-.047 1.05-.252 1.56-.203.51.048 1.02.274 1.48.513.49.26.73.755.75 1.307.02.586-.32 1.013-.81 1.252-.46.228-.98.428-1.49.475-2.63.246-5.26.44-8.13.67zm42.65-119.395c-1.64 0-2.19-1.115-1.89-1.847.38-.924 1.12-1.496 1.93-1.934 3.95-2.15 7.71-4.658 11.84-6.479 1.57-.692 3.09-1.51 4.66-2.2.62-.278 1.31-.214 1.77.413.37.498.13 1.758-.42 2.173-.3.237-.65.468-1.02.577-2.18.647-4.09 1.846-6.12 2.79-3.27 1.514-6.36 3.268-9.15 5.54-.75.601-1.57.966-1.6.967zm-45.1 12.376c-.9-.157-1.59-.505-1.85-1.37-.85-2.827-2.43-5.27-3.95-7.76a20.059 20.059 0 0 0-2.36-3.173c-.94-1.047-.84-2.172.17-3.043.62-.539 1.68-.535 2.12.09a437.19 437.19 0 0 1 4.96 7.184c.97 1.42 1.74 2.951 2.9 4.258 1.19 1.342.94 2.302-.6 3.172-.46.26-.96.446-1.39.642zm-79.05 110.26c-.03-.665 1.15-1.632 1.91-1.244 1.41.712 2.97 1.328 4.08 2.392 2.82 2.727 6.24 4.39 9.75 5.912.88.38 1.74.695 2.1 1.64.13.338.14.843-.03 1.133-.17.282-.63.536-.97.543-1.36.03-2.59-.545-3.76-1.11-4.05-1.949-7.93-4.208-11.54-6.905-.74-.558-1.5-1.096-1.54-2.362zm60.23 73.32c.31-1.248.57-2.958 1.15-4.552.82-2.233 1.56-4.465 2.08-6.791.54-2.443 2.57-2.954 4.42-1.222.5.474.81 1.03.41 1.742-.25.459-.45.966-.76 1.38-2.21 2.908-3.43 6.183-3.79 9.806-.06.648-.24 1.298-.45 1.914-.26.714-.9.91-1.59.917-.78.007-1.21-.438-1.32-1.171-.08-.52-.08-1.05-.15-2.022zm128.04-228.997c.16-.776.24-1.57.49-2.31.42-1.248.89-2.489 1.44-3.683 1-2.14 2.25-4.13 2.78-6.515.47-2.068 2.17-2.43 4.03-1.2.84.551.97 1.02.44 1.983-1.53 2.771-3.17 5.485-4.61 8.301-.9 1.751-1.49 3.658-2.28 5.466-.12.281-.61.581-.91.554-.3-.027-.7-.38-.84-.69-.26-.588-.36-1.246-.54-1.906zM18.712 45.442c-.46-.089-.71-.136-.97-.19-1.18-.243-1.65-1.517-.91-2.426.52-.63 1.14-1.114 1.92-1.323.76-.203 1.53-.37 2.31-.478 3.84-.532 7.31-2.06 10.67-3.91.44-.247.93-.494 1.42-.565.65-.094 1.35-.01 1.76.614.33.502.12 1.065-.17 1.484-.88 1.292-1.65 2.533-3.69 2.347-1.53-.14-2.99.863-4.42 1.54-1.66.786-3.34 1.537-5.05 2.19-.97.37-2.03.514-2.87.717zm76.39 254.453c.09-.52.15-1.315.38-2.056.69-2.258 1.42-4.506 2.19-6.74 1.03-2.978 2.12-5.933 3.15-8.91.41-1.196 1.07-2.072 2.35-2.42.86-.234 1.62.276 1.62 1.156.01 1.22-.35 2.328-.98 3.362-2.98 4.873-4.61 10.278-6.19 15.7-.11.378-.07.834-.26 1.14-.19.292-.59.579-.93.61-.52.05-1.01-.214-1.17-.8-.07-.25-.08-.517-.16-1.042zm-19.87-153.3c.08-1.514 1.65-2.637 3.09-2.104 1.11.408 2.21.923 3.2 1.552 1.9 1.196 3.74 2.487 5.57 3.784.54.376 1.01.868 1.42 1.376.58.704.47 1.827-.16 2.545-.64.728-1.66.923-2.5.377-1.11-.716-2.17-1.505-3.25-2.26-1.84-1.293-3.8-2.367-5.93-3.13-.92-.329-1.5-1.066-1.44-2.14zm119.7-66.684c3.05-.21 5.16-.402 7.28-.478.77-.027 1.57.145 2.31.37.63.187 1.02 1.387.76 2.072-.28.745-1.02 1.031-1.61.783-2.54-1.067-4.98-.157-7.38.353-2.62.555-5.24.536-7.86.638-.86.033-1.57-.309-1.79-1.233-.24-1.044.38-2.308 1.36-2.553.75-.187 1.57-.206 2.35-.182 1.84.056 3.68.182 4.58.23zm4.67 15.177c.05-1.269 1.15-2.509 2.23-2.657.55-.077 1.05.136 1.41.555.61.722.93 1.586 1.03 2.52.31 2.742.56 5.493.93 8.226.2 1.424.61 2.817.92 4.225.13.573-.1 1.102-.49 1.427-.56.465-1.21.334-1.83-.038-.59-.354-.94-.843-1.21-1.48-.47-1.113-.59-2.265-.75-3.445-.37-2.862-.59-5.776-1.99-8.403-.18-.33-.2-.742-.25-.93zm-83.74-63.694c.04-.706-.05-1.524.14-2.272.78-3.056 1.51-6.094 1.4-9.298-.04-1.296 1.68-2.126 2.96-1.628.55.21.84.666.9 1.197.13 1.32-.11 2.601-.42 3.89-.45 1.912-.76 3.858-1.21 5.775-.38 1.691-.49 3.37-.1 5.066.13.543.11 1.055-.37 1.412-.58.434-1.23.398-1.86.116-.61-.28-1.13-.725-1.22-1.428-.12-.909-.15-1.83-.22-2.83zm-30.86 91.041c-.1 1.028-1.3 1.998-2.03 1.615-3.58-1.889-6.9-.346-10.27.654-1.13.336-2.22.826-3.35 1.128-1.09.29-1.83-.198-2.1-1.19-.32-1.246.09-2.277 1.09-2.629.37-.13.76-.233 1.15-.268 2.63-.237 5.18-.839 7.74-1.498 1.51-.389 3.12-.47 4.69-.524 1.26-.043 2.3.534 2.84 1.768.15.35.19.745.24.944zm-83.62 44.988c-.92.04-1.66-1.063-1.28-1.95.31-.742.71-1.396 1.61-1.574 4.69-.928 8.97-2.902 13.14-5.178 1.33-.73 3.03.56 2.83 2.117-.11.858-.66 1.544-1.56 1.442-1.73-.193-3.04.66-4.39 1.48-2.96 1.801-6.23 2.761-9.57 3.53-.26.058-.52.09-.78.133zm39.13 110.473c.1-.954.43-1.498 1.08-1.794.7-.322 1.41-.078 1.74.493.64 1.137 1.27 2.335 1.61 3.588 1.56 5.718 3.01 11.464 4.52 17.199.12.49-.15.725-.5.91a.739.739 0 0 1-1.02-.335c-.75-1.678-1.51-3.36-2.11-5.096-.59-1.742-.99-3.552-1.47-5.333-.72-2.668-1.39-5.348-3-7.68-.44-.63-.63-1.43-.85-1.952zm293.18-106.917c.66.005 1.35-.062 1.89.393 3.29 2.765 7.34 4.15 11.04 6.15.23.123.5.242.65.438.23.288.48.633.52.973.04.514-.45.573-.83.604a6.71 6.71 0 0 1-3.11-.469c-2.67-1.093-5.59-1.537-8.11-3.092-.86-.524-2.03-.522-3.04-.793-1.12-.3-1.77-1.256-1.63-2.334.13-.942.82-1.633 1.83-1.8.26-.044.53-.049.79-.07zm-178.38 45.773c.06-.38.07-.789.19-1.164 1.46-4.663 2.91-9.33 4.42-13.977.37-1.16 1.28-1.687 2.04-1.432.97.323 1.42 1.406.96 2.65-.83 2.232-1.75 4.43-2.6 6.654-.99 2.565-2.44 5.054-1.14 7.98.15.348-.22 1.014-.48 1.447-.65 1.055-1.91 1.032-2.64.08-.52-.677-.6-1.452-.75-2.238zM21.142 73.032c-.32-.072-.89-.06-1.32-.309-3.64-2.13-7.15-4.458-10.06-7.56-1.02-1.079-.77-2.044.59-2.883 1.34-.828 2.17-.846 3.11.368 1.79 2.33 3.95 4.208 6.35 5.861 1.11.765 1.69 1.996 2.19 3.211.23.535-.11.991-.86 1.311zm61.43 15.466c.57.088 1.03.402 1.15.936.08.326-.04.798-.25 1.074-1.31 1.744-3.22 2.767-5.04 3.788a55.424 55.424 0 0 0-6.31 4.106c-.94.702-2.05 1.183-3.09 1.74-.69.37-1.27.134-1.74-.428-.52-.618-.5-1.667.12-2.14.73-.557 1.53-1.025 2.32-1.489 2.4-1.399 4.86-2.7 7.2-4.194 1.21-.773 2.55-1.408 3.47-2.615.52-.674 1.35-.778 2.17-.778zm72.76-12.317c.63.15 1.02.214 1.39.335.66.217.91 1.594.34 2.02-.41.306-.89.616-1.37.721-4.41.945-8.67 2.37-12.87 3.974-.49.188-1 .346-1.5.49-.68.191-1.36.16-1.81-.435-.58-.782-.14-1.523.33-2.174.21-.3.57-.649.9-.699 3.97-.593 7.35-3 11.3-3.616 1.17-.182 2.34-.436 3.29-.616zM3.382 249.011c-1.13-.035-1.68-1.404-1.29-2.233.3-.65.85-1.006 1.42-1.308 3.6-1.922 7.06-4.048 10.42-6.383 2.46-1.704 5.32-2.83 8.01-4.179.39-.193.77.08.9.472.07.197 0 .548-.15.69-.37.363-.79.7-1.24.956-4.82 2.73-9.05 6.318-13.65 9.36-1.1.725-2.17 1.48-3.29 2.172-.43.262-.94.38-1.13.454zm35.75 79.965c.08 1.277-.12 1.918-.7 2.317-1.71 1.176-2.1 3.015-2.27 4.828-.19 1.887-.81 3.599-1.46 5.33-.21.562-.68.8-1.22.835-.74.045-1.29-.365-1.54-1.015-.19-.472-.29-1.037-.23-1.533.11-.78.36-1.544.59-2.302.81-2.655 1.62-5.31 2.46-7.955.24-.754.54-1.493.88-2.207.39-.806 1.09-1.102 1.97-1 .79.093 1.1.649 1.26 1.323.15.64.25 1.293.26 1.379zm75.42-276.642c-.2-.045-.74-.094-1.22-.284a740.328 740.328 0 0 1-9.51-3.84c-.35-.144-.67-.43-.93-.715-.4-.435-.41-.985-.09-1.449.96-1.39 2.27-1.867 3.74-1.143 2.97 1.451 5.99 2.732 9.12 3.767.83.273 1.43.765 1.34 1.688-.09 1.05-1.17 1.981-2.45 1.976zm72.4 113.291c-.1-.643.31-1.502.64-2.355 1.72-4.436 3.46-8.862 5.23-13.278.24-.598.61-1.183 1.05-1.65.6-.636 1.41-.699 2.19-.329.5.235.86.667.64 1.262a5.62 5.62 0 0 1-.73 1.397c-2.94 4.003-4.17 8.781-6.11 13.237-.55 1.261.08 2.322.08 3.473 0 .72-.57 1.215-1.27 1.286-.53.054-1-.294-1.26-.808-.12-.235-.26-.472-.31-.724-.08-.387-.09-.788-.15-1.51zm-18.04-101.527c-.34-1.503.16-2.78.42-4.056.28-1.3.49-2.532.31-3.9-.23-1.859 1.03-2.984 2.86-2.865 1.02.067 1.75.8 1.65 1.824a29.94 29.94 0 0 1-.59 3.517c-.72 3.218-1.48 6.427-2.23 9.637-.12.525-.36 1.056-1 .946-.33-.057-.78-.36-.88-.653-.53-1.482-1.34-2.95-.54-4.45zm96.65 58.983c0 .005-.12.514-.34.973-1.04 2.13-2.14 4.232-3.16 6.375-.88 1.874-2.19 3.605-1.82 5.914.14.831-.57 1.43-1.34 1.771-.87.388-2.06-.202-2.12-1.115-.04-.772-.05-1.612.21-2.323.62-1.733 1.36-3.428 2.13-5.103.87-1.908 2.07-3.662 2.3-5.849.11-1.094.89-1.888 1.84-2.445.49-.288 1.02-.269 1.5.02.46.28.82.667.8 1.782zm-228 3.215c-2.28.483-4.77-.853-7.43-.839-1.45.008-1.95-1.782-1-3.005.94-1.212 2.02-1.79 3.01-1.168 2.16 1.355 4.55 1.194 6.9 1.42.77.075 1.59-.074 2.27.481.64.522 1.2 1.157.95 2.008-.2.65-.84 1.035-1.53 1.086-.92.07-1.84.017-3.17.017zm12.02-34.045c-.59-.044-1.09-.202-1.42-.665-.51-.697-.09-1.23.36-1.723 2.39-2.632 4.71-5.346 7.55-7.525 2.12-1.623 3.82-3.638 5.34-5.817.37-.525.8-1.063 1.34-1.397.57-.36 1.27-.339 1.79.245.52.573.57 1.268.06 1.774-1.58 1.567-3.14 3.182-4.88 4.555-3.45 2.717-6.59 5.662-8.65 9.617-.31.595-.73 1.116-1.49.936zm12.05 85.935c-1.18-.04-2.14-1.319-1.71-2.558.61-1.728 1.29-3.468 2.21-5.042 1.06-1.81 2.43-3.44 3.65-5.16.48-.68 1.17-1.052 1.9-1.36.52-.218 1.04-.208 1.43.261.44.541.7 1.242.28 1.817-.77 1.054-1.74 1.961-2.54 3-1.68 2.195-3.4 4.368-3.37 7.384.01.98-.96 1.688-1.85 1.658zm-14.33 33.035c.2-1.467.37-2.858 1.24-4.12 1.66-2.397 2.82-5.03 3.37-7.915.25-1.335.89-2.462 2.01-3.269.48-.345 1.04-.32 1.45.031.26.221.46.694.43 1.028a6.605 6.605 0 0 1-.5 1.9c-1.9 4.453-3.83 8.895-5.78 13.332-.22.5-.67.824-1.24.785-.88-.06-.91-.772-.98-1.42-.01-.13 0-.263 0-.352zm110.06-81.014c-.04.26-.03.533-.12.768-.26.658-.83.976-1.42 1.3-3.16 1.712-6.03 3.807-8.66 6.261-.86.801-1.89 1.431-2.89 2.06-.58.367-1.26.398-1.81-.132-.53-.502-.57-1.616-.09-2.194.16-.2.34-.407.55-.546 4-2.588 7.98-5.189 12.01-7.716.5-.316 1.26-.26 1.91-.29.16-.008.35.318.52.49zm91.69-82.166c-.27.02-.56.127-.77.04-.47-.19-1.1-.377-1.29-.754-.3-.604.32-.768.81-.969.59-.242 1.11-.642 1.69-.914.69-.32.32-1.835 1.43-1.45.82.286.2 1.445.67 2.075.24.313.53.598.71.94.24.453-.17 1.07-.67 1.108-.87.065-1.71-.797-2.58-.076zm-7.44 15.687c-.01-.212.14-.477.3-.642.32-.332.71-.22.98.05.51.491.65 1.07.19 1.681-.07.088-.21.21-.28.191-.67-.167-1.16-.55-1.19-1.28zm13.59-18.653c-.11-.036-.28-.04-.32-.113-.12-.232.03-.364.36-.304.1.018.18.151.27.232-.1.062-.21.123-.31.185z" fill-rule="evenodd" filter="url(#a)" fill="rgba(0, 0, 0, 1)" stroke="none"/>
</svg>
</g></svg></g></g>
<!-- /image 06313 -->
</defs><rect x="0" y="0" width="245" height="242" fill="rgba(196, 63, 63, 0)"></rect><use xlink:href="#transformed-06313" transform="translate(-245, -242)"></use><use xlink:href="#transformed-06313" transform="translate(0, -242)"></use><use xlink:href="#transformed-06313" transform="translate(245, -242)"></use><use xlink:href="#transformed-06313" transform="translate(-245, 0)"></use><use xlink:href="#transformed-06313" transform="translate(0, 0)"></use><use xlink:href="#transformed-06313" transform="translate(245, 0)"></use><use xlink:href="#transformed-06313" transform="translate(-245, 242)"></use><use xlink:href="#transformed-06313" transform="translate(0, 242)"></use><use xlink:href="#transformed-06313" transform="translate(245, 242)"></use></svg>