<svg xmlns="http://www.w3.org/2000/svg" width="352" height="343" viewBox="0 0 352 343">
  <defs>
    <filter id="pattern-1-a">
      <feColorMatrix in="SourceGraphic" values="0 0 0 0 1.000000 0 0 0 0 1.000000 0 0 0 0 1.000000 0 0 0 1.000000 0"/>
    </filter>
  </defs>
  <g fill="none" fill-rule="evenodd" filter="url(#pattern-1-a)">
    <path fill="#000" d="M238.631968 326.024753C238.881968 324.639753 239.671968 323.685753 240.811968 323.266653 243.201968 322.390653 245.331968 321.050753 247.461968 319.733653 249.501968 318.467753 251.771968 317.742753 253.851968 316.587653 257.101968 314.784753 260.241968 312.837653 263.191968 310.576753 264.311968 309.718653 265.471968 310.180753 266.421968 311.704653 266.911968 312.488653 266.661968 313.529753 265.751968 314.094653 263.391968 315.558653 261.111968 317.211753 258.601968 318.366653 253.271968 320.816753 248.351968 323.866653 243.651968 327.346753 241.941968 328.618753 240.521968 328.446753 239.121968 326.983653 238.871968 326.716753 238.771968 326.302653 238.631968 326.024753zM346.501968 279.962653C346.351968 279.881653 345.891968 279.784753 345.711968 279.503753 344.861968 278.216753 343.611968 277.503753 342.251968 276.968653 338.171968 275.353653 334.591968 272.850653 330.981968 270.434653 328.461968 268.744653 325.981968 267.015653 323.241968 265.675753 322.351968 265.238653 321.701968 264.624653 321.941968 263.510653 322.171968 262.422653 323.041968 261.675753 324.181968 261.627653 325.111968 261.587653 325.991968 261.723653 326.771968 262.362753 328.601968 263.867753 330.461968 265.326753 332.311968 266.807653 334.781968 268.788653 337.331968 270.613653 340.271968 271.889753 342.431968 272.825653 344.261968 274.391653 346.461968 275.305753 347.601968 275.776653 348.141968 276.935753 348.331968 278.173653 348.471968 279.101653 347.561968 280.136653 346.501968 279.962653zM248.881968 280.300753C250.331968 272.381653 250.481968 265.238653 251.251968 258.161653 251.361968 257.241653 251.361968 256.328653 251.741968 255.450653 252.211968 254.331753 252.881968 253.742753 253.721968 253.851653 254.841968 253.996653 255.951968 255.217753 255.931968 256.289753 255.921968 256.550753 255.911968 256.832653 255.801968 257.064653 253.951968 261.302653 254.101968 265.868753 253.801968 270.323653 253.581968 273.606653 253.011968 276.895653 253.381968 280.213653 253.421968 280.587653 253.281968 280.992753 253.181968 281.368753 252.951968 282.163653 252.121968 282.659753 251.341968 282.489653 249.661968 282.121653 248.801968 280.997753 248.881968 280.300753zM297.311968 155.954053C297.341968 155.051053 297.621968 154.210053 298.551968 153.719053 299.451968 153.240053 300.401968 153.276053 301.171968 153.870053 303.991968 156.047053 307.241968 157.632053 309.801968 160.145053 312.361968 162.655053 315.321968 164.625053 318.221968 166.670053 318.661968 166.974053 319.071968 167.306053 319.501968 167.603053 320.161968 168.050053 320.851968 168.424053 320.641968 169.442053 320.411968 170.559053 319.701968 171.362053 318.631968 171.587053 317.741968 171.773053 317.171968 171.271053 316.551968 170.734053 312.881968 167.523053 309.271968 164.251053 305.291968 161.410053 303.121968 159.865053 300.831968 158.590053 298.441968 157.486053 297.781968 157.183053 297.371968 156.760053 297.311968 155.954053zM277.631968 317.552653C277.711968 316.247753 278.771968 315.094653 280.181968 314.700653 281.221968 314.409753 281.961968 314.914753 282.591968 315.670753 287.211968 321.268753 291.841968 326.868753 296.471968 332.469653 296.721968 332.773753 296.981968 333.078653 297.181968 333.417653 297.641968 334.214653 297.261968 335.304653 296.381968 335.770653 294.931968 336.544753 293.861968 336.313653 293.071968 334.915753 290.781968 330.855653 287.861968 327.277653 284.661968 323.927653 283.021968 322.220653 281.491968 320.377653 279.081968 319.601653 278.171968 319.307653 277.661968 318.462653 277.631968 317.552653zM258.971968 155.949053C258.141968 161.753053 259.301968 167.928053 259.271968 174.122053 259.261968 175.565053 259.571968 177.007053 259.701968 178.454053 259.751968 179.104053 259.771968 179.772053 259.691968 180.416053 259.611968 180.975053 259.161968 181.335053 258.621968 181.454053 258.101968 181.571053 257.561968 181.479053 257.161968 181.075053 256.361968 180.281053 256.091968 179.273053 256.081968 178.187053 256.061968 176.203053 256.041968 174.219053 256.061968 172.235053 256.121968 167.596053 255.291968 163.027053 254.961968 158.419053 254.871968 157.130053 254.541968 155.857053 253.981968 154.624053 253.431968 153.414053 254.211968 152.259053 255.531968 151.959053 256.041968 151.845053 256.581968 151.818053 257.101968 151.848053 258.131968 151.906053 258.871968 152.585053 258.961968 153.566053 259.021968 154.221053 258.971968 154.887053 258.971968 155.949053zM280.171968 301.514753C278.551968 301.301653 277.201968 300.207653 276.191968 298.816753 272.371968 293.583653 269.121968 288.006653 266.561968 282.048653 266.351968 281.572653 266.181968 281.056653 266.131968 280.545753 266.021968 279.429653 267.011968 278.236653 268.171968 277.971753 269.211968 277.737753 270.671968 278.583653 271.021968 279.619653 271.061968 279.744653 271.131968 279.875653 271.121968 280.000653 270.911968 283.671653 273.011968 286.514753 274.581968 289.532653 275.311968 290.934653 276.261968 292.224653 276.981968 293.628753 278.101968 295.794753 279.531968 297.615653 281.811968 298.658653 282.581968 299.009653 283.171968 299.560753 282.751968 300.508753 282.391968 301.339653 281.621968 301.535653 280.781968 301.541711 280.651968 301.542653 280.521968 301.530653 280.171968 301.514753zM270.901968 243.480653C269.881968 243.445753 269.341968 243.108653 268.821968 242.666653 267.211968 241.291053 265.581968 239.943053 263.961968 238.567053 260.211968 235.357053 256.091968 232.778053 251.321968 231.332053 251.071968 231.256053 250.811968 231.200053 250.571968 231.100053 249.141968 230.509053 248.531968 229.426053 249.001968 228.347053 249.771968 226.572053 251.401968 225.788053 252.811968 226.660053 254.151968 227.486053 255.281968 228.694053 256.671968 229.400053 260.471968 231.328053 263.881968 233.838053 267.291968 236.331053 269.001968 237.578053 270.611968 238.966053 272.211968 240.348053 272.771968 240.834053 272.671968 241.550053 272.371968 242.176053 272.011968 242.908653 271.571968 243.584653 270.901968 243.480653zM214.791968 291.765653C214.231968 294.072653 213.241968 296.348653 211.631968 298.307653 210.131968 300.138753 208.641968 301.971753 207.311968 303.940753 206.061968 305.791653 204.701968 307.558653 203.891968 309.679653 203.571968 310.529753 203.051968 311.307653 202.221968 311.822653 201.401968 312.329653 200.421968 312.305753 199.671968 311.703653 198.881968 311.065753 198.441968 310.272653 198.861968 309.283653 200.151968 306.231653 202.081968 303.586753 204.201968 301.063653 205.981968 298.944653 207.731968 296.803653 209.511968 294.681653 210.111968 293.963653 210.591968 293.203653 210.801968 292.271653 210.921968 291.763753 211.121968 291.264753 211.351968 290.792653 211.811968 289.849653 212.761968 289.415753 213.621968 289.701753 214.541968 290.007653 214.651968 290.802653 214.791968 291.765653zM133.861968 250.303653C133.461968 250.093653 132.981968 250.153653 132.591968 250.628753 131.831968 251.544753 130.931968 252.382653 130.331968 253.390653 128.271968 256.783653 125.901968 259.983653 124.281968 263.639753 123.321968 265.813653 122.211968 267.921653 121.191968 270.071753 120.751968 270.995653 120.121968 271.555753 119.051968 271.516653 117.251968 271.451753 116.431968 270.079653 117.271968 268.539753 117.401968 268.307653 117.501968 268.049653 117.671968 267.855653 121.841968 263.175753 124.591968 257.546653 128.021968 252.379653 129.631968 249.962653 131.521968 247.731653 133.311968 245.437653 133.711968 244.919753 134.211968 244.465653 134.701968 244.024753 135.241968 243.536653 135.861968 243.445753 136.511968 243.848653 137.001968 244.150653 137.271968 244.592753 137.251968 245.156653 137.221968 245.677653 137.181968 246.217753 137.021968 246.708653 136.731968 247.585653 136.291968 248.414753 136.021968 249.296653 135.691968 250.391653 135.131968 250.872753 133.861968 250.303653zM237.561968 153.820053C237.461968 155.218053 235.891968 156.864053 234.731968 156.378053 231.711968 155.112053 228.971968 156.336053 226.301968 157.246053 221.191968 158.988053 216.081968 160.807053 211.521968 163.835053 210.431968 164.561053 209.611968 164.382053 208.731968 163.472053 208.031968 162.742053 208.111968 161.633053 208.931968 161.057053 209.251968 160.832053 209.601968 160.630053 209.961968 160.486053 216.201968 157.998053 222.281968 155.079053 228.801968 153.302053 230.581968 152.817053 232.371968 152.375053 234.171968 151.977053 235.081968 151.776053 236.011968 151.797053 236.811968 152.426053 237.251968 152.763053 237.581968 153.141053 237.561968 153.820053zM337.681968 225.817053C336.071968 225.666053 334.411968 224.929053 333.011968 223.643053 332.341968 223.021053 331.731968 222.316053 331.151968 221.593053 328.271968 217.944053 325.001968 214.733053 320.901968 212.444053 320.671968 212.316053 320.461968 212.155053 320.261968 211.987053 319.481968 211.335053 319.061968 210.207053 319.351968 209.570053 319.791968 208.588053 321.301968 207.847053 322.351968 208.282053 323.311968 208.680053 324.261968 209.204053 325.051968 209.873053 327.351968 211.835053 329.591968 213.859053 331.491968 216.262053 333.591968 218.933053 335.681968 221.727053 339.171968 222.844053 339.521968 222.955053 339.801968 223.302053 340.081968 223.579053 340.611968 224.105053 340.261968 225.304053 339.531968 225.537053 339.281968 225.617053 339.031968 225.694053 338.771968 225.737053 338.511968 225.780053 338.251968 225.778053 337.681968 225.817053zM328.991968 153.668053C332.571968 154.035053 335.871968 152.939053 339.191968 152.108053 342.271968 151.339053 345.321968 150.454053 348.391968 149.646053 348.891968 149.513053 349.431968 149.482053 349.961968 149.462053 350.991968 149.425053 351.671968 150.239053 351.521968 151.273053 351.221968 153.265053 350.251968 154.104053 348.311968 153.722053 347.091968 153.480053 345.961968 153.548053 344.791968 153.858053 342.621968 154.435053 340.391968 154.855053 338.261968 155.556053 334.221968 156.883053 329.921968 156.873053 325.851968 158.090053 324.901968 158.374053 323.921968 157.765053 323.581968 156.932053 323.171968 155.888053 323.541968 154.710053 324.431968 154.156053 325.121968 153.721053 325.861968 153.484053 326.681968 153.552053 327.081968 153.584053 327.471968 153.644053 327.871968 153.664053 328.271968 153.683053 328.661968 153.668053 328.991968 153.668053zM230.411968 238.829053C229.451968 238.772053 228.571968 238.523053 228.021968 237.665053 227.521968 236.888053 227.001968 236.109053 226.621968 235.270053 224.321968 230.162053 220.971968 225.731053 217.681968 221.266053 217.211968 220.630053 216.661968 220.036053 216.271968 219.352053 215.741968 218.418053 216.111968 217.124053 216.961968 216.524053 217.831968 215.918053 219.071968 216.021053 219.851968 216.853053 220.301968 217.326053 220.661968 217.888053 220.991968 218.453053 223.451968 222.676053 225.911968 226.901053 228.341968 231.145053 229.321968 232.862053 230.071968 234.723053 231.601968 236.079053 231.691968 236.166053 231.801968 236.262053 231.861968 236.376053 232.171968 237.006053 232.211968 237.666053 231.811968 238.246053 231.501968 238.700053 230.981968 238.866053 230.411968 238.829053zM201.451968 230.204053C200.831968 230.094053 200.241968 229.863053 199.751968 229.372053 197.251968 226.856053 194.691968 224.401053 192.261968 221.818053 190.101968 219.520053 188.111968 217.067053 186.011968 214.715053 185.321968 213.942053 185.051968 213.115053 185.491968 212.190053 186.031968 211.058053 187.691968 210.322053 188.831968 210.619053 189.361968 210.758053 189.761968 211.066053 190.001968 211.579053 192.541968 217.081053 196.771968 221.223053 201.101968 225.275053 201.771968 225.902053 202.431968 226.557053 203.011968 227.262053 203.481968 227.829053 203.351968 228.492053 203.021968 229.109053 202.701968 229.726053 202.211968 230.127053 201.451968 230.204053zM148.031968 192.374053C146.751968 192.523053 146.361968 192.588053 145.971968 192.611053 144.201968 192.711053 143.351968 191.985053 143.451968 190.484053 143.571968 188.809053 144.811968 187.496053 146.231968 187.858053 147.921968 188.285053 149.551968 188.390053 151.291968 188.352053 155.521968 188.260053 159.631968 187.324053 163.801968 186.844053 164.421968 186.773053 164.971968 186.277053 165.581968 186.042053 166.781968 185.573053 167.811968 186.180053 168.231968 187.569053 168.611968 188.826053 168.221968 189.782053 167.111968 190.118053 166.361968 190.346053 165.581968 190.569053 164.801968 190.606053 158.881968 190.890053 153.091968 192.394053 148.031968 192.374053zM52.4617679 242.212053C52.2518679 241.976053 51.8918679 241.729053 51.7618679 241.392053 51.3317679 240.320053 51.6218679 239.350053 52.2518679 238.406053 55.8018679 233.142053 59.2318679 227.793053 63.1917679 222.813053 64.5118679 221.156053 65.8118679 219.491053 67.1118679 217.821053 67.5418679 217.273053 68.0717679 216.950053 68.7518679 216.818053 69.7117679 216.632053 70.7518679 217.454053 70.5318679 218.377053 70.0318679 220.476053 69.2218679 222.478053 67.0817679 223.386053 65.9018679 223.888053 65.1218679 224.655053 64.4318679 225.646053 62.5418679 228.356053 60.5918679 231.029053 58.7418679 233.768053 57.5618679 235.516053 56.4118679 237.271053 55.9818679 239.434053 55.6818679 241.004053 54.2618679 241.650053 52.9218679 242.252053 52.8317679 242.295753 52.6818679 242.234053 52.4617679 242.212053zM129.591968 218.534053C129.471968 217.339053 130.741968 216.192053 131.911968 216.512053 132.671968 216.719053 133.381968 217.085053 134.121968 217.351053 136.241968 218.107053 138.311968 219.054053 140.481968 219.542053 143.371968 220.190053 145.981968 221.408053 148.551968 222.763053 149.721968 223.380053 150.831968 224.060053 152.151968 224.374053 153.661968 224.735053 154.101968 225.679053 153.451968 227.029053 153.281968 227.379053 153.271968 227.800053 153.131968 228.169053 152.881968 228.851053 152.131968 229.144053 151.531968 228.774053 150.521968 228.147053 149.551968 227.464053 148.541968 226.835053 143.521968 223.695053 137.841968 222.431053 132.181968 221.099053 130.711968 220.753053 129.721968 219.750053 129.591968 218.534053zM290.601968 242.972753C290.521968 243.761653 290.381968 244.481653 289.721968 245.080653 285.151968 249.210653 282.181968 254.516653 279.001968 259.674653 278.241968 260.910653 277.541968 262.170753 277.431968 263.676653 277.401968 264.056653 277.231968 264.441753 277.061968 264.791653 276.671968 265.602753 275.571968 265.982753 274.691968 265.650653 273.731968 265.293653 273.241968 264.427653 273.511968 263.444653 273.861968 262.165753 274.501968 261.028653 275.211968 259.903653 278.871968 254.119653 282.511968 248.321753 286.091968 242.483653 286.621968 241.607053 287.221968 241.060053 288.201968 240.931053 289.451968 240.764053 290.541968 241.715053 290.601968 242.972753zM182.211968 202.136053C181.041968 202.198053 180.111968 200.892053 180.491968 199.882053 180.711968 199.281053 181.071968 198.703053 181.481968 198.206053 182.241968 197.294053 183.031968 196.406053 183.881968 195.584053 187.231968 192.354053 189.851968 188.573053 192.351968 184.688053 193.281968 183.253053 194.291968 181.871053 195.311968 180.503053 195.981968 179.612053 196.921968 179.168053 198.051968 179.129053 198.971968 179.097053 199.511968 179.623053 199.911968 180.348053 200.291968 181.029053 200.061968 181.600053 199.501968 182.085053 196.611968 184.623053 194.291968 187.651053 192.081968 190.785053 189.581968 194.343053 186.301968 197.290053 183.991968 201.011053 183.561968 201.719053 182.891968 202.131053 182.211968 202.136053zM203.221968 203.185053C203.271968 201.688053 203.731968 201.045053 205.231968 200.704053 208.701968 199.915053 212.181968 199.139053 215.411968 197.581053 217.541968 196.554053 219.661968 195.485053 221.761968 194.397053 224.111968 193.181053 226.521968 192.134053 229.081968 191.448053 229.691968 191.284053 230.381968 191.268053 231.001968 191.366053 231.301968 191.412053 231.601968 191.853053 231.761968 192.182053 231.841968 192.340053 231.681968 192.757053 231.511968 192.876053 230.751968 193.392053 229.991968 193.909053 229.171968 194.304053 224.901968 196.353053 220.541968 198.185053 216.371968 200.476053 212.931968 202.362053 209.061968 203.457053 205.381968 204.883053 203.981968 205.424053 203.171968 204.766053 203.221968 203.185053zM314.831968 313.624653C315.071968 312.733653 315.641968 312.060753 316.611968 311.757653 317.561968 311.460653 318.471968 311.537653 319.201968 312.253753 319.561968 312.613653 319.821968 313.107753 320.021968 313.585653 321.481968 316.987753 322.981968 320.374653 324.331968 323.821753 325.281968 326.262653 325.751968 328.905653 328.481968 330.250653 329.341968 330.679653 329.011968 332.412653 328.111968 332.980653 326.801968 333.802653 325.091968 333.566753 324.181968 332.352753 323.791968 331.837653 323.571968 331.195753 323.301968 330.598653 322.111968 327.942653 320.901968 325.293653 319.751968 322.620653 318.651968 320.054653 317.371968 317.599653 315.571968 315.446753 315.131968 314.928653 314.731968 314.425753 314.831968 313.624653zM298.451968 97.4381052C296.331968 97.4490528 295.211968 95.7250528 296.341968 93.9820528 297.481968 92.2070528 298.761968 90.4980528 300.121968 88.8900528 303.641968 84.7590528 307.151968 80.6290528 310.301968 76.2110528 311.201968 74.9490528 312.251968 74.5180528 313.681968 74.7930528 314.741968 74.9970528 315.311968 76.4190528 314.711968 77.3170528 314.571968 77.5350528 314.421968 77.7710528 314.221968 77.9260528 310.711968 80.6130528 308.151968 84.1720528 305.411968 87.5650528 304.251968 89.0030528 303.181968 90.5130528 301.961968 91.8980528 300.821968 93.1920528 299.581968 94.3290528 299.871968 96.3410528 299.971968 96.9990528 299.161968 97.3600528 298.451968 97.4381052zM19.4218679 254.094653C19.1718679 252.222753 20.8018679 251.548653 22.2117679 251.622753 22.8317679 251.654753 23.4718679 251.986653 24.0418679 252.297653 27.5018679 254.191753 30.9118679 256.172653 34.4018679 258.011653 36.0218679 258.866653 37.7818679 259.448653 39.4617679 260.190753 40.6718679 260.722753 41.3317679 261.775653 41.0518679 262.592753 40.7218679 263.572653 39.4417679 264.039753 38.0817679 263.651653 37.0717679 263.362753 36.1318679 262.953653 35.1818679 262.466753 31.9118679 260.783653 28.5618679 259.230653 25.2418679 257.653653 23.9318679 257.035653 22.6418679 256.433653 21.1718679 256.205653 19.7117679 255.980653 19.4517679 255.523753 19.4218679 254.094653zM210.101968 125.935053C210.261968 124.800053 210.911968 124.210053 211.781968 123.769053 212.481968 123.412053 213.091968 123.647053 213.591968 124.088053 215.671968 125.930053 218.051968 127.345053 220.371968 128.847053 224.131968 131.285053 227.981968 133.536053 232.401968 134.590053 233.241968 134.789053 233.351968 135.500053 232.751968 136.293053 232.671968 136.397053 232.571968 136.488053 232.471968 136.565053 231.851968 137.016053 232.061968 138.140053 231.021968 138.267053 230.061968 138.386053 229.171968 138.226053 228.381968 137.704053 223.101968 134.233053 217.551968 131.237053 212.101968 128.061053 211.541968 127.734053 210.991968 127.341053 210.531968 126.888053 210.281968 126.639053 210.211968 126.201053 210.101968 125.935053zM162.531968 271.201753C159.801968 271.074653 157.221968 271.547653 154.671968 272.208653 153.651968 272.471753 152.591968 272.601653 151.541968 272.656653 148.391968 272.821753 145.231968 272.943653 142.081968 273.033653 140.871968 273.068653 140.041968 272.308653 139.881968 271.198653 139.701968 269.917653 140.421968 268.791653 141.651968 268.511653 142.691968 268.273753 143.731968 268.356653 144.791968 268.538653 148.861968 269.243753 152.901968 269.059653 156.931968 268.177653 158.231968 267.893753 159.441968 267.435753 160.681968 266.973653 162.271968 266.377653 163.531968 267.572653 163.201968 269.294753 163.091968 269.919753 162.781968 270.509653 162.531968 271.201753zM335.551968 5.4450528C335.611968 6.3050528 335.271968 7.0320528 334.591968 7.5000528 332.531968 8.9130528 331.121968 11.0840528 328.801968 12.2270528 327.641968 12.8000528 326.651968 13.7440528 325.661968 14.6190528 323.291968 16.7200528 320.981968 18.8820528 318.641968 21.0140528 317.881968 21.7120528 317.501968 22.4180528 318.301968 23.3730528 318.571968 23.6960528 318.401968 24.1690528 318.041968 24.3870528 317.261968 24.8600528 316.531968 25.4510528 315.521968 25.3850528 314.701968 25.3320528 313.941968 25.1780528 313.471968 24.4280528 312.981968 23.6430528 313.291968 22.9130528 313.701968 22.2100528 314.101968 21.5230528 314.641968 20.9840528 315.241968 20.4490528 319.591968 16.6080528 323.901968 12.7270528 328.191968 8.8200528 329.451968 7.6690528 330.591968 6.3890528 331.791968 5.1680528 332.591968 4.3580528 333.521968 3.9790528 334.661968 4.3010528 335.241968 4.4640528 335.521968 4.8580528 335.551968 5.4450528zM203.421968 269.701753C204.681968 269.713653 205.471968 270.109653 205.921968 271.037653 206.561968 272.361653 205.831968 273.636653 204.291968 273.894753 200.531968 274.527653 196.751968 275.121653 192.991968 275.801653 190.921968 276.175753 188.861968 276.525653 186.931968 277.543653 185.431968 278.333653 184.141968 277.540753 183.581968 275.853653 183.171968 274.622753 183.761968 273.337653 185.001968 273.029753 186.531968 272.651653 188.081968 272.278653 189.651968 272.152653 193.751968 271.823653 197.761968 271.065753 201.731968 270.056653 202.371968 269.894753 203.021968 269.784753 203.421968 269.701753zM331.051968 115.280053C332.431968 115.314053 332.951968 115.704053 333.231968 117.054053 334.421968 122.976053 336.131968 128.788053 337.031968 134.771053 337.191968 135.802053 337.301968 136.853053 337.291968 137.892053 337.281968 138.391053 336.921968 138.870053 336.321968 138.997053 335.641968 139.141053 334.971968 139.107053 334.531968 138.522053 334.221968 138.116053 333.961968 137.618053 333.861968 137.124053 333.521968 135.454053 333.281968 133.762053 332.971968 132.086053 332.191968 127.940053 331.031968 123.908053 329.271968 120.060053 329.051968 119.582053 328.811968 119.113053 328.641968 118.617053 327.941968 116.556053 328.911968 115.225053 331.051968 115.280053zM94.2017679 219.721053C94.3418679 215.228053 94.3217679 210.745053 92.9118679 206.400053 92.7518679 205.905053 92.6917679 205.366053 92.6618679 204.842053 92.5717679 203.354053 94.0918679 202.089053 95.5618679 202.484053 96.4018679 202.709053 96.8418679 203.393053 96.9118679 204.256053 97.0817679 206.615053 97.2918679 208.975053 97.3618679 211.337053 97.4417679 213.713053 97.3618679 216.093053 97.3918679 218.471053 97.4218679 221.103053 97.2218679 223.741053 97.9918679 226.340053 98.3818679 227.660053 97.4617679 228.691053 96.1418679 228.765053 95.1418679 228.821053 94.2318679 228.187053 94.2117679 227.243053 94.1618679 224.736053 94.2017679 222.228053 94.2017679 219.721053zM214.931968 319.512653C214.901968 318.138753 216.571968 317.020653 217.831968 317.497753 218.891968 317.901653 219.591968 318.649753 219.751968 319.811653 220.501968 325.500653 223.481968 330.202653 226.481968 334.879653 227.181968 335.975653 228.211968 336.859653 229.081968 337.849653 229.531968 338.359653 229.961968 338.935753 229.451968 339.598653 228.921968 340.288653 228.131968 340.480653 227.321968 340.221753 226.281968 339.890653 225.481968 339.215653 224.891968 338.281653 224.191968 337.163653 223.471968 336.054653 222.731968 334.955653 219.711968 330.429653 217.201968 325.634653 215.251968 320.550753 215.111968 320.183653 215.011968 319.798653 214.931968 319.512653zM292.191968 64.3830528C292.011968 66.2100528 290.111968 67.3230528 288.751968 66.3870528 284.081968 63.1830528 278.871968 60.8110528 274.561968 57.0730528 273.781968 56.3970528 272.761968 56.0010528 271.871968 55.4330528 270.631968 54.6340528 270.661968 53.0250528 271.901968 52.1590528 272.951968 51.4230528 274.171968 51.4280528 275.181968 52.2000528 275.501968 52.4370528 275.791968 52.7140528 276.051968 53.0080528 279.721968 57.1240528 284.431968 59.7550528 289.251968 62.2390528 290.061968 62.6600528 290.901968 63.0560528 291.671968 63.5540528 291.951968 63.7350528 292.061968 64.1750528 292.191968 64.3830528zM244.731968 215.935053C242.951968 215.894053 242.011968 214.582053 242.621968 212.993053 242.761968 212.628053 242.931968 212.239053 243.181968 211.956053 247.451968 207.270053 251.461968 202.326053 256.961968 198.936053 257.921968 198.344053 258.841968 198.034053 259.951968 198.398053 261.391968 198.872053 261.851968 200.364053 260.921968 201.576053 260.501968 202.119053 259.981968 202.466053 259.331968 202.694053 254.261968 204.473053 250.831968 208.333053 247.351968 212.135053 246.651968 212.896053 246.611968 213.750053 246.471968 214.663053 246.331968 215.592053 245.551968 215.862053 244.731968 215.935053zM281.271968 139.160053C286.131968 139.662053 290.741968 140.097053 295.371968 140.109053 297.491968 140.114053 299.601968 140.106053 301.711968 140.116053 302.591968 140.120053 303.241968 140.540053 303.591968 141.322053 303.911968 142.038053 303.421968 143.205053 302.571968 143.696053 301.531968 144.300053 300.381968 144.836053 299.201968 144.176053 297.861968 143.424053 296.431968 143.391053 294.981968 143.368053 290.361968 143.294053 285.731968 143.238053 281.101968 143.175053 280.841968 143.171053 280.571968 143.179053 280.311968 143.150053 279.341968 143.046053 278.631968 142.346053 278.471968 141.377053 278.331968 140.520053 279.011968 139.556053 279.961968 139.338053 280.471968 139.221053 281.001968 139.194053 281.271968 139.160053zM341.251968 94.7090528C342.531968 94.7150528 343.221968 95.0910528 343.481968 95.9400528 343.711968 96.6990528 343.881968 97.6110528 343.191968 98.1790528 341.791968 99.3160528 340.451968 100.923053 338.371968 99.2950528 337.781968 98.8380528 337.091968 99.1990528 336.451968 99.3060528 332.011968 100.047053 327.581968 100.814053 323.381968 102.574053 321.751968 103.259053 320.891968 102.886053 319.961968 101.595053 319.371968 100.777053 319.591968 99.7970528 320.381968 99.1550528 321.271968 98.4290528 322.361968 98.3550528 323.381968 98.2680528 328.941968 97.7930528 334.321968 96.3990528 339.701968 95.0120528 340.331968 94.8480528 340.981968 94.7590528 341.251968 94.7090528zM182.611968 316.277653C182.681968 315.151653 182.651968 314.487753 182.761968 313.846753 182.891968 313.114653 183.481968 312.779753 184.151968 312.622753 184.851968 312.459653 185.481968 312.668653 185.921968 313.227753 186.411968 313.862753 186.701968 314.604653 186.721968 315.423653 186.751968 316.611653 186.831968 317.804653 186.771968 318.988653 186.581968 322.507653 187.701968 325.761653 188.811968 329.002653 189.311968 330.475653 189.871968 331.929653 191.481968 332.778653 192.391968 333.262653 192.151968 334.398753 191.731968 335.283653 191.301968 336.204653 190.531968 336.687653 189.521968 336.653653 188.991968 336.635653 188.521968 336.366653 188.241968 335.854653 187.791968 335.048653 187.231968 334.290753 186.861968 333.451753 184.371968 327.833653 183.511968 321.822653 182.611968 316.277653zM319.941968 36.4860528C319.991968 35.3320528 321.441968 34.0180528 322.641968 34.0660528 323.041968 34.0810528 323.451968 34.1120528 323.811968 34.2560528 328.361968 36.0960528 333.241968 36.7280528 337.881968 38.2020528 339.271968 38.6410528 340.671968 39.0490528 342.011968 39.6050528 343.811968 40.3500528 344.131968 41.8950528 342.901968 43.3950528 341.841968 44.6880528 341.151968 44.7970528 340.201968 43.4660528 339.431968 42.3900528 338.381968 41.8860528 337.271968 41.5710528 333.221968 40.4200528 329.271968 38.8150528 324.951968 38.8060528 323.501968 38.8030528 322.041968 38.5650528 320.781968 37.7450528 320.361968 37.4730528 319.921968 37.1010528 319.941968 36.4860528zM316.921968 113.378053C317.441968 113.477053 317.831968 113.538053 318.211968 113.625053 319.501968 113.915053 320.051968 115.270053 319.341968 116.403053 318.761968 117.330053 317.961968 118.015053 316.931968 118.375053 315.991968 118.704053 315.151968 118.610053 314.431968 117.770053 314.071968 117.348053 313.491968 117.431053 312.951968 117.471053 308.841968 117.767053 304.811968 118.396053 300.931968 119.822053 299.941968 120.186053 298.941968 120.542053 297.911968 120.787053 296.681968 121.080053 295.551968 120.543053 295.231968 119.641053 294.881968 118.654053 295.621968 117.183053 296.761968 116.769053 297.371968 116.548053 298.051968 116.377053 298.681968 116.405053 301.111968 116.510053 303.391968 115.843053 305.721968 115.361053 309.471968 114.586053 313.261968 114.015053 316.921968 113.378053zM83.0018679 278.592753C83.7718679 278.640653 84.1718679 278.656653 84.5618679 278.690753 86.8618679 278.890653 87.5418679 279.705653 87.3618679 282.024753 87.2418679 283.565753 86.7318679 283.975653 85.4318679 283.228653 84.0717679 282.452653 82.6718679 282.415753 81.2218679 282.454653 77.7618679 282.547653 74.4617679 283.408653 71.2518679 284.675753 70.0218679 285.158653 68.8317679 285.726653 67.4718679 285.790753 66.4018679 285.842753 65.7218679 285.339653 65.5118679 284.295753 65.2518679 282.996653 65.6318679 282.045753 66.7117679 281.733653 68.9918679 281.078653 71.2718679 280.377653 73.5918679 279.951753 76.8317679 279.358653 80.1118679 278.999653 83.0018679 278.592753zM113.761968 188.344053C113.701968 187.197053 115.061968 185.761053 116.271968 185.700053 118.001968 185.612053 119.041968 186.545053 119.071968 188.207053 119.161968 192.428053 118.881968 196.662053 119.811968 200.846053 120.131968 202.278053 120.381968 203.639053 121.301968 204.869053 122.081968 205.923053 121.791968 207.045053 120.881968 207.572053 119.921968 208.131053 118.621968 207.968053 118.041968 207.065053 117.551968 206.300053 117.071968 205.439053 116.921968 204.562053 116.561968 202.487053 116.051968 200.443053 115.911968 198.310053 115.711968 195.170053 115.721968 191.937053 114.001968 189.092053 113.861968 188.875053 113.841968 188.595053 113.761968 188.344053zM111.731968 260.111653C109.541968 260.111653 107.941968 259.944653 106.391968 260.144753 102.621968 260.632653 98.7618679 260.626653 95.1118679 261.837653 93.6418679 262.327653 92.5518679 261.935753 91.6218679 260.820753 91.1018679 260.202653 91.2418679 259.193653 91.8618679 258.705653 92.6118679 258.121653 93.4318679 257.789753 94.3818679 257.693653 96.7418679 257.456753 99.0918679 257.135653 101.451968 256.931653 103.941968 256.715653 106.431968 256.546653 108.931968 256.454653 110.231968 256.406653 111.551968 256.501653 112.851968 256.660653 113.461968 256.735653 114.171968 256.969653 114.291968 257.775653 114.421968 258.585653 114.281968 259.371653 113.671968 259.948653 113.421968 260.187653 112.971968 260.352753 112.631968 260.332653 112.121968 260.302653 111.621968 260.078653 111.731968 260.111653zM245.211968 312.744653C244.691968 312.789753 243.831968 311.995653 243.221968 310.920753 242.121968 308.971753 241.081968 306.990653 240.061968 304.995653 238.451968 301.830653 236.881968 298.647653 235.311968 295.464653 235.021968 294.881653 234.721968 294.279753 234.581968 293.652653 234.381968 292.808653 234.771968 292.106653 235.431968 291.584653 236.041968 291.106653 236.691968 291.309653 237.281968 291.623753 238.221968 292.134653 238.911968 292.802653 239.181968 293.971753 239.941968 297.325653 241.641968 300.324653 243.001968 303.449653 243.991968 305.731653 245.091968 307.996653 247.151968 309.602753 247.811968 310.112753 248.091968 310.880653 247.691968 311.705653 247.371968 312.348653 246.771968 312.607753 245.211968 312.744653zM252.541968 21.5740528C252.411968 22.0910528 252.261968 22.6150528 251.721968 22.8460528 251.141968 23.0870528 250.741968 22.7560528 250.341968 22.3890528 248.751968 20.9360528 248.521968 18.9130528 248.161968 16.9940528 247.691968 14.5360528 247.421968 12.0400528 247.021968 9.5690528 246.681968 7.4780528 246.131968 5.5010528 244.901968 3.6700528 243.871968 2.1390528 244.801968.504052803 246.621968.0740528028 247.891968-.222947197 249.051968.387052803 249.411968 1.6590528 249.761968 2.9290528 250.121968 4.2240528 250.221968 5.5290528 250.631968 10.6660528 251.351968 15.7530528 252.441968 20.7890528 252.501968 21.0460528 252.511968 21.3120528 252.541968 21.5740528zM194.591968 239.224053C194.731968 238.348053 195.261968 237.772053 196.011968 237.429053 196.651968 237.140053 197.301968 237.231053 197.881968 237.639053 198.561968 238.109053 198.921968 238.793053 199.271968 239.518053 201.201968 243.440753 203.661968 247.028653 206.191968 250.582653 207.261968 252.095653 208.361968 253.566753 209.801968 254.755653 210.191968 255.074653 210.511968 255.521653 210.751968 255.970653 211.091968 256.623753 210.501968 257.677653 209.771968 257.835653 208.671968 258.073653 207.651968 257.932653 206.881968 257.036653 205.941968 255.932653 204.961968 254.843653 204.171968 253.630653 201.381968 249.302653 198.511968 245.031653 195.321968 240.988053 194.901968 240.463053 194.531968 239.924053 194.591968 239.224053zM34.4018679 224.188053C30.4118679 224.507053 26.7618679 224.054053 23.1718679 222.981053 22.4218679 222.758053 21.6118679 222.719053 20.8217679 222.687053 19.7718679 222.646053 19.0118679 222.292053 18.8018679 221.185053 18.6118679 220.123053 18.5218679 219.058053 19.4818679 218.268053 20.3018679 217.589053 21.6218679 217.391053 22.4218679 218.043053 25.2918679 220.406053 28.7017679 220.659053 32.1618679 220.618053 34.2918679 220.593053 36.3918679 220.727053 38.4818679 221.040053 39.1318679 221.137053 39.8518679 221.175053 40.2418679 221.789053 40.5218679 222.216053 40.8418679 222.744053 40.8118679 223.204053 40.7718679 223.701053 40.2718679 224.159053 39.7117679 224.172053 37.8618679 224.215053 36.0018679 224.188053 34.4018679 224.188053zM311.711968 294.626653C311.781968 295.582653 311.091968 296.239653 310.541968 296.980653 308.301968 299.938653 306.071968 302.899753 303.891968 305.895653 302.421968 307.911653 300.751968 309.833653 300.751968 312.579653 300.751968 313.328653 299.511968 313.691753 298.841968 313.243753 297.801968 312.544753 297.231968 311.355653 297.601968 310.148753 297.901968 309.151653 298.371968 308.172653 298.941968 307.295753 300.231968 305.296653 301.631968 303.369653 302.971968 301.405653 304.541968 299.117753 306.241968 296.931653 307.171968 294.238653 307.681968 292.746653 308.941968 292.328653 310.401968 292.781653 311.261968 293.047653 311.711968 293.640653 311.711968 294.626653zM322.801968 190.212053C322.101968 190.293053 321.281968 190.279053 320.531968 190.494053 317.611968 191.332053 314.711968 192.241053 311.801968 193.129053 310.021968 193.673053 308.231968 194.149053 306.361968 194.210053 305.431968 194.241053 304.751968 193.666053 304.691968 192.883053 304.631968 192.011053 304.931968 191.300053 305.751968 190.943053 306.231968 190.735053 306.771968 190.670053 307.281968 190.559053 311.031968 189.759053 314.801968 189.031053 318.531968 188.144053 321.101968 187.530053 323.611968 186.640053 325.881968 185.211053 326.451968 184.853053 326.991968 184.523053 327.701968 184.531053 328.581968 184.542053 329.251968 184.926053 329.591968 185.724053 329.891968 186.433053 329.531968 187.037053 328.971968 187.443053 327.911968 188.222053 326.721968 188.852053 325.721968 189.697053 324.831968 190.444053 324.021968 190.953053 322.801968 190.212053zM306.971968 211.538053C307.101968 212.574053 306.501968 213.339053 305.891968 214.001053 302.911968 217.219053 301.011968 221.180053 298.461968 224.687053 297.681968 225.752053 297.111968 226.857053 297.271968 228.342053 297.411968 229.583053 296.141968 230.605053 295.041968 230.513053 293.731968 230.402053 292.821968 228.963053 293.221968 227.589053 293.371968 227.089053 293.541968 226.573053 293.811968 226.135053 295.631968 223.233053 297.481968 220.347053 299.331968 217.461053 300.681968 215.355053 302.171968 213.342053 302.761968 210.824053 303.051968 209.602053 303.591968 209.398053 304.831968 209.627053 306.251968 209.890053 306.951968 210.521053 306.971968 211.538053zM281.511968 183.845053C281.731968 183.169053 281.851968 182.500053 282.161968 181.928053 282.561968 181.168053 283.231968 180.829053 284.141968 181.091053 285.071968 181.358053 285.821968 181.766053 286.211968 182.740053 288.421968 188.381053 290.671968 194.012053 292.881968 199.653053 293.121968 200.264053 293.281968 200.912053 293.411968 201.555053 293.551968 202.204053 293.661968 203.067053 293.071968 203.372053 292.101968 203.871053 291.761968 202.886053 291.311968 202.259053 289.771968 200.093053 288.951968 197.550053 287.681968 195.248053 285.771968 191.798053 284.541968 187.978053 282.021968 184.861053 281.791968 184.575053 281.681968 184.190053 281.511968 183.845053zM237.621968 69.8000528C237.571968 68.2270528 239.221968 67.1070528 240.601968 67.7830528 240.841968 67.8980528 241.081968 68.0150528 241.281968 68.1830528 245.531968 71.8160528 250.931968 72.8630528 255.961968 74.7340528 257.071968 75.1460528 258.221968 75.4500528 259.321968 75.8820528 260.031968 76.1630528 260.251968 77.3170528 259.721968 77.9150528 259.291968 78.4050528 258.801968 78.8580528 258.281968 79.2500528 257.561968 79.7880528 256.691968 79.8360528 256.131968 79.1530528 255.061968 77.8340528 253.671968 77.2420528 252.101968 76.8770528 247.441968 75.8010528 243.341968 73.2850528 238.911968 71.6430528 238.071968 71.3350528 237.741968 70.6290528 237.621968 69.8000528zM105.861968 320.472753C104.941968 320.458653 104.541968 320.078653 104.291968 319.632653 103.651968 318.508753 103.811968 317.219653 104.701968 316.380653 109.191968 312.130653 113.151968 307.390653 117.141968 302.687653 117.741968 301.982753 118.261968 301.238653 119.121968 300.812653 119.851968 300.451753 120.871968 300.872753 121.001968 301.660653 121.211968 303.008753 121.131968 304.425753 119.971968 305.241653 115.131968 308.646653 111.801968 313.369653 108.461968 318.108653 108.011968 318.750653 107.541968 319.398753 106.971968 319.930753 106.621968 320.261653 106.061968 320.379653 105.861968 320.472753zM150.031968 305.746653C149.971968 305.919753 149.881968 306.452653 149.651968 306.911653 149.321968 307.554653 148.771968 307.929653 148.041968 307.562653 147.451968 307.271653 146.861968 306.940753 146.371968 306.515653 145.571968 305.824653 144.791968 305.096753 144.111968 304.291653 140.781968 300.345653 137.211968 296.637653 133.451968 293.103653 132.371968 292.084653 132.241968 290.924653 133.001968 289.976653 133.581968 289.258753 134.811968 289.064653 135.491968 289.629653 135.901968 289.963653 136.291968 290.336753 136.591968 290.761653 139.351968 294.672653 142.951968 297.835653 146.051968 301.450653 146.911968 302.461753 147.821968 303.364653 149.141968 303.844653 149.961968 304.146653 150.081968 304.590653 150.031968 305.746653zM102.461968 244.450653C101.461968 244.308653 100.911968 243.997753 100.771968 243.246653 100.491968 241.711053 100.981968 240.768053 102.421968 240.098053 104.811968 238.985053 107.231968 237.946053 109.591968 236.773053 112.421968 235.365053 115.271968 233.969053 117.691968 231.872053 118.391968 231.262053 119.141968 230.743053 120.091968 230.583053 120.911968 230.445053 121.721968 230.437053 122.181968 231.241053 122.531968 231.871053 122.241968 232.510053 121.871968 233.085053 121.191968 234.133053 120.121968 234.676053 119.081968 235.240053 116.301968 236.746053 113.531968 238.264053 110.711968 239.695053 108.481968 240.829053 106.151968 241.775053 104.321968 243.575653 103.751968 244.140653 103.001968 244.410653 102.461968 244.450653zM328.951968 70.7370528C328.691968 70.6170528 328.291968 70.5150528 328.001968 70.2750528 324.091968 67.0310528 319.401968 65.2100528 314.861968 63.1390528 314.141968 62.8120528 313.361968 62.6320528 312.641968 62.3210528 311.971968 62.0370528 311.621968 61.4770528 311.681968 60.7500528 311.751968 60.0540528 312.141968 59.5130528 312.761968 59.1960528 313.771968 58.6880528 314.821968 58.6980528 315.831968 59.1470528 317.041968 59.6840528 318.221968 60.2690528 319.391968 60.8820528 322.791968 62.6580528 326.171968 64.4530528 329.551968 66.2520528 330.011968 66.4990528 330.471968 66.7780528 330.891968 67.0900528 331.561968 67.5810528 331.711968 68.4740528 331.201968 69.1980528 330.681968 69.9480528 330.181968 70.7760528 328.951968 70.7370528zM222.501968 25.9770528C225.841968 26.0540528 229.061968 25.2910528 232.251968 24.4330528 234.201968 23.9080528 236.151968 23.7600528 238.141968 23.8150528 238.961968 23.8380528 239.721968 24.0960528 240.301968 24.6850528 240.881968 25.2890528 241.081968 26.0530528 240.771968 26.8720528 240.491968 27.5910528 239.821968 27.9240528 239.171968 27.7340528 235.681968 26.7110528 232.401968 27.8200528 229.041968 28.4950528 227.221968 28.8600528 225.421968 29.2530528 223.631968 29.7220528 222.491968 30.0200528 221.291968 30.1640528 220.111968 30.2310528 218.771968 30.3070528 217.851968 29.5890528 217.771968 28.6060528 217.691968 27.4060528 218.551968 26.1580528 219.731968 26.0010528 220.641968 25.8820528 221.581968 25.9770528 222.501968 25.9770528zM30.7117679 172.123053C30.8118679 171.735053 30.9018679 171.212053 31.0717679 170.714053 32.9818679 165.084053 34.9018679 159.460053 36.8118679 153.832053 37.1218679 152.914053 37.5918679 152.157053 38.6018679 151.879053 39.2618679 151.696053 39.9118679 151.654053 40.4617679 152.139053 41.0418679 152.636053 41.1218679 153.314053 40.8518679 153.944053 40.0118679 155.877053 39.2218679 157.843053 38.2017679 159.681053 36.5118679 162.731053 36.0817679 166.204053 34.7718679 169.374053 34.5318679 169.951053 34.4118679 170.761053 34.6318679 171.306053 35.2318679 172.801053 34.4018679 173.550053 33.3618679 174.224053 32.8118679 174.582053 32.1818679 174.815053 31.5218679 174.368053 30.9018679 173.951053 30.7718679 173.324053 30.7117679 172.653053 30.7017679 172.521053 30.7117679 172.389053 30.7117679 172.123053zM251.301968 59.2440528C250.631968 59.2300528 250.121968 58.8790528 249.841968 58.2190528 249.461968 57.2890528 249.691968 56.4920528 250.251968 55.6410528 252.131968 52.7850528 253.921968 49.8730528 255.741968 46.9800528 257.631968 43.9730528 259.571968 40.9850528 260.371968 37.4480528 260.571968 36.5840528 261.121968 36.1040528 262.021968 36.0260528 263.501968 35.8970528 264.381968 36.8250528 263.941968 38.1610528 263.691968 38.9010528 263.341968 39.6230528 262.931968 40.2900528 260.951968 43.5490528 258.931968 46.7850528 256.931968 50.0350528 256.031968 51.4930528 255.161968 52.9670528 254.291968 54.4350528 253.951968 55.0010528 253.591968 55.5650528 253.841968 56.2750528 254.061968 56.8830528 254.401968 57.4950528 253.831968 58.0910528 253.151968 58.7870528 252.301968 59.0920528 251.301968 59.2440528zM311.251968 274.379653C311.181968 274.598653 311.181968 274.960653 311.021968 275.055753 309.771968 275.787653 308.531968 276.563653 307.211968 277.146653 303.461968 278.797653 299.691968 280.385653 295.911968 281.945753 294.661968 282.460653 293.621968 283.244653 292.571968 284.049653 291.821968 284.627653 291.041968 285.061653 290.041968 285.015653 289.081968 284.972753 288.221968 284.381653 287.931968 283.496653 287.651968 282.640653 288.051968 281.568653 288.881968 281.103653 289.341968 280.849653 289.831968 280.640653 290.341968 280.497753 295.311968 279.081753 299.971968 276.848653 304.711968 274.836753 306.431968 274.102753 308.191968 273.592753 310.041968 273.501653 310.551968 273.477753 311.051968 273.792653 311.251968 274.379653zM293.421968 172.626053C291.041968 171.581053 288.531968 172.302053 286.131968 172.818053 282.591968 173.580053 279.051968 173.236053 275.511968 173.332053 275.141968 173.343053 274.711968 173.234053 274.391968 173.045053 274.081968 172.859053 273.721968 172.537053 273.631968 172.208053 273.281968 170.887053 274.901968 168.832053 276.251968 168.821053 276.511968 168.819053 276.781968 168.858053 277.021968 168.951053 281.161968 170.555053 285.331968 169.768053 289.481968 169.109053 291.051968 168.859053 292.601968 168.559053 294.181968 168.850053 295.171968 169.031053 295.771968 169.897053 295.641968 170.851053 295.471968 172.126053 294.711968 172.774053 293.421968 172.626053zM164.981968 334.770653C164.831968 334.715653 164.341968 334.553653 163.861968 334.363653 161.361968 333.371653 159.351968 331.563653 157.281968 329.974653 154.861968 328.119653 152.341968 326.453653 149.771968 324.832653 149.091968 324.403653 148.421968 324.023753 148.011968 323.298653 147.301968 322.066753 147.961968 320.299653 149.331968 320.186653 150.761968 320.067653 152.261968 320.176653 153.091968 321.669753 154.101968 323.453653 155.591968 324.740653 157.281968 325.798653 159.851968 327.415753 161.921968 329.756653 164.791968 330.927653 165.711968 331.301653 166.211968 332.089653 166.511968 333.003753 166.741968 333.714653 166.051968 334.766653 164.981968 334.770653zM263.751968 99.6470528C268.701968 99.6520528 273.431968 98.5120528 278.101968 97.0260528 279.021968 96.7330528 279.831968 96.4640528 280.761968 96.9010528 281.341968 97.1760528 281.551968 97.5940528 281.341968 98.1500528 280.551968 100.247053 280.091968 100.506053 277.921968 100.622053 276.611968 100.693053 275.241968 100.750053 274.011968 101.151053 271.841968 101.855053 269.591968 102.102053 267.381968 102.372053 264.881968 102.678053 262.371968 102.885053 259.911968 103.406053 259.521968 103.487053 259.121968 103.551053 258.721968 103.545053 257.951968 103.533053 257.071968 103.655053 256.731968 102.692053 256.371968 101.685053 256.901968 100.564053 257.891968 100.028053 258.611968 99.6360528 259.361968 99.4690528 260.181968 99.5400528 260.841968 99.5980528 261.501968 99.6240528 262.161968 99.6440528 262.691968 99.6610528 263.221968 99.6470528 263.751968 99.6470528zM168.021968 108.359053C168.261968 106.537053 168.431968 104.698053 168.781968 102.896053 169.331968 100.047053 170.141968 97.2430528 170.071968 94.3030528 170.041968 93.1360528 170.561968 92.2820528 171.531968 91.6800528 172.271968 91.2250528 173.051968 91.1540528 173.761968 91.6540528 174.451968 92.1370528 174.771968 92.8880528 174.651968 93.7170528 174.581968 94.2250528 174.291968 94.6990528 174.131968 95.1970528 172.981968 98.7090528 172.251968 102.321053 171.681968 105.964053 171.451968 107.404053 171.331968 108.794053 172.071968 110.205053 172.601968 111.229053 172.041968 112.205053 170.971968 112.721053 170.061968 113.155053 168.951968 112.581053 168.411968 111.486053 167.911968 110.467053 168.081968 109.427053 168.021968 108.359053zM28.4018679 13.7930528C28.4818679 12.6090528 28.4818679 11.4110528 28.6718679 10.2440528 28.8518679 9.1620528 28.7718679 8.2000528 28.3418679 7.1720528 27.7017679 5.6260528 27.9218679 5.0120528 29.1218679 4.2370528 29.4517679 4.0240528 29.8217679 3.8720528 30.1818679 3.7250528 31.2718679 3.2850528 32.2818679 3.8280528 32.6318679 4.9750528 32.8317679 5.6390528 32.6818679 6.2600528 32.6318679 6.9150528 32.4218679 9.6740528 32.2418679 12.4370528 32.1418679 15.2020528 32.0817679 17.1690528 31.9918679 19.1390528 33.3418679 20.8760528 33.9218679 21.6220528 33.2017679 22.7390528 32.2218679 22.9220528 30.9417679 23.1610528 29.8818679 22.6830528 29.1818679 21.5810528 28.6718679 20.7720528 28.4918679 19.8850528 28.4918679 18.9440528 28.5018679 17.2280528 28.4918679 15.5120528 28.4918679 13.7960528 28.4617679 13.7950528 28.4318679 13.7940528 28.4018679 13.7930528zM15.7718679 310.930753C15.5918679 309.932653 17.3818679 308.484653 18.2418679 308.932653 19.7818679 309.741653 21.4918679 310.049653 23.0717679 310.701753 26.1718679 311.981653 29.3718679 312.556653 32.6917679 312.749653 33.6118679 312.803653 34.5318679 312.957653 35.4617679 313.029753 37.6718679 313.199653 37.7218679 314.221753 37.1718679 316.035653 36.9718679 316.703653 36.3317679 317.085653 35.6018679 316.949653 31.9617679 316.262653 28.3217679 315.593653 24.7117679 314.799653 22.6418679 314.345653 20.6518679 313.568653 18.5218679 313.382653 16.9417679 313.244653 16.4617679 311.910653 15.7718679 310.930753zM134.871968 315.664753C134.841968 316.563653 134.431968 317.308653 133.871968 317.812653 130.821968 320.551653 129.481968 324.329653 127.671968 327.812653 126.341968 330.375653 125.221968 333.048653 124.001968 335.670753 123.701968 336.323653 123.211968 336.706753 122.461968 336.640653 121.721968 336.573653 121.321968 336.070753 121.031968 335.446753 120.721968 334.789753 120.721968 334.087653 121.211968 333.596753 122.821968 331.954653 123.531968 329.793653 124.691968 327.895653 125.731968 326.191753 126.491968 324.405653 127.241968 322.577653 128.291968 320.019753 129.431968 317.489653 131.071968 315.238653 131.831968 314.200653 132.741968 313.893753 133.791968 314.227753 134.421968 314.427653 134.931968 315.130653 134.871968 315.664753zM85.0118679 340.232753C84.7518679 340.122753 84.3317679 340.049653 84.0418679 339.813653 82.8918679 338.861653 82.2418679 337.594653 81.8118679 336.167653 80.8518679 333.019753 79.9918679 329.847753 79.5418679 326.588653 79.2618679 324.591753 78.7718679 322.765653 77.5018679 321.110653 76.6018679 319.935753 77.1818679 318.472753 78.5118679 317.831753 79.3718679 317.418653 80.5817679 317.800753 80.8217679 318.681653 81.5618679 321.480653 82.7117679 324.171653 83.0318679 327.082653 83.4417679 330.768753 84.0418679 334.395653 86.0918679 337.620653 86.6318679 338.471753 85.9417679 340.119653 85.0118679 340.232753zM234.531968 260.172653C234.541968 260.303653 234.201968 260.991653 233.401968 261.358653 229.581968 263.106653 227.271968 266.202653 225.721968 269.959653 225.301968 270.960653 224.601968 271.313653 223.561968 271.301653 222.401968 271.287653 221.501968 270.898753 220.981968 269.827653 220.591968 269.017653 220.861968 268.237753 221.311968 267.592753 222.291968 266.192653 223.271968 264.763753 224.431968 263.517653 226.311968 261.500653 228.381968 259.660653 230.281968 257.665753 231.041968 256.871653 231.811968 256.701753 232.751968 257.040753 233.831968 257.428653 234.431968 258.283653 234.531968 260.172653zM87.0817679 39.6110528C85.9118679 39.5710528 85.2918679 38.9730528 85.3718679 37.9330528 85.4818679 36.6070528 85.7318679 35.3110528 86.4218679 34.1450528 88.5817679 30.5120528 90.6418679 26.8260528 92.2218679 22.8870528 92.5518679 22.0450528 93.2017679 21.3230528 93.7218679 20.5590528 94.3818679 19.5920528 95.4318679 19.3900528 96.4818679 19.2320528 97.0817679 19.1420528 97.4617679 19.4940528 97.7218679 19.9960528 97.9617679 20.4710528 98.2418679 21.0570528 97.8018679 21.4580528 94.1818679 24.7810528 93.0817679 29.6560528 90.3618679 33.5350528 89.3718679 34.9470528 88.8018679 36.5720528 88.7518679 38.3600528 88.7318679 39.3570528 87.9617679 39.6260528 87.0817679 39.6110528zM226.301968 113.685053C226.851968 111.678053 227.331968 109.478053 228.061968 107.367053 228.981968 104.729053 229.671968 102.077053 229.951968 99.2880528 230.091968 97.9590528 230.331968 96.7970528 229.591968 95.4850528 228.931968 94.3040528 229.901968 92.8730528 231.271968 92.5020528 232.521968 92.1600528 233.801968 93.0580528 233.661968 94.3400528 233.401968 96.7010528 233.131968 99.0770528 232.621968 101.391053 231.931968 104.483053 231.041968 107.531053 230.171968 110.576053 229.911968 111.486053 229.821968 112.378053 229.801968 113.307053 229.791968 113.952053 229.741968 114.630053 229.521968 115.227053 229.291968 115.869053 228.731968 116.310053 227.991968 116.238053 227.271968 116.167053 226.811968 115.698053 226.581968 115.028053 226.461968 114.658053 226.421968 114.262053 226.301968 113.685053zM290.921968 42.5170528C290.981968 42.1520528 291.041968 41.3450528 291.281968 40.5920528 292.691968 36.0460528 294.161968 31.5150528 295.181968 26.8570528 295.331968 26.1850528 295.751968 25.6870528 296.341968 25.3110528 297.201968 24.7570528 298.311968 24.7600528 298.881968 25.4190528 299.431968 26.0410528 299.731968 26.7450528 299.291968 27.5900528 298.861968 28.4120528 298.481968 29.2550528 298.061968 30.0840528 296.401968 33.4230528 295.581968 37.0270528 294.741968 40.6260528 294.481968 41.7140528 294.431968 42.7020528 295.211968 43.6140528 295.781968 44.2720528 295.491968 44.8190528 294.861968 45.2380528 293.971968 45.8330528 293.071968 46.4180528 291.951968 45.7180528 290.891968 45.0550528 290.751968 44.0500528 290.921968 42.5170528zM175.291968 256.863653C174.271968 256.593653 173.531968 255.777653 173.161968 254.546653 172.411968 252.026653 171.601968 249.522653 170.871968 246.995653 170.131968 244.439653 169.031968 242.063053 167.601968 239.828053 167.321968 239.388053 167.091968 238.895053 166.931968 238.400053 166.661968 237.621053 167.211968 236.687053 168.171968 236.177053 168.831968 235.830053 169.791968 236.062053 170.221968 236.800053 170.751968 237.708053 171.251968 238.653053 171.611968 239.638053 172.881968 243.107753 174.101968 246.599653 175.331968 250.085653 175.901968 251.701753 176.511968 253.304653 177.001968 254.944653 177.271968 255.850653 176.331968 256.995653 175.291968 256.863653zM168.941968 171.269053C167.541968 171.192053 166.571968 170.345053 166.261968 168.785053 165.911968 166.970053 165.501968 165.146053 165.391968 163.308053 165.211968 160.494053 164.681968 157.813053 163.341968 155.308053 163.101968 154.854053 163.001968 154.311053 162.911968 153.796053 162.681968 152.432053 163.371968 151.431053 164.681968 151.149053 165.641968 150.946053 166.821968 151.618053 167.201968 152.654053 167.371968 153.140053 167.341968 153.695053 167.491968 154.198053 168.561968 158.047053 168.581968 162.055053 169.271968 165.961053 169.531968 167.387053 169.781968 168.815053 169.951968 170.252053 170.021968 170.896053 169.441968 171.093053 168.941968 171.269053zM166.381968 312.016653C164.931968 312.081753 163.061968 309.980653 163.861968 308.860653 166.791968 304.743753 167.541968 299.559653 170.601968 295.534753 170.841968 295.221753 171.061968 294.890653 171.321968 294.602753 171.931968 293.939653 172.821968 293.785653 173.451968 294.205653 174.291968 294.757653 174.681968 295.822653 174.321968 296.575653 174.271968 296.694653 174.211968 296.819653 174.131968 296.920753 170.941968 300.923653 169.641968 305.768753 168.081968 310.500653 167.821968 311.306653 167.381968 311.908653 166.381968 312.016653zM116.761968 152.402053C117.031968 148.425053 117.851968 144.681053 118.601968 140.931053 118.921968 139.340053 120.001968 138.625053 121.411968 138.610943 122.771968 138.597053 123.791968 139.923053 123.051968 141.004053 121.491968 143.264053 121.091968 145.848053 120.471968 148.405053 119.791968 151.216053 119.881968 153.860053 121.321968 156.439053 121.991968 157.631053 121.751968 158.277053 120.821968 158.704053 119.711968 159.211053 118.661968 158.974053 118.061968 157.976053 117.001968 156.222053 116.771968 154.258053 116.761968 152.402053zM32.1118679 68.7590528C32.0618679 67.0360528 32.4417679 64.8210528 31.6818679 62.5940528 31.1718679 61.0970528 32.1218679 60.0710528 33.7017679 59.8770528 35.3217679 59.6790528 36.2618679 60.4510528 36.2618679 62.0620528 36.2518679 62.9810528 36.2318679 63.9280528 36.0118679 64.8140528 35.5418679 66.7640528 35.5618679 68.7340528 35.5418679 70.7110528 35.5418679 71.5000528 35.6118679 72.3400528 35.3818679 73.0650528 34.8217679 74.7670528 34.8618679 76.3670528 35.3718679 78.0920528 35.8018679 79.5430528 34.5717679 80.6190528 33.0418679 80.3650528 32.3418679 80.2470528 31.7818679 79.8860528 31.7418679 79.1190528 31.6917679 78.2020528 31.6318679 77.2630528 31.7718679 76.3620528 32.1218679 74.0020528 32.1518679 71.6340528 32.1118679 68.7590528zM127.171968 108.241053C131.201968 109.224053 134.541968 107.837053 137.911968 106.722053 139.551968 106.180053 141.151968 105.558053 142.901968 105.531053 143.411968 105.523053 143.971968 105.601053 144.441968 105.797053 144.761968 105.930053 145.111968 106.303053 145.191968 106.629053 145.471968 107.909053 144.091968 110.400053 142.891968 110.929053 142.351968 111.166053 142.211968 110.729053 142.011968 110.424053 141.731968 109.997053 141.581968 109.386053 141.201968 109.147053 140.621968 108.791053 139.921968 109.055053 139.281968 109.255053 136.631968 110.084053 133.971968 110.870053 131.331968 111.735053 129.401968 112.369053 127.411968 112.207053 125.441968 112.258053 124.741968 112.275053 124.191968 111.756053 124.021968 111.070053 123.841968 110.393053 124.081968 109.741053 124.601968 109.272053 125.421968 108.532053 126.391968 108.174053 127.171968 108.241053zM76.3718679 207.044078C76.1418679 206.986053 75.6218679 206.909053 75.1418679 206.719053 74.0817679 206.303053 73.6518679 205.104053 74.1718679 204.087053 74.3518679 203.738053 74.5218679 203.340053 74.8018679 203.092053 77.9118679 200.348053 80.0618679 196.869053 82.2318679 193.413053 82.8518679 192.433053 83.6917679 192.440053 84.6318679 192.634053 85.3718679 192.784053 85.9118679 193.272053 85.7918679 193.991053 85.4218679 196.297053 85.3418679 198.819053 82.6318679 199.869053 81.3818679 200.352053 80.7918679 201.284053 80.5918679 202.551053 80.4918679 203.201053 80.3317679 203.847053 80.1418679 204.477053 79.5918679 206.307053 78.5618679 207.049053 76.3718679 207.044078zM343.831968 292.786653C344.311968 292.843653 344.441968 292.853653 344.571968 292.874653 345.161968 292.969653 345.541968 293.385653 345.681968 293.879653 345.841968 294.410653 345.571968 294.981653 345.041968 295.161653 343.301968 295.753753 341.541968 296.303653 339.771968 296.801653 336.101968 297.833653 332.361968 298.626653 328.881968 300.292653 327.241968 301.075653 325.371968 300.659753 324.561968 299.579653 324.221968 299.130653 324.191968 298.534753 324.441968 298.080653 325.201968 296.725653 326.341968 295.980653 327.951968 295.945753 332.201968 295.853653 336.221968 294.500653 340.331968 293.617753 341.611968 293.341753 342.881968 293.013753 343.831968 292.786653zM28.0218679 101.139053C24.7818679 100.994053 22.2117679 101.650053 19.6418679 102.290053 17.5918679 102.801053 15.5418679 103.363053 13.4918679 103.863053 12.4517679 104.115053 11.4818679 103.657053 11.1718679 102.857053 10.8317679 101.985053 11.2418679 101.279053 11.7818679 100.694053 12.4218679 100.012053 13.1718679 99.3620528 14.2017679 99.5880528 16.3818679 100.067053 18.3818679 99.2970528 20.4417679 98.8470528 23.5518679 98.1710528 26.6718679 97.5100528 29.8918679 97.8500528 31.1818679 97.9880528 31.5817679 98.4000528 31.5018679 99.5620528 31.4218679 100.865053 30.7818679 101.432053 29.4318679 101.341053 28.7718679 101.297053 28.1218679 101.155053 28.0218679 101.139053zM62.7117679 17.2050528C61.8418679 16.9200528 61.3018679 16.5580528 61.0618679 15.8980528 60.8518679 15.3490528 61.0518679 14.8620528 61.4517679 14.4790528 62.2218679 13.7500528 63.0218679 13.0670528 64.1218679 12.9050528 69.3418679 12.1370528 74.2218679 10.0710528 79.3518679 8.9570528 79.8618679 8.8480528 80.3818679 8.7690528 80.9018679 8.7480528 81.5118679 8.7220528 82.0418679 9.5240528 81.8818679 10.1540528 81.5418679 11.4890528 80.7618679 12.5160528 79.6618679 13.2980528 79.2117679 13.6180528 78.5717679 13.7410528 78.1818679 13.4070528 77.2017679 12.5790528 76.2318679 12.8480528 75.2117679 13.1650528 71.4617679 14.3380528 67.7017679 15.5060528 63.9517679 16.6910528 63.4718679 16.8430528 63.0118679 17.0770528 62.7117679 17.2050528zM100.811968 117.783053C100.851968 116.716053 100.931968 114.747053 101.271968 112.777053 101.501968 111.391053 101.841968 109.945053 101.121968 108.499053 100.691968 107.628053 101.071968 106.674053 101.631968 105.887053 102.221968 105.068053 104.031968 104.464053 104.801968 104.888053 105.821968 105.450053 105.621968 106.428053 105.481968 107.353053 104.671968 112.703053 103.651968 118.031053 103.841968 123.486053 103.871968 124.445053 103.301968 125.076053 102.521968 125.157053 101.741968 125.238053 100.881968 124.677053 100.831968 123.838053 100.751968 122.128053 100.811968 120.411053 100.811968 117.783053zM128.531968 176.940053C128.451968 175.940053 128.791968 175.096053 129.601968 174.512053 133.701968 171.547053 136.951968 167.672053 140.581968 164.204053 141.381968 163.433053 142.541968 163.422053 143.351968 164.191053 143.991968 164.801053 144.061968 165.911053 143.371968 166.712053 142.601968 167.607053 141.811968 168.559053 140.831968 169.194053 137.801968 171.170053 135.221968 173.569053 133.381968 176.697053 132.611968 178.011053 131.411968 178.365053 130.041968 178.460053 129.251968 178.516053 128.561968 177.789053 128.531968 176.940053zM338.301968 242.049053C338.951968 242.180053 339.601968 242.265053 340.231968 242.452653 340.891968 242.653653 341.471968 243.116653 341.501968 243.822653 341.541968 244.699653 340.751968 244.709653 340.111968 244.832653 335.031968 245.803653 330.141968 247.380653 325.471968 249.614653 324.641968 250.011653 323.801968 250.432653 322.921968 250.689653 322.111968 250.928653 321.351968 250.641653 320.841968 249.906653 320.351968 249.189653 320.541968 248.051653 321.361968 247.426653 321.871968 247.035653 322.461968 246.693653 323.081968 246.516653 326.891968 245.414753 330.691968 244.315753 334.391968 242.835653 335.591968 242.352753 336.971968 242.302653 338.301968 242.049053zM197.491968 125.367053C197.321968 125.674053 197.231968 126.140053 196.951968 126.318053 195.961968 126.956053 194.951968 127.599053 193.861968 128.058053 189.501968 129.905053 184.881968 131.051053 180.601968 133.127053 179.601968 133.611053 178.321968 132.964053 178.011968 132.029053 177.611968 130.849053 178.121968 129.348053 179.071968 128.934053 179.301968 128.830053 179.561968 128.742053 179.821968 128.705053 184.801968 127.982053 189.451968 126.117053 194.151968 124.417053 194.921968 124.139053 195.651968 123.961053 196.441968 124.180053 197.021968 124.339053 197.211968 124.833053 197.491968 125.367053zM287.021968 212.637053C286.911968 213.714053 286.231968 214.294053 285.251968 214.474053 283.831968 214.734053 282.431968 215.064053 281.031968 215.434053 277.571968 216.350053 274.271968 217.576053 271.291968 219.592053 271.181968 219.665053 271.071968 219.743053 270.951968 219.805053 269.751968 220.453053 268.641968 220.319053 268.151968 219.470053 267.561968 218.442053 268.131968 216.586053 269.281968 216.083053 270.361968 215.613053 271.511968 215.305053 272.621968 214.916053 276.221968 213.660053 279.821968 212.407053 283.421968 211.137053 284.171968 210.869053 284.921968 210.691053 285.731968 210.880053 286.461968 211.050053 287.081968 211.870053 287.021968 212.637053zM116.181968 84.3560528C116.091968 85.1380528 115.641968 85.5490528 114.931968 85.7100528 114.081968 85.9020528 113.291968 85.7020528 112.791968 85.0140528 112.091968 84.0580528 111.431968 83.0550528 110.921968 81.9910528 109.541968 79.1220528 108.181968 76.2770528 105.961968 73.9120528 105.011968 72.8980528 105.251968 71.7270528 106.321968 70.7770528 107.231968 69.9600528 108.691968 70.0060528 109.521968 70.9780528 109.931968 71.4650528 110.171968 72.1030528 110.471968 72.6850528 112.031968 75.7460528 113.301968 78.9710528 115.371968 81.7600528 115.951968 82.5410528 116.071968 83.4570528 116.181968 84.3560528zM10.0018679 128.854053C10.0518679 128.093053 10.3818679 127.683053 10.8518679 127.417053 12.1218679 126.695053 13.6718679 127.075053 14.1718679 128.387053 16.0018679 133.187053 18.2918679 137.834053 19.1118679 142.981053 19.2017679 143.503053 19.4018679 143.999053 19.1418679 144.513053 18.8918679 145.005053 18.5318679 145.344053 17.9617679 145.455053 17.4918679 145.545053 17.1718679 145.309053 16.9617679 144.987053 16.6118679 144.437053 16.2418679 143.867053 16.0318679 143.253053 14.4218679 138.636053 12.5918679 134.119053 10.2618679 129.814053 10.0817679 129.482053 10.0618679 129.063053 10.0018679 128.854053zM123.881968 2.2380528C125.171968 2.1190528 125.941968 2.5740528 126.431968 3.4410528 128.251968 6.6580528 130.541968 9.5410528 132.751968 12.4890528 133.061968 12.9030528 133.341968 13.3840528 133.471968 13.8780528 133.671968 14.6680528 133.591968 15.4580528 132.841968 15.9920528 132.081968 16.5320528 131.311968 16.3720528 130.661968 15.8470528 130.051968 15.3540528 129.491968 14.7750528 129.001968 14.1600528 126.701968 11.2750528 124.441968 8.3680528 122.171968 5.4620528 122.011968 5.2570528 121.911968 5.0050528 121.791968 4.7690528 121.261968 3.6740528 121.741968 2.6770528 122.961968 2.3790528 123.351968 2.2860528 123.741968 2.2580528 123.881968 2.2380528zM292.651968 10.7560528C292.631968 11.4250528 292.151968 12.0550528 291.351968 12.3330528 286.531968 14.0140528 283.501968 17.9020528 280.121968 21.3720528 279.491968 22.0240528 279.141968 22.9230528 278.261968 23.3750528 277.551968 23.7410528 276.591968 23.2850528 276.461968 22.4680528 276.341968 21.6490528 276.381968 20.7940528 276.971968 20.2400528 280.521968 16.9170528 283.381968 12.8970528 287.391968 10.0400528 288.471968 9.2660528 289.591968 8.5960528 291.001968 8.6920528 291.961968 8.7570528 292.711968 9.5630528 292.651968 10.7560528zM47.9318679 116.201053C47.8618679 114.613053 48.5817679 113.472053 49.8718679 113.113053 51.0018679 112.797053 52.0918679 113.421053 52.2518679 114.546053 52.4617679 115.984053 52.6418679 117.428053 52.7718679 118.874053 53.0618679 122.044053 53.5118679 125.179053 54.4318679 128.239053 54.7818679 129.396053 54.3718679 130.065053 53.3418679 130.412053 52.1218679 130.824053 51.1518679 130.448053 50.7918679 129.324053 50.4617679 128.322053 50.1718679 127.298053 50.0018679 126.262053 49.4918679 123.133053 49.3518679 119.932053 48.0418679 116.970053 47.9417679 116.741053 47.9617679 116.458053 47.9318679 116.201053zM8.11186794 297.440753C7.33176794 297.225653 6.90186794 296.753753 6.57176794 296.153653 6.23186794 295.526653 6.18186794 294.889753 6.60186794 294.297653 6.82176794 293.983653 7.13186794 293.710653 7.44176794 293.482753 11.1718679 290.770653 14.9018679 288.061653 18.6618679 285.379653 19.1818679 285.002653 19.7918679 284.686653 20.4118679 284.490653 22.2017679 283.920753 23.7618679 284.968653 24.1518679 286.929653 24.3118679 287.728653 23.4818679 288.639753 22.7718679 288.270653 21.6818679 287.706753 20.8718679 287.906653 19.8418679 288.432653 17.5918679 289.584653 15.5418679 290.896653 13.8217679 292.833653 12.4417679 294.400653 10.6917679 295.653653 9.08176794 297.012653 8.80186794 297.247753 8.39186794 297.322653 8.11186794 297.440753zM180.321968 6.3970528C180.381968 7.4310528 179.771968 8.0150528 179.341968 8.6570528 176.841968 12.4000528 174.401968 16.1730528 172.871968 20.4460528 172.691968 20.9430528 172.491968 21.4370528 172.251968 21.9060528 171.961968 22.4740528 170.961968 22.4980528 170.551968 21.9720528 169.771968 20.9800528 169.371968 19.9260528 169.921968 18.6710528 170.661968 16.9790528 171.301968 15.2400528 172.121968 13.5850528 173.231968 11.3380528 174.671968 9.2750528 175.461968 6.8440528 175.941968 5.3260528 177.911968 4.7090528 179.421968 5.3630528 179.921968 5.5780528 180.301968 5.9460528 180.321968 6.3970528zM62.7518679 34.9830528C62.6917679 35.1720528 62.6318679 35.7210528 62.3718679 36.1480528 59.8918679 40.2560528 58.5918679 44.8550528 56.9617679 49.3110528 56.5218679 50.5120528 55.9918679 51.4370528 54.8818679 52.0500528 54.2518679 52.4010528 53.6118679 52.5230528 53.0418679 52.0480528 52.3618679 51.4840528 52.0918679 50.6300528 52.5618679 49.9080528 54.7618679 46.5410528 55.6917679 42.6250528 57.3818679 39.0410528 57.8317679 38.0920528 58.1518679 37.0750528 58.4417679 36.0620528 58.9018679 34.4100528 59.6418679 33.7110528 61.3317679 33.4980528 61.9018679 33.4260528 62.6917679 34.0760528 62.7518679 34.9830528zM228.521968 49.0830528C228.691968 50.0190528 228.271968 50.7160528 227.851968 51.3760528 226.151968 54.0760528 224.991968 57.0190528 223.921968 60.0020528 223.341968 61.6070528 222.661968 63.1600528 222.971968 64.9760528 223.131968 65.9010528 222.281968 66.6470528 221.301968 66.7860528 220.331968 66.9250528 219.871968 66.2740528 219.491968 65.5610528 219.001968 64.6710528 219.201968 63.7930528 219.531968 62.8900528 221.081968 58.6900528 222.581968 54.4740528 224.131968 50.2780528 224.571968 49.0980528 225.441968 48.3220528 226.701968 48.0310528 227.421968 47.8650528 228.461968 48.5070528 228.521968 49.0830528zM145.371968 23.9310528C145.511968 23.1120528 146.041968 22.5260528 146.811968 22.2470528 147.851968 21.8730528 148.981968 21.9300528 149.851968 22.5710528 153.651968 25.3860528 157.311968 28.3740528 160.541968 31.8460528 161.111968 32.4560528 161.531968 33.1910528 160.871968 33.9280528 160.331968 34.5290528 159.561968 34.8360528 158.741968 34.4150528 158.041968 34.0580528 157.331968 33.6960528 156.721968 33.2190528 155.781968 32.4940528 154.901968 31.7020528 154.051968 30.8790528 151.881968 28.7750528 149.701968 26.7180528 146.751968 25.7020528 146.021968 25.4490528 145.381968 24.9030528 145.371968 23.9310528zM309.011968 262.605653C308.411968 262.392653 307.961968 262.357753 307.701968 262.119653 307.021968 261.502653 306.431968 260.828653 306.161968 259.869653 305.661968 258.096753 305.091968 256.333653 304.421968 254.617753 303.611968 252.526653 302.771968 250.439653 300.881968 248.973653 300.291968 248.510653 299.891968 247.724653 300.221968 246.841753 300.691968 245.631653 301.821968 245.508753 302.841968 245.377653 303.811968 245.252653 304.711968 245.658653 305.131968 246.612753 307.081968 251.103653 308.751968 255.694653 309.661968 260.525653 309.741968 260.902653 309.741968 261.334653 309.621968 261.691753 309.511968 262.043653 309.201968 262.332653 309.011968 262.605653zM53.8118679 322.659753C52.9617679 322.598653 52.3818679 322.089653 51.9617679 321.376653 51.5318679 320.651653 51.4018679 319.874653 51.8818679 319.134653 52.0918679 318.810753 52.4118679 318.535653 52.7418679 318.325653 55.1318679 316.801653 56.8818679 314.695753 58.5518679 312.440753 59.9617679 310.543653 61.7017679 308.888753 63.3618679 307.187653 63.8018679 306.735653 64.4718679 306.393753 65.1618679 306.757653 66.0918679 307.249653 66.3317679 308.119653 66.3217679 309.108653 66.3217679 309.867753 66.0018679 310.397653 65.2718679 310.578653 62.9118679 311.172653 61.6018679 313.057653 60.2418679 314.789753 58.5218679 316.971753 57.0218679 319.317653 55.4018679 321.576753 55.0218679 322.109653 54.5817679 322.621653 53.8118679 322.659753zM230.401968 179.325053C230.301968 180.738053 230.641968 182.329053 230.091968 183.866053 229.831968 184.606053 228.761968 184.793053 228.161968 184.231053 227.531968 183.643053 227.241968 182.894053 227.291968 182.113053 227.561968 177.577053 226.611968 173.245053 225.241968 168.966053 225.091968 168.489053 225.061968 167.914053 225.171968 167.427053 225.311968 166.765053 225.821968 166.243053 226.461968 166.056053 227.411968 165.781053 228.301968 166.061053 228.921968 166.828053 229.241968 167.217053 229.571968 167.745053 229.581968 168.217053 229.671968 171.886053 230.931968 175.465053 230.401968 179.325053zM200.691968 44.1130528C199.611968 43.8990528 198.051968 43.6240528 196.501968 43.2720528 193.271968 42.5360528 190.041968 41.8170528 186.731968 41.5620528 186.471968 41.5420528 186.201968 41.5050528 185.941968 41.4560528 184.381968 41.1650528 183.621968 40.3950528 183.711968 39.1810528 183.791968 38.1920528 185.071968 37.3040528 186.411968 37.3500528 186.801968 37.3630528 187.241968 37.4040528 187.571968 37.5840528 190.911968 39.3950528 194.671968 39.6160528 198.281968 40.4170528 199.701968 40.7330528 201.121968 41.0360528 202.531968 41.3960528 203.181968 41.5620528 203.801968 41.8730528 203.641968 42.7330528 203.511968 43.4370528 203.081968 43.9390528 202.371968 44.0980528 201.991968 44.1820528 201.581968 44.1130528 200.691968 44.1130528zM89.4617679 182.097053C87.5817679 181.869053 85.4918679 181.649053 83.4018679 181.344053 82.5418679 181.219053 82.0318679 180.596053 81.8818679 179.734053 81.7117679 178.762053 82.1618679 177.745053 82.9818679 177.400053 83.7117679 177.092053 84.5518679 176.719053 85.2718679 177.149053 88.7518679 179.217053 92.4417679 178.417053 96.1018679 178.083053 96.6218679 178.036053 97.1518679 177.831053 97.6618679 177.880053 98.1718679 177.928053 98.6818679 178.154053 99.1418679 178.393053 99.6318679 178.652053 99.8718679 179.148053 99.8918679 179.700053 99.9118679 180.286053 99.5717679 180.713053 99.0817679 180.952053 98.6218679 181.180053 98.1018679 181.380053 97.5918679 181.427053 94.9617679 181.673053 92.3317679 181.867053 89.4617679 182.097053zM132.111968 62.7020528C130.471968 62.7020528 129.921968 61.5870528 130.221968 60.8550528 130.601968 59.9310528 131.341968 59.3590528 132.151968 58.9210528 136.101968 56.7700528 139.861968 54.2630528 143.991968 52.4420528 145.561968 51.7500528 147.081968 50.9320528 148.651968 50.2410528 149.271968 49.9640528 149.961968 50.0280528 150.421968 50.6550528 150.791968 51.1530528 150.551968 52.4130528 150.001968 52.8280528 149.701968 53.0650528 149.351968 53.2960528 148.981968 53.4050528 146.801968 54.0520528 144.891968 55.2510528 142.861968 56.1940528 139.591968 57.7090528 136.501968 59.4630528 133.711968 61.7340528 132.961968 62.3360528 132.141968 62.7010528 132.111968 62.7020528zM87.0118679 75.0780528C86.1118679 74.9210528 85.4218679 74.5730528 85.1618679 73.7080528 84.3118679 70.8810528 82.7318679 68.4370528 81.2117679 65.9480528 80.5218679 64.8060528 79.7518679 63.7630528 78.8518679 62.7750528 77.9118679 61.7280528 78.0118679 60.6030528 79.0218679 59.7320528 79.6418679 59.1930528 80.7017679 59.1970528 81.1418679 59.8220528 82.8217679 62.2020528 84.4718679 64.5960528 86.1018679 67.0060528 87.0717679 68.4260528 87.8418679 69.9570528 89.0018679 71.2640528 90.1917679 72.6060528 89.9417679 73.5660528 88.4018679 74.4360528 87.9417679 74.6960528 87.4417679 74.8820528 87.0118679 75.0780528zM7.96176794 185.337053C7.93186794 184.673053 9.11186794 183.706053 9.87186794 184.094053 11.2818679 184.806053 12.8418679 185.422053 13.9517679 186.486053 16.7718679 189.213053 20.1917679 190.875053 23.7017679 192.398053 24.5817679 192.778053 25.4417679 193.093053 25.8018679 194.038053 25.9318679 194.376053 25.9417679 194.881053 25.7718679 195.171053 25.6018679 195.453053 25.1418679 195.707053 24.8018679 195.714053 23.4417679 195.744053 22.2117679 195.169053 21.0418679 194.603053 16.9918679 192.655053 13.1118679 190.396053 9.50186794 187.699053 8.76186794 187.141053 8.00186794 186.603053 7.96176794 185.337053zM68.1917679 258.658653C68.5018679 257.409753 68.7618679 255.699653 69.3418679 254.105653 70.1618679 251.872753 70.9018679 249.640653 71.4218679 247.314653 71.9617679 244.871653 73.9918679 244.360653 75.8418679 246.092753 76.3418679 246.566753 76.6518679 247.123753 76.2518679 247.834653 76.0018679 248.293653 75.8018679 248.800753 75.4918679 249.214653 73.2818679 252.122753 72.0618679 255.397653 71.7017679 259.020653 71.6418679 259.668653 71.4617679 260.318653 71.2518679 260.934653 70.9918679 261.648753 70.3518679 261.845653 69.6618679 261.851734 68.8818679 261.858653 68.4517679 261.413653 68.3418679 260.680753 68.2618679 260.161653 68.2618679 259.631653 68.1917679 258.658653zM196.231968 29.6610528C196.391968 28.8850528 196.471968 28.0900528 196.721968 27.3510528 197.141968 26.1030528 197.611968 24.8620528 198.161968 23.6680528 199.161968 21.5270528 200.411968 19.5370528 200.941968 17.1530528 201.411968 15.0850528 203.111968 14.7220528 204.971968 15.9520528 205.811968 16.5040528 205.941968 16.9730528 205.411968 17.9360528 203.881968 20.7070528 202.241968 23.4210528 200.801968 26.2370528 199.901968 27.9880528 199.311968 29.8950528 198.521968 31.7030528 198.401968 31.9840528 197.911968 32.2840528 197.611968 32.2570528 197.311968 32.2300528 196.911968 31.8760528 196.771968 31.5670528 196.511968 30.9790528 196.411968 30.3210528 196.231968 29.6610528zM18.7117679 45.4420528C18.2518679 45.3530528 18.0018679 45.3060528 17.7418679 45.2520528 16.5618679 45.0090528 16.0918679 43.7350528 16.8317679 42.8260528 17.3518679 42.1950528 17.9718679 41.7120528 18.7518679 41.5030528 19.5118679 41.3000528 20.2818679 41.1330528 21.0618679 41.0250528 24.9018679 40.4930528 28.3718679 38.9650528 31.7318679 37.1150528 32.1718679 36.8680528 32.6618679 36.6210528 33.1518679 36.5500528 33.8018679 36.4560528 34.5018679 36.5400528 34.9118679 37.1640528 35.2418679 37.6660528 35.0318679 38.2290528 34.7418679 38.6480528 33.8618679 39.9400528 33.0918679 41.1810528 31.0518679 40.9950528 29.5218679 40.8550528 28.0618679 41.8580528 26.6318679 42.5350528 24.9718679 43.3210528 23.2918679 44.0720528 21.5817679 44.7250528 20.6118679 45.0950528 19.5518679 45.2390528 18.7117679 45.4420528zM95.1018679 299.894753C95.1917679 299.374653 95.2518679 298.579653 95.4818679 297.838653 96.1718679 295.580653 96.9018679 293.332653 97.6718679 291.098653 98.7017679 288.120653 99.7918679 285.165753 100.821968 282.188653 101.231968 280.992753 101.891968 280.116653 103.171968 279.768753 104.031968 279.534753 104.791968 280.044753 104.791968 280.924653 104.801968 282.145653 104.441968 283.252653 103.811968 284.286653 100.831968 289.159753 99.2017679 294.564653 97.6218679 299.987753 97.5118679 300.364653 97.5518679 300.820753 97.3618679 301.127653 97.1718679 301.418653 96.7718679 301.705653 96.4318679 301.736653 95.9118679 301.786653 95.4218679 301.522653 95.2618679 300.936653 95.1917679 300.686653 95.1818679 300.419753 95.1018679 299.894753zM75.2318679 146.595053C75.3118679 145.081053 76.8818679 143.958053 78.3217679 144.491053 79.4318679 144.899053 80.5318679 145.414053 81.5218679 146.043053 83.4218679 147.239053 85.2618679 148.530053 87.0918679 149.827053 87.6318679 150.203053 88.1018679 150.695053 88.5118679 151.203053 89.0918679 151.907053 88.9818679 153.030053 88.3518679 153.748053 87.7117679 154.476053 86.6917679 154.671053 85.8518679 154.125053 84.7418679 153.409053 83.6818679 152.620053 82.6018679 151.865053 80.7618679 150.572053 78.8018679 149.498053 76.6718679 148.735053 75.7518679 148.406053 75.1718679 147.669053 75.2318679 146.595053zM194.931968 79.9110528C197.981968 79.7000528 200.091968 79.5090528 202.211968 79.4330528 202.981968 79.4060528 203.781968 79.5780528 204.521968 79.8030528 205.151968 79.9900528 205.541968 81.1900528 205.281968 81.8750528 205.001968 82.6200528 204.261968 82.9060528 203.671968 82.6580528 201.131968 81.5910528 198.691968 82.5010528 196.291968 83.0110528 193.671968 83.5660528 191.051968 83.5470528 188.431968 83.6490528 187.571968 83.6820528 186.861968 83.3400528 186.641968 82.4160528 186.401968 81.3720528 187.021968 80.1080528 188.001968 79.8630528 188.751968 79.6760528 189.571968 79.6570528 190.351968 79.6810528 192.191968 79.7370528 194.031968 79.8630528 194.931968 79.9110528zM199.601968 95.0880528C199.651968 93.8190528 200.751968 92.5790528 201.831968 92.4310528 202.381968 92.3540528 202.881968 92.5670528 203.241968 92.9860528 203.851968 93.7080528 204.171968 94.5720528 204.271968 95.5060528 204.581968 98.2480528 204.831968 100.999053 205.201968 103.732053 205.401968 105.156053 205.811968 106.549053 206.121968 107.957053 206.251968 108.530053 206.021968 109.059053 205.631968 109.384053 205.071968 109.849053 204.421968 109.718053 203.801968 109.346053 203.211968 108.992053 202.861968 108.503053 202.591968 107.865053 202.121968 106.753053 202.001968 105.601053 201.841968 104.421053 201.471968 101.559053 201.251968 98.6450528 199.851968 96.0180528 199.671968 95.6880528 199.651968 95.2760528 199.601968 95.0880528zM115.861968 31.3940528C115.901968 30.6880528 115.811968 29.8700528 116.001968 29.1220528 116.781968 26.0660528 117.511968 23.0280528 117.401968 19.8240528 117.361968 18.5280528 119.081968 17.6980528 120.361968 18.1960528 120.911968 18.4060528 121.201968 18.8620528 121.261968 19.3930528 121.391968 20.7120528 121.151968 21.9940528 120.841968 23.2820528 120.391968 25.1950528 120.081968 27.1410528 119.631968 29.0580528 119.251968 30.7490528 119.141968 32.4280528 119.531968 34.1240528 119.661968 34.6670528 119.641968 35.1790528 119.161968 35.5360528 118.581968 35.9700528 117.931968 35.9340528 117.301968 35.6520528 116.691968 35.3720528 116.171968 34.9270528 116.081968 34.2240528 115.961968 33.3150528 115.931968 32.3940528 115.861968 31.3940528zM85.0018679 122.435053C84.9018679 123.463053 83.7017679 124.433053 82.9718679 124.050053 79.3918679 122.161053 76.0717679 123.704053 72.7017679 124.704053 71.5717679 125.040053 70.4818679 125.530053 69.3518679 125.832053 68.2618679 126.121053 67.5218679 125.634053 67.2518679 124.642053 66.9318679 123.396053 67.3418679 122.365053 68.3418679 122.013053 68.7117679 121.883053 69.1018679 121.780053 69.4918679 121.745053 72.1218679 121.508053 74.6718679 120.906053 77.2318679 120.247053 78.7418679 119.858053 80.3518679 119.777053 81.9218679 119.723053 83.1818679 119.680053 84.2218679 120.257053 84.7618679 121.491053 84.9118679 121.841053 84.9517679 122.236053 85.0018679 122.435053zM1.38186794 167.423053C.461767937 167.462053-.278132063 166.360053.101867937 165.473053.411867937 164.731053.811867937 164.077053 1.71176794 163.899053 6.40186794 162.971053 10.6818679 160.997053 14.8518679 158.721053 16.1818679 157.990053 17.8818679 159.280053 17.6818679 160.838053 17.5717679 161.696053 17.0218679 162.382053 16.1218679 162.280053 14.3918679 162.087053 13.0817679 162.939053 11.7318679 163.760053 8.77186794 165.561053 5.50186794 166.521053 2.16186794 167.289053 1.90186794 167.348053 1.64186794 167.379053 1.38186794 167.423053zM40.5118679 277.895653C40.6118679 276.941753 40.9417679 276.397653 41.5918679 276.101653 42.2918679 275.779753 43.0018679 276.023753 43.3317679 276.594653 43.9718679 277.731653 44.6018679 278.929653 44.9417679 280.182653 46.5018679 285.900653 47.9517679 291.646653 49.4617679 297.381653 49.5817679 297.872753 49.3118679 298.106653 48.9617679 298.291653 48.5218679 298.516653 48.0918679 298.282653 47.9417679 297.956753 47.1917679 296.278653 46.4318679 294.597753 45.8317679 292.860653 45.2418679 291.118753 44.8418679 289.308653 44.3618679 287.527653 43.6418679 284.859653 42.9718679 282.179653 41.3618679 279.848653 40.9218679 279.218653 40.7318679 278.417653 40.5118679 277.895653zM333.691968 170.979053C334.351968 170.984053 335.041968 170.917053 335.581968 171.372053 338.871968 174.137053 342.921968 175.521053 346.621968 177.521053 346.851968 177.645053 347.121968 177.764053 347.271968 177.960053 347.501968 178.248053 347.751968 178.593053 347.791968 178.933053 347.831968 179.447053 347.341968 179.506053 346.961968 179.537053 345.891968 179.622053 344.861968 179.478053 343.851968 179.068053 341.181968 177.975053 338.261968 177.531053 335.741968 175.976053 334.881968 175.452053 333.711968 175.454053 332.701968 175.183053 331.581968 174.883053 330.931968 173.927053 331.071968 172.849053 331.201968 171.907053 331.891968 171.216053 332.901968 171.049053 333.161968 171.005053 333.431968 171.000053 333.691968 170.979053zM155.311968 216.752053C155.371968 216.371053 155.381968 215.963053 155.501968 215.588053 156.961968 210.925053 158.411968 206.258053 159.921968 201.611053 160.291968 200.451053 161.201968 199.924053 161.961968 200.179053 162.931968 200.502053 163.381968 201.585053 162.921968 202.828053 162.091968 205.061053 161.171968 207.259053 160.321968 209.483053 159.331968 212.048053 157.881968 214.537053 159.181968 217.463053 159.331968 217.811053 158.961968 218.477053 158.701968 218.910053 158.051968 219.965053 156.791968 219.942053 156.061968 218.989053 155.541968 218.313053 155.461968 217.538053 155.311968 216.752053zM21.1418679 73.0310528C20.8217679 72.9600528 20.2518679 72.9710528 19.8217679 72.7230528 16.1818679 70.5920528 12.6718679 68.2650528 9.76186794 65.1630528 8.74186794 64.0840528 8.99186794 63.1190528 10.3518679 62.2800528 11.6917679 61.4520528 12.5218679 61.4340528 13.4617679 62.6480528 15.2518679 64.9770528 17.4118679 66.8560528 19.8118679 68.5090528 20.9218679 69.2740528 21.5018679 70.5050528 22.0018679 71.7200528 22.2318679 72.2550528 21.8918679 72.7110528 21.1418679 73.0310528zM82.5717679 88.4980528C83.1418679 88.5860528 83.6018679 88.9000528 83.7218679 89.4340528 83.8018679 89.7600528 83.6818679 90.2320528 83.4718679 90.5080528 82.1618679 92.2520528 80.2518679 93.2750528 78.4318679 94.2960528 76.2218679 95.5290528 74.1318679 96.8920528 72.1218679 98.4020528 71.1818679 99.1040528 70.0717679 99.5850528 69.0318679 100.142053 68.3418679 100.511053 67.7618679 100.276053 67.2918679 99.7140528 66.7718679 99.0960528 66.7918679 98.0470528 67.4118679 97.5730528 68.1418679 97.0170528 68.9417679 96.5490528 69.7318679 96.0850528 72.1318679 94.6860528 74.5918679 93.3850528 76.9318679 91.8910528 78.1418679 91.1180528 79.4818679 90.4830528 80.4018679 89.2760528 80.9218679 88.6020528 81.7518679 88.4980528 82.5717679 88.4980528zM155.331968 76.1810528C155.961968 76.3300528 156.351968 76.3950528 156.721968 76.5160528 157.381968 76.7330528 157.631968 78.1100528 157.061968 78.5360528 156.651968 78.8420528 156.171968 79.1520528 155.691968 79.2570528 151.281968 80.2020528 147.021968 81.6260528 142.821968 83.2310528 142.331968 83.4190528 141.821968 83.5770528 141.321968 83.7210528 140.641968 83.9120528 139.961968 83.8810528 139.511968 83.2860528 138.931968 82.5040528 139.371968 81.7630528 139.841968 81.1120528 140.051968 80.8110528 140.411968 80.4630528 140.741968 80.4130528 144.711968 79.8200528 148.091968 77.4120528 152.041968 76.7970528 153.211968 76.6150528 154.381968 76.3610528 155.331968 76.1810528zM3.38186794 249.011653C2.25186794 248.975653 1.70176794 247.606653 2.09186794 246.777653 2.39186794 246.128753 2.94176794 245.771653 3.51186794 245.469653 7.11186794 243.547653 10.5717679 241.422053 13.9318679 239.087053 16.3918679 237.383053 19.2518679 236.257053 21.9417679 234.908053 22.3317679 234.715053 22.7117679 234.988053 22.8418679 235.380053 22.9118679 235.577053 22.8418679 235.928053 22.6917679 236.070053 22.3217679 236.433053 21.9018679 236.769053 21.4517679 237.026053 16.6318679 239.756053 12.4018679 243.343653 7.80186794 246.385653 6.70176794 247.110653 5.63186794 247.866653 4.51186794 248.557653 4.08176794 248.819653 3.57176794 248.938653 3.38186794 249.011653zM39.1318679 328.975653C39.2117679 330.252653 39.0118679 330.893753 38.4318679 331.292653 36.7218679 332.468653 36.3317679 334.307653 36.1618679 336.120653 35.9718679 338.007653 35.3518679 339.719653 34.7017679 341.450653 34.4918679 342.012653 34.0218679 342.251653 33.4818679 342.285653 32.7418679 342.330653 32.1917679 341.920753 31.9417679 341.270653 31.7518679 340.798653 31.6518679 340.233653 31.7117679 339.737753 31.8217679 338.957653 32.0717679 338.193653 32.3018679 337.435753 33.1118679 334.780653 33.9218679 332.125653 34.7618679 329.480653 35.0018679 328.726653 35.3018679 327.987753 35.6418679 327.273753 36.0318679 326.467753 36.7318679 326.171653 37.6118679 326.274753 38.4018679 326.366653 38.7117679 326.922653 38.8718679 327.596753 39.0218679 328.236653 39.1218679 328.889753 39.1318679 328.975653zM114.551968 52.3340728C114.351968 52.2890528 113.811968 52.2400528 113.331968 52.0500528 110.151968 50.7910528 106.981968 49.5120528 103.821968 48.2100528 103.471968 48.0660528 103.151968 47.7790528 102.891968 47.4950528 102.491968 47.0600528 102.481968 46.5100528 102.801968 46.0460528 103.761968 44.6560528 105.071968 44.1790528 106.541968 44.9030528 109.511968 46.3540528 112.531968 47.6350528 115.661968 48.6700528 116.491968 48.9430528 117.091968 49.4350528 117.001968 50.3580528 116.911968 51.4070528 115.831968 52.3390528 114.551968 52.3340728zM186.951968 165.625053C186.851968 164.982053 187.261968 164.123053 187.591968 163.270053 189.311968 158.834053 191.051968 154.408053 192.821968 149.992053 193.061968 149.394053 193.431968 148.809053 193.871968 148.342053 194.471968 147.706053 195.281968 147.643053 196.061968 148.013053 196.561968 148.248053 196.921968 148.680053 196.701968 149.275053 196.521968 149.766053 196.281968 150.252053 195.971968 150.672053 193.031968 154.675053 191.801968 159.453053 189.861968 163.909053 189.311968 165.170053 189.941968 166.231053 189.941968 167.382053 189.941968 168.101053 189.371968 168.597053 188.671968 168.668053 188.141968 168.722053 187.671968 168.374053 187.411968 167.860053 187.291968 167.625053 187.151968 167.388053 187.101968 167.136053 187.021968 166.749053 187.011968 166.348053 186.951968 165.625053zM168.911968 64.0980528C168.571968 62.5950528 169.071968 61.3180528 169.331968 60.0420528 169.611968 58.7410528 169.821968 57.5100528 169.641968 56.1420528 169.411968 54.2830528 170.671968 53.1580528 172.501968 53.2770528 173.521968 53.3440528 174.251968 54.0770528 174.151968 55.1010528 174.031968 56.2820528 173.821968 57.4590528 173.561968 58.6180528 172.841968 61.8360528 172.081968 65.0450528 171.331968 68.2550528 171.211968 68.7800528 170.971968 69.3110528 170.331968 69.2010528 170.001968 69.1440528 169.551968 68.8410528 169.451968 68.5480528 168.921968 67.0660528 168.111968 65.5970528 168.911968 64.0980528zM265.561968 123.081053C265.561968 123.086053 265.441968 123.595053 265.221968 124.054053 264.181968 126.184053 263.081968 128.286053 262.061968 130.429053 261.181968 132.303053 259.871968 134.034053 260.241968 136.343053 260.381968 137.174053 259.671968 137.773053 258.901968 138.114053 258.031968 138.502053 256.841968 137.912053 256.781968 136.999053 256.741968 136.227053 256.731968 135.387053 256.991968 134.676053 257.611968 132.943053 258.351968 131.248053 259.121968 129.573053 259.991968 127.665053 261.191968 125.911053 261.421968 123.724053 261.531968 122.630053 262.311968 121.836053 263.261968 121.279053 263.751968 120.991053 264.281968 121.010053 264.761968 121.298053 265.221968 121.578053 265.581968 121.966053 265.561968 123.081053zM37.5618679 126.296053C35.2818679 126.779053 32.7918679 125.443053 30.1318679 125.457053 28.6818679 125.465053 28.1818679 123.675053 29.1318679 122.452053 30.0717679 121.240053 31.1518679 120.661053 32.1418679 121.284053 34.3018679 122.639053 36.6917679 122.478053 39.0418679 122.704053 39.8118679 122.779053 40.6318679 122.630053 41.3118679 123.185053 41.9517679 123.707053 42.5118679 124.342053 42.2618679 125.193053 42.0618679 125.842053 41.4218679 126.228053 40.7318679 126.279053 39.8118679 126.348053 38.8918679 126.296053 37.5618679 126.296053zM49.5817679 92.2510528C48.9918679 92.2070528 48.4918679 92.0490528 48.1618679 91.5860528 47.6518679 90.8890528 48.0717679 90.3560528 48.5218679 89.8630528 50.9118679 87.2310528 53.2318679 84.5170528 56.0717679 82.3380528 58.1917679 80.7150528 59.8918679 78.7000528 61.4118679 76.5210528 61.7818679 75.9960528 62.2117679 75.4580528 62.7518679 75.1240528 63.3217679 74.7640528 64.0218679 74.7850528 64.5418679 75.3690528 65.0618679 75.9420528 65.1118679 76.6370528 64.6018679 77.1430528 63.0218679 78.7100528 61.4617679 80.3250528 59.7218679 81.6980528 56.2718679 84.4150528 53.1318679 87.3600528 51.0717679 91.3150528 50.7618679 91.9100528 50.3418679 92.4310528 49.5817679 92.2510528zM61.6318679 178.186053C60.4517679 178.146053 59.4918679 176.867053 59.9218679 175.628053 60.5318679 173.900053 61.2117679 172.160053 62.1318679 170.586053 63.1917679 168.775053 64.5618679 167.145053 65.7818679 165.425053 66.2618679 164.746053 66.9517679 164.374053 67.6818679 164.066053 68.2017679 163.848053 68.7218679 163.858053 69.1118679 164.327053 69.5518679 164.868053 69.8118679 165.569053 69.3918679 166.144053 68.6218679 167.198053 67.6518679 168.105053 66.8518679 169.143053 65.1718679 171.339053 63.4517679 173.512053 63.4818679 176.528053 63.4918679 177.507053 62.5218679 178.216053 61.6318679 178.186053zM47.3018679 211.221053C47.5018679 209.754053 47.6718679 208.363053 48.5418679 207.100053 50.2017679 204.704053 51.3618679 202.070053 51.9118679 199.186053 52.1618679 197.851053 52.8018679 196.724053 53.9218679 195.917053 54.4018679 195.572053 54.9617679 195.596053 55.3718679 195.948053 55.6318679 196.169053 55.8317679 196.642053 55.8018679 196.976053 55.7318679 197.620053 55.5618679 198.278053 55.3018679 198.875053 53.4018679 203.329053 51.4718679 207.771053 49.5218679 212.208053 49.3018679 212.708053 48.8518679 213.032053 48.2818679 212.993053 47.4018679 212.933053 47.3718679 212.221053 47.3018679 211.573053 47.2918679 211.443053 47.3018679 211.310053 47.3018679 211.221053zM157.361968 130.207053C157.321968 130.467053 157.331968 130.740053 157.241968 130.975053 156.981968 131.633053 156.411968 131.951053 155.821968 132.274053 152.661968 133.987053 149.791968 136.082053 147.161968 138.536053 146.301968 139.337053 145.271968 139.967053 144.271968 140.596053 143.691968 140.963053 143.011968 140.994053 142.461968 140.464053 141.931968 139.962053 141.891968 138.848053 142.371968 138.270053 142.531968 138.069053 142.711968 137.863053 142.921968 137.724053 146.921968 135.136053 150.901968 132.535053 154.931968 130.008053 155.431968 129.692053 156.191968 129.747053 156.841968 129.718053 157.001968 129.710053 157.191968 130.036053 157.361968 130.207053zM249.051968 48.0410528C248.781968 48.0610528 248.491968 48.1680528 248.281968 48.0800528 247.811968 47.8900528 247.181968 47.7040528 246.991968 47.3270528 246.691968 46.7230528 247.311968 46.5590528 247.801968 46.3580528 248.391968 46.1160528 248.911968 45.7160528 249.491968 45.4440528 250.181968 45.1230528 249.811968 43.6090528 250.921968 43.9930528 251.741968 44.2800528 251.121968 45.4390528 251.591968 46.0690528 251.831968 46.3820528 252.121968 46.6670528 252.301968 47.0080528 252.541968 47.4620528 252.131968 48.0790528 251.631968 48.1170528 250.761968 48.1820528 249.921968 47.3200528 249.051968 48.0410528zM241.611968 63.7280528C241.601968 63.5160528 241.751968 63.2510528 241.911968 63.0860528 242.231968 62.7540528 242.621968 62.8650528 242.891968 63.1360528 243.401968 63.6270528 243.541968 64.2050528 243.081968 64.8170528 243.011968 64.9050528 242.871968 65.0260528 242.801968 65.0080528 242.131968 64.8410528 241.641968 64.4580528 241.611968 63.7280528zM255.201968 45.0750528C255.091968 45.0390528 254.921968 45.0350528 254.881968 44.9620528 254.761968 44.7300528 254.911968 44.5980528 255.241968 44.6580528 255.341968 44.6760528 255.421968 44.8090528 255.511968 44.8900528 255.411968 44.9520528 255.301968 45.0130528 255.201968 45.0750528z"/>
  </g>
</svg>
