<svg xmlns="http://www.w3.org/2000/svg" width="350" height="350" viewBox="0 0 350 350">
  <defs>
    <filter id="pattern-about-a">
      <feColorMatrix in="SourceGraphic" values="0 0 0 0 1.000000 0 0 0 0 1.000000 0 0 0 0 1.000000 0 0 0 1.000000 0"/>
    </filter>
  </defs>
  <g fill="none" fill-rule="evenodd" filter="url(#pattern-about-a)">
    <path fill="#000" d="M272.638796 267.766064C272.774335 271.945009 270.532737 274.976587 267.227683 277.345006 264.485634 279.313426 261.034616 278.41869 259.47071 275.439744 257.906804 272.450272 258.803444 265.145013 261.034616 262.681856 262.702782 260.850278 266.028688 260.0187 268.239008 260.881857 271.283411 262.081857 272.607518 263.976592 272.638796 267.176591L272.638796 267.766064zM307.722415 205.860834C307.618155 204.081887 307.837101 202.73452 308.441812 201.439784 309.275895 199.639785 310.693836 198.629259 312.664357 198.829259 314.301245 198.987153 315.948559 199.28189 317.512465 199.7661 319.764489 200.45031 321.057318 202.681888 320.608998 204.966098 320.369199 206.176623 319.97301 207.397675 319.410004 208.481885 318.555069 210.12399 317.387352 211.37662 315.250015 211.345041 314.040594 211.313463 312.831174 211.787147 311.611327 211.97662 310.193386 212.197673 309.109078 211.671357 308.62948 210.355568 308.066474 208.797674 307.42006 207.229254 307.722415 205.860834zM74.7317387 312.460777C74.1374545 312.376567 73.730839 312.292356 73.3137975 312.28183 71.5622231 312.239725 70.6134536 311.313409 70.0712996 309.660779 69.1538083 306.871306 67.8922576 304.218676 71.2285899 301.95552 72.3024718 301.229204 72.9384601 299.818679 74.4293836 299.566047 75.7117863 299.355521 76.9107807 299.618679 78.0159407 300.260784 80.6641545 301.797625 81.904853 305.229202 80.9248054 308.250253 80.007314 311.102883 77.7448638 312.587093 74.7317387 312.460777zM6.51417058 236.660817C5.19006372 236.439765 4.07447763 236.102923 3.13613419 235.102924-1.71197358 229.934505-.460848997 229.366085 3.63658403 225.945034 6.28479774 223.745035 8.94343748 224.481877 10.2049881 227.713454 10.6533078 228.871348 11.0703493 230.071347 11.258018 231.292399 11.7271897 234.271345 9.27707071 236.913449 6.51417058 236.660817zM256.853774 18.1767233C256.853774 16.3977769 259.647953 13.3240943 261.608048 12.8504103 263.703682 12.3451475 266.007836 13.618831 266.935753 15.7977772 268.291138 18.9346176 267.342369 21.7030372 264.28754 22.9767207 263.078119 23.4819836 262.108498 23.8925097 261.754012 25.3451405 261.587196 26.0293507 260.346497 26.0925086 260.054568 25.5240878 259.376876 24.1661938 258.553219 22.9240892 257.667005 21.6925109 256.916331 20.6714588 257.010165 19.3135648 256.853774 18.1767233zM294.721145 328.829189C295.138187 327.54498 295.013074 326.113401 295.805453 324.892349 296.868909 323.260771 298.140886 322.797614 299.996721 323.302877 305.220166 324.723928 305.345278 331.050241 303.343479 333.755503 302.353005 335.081818 300.914212 335.481818 299.423289 335.723923 299.068803 335.787081 298.620484 335.608133 298.28685 335.41866 296.212069 334.239713 294.502199 331.060767 294.721145 328.829189zM215.743906 127.376665C215.764758 124.860877 216.776084 123.408246 219.455575 123.008246 221.332262 122.724036 223.010854 123.460878 224.261979 124.818772 226.931045 127.702981 226.211648 130.8714 223.782381 133.692451 223.4696 134.060872 222.844038 134.271398 222.333162 134.355609 218.767457 134.966135 215.858592 132.513505 215.743906 128.850349L215.743906 127.376665zM192.055947 341.155499C192.014243 343.555497 189.866479 345.766023 187.312099 346.018654 185.654359 346.197601 183.75682 344.74497 183.079128 342.671287 182.609956 341.250235 182.286749 339.787078 181.89056 338.344974 182.99572 336.523922 184.788998 335.429186 186.332052 334.081818 186.96804 333.513398 187.854253 333.513398 188.688337 333.787082 189.783071 334.13445 190.648432 334.713397 191.086325 335.860765 191.743166 337.566027 192.045521 339.334447 192.055947 341.155499zM319.045093 74.4398512C319.201483 72.2398524 320.327495 70.2188009 322.423129 68.8714331 324.487484 67.5345918 327.135698 68.3766966 328.459805 70.6398533 330.107119 73.4293255 329.304314 76.7556395 326.530988 78.6924806 322.652502 81.3766896 319.493412 79.8924799 319.107649 75.1977456 319.086797 75.0609035 319.086797 74.9135352 319.045093 74.4398512zM208.685478 245.576602C208.81059 246.776602 208.351845 247.797654 207.882673 248.787127 206.892199 250.902915 204.212707 251.629231 202.294316 250.302915 201.168304 249.513442 200.229961 248.49239 199.531416 247.281864 199.458434 247.166075 199.3646 247.029233 199.354174 246.902917 199.249913 244.660813 199.885902 242.58713 200.938931 240.671342 201.658328 239.355553 202.992861 238.923974 204.44208 238.85029 205.151051 238.818711 205.807891 238.976606 206.266637 239.576605 207.632448 241.355552 208.695904 243.260814 208.685478 245.576602zM162.550259 95.9977345C162.164495 98.629312 161.15317 101.1451 158.671772 102.797731 158.244305 103.081941 157.639595 103.197731 157.118293 103.22931 155.304162 103.31352 152.12422 99.6293115 152.801913 97.4924705 153.375345 95.6924715 154.344967 94.250367 155.491831 92.892473 156.815938 91.3240528 158.588364 90.9556319 160.319087 91.6503684 162.195773 92.4082627 162.341738 94.1029987 162.550259 95.9977345zM122.222343 7.18725547C122.128508 5.2609407 122.722793 3.57673107 123.848805 2.10304765 125.579527-.170635351 128.947137.0609434728 130.438061 2.51357375 132.022819 5.10304605 131.011493 9.05041237 128.332001 10.4925169 127.247693 11.0714639 126.059125 11.4609374 124.901835 11.8819898 124.15116 12.1556739 123.139834 11.6714636 122.920887 10.8504114 122.608106 9.65041205 122.451716 8.40830745 122.222343 7.18725547zM40.9200967 62.0188052C38.2406049 62.0503842 36.0407108 60.281964 35.258758 57.7135444 34.5602134 55.3977561 35.3108882 53.2082836 37.2292792 51.966179 38.9078714 50.8714427 40.1172918 51.1977583 41.3579903 52.850389 42.4527243 54.3240725 43.1408429 55.9345979 43.4640501 57.7135444 43.724701 59.1767015 43.2972334 60.4609113 42.098239 61.3872266 41.6916236 61.7135422 41.1703216 61.8924895 40.9200967 62.0188052zM254.466212 78.2293229C254.393229 80.6714269 253.402756 82.6293206 252.120353 84.4608985 251.703312 85.0503719 251.015193 85.2608981 250.28537 85.1661613 248.992542 84.987214 247.897808 84.4398459 247.251393 83.2608992 246.709239 82.3030049 246.198363 81.3135318 245.823026 80.2714271 245.301724 78.8819541 245.499819 78.2503755 246.615405 77.3661655 247.699713 76.5240607 248.763169 75.618798 249.941311 74.9240615 252.28717 73.5345886 253.423608 74.3135355 254.299395 76.7135342 254.487064 77.2082708 254.434934 77.8082705 254.466212 78.2293229zM23.0915714 177.471375C23.0707193 174.681903 23.6337253 173.702956 25.718933 172.966115 28.1064957 172.113483 30.5357627 172.89243 31.3906978 174.797693 32.3498933 176.913481 31.6930529 179.860848 29.8267921 181.113479 26.9700576 183.039793 25.0829447 182.534531 23.7067076 180.639795 23.1437016 179.860848 23.1124234 179.629269 23.0915714 177.471375zM35.1544976 123.418773C35.3421663 121.881931 35.7904859 120.439827 36.9373501 119.34509 38.54296 117.787197 40.7011499 118.018775 41.7958839 119.902985 42.7029493 121.460879 43.2242512 123.218773 43.453624 124.976666 43.7872572 127.545086 40.732428 129.650348 38.4386996 128.545086 36.092841 127.408244 34.8938466 125.555613 35.1544976 123.418773zM8.86002918 312.987093C8.51596992 312.987093 7.6923129 312.713409 7.31697552 311.59762 6.58715284 309.376568 5.62795733 307.26078 7.15015891 304.913413 8.53682199 302.776572 10.8305504 302.271309 12.6029769 304.060782 13.6664328 305.134465 14.4379596 306.46078 14.7403147 307.976569 15.2616167 310.555515 14.1043264 312.28183 11.5603731 312.76604 10.9035327 312.892356 10.2049881 312.88183 8.86002918 312.987093zM334.319239 10.0398855C334.725854 7.74514991 336.143795 6.41883482 338.270707 5.74515097 340.136968 5.16620391 341.398518 6.21883493 342.597513 7.36620274 343.108389 7.85041301 343.327336 8.53462317 343.348188 9.25041226 343.42117 11.9767266 340.449749 14.9135671 337.738979 14.7872514 336.029109 14.7030409 334.923949 13.8083046 334.548611 12.1135686 334.402647 11.4398848 334.392221 10.7451483 334.319239 10.0398855zM340.543583 148.660864C337.655571 148.70297 336.175073 146.355602 337.363642 143.618762 338.322837 141.429289 341.544483 139.808237 343.827785 140.418763 345.266579 140.808237 346.194496 141.808236 346.590685 143.218762 346.913893 144.387182 346.434295 145.313498 345.558508 146.155603 343.942472 147.70297 342.243028 148.639812 340.543583 148.660864zM118.104058 254.418703C117.791277 254.302913 117.269975 254.292387 117.061454 254.029229 115.893738 252.534493 114.381962 251.334494 113.839808 249.323969 113.474897 247.945022 113.495749 246.92397 114.590483 245.997655 115.111785 245.55555 115.591383 245.050287 116.164815 244.681866 117.249123 243.976603 118.364709 243.618709 119.605407 244.418708 120.919088 245.260813 121.930414 246.081865 121.920068 247.966075 121.909562 250.587126 120.627159 252.387125 118.927715 254.071335 118.750472 254.239756 118.437691 254.281861 118.104058 254.418703zM66.1928134 3.913573C65.9321624 6.63988734 65.3795824 8.29251804 63.4611914 9.13462285 61.448966 10.0083066 60.2082675 9.58725419 59.0614032 7.57672894 58.6547878 6.85041354 58.2064681 6.14515076 57.8519828 5.38725643 57.1221601 3.86094145 57.4349413 2.87146829 58.9154387 1.86094251 59.3741844 1.54515321 59.9163384 1.35567963 60.3438059 1.00831139 61.5949305-.0232670087 62.8460551-.00221438833 64.1493099.881995667 65.6298073 1.90304776 66.2553696 3.12409974 66.1928134 3.913573zM149.20493 195.566103C149.163226 194.050314 151.102469 191.060842 152.489132 190.587158 152.854043 190.460842 153.344067 190.418737 153.688126 190.555579 154.949677 191.092421 156.148671 191.755578 157.003606 192.923999 157.524908 193.66084 157.702151 194.450314 157.462352 195.281892 157.232979 196.071365 156.961902 196.871365 156.576139 197.587154 155.804612 199.050311 153.385771 200.439784 152.207629 200.208205 150.904374 199.945048 149.246634 197.387154 149.20493 195.566103zM253.778093 219.597669C253.903206 220.881879 253.632129 222.01872 252.704211 223.018719 250.806672 225.081876 247.835251 224.639771 246.719665 222.050299 246.667535 221.923983 246.636257 221.787141 246.584127 221.660825 245.114055 217.618722 245.343428 217.029249 249.044672 215.271355 251.432235 214.14504 253.475738 215.281882 253.778093 217.934512 253.830223 218.48188 253.778093 219.039774 253.778093 219.597669zM87.8164167 206.229255C85.0430905 206.176623 83.4166285 204.692413 83.541741 202.345046 83.6772795 199.7661 85.8041913 197.397681 87.7955646 197.59768 90.0371628 197.829259 91.7783112 200.1661 91.6323467 202.73452 91.5176603 204.671361 89.7869379 206.260834 87.8164167 206.229255zM262.045942 343.734445C262.191906 346.323917 260.429906 347.987074 258.501089 349.323915 256.822496 350.492336 254.580898 349.250231 254.111726 347.187074 253.288069 343.513392 256.81207 340.450236 259.793917 340.52392 260.982486 340.555499 262.066794 342.123919 262.045942 343.734445zM334.819688 344.808128C334.809262 343.29234 335.372268 342.523919 336.39402 342.166024 337.864092 341.660762 339.355015 341.671288 340.856364 341.913393 341.21085 341.966025 341.607039 342.250235 341.825986 342.544972 343.442022 344.692339 343.139667 347.566022 341.179572 349.144968 339.292459 350.65023 336.633819 350.123915 335.653771 347.91339 335.153322 346.808127 335.007357 345.54497 334.819688 344.808128zM191.190586 46.5240766C190.700562 44.2398673 194.631178 41.8819738 196.476587 42.8503944 196.945759 43.1030258 197.498339 43.4714467 197.686008 43.924078 198.207309 45.1977615 198.707759 46.5135503 198.937132 47.860918 199.187357 49.387233 198.040493 50.8714427 196.549569 51.3661793 195.121202 51.8503896 193.870078 51.4398635 192.952586 50.1872326 191.38868 48.0819705 191.211438 47.7135497 191.190586 46.5240766zM201.1266 179.39769C200.824245 179.366111 200.136127 179.355585 199.46886 179.239795 198.759889 179.11348 198.228162 178.660848 197.988363 177.966112 197.75899 177.324007 197.540043 176.660849 197.446209 175.987166 197.050019 173.250325 198.374126 171.797694 201.137026 171.92401 201.543642 171.945062 201.950257 172.00822 202.346447 172.102957 204.38995 172.587167 205.693205 174.281903 205.578518 176.26085 205.463832 178.102954 203.826944 179.366111 201.1266 179.39769zM111.838009 73.4609044C111.900565 74.3766934 111.712896 75.1556403 111.285429 75.9030084 110.586884 77.1030077 109.460872 77.6082706 108.168043 77.1030077 107.417369 76.8187973 106.687546 76.3977449 106.030705 75.9135347 105.081936 75.2293245 104.57106 74.3030092 104.852563 73.0503783 105.029806 72.2503787 105.061084 71.3977476 105.321735 70.629327 105.999427 68.6609069 108.574659 68.050381 110.013452 69.5135381 111.076908 70.6188006 111.910991 71.8819579 111.838009 73.4609044zM293.438743 126.376666C293.470021 124.471404 296.285051 122.734562 297.984495 123.524036 300.048851 124.492456 301.133159 127.355613 300.246946 129.471401 299.610957 130.955611 298.297276 131.797715 296.722945 131.766137 295.242447 131.734558 294.648163 130.692453 294.074731 129.545085 293.574281 128.524033 293.584707 127.41877 293.438743 126.376666zM115.580956 138.766133C115.507974 137.566133 116.091832 136.545081 117.165714 136.124029 118.062354 135.766134 119.021549 135.566134 119.980745 135.797713 120.49162 135.924029 121.065053 136.155608 121.419538 136.534555 122.722793 137.902975 122.410012 139.576659 122.118082 141.229289 121.847005 142.766131 120.898236 143.68192 119.480295 144.092446 118.614934 144.334551 117.874685 143.96613 117.238697 143.355604 115.935442 142.092447 115.831181 140.397711 115.580956 138.766133zM50.0637323 261.313436C50.0428802 262.513435 49.1566669 263.923961 48.1974714 264.281855 46.8733646 264.787118 45.5701098 264.397645 44.6004882 263.166067 44.1000384 262.523962 43.6412927 261.829225 43.182547 261.155541 42.2963338 259.839753 42.2650557 259.187121 43.0365825 258.197648 43.9332218 257.039754 45.0696599 256.345018 46.5710094 256.713438 48.4894005 257.187122 50.0845843 259.355542 50.0637323 261.313436zM83.4687587 40.0398696C83.7294097 41.3977636 82.7493621 42.1135527 81.7901666 42.9451312 78.8291717 45.5135509 78.8813019 45.5346035 77.0775973 42.2398684 76.5354433 41.2609215 75.8890289 40.3240799 76.4833131 39.1872384 77.2131358 37.7872392 78.4955385 36.8925028 79.9239057 36.4819767 81.6963322 35.9661875 83.5000369 37.8398707 83.4687587 40.0398696zM165.844887 143.134552C166.063834 144.829287 164.802283 145.65034 163.426046 146.355602 162.206199 146.987181 161.069761 146.871392 160.089714 145.839813 159.808211 145.545077 159.495429 145.271392 159.213926 144.976656 158.338139 144.060867 157.660447 142.860867 157.921098 141.692447 158.233879 140.324027 159.630968 140.124027 160.913371 140.060869 161.30956 140.039816 161.684898 139.808237 162.091513 139.755606 164.437372 139.492448 165.761478 140.62929 165.844887 143.134552zM180.33708 301.323941C180.23282 302.702888 180.191115 304.092361 180.003447 305.460781 179.83663 306.629201 178.429115 307.187096 177.407363 306.544991 176.051978 305.702886 175.155339 304.502887 174.717445 302.966045 174.613185 302.597624 174.613185 302.134467 174.738297 301.776572 175.113635 300.734468 175.541102 299.702889 176.010274 298.70289 176.479446 297.70289 177.438641 297.41868 178.408263 297.281838 179.586405 297.123943 180.545601 298.050258 180.472618 299.260784 180.430914 299.944994 180.264098 300.618678 180.149411 301.302888 180.211967 301.313415 180.274524 301.323941 180.33708 301.323941zM139.91533 300.723941C139.644253 300.67131 139.352324 300.681836 139.122951 300.55552 137.423507 299.597626 135.953435 298.344995 134.733589 296.808154 134.066322 295.966049 134.253991 294.787102 135.234039 294.323945 136.568571 293.68184 137.934382 292.260788 139.341898 292.79763 141.312419 293.544998 141.708608 295.766049 142.136076 297.660785 142.396727 298.839732 141.646052 299.776573 140.67643 300.450257 140.46791 300.597626 140.175981 300.639731 139.91533 300.723941zM158.682199 229.945032C158.713477 228.134506 159.245205 227.313454 160.506755 227.145033 162.331312 226.902928 163.624141 227.629243 164.041182 229.20819 164.322685 230.2924 164.437372 231.387136 164.166295 232.502925 163.978626 233.302925 163.457324 234.018714 163.634567 234.902924 163.790957 235.692397 163.457324 236.250291 162.696223 236.502923 161.820436 236.787133 161.017631 236.587133 160.538033 235.787134 159.464151 233.997661 158.640494 232.102925 158.682199 229.945032zM306.930036 268.071327C306.86748 270.281852 306.627681 271.745009 305.407834 272.902903 304.323527 273.923956 303.114106 273.987113 302.123632 272.966061 300.705691 271.502904 300.580579 269.681853 301.133159 267.902906 301.623183 266.345012 303.05155 265.608171 304.532047 265.166065 305.314 264.92396 306.533847 265.745013 306.752793 266.660802 306.91961 267.323959 306.930036 268.029222 306.930036 268.071327zM103.57016 283.945003C103.663995 283.713424 103.736977 283.03974 104.101888 282.745003 105.425995 281.713425 106.958623 281.081846 108.678919 281.513425 110.347085 281.934478 111.129038 283.313424 110.680719 284.997634 110.472198 285.787107 110.180269 286.57658 109.815357 287.323948 108.877014 289.229211 107.511203 289.460789 105.843037 288.050264 104.51893 286.945001 103.611865 285.429213 103.57016 283.945003zM292.521251 160.134542C292.489973 158.860859 292.802754 157.66086 293.271926 156.502965 293.543003 155.839808 293.960045 155.345071 294.606459 154.987177 296.608258 153.902967 298.245146 154.787177 298.297276 157.029281 298.338981 159.51349 297.723844 161.702963 295.357134 162.987173 293.834932 163.818751 292.688068 163.16612 292.531677 161.376647 292.489973 160.966121 292.521251 160.545069 292.521251 160.134542zM107.949096 344.713392C105.895167 344.723918 104.456374 343.57655 104.51893 341.976551 104.602338 339.5555 106.134966 337.850237 108.2306 337.829119 110.691145 337.818658 111.796305 339.081816 111.744174 341.860761 111.712896 343.660761 110.315807 344.713392 107.949096 344.713392zM254.278543 175.987166C254.111726 176.292429 253.94491 176.839797 253.590425 177.218744 251.828424 179.155585 248.648482 178.418743 247.678861 175.892429 247.230541 174.713482 246.636257 173.566114 247.605879 172.376641 249.305323 170.281905 251.578199 170.397695 253.037844 172.681904 253.642555 173.618746 254.111726 174.618745 254.278543 175.987166zM15.1469302 93.0503676C16.4918892 93.1240518 17.5657711 93.7029989 18.0140907 95.0187876 18.4519843 96.3240501 18.8690259 97.7240494 17.5866232 98.8714172 17.0757473 99.3240485 16.5752975 99.8082588 16.0227174 100.208259 14.5213679 101.292469 13.5934505 101.029311 12.8219237 99.271417 12.5404207 98.6398384 12.3214739 97.9766808 12.092101 97.3240496 11.1746097 94.6503668 12.3944561 92.9451045 15.1469302 93.0503676zM18.2121855 16.776724C18.2538896 18.9240913 17.534493 20.0819854 16.2312382 20.3346169 14.4483857 20.6925114 12.905332 19.9135645 12.1859354 18.3135653 11.2163138 16.1240928 11.4144085 15.3977774 12.9678882 13.924094 14.9488355 12.0504108 16.6378537 12.7556736 17.8472741 15.1030407 18.1496292 15.6925141 18.1496292 16.4398821 18.2121855 16.776724zM44.6838965 224.281877C44.8298611 223.229246 45.5909619 222.597667 46.2999325 221.976615 47.4363706 220.976615 49.2922054 220.93451 50.4599217 221.776615 51.7527504 222.713456 52.1176618 224.134508 51.4712474 225.787139 51.2731527 226.292402 51.0333538 226.797665 50.7518508 227.260822 50.4599217 227.755559 50.0116021 228.039769 49.4173179 228.060822 47.4885008 228.134506 45.2990328 226.55556 44.7673048 224.681877 44.7256007 224.555561 44.7151746 224.418719 44.6838965 224.281877zM331.900398 282.534477C330.826516 282.492372 328.835142 280.566057 328.835142 279.534479 328.835142 279.271321 328.949829 278.976584 329.095793 278.755532 329.554539 278.060795 330.054989 277.397638 330.524161 276.723954 331.764859 274.955534 332.943001 274.671324 334.68415 275.713428 335.726754 276.334481 336.206351 277.355533 335.883144 278.534479 335.664197 279.334479 335.372268 280.123952 334.996931 280.87132 334.444351 281.966057 333.214078 282.576583 331.900398 282.534477zM256.520141 319.387089C256.196934 319.2713 255.65478 319.176563 255.196034 318.913405 254.612176 318.576563 254.111726 318.092353 253.54872 317.713406 251.098601 316.071302 251.411383 313.723934 254.361951 312.523935 255.227313 312.176567 256.019691 312.292356 256.65568 312.829198 257.479337 313.523934 258.198733 314.366039 258.91813 315.187091 259.501988 315.860775 259.595823 316.660775 259.241337 317.492353 258.772166 318.58709 257.896378 319.166037 256.520141 319.387089zM113.850234 175.345061C112.724222 175.039798 111.358411 174.471377 110.451346 173.155588 110.242825 172.850325 110.211547 172.355589 110.221973 171.955589 110.263677 170.650326 111.254151 169.797695 113.068281 169.439801 114.684317 169.124011 115.695643 169.481906 116.196093 170.681905 116.46717 171.302958 116.633986 171.987168 116.706969 172.660852 116.852933 174.09243 115.664365 175.334534 113.850234 175.345061zM222.301884 285.250265C220.863091 285.197634 218.694475 282.681846 218.830013 281.229215 219.028108 279.113426 220.60244 278.21869 222.552109 279.01869 223.938772 279.597637 224.67902 280.545005 224.918819 282.060793 225.200322 283.808161 224.043032 285.323949 222.301884 285.250265zM69.643832 131.724031C69.7272404 131.439821 69.8732049 130.776663 70.1025777 130.134558 70.6447317 128.61877 73.0739986 128.21877 74.1166024 129.460875 74.7421647 130.208243 75.1487802 131.039821 75.2634667 132.039821 75.4198572 133.587188 74.6900346 134.755609 73.2408152 135.145082 71.0409212 135.745082 69.4561634 134.418767 69.643832 131.724031zM59.6452614 169.239801C59.3950365 169.187169 58.5818055 169.039801 57.7894266 168.808222 56.7259707 168.502959 56.2880771 167.513486 56.7155446 166.524013 57.361959 164.987171 58.4045628 164.25033 59.9059123 164.418751 60.7191433 164.502961 61.5323743 164.73454 62.3039011 165.01875 63.899085 165.597697 64.0971797 167.060855 62.825203 168.281907 62.0849543 168.987169 61.2612973 169.418748 59.6452614 169.239801zM290.863511 77.8082705C290.081558 77.7135337 289.414292 77.3977444 289.101511 76.7872184 288.590635 75.8187979 288.225723 74.7661669 287.860812 73.7240621 287.527179 72.7661679 287.475049 71.8188 288.413392 71.1030109 289.570682 70.2082745 290.717547 70.0714325 291.833133 70.7766953 292.145914 70.9766952 292.573381 71.5030107 292.500399 71.7030106 291.864411 73.4187991 292.125062 75.2609034 291.687168 76.9872183 291.593334 77.3240602 291.124162 77.5556391 290.863511 77.8082705zM336.769357 43.5872361C335.997831 43.5872361 335.507807 43.3661836 335.122043 42.9346049 334.350517 42.0398685 333.891771 41.0188164 334.423499 39.8714486 334.965653 38.7030282 335.820588 37.7767129 337.175973 37.6082919 338.583488 37.4398709 339.970151 38.9030281 339.730352 40.2398694 339.50098 41.5346056 338.719027 42.5030261 337.759831 43.2924994 337.467902 43.5346045 336.988304 43.5240782 336.769357 43.5872361zM312.674783 166.113487C312.8416 163.955593 314.113576 162.460857 315.521092 162.787173 316.636678 163.05033 317.575021 164.976645 317.3665 166.597697 317.189258 167.924012 315.667056 169.460853 314.666156 169.334538 313.49844 169.176643 312.560097 167.650328 312.674783 166.113487zM227.994501 150.029285C228.046631 151.229284 227.556607 152.071389 227.087435 152.902967 226.493151 153.976651 225.471399 154.239809 224.293257 153.681914 223.553008 153.334546 222.447848 151.460863 222.635517 150.608232 222.885742 149.47139 223.698973 148.70297 224.710299 148.208233 225.711198 147.70297 226.555707 148.239812 227.348086 148.776654 227.817258 149.102969 228.046631 149.608232 227.994501 150.029285zM16.5335933 206.366097C16.0018654 206.218728 15.1260782 206.145044 14.4379596 205.745044 13.7394151 205.345045 13.176409 204.629256 13.3849298 203.681888 13.5308943 202.997678 13.6872849 202.302941 13.9792139 201.692415 14.3545513 200.923994 14.9696876 200.334521 15.897605 200.323995 16.8568005 200.302942 17.3676764 200.934521 17.7013096 201.755573 18.0140907 202.523994 18.3268719 203.292414 18.5979489 204.081887 19.0983987 205.576624 18.347724 206.534518 16.5335933 206.366097zM340.095264 238.429238C341.137868 238.439764 341.575761 238.734501 341.7113 239.323974 341.878116 239.987132 341.971951 240.660815 342.055359 241.334499 342.149193 242.10292 341.805134 242.660814 341.096163 242.923972 340.585287 243.123972 340.05356 243.239761 339.532258 243.366077 337.791109 243.808182 336.717227 243.155551 336.268908 241.355552 335.9457 240.102921 336.602541 239.145027 338.135168 238.76608 338.917121 238.56608 339.719926 238.492395 340.095264 238.429238zM75.7639165 113.408252C75.4928395 113.397725 75.2217625 113.387199 74.9611115 113.35562 71.7290397 112.934568 71.0617732 111.492463 72.7507914 108.61878 73.5535964 107.229307 74.5127919 107.197729 75.6700821 108.313517 76.6501297 109.260885 76.8273724 110.450358 77.0775973 111.650358 77.3799524 113.029304 77.0358932 113.460883 75.7639165 113.408252zM263.641125 136.313503C262.567243 135.987187 261.274415 135.481924 260.52374 134.229293 259.501988 132.545083 260.596722 130.4714 262.577669 130.229295 263.307492 130.145085 263.953907 130.408242 264.329244 131.060874 265.038214 132.281926 265.361422 133.618767 265.309291 135.039819 265.278013 135.650345 264.464782 136.387187 263.641125 136.313503zM7.37953175 149.702969C6.35778 149.734548 5.17963768 148.660864 5.11708145 147.650339 5.03367315 146.292445 6.01372074 144.818761 7.25441929 144.387182 8.50554388 143.955604 10.0694496 144.618761 10.7679942 145.892445 10.8931066 146.113497 10.9765149 146.41876 10.9452368 146.671392 10.7575681 148.008233 8.78704691 149.660864 7.37953175 149.702969zM149.184078 23.8819834C148.913001 23.8819834 148.631498 23.903036 148.360421 23.8819834 146.806941 23.7556677 146.181379 23.2714574 146.024988 22.1135633 145.806041 20.4293537 146.410752 19.3346174 147.859971 18.8925124 148.370847 18.7346177 148.923427 18.6609336 149.465581 18.6398809 150.508185 18.608302 151.248433 19.2714596 151.383972 20.3661958 151.436102 20.9135639 151.446528 21.4714584 151.383972 22.0083002 151.248433 23.2819837 150.518611 23.8925097 149.184078 23.8819834zM223.751103 60.6503849C222.81276 60.618806 222.249754 60.0714378 221.895268 59.260912 221.499079 58.3345967 221.321836 57.3872287 222.041233 56.5451239 222.395718 56.1345978 222.86489 55.8188085 223.323636 55.5135455 224.835411 54.5135461 226.712098 55.5240718 226.83721 57.4082814 226.941471 58.955649 225.335861 60.6503849 223.751103 60.6503849zM306.200213 2.59778423C305.991693 3.92409931 305.272296 5.09251974 304.344379 6.12409814 304.135858 6.35567696 303.510296 6.48199269 303.249645 6.33462434 302.165337 5.72409835 301.164437 4.96620402 301.060177 3.53462583 300.955916 2.11357396 301.706591 1.1241008 302.770047.418838019 303.447739-.0232670087 304.3131-.223266902 305.084627.366206468 305.772746.892521977 306.179361 1.59778476 306.200213 2.59778423zM169.066533 163.966119C169.181219 165.608224 168.295006 166.671381 167.346236 167.629275 166.574709 168.418749 164.802283 167.818749 164.249703 166.70296 163.478176 165.155592 164.062034 163.334541 165.584236 162.545067 165.824035 162.418752 166.07426 162.313489 166.324485 162.218752 167.930094 161.618752 169.014402 162.36612 169.066533 163.966119zM10.444787 269.808168C10.3405266 268.37659 11.8314501 266.766065 13.2702433 266.69238 13.6247286 266.681854 14.1251785 266.860801 14.3441253 267.123959 15.4388593 268.439748 15.8559008 270.018694 15.6682321 271.702904 15.5952499 272.42922 15.0322438 272.945009 14.2502909 272.860798 12.8219237 272.702904 11.7271897 271.902904 10.8409764 270.818694 10.6011776 270.523957 10.5490474 270.071326 10.444787 269.808168zM89.0571152 152.734546C89.1509496 152.302968 89.2135058 151.597705 89.4741568 150.976653 90.089293 149.47139 92.528986 149.218759 93.6132939 150.502969 93.6967022 150.608232 93.7696845 150.734547 93.8218147 150.860863 94.186726 151.924021 93.1232701 155.155598 92.1640746 155.69244 91.6844769 155.966124 91.1214708 155.924018 90.6001689 155.660861 89.4845828 155.113492 89.0779673 154.166125 89.0571152 152.734546zM290.65499 104.355625C288.820008 104.187204 287.725274 102.818783 287.923368 101.429311 288.090185 100.250364 289.184919 98.8608909 290.154541 98.7135225 291.332683 98.5345753 292.250174 99.1240486 293.063405 99.9135219 293.15724 99.9977324 293.230222 100.134574 293.271926 100.26089 293.699394 101.502995 292.771476 102.313521 292.281452 103.250362 291.853985 104.071414 291.092884 104.334572 290.65499 104.355625zM229.474998 33.1451364C229.464572 34.5451356 228.28643 35.3240826 226.962323 34.7767145 226.451447 34.5661883 225.919719 34.387241 225.471399 34.0925043 224.376665 33.3556626 224.07431 31.9135581 224.720725 30.7872429 225.356713 29.6819803 226.753802 29.1240859 227.900666 29.5872435 228.255152 29.7346119 228.599211 30.0293486 228.797306 30.3556642 229.308181 31.197769 229.474998 32.1556632 229.474998 33.1451364zM217.109717 323.271298C217.057587 322.12393 218.694475 320.566036 219.883043 320.629194 221.290558 320.692352 222.552109 321.860772 222.698073 323.218666 222.844038 324.597613 221.770156 325.818665 220.237528 326.029191 219.007256 326.197612 217.182699 324.587086 217.109717 323.271298zM88.181328 234.702924C88.2021801 236.008186 87.5244876 236.88187 86.3567713 237.102923 85.189055 237.323975 83.4374806 236.587133 83.1455516 235.766081 82.6555278 234.345029 84.083895 231.77661 85.5331143 231.471347 86.5027359 231.271347 87.628748 231.818715 87.8789729 232.702925 88.0562156 233.366082 88.0874937 234.071345 88.181328 234.702924zM59.3846104 81.4398475C59.4263146 80.0714272 60.3021018 78.9030068 61.5740785 78.6924806 62.6062562 78.5240596 63.3986351 78.9872172 63.8886589 79.997743 64.180588 80.6187953 64.6810379 81.1240582 65.0355232 81.7135316 65.5985292 82.6819521 65.0355232 83.7766884 63.9824933 83.8187936 62.5541261 83.8924778 61.3342796 83.2187939 60.0518769 82.7766889 59.5097229 82.5872153 59.4263146 81.9240578 59.3846104 81.4398475zM350 80.1135324C350 81.8398473 349.176343 83.1556361 347.998201 83.2608992 346.559407 83.3977412 345.172744 81.966163 345.214448 80.3766902 345.245727 79.0082699 346.538555 77.6293232 347.768828 77.6609022 348.978248 77.6924811 349.989574 78.80827 350 80.1135324zM52.7640762 33.3872415C51.7631765 33.5135572 51.2940048 32.8188208 50.8873893 32.1030317 50.1679926 30.8714534 50.5016259 29.5030331 51.6797682 28.4714547 52.3887388 27.8504024 53.6294373 27.9872444 54.6616151 28.7977703 55.5791065 29.5135594 55.8814616 30.5767167 56.006574 31.6504003 56.0691303 32.1767158 55.7042189 32.7346103 55.1307868 32.8925049 54.348834 33.1135575 53.546029 33.2293469 52.7640762 33.3872415zM123.671562 205.913465C123.619432 206.35557 123.54645 207.039781 123.483893 207.713464 123.400485 208.534517 123.421337 209.450306 122.337029 209.576621 121.596781 209.671358 121.054627 209.208201 120.700141 208.587148 120.23097 207.75557 119.73052 206.934518 119.344756 206.07136 118.958993 205.18715 119.261348 204.334519 119.980745 203.955572 121.33613 203.229256 122.733219 203.302941 123.327503 204.155572 123.661136 204.608203 123.848805 205.10294 123.671562 205.913465zM180.556027 77.2924813C180.420488 77.6924811 180.399636 78.0082704 180.23282 78.197744 179.117233 79.4924801 176.719245 79.2187961 176.0207 77.7135337 175.447268 76.4819554 175.499398 75.2924824 176.323055 74.1766935 176.729671 73.618799 177.146712 73.0293257 177.939091 73.0609046 178.721044 73.1030098 179.169364 73.6398517 179.440441 74.3030092 179.857482 75.3240613 180.211967 76.366166 180.556027 77.2924813zM316.469861 236.050292C316.20921 235.976607 315.906855 235.955555 315.70876 235.808186 314.415932 234.881871 313.89463 233.302925 314.395079 231.797662 314.676582 230.902926 315.364701 230.450294 316.240488 230.429242 317.064145 230.408189 317.856524 230.671347 318.523791 231.218715 319.138927 231.713452 319.337022 232.439767 319.02424 233.060819 318.534217 234.02924 317.856524 234.902924 317.21011 235.776607 317.074571 235.955555 316.720086 235.966081 316.469861 236.050292zM207.945229 82.3240576C207.840969 80.5030059 208.622922 79.6082695 209.769786 78.945112 210.291088 78.6503753 210.822816 78.6924806 211.333692 78.9872172 212.000958 79.3766907 212.418 80.0609009 212.188627 80.7240584 211.688177 82.1451103 211.010484 83.5135306 210.31194 84.850372 210.176401 85.1030035 209.550839 85.2819507 209.217206 85.1977402 208.873147 85.1240561 208.435253 84.7451089 208.330993 84.3977407 208.091194 83.6082674 208.018211 82.7661626 207.945229 82.3240576zM56.3714854 199.145048C56.256799 199.702942 56.2255208 200.281889 55.996148 200.7661 55.6937929 201.429257 55.0578046 201.818731 54.348834 201.871362 53.2541 201.945047 52.1489399 200.871363 51.8048806 199.513469 51.5025255 198.302943 51.898715 197.155575 52.8266324 196.576628 53.8900883 195.902944 55.5269763 196.366102 56.006574 197.523996 56.2150948 198.029259 56.256799 198.59768 56.3714854 199.145048zM57.361959 345.134444C56.1733907 345.250233 55.5686804 344.955497 55.1620649 344.344971 54.5365027 343.387076 54.2132955 342.344972 54.7867276 341.239709 55.3288816 340.187078 56.2150948 339.576552 57.3932371 339.513394 58.1334858 339.460763 58.6860659 339.734447 58.9050127 340.555499 59.2073678 341.671288 59.0509772 342.744972 58.7590481 343.808129 58.5088232 344.723918 57.7477224 345.029181 57.361959 345.134444zM134.49379 135.755608C134.222713 135.702977 133.909932 135.734555 133.701411 135.597713 131.762168 134.345082 131.188736 131.913505 132.398156 130.176664 132.898606 129.450348 133.920358 129.260875 134.556346 129.776664 136.30792 131.176663 136.578997 133.629293 135.171482 135.345082 135.015092 135.545082 134.723163 135.618766 134.49379 135.755608zM190.398207 278.01869C190.554597 277.745006 190.721414 277.092375 191.128029 276.871322 192.222763 276.271323 193.421758 275.96606 194.579048 276.860796 195.037794 277.218691 195.413131 277.702901 195.131628 278.260795 194.641604 279.229216 194.078598 280.176584 193.432184 281.050268 192.910882 281.745004 191.88913 281.608162 191.305272 280.913426 190.658858 280.145005 190.304372 279.281847 190.398207 278.01869zM287.902516 186.071371C286.880765 186.029266 286.296906 185.745055 286.036255 185.01874 285.535806 183.597688 286.057108 182.302952 287.402066 181.545057 288.44467 180.945058 289.779203 181.197689 290.675842 182.271373 290.894789 182.534531 291.019902 183.071372 290.915641 183.376635 290.383913 184.945056 289.132789 185.681897 287.902516 186.071371zM242.966292 108.008254C241.725593 108.081939 240.130409 106.997729 239.880184 105.987203 239.78635 105.629308 239.880184 105.124045 240.078279 104.808256 240.44319 104.229309 240.94364 103.734572 241.402386 103.218783 241.725593 102.860889 242.142635 102.91352 242.528398 103.060889 243.320777 103.387204 245.114055 105.902992 245.030647 106.608255 245.009795 106.85036 244.832552 107.176676 244.624032 107.281939 244.029747 107.608255 243.372907 107.839833 242.966292 108.008254zM145.211757 52.7556523C143.449757 52.8924943 141.614774 50.6188113 142.167354 49.1661805 142.563543 48.1030232 144.190005 47.4293393 145.243035 47.9556548 145.722633 48.1872336 146.139675 48.5661808 146.556716 48.8924964 147.109296 49.3346014 147.693154 49.9451274 147.338669 50.5977587 146.838219 51.524074 146.212657 52.4503893 145.211757 52.7556523zM165.615514 34.6503987C163.989052 34.5556619 163.092413 33.5661888 163.217525 32.0082949 163.290507 30.9977691 163.770105 30.1977695 164.437372 29.4925067 164.854413 29.0398754 165.406993 29.0082965 165.907443 29.2925069 167.148142 29.9661907 167.950947 31.7346108 167.67987 33.0925048 167.481775 34.0925043 166.67897 34.7030303 165.615514 34.6503987zM112.682518 41.039869C112.432293 40.8714481 111.848435 40.6819745 111.587784 40.2714484 111.14989 39.6082908 110.857961 38.8293439 110.639014 38.0609232 110.221973 36.5767135 111.577358 35.0925038 113.109985 35.3240826 113.349784 35.3556615 113.70427 35.5346088 113.766826 35.7240824 114.194293 36.9977659 114.819856 38.2293442 114.746873 39.6188171 114.705169 40.2293431 113.579157 41.0819743 112.682518 41.039869zM184.882833 3.56620476C184.768146 4.10304658 184.736868 4.66094102 184.528347 5.1556776 184.382383 5.50304584 184.069602 5.86094038 183.735968 6.03988766 182.766347 6.54515055 181.087755 5.74515097 180.326654 4.47146744 179.878334 3.71357311 180.253672 2.2609423 181.087755 1.51357428 181.869708.808311496 183.329353.734627325 184.10088 1.35567963 184.80985 1.92410038 184.997519 2.69252102 184.882833 3.56620476zM282.741627 299.250258C282.720775 297.13447 284.357663 296.060786 286.422019 296.871312 287.141416 297.155522 287.464623 297.766048 287.39164 298.513416 287.33951 299.050258 287.162268 299.5871 286.953747 300.092363 286.349037 301.608151 285.358563 302.260783 284.190847 301.95552 283.294207 301.734467 282.752053 300.713415 282.741627 299.250258zM168.201171 266.239749C168.201171 266.955538 168.23245 267.239749 168.190745 267.502906 168.096911 268.145011 167.669443 268.555537 167.085585 268.302906 166.095112 267.881854 165.12549 267.366064 164.249703 266.734486 163.499028 266.187118 163.530306 265.32396 163.874366 264.492382 164.322685 263.387119 165.02123 262.892382 166.022129 262.966067 166.918769 263.029225 167.669443 263.439751 167.950947 264.260803 168.201171 265.008171 168.159467 265.860802 168.201171 266.239749zM81.1333262 265.166065C80.7267107 265.081855 80.3096692 265.050276 79.9239057 264.92396 78.7561895 264.534487 77.7552898 263.029225 78.0367928 262.113436 78.3078698 261.18712 79.9239057 260.281858 81.0499179 260.481857 81.5816458 260.566068 82.1133738 260.808173 82.3218945 261.366067 82.6138236 262.134488 82.8953266 262.913435 83.0829953 263.702908 83.2289599 264.302908 82.9057527 264.766066 82.3218945 264.955539 81.9465572 265.081855 81.5295156 265.102908 81.1333262 265.166065zM132.846476 97.6293126C130.83425 97.3872074 130.07315 96.3766817 130.406783 94.7345773 130.521469 94.1977355 130.761268 93.6819463 130.907233 93.1451044 131.074049 92.4924732 131.522369 92.3029996 132.116653 92.281947 132.825624 92.2714207 133.659707 92.3029996 133.94121 92.9766835 134.399955 94.0924724 134.65018 95.302998 134.869127 96.5029974 134.910831 96.7451025 134.462512 97.2187865 134.139305 97.3661548 133.649281 97.576681 133.086275 97.5872073 132.846476 97.6293126zM236.825355 247.734496C235.198893 247.660812 234.177141 246.366075 234.479496 244.923971 234.531627 244.660813 234.646313 244.408182 234.729721 244.145024 235.334432 242.281867 236.439592 241.818709 238.107758 242.745025 239.004397 243.239761 239.411013 244.229235 238.993971 245.166076 238.660338 245.902918 238.23287 246.629233 237.742846 247.271338 237.534326 247.555549 237.065154 247.629233 236.825355 247.734496zM40.7741322 320.344983C39.2727827 320.176562 38.4804038 319.260774 38.6784985 317.923932 38.8557412 316.692354 40.2319782 315.492354 41.5039549 315.460776 42.5778368 315.429197 43.5370323 316.966038 43.4744761 318.597616 43.4223459 319.818668 42.3380379 320.523931 40.7741322 320.344983zM16.0852737 339.208131C15.9601612 339.166026 15.8246227 339.123921 15.7099363 339.060763 14.0730483 338.208132 13.718563 335.187081 15.1573563 334.050239 15.4492853 333.81866 15.9288831 333.692345 16.3042205 333.73445 17.6074753 333.860766 18.2643157 334.913397 18.3790021 336.860764 18.4415583 338.050237 17.7325877 338.923921 16.4918892 339.1555 16.3563507 339.187079 16.2208122 339.197605 16.0852737 339.208131zM153.938351 334.155502C154.417949 335.934449 153.333641 336.78708 152.207629 336.776554 151.821865 336.766027 151.310989 336.681817 151.081617 336.418659 149.694954 334.892344 150.237108 332.387082 152.07209 331.523925 152.843617 331.16603 153.844517 331.68182 153.927925 332.523924 153.990481 333.071292 153.938351 333.629187 153.938351 334.155502zM329.491983 112.429305C328.386823 112.587199 327.323367 111.429305 327.239959 109.987201 327.187828 109.124043 328.05319 108.05036 329.241758 107.660886 330.065415 107.397728 330.909924 107.524044 331.441652 108.271412 331.952528 108.987201 332.035936 109.839832 331.545912 110.597727 331.035036 111.3872 330.617995 112.334568 329.491983 112.429305zM105.061084 111.3872C104.247853 111.050358 103.622291 110.597727 103.538882 109.639832 103.372066 107.955623 105.081936 106.450361 106.718824 106.913518 107.500777 107.134571 108.2306 107.587202 108.418268 108.502991 108.574659 109.271412 108.084635 109.797727 107.532055 110.208253 106.791806 110.766148 106.114114 111.534568 105.061084 111.3872zM193.421758 123.471404C192.78577 123.439825 192.23319 123.471404 191.691036 123.366141 189.689236 122.987194 188.96984 121.071405 190.106278 119.218775 190.575449 118.471407 191.618053 118.302986 192.212337 118.966143 192.952586 119.787196 193.619853 120.681932 194.287119 121.555616 194.65203 122.018773 194.787569 122.629299 194.474788 123.092457 194.287119 123.355615 193.734539 123.366141 193.421758 123.471404zM326.927177 319.229195C326.791639 319.208142 326.645674 319.229195 326.520562 319.176563 325.55094 318.860774 324.852396 317.281827 325.123473 316.01867 325.352846 314.902881 326.405875 314.197618 327.594444 314.344987 327.729982 314.366039 327.865521 314.387092 327.990633 314.439723 328.918551 314.808144 329.512835 316.460775 329.15835 317.681827 328.939403 318.460774 327.823817 319.229195 326.927177 319.229195zM279.488703 225.081876C279.467851 223.50293 280.31236 222.334509 281.688598 222.039773 282.804184 221.797668 283.878066 222.829246 283.815509 223.966087 283.752953 225.029245 283.158669 225.776613 282.491402 226.460823 281.855414 227.102928 281.031757 227.292401 280.218526 226.892402 279.519982 226.545033 279.55126 225.766086 279.488703 225.081876zM193.89093 210.745042C193.755391 211.050305 193.713687 211.355568 193.536444 211.523989 192.598101 212.439778 190.78397 212.313462 189.897757 211.29241 188.980266 210.229253 189.240917 208.587148 190.523319 207.787149 190.825674 207.597675 191.38868 207.43978 191.649331 207.587149 192.848326 208.302938 193.557296 209.429253 193.89093 210.745042zM136.412181 326.587085C135.609376 326.334454 134.869127 325.913402 134.54592 325.123928 134.118452 324.050245 134.243565 322.987087 135.025518 322.060772 135.692784 321.260772 136.59985 321.144983 137.559045 321.787088 138.549519 322.439719 138.872726 323.281824 138.403554 324.17656 138.017791 324.892349 137.579897 325.57656 137.110725 326.239717 136.975187 326.429191 136.65198 326.471296 136.412181 326.587085zM308.47309 42.9661838C307.545172 42.8503944 306.137657 40.7977639 306.3149 39.8082907 306.450438 39.0925016 308.170735 38.1451337 309.015244 38.3346073 310.005717 38.5556598 311.100451 40.1977642 310.944061 41.1977637 310.798096 42.1135527 309.432285 43.0924995 308.47309 42.9661838zM262.848746 46.8188133C262.744486 45.5977613 263.661977 44.366183 264.881824 44.0714464 265.590795 43.9030254 266.60212 44.5030251 266.841919 45.2293405 267.269387 46.5346029 266.612546 48.1240758 265.403126 48.7556544 264.402226 49.2714436 262.953007 48.1767073 262.848746 46.8188133zM227.014453 203.471361C226.847636 203.713467 226.743376 204.008203 226.545281 204.155572 225.73205 204.78715 224.57476 204.829255 223.834511 204.323993 222.906594 203.681888 222.301884 202.355573 222.531257 201.492415 222.885742 200.218732 224.116014 199.713469 225.096062 200.408205 226.18037 201.1661 226.78508 202.197678 227.014453 203.471361zM341.961525 180.534532C340.491453 180.492426 339.60524 179.239795 339.980577 177.924007 340.303784 176.74506 341.200424 176.14506 342.243028 175.766113 342.847738 175.555587 343.36904 176.008218 343.515004 176.534534 343.848637 177.776638 343.535856 178.987164 342.92072 180.071374 342.764329 180.355584 342.222175 180.418742 341.961525 180.534532zM229.610537 9.12409654C229.610537 11.039885 229.308181 11.4714637 227.504477 11.2398849 226.378465 11.1030429 225.57566 9.9030435 225.533956 8.47146531 225.513104 7.65041312 226.409743 6.86093985 227.525329 6.73462413 228.28643 6.63988734 228.922418 6.90304509 229.224773 7.60830788 229.485424 8.22936018 229.568832 8.92409665 229.610537 9.12409654z"/>
  </g>
</svg>
