<svg xmlns="http://www.w3.org/2000/svg" >
  <path class="projects-type" fill="transparent" stroke="#FFF" d="M514.763448,626.085227 C520.167662,626.085227 525.165413,626.831995 529.756225,628.328367 C534.332704,629.820068 538.3595,631.991421 541.835421,634.844573 C545.306929,637.694102 548.126865,641.187782 550.296506,645.324564 C552.395265,649.326199 553.721606,653.882307 554.280036,658.991477 L554.280036,658.991477 L533.252557,658.991477 C532.932796,656.844828 532.334167,654.896983 531.459242,653.147132 C530.518904,651.266457 529.274799,649.65917 527.727849,648.324547 C526.183575,646.992232 524.359943,645.968816 522.255282,645.257168 C520.166693,644.550955 517.860443,644.196023 515.335892,644.196023 C510.851645,644.196023 506.994514,645.300582 503.760255,647.496869 C500.528495,649.69146 498.043109,652.859497 496.313984,657.009397 C494.603939,661.113504 493.743562,666.079254 493.743562,671.909091 C493.743562,677.97669 494.619782,683.053479 496.359466,687.14248 C498.119989,691.280461 500.608035,694.389713 503.811928,696.480517 C507.015184,698.570905 510.811179,699.622159 515.203789,699.622159 C517.665486,699.622159 519.909176,699.305258 521.935419,698.674872 C523.977966,698.039412 525.777754,697.107807 527.336022,695.882373 C528.898085,694.653955 530.187599,693.152884 531.203734,691.37844 C532.151326,689.723689 532.828507,687.86385 533.23268,685.797955 L533.23268,685.797955 L554.27982,685.924238 C553.854225,689.671091 552.736856,693.364956 550.929905,697.006445 C549.032355,700.830514 546.431482,704.313527 543.128967,707.45671 C539.827078,710.599297 535.807295,713.095586 531.071962,714.949172 C526.325292,716.807196 520.888672,717.732955 514.763448,717.732955 C506.693856,717.732955 499.472138,715.958288 493.100154,712.40217 C486.738408,708.851765 481.719134,703.6694 478.03855,696.858872 C474.345517,690.025307 472.506346,681.707321 472.506346,671.909091 C472.506346,662.082806 474.374228,653.751048 478.125049,646.918158 C481.864044,640.106809 486.920111,634.930997 493.297125,631.394652 C499.68332,627.853217 506.839252,626.085227 514.763448,626.085227 Z M938.314715,627.318182 L968.404869,716.5 L946.042185,716.5 L940.096252,697.566 L908.217867,697.566 L902.286493,716.5 L879.924078,716.5 L910.014233,627.318182 L938.314715,627.318182 Z M924.861819,649.039773 L923.42288,649.039773 L913.092558,682.009 L935.212226,682.009 L924.861819,649.039773 Z M795.510552,627.318182 L818.40828,683.153409 L820.135826,683.153409 L843.033553,627.318182 L869.191087,627.318182 L869.191087,716.5 L848.966655,716.5 L848.966655,661.105114 L847.37804,661.105114 L825.713267,715.927557 L812.831538,715.927557 L791.166766,660.796875 L789.57745,660.796875 L789.57745,716.5 L769.353019,716.5 L769.353019,627.318182 L795.510552,627.318182 Z M754.897387,627.318182 L754.897387,644.019886 L713.813581,644.019886 L713.813581,663.514205 L751.682899,663.514205 L751.682899,680.259943 L713.813581,680.259943 L713.813581,699.798295 L754.897387,699.798295 L754.897387,716.5 L693.016706,716.5 L693.016706,627.318182 L754.897387,627.318182 Z M620.804194,627.318182 L656.295672,679.278409 L657.808233,679.278409 L657.808233,627.318182 L678.561074,627.318182 L678.561074,716.5 L660.829337,716.5 L624.941552,664.451705 L623.606529,664.451705 L623.606529,716.5 L602.809654,716.5 L602.809654,627.318182 L620.804194,627.318182 Z M588.354023,627.318182 L588.354023,716.5 L567.557148,716.5 L567.557148,627.318182 L588.354023,627.318182 Z M719.144714,509.085227 C724.313517,509.085227 729.126876,509.824472 733.584365,511.305462 C738.033444,512.783658 741.975871,514.869599 745.410597,517.565207 C748.838206,520.255229 751.622513,523.451226 753.762983,527.153661 C755.811292,530.696682 757.116522,534.571292 757.68016,538.776989 L757.68016,538.776989 L736.565017,538.776989 C736.054401,537.021335 735.331169,535.457999 734.397586,534.085916 C733.395049,532.612489 732.164691,531.359284 730.70645,530.326363 C729.252689,529.296616 727.587443,528.515481 725.709513,527.98542 C723.848158,527.460038 721.806803,527.196023 719.585055,527.196023 C715.10304,527.196023 711.232606,528.284691 707.969813,530.449862 C704.708076,532.614333 702.18526,535.759716 700.41108,539.894458 C698.655819,543.985109 697.772555,548.945072 697.772555,554.776989 C697.772555,560.635063 698.625133,565.629336 700.319884,569.762148 C702.034395,573.94315 704.52058,577.126818 707.768123,579.321917 C711.015524,581.516919 714.952777,582.622159 719.585055,582.622159 C723.662375,582.622159 727.115558,581.948758 729.947926,580.614997 C732.81856,579.263217 734.994949,577.339035 736.483012,574.848807 C738.056321,572.042785 738.712178,569.271228 738.710543,566.079025 L738.710543,566.079025 L720.833634,566.078149 L720.833634,551.181818 L758.715737,551.181818 L758.715737,562.615057 C758.715737,570.58712 757.033812,577.416728 753.655958,583.099642 C750.28467,588.771509 745.654463,593.126551 739.76559,596.165036 C733.858164,599.213094 727.071881,600.732955 719.408918,600.732955 C710.90267,600.732955 703.425337,598.894026 696.979642,595.206624 C690.545001,591.525545 685.531953,586.270958 681.937984,579.445316 C678.332252,572.597332 676.535339,564.46154 676.535339,555.041193 C676.535339,547.711127 677.623028,541.201977 679.804722,535.515027 C681.980197,529.844288 685.017007,525.035275 688.918546,521.090224 C692.817489,517.147798 697.339656,514.161943 702.485108,512.13275 C707.63906,510.100206 713.192432,509.085227 719.144714,509.085227 Z M621.451867,509.085227 C629.435216,509.085227 636.642944,510.853425 643.073568,514.395348 C649.494391,517.931874 654.58707,523.107862 658.355259,529.919588 C662.134939,536.752087 664.017208,545.083385 664.017208,554.909091 C664.017208,564.734797 662.134939,573.066095 658.355259,579.898594 C654.58707,586.71032 649.494391,591.886308 643.073568,595.422834 C636.642944,598.964757 629.435216,600.732955 621.451867,600.732955 C613.440147,600.732955 606.225687,598.950546 599.810081,595.379869 C593.403299,591.814104 588.324644,586.630603 584.570668,579.832863 C580.805572,573.014986 578.93056,564.705608 578.93056,554.909091 C578.93056,545.083096 580.805635,536.751568 584.570886,529.918874 C588.324456,523.107376 593.402444,517.931529 599.808567,514.395117 C606.224622,510.853223 613.439587,509.085227 621.451867,509.085227 Z M621.451867,527.196023 C617.027326,527.196023 613.222451,528.270684 610.032988,530.407022 C606.843919,532.543097 604.393417,535.682846 602.692982,539.836121 C601.013253,543.938823 600.167776,548.962298 600.167776,554.909091 C600.167776,560.855884 601.013253,565.879359 602.692982,569.982061 C604.393417,574.135336 606.843919,577.275085 610.032988,579.41116 C613.222451,581.547498 617.027326,582.622159 621.451867,582.622159 C625.906762,582.622159 629.719153,581.546955 632.893671,579.41055 C636.067504,577.274606 638.510414,574.135098 640.210752,569.982061 C641.890481,565.879359 642.735958,560.855884 642.735958,554.909091 C642.735958,548.962298 641.890481,543.938823 640.210752,539.836121 C638.510414,535.683084 636.067504,532.543576 632.893671,530.407632 C629.719153,528.271227 625.906762,527.196023 621.451867,527.196023 Z M360.562246,509.085227 C365.96646,509.085227 370.964211,509.831995 375.555022,511.328367 C380.131502,512.820068 384.158298,514.991421 387.634218,517.844573 C391.105727,520.694102 393.925663,524.187782 396.095304,528.324564 C398.194063,532.326199 399.520404,536.882307 400.078833,541.991477 L400.078833,541.991477 L379.051355,541.991477 C378.731594,539.844828 378.132965,537.896983 377.258039,536.147132 C376.317702,534.266457 375.073596,532.65917 373.526647,531.324547 C371.982373,529.992232 370.15874,528.968816 368.054079,528.257168 C365.96549,527.550955 363.659241,527.196023 361.134689,527.196023 C356.650443,527.196023 352.793311,528.300582 349.559053,530.496869 C346.327292,532.69146 343.841906,535.859497 342.112781,540.009397 C340.402737,544.113504 339.54236,549.079254 339.54236,554.909091 C339.54236,560.97669 340.418579,566.053479 342.158264,570.14248 C343.918786,574.280461 346.406832,577.389713 349.610725,579.480517 C352.813981,581.570905 356.609976,582.622159 361.002587,582.622159 C363.464283,582.622159 365.707974,582.305258 367.734217,581.674872 C369.776764,581.039412 371.576552,580.107807 373.13482,578.882373 C374.696883,577.653955 375.986397,576.152884 377.002531,574.37844 C377.950124,572.723689 378.627304,570.86385 379.031477,568.797955 L379.031477,568.797955 L400.078618,568.924238 C399.653023,572.671091 398.535653,576.364956 396.728702,580.006445 C394.831153,583.830514 392.230279,587.313527 388.927765,590.45671 C385.625876,593.599297 381.606093,596.095586 376.87076,597.949172 C372.124089,599.807196 366.68747,600.732955 360.562246,600.732955 C352.492654,600.732955 345.270935,598.958288 338.898951,595.40217 C332.537205,591.851765 327.517931,586.6694 323.837348,579.858872 C320.144315,573.025307 318.305144,564.707321 318.305144,554.909091 C318.305144,545.082806 320.173025,536.751048 323.923846,529.918158 C327.662842,523.106809 332.718909,517.930997 339.095923,514.394652 C345.482118,510.853217 352.63805,509.085227 360.562246,509.085227 Z M272.116558,509.085227 C279.022511,509.085227 285.023189,510.248335 290.116193,512.584443 C295.1778,514.906148 299.110374,518.155113 301.908361,522.33767 C304.617534,526.387465 306.037048,531.060732 306.174173,536.355114 L306.174173,536.355114 L286.260823,536.355114 C285.87566,533.191832 284.524326,530.713015 282.2225,528.909673 C279.845846,527.047709 276.46853,526.09517 272.072524,526.09517 C269.180711,526.09517 266.772445,526.477442 264.845144,527.230294 C262.864567,528.003957 261.38631,529.07128 260.397036,530.416074 C259.397124,531.77533 258.879179,533.329235 258.846845,535.078959 C258.784815,536.531424 259.082829,537.808524 259.729861,538.913213 C260.367009,540.001027 261.296541,540.95981 262.524786,541.783823 C263.71495,542.582287 265.152964,543.284396 266.840435,543.887064 C268.503186,544.480904 270.373677,545.000904 272.446088,545.444953 L272.446088,545.444953 L280.200817,547.207367 C284.622216,548.167276 288.527747,549.446011 291.916593,551.045895 C295.283678,552.635506 298.117366,554.526939 300.415226,556.723636 C302.697582,558.90551 304.427796,561.417242 305.60489,564.259495 C306.785432,567.11007 307.3875,570.306553 307.416281,573.841173 C307.3875,579.424653 305.983367,584.219391 303.190902,588.220965 C300.395291,592.227047 296.378394,595.291137 291.148669,597.423367 C285.872752,599.574429 279.513282,600.644886 272.072524,600.644886 C264.60011,600.644886 258.086073,599.529522 252.532202,597.290527 C247.0241,595.069983 242.738799,591.698737 239.68152,587.170502 C236.693362,582.744645 235.131409,577.175132 234.976375,570.46875 L234.976375,570.46875 L254.874415,570.46875 C255.110101,573.27263 255.911885,575.622757 257.266093,577.52441 C258.698643,579.536077 260.669947,581.063445 263.185275,582.100065 C265.661867,583.120721 268.535648,583.634943 271.808319,583.634943 C274.814518,583.634943 277.376059,583.224443 279.494955,582.412951 C281.6596,581.583938 283.319893,580.426609 284.485854,578.953817 C285.671004,577.456785 286.279904,575.741613 286.311095,573.807779 C286.27961,571.965472 285.709201,570.401504 284.60815,569.095972 C283.538927,567.82818 281.902826,566.719522 279.686155,565.786992 C277.536587,564.882691 274.801845,564.043795 271.481737,563.273056 L271.481737,563.273056 L262.056444,561.070889 C254.343975,559.30224 248.264409,556.447039 243.827261,552.488407 C239.439355,548.573706 237.272551,543.271151 237.30121,536.588278 C237.272449,531.123674 238.735531,526.333293 241.698408,522.219784 C244.672375,518.090877 248.789428,514.875217 254.043611,512.565686 C259.327589,510.243058 265.352433,509.085227 272.116558,509.085227 Z M1051.20303,510.318182 L1051.20303,546.514205 L1087.73855,546.514205 L1087.73855,510.318182 L1108.49139,510.318182 L1108.49139,599.5 L1087.73855,599.5 L1087.73855,563.259943 L1051.20303,563.259943 L1051.20303,599.5 L1030.40616,599.5 L1030.40616,510.318182 L1051.20303,510.318182 Z M986.507346,510.318182 C993.16725,510.318182 998.924317,511.60823 1003.77526,514.200227 C1008.60606,516.781461 1012.33479,520.371192 1014.95942,524.971498 C1017.59025,529.582678 1018.90081,534.939218 1018.90081,541.038352 C1018.90081,547.164682 1017.56931,552.519903 1014.89582,557.100963 C1012.32056,561.5137 1008.68911,564.964025 1004.00768,567.452676 L1003.50208,567.715637 L1003.00109,567.964746 C998.317064,570.240025 992.824185,571.412012 986.524829,571.490133 L985.846812,571.494318 L970.551191,571.495023 L970.551377,599.5 L949.754505,599.5 L949.754505,510.318182 L986.507346,510.318182 Z M981.795698,526.887784 L970.551194,526.887784 L970.551194,555.322045 L981.795744,555.321023 L982.32494,555.316069 C985.472522,555.256637 988.123473,554.662701 990.281562,553.547926 C992.590344,552.35531 994.339128,550.679452 995.531511,548.523991 C996.714651,546.385237 997.311323,543.890975 997.311323,541.038352 C997.311323,538.154187 996.713592,535.659225 995.530033,533.550061 C994.336814,531.423683 992.579498,529.776775 990.25368,528.613866 C987.962034,527.468043 985.144027,526.887784 981.795698,526.887784 L981.795698,526.887784 Z M1141.99882,510.318182 L1161.06558,548.055398 L1162.47334,548.055398 L1181.5401,510.318182 L1204.7384,510.318182 L1172.10185,569.752433 L1172.10185,599.5 L1151.43707,599.5 L1151.43707,569.752433 L1118.80052,510.318182 L1141.99882,510.318182 Z M507.686799,510.318182 L543.178276,562.278409 L544.690838,562.278409 L544.690838,510.318182 L565.443679,510.318182 L565.443679,599.5 L547.711941,599.5 L511.824157,547.451705 L510.489133,547.451705 L510.489133,599.5 L489.692258,599.5 L489.692258,510.318182 L507.686799,510.318182 Z M908.931359,510.318182 L939.021514,599.5 L916.658836,599.5 L910.713258,580.566 L878.834874,580.566 L872.903145,599.5 L850.540723,599.5 L880.630877,510.318182 L908.931359,510.318182 Z M895.47846,532.039773 L894.039521,532.039773 L883.709566,565.009 L905.829233,565.009 L895.47846,532.039773 Z M809.131595,510.318182 C815.797303,510.318182 821.559144,511.508232 826.414221,513.899539 C831.240257,516.276541 834.965755,519.675019 837.587858,524.098018 C840.216705,528.532391 841.525061,533.784069 841.525061,539.849432 C841.525061,545.791443 840.278203,550.866688 837.772564,555.066689 L837.508869,555.49805 L837.225151,555.940994 C834.664968,559.848618 831.13391,562.871811 826.635487,565.014522 L826.131682,565.248978 L844.276734,599.5 L821.628803,599.5 L805.138959,568.633 L793.175187,568.633 L793.175622,599.5 L772.378754,599.5 L772.378754,510.318182 L809.131595,510.318182 Z M804.419947,526.887784 L793.175638,526.887784 L793.175185,552.459 L804.419947,552.459 L805.007394,552.454348 C808.110045,552.404736 810.726325,551.958539 812.858306,551.125513 C815.181744,550.21768 816.938989,548.828407 818.138493,546.967638 C819.328676,545.12133 819.935572,542.751262 819.935572,539.849432 C819.935572,536.951937 819.331014,534.554147 818.142432,532.649368 C816.944438,530.729506 815.181497,529.28106 812.845767,528.312961 C810.562835,527.366746 807.755126,526.887784 804.419947,526.887784 L804.419947,526.887784 Z M475.236627,510.318182 L475.236627,527.019886 L434.15282,527.019886 L434.15282,546.514205 L472.022138,546.514205 L472.022138,563.259943 L434.15282,563.259943 L434.15282,582.798295 L475.236627,582.798295 L475.236627,599.5 L413.355945,599.5 L413.355945,510.318182 L475.236627,510.318182 Z M934.9069,393.318182 L957.804627,449.153409 L959.532173,449.153409 L982.429901,393.318182 L1008.58743,393.318182 L1008.58743,482.5 L988.363003,482.5 L988.363003,427.105114 L986.774387,427.105114 L965.109614,481.927557 L952.227886,481.927557 L930.563113,426.796875 L928.973798,426.796875 L928.973798,482.5 L908.749366,482.5 L908.749366,393.318182 L934.9069,393.318182 Z M1084.92375,393.318182 L1084.92375,410.019886 L1043.83994,410.019886 L1043.83994,429.514205 L1081.70926,429.514205 L1081.70926,446.259943 L1043.83994,446.259943 L1043.83994,465.798295 L1084.92375,465.798295 L1084.92375,482.5 L1023.04307,482.5 L1023.04307,393.318182 L1084.92375,393.318182 Z M1117.37392,393.318182 L1152.8654,445.278409 L1154.37796,445.278409 L1154.37796,393.318182 L1175.1308,393.318182 L1175.1308,482.5 L1157.39906,482.5 L1121.51128,430.451705 L1120.17625,430.451705 L1120.17625,482.5 L1099.37938,482.5 L1099.37938,393.318182 L1117.37392,393.318182 Z M564.500892,393.318182 L580.969642,421.808239 L582.249649,421.808239 L598.894536,393.318182 L622.116701,393.318182 L595.202879,437.913253 L622.982512,482.5 L599.158018,482.5 L582.248927,453.701705 L580.971903,453.701705 L564.062812,482.5 L540.412216,482.5 L568.061739,437.912422 L541.104869,393.318182 L564.500892,393.318182 Z M1261.85916,393.318182 L1261.85916,410.019886 L1234.51399,410.019886 L1234.51399,482.5 L1214.02535,482.5 L1214.02535,410.019886 L1186.63615,410.019886 L1186.63615,393.318182 L1261.85916,393.318182 Z M894.293735,393.318182 L894.293735,482.5 L873.49686,482.5 L873.49686,393.318182 L894.293735,393.318182 Z M828.365092,393.318182 C835.0308,393.318182 840.792641,394.508232 845.647719,396.899539 C850.473754,399.276541 854.199252,402.675019 856.821356,407.098018 C859.450203,411.532391 860.758558,416.784069 860.758558,422.849432 C860.758558,428.791443 859.5117,433.866688 857.006062,438.066689 L856.742367,438.49805 L856.458649,438.940994 C853.898465,442.848618 850.367408,445.871811 845.868985,448.014522 L845.365179,448.248978 L863.510232,482.5 L840.862305,482.5 L824.372963,451.633 L812.408179,451.633 L812.409111,482.5 L791.612252,482.5 L791.612252,393.318182 L828.365092,393.318182 Z M823.653445,409.887784 L812.409146,409.887784 L812.408175,435.459 L823.653445,435.459 L824.240892,435.454348 C827.343542,435.404736 829.959822,434.958539 832.091804,434.125513 C834.415242,433.21768 836.172486,431.828407 837.371991,429.967638 C838.562173,428.12133 839.16907,425.751262 839.16907,422.849432 C839.16907,419.951937 838.564512,417.554147 837.37593,415.649368 C836.177936,413.729506 834.414995,412.28106 832.079264,411.312961 C829.796333,410.366746 826.988624,409.887784 823.653445,409.887784 L823.653445,409.887784 Z M777.15662,393.318182 L777.15662,410.019886 L736.072814,410.019886 L736.072814,429.514205 L773.942132,429.514205 L773.942132,446.259943 L736.072814,446.259943 L736.072814,465.798295 L777.15662,465.798295 L777.15662,482.5 L715.275939,482.5 L715.275939,393.318182 L777.15662,393.318182 Z M671.377126,393.318182 C678.03703,393.318182 683.794096,394.60823 688.645041,397.200227 C693.475842,399.781461 697.204574,403.371192 699.8292,407.971498 C702.46003,412.582678 703.770591,417.939218 703.770591,424.038352 C703.770591,430.164682 702.439087,435.519903 699.765598,440.100963 C697.190341,444.5137 693.558891,447.964025 688.877455,450.452676 L688.371855,450.715637 L687.870869,450.964746 C683.186844,453.240025 677.693965,454.412012 671.394608,454.490133 L670.716591,454.494318 L655.420177,454.495023 L655.421142,482.5 L634.624285,482.5 L634.624285,393.318182 L671.377126,393.318182 Z M666.665478,409.887784 L655.421177,409.887784 L655.420177,438.322045 L666.665523,438.321023 L667.194719,438.316069 C670.342301,438.256637 672.993252,437.662701 675.151341,436.547926 C677.460123,435.35531 679.208908,433.679452 680.40129,431.523991 C681.584431,429.385237 682.181103,426.890975 682.181103,424.038352 C682.181103,421.154187 681.583372,418.659225 680.399812,416.550061 C679.206593,414.423683 677.449277,412.776775 675.12346,411.613866 C672.831814,410.468043 670.013806,409.887784 666.665478,409.887784 L666.665478,409.887784 Z M528.772681,393.318182 L528.772681,410.019886 L487.688875,410.019886 L487.688875,429.514205 L525.558193,429.514205 L525.558193,446.259943 L487.688875,446.259943 L487.688875,465.798295 L528.772681,465.798295 L528.772681,482.5 L466.892,482.5 L466.892,393.318182 L528.772681,393.318182 Z M428.89693,393.318182 L428.89693,410.019886 L401.55176,410.019886 L401.55176,482.5 L381.063124,482.5 L381.063124,410.019886 L353.673919,410.019886 L353.673919,393.318182 L428.89693,393.318182 Z M311.492436,393.318182 C318.158143,393.318182 323.919984,394.508232 328.775062,396.899539 C333.601097,399.276541 337.326595,402.675019 339.948699,407.098018 C342.577546,411.532391 343.885901,416.784069 343.885901,422.849432 C343.885901,428.791443 342.639044,433.866688 340.133405,438.066689 L339.86971,438.49805 L339.585992,438.940994 C337.025808,442.848618 333.494751,445.871811 328.996328,448.014522 L328.492522,448.248978 L346.637575,482.5 L323.989645,482.5 L307.49996,451.633 L295.53619,451.633 L295.536465,482.5 L274.739595,482.5 L274.739595,393.318182 L311.492436,393.318182 Z M306.780788,409.887784 L295.536475,409.887784 L295.536189,435.459 L306.780788,435.459 L307.368235,435.454348 C310.470885,435.404736 313.087165,434.958539 315.219147,434.125513 C317.542585,433.21768 319.29983,431.828407 320.499334,429.967638 C321.689516,428.12133 322.296413,425.751262 322.296413,422.849432 C322.296413,419.951937 321.691855,417.554147 320.503273,415.649368 C319.305279,413.729506 317.542338,412.28106 315.206607,411.312961 C312.923676,410.366746 310.115967,409.887784 306.780788,409.887784 L306.780788,409.887784 Z M233.916449,393.318182 L264.006603,482.5 L241.643924,482.5 L235.698257,463.566 L203.819872,463.566 L197.888232,482.5 L175.525812,482.5 L205.615967,393.318182 L233.916449,393.318182 Z M220.463551,415.039773 L219.024611,415.039773 L208.694564,448.009 L230.814231,448.009 L220.463551,415.039773 Z M466.462965,272.090909 L437.669633,379.0625 L420.34301,379.0625 L449.136342,272.090909 L466.462965,272.090909 Z M1034.80978,275.085227 C1039.97858,275.085227 1044.79194,275.824472 1049.24943,277.305462 C1053.69851,278.783658 1057.64093,280.869599 1061.07566,283.565207 C1064.50327,286.255229 1067.28758,289.451226 1069.42805,293.153661 C1071.47635,296.696682 1072.78158,300.571292 1073.34522,304.776989 L1073.34522,304.776989 L1052.23008,304.776989 C1051.71946,303.021335 1050.99623,301.457999 1050.06265,300.085916 C1049.06011,298.612489 1047.82975,297.359284 1046.37151,296.326363 C1044.91775,295.296616 1043.25251,294.515481 1041.37458,293.98542 C1039.51322,293.460038 1037.47187,293.196023 1035.25012,293.196023 C1030.7681,293.196023 1026.89767,294.284691 1023.63488,296.449862 C1020.37314,298.614333 1017.85032,301.759716 1016.07614,305.894458 C1014.32088,309.985109 1013.43762,314.945072 1013.43762,320.776989 C1013.43762,326.635063 1014.2902,331.629336 1015.98495,335.762148 C1017.69946,339.94315 1020.18564,343.126818 1023.43319,345.321917 C1026.68059,347.516919 1030.61784,348.622159 1035.25012,348.622159 C1039.32744,348.622159 1042.78062,347.948758 1045.61299,346.614997 C1048.48362,345.263217 1050.66001,343.339035 1052.14807,340.848807 C1053.72138,338.042785 1054.37722,335.271228 1054.37554,332.079025 L1054.37554,332.079025 L1036.4987,332.078149 L1036.4987,317.181818 L1074.3808,317.181818 L1074.3808,328.615057 C1074.3808,336.58712 1072.69887,343.416728 1069.32102,349.099642 C1065.94973,354.771509 1061.31953,359.126551 1055.43065,362.165036 C1049.52323,365.213094 1042.73694,366.732955 1035.07398,366.732955 C1026.56773,366.732955 1019.0904,364.894026 1012.6447,361.206624 C1006.21006,357.525545 1001.19702,352.270958 997.603047,345.445316 C993.997314,338.597332 992.200401,330.46154 992.200401,321.041193 C992.200401,313.711127 993.28809,307.201977 995.469785,301.515027 C997.64526,295.844288 1000.68207,291.035275 1004.58361,287.090224 C1008.48255,283.147798 1013.00472,280.161943 1018.15017,278.13275 C1023.30412,276.100206 1028.85749,275.085227 1034.80978,275.085227 Z M910.759309,275.085227 C917.665263,275.085227 923.66594,276.248335 928.758945,278.584443 C933.820552,280.906148 937.753126,284.155113 940.551112,288.33767 C943.260285,292.387465 944.679799,297.060732 944.816925,302.355114 L944.816925,302.355114 L924.903575,302.355114 C924.518411,299.191832 923.167077,296.713015 920.865251,294.909673 C918.488598,293.047709 915.111281,292.09517 910.715275,292.09517 C907.823463,292.09517 905.415197,292.477442 903.487895,293.230294 C901.507318,294.003957 900.029062,295.07128 899.039787,296.416074 C898.039875,297.77533 897.52193,299.329235 897.489596,301.078959 C897.427566,302.531424 897.72558,303.808524 898.372612,304.913213 C899.00976,306.001027 899.939292,306.95981 901.167537,307.783823 C902.357702,308.582287 903.795715,309.284396 905.483187,309.887064 C907.145937,310.480904 909.016428,311.000904 911.08884,311.444953 L911.08884,311.444953 L918.843569,313.207367 C923.264968,314.167276 927.170499,315.446011 930.559345,317.045895 C933.92643,318.635506 936.760117,320.526939 939.057977,322.723636 C941.340333,324.90551 943.070547,327.417242 944.247642,330.259495 C945.428183,333.11007 946.030251,336.306553 946.059032,339.841173 C946.030251,345.424653 944.626119,350.219391 941.833653,354.220965 C939.038042,358.227047 935.021145,361.291137 929.79142,363.423367 C924.515503,365.574429 918.156034,366.644886 910.715275,366.644886 C903.242861,366.644886 896.728824,365.529522 891.174953,363.290527 C885.666851,361.069983 881.381551,357.698737 878.324271,353.170502 C875.336113,348.744645 873.77416,343.175132 873.619127,336.46875 L873.619127,336.46875 L893.517167,336.46875 C893.752853,339.27263 894.554637,341.622757 895.908844,343.52441 C897.341395,345.536077 899.312698,347.063445 901.828027,348.100065 C904.304619,349.120721 907.1784,349.634943 910.451071,349.634943 C913.457269,349.634943 916.01881,349.224443 918.137707,348.412951 C920.302351,347.583938 921.962645,346.426609 923.128605,344.953817 C924.313756,343.456785 924.922656,341.741613 924.953847,339.807779 C924.922361,337.965472 924.351952,336.401504 923.250901,335.095972 C922.181678,333.82818 920.545577,332.719522 918.328906,331.786992 C916.179338,330.882691 913.444596,330.043795 910.124488,329.273056 L910.124488,329.273056 L900.699195,327.070889 C892.986726,325.30224 886.90716,322.447039 882.470013,318.488407 C878.082106,314.573706 875.915302,309.271151 875.943962,302.588278 C875.9152,297.123674 877.378282,292.333293 880.341159,288.219784 C883.315127,284.090877 887.43218,280.875217 892.686362,278.565686 C897.97034,276.243058 903.995184,275.085227 910.759309,275.085227 Z M522.677176,276.318182 L522.677176,332.09375 C522.677176,335.297541 523.383413,338.152474 524.788553,340.660575 C526.199288,343.178661 528.178565,345.151019 530.727067,346.576967 C533.263089,347.995931 536.205785,348.710227 539.557858,348.710227 C542.910637,348.710227 545.846319,347.995588 548.367743,346.576343 C550.900015,345.150992 552.878689,343.179647 554.304024,340.662567 C555.724603,338.153884 556.43854,335.298288 556.43854,332.09375 L556.43854,332.09375 L556.43854,276.318182 L577.191381,276.318182 L577.191381,333.987216 C577.191381,340.604999 575.621611,346.365195 572.471116,351.26436 C569.320894,356.1631 564.926231,359.946864 559.291009,362.619982 C553.628074,365.306246 547.049619,366.644886 539.557858,366.644886 C531.978485,366.644886 525.355944,365.306438 519.692605,362.619982 C514.058221,359.947261 509.678535,356.164162 506.55766,351.266122 C503.43575,346.366457 501.880301,340.605676 501.880301,333.987216 L501.880301,333.987216 L501.880301,276.318182 L522.677176,276.318182 Z M295.158963,276.318182 L295.158963,332.09375 C295.158963,335.297541 295.8652,338.152474 297.27034,340.660575 C298.681076,343.178661 300.660352,345.151019 303.208854,346.576967 C305.744876,347.995931 308.687573,348.710227 312.039645,348.710227 C315.392424,348.710227 318.328107,347.995588 320.84953,346.576343 C323.381802,345.150992 325.360476,343.179647 326.785811,340.662567 C328.206391,338.153884 328.920327,335.298288 328.920327,332.09375 L328.920327,332.09375 L328.920327,276.318182 L349.673168,276.318182 L349.673168,333.987216 C349.673168,340.604999 348.103399,346.365195 344.952903,351.26436 C341.802681,356.1631 337.408018,359.946864 331.772796,362.619982 C326.109861,365.306246 319.531407,366.644886 312.039645,366.644886 C304.460272,366.644886 297.837732,365.306438 292.174392,362.619982 C286.540008,359.947261 282.160323,356.164162 279.039447,351.266122 C275.917537,346.366457 274.362088,340.605676 274.362088,333.987216 L274.362088,333.987216 L274.362088,276.318182 L295.158963,276.318182 Z M1106.03836,276.318182 L1141.52983,328.278409 L1143.0424,328.278409 L1143.0424,276.318182 L1163.79524,276.318182 L1163.79524,365.5 L1146.0635,365.5 L1110.17572,313.451705 L1108.84069,313.451705 L1108.84069,365.5 L1088.04382,365.5 L1088.04382,276.318182 L1106.03836,276.318182 Z M978.71352,276.318182 L978.71352,365.5 L957.916645,365.5 L957.916645,276.318182 L978.71352,276.318182 Z M861.752542,276.318182 L861.752542,293.019886 L820.668735,293.019886 L820.668735,312.514205 L858.538053,312.514205 L858.538053,329.259943 L820.668735,329.259943 L820.668735,348.798295 L861.752542,348.798295 L861.752542,365.5 L799.87186,365.5 L799.87186,276.318182 L861.752542,276.318182 Z M742.322479,276.318182 C751.417773,276.318182 759.258437,278.092045 765.841011,281.652156 C772.402714,285.20098 777.464827,290.300024 781.028088,296.948549 C784.603574,303.619881 786.384979,311.593226 786.384979,320.865057 C786.384979,330.166656 784.61071,338.162395 781.049493,344.848762 C777.500959,351.511317 772.439168,356.617227 765.863434,360.165806 C759.449531,363.627053 751.867091,365.400063 743.119187,365.495893 L742.366513,365.5 L709.532706,365.5 L709.532706,276.318182 L742.322479,276.318182 Z M741.221627,293.900568 L730.329581,293.900568 L730.329581,347.917614 L741.529865,347.917614 L742.142521,347.91339 C747.013585,347.845813 751.160237,346.967569 754.585644,345.290696 C758.194224,343.524152 760.931756,340.644073 762.789501,336.641613 C764.619314,332.699334 765.54407,327.442245 765.54407,320.865057 C765.54407,314.286381 764.611288,309.043162 762.766209,305.12981 C760.893668,301.158211 758.134441,298.293098 754.4961,296.526767 C750.899531,294.780714 746.475955,293.900568 741.221627,293.900568 L741.221627,293.900568 Z M612.919592,276.318182 L629.388342,304.808239 L630.668349,304.808239 L647.313235,276.318182 L670.5354,276.318182 L643.621578,320.913253 L671.401211,365.5 L647.576717,365.5 L630.667626,336.701705 L629.390602,336.701705 L612.481511,365.5 L588.830915,365.5 L616.480439,320.912422 L589.523569,276.318182 L612.919592,276.318182 Z M384.925674,276.318182 L384.925674,365.5 L364.128799,365.5 L364.128799,276.318182 L384.925674,276.318182 Z"/>
</svg>
