<?xml version="1.0" encoding="UTF-8"?>
<svg width="1112px" height="458px" viewBox="0 0 1112 458" version="1.1" xmlns="http://www.w3.org/2000/svg" xmlns:xlink="http://www.w3.org/1999/xlink">
    <title>projects-type</title>
    <g id="Main" stroke="none" stroke-width="1" fill="none" fill-rule="evenodd" fill-opacity="0">
        <g id="Projects--project" transform="translate(-137.000000, -269.000000)" fill="#000000" fill-rule="nonzero" stroke="#FFFFFF">
            <path d="M484.591233,631.435915 C490.109849,631.435915 495.21339,632.198521 499.901382,633.726569 C504.575041,635.249945 508.687331,637.467428 512.237059,640.381163 C515.782375,643.291277 518.662279,646.859225 520.87805,651.083961 C523.022945,655.173561 524.377905,659.830233 524.947446,665.052562 L524.947446,665.052562 L503.45869,665.052562 C503.132732,662.858566 502.521463,660.867976 501.627463,659.079976 C500.668059,657.161168 499.398736,655.521282 497.820418,654.159596 C496.244776,652.800219 494.384086,651.756045 492.236678,651.029943 C490.105343,650.309275 487.751887,649.947116 485.17567,649.947116 C480.59978,649.947116 476.663766,651.074126 473.363389,653.315312 C470.065509,655.554803 467.52938,658.787728 465.764889,663.022507 C464.019479,667.211493 463.141418,672.279959 463.141418,678.230347 C463.141418,684.423419 464.035629,689.60523 465.811294,693.778802 C467.607798,698.001354 470.146587,701.174265 473.415984,703.307816 C476.684744,705.44095 480.55839,706.513578 485.0408,706.513578 C487.552932,706.513578 489.842598,706.190219 491.910358,705.546916 C493.994422,704.898541 495.830806,703.948022 497.420749,702.697678 C499.014488,701.44435 500.330142,699.912834 501.366881,698.102409 C502.335087,696.411662 503.026599,694.511076 503.438812,692.39968 L503.438812,692.39968 L524.947267,692.528731 C524.513612,696.35923 523.372065,700.135513 521.524826,703.858192 C519.58699,707.763449 516.930915,711.320424 513.558283,714.530341 C510.186277,717.739663 506.081154,720.289001 501.245258,722.181951 C496.398025,724.079339 490.846235,725.024779 484.591233,725.024779 C476.350654,725.024779 468.975939,723.21244 462.468948,719.580977 C455.972196,715.955227 450.846363,710.662919 447.087666,703.707851 C443.31652,696.729747 441.438293,688.235854 441.438293,678.230347 C441.438293,668.196171 443.345846,659.688198 447.17601,652.710768 C450.994349,645.75488 456.157744,640.469279 462.670072,636.857897 C469.19158,633.241424 476.499125,631.435915 484.591233,631.435915 Z M917.024182,632.694702 L947.751849,723.765992 L924.898345,723.765992 L918.827834,704.435291 L886.296927,704.435291 L880.24128,723.765992 L857.388045,723.765992 L888.115711,632.694702 L917.024182,632.694702 Z M903.274212,654.892352 L901.820511,654.892352 L891.280316,688.531392 L913.8349,688.531392 L903.274212,654.892352 Z M771.227521,632.694702 L794.604997,689.699778 L796.354685,689.699778 L819.732161,632.694702 L846.455244,632.694702 L846.455244,723.765992 L825.786123,723.765992 L825.786123,667.210483 L824.181823,667.210483 L802.063134,723.181555 L788.897247,723.181555 L766.778558,666.895786 L765.173559,666.895786 L765.173559,723.765992 L744.504437,723.765992 L744.504437,632.694702 L771.227521,632.694702 Z M729.766886,632.694702 L729.766886,649.76729 L687.8223,649.76729 L687.8223,669.649097 L726.485048,669.649097 L726.485048,686.766641 L687.8223,686.766641 L687.8223,706.693405 L729.766886,706.693405 L729.766886,723.765992 L666.568741,723.765992 L666.568741,632.694702 L729.766886,632.694702 Z M592.859255,632.694702 L629.094342,685.74359 L630.622588,685.74359 L630.622588,632.694702 L651.83119,632.694702 L651.83119,723.765992 L633.711963,723.765992 L597.072265,670.627191 L595.725248,670.627191 L595.725248,723.765992 L574.471689,723.765992 L574.471689,632.694702 L592.859255,632.694702 Z M559.734139,632.694702 L559.734139,723.765992 L538.48058,723.765992 L538.48058,632.694702 L559.734139,632.694702 Z M693.254654,511.984555 C698.532939,511.984555 703.448244,512.739484 708.000145,514.251842 C712.543636,515.761406 716.569711,517.891631 720.077322,520.64444 C723.577816,523.391663 726.421323,526.655624 728.607307,530.436787 C730.701138,534.058548 732.034691,538.019575 732.609458,542.319364 L732.609458,542.319364 L711.032079,542.319364 C710.510968,540.524974 709.77233,538.92735 708.818441,537.525422 C707.795606,536.022164 706.540338,534.743588 705.052574,533.689755 C703.56929,532.639095 701.870216,531.842123 699.954152,531.301299 C698.054663,530.765153 695.971484,530.495756 693.704221,530.495756 C689.130562,530.495756 685.180938,531.606566 681.851411,533.816022 C678.52294,536.024777 675.948613,539.234588 674.138144,543.453901 C672.346594,547.629123 671.445186,552.691648 671.445186,558.644117 C671.445186,564.623358 672.315294,569.720962 674.045102,573.939268 C675.794672,578.205763 678.3316,581.454628 681.64557,583.694626 C684.959398,585.934528 688.977223,587.062218 693.704221,587.062218 C697.865189,587.062218 701.389259,586.375131 704.27975,585.014 C707.208508,583.63485 709.429028,581.671765 710.947229,579.131102 C712.550725,576.271232 713.220186,573.446233 713.219949,570.193426 L713.219949,570.193426 L694.968485,570.192532 L694.968485,554.963145 L733.665237,554.963145 L733.665237,566.646406 C733.665237,574.787612 731.947485,581.762067 728.497976,587.565533 C725.055033,593.357952 720.326416,597.805561 714.312378,600.908628 C708.279787,604.021267 701.349733,605.573419 693.524394,605.573419 C684.837932,605.573419 677.202221,603.695434 670.619982,599.929918 C664.048797,596.170727 658.929343,590.804659 655.259107,583.834171 C651.577107,576.841339 649.74206,568.533484 649.74206,558.913857 C649.74206,551.428795 650.852814,544.782025 653.080638,538.97483 C655.302243,533.183846 658.40348,528.272886 662.387745,524.244187 C666.369414,520.218113 670.987531,517.168906 676.242156,515.096659 C681.505282,513.02106 687.176285,511.984555 693.254654,511.984555 Z M593.514966,511.984555 C601.667457,511.984555 609.027875,513.790271 615.594735,517.407232 C622.151795,521.018795 627.352571,526.304572 631.200717,533.260837 C635.060356,540.237876 636.982603,548.74539 636.982603,558.778987 C636.982603,568.812584 635.060356,577.320097 631.200717,584.297136 C627.352571,591.253401 622.151795,596.539178 615.594735,600.150741 C609.027875,603.767702 601.667457,605.573419 593.514966,605.573419 C585.333489,605.573419 577.966186,603.753184 571.414651,600.106854 C564.87194,596.465436 559.685496,591.171993 555.85187,584.23002 C552.007123,577.267912 550.092285,568.78278 550.092285,558.778987 C550.092285,548.7451 552.007186,540.237358 555.852087,533.260123 C559.685308,526.304086 564.871085,521.018451 571.413137,517.407001 C577.965121,513.790069 585.332929,511.984555 593.514966,511.984555 Z M593.514966,530.495756 C589.000011,530.495756 585.117331,531.592251 581.862671,533.772259 C578.608405,535.952003 576.10793,539.156027 574.372744,543.39418 C572.658263,547.581761 571.795411,552.709181 571.795411,558.778987 C571.795411,564.848792 572.658263,569.976213 574.372744,574.163793 C576.10793,578.401947 578.608405,581.60597 581.862671,583.785714 C585.117331,585.965722 589.000011,587.062218 593.514966,587.062218 C598.06089,587.062218 601.951241,585.965179 605.190648,583.785104 C608.42937,581.605491 610.9221,578.401709 612.657188,574.163793 C614.371669,569.976213 615.234521,564.848792 615.234521,558.778987 C615.234521,552.709181 614.371669,547.581761 612.657188,543.39418 C610.9221,539.156265 608.42937,535.952483 605.190648,533.772869 C601.951241,531.592794 598.06089,530.495756 593.514966,530.495756 Z M327.159238,511.984555 C332.677854,511.984555 337.781395,512.74716 342.469386,514.275208 C347.143046,515.798584 351.255336,518.016068 354.805064,520.929803 C358.35038,523.839916 361.230284,527.407865 363.446055,531.632601 C365.59095,535.722201 366.94591,540.378872 367.515451,545.601202 L367.515451,545.601202 L346.026695,545.601202 C345.700737,543.407206 345.089468,541.416616 344.195468,539.628616 C343.236064,537.709807 341.966741,536.069921 340.388423,534.708236 C338.812781,533.348858 336.952091,532.304684 334.804683,531.578582 C332.673347,530.857915 330.319892,530.495756 327.743675,530.495756 C323.167784,530.495756 319.231771,531.622765 315.931394,533.863952 C312.633514,536.103442 310.097385,539.336368 308.332894,543.571146 C306.587483,547.760132 305.709423,552.828598 305.709423,558.778987 C305.709423,564.972058 306.603634,570.153869 308.379299,574.327442 C310.175803,578.549994 312.714591,581.722905 315.983988,583.856455 C319.252749,585.98959 323.126395,587.062218 327.608805,587.062218 C330.120936,587.062218 332.410603,586.738859 334.478363,586.095556 C336.562427,585.44718 338.398811,584.496662 339.988754,583.246318 C341.582493,581.992989 342.898147,580.461473 343.934886,578.651048 C344.903091,576.960302 345.594604,575.059716 346.006817,572.94832 L346.006817,572.94832 L367.515272,573.07737 C367.081617,576.90787 365.940069,580.684153 364.092831,584.406832 C362.154995,588.312089 359.49892,591.869063 356.126288,595.07898 C352.754282,598.288302 348.649159,600.83764 343.813263,602.73059 C338.96603,604.627978 333.41424,605.573419 327.159238,605.573419 C318.918659,605.573419 311.543944,603.76108 305.036953,600.129616 C298.540201,596.503866 293.414367,591.211559 289.655671,584.256491 C285.884525,577.278386 284.006298,568.784493 284.006298,558.778987 C284.006298,548.74481 285.913851,540.236838 289.744015,533.259408 C293.562354,526.303519 298.725749,521.017918 305.238077,517.406536 C311.759585,513.790063 319.06713,511.984555 327.159238,511.984555 Z M236.860454,511.984555 C243.912792,511.984555 250.040634,513.172419 255.241582,515.558039 C260.411132,517.929257 264.427508,521.24757 267.285156,525.519311 C270.053997,529.6583 271.503979,534.434899 271.642387,539.846746 L271.642387,539.846746 L251.291786,539.846746 C250.900413,536.615815 249.521802,534.084264 247.171673,532.243081 C244.746737,530.34329 241.300687,529.371839 236.815497,529.371839 C233.864639,529.371839 231.407168,529.761798 229.440502,530.530027 C227.420561,531.319067 225.912782,532.407455 224.903826,533.779005 C223.884253,535.164986 223.35616,536.749453 223.323195,538.53355 C223.259909,540.014366 223.563611,541.316421 224.223272,542.442672 C224.873029,543.552013 225.821013,544.529709 227.073553,545.370021 C228.288013,546.184785 229.755395,546.901193 231.47731,547.516163 C233.174505,548.122304 235.083744,548.653068 237.19921,549.106342 L237.19921,549.106342 L245.116316,550.905661 C249.631204,551.885867 253.619307,553.191664 257.079808,554.825377 C260.518548,556.448816 263.412511,558.380536 265.759269,560.623977 C268.090522,562.852596 269.857794,565.418146 271.060106,568.32129 C272.265865,571.232757 272.880849,574.497511 272.910245,578.107784 C272.880849,583.810586 271.446579,588.707732 268.594452,592.7948 C265.73918,596.886375 261.636636,600.01597 256.295277,602.193714 C250.907726,604.390291 244.413711,605.483505 236.815497,605.483505 C229.185012,605.483505 222.533201,604.344461 216.861853,602.058106 C211.236274,599.790203 206.859637,596.346994 203.737161,591.722195 C200.683799,587.199762 199.088317,581.508155 198.931398,574.654173 L198.931398,574.654173 L219.266692,574.654173 C219.506115,577.518932 220.32425,579.919796 221.707378,581.862061 C223.168837,583.914322 225.179965,585.472443 227.746036,586.529975 C230.273371,587.571543 233.206044,588.096221 236.545757,588.096221 C239.613462,588.096221 242.227437,587.677418 244.389695,586.849319 C246.597702,586.0037 248.291362,584.823306 249.480695,583.320991 C250.689218,581.794435 251.310112,580.045436 251.341918,578.073468 C251.309817,576.195486 250.728337,574.60092 249.605759,573.269863 C248.515009,571.976545 246.845848,570.845745 244.584585,569.894455 C242.390425,568.971395 239.598943,568.115124 236.209949,567.328393 L236.209949,567.328393 L226.58722,565.080096 C218.711145,563.273929 212.502724,560.35799 207.971472,556.315402 C203.48946,552.316745 201.275912,546.900557 201.305186,540.074374 C201.27581,534.492909 202.77026,529.60012 205.796488,525.398657 C208.833807,521.181796 213.038507,517.897557 218.404631,515.538821 C223.80055,513.166988 229.953019,511.984555 236.860454,511.984555 Z M1032.28067,513.243342 L1032.28067,550.197736 L1069.56071,550.197736 L1069.56071,513.243342 L1090.76932,513.243342 L1090.76932,604.314631 L1069.56071,604.314631 L1069.56071,567.31528 L1032.28067,567.31528 L1032.28067,604.314631 L1011.02711,604.314631 L1011.02711,513.243342 L1032.28067,513.243342 Z M966.219015,513.243342 C973.020383,513.243342 978.899693,514.560914 983.853661,517.207959 C988.787484,519.844241 992.595714,523.510548 995.27631,528.208956 C997.963111,532.918238 999.301658,538.388719 999.301658,544.617631 C999.301658,550.874354 997.941707,556.343516 995.211324,561.022062 C992.581136,565.528925 988.87225,569.052878 984.090872,571.594658 L983.574478,571.863233 L983.062909,572.117604 C978.279495,574.441161 972.670082,575.63812 966.237047,575.717906 L965.544641,575.72218 L949.939025,575.722899 L949.939215,604.314631 L928.68566,604.314631 L928.68566,513.243342 L966.219015,513.243342 Z M961.408649,530.181059 L949.939029,530.181059 L949.939029,559.190117 L961.408695,559.189073 L961.921898,559.184512 C965.145367,559.126754 967.8593,558.520655 970.067499,557.379996 C972.422718,556.163392 974.206715,554.453859 975.423085,552.255036 C976.630213,550.072921 977.238879,547.528069 977.238879,544.617631 C977.238879,541.675035 976.629154,539.129484 975.421607,536.977573 C974.2044,534.808449 972.411719,533.128481 970.039156,531.942199 C967.700766,530.773004 964.82525,530.181059 961.408649,530.181059 L961.408649,530.181059 Z M1124.97476,513.243342 L1144.44101,551.77122 L1145.86537,551.77122 L1165.33161,513.243342 L1189.0401,513.243342 L1155.71253,573.936011 L1155.71253,604.314631 L1134.59384,604.314631 L1134.59384,573.936011 L1101.26627,513.243342 L1124.97476,513.243342 Z M477.371846,513.243342 L513.606934,566.292229 L515.13518,566.292229 L515.13518,513.243342 L536.343782,513.243342 L536.343782,604.314631 L518.224555,604.314631 L481.584857,551.175831 L480.23784,551.175831 L480.23784,604.314631 L458.984281,604.314631 L458.984281,513.243342 L477.371846,513.243342 Z M887.025193,513.243342 L917.752859,604.314631 L894.899362,604.314631 L888.829214,584.98393 L856.298306,584.98393 L850.242297,604.314631 L827.389055,604.314631 L858.116722,513.243342 L887.025193,513.243342 Z M873.275219,535.440991 L871.821518,535.440991 L861.281696,569.080031 L883.836281,569.080031 L873.275219,535.440991 Z M785.126922,513.243342 C791.934094,513.243342 797.818179,514.458763 802.776279,516.900813 C807.705338,519.328558 811.510333,522.799613 814.188407,527.317024 C816.873224,531.845809 818.209566,537.209274 818.209566,543.403801 C818.209566,549.472453 816.935982,554.655804 814.376892,558.945376 L814.107573,559.385936 L813.817852,559.838251 C811.204824,563.826532 807.601609,566.912802 803.011707,569.101004 L802.497658,569.340442 L821.02582,604.314631 L797.879689,604.314631 L781.044353,572.800912 L768.846675,572.800912 L768.847119,604.314631 L747.593567,604.314631 L747.593567,513.243342 L785.126922,513.243342 Z M780.316557,530.181059 L768.847135,530.181059 L768.846673,556.267086 L780.316557,556.267086 L780.883045,556.262852 C784.06374,556.21488 786.744661,555.759434 788.927903,554.906379 C791.297777,553.980401 793.090235,552.563451 794.313726,550.66547 C795.527896,548.78195 796.146787,546.364062 796.146787,543.403801 C796.146787,540.447875 795.530235,538.001649 794.317666,536.058428 C793.095684,534.100125 791.297377,532.622771 788.914901,531.635297 C786.585225,530.669708 783.720008,530.181059 780.316557,530.181059 L780.316557,530.181059 Z M444.24673,513.243342 L444.24673,530.315929 L402.302143,530.315929 L402.302143,550.197736 L440.964892,550.197736 L440.964892,567.31528 L402.302143,567.31528 L402.302143,587.242044 L444.24673,587.242044 L444.24673,604.314631 L381.048585,604.314631 L381.048585,513.243342 L444.24673,513.243342 Z M913.544473,393.791981 L936.921949,450.797057 L938.671637,450.797057 L962.049113,393.791981 L988.772196,393.791981 L988.772196,484.863271 L968.103074,484.863271 L968.103074,428.307762 L966.498775,428.307762 L944.380086,484.278834 L931.214199,484.278834 L909.09551,427.993065 L907.490511,427.993065 L907.490511,484.863271 L886.821389,484.863271 L886.821389,393.791981 L913.544473,393.791981 Z M1066.70789,393.791981 L1066.70789,410.864568 L1024.76331,410.864568 L1024.76331,430.746376 L1063.42605,430.746376 L1063.42605,447.86392 L1024.76331,447.86392 L1024.76331,467.790684 L1066.70789,467.790684 L1066.70789,484.863271 L1003.50975,484.863271 L1003.50975,393.791981 L1066.70789,393.791981 Z M1099.83301,393.791981 L1136.0681,446.840869 L1137.59634,446.840869 L1137.59634,393.791981 L1158.80494,393.791981 L1158.80494,484.863271 L1140.68572,484.863271 L1104.04602,431.72447 L1102.699,431.72447 L1102.699,484.863271 L1081.44544,484.863271 L1081.44544,393.791981 L1099.83301,393.791981 Z M535.376811,393.791981 L552.190611,422.878956 L553.485379,422.878956 L570.479006,393.791981 L594.212288,393.791981 L566.728303,439.331788 L595.096551,484.863271 L570.748024,484.863271 L553.484657,455.461599 L552.192871,455.461599 L534.929504,484.863271 L510.758566,484.863271 L538.993936,439.330957 L511.465981,393.791981 L535.376811,393.791981 Z M1247.35042,393.791981 L1247.35042,410.864568 L1219.43232,410.864568 L1219.43232,484.863271 L1198.49345,484.863271 L1198.49345,410.864568 L1170.5304,410.864568 L1170.5304,393.791981 L1247.35042,393.791981 Z M872.083838,393.791981 L872.083838,484.863271 L850.83028,484.863271 L850.83028,393.791981 L872.083838,393.791981 Z M804.763396,393.791981 C811.570568,393.791981 817.454653,395.007403 822.412753,397.449452 C827.341812,399.877197 831.146807,403.348252 833.824881,407.865663 C836.509698,412.394449 837.846039,417.757914 837.846039,423.95244 C837.846039,430.021092 836.572456,435.204444 834.013366,439.494015 L833.744047,439.934576 L833.454325,440.38689 C830.841298,444.375171 827.238083,447.461442 822.648181,449.649643 L822.134132,449.889081 L840.662294,484.863271 L817.516167,484.863271 L800.681344,453.349552 L788.482633,453.349552 L788.483585,484.863271 L767.230041,484.863271 L767.230041,393.791981 L804.763396,393.791981 Z M799.953031,410.729698 L788.483619,410.729698 L788.482629,436.815725 L799.953031,436.815725 L800.519518,436.811492 C803.700213,436.763519 806.381134,436.308073 808.564376,435.455018 C810.934251,434.529041 812.726708,433.11209 813.9502,431.21411 C815.16437,429.33059 815.78326,426.912701 815.78326,423.95244 C815.78326,420.996514 815.166709,418.550288 813.954139,416.607068 C812.732158,414.648764 810.93385,413.17141 808.551375,412.183937 C806.221699,411.218347 803.356482,410.729698 799.953031,410.729698 L799.953031,410.729698 Z M752.49249,393.791981 L752.49249,410.864568 L710.547904,410.864568 L710.547904,430.746376 L749.210652,430.746376 L749.210652,447.86392 L710.547904,447.86392 L710.547904,467.790684 L752.49249,467.790684 L752.49249,484.863271 L689.294345,484.863271 L689.294345,393.791981 L752.49249,393.791981 Z M644.486249,393.791981 C651.287617,393.791981 657.166927,395.109553 662.120895,397.756599 C667.054719,400.392881 670.862948,404.059187 673.543545,408.757595 C676.230345,413.466878 677.568892,418.937358 677.568892,425.166271 C677.568892,431.422993 676.208941,436.892155 673.478559,441.570702 C670.848371,446.077565 667.139484,449.601518 662.358106,452.143297 L661.841712,452.411873 L661.330143,452.666244 C656.546729,454.989801 650.937316,456.18676 644.504281,456.266546 L643.811876,456.27082 L628.20545,456.271539 L628.206435,484.863271 L606.952894,484.863271 L606.952894,393.791981 L644.486249,393.791981 Z M639.675884,410.729698 L628.20647,410.729698 L628.205449,439.738756 L639.675929,439.737713 L640.189133,439.733152 C643.412601,439.675394 646.126534,439.069294 648.334733,437.928635 C650.689952,436.712032 652.473949,435.002499 653.690319,432.803676 C654.897447,430.62156 655.506113,428.076709 655.506113,425.166271 C655.506113,422.223675 654.896388,419.678123 653.688841,417.526212 C652.471635,415.357088 650.678953,413.67712 648.30639,412.490839 C645.968,411.321644 643.092484,410.729698 639.675884,410.729698 L639.675884,410.729698 Z M498.904461,393.791981 L498.904461,410.864568 L456.959874,410.864568 L456.959874,430.746376 L495.622623,430.746376 L495.622623,447.86392 L456.959874,447.86392 L456.959874,467.790684 L498.904461,467.790684 L498.904461,484.863271 L435.706316,484.863271 L435.706316,393.791981 L498.904461,393.791981 Z M396.936133,393.791981 L396.936133,410.864568 L369.018032,410.864568 L369.018032,484.863271 L348.07917,484.863271 L348.07917,410.864568 L320.116113,410.864568 L320.116113,393.791981 L396.936133,393.791981 Z M277.061327,393.791981 C283.868499,393.791981 289.752584,395.007403 294.710684,397.449452 C299.639743,399.877197 303.444737,403.348252 306.122812,407.865663 C308.807629,412.394449 310.14397,417.757914 310.14397,423.95244 C310.14397,430.021092 308.870387,435.204444 306.311297,439.494015 L306.041978,439.934576 L305.752256,440.38689 C303.139228,444.375171 299.536013,447.461442 294.946112,449.649643 L294.432063,449.889081 L312.960225,484.863271 L289.814095,484.863271 L272.978922,453.349552 L260.781245,453.349552 L260.781526,484.863271 L239.527972,484.863271 L239.527972,393.791981 L277.061327,393.791981 Z M272.250962,410.729698 L260.781536,410.729698 L260.781244,436.815725 L272.250962,436.815725 L272.817449,436.811492 C275.998144,436.763519 278.679065,436.308073 280.862307,435.455018 C283.232182,434.529041 285.024639,433.11209 286.248131,431.21411 C287.462301,429.33059 288.081191,426.912701 288.081191,423.95244 C288.081191,420.996514 287.46464,418.550288 286.25207,416.607068 C285.030089,414.648764 283.231781,413.17141 280.849306,412.183937 C278.51963,411.218347 275.654413,410.729698 272.250962,410.729698 L272.250962,410.729698 Z M197.867505,393.791981 L228.595172,484.863271 L205.741672,484.863271 L199.671433,465.53257 L167.140526,465.53257 L161.084607,484.863271 L138.231368,484.863271 L168.959034,393.791981 L197.867505,393.791981 Z M184.117532,415.98963 L182.663831,415.98963 L172.123915,449.628671 L194.6785,449.628671 L184.117532,415.98963 Z M435.292437,270.024779 L405.890193,379.258569 L388.178848,379.258569 L417.581092,270.024779 L435.292437,270.024779 Z M1015.53347,273.081834 C1020.81175,273.081834 1025.72706,273.836763 1030.27896,275.349121 C1034.82245,276.858684 1038.84852,278.98891 1042.35614,281.741719 C1045.85663,284.488942 1048.70014,287.752903 1050.88612,291.534066 C1052.97995,295.155827 1054.3135,299.116853 1054.88827,303.416643 L1054.88827,303.416643 L1033.31089,303.416643 C1032.78978,301.622253 1032.05114,300.024629 1031.09725,298.622701 C1030.07442,297.119443 1028.81915,295.840867 1027.33139,294.787034 C1025.8481,293.736374 1024.14903,292.939402 1022.23297,292.398578 C1020.33348,291.862432 1018.2503,291.593035 1015.98303,291.593035 C1011.40938,291.593035 1007.45975,292.703845 1004.13022,294.913301 C1000.80175,297.122056 998.227427,300.331867 996.416958,304.55118 C994.625408,308.726402 993.723999,313.788927 993.723999,319.741396 C993.723999,325.720637 994.594107,330.818241 996.323916,335.036547 C998.073486,339.303042 1000.61041,342.551907 1003.92438,344.791905 C1007.23821,347.031807 1011.25604,348.159497 1015.98303,348.159497 C1020.144,348.159497 1023.66807,347.47241 1026.55856,346.111279 C1029.48732,344.732129 1031.70784,342.769044 1033.22604,340.228381 C1034.82954,337.368511 1035.49898,334.543511 1035.49869,331.290705 L1035.49869,331.290705 L1017.2473,331.289811 L1017.2473,316.060424 L1055.94405,316.060424 L1055.94405,327.743685 C1055.94405,335.884891 1054.2263,342.859346 1050.77679,348.662812 C1047.33385,354.455231 1042.60523,358.90284 1036.59119,362.005907 C1030.5586,365.118546 1023.62855,366.670698 1015.80321,366.670698 C1007.11675,366.670698 999.481034,364.792712 992.898795,361.027197 C986.32761,357.268006 981.208157,351.901938 977.537921,344.93145 C973.85592,337.938618 972.020874,329.630763 972.020874,320.011136 C972.020874,312.526074 973.131627,305.879304 975.359451,300.072109 C977.581056,294.281125 980.682294,289.370165 984.666559,285.341466 C988.648228,281.315392 993.266344,278.266185 998.52097,276.193938 C1003.7841,274.118339 1009.4551,273.081834 1015.53347,273.081834 Z M888.88392,273.081834 C895.936258,273.081834 902.0641,274.269698 907.265048,276.655318 C912.434598,279.026536 916.450974,282.344849 919.308622,286.61659 C922.077463,290.755579 923.527445,295.532178 923.665853,300.944025 L923.665853,300.944025 L903.315252,300.944025 C902.92388,297.713094 901.545268,295.181543 899.195139,293.34036 C896.770203,291.440569 893.324154,290.469118 888.838963,290.469118 C885.888105,290.469118 883.430634,290.859077 881.463969,291.627306 C879.444027,292.416346 877.936248,293.504734 876.927292,294.876284 C875.907719,296.262265 875.379626,297.846731 875.346661,299.630829 C875.283376,301.111645 875.587078,302.4137 876.246739,303.539951 C876.896496,304.649292 877.84448,305.626988 879.09702,306.4673 C880.311479,307.282064 881.778862,307.998472 883.500777,308.613442 C885.197971,309.219583 887.107211,309.750346 889.222676,310.203621 L889.222676,310.203621 L897.139782,312.002939 C901.65467,312.983145 905.642774,314.288943 909.103274,315.922656 C912.542014,317.546095 915.435978,319.477815 917.782735,321.721256 C920.113989,323.949875 921.88126,326.515425 923.083572,329.418569 C924.289331,332.330036 924.904315,335.59479 924.933711,339.205063 C924.904315,344.907865 923.470045,349.805011 920.617918,353.892079 C917.762646,357.983654 913.660102,361.113249 908.318743,363.290993 C902.931192,365.48757 896.437178,366.580784 888.838963,366.580784 C881.208478,366.580784 874.556668,365.44174 868.885319,363.155385 C863.25974,360.887482 858.883104,357.444273 855.760627,352.819474 C852.707265,348.297041 851.111783,342.605434 850.954864,335.751452 L850.954864,335.751452 L871.290158,335.751452 C871.529581,338.616211 872.347716,341.017075 873.730844,342.95934 C875.192303,345.0116 877.203431,346.569722 879.769503,347.627254 C882.296837,348.668822 885.22951,349.1935 888.569223,349.1935 C891.636928,349.1935 894.250903,348.774697 896.413162,347.946598 C898.621168,347.100979 900.314829,345.920585 901.504161,344.41827 C902.712684,342.891714 903.333578,341.142715 903.365384,339.170747 C903.333283,337.292765 902.751803,335.698199 901.629225,334.367142 C900.538475,333.073824 898.869314,331.943024 896.608051,330.991734 C894.413891,330.068674 891.62241,329.212402 888.233415,328.425672 L888.233415,328.425672 L878.610687,326.177375 C870.734612,324.371208 864.52619,321.455269 859.994938,317.412681 C855.512927,313.414024 853.299378,307.997836 853.328652,301.171653 C853.299276,295.590188 854.793726,290.697399 857.819954,286.495936 C860.857274,282.279075 865.061973,278.994836 870.428097,276.6361 C875.824016,274.264267 881.976486,273.081834 888.88392,273.081834 Z M492.681244,274.340621 L492.681244,331.295263 C492.681244,334.564251 493.401781,337.477308 494.835522,340.036458 C496.274857,342.605595 498.294267,344.617932 500.894434,346.072787 C503.482121,347.52066 506.484786,348.24941 509.90513,348.24941 C513.326181,348.24941 516.321678,347.520316 518.89446,346.072164 C521.47809,344.617905 523.496896,342.606581 524.951139,340.038451 C526.400627,337.478717 527.129017,334.564998 527.129017,331.295263 L527.129017,331.295263 L527.129017,274.340621 L548.337619,274.340621 L548.337619,333.228401 C548.337619,339.987033 546.734329,345.86978 543.516792,350.873198 C540.299527,355.876191 535.811375,359.740529 530.056216,362.47054 C524.273344,365.213697 517.555578,366.580784 509.90513,366.580784 C502.165226,366.580784 495.402451,365.213889 489.619175,362.47054 C483.864854,359.740926 479.391986,355.877254 476.204684,350.87496 C473.016347,345.871043 471.427685,339.98771 471.427685,333.228401 L471.427685,333.228401 L471.427685,274.340621 L492.681244,274.340621 Z M260.396115,274.340621 L260.396115,331.295263 C260.396115,334.564251 261.116652,337.477308 262.550393,340.036458 C263.989728,342.605595 266.009138,344.617932 268.609305,346.072787 C271.196992,347.52066 274.199657,348.24941 277.620002,348.24941 C281.041052,348.24941 284.03655,347.520316 286.609331,346.072164 C289.192961,344.617905 291.211768,342.606581 292.66601,340.038451 C294.115498,337.478717 294.843888,334.564998 294.843888,331.295263 L294.843888,331.295263 L294.843888,274.340621 L316.05249,274.340621 L316.05249,333.228401 C316.05249,339.987033 314.4492,345.86978 311.231663,350.873198 C308.014399,355.876191 303.526246,359.740529 297.771088,362.47054 C291.988215,365.213697 285.270449,366.580784 277.620002,366.580784 C269.880097,366.580784 263.117323,365.213889 257.334046,362.47054 C251.579725,359.740926 247.106857,355.877254 243.919555,350.87496 C240.731218,345.871043 239.142556,339.98771 239.142556,333.228401 L239.142556,333.228401 L239.142556,274.340621 L260.396115,274.340621 Z M1088.25995,274.340621 L1124.49503,327.389508 L1126.02328,327.389508 L1126.02328,274.340621 L1147.23188,274.340621 L1147.23188,365.41191 L1129.11265,365.41191 L1092.47296,312.273109 L1091.12594,312.273109 L1091.12594,365.41191 L1069.87238,365.41191 L1069.87238,274.340621 L1088.25995,274.340621 Z M958.27237,274.340621 L958.27237,365.41191 L937.018811,365.41191 L937.018811,274.340621 L958.27237,274.340621 Z M838.860849,274.340621 L838.860849,291.413208 L796.916262,291.413208 L796.916262,311.295015 L835.579011,311.295015 L835.579011,328.412559 L796.916262,328.412559 L796.916262,348.339323 L838.860849,348.339323 L838.860849,365.41191 L775.662703,365.41191 L775.662703,274.340621 L838.860849,274.340621 Z M716.918035,274.340621 C726.205844,274.340621 734.212421,276.152156 740.934306,279.787613 C747.635321,283.411782 752.804916,288.619077 756.44383,295.408758 C760.094968,302.221247 761.9142,310.363273 761.9142,319.831309 C761.9142,329.329728 760.102258,337.49461 756.465696,344.32244 C752.841816,351.12646 747.672544,356.340775 740.95719,359.964699 C734.407547,363.499198 726.664657,365.309852 717.731597,365.407716 L716.962992,365.41191 L683.430782,365.41191 L683.430782,274.340621 L716.918035,274.340621 Z M715.794118,292.312342 L704.68434,292.312342 L704.68434,347.44019 L716.108815,347.44019 L716.734088,347.435879 C721.705471,347.366921 725.937563,346.470715 729.433529,344.7593 C733.11561,342.956775 735.908804,340.017958 737.804376,335.934002 C739.672015,331.910227 740.615684,326.544425 740.615684,319.831309 C740.615684,313.116704 739.663835,307.765081 737.780623,303.770848 C735.869948,299.718368 733.054596,296.794824 729.34214,294.992512 C725.671456,293.210478 721.156697,292.312342 715.794118,292.312342 L715.794118,292.312342 Z M584.809969,274.340621 L601.623769,303.427596 L602.918537,303.427596 L619.912164,274.340621 L643.645446,274.340621 L616.161461,319.880428 L644.529709,365.41191 L620.181182,365.41191 L602.917815,336.010239 L601.62603,336.010239 L584.362663,365.41191 L560.191724,365.41191 L588.427094,319.879597 L560.899139,274.340621 L584.809969,274.340621 Z M352.0436,274.340621 L352.0436,365.41191 L330.790041,365.41191 L330.790041,274.340621 L352.0436,274.340621 Z" id="projects-type"></path>
        </g>
    </g>
</svg>