<?xml version="1.0" encoding="UTF-8"?>
<svg width="1094px" height="485px" viewBox="0 0 1094 485" version="1.1" xmlns="http://www.w3.org/2000/svg" xmlns:xlink="http://www.w3.org/1999/xlink">
    <title>Group 11</title>
    <g id="Main" stroke="none" stroke-width="1" fill="none" fill-rule="evenodd" fill-opacity="0">
        <g id="Projects--project" transform="translate(-184.000000, -3552.000000)" fill="#FFFFFF" fill-rule="nonzero" stroke="#FFFFFF">
            <g id="Group-11" transform="translate(185.248438, 3553.477620)">
                <path d="M830.221875,384 C835.784375,384 840.964062,384.796875 845.760937,386.390625 C850.557812,387.984375 854.807812,390.234375 858.510937,393.140625 C862.214062,396.046875 865.221875,399.5 867.534375,403.5 C869.846875,407.5 871.284375,411.890625 871.846875,416.671875 L871.846875,416.671875 L848.3625,416.671875 L848.224479,416.184408 C847.699306,414.414334 846.964062,412.834635 846.01875,411.445312 C844.9875,409.929688 843.721875,408.640625 842.221875,407.578125 C840.721875,406.515625 839.003125,405.710938 837.065625,405.164062 C835.128125,404.617188 833.003125,404.34375 830.690625,404.34375 C826.034375,404.34375 822.010937,405.46875 818.620312,407.71875 C815.229687,409.96875 812.6125,413.242188 810.76875,417.539062 C808.925,421.835938 808.003125,427.046875 808.003125,433.171875 C808.003125,439.328125 808.89375,444.578125 810.675,448.921875 C812.45625,453.265625 815.034375,456.578125 818.409375,458.859375 C821.784375,461.140625 825.878125,462.28125 830.690625,462.28125 C834.940625,462.28125 838.542187,461.585938 841.495312,460.195312 C844.448437,458.804688 846.690625,456.828125 848.221875,454.265625 L848.221875,454.265625 L848.435417,453.896471 C849.685417,451.663053 850.372917,449.096726 850.497917,446.197491 L850.497917,446.197491 L850.511562,445.7345 L831.4875,445.734375 L831.4875,428.8125 L872.878125,428.8125 L872.878125,441.515625 L872.873911,442.228913 C872.775592,450.517277 870.956684,457.638889 867.417187,463.59375 C863.776562,469.71875 858.776562,474.421875 852.417187,477.703125 C846.057812,480.984375 838.753125,482.625 830.503125,482.625 C821.346875,482.625 813.3,480.640625 806.3625,476.671875 C799.425,472.703125 794.01875,467.039062 790.14375,459.679688 C786.26875,452.320312 784.33125,443.578125 784.33125,433.453125 C784.33125,425.578125 785.503125,418.585938 787.846875,412.476562 C790.190625,406.367188 793.464062,401.1875 797.667187,396.9375 C801.870312,392.6875 806.745312,389.46875 812.292187,387.28125 C817.839062,385.09375 823.815625,384 830.221875,384 Z M703.734375,385.3125 L741.515625,440.625 L742.3125,440.625 L742.3125,385.3125 L765.46875,385.3125 L765.46875,481.3125 L745.78125,481.3125 L707.578125,425.90625 L706.96875,425.90625 L706.96875,481.3125 L683.765625,481.3125 L683.765625,385.3125 L703.734375,385.3125 Z M663.871875,385.3125 L663.871875,481.3125 L640.66875,481.3125 L640.66875,385.3125 L663.871875,385.3125 Z M623.915625,385.3125 L623.915625,404.15625 L594.80625,404.15625 L594.80625,481.3125 L571.93125,481.3125 L571.93125,404.15625 L542.775,404.15625 L542.775,385.3125 L623.915625,385.3125 Z M464.2875,385.3125 L502.06875,440.625 L502.865625,440.625 L502.865625,385.3125 L526.021875,385.3125 L526.021875,481.3125 L506.334375,481.3125 L468.13125,425.90625 L467.521875,425.90625 L467.521875,481.3125 L444.31875,481.3125 L444.31875,385.3125 L464.2875,385.3125 Z M424.425,385.3125 L424.425,481.3125 L401.221875,481.3125 L401.221875,385.3125 L424.425,385.3125 Z M353.109375,385.3125 L385.5,481.3125 L360.5625,481.3125 L354.233562,461.1565 L321.080562,461.1565 L314.765625,481.3125 L289.828125,481.3125 L322.21875,385.3125 L353.109375,385.3125 Z M253.7625,385.3125 L254.455016,385.316866 C261.349689,385.404177 267.329788,386.801159 272.395312,389.507812 C277.629687,392.304688 281.66875,396.195312 284.5125,401.179688 C287.35625,406.164062 288.778125,411.953125 288.778125,418.546875 C288.778125,425.171875 287.332812,430.960938 284.442187,435.914062 C281.551562,440.867188 277.434375,444.703125 272.090625,447.421875 L272.090625,447.421875 L271.570366,447.680736 C266.33656,450.226912 260.16623,451.5 253.059375,451.5 L253.059375,451.5 L237.308562,451.5005 L237.309375,481.3125 L214.10625,481.3125 L214.10625,385.3125 L253.7625,385.3125 Z M338.015625,409.5 L337.265625,409.5 L326.602562,443.5315 L348.699562,443.5315 L338.015625,409.5 Z M248.746875,404.015625 L237.309375,404.015625 L237.308562,433.2195 L248.746875,433.21875 L249.267598,433.21418 C252.538418,433.156289 255.294531,432.548437 257.535937,431.390625 C259.895312,430.171875 261.684375,428.460938 262.903125,426.257812 C264.121875,424.054688 264.73125,421.484375 264.73125,418.546875 C264.73125,415.578125 264.121875,413.007812 262.903125,410.835938 C261.684375,408.664062 259.8875,406.984375 257.5125,405.796875 C255.1375,404.609375 252.215625,404.015625 248.746875,404.015625 L248.746875,404.015625 Z M102.375,256 C107.9375,256 113.117187,256.796875 117.914062,258.390625 C122.710937,259.984375 126.960937,262.234375 130.664062,265.140625 C134.367187,268.046875 137.375,271.5 139.6875,275.5 C142,279.5 143.4375,283.890625 144,288.671875 L144,288.671875 L120.515625,288.671875 L120.377604,288.184408 C119.852431,286.414334 119.117187,284.834635 118.171875,283.445312 C117.140625,281.929688 115.875,280.640625 114.375,279.578125 C112.875,278.515625 111.15625,277.710938 109.21875,277.164062 C107.28125,276.617188 105.15625,276.34375 102.84375,276.34375 C98.1875,276.34375 94.1640625,277.46875 90.7734375,279.71875 C87.3828125,281.96875 84.765625,285.242188 82.921875,289.539062 C81.078125,293.835938 80.15625,299.046875 80.15625,305.171875 C80.15625,311.328125 81.046875,316.578125 82.828125,320.921875 C84.609375,325.265625 87.1875,328.578125 90.5625,330.859375 C93.9375,333.140625 98.03125,334.28125 102.84375,334.28125 C107.09375,334.28125 110.695312,333.585938 113.648437,332.195312 C116.601562,330.804688 118.84375,328.828125 120.375,326.265625 L120.375,326.265625 L120.588542,325.896471 C121.838542,323.663053 122.526042,321.096726 122.651042,318.197491 L122.651042,318.197491 L122.665562,317.7345 L103.640625,317.734375 L103.640625,300.8125 L145.03125,300.8125 L145.03125,313.515625 L145.027036,314.228913 C144.928717,322.517277 143.109809,329.638889 139.570312,335.59375 C135.929687,341.71875 130.929687,346.421875 124.570312,349.703125 C118.210937,352.984375 110.90625,354.625 102.65625,354.625 C93.5,354.625 85.453125,352.640625 78.515625,348.671875 C71.578125,344.703125 66.171875,339.039062 62.296875,331.679688 C58.421875,324.320312 56.484375,315.578125 56.484375,305.453125 C56.484375,297.578125 57.65625,290.585938 60,284.476562 C62.34375,278.367188 65.6171875,273.1875 69.8203125,268.9375 C74.0234375,264.6875 78.8984375,261.46875 84.4453125,259.28125 C89.9921875,257.09375 95.96875,256 102.375,256 Z M885.215625,256 C890.778125,256 895.957812,256.796875 900.754687,258.390625 C905.551562,259.984375 909.801562,262.234375 913.504687,265.140625 C917.207812,268.046875 920.215625,271.5 922.528125,275.5 C924.840625,279.5 926.278125,283.890625 926.840625,288.671875 L926.840625,288.671875 L903.35625,288.671875 L903.218229,288.184408 C902.693056,286.414334 901.957812,284.834635 901.0125,283.445312 C899.98125,281.929688 898.715625,280.640625 897.215625,279.578125 C895.715625,278.515625 893.996875,277.710938 892.059375,277.164062 C890.121875,276.617188 887.996875,276.34375 885.684375,276.34375 C881.028125,276.34375 877.004687,277.46875 873.614062,279.71875 C870.223437,281.96875 867.60625,285.242188 865.7625,289.539062 C863.91875,293.835938 862.996875,299.046875 862.996875,305.171875 C862.996875,311.328125 863.8875,316.578125 865.66875,320.921875 C867.45,325.265625 870.028125,328.578125 873.403125,330.859375 C876.778125,333.140625 880.871875,334.28125 885.684375,334.28125 C889.934375,334.28125 893.535937,333.585938 896.489062,332.195312 C899.442187,330.804688 901.684375,328.828125 903.215625,326.265625 L903.215625,326.265625 L903.429167,325.896471 C904.679167,323.663053 905.366667,321.096726 905.491667,318.197491 L905.491667,318.197491 L905.505562,317.7345 L886.48125,317.734375 L886.48125,300.8125 L927.871875,300.8125 L927.871875,313.515625 L927.867661,314.228913 C927.769342,322.517277 925.950434,329.638889 922.410937,335.59375 C918.770312,341.71875 913.770312,346.421875 907.410937,349.703125 C901.051562,352.984375 893.746875,354.625 885.496875,354.625 C876.340625,354.625 868.29375,352.640625 861.35625,348.671875 C854.41875,344.703125 849.0125,339.039062 845.1375,331.679688 C841.2625,324.320312 839.325,315.578125 839.325,305.453125 C839.325,297.578125 840.496875,290.585938 842.840625,284.476562 C845.184375,278.367188 848.457812,273.1875 852.660937,268.9375 C856.864062,264.6875 861.739062,261.46875 867.285937,259.28125 C872.832812,257.09375 878.809375,256 885.215625,256 Z M742.021875,256 C749.459375,256 755.920312,257.257812 761.404687,259.773438 C766.889062,262.289062 771.146875,265.8125 774.178125,270.34375 C777.209375,274.875 778.75625,280.125 778.81875,286.09375 L778.81875,286.09375 L756.6,286.09375 L756.560873,285.714924 C756.183601,282.458794 754.813831,279.905382 752.451562,278.054688 C749.998437,276.132812 746.50625,275.171875 741.975,275.171875 C738.975,275.171875 736.475,275.5625 734.475,276.34375 C732.475,277.125 730.975,278.195312 729.975,279.554688 C728.975,280.914062 728.459375,282.46875 728.428125,284.21875 C728.365625,285.65625 728.654687,286.921875 729.295312,288.015625 C729.935937,289.109375 730.873437,290.070312 732.107812,290.898438 C733.342187,291.726562 734.834375,292.453125 736.584375,293.078125 C738.334375,293.703125 740.303125,294.25 742.490625,294.71875 L742.490625,294.71875 L750.740625,296.59375 L751.573102,296.779304 C755.982272,297.787954 759.900092,299.101103 763.326562,300.71875 C766.967187,302.4375 770.029687,304.484375 772.514062,306.859375 C774.998437,309.234375 776.88125,311.96875 778.1625,315.0625 C779.44375,318.15625 780.1,321.625 780.13125,325.46875 C780.1,331.53125 778.56875,336.734375 775.5375,341.078125 C772.50625,345.421875 768.154687,348.75 762.482812,351.0625 C756.810937,353.375 749.975,354.53125 741.975,354.53125 C733.94375,354.53125 726.94375,353.328125 720.975,350.921875 C715.00625,348.515625 710.365625,344.859375 707.053125,339.953125 C703.740625,335.046875 702.0375,328.84375 701.94375,321.34375 L701.94375,321.34375 L724.1625,321.34375 L724.19543,321.803945 C724.434414,324.694023 725.251562,327.11875 726.646875,329.078125 C728.115625,331.140625 730.139062,332.703125 732.717187,333.765625 C735.295312,334.828125 738.2875,335.359375 741.69375,335.359375 C744.81875,335.359375 747.482812,334.9375 749.685937,334.09375 C751.889062,333.25 753.584375,332.078125 754.771875,330.578125 C755.959375,329.078125 756.56875,327.359375 756.6,325.421875 C756.56875,323.609375 756.00625,322.054688 754.9125,320.757812 C753.81875,319.460938 752.139062,318.335938 749.873437,317.382812 C747.607812,316.429688 744.725,315.546875 741.225,314.734375 L741.225,314.734375 L731.19375,312.390625 L730.485574,312.224343 C722.508584,310.307073 716.197768,307.276563 711.553125,303.132812 C706.771875,298.867188 704.396875,293.09375 704.428125,285.8125 C704.396875,279.875 705.990625,274.671875 709.209375,270.203125 C712.428125,265.734375 716.88125,262.25 722.56875,259.75 C728.25625,257.25 734.740625,256 742.021875,256 Z M820.4625,257.3125 L820.4625,353.3125 L797.259375,353.3125 L797.259375,257.3125 L820.4625,257.3125 Z M684.815625,257.3125 L684.815625,276.15625 L641.08125,276.15625 L641.08125,295.84375 L681.39375,295.84375 L681.39375,314.734375 L641.08125,314.734375 L641.08125,334.46875 L684.815625,334.46875 L684.815625,353.3125 L617.878125,353.3125 L617.878125,257.3125 L684.815625,257.3125 Z M551.578125,257.3125 L552.347521,257.316477 C561.802107,257.414566 569.975329,259.327303 576.867187,263.054688 C583.945312,266.882812 589.40625,272.382812 593.25,279.554688 C597.09375,286.726562 599.015625,295.296875 599.015625,305.265625 C599.015625,315.265625 597.101562,323.859375 593.273437,331.046875 C589.445312,338.234375 583.984375,343.742188 576.890625,347.570312 C569.796875,351.398438 561.375,353.3125 551.625,353.3125 L551.625,353.3125 L516.140625,353.3125 L516.140625,257.3125 L551.578125,257.3125 Z M462.478125,257.3125 L462.478125,276.15625 L418.74375,276.15625 L418.74375,295.84375 L459.05625,295.84375 L459.05625,314.734375 L418.74375,314.734375 L418.74375,334.46875 L462.478125,334.46875 L462.478125,353.3125 L395.540625,353.3125 L395.540625,257.3125 L462.478125,257.3125 Z M297.0375,257.3125 L321.4125,316.75 L322.5375,316.75 L346.9125,257.3125 L375.646875,257.3125 L375.646875,353.3125 L353.053125,353.3125 L353.053125,294.34375 L352.25625,294.34375 L329.19375,352.703125 L314.75625,352.703125 L291.69375,294.015625 L290.896875,294.015625 L290.896875,353.3125 L268.303125,353.3125 L268.303125,257.3125 L297.0375,257.3125 Z M220.190625,257.3125 L252.58125,353.3125 L227.64375,353.3125 L221.315562,333.1565 L188.161562,333.1565 L181.846875,353.3125 L156.909375,353.3125 L189.3,257.3125 L220.190625,257.3125 Z M966.890625,257.3125 L1004.67187,312.625 L1005.46875,312.625 L1005.46875,257.3125 L1028.625,257.3125 L1028.625,353.3125 L1008.9375,353.3125 L970.734375,297.90625 L970.125,297.90625 L970.125,353.3125 L946.921875,353.3125 L946.921875,257.3125 L966.890625,257.3125 Z M550.40625,277.09375 L539.34375,277.09375 L539.34375,333.53125 L550.734375,333.53125 C556.109375,333.53125 560.664062,332.617188 564.398437,330.789062 C568.132812,328.960938 570.960937,325.976562 572.882812,321.835938 C574.804687,317.695312 575.765625,312.171875 575.765625,305.265625 C575.765625,298.359375 574.796875,292.851562 572.859375,288.742188 C570.921875,284.632812 568.070312,281.664062 564.304687,279.835938 C560.539062,278.007812 555.90625,277.09375 550.40625,277.09375 L550.40625,277.09375 Z M205.096875,281.5 L204.346875,281.5 L193.683562,315.5315 L215.781562,315.5315 L205.096875,281.5 Z M240.271875,128 C248.865625,128 256.623438,129.90625 263.545313,133.71875 C270.467188,137.53125 275.959375,143.109375 280.021875,150.453125 C284.084375,157.796875 286.115625,166.75 286.115625,177.3125 C286.115625,187.875 284.084375,196.828125 280.021875,204.171875 C275.959375,211.515625 270.467188,217.09375 263.545313,220.90625 C256.623438,224.71875 248.865625,226.625 240.271875,226.625 C231.646875,226.625 223.88125,224.703125 216.975,220.859375 C210.06875,217.015625 204.592188,211.429688 200.545313,204.101562 C196.498438,196.773438 194.475,187.84375 194.475,177.3125 C194.475,166.75 196.498438,157.796875 200.545313,150.453125 C204.592188,143.109375 210.06875,137.53125 216.975,133.71875 C223.88125,129.90625 231.646875,128 240.271875,128 Z M435.684375,128 C444.278125,128 452.035937,129.90625 458.957812,133.71875 C465.879687,137.53125 471.371875,143.109375 475.434375,150.453125 C479.496875,157.796875 481.528125,166.75 481.528125,177.3125 C481.528125,187.875 479.496875,196.828125 475.434375,204.171875 C471.371875,211.515625 465.879687,217.09375 458.957812,220.90625 C452.035937,224.71875 444.278125,226.625 435.684375,226.625 C427.059375,226.625 419.29375,224.703125 412.3875,220.859375 C405.48125,217.015625 400.004687,211.429688 395.957812,204.101562 C391.910937,196.773438 389.8875,187.84375 389.8875,177.3125 C389.8875,166.75 391.910937,157.796875 395.957812,150.453125 C400.004687,143.109375 405.48125,137.53125 412.3875,133.71875 C419.29375,129.90625 427.059375,128 435.684375,128 Z M545.25,128 C550.8125,128 555.992187,128.796875 560.789062,130.390625 C565.585937,131.984375 569.835937,134.234375 573.539062,137.140625 C577.242187,140.046875 580.25,143.5 582.5625,147.5 C584.875,151.5 586.3125,155.890625 586.875,160.671875 L586.875,160.671875 L563.390625,160.671875 L563.252604,160.184408 C562.727431,158.414334 561.992187,156.834635 561.046875,155.445312 C560.015625,153.929688 558.75,152.640625 557.25,151.578125 C555.75,150.515625 554.03125,149.710938 552.09375,149.164062 C550.15625,148.617188 548.03125,148.34375 545.71875,148.34375 C541.0625,148.34375 537.039062,149.46875 533.648437,151.71875 C530.257812,153.96875 527.640625,157.242188 525.796875,161.539062 C523.953125,165.835938 523.03125,171.046875 523.03125,177.171875 C523.03125,183.328125 523.921875,188.578125 525.703125,192.921875 C527.484375,197.265625 530.0625,200.578125 533.4375,202.859375 C536.8125,205.140625 540.90625,206.28125 545.71875,206.28125 C549.96875,206.28125 553.570312,205.585938 556.523437,204.195312 C559.476562,202.804688 561.71875,200.828125 563.25,198.265625 L563.25,198.265625 L563.463542,197.896471 C564.713542,195.663053 565.401042,193.096726 565.526042,190.197491 L565.526042,190.197491 L565.540562,189.7345 L546.515625,189.734375 L546.515625,172.8125 L587.90625,172.8125 L587.90625,185.515625 L587.902036,186.228913 C587.803717,194.517277 585.984809,201.638889 582.445312,207.59375 C578.804687,213.71875 573.804687,218.421875 567.445312,221.703125 C561.085937,224.984375 553.78125,226.625 545.53125,226.625 C536.375,226.625 528.328125,224.640625 521.390625,220.671875 C514.453125,216.703125 509.046875,211.039062 505.171875,203.679688 C501.296875,196.320312 499.359375,187.578125 499.359375,177.453125 C499.359375,169.578125 500.53125,162.585938 502.875,156.476562 C505.21875,150.367188 508.492187,145.1875 512.695312,140.9375 C516.898437,136.6875 521.773437,133.46875 527.320312,131.28125 C532.867187,129.09375 538.84375,128 545.25,128 Z M39.65625,129.3125 L40.3487659,129.316866 C47.2434395,129.404177 53.2235383,130.801159 58.2890625,133.507812 C63.5234375,136.304688 67.5625,140.195312 70.40625,145.179688 C73.25,150.164062 74.671875,155.953125 74.671875,162.546875 C74.671875,169.171875 73.2265625,174.960938 70.3359375,179.914062 C67.4453125,184.867188 63.328125,188.703125 57.984375,191.421875 L57.984375,191.421875 L57.4641162,191.680736 C52.2303102,194.226912 46.0599798,195.5 38.953125,195.5 L38.953125,195.5 L23.2025625,195.5005 L23.203125,225.3125 L0,225.3125 L0,129.3125 L39.65625,129.3125 Z M1023.5625,129.3125 L1043.85937,169.484375 L1044.70312,169.484375 L1065,129.3125 L1090.92187,129.3125 L1055.8125,193.25 L1055.8125,225.3125 L1032.75,225.3125 L1032.75,193.25 L997.640625,129.3125 L1023.5625,129.3125 Z M921.54375,129.3125 L921.54375,167.84375 L959.371875,167.84375 L959.371875,129.3125 L982.528125,129.3125 L982.528125,225.3125 L959.371875,225.3125 L959.371875,186.734375 L921.54375,186.734375 L921.54375,225.3125 L898.340625,225.3125 L898.340625,129.3125 L921.54375,129.3125 Z M846.571875,129.3125 L847.264391,129.316866 C854.159064,129.404177 860.139163,130.801159 865.204687,133.507812 C870.439062,136.304688 874.478125,140.195312 877.321875,145.179688 C880.165625,150.164062 881.5875,155.953125 881.5875,162.546875 C881.5875,169.171875 880.142187,174.960938 877.251562,179.914062 C874.360937,184.867188 870.24375,188.703125 864.9,191.421875 L864.9,191.421875 L864.379741,191.680736 C859.145935,194.226912 852.975605,195.5 845.86875,195.5 L845.86875,195.5 L830.118562,195.5005 L830.11875,225.3125 L806.915625,225.3125 L806.915625,129.3125 L846.571875,129.3125 Z M758.803125,129.3125 L791.19375,225.3125 L766.25625,225.3125 L759.927562,205.1565 L726.773562,205.1565 L720.459375,225.3125 L695.521875,225.3125 L727.9125,129.3125 L758.803125,129.3125 Z M646.6125,129.3125 L647.327995,129.316797 C654.212977,129.39987 660.185417,130.6875 665.245312,133.179688 C670.479687,135.757812 674.51875,139.445312 677.3625,144.242188 C680.20625,149.039062 681.628125,154.71875 681.628125,161.28125 C681.628125,167.9375 680.175,173.585938 677.26875,178.226562 L677.26875,178.226562 L676.974062,178.686927 C674.185729,182.949149 670.335729,186.244983 665.424062,188.574427 L665.424062,188.574427 L664.998562,188.7715 L684.909375,225.3125 L659.596875,225.3125 L642.043562,192.4535 L630.158562,192.4535 L630.159375,225.3125 L606.95625,225.3125 L606.95625,129.3125 L646.6125,129.3125 Z M114.628125,129.3125 L114.628125,167.84375 L152.45625,167.84375 L152.45625,129.3125 L175.6125,129.3125 L175.6125,225.3125 L152.45625,225.3125 L152.45625,186.734375 L114.628125,186.734375 L114.628125,225.3125 L91.425,225.3125 L91.425,129.3125 L114.628125,129.3125 Z M378.571875,129.3125 L378.571875,148.15625 L349.4625,148.15625 L349.4625,225.3125 L326.5875,225.3125 L326.5875,148.15625 L297.43125,148.15625 L297.43125,129.3125 L378.571875,129.3125 Z M240.271875,148.34375 C235.678125,148.34375 231.725,149.453125 228.4125,151.671875 C225.1,153.890625 222.560938,157.15625 220.795313,161.46875 C219.029688,165.78125 218.146875,171.0625 218.146875,177.3125 C218.146875,183.5625 219.029688,188.84375 220.795313,193.15625 C222.560938,197.46875 225.1,200.734375 228.4125,202.953125 C231.725,205.171875 235.678125,206.28125 240.271875,206.28125 C244.896875,206.28125 248.857813,205.171875 252.154688,202.953125 C255.451563,200.734375 257.982813,197.46875 259.748438,193.15625 C261.514063,188.84375 262.396875,183.5625 262.396875,177.3125 C262.396875,171.0625 261.514063,165.78125 259.748438,161.46875 C257.982813,157.15625 255.451563,153.890625 252.154688,151.671875 C248.857813,149.453125 244.896875,148.34375 240.271875,148.34375 Z M435.684375,148.34375 C431.090625,148.34375 427.1375,149.453125 423.825,151.671875 C420.5125,153.890625 417.973437,157.15625 416.207812,161.46875 C414.442187,165.78125 413.559375,171.0625 413.559375,177.3125 C413.559375,183.5625 414.442187,188.84375 416.207812,193.15625 C417.973437,197.46875 420.5125,200.734375 423.825,202.953125 C427.1375,205.171875 431.090625,206.28125 435.684375,206.28125 C440.309375,206.28125 444.270312,205.171875 447.567187,202.953125 C450.864062,200.734375 453.395312,197.46875 455.160937,193.15625 C456.926562,188.84375 457.809375,183.5625 457.809375,177.3125 C457.809375,171.0625 456.926562,165.78125 455.160937,161.46875 C453.395312,157.15625 450.864062,153.890625 447.567187,151.671875 C444.270312,149.453125 440.309375,148.34375 435.684375,148.34375 Z M743.709375,153.5 L742.959375,153.5 L732.295562,187.5315 L754.393562,187.5315 L743.709375,153.5 Z M841.55625,148.015625 L830.118562,148.015625 L830.118562,177.2195 L841.55625,177.21875 L842.076973,177.21418 C845.347793,177.156289 848.103906,176.548438 850.345312,175.390625 C852.704687,174.171875 854.49375,172.460938 855.7125,170.257812 C856.93125,168.054688 857.540625,165.484375 857.540625,162.546875 C857.540625,159.578125 856.93125,157.007812 855.7125,154.835938 C854.49375,152.664062 852.696875,150.984375 850.321875,149.796875 C847.946875,148.609375 845.025,148.015625 841.55625,148.015625 L841.55625,148.015625 Z M34.640625,148.015625 L23.203125,148.015625 L23.2025625,177.2195 L34.640625,177.21875 L35.1613477,177.21418 C38.432168,177.156289 41.1882813,176.548438 43.4296875,175.390625 C45.7890625,174.171875 47.578125,172.460938 48.796875,170.257812 C50.015625,168.054688 50.625,165.484375 50.625,162.546875 C50.625,159.578125 50.015625,157.007812 48.796875,154.835938 C47.578125,152.664062 45.78125,150.984375 43.40625,149.796875 C41.03125,148.609375 38.109375,148.015625 34.640625,148.015625 L34.640625,148.015625 Z M641.596875,148.015625 L630.159375,148.015625 L630.158562,174.1725 L641.596875,174.171875 L642.174928,174.167607 C645.420636,174.119237 648.157639,173.659722 650.385937,172.789062 C652.745312,171.867188 654.534375,170.460938 655.753125,168.570312 C656.971875,166.679688 657.58125,164.25 657.58125,161.28125 C657.58125,158.3125 656.971875,155.851562 655.753125,153.898438 C654.534375,151.945312 652.7375,150.476562 650.3625,149.492188 C647.9875,148.507812 645.065625,148.015625 641.596875,148.015625 L641.596875,148.015625 Z M215.41875,0 C220.98125,0 226.160937,0.796875 230.957812,2.390625 C235.754687,3.984375 240.004687,6.234375 243.707812,9.140625 C247.410937,12.046875 250.41875,15.5 252.73125,19.5 C255.04375,23.5 256.48125,27.890625 257.04375,32.671875 L257.04375,32.671875 L233.559375,32.671875 L233.421354,32.1844076 C232.896181,30.4143338 232.160937,28.8346354 231.215625,27.4453125 C230.184375,25.9296875 228.91875,24.640625 227.41875,23.578125 C225.91875,22.515625 224.2,21.7109375 222.2625,21.1640625 C220.325,20.6171875 218.2,20.34375 215.8875,20.34375 C211.23125,20.34375 207.207812,21.46875 203.817187,23.71875 C200.426562,25.96875 197.809375,29.2421875 195.965625,33.5390625 C194.121875,37.8359375 193.2,43.046875 193.2,49.171875 C193.2,55.328125 194.090625,60.578125 195.871875,64.921875 C197.653125,69.265625 200.23125,72.578125 203.60625,74.859375 C206.98125,77.140625 211.075,78.28125 215.8875,78.28125 C220.1375,78.28125 223.739062,77.5859375 226.692187,76.1953125 C229.645312,74.8046875 231.8875,72.828125 233.41875,70.265625 L233.41875,70.265625 L233.632292,69.8964711 C234.882292,67.6630527 235.569792,65.0967262 235.694792,62.1974915 L235.694792,62.1974915 L235.708562,61.7345 L216.684375,61.734375 L216.684375,44.8125 L258.075,44.8125 L258.075,57.515625 L258.070786,58.2289135 C257.972467,66.5172767 256.153559,73.6388889 252.614062,79.59375 C248.973437,85.71875 243.973437,90.421875 237.614062,93.703125 C231.254687,96.984375 223.95,98.625 215.7,98.625 C206.54375,98.625 198.496875,96.640625 191.559375,92.671875 C184.621875,88.703125 179.215625,83.0390625 175.340625,75.6796875 C171.465625,68.3203125 169.528125,59.578125 169.528125,49.453125 C169.528125,41.578125 170.7,34.5859375 173.04375,28.4765625 C175.3875,22.3671875 178.660937,17.1875 182.864062,12.9375 C187.067187,8.6875 191.942187,5.46875 197.489062,3.28125 C203.035937,1.09375 209.0125,0 215.41875,0 Z M753,0 C760.4375,0 766.898437,1.2578125 772.382812,3.7734375 C777.867187,6.2890625 782.125,9.8125 785.15625,14.34375 C788.1875,18.875 789.734375,24.125 789.796875,30.09375 L789.796875,30.09375 L767.578125,30.09375 L767.538998,29.7149241 C767.161726,26.4587942 765.791956,23.9053819 763.429687,22.0546875 C760.976562,20.1328125 757.484375,19.171875 752.953125,19.171875 C749.953125,19.171875 747.453125,19.5625 745.453125,20.34375 C743.453125,21.125 741.953125,22.1953125 740.953125,23.5546875 C739.953125,24.9140625 739.4375,26.46875 739.40625,28.21875 C739.34375,29.65625 739.632812,30.921875 740.273437,32.015625 C740.914062,33.109375 741.851562,34.0703125 743.085937,34.8984375 C744.320312,35.7265625 745.8125,36.453125 747.5625,37.078125 C749.3125,37.703125 751.28125,38.25 753.46875,38.71875 L753.46875,38.71875 L761.71875,40.59375 L762.551227,40.7793036 C766.960397,41.7879542 770.878217,43.1011029 774.304687,44.71875 C777.945312,46.4375 781.007812,48.484375 783.492187,50.859375 C785.976562,53.234375 787.859375,55.96875 789.140625,59.0625 C790.421875,62.15625 791.078125,65.625 791.109375,69.46875 C791.078125,75.53125 789.546875,80.734375 786.515625,85.078125 C783.484375,89.421875 779.132812,92.75 773.460937,95.0625 C767.789062,97.375 760.953125,98.53125 752.953125,98.53125 C744.921875,98.53125 737.921875,97.328125 731.953125,94.921875 C725.984375,92.515625 721.34375,88.859375 718.03125,83.953125 C714.71875,79.046875 713.015625,72.84375 712.921875,65.34375 L712.921875,65.34375 L735.140625,65.34375 L735.173555,65.8039453 C735.412539,68.6940234 736.229687,71.11875 737.625,73.078125 C739.09375,75.140625 741.117187,76.703125 743.695312,77.765625 C746.273437,78.828125 749.265625,79.359375 752.671875,79.359375 C755.796875,79.359375 758.460937,78.9375 760.664062,78.09375 C762.867187,77.25 764.5625,76.078125 765.75,74.578125 C766.9375,73.078125 767.546875,71.359375 767.578125,69.421875 C767.546875,67.609375 766.984375,66.0546875 765.890625,64.7578125 C764.796875,63.4609375 763.117187,62.3359375 760.851562,61.3828125 C758.585937,60.4296875 755.703125,59.546875 752.203125,58.734375 L752.203125,58.734375 L742.171875,56.390625 L741.463699,56.2243431 C733.486709,54.3070727 727.175893,51.2765625 722.53125,47.1328125 C717.75,42.8671875 715.375,37.09375 715.40625,29.8125 C715.375,23.875 716.96875,18.671875 720.1875,14.203125 C723.40625,9.734375 727.859375,6.25 733.546875,3.75 C739.234375,1.25 745.71875,0 753,0 Z M591.7125,1.3125 L591.7125,39.84375 L629.540625,39.84375 L629.540625,1.3125 L652.696875,1.3125 L652.696875,97.3125 L629.540625,97.3125 L629.540625,58.734375 L591.7125,58.734375 L591.7125,97.3125 L568.509375,97.3125 L568.509375,1.3125 L591.7125,1.3125 Z M695.79375,1.3125 L695.79375,97.3125 L672.590625,97.3125 L672.590625,1.3125 L695.79375,1.3125 Z M836.971875,1.3125 L861.346875,60.75 L862.471875,60.75 L886.846875,1.3125 L915.58125,1.3125 L915.58125,97.3125 L892.9875,97.3125 L892.9875,38.34375 L892.190625,38.34375 L869.128125,96.703125 L854.690625,96.703125 L831.628125,38.015625 L830.83125,38.015625 L830.83125,97.3125 L808.2375,97.3125 L808.2375,1.3125 L836.971875,1.3125 Z M516.740625,1.3125 L517.433141,1.31686557 C524.327814,1.40417696 530.307913,2.80115927 535.373437,5.5078125 C540.607812,8.3046875 544.646875,12.1953125 547.490625,17.1796875 C550.334375,22.1640625 551.75625,27.953125 551.75625,34.546875 C551.75625,41.171875 550.310937,46.9609375 547.420312,51.9140625 C544.529687,56.8671875 540.4125,60.703125 535.06875,63.421875 L535.06875,63.421875 L534.548491,63.6807362 C529.314685,66.2269121 523.144355,67.5 516.0375,67.5 L516.0375,67.5 L500.286562,67.5005 L500.2875,97.3125 L477.084375,97.3125 L477.084375,1.3125 L516.740625,1.3125 Z M428.971875,1.3125 L461.3625,97.3125 L436.425,97.3125 L430.096562,77.1565 L396.942562,77.1565 L390.628125,97.3125 L365.690625,97.3125 L398.08125,1.3125 L428.971875,1.3125 Z M316.78125,1.3125 L317.496745,1.31679687 C324.381727,1.39986979 330.354167,2.6875 335.414062,5.1796875 C340.648437,7.7578125 344.6875,11.4453125 347.53125,16.2421875 C350.375,21.0390625 351.796875,26.71875 351.796875,33.28125 C351.796875,39.9375 350.34375,45.5859375 347.4375,50.2265625 L347.4375,50.2265625 L347.142812,50.6869271 C344.354479,54.9491493 340.504479,58.2449826 335.592812,60.5744271 L335.592812,60.5744271 L335.167562,60.7715 L355.078125,97.3125 L329.765625,97.3125 L312.212562,64.4535 L300.327562,64.4535 L300.328125,97.3125 L277.125,97.3125 L277.125,1.3125 L316.78125,1.3125 Z M413.878125,25.5 L413.128125,25.5 L402.464562,59.5315 L424.562562,59.5315 L413.878125,25.5 Z M511.725,20.015625 L500.2875,20.015625 L500.286562,49.2195 L511.725,49.21875 L512.245723,49.2141797 C515.516543,49.1562891 518.272656,48.5484375 520.514062,47.390625 C522.873437,46.171875 524.6625,44.4609375 525.88125,42.2578125 C527.1,40.0546875 527.709375,37.484375 527.709375,34.546875 C527.709375,31.578125 527.1,29.0078125 525.88125,26.8359375 C524.6625,24.6640625 522.865625,22.984375 520.490625,21.796875 C518.115625,20.609375 515.19375,20.015625 511.725,20.015625 L511.725,20.015625 Z M311.765625,20.015625 L300.328125,20.015625 L300.327562,46.1725 L311.765625,46.171875 L312.343678,46.1676071 C315.589386,46.1192371 318.326389,45.6597222 320.554687,44.7890625 C322.914062,43.8671875 324.703125,42.4609375 325.921875,40.5703125 C327.140625,38.6796875 327.75,36.25 327.75,33.28125 C327.75,30.3125 327.140625,27.8515625 325.921875,25.8984375 C324.703125,23.9453125 322.90625,22.4765625 320.53125,21.4921875 C318.15625,20.5078125 315.234375,20.015625 311.765625,20.015625 L311.765625,20.015625 Z" id="Combined-Shape"></path>
            </g>
        </g>
    </g>
</svg>