<?xml version="1.0" encoding="UTF-8"?>
<svg width="343px" height="249px" viewBox="0 0 343 249" version="1.1" xmlns="http://www.w3.org/2000/svg" xmlns:xlink="http://www.w3.org/1999/xlink">
    <title>’’</title>
    <g id="Main" stroke="none" stroke-width="1" fill="none" fill-rule="evenodd" opacity="0.102584484">
        <g id="Project" transform="translate(-525.000000, -4788.000000)" fill="#000000" fill-rule="nonzero">
            <path d="M577.584527,5036.63915 C595.823305,5021.95338 611.69341,5004.4252 625.194842,4984.05462 C638.696275,4963.68404 649.17765,4942.4252 656.638968,4920.27812 C664.100287,4898.13103 667.830946,4876.99063 667.830946,4856.85691 L667.830946,4856.85691 L667.830946,4788.63915 L576.873926,4788.63915 L576.873926,4857.92282 C576.873926,4885.63628 571.722063,4910.98108 561.418338,4933.9572 C551.114613,4956.93332 538.975167,4978.60667 525,4998.97726 L525,4998.97726 L577.584527,5036.63915 Z M776.908309,5036.63915 C795.147087,5021.95338 811.017192,5004.4252 824.518625,4984.05462 C838.020057,4963.68404 848.501433,4942.4252 855.962751,4920.27812 C863.424069,4898.13103 867.154728,4876.99063 867.154728,4856.85691 L867.154728,4856.85691 L867.154728,4788.63915 L776.197708,4788.63915 L776.197708,4857.92282 C776.197708,4885.63628 771.045845,4910.98108 760.74212,4933.9572 C750.438395,4956.93332 738.298949,4978.60667 724.323782,4998.97726 L724.323782,4998.97726 L776.908309,5036.63915 Z" id="’’"></path>
        </g>
    </g>
</svg>