<?xml version="1.0" encoding="UTF-8"?>
<svg  viewBox="0 0 1440 81.6221721" version="1.1" xmlns="http://www.w3.org/2000/svg" xmlns:xlink="http://www.w3.org/1999/xlink">
    <title>shape</title>
    <g id="shape" stroke="none" stroke-width="1" fill="none" fill-rule="evenodd">
        <path d="M673.964298,56.2574942 C634.213619,55.9511564 556.070805,63.3781178 472.364117,63.2956477 C419.723908,63.2437851 361.663041,55.0790838 319.649393,56.2574942 C246.347134,58.3134962 127.629721,82.057608 56.1808857,81.6221721 C28.7474775,81.4549827 9.09494702e-13,81.4549827 9.09494702e-13,81.4549827 L9.09494702e-13,-2.27373675e-13 C960,-2.27373675e-13 1440,-2.27373675e-13 1440,-2.27373675e-13 C1440,-2.27373675e-13 1440,81.4549827 1440,81.4549827 C1440,81.4549827 1378.49411,66.5859187 1301.18411,63.2956477 C1157.42411,57.1763077 1168.89609,83.9703427 1024.95409,81.4549827 C860.343088,78.5782767 838.608298,57.526316 673.964298,56.2574942 Z" id="Path" fill="#FFFFFF" fill-rule="nonzero"></path>
    </g>
</svg>