<svg id="Calque_1" data-name="Calque 1" xmlns="http://www.w3.org/2000/svg" viewBox="0 0 1059.07 100"><defs><style>.cls-1{fill:#e30613;}</style></defs><g id="Calque_2" data-name="Calque 2"><g id="Calque_1-2" data-name="Calque 1-2"><path class="cls-1" d="M86.18,96.79H60V86.94h-.34c-5.66,11.83-17,12.85-24,12.85-5.67,0-19.06-1.36-27.24-11.69C1,78.9,0,72.25,0,59.45V4.1H27.72V55.37c0,6.35,0,18.55,14.86,18.55,8,0,15.88-4.19,15.88-18.89V4.08H86.18Z"/><path class="cls-1" d="M95.38,4.1h25.87V14h.48c2.83-4.5,8.5-13,25.06-13a40.06,40.06,0,0,1,23.72,8c5,4.33,10.67,11.69,10.67,29.89v58H153.47V46.17c0-6.51,0-19.19-14.53-19.19-15.85,0-15.85,13.7-15.85,19.36V96.79H95.38Z"/><path class="cls-1" d="M217.79,96.79H190V4.1h27.75Z"/><path class="cls-1" d="M281.09,96.79H254.53L221.33,4.1H250l17.7,57.79h.34L285.93,4.1h28.71Z"/><path class="cls-1" d="M401,67.72a54.57,54.57,0,0,1-18.86,23.72,44.92,44.92,0,0,1-26.38,8.49,49.17,49.17,0,0,1-49.09-49.09c0-25.9,20.35-49.76,48.58-49.76s48.95,22.36,48.95,50.59a38.7,38.7,0,0,1-.68,7.36h-69.5c1.67,11,10.84,17.52,21.71,17.52a19.84,19.84,0,0,0,17-8.69ZM376.52,40.17a21.88,21.88,0,0,0-42.07,0Z"/><path class="cls-1" d="M408.54,4.1h26V14h.34c2.35-4.5,7.19-13,23.22-13V28.82c-12.86.34-21.86,3-21.86,17v51H408.54Z"/><path class="cls-1" d="M662.11,96.79H634.37V4.1h27.74Z"/><path class="cls-1" d="M762.16,67.72a54.18,54.18,0,0,1-18.89,23.72,44.9,44.9,0,0,1-26.35,8.49A49.17,49.17,0,0,1,667.8,50.84c0-25.9,20.38-49.76,48.61-49.76s48.92,22.36,48.92,50.59a37.9,37.9,0,0,1-.68,7.36H695.2c1.65,11,10.85,17.52,21.72,17.52a19.6,19.6,0,0,0,16.84-8.69ZM737.61,40.17a21.91,21.91,0,0,0-42.09,0Z"/><path class="cls-1" d="M771.36,4.1h25.9V14h.34c2.83-4.5,8.66-13,25.2-13a40,40,0,0,1,23.66,8c5,4.33,10.68,11.69,10.68,29.89v58H829.48V46.17c0-6.51,0-19.19-14.53-19.19-15.85,0-15.85,13.7-15.85,19.36V96.79H771.36Z"/><path class="cls-1" d="M959.7,61.55a50.46,50.46,0,1,1,0-21.72H931.65a20.79,20.79,0,0,0-20.07-13c-13.2-.68-22.06,10.19-22.06,23.55s8.86,23.56,22.06,23.56a21.29,21.29,0,0,0,20-12.37Z"/><path class="cls-1" d="M1056,67.72a54.63,54.63,0,0,1-18.89,23.72,44.92,44.92,0,0,1-26.38,8.49A49.17,49.17,0,0,1,961.6,50.84c0-25.9,20.35-49.76,48.58-49.76s48.89,22.22,48.89,50.44a37.07,37.07,0,0,1-.68,7.36H988.92c1.67,11,10.87,17.53,21.71,17.53a19.83,19.83,0,0,0,17-8.69Zm-24.58-27.55a21.88,21.88,0,0,0-42.07,0Z"/><path class="cls-1" d="M600.17,61.55a21.31,21.31,0,0,1-20,12.31c-13.19,0-22-10-22-23.53s8.83-24.2,22-23.52a20.79,20.79,0,0,1,20,13h28A49,49,0,0,0,579.11.93a48.38,48.38,0,0,0-33.38,13.22,30.48,30.48,0,0,1,5.66,15.09H534.91A49.12,49.12,0,0,0,531,41.87a50.35,50.35,0,0,0-.83,8.49,49.74,49.74,0,0,0,98.15,11.33Z"/><path class="cls-1" d="M518.58,41.76c-4.13-1.08-8.21-2.35-12.37-3.37-8.21-2.18-15.29-5-15.29-10,0-2.49,1.67-6.18,8.21-6.18,9.14,0,9.51,5,9.71,7h30.41a30.23,30.23,0,0,0-5.67-15.09,29.14,29.14,0,0,0-2.21-2.64C522.71,2.29,508.81,0,499.5,0,478,0,459.35,9.63,459.35,30.55c0,13.84,11.33,20.35,24.89,24.88,19.82,6.82,27.2,7,27.2,14.16,0,4.5-5.66,7.16-10.84,7.16-1.27,0-11-.2-11.75-8.5h-30.8c2.83,24.38,24.72,30.69,42.18,30.69a49.47,49.47,0,0,0,31.43-10.13,61.82,61.82,0,0,1-13.08-47.08Z"/></g></g></svg>