<svg xmlns="http://www.w3.org/2000/svg" width="500" height="500" viewBox="0 0 500 500"><path d="M279.723196 49.4323237 280.130643.867363623 288.676164.459916674C295.594613.188285374 297.085869.459916674 297.085869 2.22280381 297.085869 4.66476919 296.950053 4.66476919 302.920509 2.22280381 305.769921 1.13627861 312.009292.188285374 317.164854.188285374 325.305644.188285374 327.204347.731547973 332.900455 4.52895354 345.110282 12.5339279 350.670575 26.9113726 347.280616 41.8347962 345.381914 50.7877638 337.512755 60.1481784 328.967234 64.0813996 322.320416 67.2024433 309.703142 67.4740746 303.19214 64.7604779L298.579841 62.7259595 298.579841 98 279.451565 98 279.723196 49.43504 279.723196 49.4323237ZM322.996778 47.2619896C331.81393 41.2942499 332.76464 27.8620822 324.759665 20.4030867 321.910253 17.68949 319.875735 17.1462274 313.364732 17.1462274 306.85373 17.1462274 304.819212 17.68949 301.969799 20.4030867 298.848756 23.3883147 298.444025 24.7437548 298.444025 33.4250912 298.444025 41.6989806 298.851472 43.464584 301.565069 45.9065494 307.532808 51.3337428 316.081045 51.874289 322.999495 47.2619896L322.996778 47.2619896ZM20.3479006 64.6273785C6.9184492 58.5238232 0 47.9410678 0 33.6967225 0 19.5881928 6.6468179 8.32907542 18.8566448 2.22280381 24.5554695-.626608524 39.3403611-.762424174 45.0391858 2.22280381 50.3305635 4.80058484 51.550188 4.80058484 51.550188 2.22280381 51.550188.459916674 53.0414438.188285374 60.0957087.459916674L68.5054137.867363623 68.9128607 33.1534599 69.184492 65.3037405 60.36734 65.3037405C53.1772595 65.3037405 51.550188 64.8962935 51.550188 63.1334064 51.550188 61.098888 51.1427411 61.2347036 47.8885981 63.269222 42.733036 66.661897 26.7258036 67.4740746 20.350617 64.6246622L20.3479006 64.6273785ZM44.9006538 47.2619896C49.5129533 44.1409459 49.5129533 44.1409459 49.5129533 33.4250912 49.5129533 22.7092364 49.5129533 22.7092364 44.9006538 19.5881928 41.7796102 17.5536743 38.2538359 16.4671492 34.3206147 16.4671492 29.1650526 16.4671492 27.4021655 17.282043 23.7405756 20.943633 8.81715198 35.8670566 27.4021655 59.0643695 44.9033701 47.2619896L44.9006538 47.2619896ZM217.728784 64.0841159C214.743556 62.7286758 210.267073 59.6076321 207.825107 57.1656668 200.363395 49.8397706 198.736324 45.4991024 198.736324 33.2892755 198.736324 23.521414 199.143771 21.6227112 202.805361 15.6549716 205.111511 11.857566 209.859626 7.10945088 213.521216 4.53166985 219.488955.598448636 220.982927.191001687 230.479158.191001687 236.854344.326817337 242.145722 1.00589559 244.18024 2.22552012 248.520909 4.80330115 249.607434 4.6674855 249.607434 2.22552012 249.607434.462632987 251.09869.191001687 258.152954.462632987L266.562659.870079936 266.970106 33.1561762 267.241738 65.3064568 258.424586 65.3064568C251.777768 65.3064568 249.607434 64.8990098 249.607434 63.407754 249.607434 61.9164982 248.520909 62.0523138 244.587687 64.0868323 237.940869 67.4795072 225.051964 67.4795072 217.728784 64.0868323L217.728784 64.0841159ZM240.51865 49.1606924C247.301284 46.5829113 249.607434 42.5138745 249.607434 33.2892755 249.607434 25.6917481 249.199987 24.3363079 245.945844 21.2152643 241.605176 17.282043 235.365805 15.7880709 228.71627 17.0104118 215.015188 19.5881928 212.301591 41.4300656 225.054681 48.3485148 229.123717 50.6546645 235.770535 50.9262958 240.51865 49.1634087L240.51865 49.1606924ZM373.598973 65.1706411C366.952155 63.2719384 357.320109 53.9115238 354.470697 46.5856276 347.959695 29.6276856 354.742328 10.9068565 370.070482 3.04041402 377.124747-.485360248 391.504908-.892807198 397.744279 2.36133577 401.541685 4.3958542 402.084947 4.3958542 403.171473 2.36133577 403.290463 2.15769198 403.52181 1.88923409 403.865512 1.55596211 406.320979.645988493 409.164499.191001687 412.396071.191001687L420.536862.191001687 420.536862 32.7487292 420.536862 65.3064568 411.855525 65.3064568C409.827321 65.3064568 406.788382 65.3064568 402.738708 65.3064568 402.735138 64.5728576 402.69921 64.1210442 402.630926 63.9510166 402.359295 63.0003071 400.460592 63.2719384 397.203733 64.6300949 391.77654 66.8004289 380.381607 67.2078759 373.598973 65.1733575L373.598973 65.1706411ZM397.61118 47.2647059C402.223479 44.1436623 402.223479 44.1436623 402.223479 33.5636231 402.223479 23.659946 401.951848 22.7119527 398.697705 20.2699873 390.016369 13.7589851 376.720017 16.3367661 372.515164 25.2897338 364.51019 42.1118601 382.283026 57.57583 397.61118 47.2674222L397.61118 47.2647059ZM81.3916026 32.7487292 81.3916026.191001687 90.2087546.191001687C97.1272038.191001687 99.0259065.598448636 99.0259065 2.22552012 99.0259065 4.6674855 100.112432 4.6674855 104.4531 2.22552012 111.914812-2.11514805 128.601122.191001687 135.927019 6.56618829 137.825721 8.32907542 138.912247 8.05744412 145.69488 4.26003855 152.070067.598448636 154.647848-.0806296123 162.10956.0551860375 175.539011.191001687 184.356163 5.61819505 189.375909 17.1489437 191.274612 21.3537962 191.95369 27.5958835 192.361137 44.0078466L192.9044 65.3064568 183.272354 65.3064568 173.640308 65.3064568 173.640308 45.4991024C173.640308 29.2202387 173.232861 25.0153861 171.334158 21.7585269 167.536753 15.3833403 156.410735 14.8400777 149.492286 20.5389023 146.371242 23.1166834 146.235426 23.7957616 146.371242 44.2794779L146.642873 65.3064568 137.010827 65.3064568 127.514597 65.3064568 127.514597 45.4991024C127.514597 29.2202387 127.10715 25.0153861 125.208447 21.7585269 121.275226 15.2475246 110.016109 14.704262 103.50239 20.8078173 100.517162 23.521414 100.381347 24.7410385 100.381347 44.5483929L100.381347 65.3037405 90.8851165 65.3037405 81.3888863 65.3037405 81.3888863 32.7460129 81.3916026 32.7487292Z" transform="translate(41.023 202)"/></svg>