<?xml version="1.0" encoding="UTF-8"?>
<svg width="500px" height="500px" viewBox="0 0 500 500" version="1.1" xmlns="http://www.w3.org/2000/svg" xmlns:xlink="http://www.w3.org/1999/xlink">
    <title>logo-white/svg/arte</title>
    <g id="arte" stroke="none" stroke-width="1" fill="none" fill-rule="evenodd">
        <g id="Arte-Logo" transform="translate(65.000000, 205.000000)" fill="#000000" fill-rule="nonzero">
            <path d="M202.877268,0.0389618293 C215.080105,0.0238100068 227.260268,0.00974045733 239.464185,0 C239.469583,5.54664931 239.473902,11.1127795 239.479301,16.6583466 C246.658266,16.6540175 253.794042,16.644277 260.979486,16.6388657 C260.987044,24.2710551 260.994601,31.9075737 261,39.5505859 C253.818876,39.5559972 246.67986,39.5657377 239.504134,39.5700668 C239.521409,56.1656415 239.537605,72.6584003 239.552721,89.2539751 C230.524219,90.0483635 219.471269,90.7172082 212.400275,88.4444348 C208.639659,87.2355359 205.456686,83.7473699 204.094097,80.1239197 C202.897783,76.9766697 202.854595,49.3570618 202.843798,39.6090286 C197.935454,39.6090286 192.927778,39.61444 188.023754,39.6241804 C188.014036,31.9811682 188.008638,24.345732 188,16.7124602 C192.902945,16.7081311 197.911701,16.7027198 202.820044,16.6973084 C202.813566,11.2188423 202.672124,5.19058148 202.877268,0.0389618293 Z" id="path7"></path>
            <path d="M48.6047807,15.2253081 C69.4417385,13.6672081 92.7791743,20.1818177 97.1916558,35.032965 C97.330691,35.7001042 97.8738983,38.6314082 97.8738983,38.6314082 C97.8738983,38.6314082 97.9902999,79.4501676 98,89.8897618 C85.8931595,89.9048995 73.77123,89.9124683 61.6708563,89.927606 C61.6633117,83.0572609 61.656845,76.1728594 61.651456,69.3068394 C51.4684747,72.3203194 29.7240159,76.7026783 43.5962801,89.94815 C34.8090398,89.9568001 11.5567495,90.0346511 7.45682777,89.9816692 C2.14223414,88.7966049 -0.994141343,81.4840233 0.285198071,74.4774391 C1.44382475,68.1033937 5.46937884,63.6291274 10.2483097,60.8492003 C21.9606782,54.023187 39.3325339,54.4027103 54.4776707,50.7750729 C56.4575751,50.2982359 58.450413,50.0787395 59.9334551,49.0666774 C60.8388006,48.4481949 61.2095612,47.5961597 61.4380531,46.2272808 C62.4479445,40.0630004 56.2786616,38.2367472 50.5103174,38.3005417 C48.784772,38.3156794 46.3942288,38.5881577 44.862686,39.0649947 C43.7945938,39.3861298 42.3093961,40.0867882 41.4751849,40.7690651 C39.7226947,42.1811946 38.6546025,44.1923438 38.6599915,47.3907197 C26.9939681,47.4015324 15.3074666,47.4145075 3.64467655,47.4253202 C4.06178215,44.2983076 4.60067828,41.7184141 5.52003508,39.2888161 C7.18091295,34.8967258 9.3882315,31.4345217 12.2864149,28.3096716 C20.2545331,19.710387 33.1675621,16.3746907 48.6047807,15.2253081 Z" id="path9"></path>
            <path d="M169.574714,15.0524083 C173.59735,14.7528402 177.12839,15.7931586 179.977261,16.7583127 C179.984841,24.4414186 179.99242,32.1277924 180,39.8152556 C173.46633,39.8250596 166.391255,39.417647 161.845622,41.3599379 C159.102867,42.5222622 156.350366,45.2358049 155.23399,48.0419414 C153.800351,51.6127937 154.298443,57.4211476 154.302774,62.3318864 C154.312519,71.5291731 154.320099,80.7580505 154.33201,89.9662305 C141.912189,89.9749452 129.483706,89.9891066 117.073631,90 C117.049809,65.6042599 117.024905,41.2183238 117,16.8225837 C128.346757,16.807333 140.020522,16.7986183 151.377024,16.7833675 C151.381355,19.653775 151.168042,23.2834515 151.427916,25.555812 C155.117047,19.6134695 160.639373,15.7190836 169.574714,15.0524083 Z" id="path11"></path>
            <g id="g15" transform="translate(267.000000, 16.000000)">
                <path d="M97.8473546,25.5474263 C94.2893578,17.6408854 88.3069235,10.9606651 80.8881447,6.93532136 C72.3498145,2.29896878 60.2556425,-0.834603157 46.4428138,0.197012184 C21.7900555,2.0182059 4.90950508,13.3584446 0.745937697,35.8076423 C-0.8164776,44.20256 0.197476051,53.909856 2.65316189,60.6481652 C3.68974362,63.5009742 8.40392771,73.2437689 10.5729912,74 C13.7075195,73.8300363 30.7604743,73.9784856 37.4853253,73.9752584 C37.4777826,67.9436972 37.4702399,61.9325747 37.4648522,55.906392 C58.7837396,55.8870291 80.1274101,55.8676661 101.45384,55.8429246 C102.92251,44.8813392 101.332079,33.3076693 97.8473546,25.5474263 Z M36.3140525,36.9027251 C36.5661941,33.6325367 36.9734996,31.312209 38.1867958,29.1855108 C40.0821672,25.8389464 43.4569843,23.5272244 48.158238,23.0431505 C59.7362741,21.8372685 64.9676716,27.2524423 66.0495095,36.8726049 C56.1405639,36.8779835 46.2176105,36.8930436 36.3140525,36.9027251 Z" id="path17"></path>
            </g>
        </g>
    </g>
</svg>