<svg xmlns="http://www.w3.org/2000/svg" width="500" height="500" viewBox="0 0 500 500"><path d="M25.9606758 83.0795174C-7.58817339 69.8121808-8.96044572 19.1848065 23.8243321 3.02011092 32.3635946-1.24952034 50.5118197-.943891764 57.8316241 3.63136808 63.4735277 6.98716989 63.4735277 6.98716989 64.2375992 3.93699666 64.9986143 1.03963772 66.0683144.73400914 75.5214064 1.19245201L85.8913841 1.65089488 85.8913841 42.8251772 85.8913841 83.9994595 75.5214064 84.4579023C66.2180724 84.9163452 64.9986143 84.6107166 64.2375992 81.866172 63.476584 78.968813 63.476584 78.968813 58.290067 82.0189863 50.3590054 86.5942461 36.025025 87.202447 25.9606758 83.08563L25.9606758 83.0795174ZM52.6481634 63.2564477C61.9514974 59.7478316 63.7791563 56.3950861 63.7791563 42.6693066L63.7791563 30.0132271 58.4428813 25.8964101C51.5815197 20.7129494 40.4474705 19.3376208 33.7389232 22.8462369 18.9464999 30.47167 18.9464999 56.2422718 33.7389232 62.6482469 39.6864554 65.2399772 46.8534456 65.5456058 52.6481634 63.259504L52.6481634 63.2564477ZM208.191717 83.6877183C174.03161 72.2510968 170.52605 20.7068368 202.702627 3.78112608 211.547518-.79413376 228.017843-1.25257663 236.404291 3.02011092 249.977256 9.72865825 258.974961 24.2154529 259.430348 40.2273342L259.735977 47.3943244 231.22083 47.8527673C212.005961 48.1583959 202.552869 48.7665968 202.552869 49.8362968 202.552869 54.7171852 208.041959 62.339562 213.683862 65.2369209 221.614924 69.2009236 230.915202 68.2870942 239.454464 62.6451906L245.707625 58.5283736 251.960786 64.9343486 258.213946 71.1875094 252.1136 76.3709701C241.437994 85.5214898 222.987196 88.571663 208.194773 83.6907746L208.191717 83.6877183ZM236.098662 29.5517279C236.098662 28.4850842 234.420761 25.5877253 232.590046 23.1457529 229.387059 19.3345645 227.861972 18.5704931 221.153425 18.5704931 214.594635 18.4176788 212.766976 19.0289359 208.799917 22.8401243 200.868856 30.4655574 202.09137 31.3793869 220.083725 31.3793869 231.825975 31.3793869 236.095606 30.920944 236.095606 29.5486717L236.098662 29.5517279ZM293.43764 83.534904C276.661687 77.4345576 265.072252 61.4226763 265.072252 44.3441512 265.072252 26.3487404 273.4587 12.1675743 288.556752 4.38932696 295.115541.880710858 298.162658.272509984 309.296707.272509984 319.666685.272509984 323.477873.883767144 328.511576 3.4754975 335.83138 7.28668589 344.676272 14.4536761 344.065014 15.9787627 343.759386 16.5900199 340.40664 19.9427654 336.286767 23.6041958L328.966963 30.3127431 325.611161 27.2625699C320.274886 22.3816815 316.155012 20.7037806 308.988022 20.7037806 301.515404 20.7037806 295.112485 24.2123967 290.839797 30.7681297 287.028609 36.7156619 287.028609 48.9163548 290.839797 55.1664592 297.548345 66.1446378 315.69657 68.1281673 325.149662 58.9776476L330.183364 54.0967592 338.722627 60.8053065 347.414704 67.5138539 341.7728 73.3085717C338.875441 76.358745 333.080723 80.3227476 329.269535 82.0006485 319.510814 86.4230941 303.04049 87.0343513 293.434584 83.5257352L293.43764 83.534904ZM111.661986 44.9554084C101.750451 23.1488092 93.3640029 4.23956895 93.0583743 3.02011092 92.5999314 1.34221001 94.8890895.883767144 103.886795.883767144L115.323416.883767144 120.659691 13.5398466C123.709865 20.4012083 128.740511 31.6880717 131.943498 38.7022476L137.891031 51.3583271 149.174838 26.0431118 160.611459.880710858 171.895266.880710858C181.806801.880710858 183.026259 1.18633944 182.418058 3.62525551 181.959616 4.99752783 173.420353 23.9067681 163.508818 45.560553L145.513407 84.7513058 137.73516 84.7513058 129.956913 84.7513058 111.65893 44.9492958 111.661986 44.9554084Z" transform="translate(76.293 207)"/></svg>