<svg xmlns="http://www.w3.org/2000/svg" width="500" height="500" viewBox="0 0 500 500"><g transform="translate(32 214.601)"><path d="M174.178841 69.0136303C170.044434 67.9487073 167.350805 62.8120199 168.102516 57.3621199 168.666298 53.6662107 170.357647 51.2231521 173.113918 49.907659 178.751745 47.2140302 185.329211 50.9725819 185.329211 56.7983371L185.329211 59.5546084 179.315528 59.5546084C174.053556 59.5546084 173.364488 59.6798935 173.677701 60.5568889 173.865628 61.1206716 174.053556 62.0603095 174.053556 62.7493774 174.053556 66.0694314 180.129881 67.8234222 182.510297 65.192436 183.199365 64.3780831 183.888433 64.127513 184.264288 64.5033682 185.015998 65.2550785 184.264288 67.5728521 182.948795 68.2619199 181.257447 69.1389153 176.433972 69.577413 174.178841 69.0136303ZM180.067239 55.7960567C179.879311 55.1069888 179.566098 53.9794233 179.378171 53.352998 178.689103 50.9099394 175.118479 50.9725819 174.429411 53.4782831 173.552416 56.6730521 173.865628 57.0489072 177.248325 57.0489072 180.129881 57.0489072 180.380451 56.9236222 180.067239 55.7960567L180.067239 55.7960567ZM192.031962 68.9509877C189.463618 68.1992774 188.461337 67.1343544 188.461337 65.3177211 188.461337 63.9395854 189.902116 62.1229521 191.092324 62.0603095 191.280251 62.0603095 191.656106 62.937305 191.906677 63.9395854 192.345174 66.0067889 193.785952 67.0717119 196.166368 67.0717119 199.298495 67.0717119 200.112848 63.6263728 197.231291 62.3108797 191.154966 59.4919659 189.52626 58.4896854 189.02512 57.1115498 188.148125 54.9190613 188.899835 52.4760026 190.841754 50.7846544 193.096885 48.7800934 199.549065 48.5921658 201.553626 50.4087992 203.307617 52.0375049 202.994404 54.0420659 200.989843 54.5432061 199.67435 54.8564187 199.298495 54.6058486 198.67207 53.1024279 197.983002 51.5990072 197.544504 51.3484371 195.915798 51.5363647 194.788233 51.6616498 193.598025 52.2254325 193.22217 52.8518578 192.658387 53.7914957 192.846314 54.2299934 194.036523 55.2322739 194.913518 55.9213417 196.416939 56.6730521 197.419219 56.8609797 200.112848 57.4247624 203.495544 60.8701015 203.495544 63.1252325 203.495544 67.7607797 197.732432 70.642336 192.031962 68.9509877ZM212.641354 68.9509877C208.820159 67.7607797 206.627671 64.1901555 206.627671 59.2413958 206.627671 52.7265727 210.07301 49.2185911 216.399905 49.2185911 219.156177 49.2185911 220.47167 49.5318038 221.286023 50.3461567 221.912448 50.9099394 222.601516 51.4110796 222.789443 51.4110796 223.791724 51.4110796 225.420429 56.6104095 225.420429 59.6172509 225.420429 63.2505176 224.167579 66.257359 222.037733 67.8234222 220.283742 69.1389153 215.147055 69.7653406 212.641354 68.9509877ZM218.153896 66.257359C219.030892 65.6309337 219.406747 64.3154406 219.594674 60.9953866 220.095815 54.0420659 218.341824 50.5967268 214.896485 51.7242923 212.578711 52.4133601 211.388503 60.6821739 213.017209 64.3780831 214.270059 67.1969969 216.02405 67.8234222 218.153896 66.257359L218.153896 66.257359ZM234.253026 68.9509877C231.496755 67.7607797 231.1209 66.5705716 231.058257 59.742536 231.058257 54.1673509 230.870329 53.1024279 229.805406 52.0375049 227.800846 50.032944 228.301986 49.5318038 232.311108 49.5318038L236.069659 49.5318038 236.069659 56.422482C236.069659 63.8143004 236.884012 66.4452866 239.201786 66.4452866 241.331632 66.4452866 242.333912 63.7516578 242.333912 57.7379751 242.333912 52.6639302 242.208627 52.1001475 241.081062 51.7242923 240.391994 51.5363647 239.828211 50.9099394 239.828211 50.4087992 239.828211 49.7197314 240.767849 49.5318038 243.899975 49.5318038L247.97174 49.5318038 247.97174 57.9259026C247.97174 65.8188613 248.034382 66.382644 249.22459 66.7584992 249.913658 66.9464268 250.477441 67.5728521 250.477441 68.0739923 250.477441 68.7004176 249.600446 68.9509877 246.969459 68.9509877 243.962618 68.9509877 243.398835 68.7630601 243.148265 67.6354946L242.77241 66.382644 241.394274 67.6981371C239.765569 69.2642004 236.382872 69.8279831 234.253026 68.9509877L234.253026 68.9509877ZM278.228081 68.9509877C275.785023 68.387205 274.532172 67.1969969 273.341964 64.3154406 271.400046 59.6798935 272.715539 52.9145003 276.035593 50.4714417 277.288443 49.5318038 278.729222 49.2185911 281.610778 49.2185911 285.056117 49.2185911 285.745185 49.4065187 287.248605 50.9099394 288.814669 52.4760026 288.877311 52.7265727 288.062958 54.2299934 287.499176 55.2949164 286.684823 55.7960567 285.557257 55.7960567 284.241764 55.7960567 283.803266 55.357559 283.364769 53.7914957 282.425131 50.7220118 280.17 50.5967268 278.979792 53.5409256 277.789584 56.422482 277.789584 62.2482371 278.979792 64.5660107 279.794145 66.1320739 280.357927 66.4452866 282.362488 66.4452866 283.803266 66.4452866 285.36933 65.9441463 286.37161 65.192436 288.250886 63.6890153 289.002596 64.4407256 288.000316 66.6332142 287.499176 67.7607797 286.496895 68.387205 284.554977 68.8883452 281.548135 69.6400555 281.109638 69.6400555 278.228081 68.9509877L278.228081 68.9509877ZM297.835193 68.9509877C293.262288 67.5102096 291.257727 63.3131601 292.134723 56.7356946 292.510578 53.6035682 293.074361 52.6012877 296.018559 50.1582291 297.584623 48.842736 303.598305 48.968021 305.728151 50.3461567 307.732712 51.7242923 309.361418 54.9817038 309.361418 57.61269L309.361418 59.5546084 303.410378 59.5546084 297.459338 59.5546084 297.459338 61.1833141C297.459338 62.937305 298.461618 65.2550785 299.589184 65.9441463 301.029962 66.9464268 304.976441 66.4452866 306.041364 65.192436 307.482142 63.5010877 308.108568 63.6263728 308.108568 65.5056486 308.108568 66.4452866 307.544785 67.447567 306.667789 68.0113498 304.788514 69.2015578 300.215609 69.7026981 297.835193 68.9509877L297.835193 68.9509877ZM303.723591 55.7960567C303.723591 54.1047084 301.9696 51.4110796 300.842034 51.4110796 299.526541 51.4110796 297.459338 53.9794233 297.459338 55.6081291 297.459338 56.9236222 297.709908 57.0489072 300.591464 57.0489072 303.347735 57.0489072 303.723591 56.8609797 303.723591 55.7960567ZM330.910448 68.8883452C325.209978 67.5728521 322.077851 61.9350245 322.641634 54.292636 323.080132 49.0933061 325.460548 45.2721118 329.093815 43.8939762 331.223661 43.0796233 338.866049 43.0796233 340.933253 43.8939762 344.065379 45.0841842 343.689524 48.7800934 340.306827 49.7823739 339.179262 50.0955865 338.803407 49.8450164 338.302266 48.2789532 336.861488 44.3324739 331.912729 44.3324739 329.845525 48.3415957 328.96853 50.032944 328.780602 51.6616498 328.905887 56.6104095 329.093815 62.6867348 329.093815 62.8120199 331.161018 64.6286532 333.854647 67.0717119 337.863769 67.1969969 340.557398 64.8792233 341.62232 64.0022279 342.624601 63.3131601 342.875171 63.3131601 343.877452 63.3131601 342.687243 66.7584992 341.309108 67.7607797 339.367189 69.1389153 334.355787 69.7026981 330.910448 68.8883452L330.910448 68.8883452ZM352.584763 68.9509877C346.195225 67.3849245 344.065379 56.7983371 349.139424 51.7869348 352.772691 48.1536681 358.097306 48.1536681 361.730572 51.8495773 363.547206 53.6035682 363.860418 54.417921 363.860418 56.7356946L363.860418 59.5546084 357.846735 59.5546084 351.833053 59.5546084 352.146265 61.4338843C352.897976 64.9418659 354.338754 66.4452866 357.032383 66.4452866 358.661088 66.4452866 359.913939 66.0067889 360.790934 65.1297935 361.730572 64.1901555 362.294355 64.0022279 362.795495 64.5033682 363.547206 65.2550785 362.356998 68.0739923 361.041504 68.5751326 359.287514 69.2642004 354.651966 69.452128 352.584763 68.9509877ZM358.598446 56.0466268C358.410518 55.482844 358.034663 54.3552785 357.846735 53.5409256 357.032383 50.2208716 353.273831 51.4110796 352.334193 55.357559L351.958338 57.0489072 355.466319 57.0489072C358.410518 57.0489072 358.911658 56.8609797 358.598446 56.0466268ZM396.309248 68.8883452C393.991475 68.0113498 393.302407 65.5056486 393.302407 58.2391153 393.302407 52.4760026 393.239764 52.0375049 392.049556 52.0375049 390.044995 52.0375049 390.608778 50.4714417 392.989194 49.3438762 394.304687 48.7174509 395.306968 47.7151704 395.557538 46.71289 395.808108 45.5853245 396.371891 45.1468268 397.436814 45.1468268 398.752307 45.1468268 398.940234 45.4600394 398.940234 47.3393153 398.940234 49.4691612 399.002877 49.5318038 401.445936 49.5318038 403.513139 49.5318038 403.951637 49.7197314 403.951637 50.7846544 403.951637 51.8495773 403.513139 52.0375049 401.445936 52.0375049L398.940234 52.0375049 398.940234 58.0511877C398.940234 65.0045084 399.504017 66.4452866 402.072361 66.4452866 403.513139 66.4452866 403.951637 66.7584992 403.951637 67.6354946 403.951637 69.3268429 399.56666 70.0785532 396.309248 68.8883452ZM412.721591 68.9509877C406.394695 67.3849245 404.264849 57.1741923 409.213609 51.7869348 414.350297 46.1491072 423.997246 49.6570888 423.997246 57.2368348L423.997246 59.5546084 417.983563 59.5546084 411.96988 59.5546084 412.345736 61.5591693C413.034803 65.0671509 414.350297 66.4452866 417.043925 66.4452866 418.484703 66.4452866 420.050767 65.9441463 421.053047 65.192436 421.930042 64.5033682 422.807038 64.1901555 422.994965 64.5033682 423.558748 65.3803636 422.36854 68.0739923 421.303617 68.51249 419.424341 69.2015578 414.851437 69.452128 412.721591 68.9509877L412.721591 68.9509877ZM418.359418 55.9839843C418.359418 53.7914957 417.607708 52.1001475 416.480142 51.7242923 414.914079 51.2231521 413.473301 51.9748624 413.034803 53.4782831 411.907238 57.2994774 411.781953 57.0489072 415.164649 57.0489072 417.795636 57.0489072 418.359418 56.8609797 418.359418 55.9839843ZM58.5407326 68.4498475C57.1625969 68.2619199 54.4689682 66.0694314 48.3300004 59.9931061 43.7570958 55.482844 39.998544 51.5990072 39.998544 51.3484371 39.998544 51.0352245 40.8128969 50.032944 41.7525348 49.0306635L43.5065257 47.2140302 51.0236291 54.6684911C59.7309406 63.4384452 60.2320809 63.7516578 62.1739993 62.4361647 65.2434832 60.4942463 64.4917728 58.3017578 59.1671579 53.1650705L57.4131671 51.4110796 59.2924429 49.2812337 61.1717188 47.1513877 64.9302705 51.0352245C70.2548855 56.4851245 71.1318809 60.3063187 68.1250395 64.6286532 65.9951935 67.6981371 62.612497 69.0136303 58.5407326 68.4498475L58.5407326 68.4498475ZM141.479441 68.0113498C141.479441 67.447567 142.043224 67.0717119 143.045504 67.0717119L144.611567 67.0717119 144.611567 56.422482 144.611567 45.773252 143.045504 45.1468268C142.168509 44.8336141 141.479441 44.2698314 141.479441 43.8939762 141.479441 43.0169808 156.263078 43.1422658 159.019349 44.0819038 161.77562 45.0841842 163.654896 48.1536681 163.153756 50.9725819 162.777901 52.9145003 160.460127 56.0466268 158.956706 56.547767 157.954426 56.8609797 163.466968 65.9441463 165.220959 66.7584992 165.910027 67.0717119 166.536452 67.7607797 166.536452 68.2619199 166.536452 68.8883452 165.722099 69.0136303 163.028471 68.8257027 159.144634 68.51249 158.330281 67.8234222 155.761937 62.6867348 153.820019 58.7402555 152.880381 57.7379751 151.439603 58.1138302 150.437322 58.4270429 150.249395 58.9908256 150.249395 61.997667 150.249395 65.6935762 150.938463 67.0717119 152.880381 67.0717119 153.506806 67.0717119 154.007947 67.5102096 154.007947 68.0113498 154.007947 68.7630601 152.880381 68.9509877 147.743694 68.9509877 142.607006 68.9509877 141.479441 68.7630601 141.479441 68.0113498L141.479441 68.0113498ZM155.699295 54.417921C156.764218 53.4156406 157.140073 52.4133601 157.140073 50.5340842 157.07743 46.9634601 156.012507 45.773252 152.817739 45.773252L150.249395 45.773252 150.249395 50.7846544 150.249395 55.7960567 152.253956 55.7960567C153.444164 55.7960567 154.822299 55.2322739 155.699295 54.417921L155.699295 54.417921ZM252.356717 68.1366348C252.356717 67.6981371 252.983142 67.0717119 253.797495 66.7584992 255.050346 66.1947165 255.175631 65.6935762 255.363558 60.0557486 255.551486 53.7914957 254.987703 51.4110796 253.296355 51.4110796 252.795215 51.4110796 252.356717 50.9725819 252.356717 50.4714417 252.356717 49.7197314 253.17107 49.5318038 256.052626 49.5318038 259.37268 49.5318038 259.811178 49.7197314 260.249676 50.9099394L260.688173 52.288075 261.878381 50.7220118C262.880662 49.5318038 263.757657 49.2185911 265.887503 49.2185911 268.831702 49.2185911 269.896625 50.032944 269.896625 52.4133601 269.896625 53.8541383 268.079992 55.7960567 266.701856 55.7960567 266.200716 55.7960567 265.511648 55.1696314 265.198435 54.417921 263.632372 50.9099394 261.377241 53.1024279 260.813458 58.677613 260.249676 63.7516578 260.938743 66.6958567 262.880662 66.9464268 263.632372 67.0717119 264.258797 67.5728521 264.258797 68.0739923 264.258797 68.7630601 263.068589 68.9509877 258.307757 68.9509877 253.92278 68.9509877 252.356717 68.7630601 252.356717 68.1366348ZM366.366119 68.0739923C366.366119 67.6354946 366.929902 67.0717119 367.61897 66.8837843 368.809178 66.5705716 368.871821 66.0067889 368.871821 59.2413958 368.871821 52.4760026 368.809178 51.9122199 367.61897 51.5990072 366.929902 51.4110796 366.366119 50.8472969 366.366119 50.4087992 366.366119 49.0306635 373.194155 49.2185911 374.259078 50.6593693 375.073431 51.6616498 375.198716 51.6616498 376.075711 50.4714417 377.51649 48.5921658 382.465249 48.7174509 384.532453 50.6593693 385.973231 51.9748624 386.098516 52.6012877 386.286444 58.9908256 386.474371 64.9418659 386.662299 66.0067889 387.727222 66.6332142 390.107638 68.1366348 389.105357 68.9509877 384.845665 68.9509877L380.773901 68.9509877 380.773901 61.5591693C380.773901 55.1069888 380.585973 53.9794233 379.646336 53.1024279 376.639494 50.3461567 375.136073 52.9145003 375.136073 60.8701015 375.136073 66.0067889 375.261358 66.5705716 376.388924 66.8837843 377.077992 67.0717119 377.641775 67.6354946 377.641775 68.0739923 377.641775 68.7630601 376.388924 68.9509877 372.003947 68.9509877 367.61897 68.9509877 366.366119 68.7630601 366.366119 68.0739923L366.366119 68.0739923ZM426.502947 68.1366348C426.502947 67.6354946 427.06673 67.0717119 427.755798 66.8837843 428.946006 66.5705716 429.008648 66.0067889 429.008648 59.2413958 429.008648 52.4760026 428.946006 51.9122199 427.755798 51.5990072 427.06673 51.4110796 426.502947 50.8472969 426.502947 50.4087992 426.502947 49.7823739 427.442585 49.5318038 430.198856 49.5318038 433.456268 49.5318038 433.894766 49.6570888 434.207978 50.9099394L434.583833 52.288075 435.899326 50.7846544C437.402747 49.0306635 442.414149 48.5921658 443.41643 50.1582291 444.41871 51.7869348 444.105498 53.7914957 442.66472 54.7937762 440.910729 56.0466268 439.657878 56.0466268 439.657878 54.9190613 439.657878 53.2903555 438.029172 52.4760026 436.525752 53.4156406 435.335544 54.1673509 435.272901 54.7311337 435.398186 60.4942463 435.586114 66.382644 435.648756 66.6958567 437.026892 67.0717119 440.284303 67.8234222 438.091815 68.6377751 432.453987 68.8257027 427.630513 68.9509877 426.502947 68.8257027 426.502947 68.1366348Z"/><path d="M28.6602463 66.8211417C25.4654773 64.6286532 24.3379118 62.6240923 24.3379118 59.0534682 24.3379118 55.2949164 24.9643371 54.4805636 34.2354314 45.2721118 40.4996843 39.133144 41.4393222 38.3814336 42.5042452 39.0078589 43.1306705 39.4463566 44.0076659 40.3859946 44.4461636 41.1377049 45.1352314 42.453198 44.6967337 43.0796233 37.9939831 49.6570888 29.4745992 57.9885452 28.9108164 58.8655406 30.4768797 60.807459 32.418798 63.1878751 34.6739291 62.6240923 38.3698383 58.9908256L41.6272498 55.7334141 43.3185981 57.4247624C44.258236 58.3644003 45.0099463 59.4293233 45.0099463 59.8051785 45.0099463 60.807459 39.3721187 66.0694314 37.0543452 67.2596394 34.2354314 68.7630601 31.2912325 68.5751326 28.6602463 66.8211417L28.6602463 66.8211417ZM67.0601165 43.5807635 56.8493843 33.3073888 58.6660176 31.3654704C59.6682981 30.3631899 60.607936 29.4861945 60.7958636 29.4861945 60.9837912 29.4861945 64.867628 33.1821037 69.3778901 37.6923658L77.6467039 45.8985371 82.4701786 41.1377049 87.2936533 36.3768727 82.7833912 31.9292532 78.3357717 27.4189911 74.1387223 31.4907555 69.9416728 35.6251624 68.1250395 33.683244C67.122759 32.6809635 66.3084062 31.6786831 66.3084062 31.4907555 66.3084062 31.3654704 69.0020349 28.5465566 72.2594464 25.2891451L78.2104866 19.3381049 86.667228 27.6695612C91.3027752 32.2424658 95.1239694 36.1889451 95.1239694 36.4395152 95.1239694 37.003298 78.0852016 53.9167808 77.5840614 53.8543118 77.3961338 53.8543118 72.6979441 49.2185911 67.0601165 43.5807635L67.0601165 43.5807635ZM49.708136 51.4110796 47.8915027 49.5318038 53.4666877 43.8939762C56.5361717 40.7618497 59.3550855 38.2561486 59.7309406 38.2561486 60.1067958 38.2561486 61.1717188 39.0705015 62.1113567 40.0101394L63.802705 41.7641302 57.9769498 47.5272429C54.7821808 50.7220118 52.0259096 53.2903555 51.837982 53.2903555 51.6500544 53.2903555 50.7104165 52.4133601 49.708136 51.4110796L49.708136 51.4110796ZM8.23878191 49.5318038C2.53831178 47.0261026-.343244549 42.2026279.0326106245 36.0636601.220538211 33.1194612.659035913 31.6160405 2.09981408 29.5488371 3.16473707 28.0454164 4.5428727 26.4793532 5.23194052 26.103498 5.85836581 25.7276428 6.79800374 25.1012175 7.23650144 24.6627198 9.36634742 22.783444 17.8230888 22.9713715 20.5793601 24.9759325 21.393713 25.5397152 25.3401923 29.298267 29.4119567 33.2447463L36.8037751 40.3859946 35.1124268 42.1399854C34.1727889 43.0796233 33.1705084 43.8939762 32.8572957 43.8939762 32.5440831 43.8939762 30.6648072 42.2652704 28.7228888 40.323352 26.7809704 38.3187911 23.2729888 34.9360946 20.9552153 32.8062486 17.0087359 29.0476968 16.6328808 28.8597693 13.6260394 28.8597693 10.8071256 28.8597693 10.2433428 29.1103394 8.05085432 31.3654704 5.92100834 33.5579589 5.54515316 34.3096693 5.54515316 36.6274428 5.54515316 40.2607095 7.67499915 43.3301934 10.8071256 44.3951164 14.4403923 45.5853245 17.1966635 44.7709716 20.454075 41.6388451 22.0201383 40.1354244 23.3356314 38.8825739 23.4609164 38.8825739 24.0246992 38.8825739 26.843613 42.2026279 26.843613 42.8916957 26.843613 44.0192612 21.5816406 48.2789532 18.5747992 49.6570888 15.3800302 51.097867 11.6214785 51.0352245 8.23878191 49.5318038L8.23878191 49.5318038ZM44.5088061 38.6946463 38.7456935 32.8688911 40.8128969 30.8643302 42.8801004 28.8597693 48.7684981 34.8108095 54.6568958 40.7618497 52.8402625 42.6411256C51.837982 43.6434061 50.8983441 44.5204015 50.6477739 44.5204015 50.4598464 44.5204015 47.7035751 41.8894153 44.5088061 38.6946463ZM364.361558 36.3768727C362.043785 35.938375 359.538084 33.7458865 359.475441 32.1171808 359.475441 30.6137601 360.790934 28.7971267 362.41964 28.1707014 363.923061 27.6069187 363.985703 27.4816336 362.983423 26.4167106 361.605287 24.9132899 361.730572 23.5351543 363.359278 21.9690911L364.737414 20.7162405 363.17135 19.0875348C360.978862 16.7697612 361.041504 12.5727118 363.296635 10.3175807 365.175911 8.50094737 369.372961 7.6865945 372.003947 8.68887496 373.194155 9.12737266 373.945865 9.00208761 375.198716 8.06244967 377.829702 6.12053128 381.400326 8.1250922 379.458408 10.4428658 378.644055 11.4451462 377.015349 11.6330738 377.015349 10.6934359 377.015349 10.3802232 376.576852 10.0670106 376.075711 10.0670106 375.010788 10.0670106 374.822861 11.0692911 375.762499 11.6330738 376.138354 11.8210014 376.388924 13.2617796 376.388924 14.7652003 376.388924 18.7743221 374.509648 20.5909554 369.748816 21.2173807 367.11783 21.5305934 366.052907 21.9064486 366.052907 22.5955164 366.052907 23.2845842 367.180472 23.6604394 370.876381 23.973652 376.827422 24.5374348 378.894625 25.9155704 378.894625 29.6114796 378.894625 34.9987371 372.505087 38.0055785 364.361558 36.3768727L364.361558 36.3768727ZM372.191875 33.9338141C374.07115 33.1821037 374.948146 31.0522578 373.883223 29.7994072 372.755657 28.4839141 366.178192 28.5465566 364.862699 29.8620497 361.855857 32.8062486 367.243115 35.81309 372.191875 33.9338141L372.191875 33.9338141ZM371.252237 15.0784129C371.377522 12.0715715 371.252237 11.5077888 369.999386 10.7560784 368.809178 10.0043681 368.495965 10.0670106 367.493685 11.3198612 365.175911 14.138775 366.428762 19.0875348 369.372961 18.7116796 370.939024 18.523752 371.064309 18.2731819 371.252237 15.0784129ZM32.1682279 34.3096693C31.4165176 33.5579589 30.6648072 32.618321 30.4142371 32.1798233 30.1010245 31.7413256 32.1682279 29.2356244 35.8014946 25.6023578L41.6898923 19.7766026 43.6944532 21.7811635 45.6363716 23.7857244 39.6853314 29.7367647C36.4279199 33.0568187 33.6716486 35.7504474 33.6090061 35.6878049 33.483721 35.6878049 32.8572957 35.0613796 32.1682279 34.3096693L32.1682279 34.3096693ZM50.0213487 33.808529C49.1443533 32.8062486 48.3300004 31.8666106 48.2047153 31.6786831 48.0794303 31.4907555 51.6500544 27.6695612 56.222959 23.1592991 60.7332211 18.6490371 64.4291303 14.7652003 64.4291303 14.5146301 64.4291303 14.26406 63.4268498 13.1364945 62.2366418 11.9462865L60.0441533 9.81644048 56.222959 13.7002773C54.093113 15.8301233 52.1511946 17.5841141 51.963267 17.5841141 51.3994843 17.5841141 48.1420728 14.4519876 48.1420728 13.9508474 48.1420728 13.7002773 50.8357015 10.8187209 54.093113 7.56130944L60.0441533 1.6102692 66.3084062 7.87452209C69.7537452 11.3198612 72.572659 14.3267026 72.572659 14.5146301 72.572659 14.8904853 51.9006245 35.81309 51.6500544 35.6878049 51.6500544 35.6878049 50.8983441 34.8108095 50.0213487 33.808529ZM141.479441 27.3563486C141.479441 26.8552083 142.105866 26.3540681 142.920219 26.228783 144.298355 26.0408555 144.298355 25.9155704 144.486282 15.2663405L144.611567 4.49182553 143.233432 4.30389794C142.419079 4.17861288 141.792653 3.67747265 141.792653 3.17633242 141.792653 2.42462208 142.857576 2.17405196 146.804056 2.0487669 154.195874 1.73555426 158.079711 2.36197955 160.272199 4.24125541 161.900905 5.55674852 162.151475 6.24581634 162.151475 8.87680255 162.151475 11.6330738 161.963548 12.0715715 160.272199 13.073852 158.455566 14.2014175 158.455566 14.2014175 159.771059 15.1410554 162.715258 17.1456164 163.404326 18.2105393 163.404326 20.9041681 163.341683 26.4167106 159.771059 28.233344 148.933902 28.233344 142.857576 28.233344 141.479441 28.0454164 141.479441 27.3563486L141.479441 27.3563486ZM156.263078 24.8506474C156.82686 24.2868646 157.140073 22.6581589 157.140073 20.4656704 157.140073 16.5191911 156.137793 15.4542681 152.567168 15.8301233L150.562607 16.0180508 150.37468 20.9041681 150.186752 25.7276428 152.755096 25.7276428C154.195874 25.7276428 155.761937 25.3517876 156.263078 24.8506474L156.263078 24.8506474ZM155.761937 11.6330738C157.515928 7.87452209 155.82458 4.24125541 152.567168 4.55446806L150.562607 4.74239564 150.37468 9.00208761 150.186752 13.199137 152.629811 13.199137C154.634372 13.199137 155.198155 12.8859244 155.761937 11.6330738L155.761937 11.6330738ZM170.608217 26.9178509C169.543294 25.8529279 169.355366 24.6000773 169.167439 18.7743221 168.979511 12.8232819 168.791583 11.7583589 167.72666 11.1319336 165.408887 9.69115542 166.348525 8.81416002 170.295004 8.81416002L174.053556 8.81416002 174.053556 14.3267026C174.053556 21.5305934 174.554696 24.0989371 176.058117 25.038575 177.12304 25.7276428 177.561537 25.6023578 178.814388 24.4121497 180.192524 23.0966566 180.317809 22.5328738 180.317809 17.0829738 180.317809 11.7583589 180.192524 11.1945761 179.064958 10.8813635 178.37589 10.6934359 177.812108 10.1296531 177.812108 9.69115542 177.812108 9.00208761 178.814388 8.81416002 181.883872 8.81416002L185.955636 8.81416002 185.955636 17.2082589C185.955636 25.1012175 186.018279 25.6650003 187.208487 26.0408555 187.897555 26.228783 188.461337 26.8552083 188.461337 27.3563486 188.461337 27.9827739 187.584342 28.233344 185.015998 28.233344 182.071799 28.233344 181.445374 28.0454164 181.069519 26.9804934L180.568379 25.6650003 179.252886 26.9804934C177.37361 28.7344842 172.362208 28.6718417 170.608217 26.9178509L170.608217 26.9178509ZM193.97388 26.3540681C191.969319 24.1615796 191.342894 21.2800233 191.781391 16.3312635 192.157247 12.134214 193.410097 9.87908301 195.978441 8.81416002 198.108287 7.93716462 201.741554 8.43830485 203.119689 9.75379795 203.620829 10.2549382 204.12197 10.6934359 204.247255 10.6934359 204.37254 10.6934359 204.309897 8.93944508 204.12197 6.8095991 203.8714 3.30161748 203.620829 2.86311978 202.430621 2.67519219 201.616268 2.54990713 200.989843 2.0487669 200.989843 1.54762667 200.989843.858558854 201.992124.670631267 205.37482.670631267L209.759797.670631267 209.759797 12.5100692C209.759797 22.4702313 209.947725 24.5374348 210.762078 25.3517876 211.263218 25.9155704 212.014928 26.3540681 212.328141 26.3540681 212.641354 26.3540681 212.891924 26.7925658 212.891924 27.293706 212.891924 28.0454164 212.077571 28.233344 209.383942 28.233344 206.439743 28.233344 205.813318 28.0454164 205.562748 26.9804934 205.37482 26.2914256 205.061608 25.7276428 204.811037 25.7276428 204.560467 25.7276428 203.746114 26.2914256 202.994404 26.9804934 202.054766 27.8574888 200.801916 28.233344 198.67207 28.233344 196.166368 28.233344 195.414658 27.9201313 193.97388 26.3540681L193.97388 26.3540681ZM203.119689 24.3495072C203.808757 23.4098692 204.12197 21.4679508 204.12197 18.3358244 204.12197 14.3267026 203.934042 13.5749922 202.555906 12.2594991 201.240413 10.8813635 200.864558 10.8187209 199.486423 11.4451462 198.358857 11.8836439 197.732432 12.8232819 197.481862 14.26406 196.918079 17.3335439 197.481862 23.5977968 198.4215 24.7253623 199.611708 26.1661405 201.992124 25.9782129 203.119689 24.3495072L203.119689 24.3495072ZM217.965969 26.7299233C214.896485 23.6604394 214.708557 13.4497072 217.715398 10.4428658 220.033172 8.1250922 223.227941 7.6865945 226.17214 9.31530025L228.552556 10.5681508 228.552556 7.87452209C228.552556 4.30389794 228.051416 3.17633242 226.297425 2.4872646 223.478511 1.48498414 224.731362.670631267 229.178981.670631267L233.563958.670631267 233.563958 12.5100692C233.563958 22.4702313 233.751886 24.5374348 234.566239 25.3517876 235.067379 25.9155704 235.819089 26.3540681 236.132302 26.3540681 236.445515 26.3540681 236.696085 26.7925658 236.696085 27.293706 236.696085 27.9827739 235.881732 28.233344 233.313388 28.233344 230.431832 28.233344 229.805406 28.0454164 229.492194 26.9804934 229.304266 26.2914256 228.865769 25.7276428 228.615198 25.7276428 228.364628 25.7276428 227.550275 26.2914256 226.798565 26.9804934 224.856647 28.7971267 219.970529 28.6718417 217.965969 26.7299233ZM226.92385 24.3495072C229.304266 20.653598 228.552556 12.6979968 225.733642 11.4451462 224.543434 10.8813635 223.979651 11.0066485 222.789443 11.9462865 221.47395 12.9485669 221.348665 13.6376347 221.348665 18.3984669 221.348665 24.1615796 222.037733 25.7276428 224.543434 25.7276428 225.357787 25.7276428 226.42271 25.1012175 226.92385 24.3495072L226.92385 24.3495072ZM238.575361 27.3563486C238.575361 26.8552083 239.139143 26.228783 239.828211 26.0408555 241.018419 25.6650003 241.081062 25.1012175 241.081062 14.3267026 241.081062 3.61483012 241.018419 3.05104736 239.828211 2.73783472 239.139143 2.54990713 238.575361 1.98612437 238.575361 1.54762667 238.575361.858558854 239.577641.670631267 242.647125.670631267L246.718889.670631267 246.718889 5.7446761 246.718889 10.7560784 248.347595 9.50322784C250.164228 8.06244967 252.607287 7.81187956 255.175631 8.81416002 257.618689 9.75379795 258.62097 12.8859244 258.62097 19.71396 258.62097 25.1012175 258.746255 25.6650003 259.87382 26.0408555 260.562888 26.228783 261.126671 26.8552083 261.126671 27.3563486 261.126671 28.0454164 260.187033 28.233344 257.054907 28.233344L252.983142 28.233344 252.983142 21.5305934C252.983142 13.7629198 252.66993 12.134214 251.103866 11.6330738 248.159667 10.6934359 246.718889 13.3244221 246.718889 19.5260325 246.718889 24.2242221 247.407957 26.3540681 248.97402 26.3540681 249.537803 26.3540681 249.851016 26.7299233 249.725731 27.168421 249.537803 27.6695612 247.658527 27.9827739 244.025261 28.1080589 239.577641 28.233344 238.575361 28.1080589 238.575361 27.3563486ZM263.005947 27.3563486C263.005947 26.8552083 263.56973 26.228783 264.258797 26.0408555 265.950146 25.5397152 266.200716 23.973652 266.012788 17.2709014 265.824861 12.134214 265.699576 11.5704313 264.446725 11.0066485 263.632372 10.6934359 263.005947 10.0043681 263.005947 9.56587037 263.005947 8.93944508 264.07087 8.81416002 267.265639 8.93944508L271.462688 9.12737266 271.650616 17.3961865C271.775901 24.9759325 271.901186 25.6650003 273.028751 26.0408555 273.717819 26.2914256 274.281602 26.8552083 274.281602 27.3563486 274.281602 28.0454164 273.091394 28.233344 268.643774 28.233344 264.196155 28.233344 263.005947 28.0454164 263.005947 27.3563486ZM278.228081 27.168421C276.47409 25.9782129 276.22352 22.3449463 277.789584 21.718521 279.418289 21.0920957 279.91943 21.2800233 279.91943 22.4702313 279.91943 24.0362945 282.174561 26.3540681 283.740624 26.3540681 285.807827 26.3540681 287.436533 25.1638601 287.436533 23.5977968 287.436533 22.4075888 286.62218 21.843806 282.800986 20.0898152 278.102796 18.0226118 276.787303 16.6444761 276.787303 13.5749922 276.787303 11.1945761 279.418289 8.93944508 282.738343 8.50094737 288.188243 7.62395197 292.761148 10.2549382 290.568659 12.8859244 289.566379 14.0761324 287.436533 14.0761324 287.436533 13.0112095 287.436533 11.8836439 285.431972 10.0670106 284.179122 10.0670106 282.926271 10.0670106 280.92171 12.3221416 281.360208 13.3244221 281.67342 14.138775 282.237203 14.5146301 287.499176 16.8950462 289.503736 17.8346842 290.693945 18.8369646 291.195085 20.1524577 292.197365 22.5955164 291.32037 25.8529279 289.441094 26.6672807 288.689384 26.9804934 288.062958 27.4816336 288.062958 27.7322037 288.062958 28.6718417 279.668859 28.233344 278.228081 27.168421L278.228081 27.168421ZM298.336333 26.9178509C297.334053 25.7902853 297.083482 24.4747922 296.895555 18.4611095 296.707627 11.9462865 296.582342 11.3198612 295.517419 11.3198612 293.700786 11.3198612 294.076641 9.87908301 296.206487 8.68887496 297.27141 8.1250922 298.398976 6.87224162 298.712188 5.99524622 299.150686 4.8676807 299.777111 4.429183 300.904677 4.429183 302.282812 4.429183 302.47074 4.67975311 302.47074 6.62167151 302.47074 8.75151749 302.533382 8.81416002 305.039084 8.81416002 307.106287 8.81416002 307.544785 9.00208761 307.356857 9.87908301 307.231572 10.6934359 306.479862 11.0692911 304.788514 11.1945761L302.47074 11.3825037 302.47074 17.6467566C302.47074 24.5374348 302.97188 25.7276428 305.916079 25.7276428 307.16893 25.7276428 307.544785 25.9782129 307.356857 26.8552083 307.16893 27.6695612 306.417219 27.9827739 303.347735 28.1080589 300.152966 28.233344 299.401256 28.1080589 298.336333 26.9178509L298.336333 26.9178509ZM319.384223 27.3563486C319.384223 26.8552083 320.010648 26.3540681 320.825001 26.228783 322.203137 26.0408555 322.203137 25.9155704 322.391064 15.2663405L322.516349 4.429183 320.950286 4.429183C319.82272 4.429183 319.384223 4.11597035 319.384223 3.17633242 319.384223 1.98612437 319.82272 1.92348184 326.149616 1.92348184 336.235063 1.98612437 339.304547 2.98840484 342.311388 7.43602438 345.130302 11.5704313 344.503877 20.4030279 341.12118 24.0362945 338.176981 27.293706 334.794285 28.233344 326.776041 28.233344 320.762358 28.233344 319.384223 28.0454164 319.384223 27.3563486ZM334.91957 23.973652C341.12118 18.2105393 338.051696 3.92804277 330.72252 4.55446806L328.467389 4.74239564 328.279462 14.4519876C328.216819 19.7766026 328.279462 24.4747922 328.404747 24.9132899 329.031172 26.4167106 332.915009 25.8529279 334.91957 23.973652ZM346.946935 27.4189911C346.946935 26.9178509 347.636003 26.228783 348.512999 25.8529279 350.016419 25.1638601 350.079062 24.9759325 350.079062 18.2105393 350.079062 11.3825037 350.079062 11.2572186 348.512999 10.6934359 345.631442 9.62851289 346.82165 8.81416002 351.331912 8.81416002L355.716889 8.81416002 355.716889 16.393906C355.716889 23.973652 356.21803 26.3540681 357.909378 26.3540681 358.410518 26.3540681 358.849016 26.7925658 358.849016 27.293706 358.849016 28.0454164 357.784093 28.233344 352.897976 28.233344 348.325071 28.233344 346.946935 28.0454164 346.946935 27.4189911ZM381.400326 27.3563486C381.400326 26.8552083 381.964109 26.228783 382.653177 26.0408555 383.780742 25.6650003 383.906027 25.1012175 383.906027 18.3984669 383.906027 11.7583589 383.843385 11.1945761 382.653177 10.8813635 381.964109 10.6934359 381.400326 10.1296531 381.400326 9.69115542 381.400326 9.00208761 382.402607 8.81416002 385.472091 8.81416002L389.543855 8.81416002 389.543855 16.5818336C389.543855 22.8460865 389.731783 24.6000773 390.546136 25.3517876 391.047276 25.9155704 391.798986 26.3540681 392.112199 26.3540681 392.425411 26.3540681 392.675982 26.7925658 392.675982 27.293706 392.675982 28.0454164 391.611059 28.233344 387.038154 28.233344 382.590534 28.233344 381.400326 28.0454164 381.400326 27.3563486L381.400326 27.3563486ZM398.376452 26.6046382C397.248886 25.1638601 397.060959 24.0989371 397.060959 18.1478968 397.060959 11.7583589 396.998316 11.3198612 395.808108 11.3198612 393.928832 11.3198612 394.304687 9.87908301 396.434533 8.68887496 397.499456 8.1250922 398.627022 6.87224162 398.940234 5.99524622 399.378732 4.8676807 400.005157 4.429183 401.132723 4.429183 402.510859 4.429183 402.698786 4.67975311 402.698786 6.62167151 402.698786 8.68887496 402.824071 8.81416002 404.891275 8.81416002 406.645265 8.81416002 407.083763 9.06473013 407.083763 10.0670106 407.083763 11.0692911 406.645265 11.3198612 404.891275 11.3198612L402.698786 11.3198612 402.698786 17.7720416C402.698786 24.7880049 403.074641 25.7276428 406.01884 25.7276428 407.396976 25.7276428 407.772831 25.9782129 407.584903 26.8552083 407.396976 27.6695612 406.645265 27.9827739 403.513139 28.1080589 400.005157 28.2959865 399.56666 28.1707014 398.376452 26.6046382L398.376452 26.6046382ZM412.345736 27.3563486C409.714749 24.4121497 409.589464 21.3426658 411.96988 18.8996072 413.410659 17.3961865 414.412939 16.9576888 417.607708 16.5818336L421.491545 16.1433359 421.491545 14.0761324C421.491545 12.1968566 420.176052 10.0670106 419.048486 10.0670106 418.234133 10.0670106 417.106568 11.5704313 417.106568 12.6979968 417.106568 14.26406 415.540505 14.7652003 413.598586 13.9508474 411.21817 12.8232819 411.531383 10.2549382 414.287654 9.06473013 417.043925 7.93716462 421.679472 7.93716462 423.934603 9.06473013 426.440305 10.3802232 427.129372 12.5727118 427.129372 19.0875348 427.129372 24.0989371 427.3173 25.038575 428.382223 26.0408555 430.136214 27.6069187 429.384503 28.233344 425.876522 28.233344 423.370821 28.233344 422.744395 27.9827739 422.431183 26.9804934 422.243255 26.2914256 421.804757 25.7276428 421.554187 25.7276428 421.303617 25.7276428 420.551907 26.2914256 419.925482 26.9804934 418.609988 28.4212716 413.473301 28.7344842 412.345736 27.3563486ZM420.489264 24.3495072C421.053047 23.5977968 421.491545 21.9064486 421.491545 20.5909554 421.491545 18.2731819 421.428902 18.2731819 419.486984 18.5863945 416.354857 19.2128198 415.039364 21.6558784 416.229572 24.7253623 416.793355 26.1661405 419.361699 25.9155704 420.489264 24.3495072L420.489264 24.3495072ZM431.514349 27.293706C431.514349 26.7925658 431.76492 26.3540681 432.078132 26.3540681 432.391345 26.3540681 433.143055 25.9155704 433.644195 25.3517876 434.458548 24.5374348 434.646476 22.7208014 434.646476 14.8904853 434.646476 4.11597035 434.395906 2.54990713 432.704557 2.54990713 432.01549 2.54990713 431.514349 2.11140943 431.514349 1.6102692 431.514349.858558854 432.391345.670631267 435.899326.670631267L440.284303.670631267 440.284303 13.1364945C440.284303 25.1012175 440.346946 25.6650003 441.537154 26.0408555 442.226222 26.228783 442.790005 26.8552083 442.790005 27.3563486 442.790005 28.0454164 441.599797 28.233344 437.152177 28.233344 432.579272 28.233344 431.514349 28.0454164 431.514349 27.293706Z"/><path d="M28.1591061 22.2196612C24.4005544 18.1478968 24.3379118 17.9599692 24.3379118 14.5146301 24.3379118 11.3198612 24.5884819 10.6934359 26.4051153 8.68887496 27.5953233 7.43602438 29.5372417 6.12053128 30.9780199 5.68203358 34.9244992 4.49182553 37.5554854 6.05788875 46.2627969 14.7025577 50.3972038 18.8369646 53.7799004 22.4702313 53.7799004 22.783444 53.7799004 23.5351543 51.1489142 26.3540681 50.3972038 26.3540681 50.0839912 26.3540681 46.4507245 22.9713715 42.3163176 18.7743221 35.7388521 12.1968566 34.548644 11.2572186 32.9825808 11.4451462 31.7923728 11.5704313 30.7900923 12.1968566 30.1010245 13.3244221L29.0361015 15.0784129 32.6693682 18.7116796C34.6112866 20.7162405 36.2399923 22.5328738 36.2399923 22.7208014 36.2399923 23.4098692 33.2957934 26.3540681 32.6067256 26.3540681 32.2308705 26.3540681 30.2263095 24.4747922 28.1591061 22.2196612ZM266.326001 4.61711059C265.32372 4.24125541 265.261078 1.79819679 266.263358.795916325 267.641494-.58221931 270.460408-.081079079 271.274761 1.6102692 272.464969 4.24125541 269.583412 5.99524622 266.326001 4.61711059L266.326001 4.61711059ZM350.204347 4.30389794C349.139424 3.23897495 349.264709 2.29933702 350.580202 1.10912897 352.083623-.269006666 354.025541-.206364137 355.278392 1.1717715 356.593885 2.61254966 356.593885 2.86311978 355.341034 4.05332783 354.213469 5.24353587 351.26927 5.36882093 350.204347 4.30389794ZM384.344525 4.67975311C384.093955 4.429183 383.906027 3.42690254 383.906027 2.4872646 383.906027 1.04648644 384.281883.607988738 385.597376.294776094 387.789864-.269006666 389.230642.733273796 389.230642 2.92576231 389.230642 4.55446806 388.980072 4.74239564 387.038154 4.93032323 385.785303 5.05560829 384.595095 4.93032323 384.344525 4.67975311L384.344525 4.67975311Z"/></g></svg>