<svg xmlns="http://www.w3.org/2000/svg" width="500" height="500" viewBox="0 0 500 500"><g fill="none" fill-rule="evenodd"><path fill="#000" d="M388.399781 244.052547 405.880251 244.048753C405.880251 231.507846 397.744491 222.086627 383.421077 222.086627 362.016574 222.086627 358.025519 237.74229 358.025519 248.92945 358.025519 255.516716 360.75704 277.737513 387.719429 277.737513 392.399689 277.737513 397.803927 277.278466 404.442409 275.444174L404.442409 266.103889C393.880527 270.700053 378.221071 270.899858 376.221117 253.507909 374.553751 238.972107 377.259348 229.729828 382.348703 229.729828 386.765926 229.729828 388.399781 236.159652 388.399781 244.052547M438.664196 241.66569C438.571248 235.695546 437.412881 229.729828 433.072797 229.729828 428.971089 229.729828 427.455474 234.478375 426.825707 241.66569L438.664196 241.66569ZM457.107022 244.427246 457.107022 249.925064 426.605036 249.925064C427.676778 271.393429 443.762403 270.733944 455.064704 266.103636L455.064704 275.444553C448.42559 277.278213 443.830058 277.733467 438.731851 277.733467 412.528217 277.733467 408.630109 258.218898 408.630109 248.312708 408.630109 236.848855 413.642956 222.061336 433.710784 222.078393 448.50273 222.08726 457.107022 231.444616 457.107022 244.427246L457.107022 244.427246ZM271.003808 268.197739 273.982557 268.205959 273.982557 248.516876C269.659545 248.903842 263.472523 250.819068 263.463671 259.38479 263.463671 267.41053 267.27642 268.044091 271.003808 268.197739M292.254663 241.50319 292.254663 276.108401 263.429527 276.103975C252.825282 276.090697 245.04424 271.746187 245.0701 259.860909 245.108102 240.567391 267.480651 241.26924 273.982557 241.252801L273.982557 239.912332C273.991409 228.154777 262.323008 229.29544 255.344351 231.325112 253.855293 231.780366 252.52747 232.269763 251.446875 232.746515L251.455095 224.056231C257.676261 222.579819 261.863961 222.078408 268.41645 222.078408 283.778727 222.078408 292.254663 229.320732 292.254663 241.50319M245.34711 222.078408 241.453428 222.078408C226.330159 222.082834 216.478979 230.125014 216.466333 240.865835L216.466333 276.108085 234.742865 276.108085 234.742865 241.427315C234.755511 231.699432 241.253622 230.436103 245.34711 230.30838L245.34711 222.078408M212.929898 202.073809C196.985276 202.073809 183.495861 204.329211 183.495861 223.83556L183.495861 276.108275 201.768599 276.108275 201.772393 232.061106 214.261515 232.061106 214.261515 223.860852 201.772393 223.860852 201.772393 219.76357C201.781245 210.035687 209.487676 210.176057 216.82358 210.176057L216.819154 202.073809 212.929898 202.073809M302.289209 223.860852 302.289209 276.108338 320.561315 276.108338 320.561315 232.065532 321.540742 232.065532C327.889632 232.094617 332.391584 232.652303 332.391584 244.695213L332.391584 276.108338 350.664322 276.108338 350.664322 245.708152C350.664322 235.959214 350.621326 223.865278 324.774939 223.865278L302.289209 223.860852M173.614963 295.027094C173.614963 300.524912 169.159801 304.9845 163.657556 304.9845 158.159738 304.9845 153.70015 300.524912 153.70015 295.027094 153.70015 289.529275 158.159738 285.065262 163.657556 285.065262 169.159801 285.065262 173.614963 289.529275 173.614963 295.027094"/><polygon fill="#000" points="154.522 276.108 172.798 276.108 172.798 223.861 154.522 223.861"/><path fill="#000" d="M63.0958471 268.367511C70.6359836 268.367511 73.253059 261.210546 73.253059 249.367631 73.253059 238.065394 70.6359836 231.461056 62.8403993 231.461056L61.6997363 231.457262 61.6997363 268.371937 63.0958471 268.367511ZM68.6189576 276.108085 43.3169785 276.108085 43.3169785 202.073809 61.6997363 202.073809 61.6997363 223.860852 67.0192473 223.860852C91.8318288 223.860852 91.8191829 243.273557 91.8191829 249.487136 91.8191829 257.678537 89.2236055 276.108085 68.6189576 276.108085L68.6189576 276.108085ZM118.704433 231.465482 117.304528 231.457262 117.304528 268.372063 118.444559 268.367637C126.240775 268.367637 128.866071 261.7633 128.866071 250.469851 128.866071 238.623079 126.240775 231.465482 118.704433 231.465482M124.223749 223.860852C144.832191 223.860852 147.423342 242.291095 147.423342 250.478071 147.423342 256.695443 147.43662 276.108212 122.624039 276.108212L117.304528 276.108212 117.304528 297.895254 98.9254375 297.895254 98.9254375 223.860852 124.223749 223.860852M173.614963 204.946332C173.614963 210.439725 169.159801 214.899312 163.657556 214.899312 158.159738 214.899312 153.70015 210.439725 153.70015 204.946332 153.70015 199.448514 158.159738 194.9845 163.657556 194.9845 169.159801 194.9845 173.614963 199.448514 173.614963 204.946332"/></g></svg>