<svg xmlns="http://www.w3.org/2000/svg" width="500" height="500" viewBox="0 0 500 500"><path fill-rule="evenodd" d="M326.041,116 L335.461,146.813 C323.324,142.868 310.987,145.447 300.369,153.515 C281.427,167.898 278.089,191.459 292.374,210.254 C306.952,229.457 330.475,231.357 352.077,214.96 C353.162,214.13 354.096,213.337 355.729,211.948 L355.446,212.188 L388.815,321.3393 L183.7855,384 L165.5593,324.4415 C179.4715,332.8752 197.7632,330.9201 214.2882,318.3813 C220.8175,313.4097 226.343,307.1192 231.949,298.4352 L221.415,284.5787 C215.3086,294.2506 211.9869,298.4623 207.3193,302.0065 C196.2525,310.4029 183.449,308.7746 175.1449,297.8436 C166.9439,287.0374 169.1475,274.44 180.7461,265.62 C185.5495,261.979 192.5347,258.988 199.623,257.81 L188.692,243.411 C180.4693,245.87 171.248,250.347 164.9846,255.102 C158.1459,260.296 153.1201,266.505 149.9992,273.176 L149.9134,273.346 L121,178.834 L291.299,126.646 L291.299,153.407 L300.531,146.937 L309.683,121.012 L326.041,116 Z M189.0231,348.3792 L185.8751,350.7727 L189.8426,355.9886 C188.6866,356.2165 187.6716,356.6453 186.7652,357.3346 C183.8995,359.511 183.525,363.1475 185.8426,366.1977 C188.1058,369.1992 191.7803,369.8885 194.4669,367.8477 C195.5307,367.0444 196.144,366.138 196.4914,364.7486 L197.0938,365.5519 L200.2418,363.1692 L189.0231,348.3792 Z M191.4003,358.0456 L195.0314,362.8273 C194.8197,363.9019 194.4615,364.5478 193.7885,365.058 C192.3122,366.1815 190.456,365.6713 189.0719,363.8476 C187.5631,361.8557 187.6228,359.9995 189.2076,358.8 C189.7667,358.3713 190.7002,358.0673 191.4003,358.0456 Z M208.2582,349.9966 C205.6422,346.2516 201.6692,346.0074 198.7655,348.2109 C195.6881,350.5502 195.1508,354.3766 197.4629,357.4377 C199.8347,360.5531 203.6611,360.8625 207.1673,358.203 C207.9488,357.6168 209.8322,356.184 210.6246,353.4974 L209.132,351.5272 C208.4645,353.7036 207.7752,354.8217 206.5106,355.7715 C204.5404,357.2695 202.5376,357.1392 201.083,355.4458 L208.2582,349.9966 Z M200.3937,349.9152 C201.6095,349.0034 203.0641,349.1988 204.231,350.4634 L199.8944,353.7524 C198.9609,352.2707 199.1617,350.8596 200.3937,349.9152 Z M212.3071,339.109 C210.8743,339.3804 209.7779,339.8689 208.5187,340.8187 C206.0492,342.6857 205.3219,345.1932 206.7114,347.0386 C209.1972,350.306 213.968,346.2733 215.0643,347.7225 C215.4117,348.1838 215.0372,348.922 214.1091,349.6221 C212.915,350.5285 211.5907,350.8867 210.2393,351.2286 L211.9218,353.4322 C212.5297,353.3508 214.451,352.6832 216.0467,351.4729 C218.6519,349.4973 219.2326,347.2069 217.6532,345.1173 C215.1186,341.7848 210.1199,345.5026 209.284,344.3954 C208.763,343.7061 209.4143,343.0819 209.8213,342.7617 C210.4509,342.2841 211.9923,341.5134 214.0005,341.3289 L212.3071,339.109 Z M250.24,330.6801 L247.098,333.0573 L251.06,338.2732 C249.904,338.5174 248.894,338.9299 247.982,339.6355 C245.127,341.801 244.747,345.4375 247.065,348.4932 C249.334,351.4892 253.003,352.1893 255.695,350.1486 C256.753,349.3344 257.366,348.4335 257.708,347.0495 L258.322,347.8473 L261.464,345.4701 L250.24,330.6801 Z M252.628,340.3465 L256.259,345.1173 C256.048,346.1919 255.684,346.8486 255.016,347.3588 C253.54,348.466 251.689,347.9667 250.3,346.1485 C248.791,344.1457 248.845,342.3004 250.435,341.09 C251,340.6613 251.928,340.3682 252.628,340.3465 Z M225.415,329.1441 C223.976,329.4155 222.88,329.8931 221.626,330.8592 C219.1567,332.7317 218.424,335.2392 219.8188,337.0791 C222.305,340.3628 227.075,336.3247 228.172,337.7793 C228.519,338.2243 228.145,338.957 227.217,339.6735 C226.028,340.5744 224.698,340.9381 223.347,341.2746 L225.024,343.4836 C225.637,343.3913 227.553,342.7237 229.16,341.508 C231.759,339.5378 232.34,337.2365 230.766,335.1686 C228.226,331.8253 223.233,335.5431 222.397,334.4468 C221.865,333.7466 222.522,333.117 222.934,332.8077 C223.558,332.3246 225.1,331.5702 227.113,331.3802 L225.415,329.1441 Z M269.475,332.3029 C266.87,328.5416 262.892,328.3137 259.993,330.5118 C256.916,332.8565 256.368,336.6829 258.691,339.7332 C261.057,342.8594 264.884,343.1688 268.395,340.4984 C269.177,339.9123 271.071,338.4794 271.863,335.7928 L270.36,333.8226 C269.692,336.0045 268.987,337.1117 267.738,338.0669 C265.768,339.5541 263.765,339.4401 262.305,337.7467 L269.475,332.3029 Z M261.551,332.1346 C262.767,331.2174 264.205,331.4128 265.383,332.6882 L261.041,335.9665 C260.124,334.4848 260.319,333.0682 261.551,332.1346 Z M235.233,321.5456 C233.898,321.9635 232.4,322.6799 231.379,323.4506 C228.09,325.9473 227.363,329.9094 229.686,332.9759 C232.052,336.1022 235.879,336.3952 239.385,333.7358 C240.443,332.9325 241.344,331.9067 242.251,330.501 L240.552,328.2485 C239.559,329.8225 239.016,330.501 238.256,331.0763 C236.46,332.444 234.381,332.1726 233.029,330.4033 C231.7,328.6447 232.052,326.5931 233.936,325.1657 C234.723,324.5741 235.857,324.0856 237.008,323.9011 L235.233,321.5456 Z M270.767,315.0922 L267.624,317.4749 L278.843,332.2595 L281.991,329.8659 L270.767,315.0922 Z M239.266,317.768 L236.129,320.1507 L243.705,330.1482 L246.848,327.7709 L239.266,317.768 Z M283.305,313.1112 L280.178,315.4993 L287.755,325.4859 L290.892,323.1087 L283.305,313.1112 Z M254.957,314.5332 C252.346,310.7774 248.373,310.5494 245.469,312.753 C242.386,315.0759 241.849,318.9132 244.161,321.9689 C246.539,325.0951 250.359,325.4045 253.866,322.7396 C254.647,322.1534 256.536,320.7151 257.328,318.0285 L255.83,316.0583 C255.168,318.2402 254.468,319.3474 253.214,320.2972 C251.239,321.8006 249.247,321.6758 247.781,319.9824 L254.957,314.5332 Z M297.693,307.9225 C295.457,304.9862 292.7,305.6755 291.136,306.8587 C289.861,307.8302 289.237,309.0405 289.123,310.9565 L288.032,309.5182 L284.889,311.9117 L292.466,321.8929 L295.62,319.5157 L290.735,313.0732 C290.626,311.2116 290.892,310.3649 291.674,309.7733 C292.558,309.0948 293.677,309.1654 294.751,310.5711 L299.37,316.6662 L302.513,314.2781 L297.693,307.9225 Z M274.838,312.0745 L271.912,314.2944 L273.893,316.9159 L276.623,319.4342 L278.507,317.9851 L276.824,314.6852 L274.838,312.0745 Z M264.525,304.3295 C262.284,301.3823 259.537,302.0716 257.969,303.2548 C256.693,304.2263 256.08,305.4421 255.955,307.3472 L254.87,305.9197 L251.727,308.297 L259.309,318.2836 L262.452,315.9064 L257.573,309.4639 C257.459,307.6131 257.725,306.7501 258.512,306.164 C259.396,305.4855 260.509,305.5561 261.578,306.9672 L266.202,313.0623 L269.345,310.6797 L264.525,304.3295 Z M247.098,314.4572 C248.313,313.5345 249.768,313.7299 250.929,315.0054 L246.598,318.2782 C245.67,316.8019 245.866,315.3853 247.098,314.4572 Z M236.948,314.4029 C236.221,313.4531 234.864,313.2577 233.903,313.9796 C232.943,314.7015 232.758,316.0855 233.491,317.0299 C234.213,317.9851 235.58,318.1751 236.536,317.4532 C237.491,316.7368 237.681,315.3636 236.948,314.4029 Z M280.992,309.7461 C280.271,308.7909 278.903,308.6063 277.948,309.3336 C276.987,310.0609 276.802,311.4287 277.53,312.3839 C278.252,313.3446 279.619,313.5237 280.58,312.7964 C281.524,312.0854 281.72,310.6959 280.992,309.7461 Z M302.865,290.7172 L299.734,293.0999 L303.69,298.3266 C302.534,298.5492 301.525,298.9834 300.618,299.6672 C297.753,301.8437 297.373,305.4801 299.69,308.5358 C301.959,311.5209 305.628,312.2211 308.325,310.1858 C309.384,309.3825 309.997,308.4761 310.334,307.0812 L310.947,307.8845 L314.089,305.5018 L302.865,290.7172 Z M304.987,300.5682 L308.602,305.339 C308.396,306.4245 308.032,307.0704 307.365,307.5751 C305.883,308.6986 304.032,308.1884 302.654,306.3702 C301.139,304.3675 301.194,302.5167 302.778,301.3118 C303.343,300.8993 304.276,300.5899 304.987,300.5682 Z M272.205,293.469 C270.876,293.8761 269.378,294.5979 268.363,295.3741 C265.057,297.8707 264.341,301.8328 266.669,304.8831 C269.03,308.0093 272.857,308.3241 276.363,305.6592 C277.427,304.8397 278.317,303.8301 279.234,302.419 L277.53,300.1611 C276.531,301.7405 275.994,302.419 275.239,302.9889 C273.437,304.3566 271.353,304.1015 270.002,302.3104 C268.672,300.5573 269.036,298.5057 270.924,297.0892 C271.695,296.4921 272.835,295.9982 273.985,295.8137 L272.205,293.469 Z M318.024,286.7497 L314.866,289.1541 L319.701,295.526 C320.119,296.7472 319.815,298.1475 318.855,298.8694 C318.024,299.4935 316.89,299.5695 315.826,298.1584 L311.142,291.9764 L307.994,294.3591 L312.852,300.7582 C314.8,303.3417 317.422,303.2657 319.387,301.7731 C320.646,300.8233 321.259,299.6021 321.384,297.697 L322.469,299.1299 L325.612,296.7526 L318.024,286.7497 Z M287.136,290.0931 C284.531,286.3372 280.558,286.1093 277.649,288.3129 C274.577,290.6413 274.029,294.4677 276.352,297.5288 C278.724,300.6442 282.55,300.9535 286.056,298.3049 C286.832,297.7079 288.721,296.275 289.519,293.5775 L288.016,291.6074 C287.343,293.7892 286.648,294.9073 285.4,295.8571 C283.424,297.3497 281.427,297.2303 279.967,295.5315 L287.136,290.0931 Z M214.2611,219.926 L194.9282,234.608 L241.616,296.0851 L260.954,281.398 L214.2611,219.926 Z M326.822,280.926 C325.39,281.181 324.288,281.675 323.034,282.636 C320.559,284.5082 319.832,287.0048 321.227,288.8556 C323.718,292.1284 328.483,288.1066 329.574,289.5558 C329.921,290.0117 329.547,290.739 328.619,291.4391 C327.43,292.3509 326.095,292.7037 324.754,293.0511 L326.426,295.2492 C327.039,295.1732 328.961,294.4948 330.567,293.279 C333.167,291.3197 333.753,289.0184 332.174,286.9343 C329.639,283.607 324.641,287.325 323.799,286.2124 C323.284,285.5285 323.93,284.8935 324.347,284.5842 C324.977,284.1065 326.513,283.336 328.527,283.151 L326.822,280.926 Z M279.283,290.0117 C280.504,289.089 281.942,289.2898 283.115,290.5544 L278.783,293.8435 C277.85,292.3618 278.056,290.9452 279.283,290.0117 Z M291.185,279.178 C289.758,279.461 288.656,279.938 287.397,280.904 C284.933,282.777 284.195,285.2843 285.595,287.1242 C288.086,290.397 292.846,286.3698 293.948,287.8244 C294.284,288.2749 293.921,289.0076 292.987,289.7077 C291.793,290.6196 290.469,290.9832 289.123,291.3197 L290.805,293.5287 C291.419,293.4364 293.329,292.7688 294.93,291.5585 C297.535,289.572 298.122,287.2979 296.542,285.2029 C294.008,281.87 289.009,285.5991 288.168,284.4919 C287.647,283.803 288.298,283.168 288.71,282.853 C289.345,282.381 290.881,281.615 292.89,281.431 L291.185,279.178 Z M328.863,273.566 L328.472,273.876 L327.837,281.724 L328.299,282.337 L329.737,281.246 L332.993,285.5448 C335.116,288.3346 337.639,287.9275 339.718,286.3372 C340.684,285.6045 341.379,284.8013 342.144,283.515 L340.424,281.235 C339.897,282.315 339.409,282.918 338.752,283.406 C337.786,284.1608 336.744,283.955 336,282.983 L332.874,278.853 L336.521,276.09 L334.877,273.957 L331.24,276.709 L328.863,273.566 Z M344.516,267.759 C343.083,267.791 342.361,267.96 341.737,268.426 C340.521,269.36 340.228,271.124 340.874,273.908 L340.831,273.952 L338.671,271.081 L335.528,273.458 L343.11,283.461 L346.253,281.073 L342.98,276.752 C342.269,274.386 342.182,272.741 343.333,271.878 C343.827,271.488 344.532,271.308 345.748,271.2 L344.516,267.759 Z M305.357,270.597 C304.255,269.154 302.247,269.056 300.477,270.408 C298.621,271.802 298.143,273.963 299.321,275.515 C299.972,276.372 300.781,276.714 302.019,277.105 C301.042,279.14 301.009,280.633 301.915,281.822 C303.11,283.39 305.4,283.51 307.294,282.066 C308.467,281.176 309.291,280.069 309.834,278.625 L311.224,278.88 L314.388,276.481 L310.556,275.764 C310.833,274.408 310.746,272.937 310.285,271.064 L308.059,272.758 C308.195,273.61 308.228,274.478 308.108,275.303 L305.449,274.744 C306.149,273.029 306.122,271.607 305.357,270.597 Z M304.206,277.55 L307.609,278.201 C307.381,278.934 306.92,279.645 306.453,279.993 C305.731,280.541 304.716,280.443 304.206,279.781 C303.842,279.282 303.842,278.581 304.206,277.55 Z M347.268,264.54 L344.131,266.923 L351.708,276.91 L354.85,274.532 L347.268,264.54 Z M301.791,272.117 C302.366,271.688 303.034,271.759 303.413,272.264 C303.804,272.763 303.788,273.355 303.365,274.364 C302.534,274.299 301.731,274.017 301.432,273.642 C301.085,273.181 301.232,272.546 301.791,272.117 Z M362.948,261.3 C360.337,257.55 356.364,257.322 353.461,259.525 C350.383,261.859 349.84,265.686 352.163,268.741 C354.53,271.868 358.356,272.166 361.868,269.517 C362.639,268.92 364.533,267.488 365.325,264.801 L363.827,262.831 C363.16,265.013 362.459,266.12 361.211,267.07 C359.236,268.562 357.238,268.448 355.773,266.755 L362.948,261.3 Z M355.1,261.23 C356.316,260.312 357.759,260.508 358.932,261.767 L354.595,265.061 C353.678,263.574 353.868,262.163 355.1,261.23 Z M344.939,261.181 C344.228,260.231 342.855,260.041 341.889,260.763 C340.939,261.479 340.749,262.863 341.477,263.813 C342.199,264.763 343.577,264.953 344.527,264.231 C345.482,263.498 345.667,262.131 344.939,261.181 Z M228.666,172.511 L228.666,226.162 L228.677,231.286 L238.061,224.306 L258.11,250.706 C271.174,267.916 286.697,265.376 299.5,255.645 C305.503,251.091 307.11,248.497 311.783,240.529 L301.145,226.526 C297.975,233.142 297.59,234.597 293.595,237.631 C287.598,242.184 281.193,240.947 276.629,234.95 L257.388,209.619 L277.139,194.922 L267.109,181.727 L247.363,196.425 L232.677,177.092 L228.666,172.511 Z M203.6937,203.725 C199.2377,197.858 190.7925,196.696 184.9253,201.152 C179.0636,205.614 177.9021,214.059 182.3581,219.926 C186.8141,225.793 195.2593,226.944 201.1319,222.493 C206.9936,218.037 208.1497,209.587 203.6937,203.725 Z M344.16,175.27 L350.896,197.309 C349.924,198.246 349.215,199.049 348.039,199.947 C335.903,209.163 323.577,208.436 313.986,198.194 L344.16,175.27 Z M311.381,163.8 C318.849,158.123 327.772,159.339 334.947,167.138 L308.277,187.394 C302.594,178.248 303.788,169.57 311.381,163.8 Z"/></svg>