<?xml version="1.0" encoding="UTF-8"?>
<svg width="500px" height="500px" viewBox="0 0 500 500" version="1.1" xmlns="http://www.w3.org/2000/svg" xmlns:xlink="http://www.w3.org/1999/xlink">
    <title>logo-white/svg/decathlon</title>
    <g id="decathlon" stroke="none" stroke-width="1" fill="none" fill-rule="evenodd">
        <g transform="translate(55.000000, 219.000000)" fill="#000000" fill-rule="nonzero" id="Shape">
            <path d="M151.2145,1.38393855 L129.487533,39.2363762 C129.038452,40.0425039 124.744858,46.5579125 116.036488,47.1506535 C107.363759,47.5537173 100.028769,39.3952308 100.171335,30.6321484 C100.454089,21.9117435 106.983585,14.9434807 115.691955,14.8035939 C123.105356,14.9458517 128.537097,20.631423 128.451558,20.6527617 C130.031658,22.0231788 131.060505,23.0118707 132.243798,24.7829807 L140.175186,11.0171646 C138.75666,9.5305703 138.15551,8.8880391 136.382947,7.5768961 C131.87788,3.54862854 125.28423,0.333601574 116.036488,0.00640856486 C107.109518,-0.176155651 98.1397778,3.53203179 91.2063471,12.3946946 C86.9412655,18.0684111 85.2209764,23.1375318 85,30.6321484 C85.0997958,39.383376 88.2813803,46.4915255 92.9313885,51.6246623 C100.896042,59.9325195 110.535839,61.9288711 115.694331,61.9502098 C123.100603,61.6253877 128.491952,59.8424229 133.626682,56.4400898 C135.235295,55.3281078 136.991226,53.8367715 138.79943,51.966081 L152.595009,51.966081 L152.595009,60.5703088 L166.73512,60.5703088 L166.73512,1.38393855 L151.2145,1.38393855 L151.2145,1.38393855 Z M152.595009,39.580166 L145.008153,39.580166 L152.595009,26.1605106 L152.595009,39.580166 Z M180.661384,60.9188405 L180.661384,15.3892219 L169.486633,15.3892219 L169.486633,1.63288976 L206.819759,1.63288976 L206.819759,15.3892219 L195.390766,15.3892219 L195.390766,60.9188405 L180.661384,60.9188405 Z M239.208242,38.2358295 L224.139079,38.2358295 L224.139079,60.9188405 L209.409697,60.9188405 L209.409697,1.63288976 L224.139079,1.63288976 L224.139079,24.1451914 L239.208242,24.1451914 L239.208242,1.63288976 L254.023163,1.63288976 L254.023163,60.9188405 L239.208242,60.9188405 L239.208242,38.2358295 L239.208242,38.2358295 Z M376.27537,1.63288976 L376.27537,34.5679484 L354.180109,1.63288976 L340.888262,1.63288976 L340.888262,21.6627922 C339.384197,17.1057998 336.768122,12.894968 333.068549,9.30532873 C327.225744,3.63398323 319.605623,0.549359283 311.562559,0.549359283 C303.013387,0.549359283 295.566721,3.46801577 289.638376,9.222345 C283.712408,14.9743033 280.495182,22.4784038 280.495182,30.6534871 C280.495182,37.1594119 282.091914,42.8829186 285.24261,47.8287491 L273.975191,47.8287491 L273.975191,1.63288976 L259.328972,1.63288976 L259.328972,60.9164695 L291.159074,60.9164695 L291.159074,54.654754 C296.742885,59.5033751 303.609785,62 311.477019,62 C319.857489,62 327.81739,58.7446667 333.660196,52.7437572 C336.997814,49.3602246 339.475391,45.228728 340.885886,40.694519 L340.885886,60.9164695 L355.615268,60.9164695 L355.615268,27.8984271 L378.047933,60.9188405 L391,60.9188405 L391,1.63288976 L376.27537,1.63288976 Z M311.479396,47.3261048 C303.182089,47.3261048 295.649884,40.1539392 295.649884,30.8170836 C295.649884,22.1440979 302.675982,15.2232545 311.650474,15.2232545 C320.114107,15.2232545 327.142581,22.1440979 327.142581,30.8170836 C327.142581,40.4858741 320.116483,47.3261048 311.479396,47.3261048 Z"></path>
            <path d="M83.9976306,14.1785416 L83.9976306,1 L51.3283313,1 L51.3283313,25.5864033 C50.3402911,18.4702298 47.5183346,12.6563782 42.969085,8.39336493 C36.7209748,2.51021546 30.0534808,1.25090605 20.5142728,1.25090605 L0,1.25090605 L0,61 L22.5401106,61 C30.9799165,61 36.6380458,59.8195468 43.0543834,53.6018559 C47.5870473,49.159624 50.3521381,43.5441077 51.3283313,36.9177984 L51.3283313,60.6511211 L84,60.6511211 L84,47.8214584 L65.772199,47.8214584 L65.772199,36.7218527 L81.5926887,36.7218527 L81.5926887,23.8874109 L65.772199,23.8874109 L65.772199,14.176152 L83.9976306,14.176152 L83.9976306,14.1785416 L83.9976306,14.1785416 Z M20.5995713,47.8931459 L14.6902855,47.8931459 L14.6902855,14.1092437 L20.5142728,14.1092437 C31.3187408,14.1092437 37.1450976,20.1596639 37.1450976,30.9175594 C37.1427282,42.6814688 31.8257926,47.8931459 20.5995713,47.8931459 L20.5995713,47.8931459 Z"></path>
        </g>
    </g>
</svg>