<svg xmlns="http://www.w3.org/2000/svg" width="500" height="500" viewBox="0 0 500 500"><path fill="#211E1E" d="M237.155278 68.3165791C237.066978 67.7866877 237.066978 67.3254888 239.706613 66.5012153 242.336426 65.6867538 248.734372 63.5181299 252.62022 61.3691302 256.506094 59.2005063 257.153731 58.8963095 258.066317 59.5047031 258.978902 60.1032821 258.713979 61.575198 258.713979 62.615354L258.713979 73.1542794C260.136817 70.8188388 264.807713 63.0471164 268.516938 60.7607391 271.431343 58.9551874 272.46167 58.8079951 274.267221 58.7687439 276.435843 58.7294928 281.558133 60.064031 281.783818 65.4708739 281.960441 69.7001806 278.839971 71.397791 276.857795 71.1328478 275.268131 70.9071532 274.129836 69.4450495 273.187809 67.9731311 272.235985 66.4815884 270.724823 65.5984394 269.213636 66.108704 267.702474 66.6287808 259.234054 72.1239381 258.753218 79.9349116 258.409767 85.6852 258.753218 103.613151 258.753218 103.613151 258.753218 106.331291 259.793366 107.381259 261.010164 108.107406 262.217139 108.843363 266.662326 108.882616 267.908539 109.059245 269.174397 109.235874 269.125337 109.530259 269.125337 109.92277 269.125337 110.305469 269.125337 110.49191 268.006661 110.49191L238.23469 110.49191C237.282866 110.49191 236.900152 110.305469 236.900152 109.746141 236.900152 108.970931 238.146391 109.108308 239.098215 108.970931 240.050064 108.843363 245.084005 109.255501 246.526487 106.723802 247.58628 105.065443 247.458717 102.396366 247.458717 102.396366L247.311509 70.9071532C247.311509 68.3656424 246.555928 67.9927579 245.85923 67.5904346 245.15271 67.1881087 243.984973 66.9722287 241.521962 67.8063145 239.196336 68.5717101 237.596875 69.288045 237.155278 68.3165791M133.031869 68.3263912C132.629546 67.5511809 133.375317 67.050731 135.583193 66.4717763 138.046201 65.8143193 143.443229 64.1755843 147.721602 61.7518293 151.999974 59.337884 152.735933 59.0827529 153.638709 59.3771351 154.551297 59.6813319 154.462983 61.2808158 154.462983 62.5761029L154.462983 103.318769C154.462983 105.605146 154.76718 106.556985 155.797521 107.508825 156.837677 108.460666 159.428251 109.019994 162.794033 109.019994 164.315015 109.019994 164.786028 109.196625 164.786028 109.844268 164.786028 110.49191 164.315015 110.49191 163.706621 110.49191L134.16034 110.49191C133.247749 110.49191 133.031869 110.099399 133.031869 109.716702 133.031869 109.235874 133.434193 108.93168 134.807982 108.93168 135.965892 108.93168 141.313857 109.334003 142.530641 106.556985 143.001655 105.497205 143.227349 104.015477 143.227349 102.631873L143.227349 70.3085742C143.227349 67.8553778 141.323669 66.7661585 139.125606 67.2960499 136.554658 67.8848167 133.561758 69.3371083 133.031869 68.3263912M148.094489 40.1440846C152.107915 40.1440846 155.365759 36.8862414 155.365759 32.8826268 155.365759 28.8692 152.107915 25.6211689 148.094489 25.6211689 144.090874 25.6211689 140.842843 28.8692 140.842843 32.8826268 140.842843 36.8862414 144.090874 40.1440846 148.094489 40.1440846M183.606943 86.3524716C185.069047 99.5702855 192.938896 109.85408 202.692801 108.12703 212.466331 106.399981 217.362909 97.0680257 216.185376 82.1231624 214.978403 66.9231629 207.461812 59.337884 197.344836 60.250472 186.884411 61.2023136 182.135025 73.1248405 183.606943 86.3524716M193.282344 57.9248435C205.872142 55.5697761 223.780467 58.3467937 227.852772 78.0508577 231.915262 97.7549217 218.354 108.244784 206.588475 110.805919 195.087896 113.298367 175.56046 111.522254 172.027859 90.3266472 168.848521 71.2996645 182.655102 59.9070265 193.282344 57.9248435M44.2262014 107.302757 51.5269104 107.302757C78.6886878 107.302757 85.9795846 104.780873 95.5372344 92.0831356 105.094882 79.3853959 106.233164 61.1532503 106.233164 54.9908214 106.233164 48.8283976 104.594429 33.3634549 95.036782 20.2830162 85.46932 7.20257989 69.5039249 3.80735646 55.5403397 3.80735646L44.167326 3.80735646C41.4688107 3.80735646 41.331433 5.00451698 41.331433 6.88857091L41.331433 104.908438C41.331433 107.047626 42.0870165 107.302757 44.2262014 107.302757M0 109.598949C0 108.607856 1.28547241 108.441039 2.48263293 108.401788 16.3088405 108.009277 18.8896025 107.528451 20.4694596 105.889716 21.3329843 104.986941 22.5988349 104.250984 22.5988349 97.8432361L22.5988349 9.68521282C22.5988349 1.76629804 12.9823072 3.02233399 6.19186535 2.32562844 3.80735897 2.0901217 3.61110336 1.76629804 3.61110336 1.06959249 3.61110336.382696569 4.06249002.0490632763 5.30871382 0L61.0158701 0C122.26725 0 125.397525 44.7757172 125.397525 56.7178709 125.397525 82.3782934 108.431227 110.599851 72.9678385 110.599851L1.78592486 110.599851C.912587992 110.599851 0 110.482098 0 109.598949" transform="translate(110.01 193.35)"/></svg>