<svg xmlns="http://www.w3.org/2000/svg" width="500" height="500" viewBox="0 0 500 500"><g fill="none" fill-rule="evenodd"><polygon fill="#000" points="248.532 127.135 252.417 139.095 264.992 139.095 254.819 146.486 258.705 158.445 248.532 151.054 238.358 158.445 242.245 146.486 232.071 139.095 244.646 139.095"/><polygon fill="#000" points="238.358 366.135 242.245 354.176 232.071 346.785 244.646 346.785 248.532 334.826 252.417 346.785 264.992 346.785 254.819 354.176 258.705 366.135 248.532 358.744"/><polygon fill="#000" points="148.572 242.94 161.147 242.94 150.974 250.332 154.86 262.29 144.687 254.899 134.513 262.29 138.399 250.332 128.226 242.94 140.801 242.94 144.687 230.981"/><polygon fill="#000" points="186.436 172.358 190.322 160.399 180.149 153.007 192.723 153.007 196.609 141.048 200.495 153.007 213.069 153.007 202.896 160.399 206.782 172.358 196.609 164.967"/><polygon fill="#000" points="158.599 179.058 162.485 191.018 175.06 191.018 164.886 198.409 168.772 210.368 158.599 202.976 148.426 210.368 152.312 198.409 142.139 191.018 154.713 191.018"/><polygon fill="#000" points="158.599 282.903 162.485 294.863 175.06 294.863 164.886 302.254 168.772 314.213 158.599 306.822 148.426 314.213 152.312 302.254 142.139 294.863 154.713 294.863"/><polygon fill="#000" points="190.322 340.264 180.149 332.872 192.723 332.872 196.609 320.913 200.495 332.872 213.069 332.872 202.896 340.264 206.782 352.223 196.609 344.832 186.436 352.223"/><polygon fill="#000" points="352.377 254.899 342.204 262.29 346.09 250.332 335.916 242.94 348.491 242.94 352.377 230.981 356.262 242.94 368.837 242.94 358.664 250.332 362.55 262.29"/><polygon fill="#000" points="304.34 153.007 316.914 153.007 306.742 160.399 310.627 172.358 300.454 164.967 290.281 172.358 294.167 160.399 283.994 153.007 296.568 153.007 300.454 141.048"/><polygon fill="#000" points="338.464 179.058 342.35 191.018 354.925 191.018 344.751 198.409 348.637 210.368 338.464 202.976 328.291 210.368 332.177 198.408 322.004 191.018 334.578 191.018"/><polygon fill="#000" points="342.35 294.863 354.925 294.863 344.751 302.254 348.637 314.213 338.464 306.822 328.291 314.213 332.177 302.253 322.004 294.863 334.578 294.863 338.464 282.903"/><polygon fill="#000" points="304.34 332.872 316.914 332.872 306.742 340.264 310.627 352.223 300.454 344.832 290.281 352.223 294.167 340.264 283.994 332.872 296.568 332.872 300.454 320.913"/></g></svg>