<svg xmlns="http://www.w3.org/2000/svg" width="500" height="500" viewBox="0 0 500 500"><path d="M212.858114 94.2564244C206.269994 92.1638491 200.920864 87.8235011 198.285098 82.4743714 193.168764 72.3193022 195.80453 55.653711 203.944622 47.4386066 209.448949 41.8566811 213.789297 39.9193029 220.998207 39.9193029 230.144494 39.9969015 235.338427 43.5612636 239.290782 52.5549405 240.299563 54.7251145 241.460956 56.5848941 241.926547 56.5848941 242.31454 56.5848941 242.702533 57.2832814 242.702533 58.1342793 242.702533 59.606066 242.159343 59.6836646 224.177162 59.6836646L205.574193 59.6836646 205.108601 63.0954161C203.714413 72.0089078 208.597951 83.1727587 215.108473 86.116332 221.696594 89.1400905 229.681489 87.5105201 235.571222 81.9311812 237.818995 79.7610073 238.206988 79.6058101 239.213183 80.6921904 240.995364 82.3967728 240.144366 83.6383503 234.329645 88.0562969 226.189552 94.1788259 218.980643 96.2739879 212.858114 94.2564244ZM229.058114 54.1043257C227.275933 48.1344073 223.864181 44.9580382 219.291038 44.9580382 214.873091 44.9580382 211.616537 46.8178179 209.135968 50.5399637 205.724217 55.8114948 205.646618 55.8114948 218.359854 55.8114948L229.598717 55.8114948 229.055527 54.1069124 229.058114 54.1043257ZM78.8349974 93.6356357C72.402074 92.2414476 69.2231183 87.5907053 70.1543014 81.0775967 70.9302874 75.8836642 74.4170508 73.558293 86.8974912 69.8387338 97.7483611 66.6597781 96.9749618 67.3581655 96.9749618 60.2268547 96.9749618 48.2896045 91.3930364 42.707679 84.0289299 47.2808228 81.9363545 48.5198137 81.4707629 49.2957996 81.4707629 51.4659736 81.4707629 53.8689433 81.1603685 54.1793377 76.742422 56.1167159 74.184255 57.2030962 71.7036867 57.9764955 71.3156937 57.6661012 69.5335127 56.5797209 70.694905 52.9377602 73.9514592 49.9140017 84.4169228 39.8365311 92.5544286 38.0543501 100.306528 43.9440833 105.966052 48.3620299 106.506656 50.1442109 106.972247 68.9049641L107.437839 85.6481539 109.918407 85.8809496C111.312595 86.0361468 113.25256 85.5705553 114.413952 84.7945693 116.196133 83.6305904 116.584126 83.6305904 117.592908 84.6393721 118.60169 85.6481539 118.291295 86.1111588 114.646748 88.8245229 108.213825 93.6304625 106.506656 94.5616456 104.103686 94.5616456 101.778315 94.5616456 97.7483611 91.3826899 97.7483611 89.4453117 97.7483611 87.5855321 96.3541731 87.5855321 94.1064005 89.3677131 89.6108553 93.1648709 84.0289299 94.7168428 78.8349974 93.6304625L78.8349974 93.6356357ZM91.082642 86.504325C95.8885815 84.4893482 96.9749618 82.55197 96.9749618 76.11646 96.9749618 71.776112 96.742166 70.4569359 96.0437787 70.7673303 95.5005886 71.0001261 92.4018181 72.3167156 89.2228624 73.6358916 86.0439067 74.9524811 82.6347418 76.8924459 81.7035587 77.9762396 76.5096262 83.7133623 83.1753454 89.7582927 91.082642 86.5017384L91.082642 86.504325ZM388.11971 91.6982575C387.886914 90.0712737 387.498921 86.4267264 387.188527 83.5581651L386.722935 78.286634 388.660314 78.286634C390.364896 78.286634 390.830488 78.8298241 391.606473 81.3879911 392.149664 83.1701721 393.699049 85.5731419 395.173422 86.8147194 397.343596 88.7520976 398.429976 89.1400905 401.994338 89.1400905 407.498665 89.1400905 410.289628 86.9699166 410.289628 82.6295686 410.289628 78.5220164 408.585046 76.5070396 400.05696 70.3043254 390.677877 63.6386062 388.430104 60.3820519 388.430104 53.87153 388.430104 47.9792101 390.367483 44.7252425 395.406218 41.8566811 399.901763 39.3761128 407.886658 39.143317 413.465997 41.3910896L417.107958 42.8628762 417.107958 49.2957996C417.107958 55.1881194 416.952761 55.8063216 415.636171 55.8063216 414.549791 55.8063216 414.009187 55.0303356 413.698793 53.0929574 413.388399 51.6211708 411.99421 49.218201 410.597436 47.6662291 408.349663 45.340858 407.496079 44.952865 404.397308 44.952865 400.367355 44.952865 397.421195 47.0454404 396.56761 50.5347905 395.636427 54.1767511 397.421195 56.2719131 406.489884 62.4720407 411.373422 65.8061936 416.179361 69.68095 417.110544 71.0751381 419.047923 73.9436994 419.901507 79.6782354 419.125521 84.02117 418.116739 89.2927011 410.289628 94.5642322 403.468712 94.5642322 402.074524 94.5642322 399.128364 94.1762392 396.95819 93.6330491 393.856833 92.9346617 392.617842 92.9346617 391.453863 93.6330491 389.128492 95.1048357 388.585302 94.797028 388.11971 91.6956709L388.11971 91.6982575ZM.235382399 91.3102645C.390579585 89.9936751 1.3217627 89.3728863 4.3429346 88.674499 6.43550999 88.1313088 8.60568398 87.1251137 9.14887413 86.3491278 10.6982594 84.2565524 11.0862523 76.504453 10.775858 50.6149757 10.5430622 26.7404752 10.4654636 25.5764963 8.91607835 23.4839209 7.90729664 22.0897328 6.12511562 21.0809511 3.87734304 20.537761 1.31917608 19.9169722.465591559 19.2987701.465591559 18.2123898.465591559 16.7406032 1.1639789 16.6630046 16.5879926 16.4302088L32.632795 16.2750116 32.632795 18.2123898C32.632795 19.761775 32.2448021 20.149768 30.7730154 20.149768 29.8418323 20.149768 27.9820527 20.537761 26.7430618 20.9257539 22.1699181 22.5527378 22.1699181 22.3975406 21.9371223 55.0329222 21.7043265 82.626982 21.7819251 84.9523531 23.0235026 85.8059377 24.728085 87.0449285 44.0294417 87.2001257 48.2145925 86.0387334 50.3071679 85.4179447 51.9341518 83.946158 55.578699 79.1402185 58.0592674 75.728467 60.5398357 72.9400909 61.0054273 72.8624923 61.3934203 72.8624923 62.3996154 73.3280839 63.2531999 73.871274 64.5697893 74.8800557 64.4921907 75.1878635 61.9366104 79.9162044 60.3872252 82.6295686 58.1394526 86.6595222 56.8978751 88.7520976L54.6501025 92.626854 27.286252 92.8596498 0 93.014847.232795779 91.3102645.235382399 91.3102645ZM154.335842 91.0774688C154.335842 89.3728863 154.646236 89.1400905 157.049206 89.1400905 163.019124 89.1400905 163.870122 85.8059377 163.482129 63.5610076L163.249334 49.2207876 158.443394 48.9879918C154.180645 48.7551961 153.559856 48.5999989 153.559856 47.2058108 153.559856 46.0418319 154.876445 45.0356368 158.598591 43.3310544L163.637327 40.9280846 163.637327 33.3311824C163.637327 25.1134914 165.26431 18.1373778 167.977675 14.728213 174.720992 6.04751702 184.255273 0 191.076189 0 194.565539 0 203.168637 2.94615992 203.168637 4.18515079 203.168637 4.96113672 198.362697 11.6268559 197.819507 11.6268559 197.431514 11.6268559 195.106143 10.6180742 192.625574 9.3014847 190.067407 8.06249383 186.810853 6.97611352 185.261468 6.97611352 181.309113 6.97611352 177.586967 9.76707625 175.261596 14.34022 173.634612 17.7519715 173.324218 19.3789553 173.091422 29.6116231L172.781027 41.0056832 180.37793 41.238479 188.052431 41.4712748 188.285226 45.190834 188.518022 48.8327947 180.765923 48.8327947 172.936225 48.8327947 172.936225 67.0477711 172.936225 85.3403461 174.873603 87.2001257C176.500587 88.9047081 177.43177 89.1375039 181.849716 89.1375039 186.733254 89.1375039 186.888452 89.2151025 186.888452 91.0748821L186.888452 93.0122603 170.610853 93.0122603 154.333255 93.0122603 154.333255 91.0748821 154.335842 91.0774688ZM248.902661 91.0774688C248.902661 89.5280835 249.290654 89.1400905 250.76244 89.1400905 256.807371 89.1400905 257.428159 87.1251137 257.428159 67.9789542 257.428159 56.1969011 257.195364 51.9341518 256.496976 51.313363 255.953786 50.92537 254.016408 50.1493841 252.234227 49.6863792 246.807499 48.2145925 247.81628 46.5850221 256.652174 42.7102657 260.914923 40.850486 264.869865 39.53131 265.565665 39.8417043 266.41925 40.1520987 266.729644 41.4686882 266.729644 44.9580382 266.729644 47.5162052 266.884841 49.6087806 267.040039 49.6087806 267.195236 49.6087806 269.753403 48.2145925 272.777161 46.5850221 281.147463 42.0118783 284.714411 40.8478994 289.132358 41.2358924 293.627903 41.7014839 298.201047 44.7252425 298.977033 47.6688158 299.209829 48.7551961 299.753019 49.606194 300.141012 49.606194 300.529005 49.606194 304.326163 47.9016115 308.588912 45.7314375 312.774063 43.6388622 317.657601 41.7014839 319.362183 41.3910896 326.260698 40.3047093 331.532229 43.1732706 334.478389 49.6087806 335.950176 52.7877363 336.105373 54.4923187 336.105373 69.4533275 336.105373 88.2890926 336.26057 88.8322828 342.227902 89.2978743 344.863668 89.4530715 345.484456 89.8410645 345.639653 91.3128511L345.872449 93.0174336 331.144236 93.0174336 316.338425 93.0174336 316.338425 91.0800554C316.338425 89.3754729 316.648819 89.1426772 319.051789 89.1426772 322.848947 89.1426772 325.329515 86.5069116 326.027902 81.9337679 326.338297 79.9187911 326.415895 73.0202761 326.260698 66.5071675 325.950304 53.2533278 325.096719 50.5399637 320.989167 48.8327947 317.655014 47.4386066 312.075675 48.2120059 306.648947 50.8477715L301.998205 53.095544 301.765409 69.5283394 301.610212 85.8835363 303.625189 87.5105201C304.789167 88.4417032 306.49375 89.1375039 307.499945 89.1375039 308.971732 89.1375039 309.359725 89.5254969 309.359725 91.0748821L309.359725 93.0122603 296.183483 93.0122603 283.007242 93.0122603 283.007242 91.0748821C283.007242 89.4478983 283.395235 89.1375039 285.332614 89.1375039 286.8044 89.1375039 288.433971 88.4391166 289.595363 87.2001257 291.532741 85.3403461 291.532741 85.1851489 291.532741 71.5433162 291.532741 55.3433166 291.144748 52.6299525 288.819377 49.9941869 285.950816 46.9704284 283.392649 46.7376326 276.571732 49.1406024 265.951072 52.782563 266.727058 51.3107764 266.804656 68.1315648 266.882255 86.4241398 267.425445 88.2089074 272.619377 89.0599053 274.944749 89.4478983 275.720734 89.9134899 275.875932 91.3076779L276.108727 93.0122603 262.544493 93.0122603 248.902661 93.0122603 248.902661 91.0748821 248.902661 91.0774688ZM351.376776 91.3102645C351.531973 90.0712737 352.307959 89.4504849 354.322936 89.0624919 359.594467 87.9761116 359.827263 87.1251137 359.594467 67.9013556L359.361671 50.7701729 355.564514 49.8389897C353.549537 49.2957996 351.612159 48.7526094 351.456961 48.5224003 350.292982 47.3584214 352.543342 45.8090361 359.674652 42.707679 366.107576 39.9167163 367.737146 39.5287233 368.665743 40.3047093 369.674524 41.1582938 369.829722 44.6450572 369.829722 63.558421L369.829722 85.9611348 371.844698 87.5105201C373.008677 88.4417032 375.023654 89.1375039 376.495441 89.1375039 378.820812 89.1375039 379.131206 89.3702997 379.131206 91.0748821L379.131206 93.0122603 365.101381 93.0122603 351.149154 93.0122603 351.381949 91.3076779 351.376776 91.3102645ZM360.367866 19.9971574C354.785941 15.7344081 360.445465 5.88973322 366.567994 9.37649667 367.731973 9.99728541 369.126161 11.4690721 369.824548 12.633051 370.910929 14.5704292 370.83333 14.9584221 369.436555 17.6717863 368.119966 20.1523546 367.499177 20.5403476 364.785813 20.7731434 363.081231 20.9283406 361.066254 20.5403476 360.367866 19.9971574Z" transform="translate(41 203.345)"/></svg>