<?xml version="1.0" encoding="UTF-8"?>
<svg width="500px" height="500px" viewBox="0 0 500 500" version="1.1" xmlns="http://www.w3.org/2000/svg" xmlns:xlink="http://www.w3.org/1999/xlink">
    <title>logo-white/svg/gaite-lyrique</title>
    <g id="gaite-lyrique" stroke="none" stroke-width="1" fill="none" fill-rule="evenodd">
        <g id="logo-gaite" transform="translate(26.000000, 217.000000)" fill="#000000" fill-rule="nonzero">
            <path d="M435.655917,29.292731 L435.655917,23.2803135 C435.655917,22.2492415 436.162496,21.5071834 437.170303,21.5071834 C438.178111,21.5071834 438.68469,22.2437144 438.68469,23.2803135 L438.68469,29.292731 L435.655917,29.292731 Z M437.100738,55.3009562 C444.387275,55.3009562 449,51.3182335 449,43.9744975 L449,39.2497165 L438.68469,39.2497165 L438.68469,45.0057478 C438.68469,45.9660373 438.178111,46.740723 437.170303,46.740723 C436.162496,46.740723 435.655917,45.9660373 435.655917,45.0057478 L435.655917,37.0345966 L449,37.0345966 L449,24.7861814 C449,17.1479044 444.381923,13.0177861 437.100738,13.0177861 C429.821336,13.0177861 425.310283,17.2242854 425.310283,24.7861814 L425.310283,44.0073035 C425.310283,51.0181655 429.778527,55.2956078 437.100738,55.2956078 M405.944328,55.3009562 C409.080125,55.3009562 411.534538,53.2714399 412.797418,49.8777993 L412.797418,54.5644253 L422.568691,54.5644253 L422.568691,13.7597907 L412.25338,13.7597907 L412.25338,44.6019128 C412.25338,46.075153 411.497079,46.5551194 410.81391,46.5551194 C410.093284,46.5551194 409.481465,46.1133078 409.481465,44.8584773 L409.481465,13.7597907 L399.166154,13.7597907 L399.166154,47.106225 C399.166154,52.6058701 401.54565,55.2956078 405.944328,55.2956078 M382.900321,45.0057478 L382.900321,23.3131195 C382.900321,22.3146752 383.406901,21.4690286 384.37725,21.4690286 C385.422516,21.4690286 385.854178,22.3200241 385.854178,23.3131195 L385.854178,45.0057478 C385.854178,46.0041921 385.385057,46.8498387 384.37725,46.8498387 C383.369443,46.8498387 382.900321,45.998665 382.900321,45.0057478 Z M379.363185,55.3009562 C382.393742,55.3009562 384.66443,53.7515847 385.854178,50.9090498 L385.854178,65.9946511 L396.169488,65.9946511 L396.169488,13.7597907 L385.854178,13.7597907 L385.854178,17.6334692 C384.771454,15.0146391 382.536441,13.0232419 379.363185,13.0232419 C375.069748,13.0232419 372.297831,15.7893783 372.297831,22.3909849 L372.297831,46.6260803 C372.297831,52.7857684 375.401521,55.2956078 379.363185,55.2956078 M358.597002,6.74894674 C358.597002,10.0661352 361.012172,12.5431151 364.260344,12.5431151 C367.508516,12.5431151 369.955794,10.071591 369.955794,6.74894674 C369.955794,3.4263025 367.540624,0.922047352 364.260344,0.922047352 C360.980065,0.922047352 358.597002,3.31718681 358.597002,6.74894674 Z M359.09823,54.5590765 L369.411756,54.5590765 L369.411756,13.7597907 L359.09823,13.7597907 L359.09823,54.5590765 Z M334.937609,54.5590765 L345.252919,54.5590765 L345.252919,24.7533754 C345.252919,23.6458154 345.759498,23.0948881 346.478341,23.0948881 C347.129402,23.0948881 347.487932,23.4985449 347.487932,24.3497186 L347.487932,35.528907 L357.007699,35.528907 L357.007699,21.0651936 C357.007699,15.6802626 355.241806,13.2469291 351.668995,13.2469291 C348.60098,13.2469291 346.078785,15.3856324 344.746339,19.4067063 L344.746339,13.7597907 L334.937609,13.7597907 L334.937609,54.5590765 Z M315.680461,56.3703613 L315.680461,66 L325.91907,66 L325.91907,56.3703613 C325.91907,54.417155 326.677156,53.6043143 329.311725,53.6043143 L332.991559,13.7597907 L322.606684,13.7597907 L320.767658,45.4477377 L320.698093,45.4477377 L318.821609,13.7597907 L308.361817,13.7597907 L312.218241,53.6043143 C314.560278,53.6043143 315.680461,54.417155 315.680461,56.3703613 Z M289.142127,54.5590765 L309.119902,54.5590765 L309.119902,44.967593 L299.962233,44.967593 L299.962233,1.65859435 L289.147479,1.65859435 L289.147479,54.5590765 L289.142127,54.5590765 Z M239.80951,29.0689725 C240.278631,25.0862496 242.618885,22.6473711 246.694708,22.6473711 C250.768746,22.6473711 252.934194,25.3754418 253.041218,29.0689725 L239.804159,29.0689725 L239.80951,29.0689725 Z M235.696229,10.7372146 L256.394631,10.7372146 L261.121515,0.441927591 L237.824219,0.441927591 L235.696229,10.7372146 Z M246.443202,55.9283718 C262.923082,55.9283718 275.50908,50.5052144 277.312431,40.1772 L253.153593,40.1772 C252.682689,43.461725 250.160495,45.305816 246.769624,45.305816 C241.862583,45.305816 239.916534,41.9505083 239.702486,37.5584232 L277.494371,37.5584232 L277.494371,35.6052167 C277.494371,20.3668174 265.051072,12.4012647 246.807083,12.4012647 C227.07903,12.4012647 215.718454,20.9234501 215.718454,34.4976566 C215.718454,48.0718633 228.161754,55.9338986 246.443202,55.9338986 M198.482272,55.5191876 C205.00894,55.5191876 209.698366,54.2262026 212.545199,52.7531405 L212.545199,42.0540969 C210.923789,42.5723965 209.122221,42.9760532 207.063797,42.9760532 C203.601577,42.9760532 201.436129,41.6502619 201.436129,37.5147413 L201.436129,25.7464709 L212.614764,25.7464709 L212.614764,13.7597907 L201.436129,13.7597907 L201.436129,0.851120366 L178.033593,5.5759352 L178.033593,13.7652465 L169.8477,13.7652465 L169.8477,25.7518196 L178.033593,25.7518196 L178.033593,40.5100741 C178.033593,51.907494 187.91724,55.5247148 198.482272,55.5247148 M133.570915,10.7372146 L149.656056,10.7372146 L154.237209,5.27584922 L158.781083,10.7372146 L174.647539,10.7372146 L166.818391,0.109117943 C158.306433,0.845664581 149.90667,0.845664581 141.394889,0.109117943 L133.570915,10.7317588 L133.570915,10.7372146 Z M142.189363,54.5590765 L165.59172,54.5590765 L165.59172,13.7597907 L142.189363,13.7597907 L142.189363,54.5590765 Z M100.755458,40.5428802 C100.755458,38.0330409 102.339588,36.8546983 106.707408,35.9707186 L112.1526,35.0104291 L112.1526,39.5116299 C112.1526,43.0525412 108.942064,44.4927971 105.987494,44.4927971 C103.032746,44.4927971 100.760809,43.1670057 100.760809,40.548229 M93.8329802,55.9283718 C101.587568,55.9283718 108.29136,53.7515847 112.766024,48.8085725 C113.053919,50.9853592 113.448658,52.867605 113.886029,54.5644253 L137.144261,54.5644253 C136.136275,50.6908184 135.560309,47.848283 135.560309,43.9418698 L135.560309,29.9256733 C135.560309,17.0114919 122.936496,12.4012647 107.214165,12.4012647 C91.4916568,12.4012647 79.1931959,16.9405667 78.2545973,27.0831381 L102.307481,27.0831381 C102.595554,24.1696421 104.398191,22.6584253 107.534166,22.6584253 C110.344611,22.6584253 112.147249,24.0986812 112.147249,26.9358676 L112.147249,28.3379687 L95.992899,29.5546443 C81.7478537,30.6240495 76.5905555,34.7921977 76.5905555,42.9106195 C76.5905555,51.0290411 83.1559302,55.9338986 93.8276291,55.9338986 M29.5354043,56.2612457 C38.2285903,56.2612457 45.8017723,53.8660492 50.0204716,48.8467272 L50.0204716,54.5644253 L71.838699,54.5644253 L71.838699,25.5335883 L33.3914716,25.5335883 L33.3914716,37.0782786 L47.3859028,37.0782786 C46.5912512,40.548229 43.4552756,43.1288509 38.3352574,43.1288509 C30.7247954,43.1288509 26.5062743,37.8912974 26.5062743,27.9669396 C26.5062743,17.3443127 30.330056,12.4339994 37.3219205,12.4339994 C42.0846576,12.4339994 45.1458949,15.2001357 45.4712471,19.8485179 L71.758788,19.8485179 C70.569397,7.45276084 57.3749686,0 36.7086741,0 C14.6770771,0 0,9.81516915 0,29.2164213 C0,46.9589544 10.9278017,56.2557189 29.5354043,56.2557189" id="Shape"></path>
        </g>
    </g>
</svg>