<?xml version="1.0" encoding="UTF-8"?>
<svg width="500px" height="500px" viewBox="0 0 500 500" version="1.1" xmlns="http://www.w3.org/2000/svg" xmlns:xlink="http://www.w3.org/1999/xlink">
    <title>logo-white/svg/greenly</title>
    <g id="greenly" stroke="none" stroke-width="1" fill="none" fill-rule="evenodd">
        <g id="Group" transform="translate(32.000000, 196.000000)" fill="#000000">
            <polygon id="Path" points="401.048 53.542208 387.9364 20 366 20 391.4408 74.9683237 376.6436 108 397.5416 108 437 20 416.104 20"></polygon>
            <path d="M365,88 L365,71.5048972 L364.468548,71.5048972 C360.935887,71.5048972 359.365726,69.6721079 359.365726,66.0065295 L359.365726,0 L340,0 L340,67.1845495 C340,80.2763044 347.589113,88 360.543145,88 L365,88 Z" id="Path"></path>
            <path d="M310.472671,19 C304.706051,19 296.937488,20.0483627 293.049812,27.1234888 L293.049812,19 L274,19 L274,87 L293.049812,87 L293.049812,47.1698879 C293.049812,38.5221572 298.103591,33.9365747 304.972019,33.9365747 C310.544155,33.9365747 314.950188,38.1292584 314.950188,45.9905051 L314.950188,87 L334,87 L334,42.5839824 C334,27.2545089 323.820559,19 310.472671,19 Z" id="Path"></path>
            <path d="M161.654758,73.4320907 C153.928816,73.4320907 148.690753,69.3222015 147.642737,59.1099701 L193.86925,59.1099701 C194,57.8645859 194,56.2454651 194,55.0000809 C194,34.8242096 180.774092,21 161.524008,21 C141.750118,21 128,34.948748 128,55.0000809 C128,75.4249481 142.012021,89 162.571621,89 C176.976295,89 189.02384,81.9010269 194,67.4543274 L177.762004,61.9744751 C174.488013,70.1942536 169.24995,73.4320907 161.654758,73.4320907 Z M161.524008,35.5714401 C167.122037,35.5714401 172.653884,38.7966576 174.487206,45.0022222 L148.165736,45.0022222 C149.868309,38.921196 155.139866,35.5714401 161.524008,35.5714401 Z" id="Shape"></path>
            <path d="M234.654552,73.4320907 C226.928658,73.4320907 221.690627,69.3222015 220.64302,59.1099701 L266.868847,59.1099701 C267,57.8645859 267,56.2454651 267,55.0000809 C267,34.8242096 253.773769,21 234.523803,21 C214.750034,21 201,34.948748 201,55.0000809 C201,75.4249481 215.011935,89 235.571409,89 C249.975995,89 262.023467,81.9010269 267,67.4543274 L250.7617,61.9744751 C247.488132,70.1942536 242.250101,73.4320907 234.654552,73.4320907 Z M234.523803,35.5714401 C240.121798,35.5714401 245.654014,38.7966576 247.487325,45.0022222 L221.166017,45.0022222 C222.868175,38.921196 228.1397,35.5714401 234.523803,35.5714401 Z" id="Shape"></path>
            <path d="M35.9543563,108 C60.8892269,108 71.7418051,99.8892202 71.7418051,87.7230506 C71.7418051,76.1714433 60.7601295,68.4294811 39.8302371,68.4294811 L35.9543563,68.4294811 C29.6237456,68.4294811 17.5706811,68.6571859 17.5706811,64.9702127 C17.5706811,60.7921509 27.4274104,61.1786075 34.4039879,61.1786075 C53.0082879,61.1786075 65.7985267,54.0512077 65.7985267,42.3765276 C65.7985267,37.3380785 63.731369,33.8971307 59.7265506,31.1935374 C64.119061,30.3333105 68.3824739,29.2272987 72,27.7525896 L66.7102025,15 C58.0542791,19.3011747 46.7864308,20.590994 35.6757376,20.590994 C17.9758792,20.590994 5.07644704,26.6465778 5.07644704,40.2874967 C5.07644704,46.923407 8.17718368,51.2245416 13.3450381,54.5426972 C5.8516312,56.6317281 0,61.0378956 0,67.6738059 C0,73.6955548 5.07644704,77.7689847 10.7610909,80.2268332 C3.91369878,82.9304264 0.0378157175,87.1088891 0.0378157175,92.8844923 C0.0378157175,100.503783 9.46911731,108 35.9543563,108 Z M35.6959615,47.6610422 C27.5565878,47.6610422 23.680707,44.7113033 23.680707,40.1644238 C23.680707,35.6175845 27.5565878,32.4224216 35.6959615,32.4224216 C43.7060779,32.4224216 47.323604,35.6175845 47.323604,40.1644238 C47.323604,44.7113033 43.7060779,47.6610422 35.6959615,47.6610422 Z M35.8251389,95.0965961 C24.5850685,95.0965961 20.450793,93.1302371 20.450793,89.5663367 C20.450793,86.0028373 24.5850685,84.0364783 35.8251389,84.0364783 C47.0654091,84.0364783 51.0702275,86.0028373 51.0702275,89.5663367 C51.0702275,93.1302371 47.0654091,95.0965961 35.8251389,95.0965961 Z" id="Shape"></path>
            <path d="M98,37.3494625 L98,55.2622142 L98,89 L78,89 L78,21 L80.9931659,21 C90.3856442,21 98,28.3199101 98,37.3494625 Z" id="Path"></path>
            <path d="M109.213493,43.8784898 C113.926203,43.3387654 125.959643,40.4035573 132,24.6304961 C125.698642,18.5359927 115.97766,17.1002446 108.067791,21.7499503 C101.498282,25.6116989 98,32.6437402 98,39.8849348 L98,43.9973915 L105.860608,43.998609 L105.861403,43.998609 C106.982077,44.002667 108.098778,44.0063193 109.213493,43.8784898 Z" id="Path"></path>
        </g>
    </g>
</svg>