<?xml version="1.0" encoding="UTF-8"?>
<svg width="500px" height="500px" viewBox="0 0 500 500" version="1.1" xmlns="http://www.w3.org/2000/svg" xmlns:xlink="http://www.w3.org/1999/xlink">
    <title>logo-white/svg/karuna</title>
    <g id="karuna" stroke="none" stroke-width="1" fill="none" fill-rule="evenodd">
        <g id="Group-2" transform="translate(52.000000, 217.000000)" fill="#000000" fill-rule="nonzero">
            <path d="M25.355708,64.2625584 C24.8383146,63.7255121 24.8853503,63.4569889 25.4968153,62.8751887 C26.2023518,62.2038807 26.3434591,62.2038807 27.1430671,62.9199425 C27.9897109,63.5912505 28.0837825,63.5912505 28.3659971,62.9646964 C28.5071044,62.5619116 28.6482117,60.3242185 28.6482117,57.9522638 C28.6482117,54.1034316 28.5541401,53.7006468 27.7074963,53.4768775 C25.8260657,53.0293388 26.6727095,52 28.8833905,52 L31,52 L31,57.1019404 C31,61.9801114 30.9529642,62.2933884 29.7770701,63.5912505 C28.4130328,65.1576357 26.3434591,65.4709127 25.355708,64.2625584 L25.355708,64.2625584 Z" id="Path"></path>
            <path d="M244.971696,64.3143352 C243.882689,63.5593068 243.655812,61.8271829 244.563318,61.0721546 C244.92632,60.805674 245.107822,60.0506456 244.971696,59.2956172 C244.880945,58.5850023 245.017071,57.8743873 245.289323,57.741147 C245.652325,57.5190799 245.561575,57.2081858 245.107822,56.7640515 C244.15494,55.8313694 244.245691,53.743938 245.289323,52.8556693 C246.287579,51.9674006 246.832083,51.9229872 252.730872,52.0562275 L256.678523,52.1450544 L256.678523,55.9201962 C256.678523,59.0291366 256.814649,59.7397515 257.495278,60.095059 C258.765787,60.805674 257.495278,61.5607023 255.271889,61.3830486 C253.411501,61.2498083 253.23,61.3386352 252.821623,62.5822113 C252.594746,63.2928262 251.868741,64.1366815 251.233487,64.4475755 C249.645352,65.2470173 246.196829,65.1581905 244.971696,64.3143352 L244.971696,64.3143352 Z M250.053729,63.4260665 C250.462107,63.2928262 250.779734,62.8042785 250.779734,62.3601441 C250.779734,61.4718755 248.284093,60.805674 246.968209,61.2942217 C246.242204,61.5607023 245.969952,62.8486919 246.559831,63.3816531 C246.922834,63.781374 249.100848,63.781374 250.053729,63.4260665 L250.053729,63.4260665 Z M253.956005,56.7640515 C253.956005,53.5662842 253.91063,53.4774574 252.821623,53.4774574 C251.914117,53.4774574 251.68724,53.6995245 251.68724,54.5433798 C251.68724,55.9646097 250.008354,57.9188008 248.828596,57.9188008 C246.559831,57.9632142 246.695957,58.6738291 248.964722,58.8958963 C250.23523,59.0291366 251.641865,59.4288575 252.004867,59.8285784 C253.366126,61.1609814 253.956005,60.2727127 253.956005,56.7640515 L253.956005,56.7640515 Z M248.873971,54.9431007 C248.737846,53.0777365 247.875715,52.5447753 247.14971,53.9215917 C246.469081,55.1651679 246.968209,56.5863977 248.102591,56.5863977 C248.873971,56.5863977 249.010097,56.3199171 248.873971,54.9431007 L248.873971,54.9431007 Z" id="Shape"></path>
            <path d="M341.458897,64.3275862 C340.495213,63.2068966 341.275338,62.1758621 342.7897,62.5344828 C343.891054,62.7586207 344.258172,62.6241379 344.67118,61.862069 C345.130077,61.0551724 344.946518,60.2931034 343.707495,57.2896552 C342.927369,55.3172414 341.963685,53.6137931 341.642456,53.4793103 C341.275338,53.3448276 341,52.9862069 341,52.6275862 C341,52.1793103 341.642456,52 343.294487,52 C345.038298,52 345.588975,52.1793103 345.588975,52.6724138 C345.588975,53.0310345 345.405416,53.3448276 345.130077,53.3448276 C344.900629,53.3448276 345.038298,54.2413793 345.497195,55.362069 C345.910203,56.4827586 346.3691,57.3793103 346.552659,57.3793103 C346.690329,57.3793103 347.103336,56.5724138 347.424565,55.5862069 C347.883462,54.1965517 347.929352,53.6586207 347.516344,53.2551724 C346.552659,52.3137931 346.919777,52 349.030706,52 C351.325193,52 351.462862,52.1793103 350.223839,53.5241379 C349.764942,54.062069 348.709478,56.0793103 347.929352,58.0517241 C345.864313,62.9827586 344.487621,65 343.110928,65 C342.514362,65 341.780126,64.6862069 341.458897,64.3275862 L341.458897,64.3275862 Z" id="Path"></path>
            <path d="M0,61.3 C0,60.88 0.325776363,60.46 0.698092206,60.32 C1.76850025,59.9 1.72196077,50.4266667 0.605013245,49.6333333 C-0.651552725,48.7 0.372315843,48 2.97852674,48 C7.72555374,48 10.2386857,49.1666667 10.2386857,51.4066667 C10.2386857,52.34 10.4248436,52.4333333 12.6587387,52.34 C14.0083836,52.2933333 15.4511075,52.1533333 15.8699628,51.9666667 C16.661134,51.6866667 18.1503973,52.8066667 18.1503973,53.6933333 C18.1503973,54.02 18.6157922,53.7866667 19.2208054,53.2266667 C23.3628192,49.3066667 28.9940963,54.44 26.2948064,59.6666667 C25.4105563,61.3466667 24.2936088,62 22.1993321,62 C19.4069633,62 17.3126867,59.2 17.7780815,56.0266667 C17.9176999,54.86 17.824621,54.72 16.9403709,54.9066667 C16.3818971,55 15.7768838,54.86 15.6372654,54.58 C14.8460942,53.3666667 14.4272389,54.3 14.4272389,57.1 C14.4272389,59.3866667 14.6133968,60.2266667 15.1253311,60.4133333 C15.497647,60.6 15.8234233,60.9733333 15.8234233,61.3466667 C15.8234233,61.8133333 15.1253311,62 13.2637519,62 C11.3556332,62 10.7040805,61.8133333 10.7040805,61.3466667 C10.7040805,60.9733333 10.9367779,60.5066667 11.1694753,60.3666667 C11.8675675,59.9466667 11.7744885,53.74 11.0763963,53.5066667 C10.75062,53.3666667 9.91290932,53.88 9.21481712,54.58 C8.42364595,55.3266667 7.16707998,55.98 6.05013245,56.1666667 C4.23509271,56.4933333 4.18855323,56.54 4.18855323,58.2666667 C4.18855323,59.6666667 4.42125064,60.1333333 5.11934284,60.3666667 C5.63127713,60.5066667 6.05013245,60.9733333 6.05013245,61.3466667 C6.05013245,61.86 5.35204024,62 3.02506622,62 C0.605013245,62 0,61.86 0,61.3 L0,61.3 Z M23.7816745,59.8533333 C24.3866877,59.1066667 24.5728456,55 24.0143719,54.1133333 C23.5024376,53.32 21.0823846,53.5066667 20.7566082,54.3466667 C20.2912134,55.5133333 20.4308319,58.6866667 20.9427662,59.7133333 C21.5477794,60.7866667 22.9439638,60.88 23.7816745,59.8533333 Z M7.07400102,53.3666667 C7.8186327,51.6866667 6.93438258,49.8666667 5.35204024,49.8666667 C4.2816322,49.8666667 4.18855323,50.0066667 4.18855323,52.2 C4.18855323,54.3933333 4.2816322,54.5333333 5.35204024,54.5333333 C6.14321141,54.5333333 6.70168517,54.16 7.07400102,53.3666667 Z" id="Shape"></path>
            <path d="M34.450456,59.7288882 C33.2197661,58.5717975 33,58.0626776 33,56.3038997 C33,51.027566 38.7139176,48.9448027 40.5159993,53.5268819 C41.1752974,55.1005253 41.1752974,55.2856599 40.4280928,55.8410634 C39.9885607,56.1650488 38.7139176,56.4427506 37.5271808,56.4427506 C35.3295202,56.4427506 35.065801,56.766736 35.8569588,58.3403794 C36.4283505,59.4511865 38.3622919,59.4974701 39.4611222,58.4329466 C40.4280928,57.5072741 41.3511103,58.1552449 40.5599525,59.266052 C39.02159,61.3950989 36.4283505,61.5802334 34.450456,59.7288882 Z M38.4941515,54.4062709 C38.4941515,53.4805983 37.7909001,52.7400603 36.9118359,52.7400603 C36.3404441,52.7400603 35.8569588,52.8326275 35.8569588,52.9251948 C35.8569588,53.017762 35.7250991,53.4343147 35.5932395,53.8508674 C35.3734734,54.4525545 35.6371927,54.5914054 36.9118359,54.5914054 C37.7909001,54.5914054 38.4941515,54.4988382 38.4941515,54.4062709 Z" id="Shape"></path>
            <path d="M42.9820294,60.3232829 C42.5766143,59.9188799 42.3513837,58.6607374 42.3513837,56.5937889 C42.3513837,54.2123048 42.1711992,53.4034989 41.6756919,53.2237643 C41.3153229,53.0440296 41,52.6845603 41,52.325091 C41,51.9656217 41.3153229,51.6960197 41.6756919,51.6960197 C42.1261531,51.6960197 42.3513837,51.2466831 42.3513837,50.3480099 C42.3513837,49.2246683 42.5315682,49 43.4775368,49 C44.4235054,49 44.6036899,49.2246683 44.6036899,50.3030762 C44.6036899,51.4264178 44.8289205,51.6510861 45.8199353,51.7858871 C47.531688,51.9656217 47.6217802,52.864295 45.9550736,53.2237643 L44.5586438,53.4933662 L44.6937822,56.2792533 C44.8289205,58.975273 44.8739667,59.110074 45.9550736,59.110074 C46.7659039,59.110074 47.1262728,58.8404721 47.2163651,58.1215335 C47.3965496,56.7735236 48.1172876,56.8184572 48.6578411,58.2114008 C49.1083023,59.4246097 51.1353779,60.1884819 51.901162,59.4246097 C52.6669461,58.6607374 51.9912542,57.6272632 50.5497783,57.3127275 C48.8830717,56.9532582 47.3064573,55.515381 47.3064573,54.3471058 C47.3064573,53.8528355 47.8019647,52.9541623 48.4326104,52.3700247 C49.3335329,51.4264178 49.8740864,51.2916168 51.4507007,51.4264178 C53.0273151,51.5612188 53.3876841,51.7858871 53.6579608,52.729494 C53.8381453,53.3136316 53.7480531,54.1224375 53.5228224,54.4369731 C53.2074996,54.9312434 52.9822689,54.8863098 52.3966693,54.0775038 C51.6308852,52.9541623 49.5587635,52.6396266 49.5587635,53.6731009 C49.5587635,54.0325702 50.5047321,54.7515088 51.7209775,55.3356464 C53.6129147,56.2792533 53.8381453,56.5937889 53.9732837,58.0765998 C54.1985143,60.5479512 53.0723612,61.0422215 47.8019647,60.9972878 C44.8739667,60.9972878 43.4324907,60.7726195 42.9820294,60.3232829 L42.9820294,60.3232829 Z" id="Path"></path>
            <path d="M57.284984,61.484375 C57.284984,61.203125 57.6132771,60.6875 57.9884692,60.3125 C58.5043583,59.75 58.6919543,58.390625 58.6919543,54.5 C58.6919543,49.859375 58.5981563,49.34375 57.7070751,48.6875 C56.3470038,47.75 57.00359,47 59.2078434,47 L61.0369048,47 L61.0369048,49.8125 L61.0369048,52.625 L62.2562791,52.15625 C63.9446435,51.5 64.2260375,51.546875 65.4923108,52.859375 C66.47719,53.84375 66.6647861,54.40625 66.6647861,57.03125 C66.6647861,59.375 66.8523821,60.171875 67.4151702,60.5 C68.7752415,61.25 67.6496653,62 65.2109168,62 C62.8190672,62 62.3969761,61.53125 63.6632494,60.21875 C64.2260375,59.65625 64.3667346,58.859375 64.2260375,56.984375 C63.9915425,54.078125 63.2880573,53.09375 62.0686831,53.84375 C60.8962078,54.59375 60.6617128,59.65625 61.74039,60.453125 C62.2093801,60.734375 62.3969761,61.203125 62.2093801,61.484375 C61.834188,62.140625 57.284984,62.140625 57.284984,61.484375 L57.284984,61.484375 Z" id="Path"></path>
            <path d="M70.2321645,60.1766828 C69.6852222,59.5820649 69.4573295,58.4843086 69.4573295,56.2430563 C69.4573295,53.9560642 69.2750154,53.132747 68.7736516,52.9497876 C67.3151386,52.4009095 68.0443951,51.3946329 69.9131148,51.3946329 L71.6906775,51.3946329 L71.8274131,55.1910399 C71.9641487,58.8502274 72.0097272,58.9417071 73.103612,58.9417071 C74.1974967,58.9417071 74.2430752,58.8044875 74.3798108,55.8771376 C74.4709679,53.3157064 74.3798108,52.7668282 73.7872899,52.7668282 C73.4226617,52.7668282 73.103612,52.4466493 73.103612,52.0807306 C73.103612,51.5775923 73.6505543,51.3946329 75.1546458,51.3946329 L77.2056797,51.3946329 L77.2056797,55.2367798 C77.2056797,58.3013493 77.3424153,59.1246664 77.9349362,59.3533656 C79.2111351,59.8565039 79.4846063,59.2161461 79.4846063,55.9228774 C79.4846063,53.407186 79.3478707,52.7668282 78.8009283,52.7668282 C78.4363,52.7668282 78.1172503,52.4466493 78.1172503,52.0349908 C78.1172503,51.4403728 78.5730356,51.3488931 80.3050198,51.4403728 C81.4900616,51.4861126 82.9941531,51.3946329 83.7234096,51.2116736 C84.5438231,50.9372345 85.2730796,51.074454 86.0023361,51.5318525 C86.9139067,52.1264704 87.2329564,52.1264704 88.1901056,51.5775923 C89.7853542,50.7085353 90.6057677,50.800015 91.6996524,51.9892509 C92.520066,52.8583079 92.7023801,53.5901454 92.7023801,56.1058368 C92.7023801,58.4385688 92.8846942,59.2161461 93.4316366,59.536325 C94.753414,60.2681625 93.6595293,61 91.2894457,61 C88.9649406,61 88.5547338,60.5426016 89.7853542,59.3076258 C90.286718,58.7587477 90.4234536,57.9354305 90.286718,56.1058368 C90.0132468,53.132747 89.5574615,52.4466493 88.1901056,53.1784868 C87.369692,53.6358853 87.2329564,54.1390235 87.2329564,56.4260157 C87.2329564,58.4385688 87.4152706,59.2161461 87.9622129,59.536325 C89.1928333,60.2224227 88.2356841,61 86.0934932,61 C83.9057237,61 83.0853102,60.3139024 84.270352,59.4905852 C85.2730796,58.7130078 85.0907655,53.0870071 84.0424593,52.9040478 C82.7206819,52.6753486 82.0825825,53.5901454 81.8546898,56.0600969 C81.7179542,57.9354305 81.8546898,58.667268 82.4016322,59.1246664 C82.811839,59.4448453 83.1308887,60.0394633 83.1308887,60.3596422 C83.1308887,60.8170406 82.2193181,60.9542602 79.0288209,60.9085203 C76.7954729,60.8627805 74.9267532,60.6798211 74.9267532,60.4511219 C74.9267532,60.2224227 74.5165464,60.2681625 74.0607611,60.5426016 C72.6934052,61.2286992 71.0525781,61.0914797 70.2321645,60.1766828 L70.2321645,60.1766828 Z" id="Path"></path>
            <path d="M94.7481725,60.190229 C93.8236466,59.1719418 93.731194,57.1816532 94.6094936,56.4410807 C94.9330777,56.163366 96.0425088,55.6542224 97.0132611,55.2839362 C99.0934445,54.5896494 99.5557074,53.0159329 97.7066555,52.784504 C97.0594874,52.6919324 96.7359033,52.784504 96.9208085,53.0622187 C97.3368452,53.7565054 95.9038299,55.0062215 95.1179829,54.7285068 C94.7481725,54.5433637 94.4245884,53.9416485 94.4245884,53.3399334 C94.4245884,50.9793585 99.7406126,50.0536429 100.89627,52.2290746 C101.127402,52.6919324 101.358533,54.4507921 101.358533,56.0707944 C101.358533,58.7553697 101.450986,59.0793702 102.375512,59.3107991 C102.976453,59.4959422 103.577395,59.3570849 103.808527,59.0330844 C104.363242,58.1999404 103.947206,53.0159329 103.300037,52.784504 C102.976453,52.6919324 102.745322,52.3216462 102.745322,51.9513599 C102.745322,51.4422163 103.300037,51.2570732 104.964184,51.3496448 C106.166068,51.3959305 107.691536,51.2570732 108.338704,51.1182159 C109.170777,50.886787 109.817945,51.0256443 110.650019,51.6736452 C111.574545,52.4605035 111.805676,53.1085044 111.990581,56.0245087 C112.175487,59.0330844 112.314165,59.4033707 113.146239,59.4033707 C113.978312,59.4033707 114.070765,59.0330844 114.209444,56.0707944 C114.301896,53.2936476 114.209444,52.6919324 113.608502,52.6919324 C113.238691,52.6919324 112.915107,52.3679319 112.915107,51.9976457 C112.915107,51.4885021 113.423597,51.303359 114.764159,51.303359 L116.613211,51.303359 L116.613211,54.9599357 C116.613211,57.644511 116.798116,58.7553697 117.306606,59.1719418 C117.676416,59.4959422 118,60.0050858 118,60.3753721 C118,60.8382299 116.890569,60.9770872 113.146239,60.9770872 C109.401909,60.9770872 108.292478,60.8382299 108.292478,60.3753721 C108.292478,60.0050858 108.616062,59.4496565 109.032098,59.125656 C109.586814,58.6627982 109.725493,57.9222257 109.586814,56.0707944 C109.309456,53.1085044 108.800967,52.3679319 107.414178,53.1085044 C106.582105,53.5713623 106.443426,54.0805058 106.443426,56.3485091 C106.443426,58.1999404 106.674557,59.2645133 107.13682,59.6347996 C107.506631,59.9588001 107.691536,60.3753721 107.552857,60.606801 C107.229273,61.2085161 100.341554,61.023373 99.6019337,60.4216579 C99.185897,60.0976574 98.862313,60.0976574 98.4925026,60.4679436 C97.6604292,61.3010877 95.5802459,61.1159446 94.7481725,60.190229 L94.7481725,60.190229 Z M98.9547656,57.6907968 C99.0472182,56.9502243 98.9085393,56.3947949 98.6311815,56.3947949 C97.475524,56.3947949 96.7359033,57.0427958 96.7359033,58.1073688 C96.7359033,59.0330844 96.9208085,59.2182276 97.7991081,59.0793702 C98.5387289,58.9867986 98.862313,58.5702266 98.9547656,57.6907968 L98.9547656,57.6907968 Z" id="Shape"></path>
            <path d="M119.292278,60.3098225 C118.918028,59.862401 118.59056,58.1621991 118.496998,56.2830286 C118.356654,53.82221 118.122748,52.9721091 117.654936,52.9721091 C117.280687,52.9721091 117,52.658914 117,52.3009768 C117,51.9430395 117.280687,51.6298444 117.654936,51.6298444 C117.982405,51.6298444 118.403435,51.0034543 118.59056,50.2428376 C118.824466,49.1242838 119.058372,48.900573 119.900433,49.0347995 C120.695713,49.1242838 121.023181,49.5269632 121.116744,50.4218063 C121.257087,51.3613915 121.537774,51.6298444 122.426617,51.6298444 C123.876833,51.6298444 123.923614,52.8378826 122.520179,53.0615934 C121.537774,53.1958199 121.444212,53.4642728 121.303868,56.2382864 C121.163525,59.1912686 121.163525,59.2360108 122.379835,59.2360108 C123.221897,59.2360108 123.549365,59.0123 123.549365,58.430652 C123.549365,57.3568403 124.718894,56.3277707 126.964391,55.4329276 C128.13392,54.9855061 128.695294,54.4486002 128.695294,53.8669522 C128.695294,52.6141719 127.151515,52.7036562 126.590141,54.0011787 C126.028767,55.1644747 124.999581,55.2987012 124.297864,54.2248894 C123.596146,53.1510777 125.186706,51.6745866 127.385421,51.3166494 C128.788857,51.1376807 129.30345,51.2719072 130.285854,52.2114925 C131.361821,53.240562 131.502165,53.7774679 131.502165,56.2382864 C131.502165,58.4753942 131.68929,59.1912686 132.250664,59.4149794 C133.560537,59.9071431 133.841224,59.280753 133.841224,56.0593178 C133.841224,53.5984993 133.70088,52.9721091 133.139506,52.9721091 C132.765257,52.9721091 132.437788,52.658914 132.437788,52.2562346 C132.437788,51.7193288 132.858819,51.6298444 134.449379,51.7193288 L136.414188,51.8535552 L136.648094,55.6566384 C136.882,59.1017843 136.975563,59.4597216 137.817624,59.4597216 C138.659685,59.4597216 138.753247,59.1017843 138.893591,56.417255 C138.987153,54.0459208 138.893591,53.3747885 138.285435,53.1510777 C137.911186,53.0168512 137.583718,52.5694297 137.583718,52.2114925 C137.583718,51.7640709 138.145092,51.6298444 139.829214,51.6745866 C141.045525,51.7193288 142.44896,51.6298444 142.963553,51.495618 C144.273426,51.0929386 145.162268,51.7640709 144.975144,53.0168512 C144.8348,54.1801473 143.291021,54.7617953 142.729647,53.8669522 C141.981148,52.7036562 141.326212,54.0011787 141.326212,56.5514815 C141.326212,58.7885892 141.466555,59.2360108 142.308617,59.4597216 C142.82321,59.6386902 143.150678,59.9966274 143.057115,60.2650804 C142.916772,60.6677598 140.905181,60.8019862 136.133501,60.7125019 C132.437788,60.7125019 129.209887,60.6230176 128.9292,60.6230176 C128.695294,60.5782754 127.759671,60.7125019 126.917609,60.8467284 C126.028767,61.025697 125.139925,60.9362127 124.765675,60.5782754 C124.251082,60.2203382 123.830052,60.2203382 123.128334,60.5335333 C121.77168,61.2494078 119.993995,61.1151813 119.292278,60.3098225 L119.292278,60.3098225 Z M128.601732,57.8042618 C128.695294,56.9541609 128.554951,56.5514815 128.13392,56.5514815 C127.198297,56.5514815 126.356235,57.4910668 126.356235,58.4753942 C126.356235,59.9071431 128.414607,59.280753 128.601732,57.8042618 Z" id="Shape"></path>
            <path d="M146.132052,60.2736862 C145.529098,59.8588829 144.740619,58.79883 144.415951,57.9231342 C142.282421,52.9454946 148.914918,48.336569 151.651403,52.8533161 L152.532643,54.282083 L152.996454,53.0376731 C153.599409,51.4706384 154.758936,50.9175673 157.170753,51.0097459 C158.74771,51.0558351 159.16514,51.2401921 159.350665,52.115888 C159.860857,54.1438152 158.515805,55.5725822 157.912851,53.6368334 C157.727326,52.9915838 157.217134,52.7150483 156.243131,52.7150483 C154.387887,52.7150483 154.480649,53.8211904 156.428656,54.5586185 C158.423043,55.3882251 160,56.8169921 160,57.8770449 C160,58.3379375 159.489808,59.2597226 158.840473,59.9049722 C157.820088,60.9189358 157.356277,61.0111143 155.222747,60.8728465 C153.22836,60.6884895 152.764549,60.5041325 152.671787,59.7206152 C152.532643,58.8449193 152.486262,58.8449193 151.419497,59.9049722 C150.074445,61.1954713 147.75539,61.3798284 146.132052,60.2736862 L146.132052,60.2736862 Z M157.588183,58.614473 C157.680945,58.0153127 157.170753,57.6005094 155.825701,57.0474383 C154.805317,56.632635 153.64579,55.8491177 153.274741,55.3421359 C152.718168,54.5586185 152.579024,54.5125293 152.579024,55.1116896 C152.579024,56.079564 151.605021,56.4021888 148.822156,56.4021888 C147.569866,56.4021888 146.549482,56.4943673 146.549482,56.5865458 C146.549482,56.7248135 146.735006,57.3239739 147.013293,57.9692234 C147.384342,58.9370978 147.75539,59.1675441 149.100442,59.1675441 C149.981683,59.1675441 150.723781,58.9831871 150.723781,58.7527408 C150.723781,58.5222945 151.326735,58.0153127 152.068832,57.6465987 C153.367503,57.0013491 153.460265,57.0474383 154.434268,58.3379375 C155.547415,59.8127937 157.309896,59.9971507 157.588183,58.614473 Z M149.703396,53.7751012 C149.517872,52.7611376 147.523485,52.3924235 146.966912,53.2681194 C146.271195,54.3281723 146.503101,54.5586185 148.219201,54.5586185 C149.517872,54.5586185 149.84254,54.4203508 149.703396,53.7751012 L149.703396,53.7751012 Z" id="Shape"></path>
            <path d="M165.896296,60.1523057 C164.171641,58.8147831 163.536242,56.5855788 164.353184,54.7130471 C165.260897,52.617595 167.257866,51.101736 168.846364,51.3246565 C170.026391,51.5029928 170.117163,51.4138246 170.117163,49.9871338 C170.117163,48.8279476 169.890235,48.4266908 169.20945,48.2483544 C167.575566,47.8470977 168.528665,47 170.616405,47 L172.613374,47 L172.749531,53.10802 C172.840303,57.9676855 173.021845,59.2160399 173.521088,59.4389603 C174.02033,59.6172967 174.201872,59.3497922 174.201872,58.4135263 C174.201872,56.9422515 174.791886,56.3626583 177.197326,55.5155607 C179.239681,54.8467994 179.693538,53.3309404 177.968882,53.10802 C177.197326,52.9742677 176.925012,53.1971881 176.925012,53.8213654 C176.925012,54.3117903 176.652698,54.8022153 176.380384,54.8913834 C175.336514,55.2926402 174.655729,54.7576312 174.655729,53.643029 C174.655729,52.3055064 177.151941,50.9679838 178.876596,51.4138246 C180.964336,51.9042496 181.463578,52.8405154 181.463578,56.1397379 C181.463578,58.5026945 181.645121,59.2160399 182.189749,59.4389603 C182.59822,59.5727126 183.097462,59.6172967 183.324391,59.4389603 C183.869019,59.1268717 183.869019,53.0188518 183.279005,53.0188518 C183.052077,53.0188518 182.825148,52.7067632 182.825148,52.3055064 C182.825148,51.7704973 183.324391,51.6367451 185.00366,51.6813292 C186.183687,51.7259132 187.681414,51.592161 188.362199,51.4584087 C189.315298,51.1909042 189.81454,51.3692406 190.722254,52.2609223 C191.766124,53.2863563 191.902281,53.8213654 191.902281,56.3180742 C191.902281,57.9231014 192.129209,59.3497922 192.356137,59.4835444 C192.628451,59.6172967 192.809994,59.260624 192.809994,58.6364468 C192.809994,57.4326764 193.763093,56.5409947 194.080793,57.4326764 C194.761578,59.4389603 197.802417,60.5535625 197.802417,58.8147831 C197.802417,58.1460218 197.212403,57.6555969 195.805448,57.0760037 C192.946151,55.8722334 192.356137,53.7767813 194.443878,52.1717541 C195.306206,51.5029928 196.168533,51.2800724 197.530103,51.3692406 C199.345529,51.5029928 199.390915,51.5475769 199.527072,53.152604 C199.617843,54.3563744 199.481686,54.8022153 199.02783,54.8022153 C198.664745,54.8022153 198.256274,54.4009585 198.120117,53.9105335 C197.98396,53.2863563 197.484717,53.0188518 196.713161,53.0188518 C194.852349,53.0188518 195.306206,54.178038 197.711646,55.2926402 C199.481686,56.184322 199.844772,56.5855788 199.980929,57.7893491 C200.0717,58.770199 199.844772,59.4389603 199.163987,60.0631376 C198.347045,60.821067 197.530103,60.9548193 193.263851,60.9548193 C189.269912,60.9994034 188.271428,60.8656511 188.271428,60.3752262 C188.271428,60.0185535 188.498356,59.6172967 188.725284,59.4835444 C188.997598,59.3497922 189.179141,57.9231014 189.179141,56.3180742 C189.179141,53.2863563 188.498356,52.3500905 187.136786,53.4646927 C186.138302,54.2672062 186.183687,59.0822876 187.182172,59.6172967 C187.590643,59.8402171 187.817571,60.2414739 187.636029,60.5535625 C187.227558,61.1777397 180.555865,61.1331557 179.784309,60.5089784 C179.375838,60.1968898 178.967367,60.1968898 178.51351,60.5981466 C178.105039,60.9548193 177.288097,61.0439875 176.380384,60.8656511 C174.610343,60.5535625 174.928043,60.5535625 170.525634,60.821067 C167.53018,61.0439875 166.940166,60.9102352 165.896296,60.1523057 L165.896296,60.1523057 Z M170.117163,56.1397379 L170.117163,53.0188518 L168.800979,53.0188518 C167.711723,53.0188518 167.394023,53.2863563 166.985552,54.4009585 C166.395538,56.1397379 166.350153,56.6747469 166.940166,58.1014377 C167.257866,58.9931195 167.666337,59.260624 168.755593,59.260624 L170.117163,59.260624 L170.117163,56.1397379 Z M179.103524,57.8339332 C179.285067,56.4072424 178.331968,56.1397379 177.197326,57.2989242 C176.017299,58.4581104 176.42577,59.3943763 178.059654,59.1714558 C178.649667,59.0822876 179.012753,58.6364468 179.103524,57.8339332 L179.103524,57.8339332 Z" id="Shape"></path>
            <path d="M204.426133,61.3410441 C204.426133,60.9644978 204.639199,60.493815 204.852266,60.3526102 C205.107945,60.1643371 205.278399,57.6697182 205.278399,54.4220069 C205.278399,49.8563838 205.150559,48.7267451 204.639199,48.5384719 C204.298293,48.3501988 204,47.9265843 204,47.5500381 C204,47.032287 204.468746,46.9381504 205.832371,47.032287 L207.622129,47.1734918 L207.749969,53.5277096 C207.835196,58.6581521 207.963036,59.976064 208.517009,60.4467468 C209.624954,61.3410441 208.772688,62 206.514184,62 C204.980106,62 204.426133,61.8117269 204.426133,61.3410441 L204.426133,61.3410441 Z" id="Path"></path>
            <path d="M211.098352,60.275751 C208.26223,58.2995469 208.308724,53.5658489 211.19134,51.7734778 C213.469536,50.3947308 217.096053,51.4977284 217.096053,53.6118071 C217.096053,54.0254312 217.514497,53.7037236 218.025929,52.8764754 C218.955805,51.3138955 220.071657,50.8543131 222.442841,51.0381461 C224.02363,51.1300625 224.535062,51.5896449 224.535062,53.0603083 C224.535062,54.4850136 223.65168,54.8526794 222.861285,53.7037236 C222.07089,52.600726 219.885681,52.3709348 219.885681,53.382016 C219.885681,53.7037236 220.583088,54.2552224 221.419977,54.57693 C223.419211,55.4041782 225,56.8288835 225,57.8859228 C225,58.3455052 224.488568,59.2646698 223.837655,59.9080851 C222.814791,60.9191663 222.349853,61.0110827 220.211138,60.873208 C218.211904,60.6893751 217.746966,60.5055422 217.653979,59.7242522 C217.514497,58.8510457 217.468003,58.8510457 216.398646,59.9080851 C215.050325,61.1949157 212.725635,61.3787486 211.098352,60.275751 L211.098352,60.275751 Z M222.582322,58.6212546 C222.67531,58.0237975 222.163878,57.6101734 220.815557,57.0586746 C219.792694,56.6450505 218.630349,55.8637606 218.258398,55.35822 C217.700472,54.57693 217.560991,54.5309718 217.560991,55.1284288 C217.560991,56.0935517 216.584621,56.4152594 213.794993,56.4152594 C212.53966,56.4152594 211.516796,56.5071758 211.516796,56.5990923 C211.516796,56.736967 211.702771,57.334424 211.981734,57.9778393 C212.307191,58.897004 212.772129,59.1727534 213.794993,59.1727534 C214.538894,59.1727534 215.282794,58.9889204 215.46877,58.7591293 C215.608251,58.4833799 216.305658,58.0237975 217.049559,57.6561317 C218.351386,57.0127164 218.444373,57.0586746 219.420743,58.3455052 C220.536595,59.8161687 222.303359,60.0000016 222.582322,58.6212546 Z M214.678375,53.7956401 C214.4924,52.7845589 212.493166,52.4168931 211.93524,53.2900995 C211.237833,54.3471389 211.470302,54.57693 213.190573,54.57693 C214.4924,54.57693 214.817856,54.4390553 214.678375,53.7956401 L214.678375,53.7956401 Z" id="Shape"></path>
            <path d="M228.378082,60.3510655 C228.378082,59.9802457 228.61421,59.5167211 228.850339,59.3776637 C229.133693,59.2386063 229.322596,57.6626224 229.322596,55.9012286 C229.322596,53.4909004 229.133693,52.7029084 228.566984,52.4711461 C227.197438,51.9612689 228.472533,51.2196295 230.644916,51.3123344 C231.872785,51.3586869 233.195106,51.2196295 233.620137,51.0805721 C234.422974,50.7561048 235.934198,51.868564 235.934198,52.7492609 C235.934198,53.0737282 236.406455,52.8419658 237.020389,52.3320887 C239.239998,50.3389326 242.356896,50.6170474 243.443088,52.9346708 C244.670957,55.5767614 243.962571,56.3647533 240.373416,56.3647533 C238.67329,56.3647533 238.295484,56.5038107 238.295484,57.1990977 C238.295484,57.6626224 238.531613,58.2652045 238.862193,58.5896717 C239.66503,59.3776637 242.026316,59.2849587 242.356896,58.4506143 C242.734702,57.5699174 243.962571,57.523565 243.962571,58.4042619 C243.962571,60.2583605 239.901159,61.6489345 237.776001,60.5364753 C236.359229,59.7948359 235.320263,57.3845076 235.603618,55.437704 C235.79252,53.8617201 235.745295,53.7690152 234.753554,53.954425 C234.186846,54.04713 233.525686,53.9080726 233.384008,53.6299578 C232.581171,52.4247936 232.15614,53.351843 232.15614,56.132991 C232.15614,58.4042619 232.345042,59.2386063 232.864525,59.4240161 C233.242331,59.609426 233.572911,59.9802457 233.572911,60.3510655 C233.572911,60.8145901 232.864525,61 230.975496,61 C229.039242,61 228.378082,60.8145901 228.378082,60.3510655 L228.378082,60.3510655 Z M241.129027,53.5372528 C241.129027,52.7956134 240.892899,52.6102035 239.853933,52.7492609 C239.051096,52.8419658 238.484387,53.2127856 238.389935,53.7226627 C238.248258,54.3252448 238.531613,54.5106546 239.66503,54.5106546 C240.845673,54.5106546 241.129027,54.3252448 241.129027,53.5372528 Z" id="Shape"></path>
            <path d="M260.049616,60.2729361 C256.032836,57.36888 258.379719,50.3161723 263.118617,51.0537103 C265.600897,51.4224794 267,53.2202284 267,55.9859961 C267,58.0603219 266.819471,58.475187 265.510632,59.6736864 C263.840735,61.1948586 261.719514,61.4253393 260.049616,60.2729361 Z M264.066396,58.7517638 C264.292058,58.2447064 264.51772,57.0923032 264.51772,56.1703806 C264.51772,53.9116703 263.795602,52.713171 262.441631,52.713171 C261.629249,52.713171 261.223058,53.08194 260.861999,54.0038626 C260.32041,55.4328426 260.591205,58.0142258 261.403587,58.9822445 C262.125705,59.904167 263.524808,59.7658786 264.066396,58.7517638 L264.066396,58.7517638 Z" id="Shape"></path>
            <path d="M267.184615,60.506088 C267,60.1848441 267.230769,59.7718162 267.646154,59.5423563 C268.661538,58.9916525 268.707692,53.3010467 267.692308,52.9339109 C267.323077,52.750343 267,52.3373151 267,51.9701793 C267,51.4653675 267.6,51.3276915 269.446154,51.3735835 C270.738462,51.4194755 272.353846,51.3276915 273,51.1441236 C275.169231,50.5934198 275.953846,51.7866113 276.230769,55.7792138 C276.369231,58.0279209 276.692308,59.4046804 277.061538,59.5423563 C277.430769,59.6341403 277.615385,59.2211125 277.615385,58.3032728 C277.615385,56.6052695 278.353846,56.4675935 279.092308,58.0279209 C279.646154,59.2211125 281.307692,59.9553842 282.184615,59.4046804 C283.2,58.8080846 282.646154,57.798461 280.984615,57.1100813 C277.476923,55.6415378 276.738462,54.0353185 278.723077,52.0619632 C279.646154,51.1441236 280.292308,50.9605557 282,51.0064476 C283.753846,51.0982316 284.169231,51.2817995 284.353846,52.1537472 C284.907692,54.2647784 283.615385,55.4120779 282.692308,53.6681826 C282.415385,53.1174788 281.723077,52.750343 281.030769,52.750343 C279.323077,52.750343 279.784615,54.1729944 281.723077,54.8154822 C283.338462,55.366186 285,57.0182973 285,58.1197049 C285,58.4409488 284.538462,59.2211125 283.938462,59.8177082 C282.969231,60.7814399 282.461538,60.8732238 277.707692,60.9191158 C273.646154,60.9650078 272.538462,60.8273318 272.538462,60.368412 C272.538462,60.0012762 272.861538,59.6341403 273.230769,59.4505724 C273.738462,59.2670044 273.923077,58.4868407 273.923077,56.5134855 C273.923077,53.3928307 273.230769,52.3373151 271.661538,53.2092628 C270.876923,53.6222906 270.692308,54.1271024 270.692308,56.2840256 C270.692308,58.1197049 270.923077,58.9916525 271.476923,59.4046804 C271.892308,59.7259243 272.076923,60.1848441 271.892308,60.460196 C271.476923,61.1485757 267.6,61.1944677 267.184615,60.506088 L267.184615,60.506088 Z" id="Path"></path>
            <path d="M288.54635,61.4859813 C288.359811,61.1588785 288.592985,60.7383178 289.012696,60.5046729 C289.618946,60.1308411 289.75885,59.1962617 289.75885,54.4766355 C289.75885,49.1962617 289.712215,48.8224299 288.826158,48.588785 C287.240581,48.1682243 288.080004,47.2803738 290.131927,47.1401869 L292.090581,47 L292.090581,49.8037383 L292.090581,52.6542056 L293.303081,52.1869159 C295.028562,51.5327103 295.728081,51.6261682 296.754043,52.6542056 C297.500197,53.4018692 297.686735,54.1962617 297.686735,56.7663551 C297.686735,60.1308411 298.292985,61.4392523 299.412216,60.5514019 C300.344908,59.7570093 300.251639,53.588785 299.318947,53.588785 C298.94587,53.588785 298.619427,53.2616822 298.619427,52.8878505 C298.619427,52.3738318 299.179043,52.1869159 300.717985,52.1869159 L302.769908,52.1869159 L302.909812,56.2990654 C303.049716,59.9906542 303.142985,60.364486 303.982409,60.364486 C304.821832,60.364486 304.915101,59.9906542 305.055005,57 C305.148274,54.1962617 305.055005,53.588785 304.448755,53.588785 C304.075678,53.588785 303.749235,53.2616822 303.749235,52.8411215 C303.749235,52.2336449 304.215582,52.1401869 305.987697,52.2336449 C307.200197,52.2803738 308.73914,52.1869159 309.485294,52 C310.324717,51.7196262 311.070871,51.8598131 311.817024,52.3271028 C312.749717,52.9345794 313.076159,52.9345794 314.055486,52.3738318 C315.641063,51.4859813 316.247313,51.5794393 317.506448,52.8878505 C318.485775,53.8691589 318.672313,54.4299065 318.672313,57.046729 C318.672313,59.3831776 318.858852,60.1775701 319.418467,60.5046729 C320.770871,61.2523364 319.65164,62 317.22664,62 C315.547794,62 314.941544,61.8130841 314.941544,61.3457944 C314.941544,60.9719626 315.174717,60.5046729 315.40789,60.364486 C316.01414,59.9906542 316.01414,54.1962617 315.40789,53.8224299 C315.174717,53.682243 314.521832,53.7757009 314.008851,54.0560748 C313.216063,54.4766355 313.076159,55.0373832 313.076159,57.3271028 C313.076159,59.3831776 313.262698,60.1775701 313.822313,60.5046729 C315.081448,61.2056075 314.102121,62 311.910294,62 C309.718467,62 308.73914,61.2056075 309.998274,60.5046729 C310.55789,60.1775701 310.744428,59.4299065 310.744428,57.4205607 C310.744428,54.2429907 310.278082,53.3551402 308.925678,53.8224299 C308.086255,54.1028037 307.946351,54.4766355 307.946351,57.0934579 C307.946351,58.728972 308.179524,60.2242991 308.412697,60.364486 C308.692505,60.5046729 308.879043,60.9252336 308.879043,61.2990654 C308.879043,61.8130841 307.480005,61.953271 301.417505,61.953271 C295.494908,61.953271 293.955966,61.8130841 293.955966,61.3457944 C293.955966,60.9719626 294.282408,60.5981308 294.655485,60.411215 C295.168466,60.2242991 295.355004,59.4299065 295.355004,57.4205607 C295.355004,54.2429907 294.655485,53.1682243 293.069908,54.0560748 C292.230485,54.4766355 292.090581,54.9906542 292.090581,57.3271028 C292.090581,59.3831776 292.277119,60.1775701 292.836735,60.5046729 C294.095869,61.2056075 293.116542,62 290.924715,62 C289.805485,62 288.732888,61.7663551 288.54635,61.4859813 L288.54635,61.4859813 Z" id="Path"></path>
            <path d="M320.728695,61.15625 C319.828238,60.125 319.738192,58.109375 320.593626,57.359375 C320.908786,57.078125 321.989335,56.5625 322.934815,56.1875 C324.960843,55.484375 325.411071,53.890625 323.700203,53.65625 C322.934815,53.515625 322.664677,53.75 322.664677,54.40625 C322.664677,54.921875 322.39454,55.4375 322.124403,55.53125 C321.088878,55.953125 320.413535,55.390625 320.413535,54.21875 C320.413535,53.328125 320.773718,52.859375 322.034357,52.34375 C322.934815,51.921875 324.150432,51.734375 324.735729,51.875 C326.671711,52.390625 327.166963,53.421875 327.166963,56.84375 C327.166963,59.609375 327.302031,60.03125 328.022397,60.265625 C328.517648,60.40625 329.0129,60.359375 329.147968,60.21875 C329.283037,60.078125 329.418105,57.5 329.418105,54.546875 C329.418105,49.578125 329.32806,49.0625 328.517648,48.5 C327.211986,47.65625 327.797283,47 329.913357,47 L331.669248,47 L331.669248,53 C331.669248,57.546875 331.849339,59.234375 332.344591,59.9375 C333.605231,61.71875 333.245048,62 329.508151,62 C327.392077,62 325.771254,61.765625 325.456094,61.4375 C325.050889,61.015625 324.780751,61.015625 324.375546,61.4375 C323.565134,62.28125 321.539106,62.09375 320.728695,61.15625 L320.728695,61.15625 Z M324.825774,58.625 C325.005866,57.125 324.060386,56.84375 322.934815,58.0625 C321.76422,59.28125 322.169426,60.265625 323.790249,60.03125 C324.375546,59.9375 324.735729,59.46875 324.825774,58.625 L324.825774,58.625 Z" id="Shape"></path>
            <path d="M334.229753,60.7266128 C333.905993,60.5896183 333.397227,59.9959752 333.16597,59.3566674 C332.564701,57.7583976 333.628484,56.2514576 335.848555,55.5664849 C338.068625,54.8815122 338.392385,54.5618582 338.022374,53.6028964 C337.606111,52.50694 335.987309,52.5982697 335.987309,53.6942261 C335.987309,54.8358473 334.599765,55.3381606 333.767239,54.5161934 C332.472198,53.1919127 334.784771,51 337.421105,51 C337.929871,51 338.8549,51.5023133 339.456169,52.1416212 C340.42745,53.100583 340.612456,53.6485612 340.612456,56.1601279 C340.612456,58.3520407 340.797462,59.174008 341.306228,59.4023322 C341.67624,59.5393267 342,59.8589807 342,60.0873049 C342,60.8179425 339.733678,61.2289262 339.039906,60.5896183 C338.53114,60.2242995 338.114877,60.2242995 337.421105,60.5439534 C336.449824,61.0919316 335.247286,61.1375965 334.229753,60.7266128 L334.229753,60.7266128 Z M338.022374,58.4890352 C338.53114,57.2104195 338.299883,56.4797819 337.467356,56.4797819 C336.403572,56.4797819 335.524794,57.347414 335.524794,58.3977055 C335.524794,59.447997 337.606111,59.5393267 338.022374,58.4890352 L338.022374,58.4890352 Z" id="Shape"></path>
            <path d="M353.138196,60.3071869 C351.960006,59.6143738 351,57.5359346 351,55.7346205 C351,54.2566193 352.614556,51.8086797 353.923656,51.2544292 C356.236399,50.3306784 358.854599,52.0396174 358.854599,54.487557 C358.854599,56.0579333 358.243685,56.3812461 355.538212,56.3812461 C353.574563,56.3812461 353.269106,56.7045589 354.054566,58.2749352 C354.621843,59.3834361 356.541856,59.4296237 357.632772,58.3673103 C358.200049,57.8592473 358.592779,57.7668723 358.898235,58.090185 C359.552785,58.7829981 356.890949,61 355.450939,61 C354.796389,60.9538125 353.749109,60.6766872 353.138196,60.3071869 Z M356.672766,54.2104317 C356.629129,52.5938679 353.967293,52.17818 353.705473,53.7485563 C353.574563,54.3951819 353.880019,54.5337445 355.101846,54.5337445 C355.974579,54.5337445 356.672766,54.3951819 356.672766,54.2104317 Z" id="Shape"></path>
            <path d="M359.368738,60.3554623 C359.368738,59.987155 359.599031,59.526771 359.829325,59.3886557 C360.105676,59.2505405 360.289911,57.6852347 360.289911,55.9357752 C360.289911,53.541778 360.105676,52.7591251 359.552973,52.528933 C358.217272,52.0225105 359.460855,51.285896 361.579553,51.3319344 C362.777078,51.3779728 364.250955,51.285896 364.895776,51.1017424 C365.724832,50.8715503 366.415711,51.055704 367.198708,51.7002417 C368.119881,52.4368562 368.304116,53.1274323 368.534409,55.9818136 C368.764702,58.9743101 368.902878,59.3886557 369.731934,59.3886557 C370.56099,59.3886557 370.653107,59.0203485 370.791283,56.0738904 C370.8834,53.3115859 370.791283,52.7130866 370.192521,52.7130866 C369.824051,52.7130866 369.501641,52.3908178 369.501641,51.9764721 C369.501641,51.4240112 370.008286,51.285896 371.942749,51.3319344 C373.232391,51.3779728 374.890503,51.2398576 375.581383,51.1017424 C376.456497,50.8715503 377.009201,51.0096656 377.746139,51.7462801 C378.529136,52.528933 378.713371,53.2655475 378.713371,55.9357752 C378.713371,58.4218492 378.897605,59.2045021 379.450309,59.526771 C380.693893,60.2173471 379.726661,61 377.561904,61 C375.397148,61 374.429916,60.2173471 375.6735,59.526771 C376.226204,59.2045021 376.410438,58.4218492 376.410438,56.4421977 C376.410438,53.3576243 375.719558,52.298741 374.153564,53.1734707 C373.324509,53.5878164 373.186333,54.0942389 373.186333,56.3501208 C373.186333,58.3297724 373.370567,59.1124253 373.877213,59.3426173 C374.245682,59.4807326 374.568092,59.8950782 374.568092,60.2633855 C374.568092,60.8618848 373.692978,60.9539616 369.731934,60.9539616 C365.033952,60.9539616 363.375841,60.4475391 365.080011,59.526771 C366.093301,58.9282717 366.139359,53.2655475 365.126069,52.8972403 C363.790368,52.3447794 363.05343,53.6338548 363.05343,56.4421977 C363.05343,57.9154267 363.283723,59.2505405 363.514016,59.3886557 C363.790368,59.526771 363.974603,59.987155 363.974603,60.3554623 C363.974603,60.8158464 363.375841,61 361.671671,61 C359.967501,61 359.368738,60.8158464 359.368738,60.3554623 L359.368738,60.3554623 Z" id="Path"></path>
            <path d="M381.575262,59.973848 C380.587904,59.1539025 380.258785,58.3795095 380.070716,56.5574084 C379.882648,54.3253345 379.976682,54.0975719 381.528245,52.5943385 C382.609637,51.5466303 383.596995,51 384.443301,51 C386.088898,51 388.43975,53.2776264 388.43975,54.8264123 C388.43975,56.1018831 387.828528,56.3751983 384.349267,56.5574084 C382.374552,56.694066 382.374552,56.694066 382.938756,57.8328792 C383.596995,59.1539025 385.947847,59.6549803 386.794153,58.6528247 C387.076256,58.333957 387.734494,57.7873266 388.298699,57.5140115 C389.23904,57.0129337 389.427108,57.1040387 390.367449,58.333957 C391.025687,59.2450075 391.683926,59.6549803 392.389181,59.5638752 C394.175829,59.3361126 393.564608,57.8328792 391.260772,56.785171 C390.085346,56.2385407 389.050972,55.4185952 389.003954,54.9630699 C388.486767,52.4576809 390.320432,50.9544475 393.611625,51.1366576 C395.163187,51.2277626 395.257221,51.3644202 395.398272,52.9587587 C395.492306,54.2342295 395.351255,54.6442022 394.834068,54.6442022 C394.457931,54.6442022 393.987761,54.2342295 393.84671,53.6875991 C393.611625,53.0498637 393.188471,52.8221011 392.389181,52.9132062 C390.602534,53.1409688 390.837619,53.8698092 393.04742,54.8719649 C396.244579,56.3751983 396.902818,58.3795095 394.740034,60.064953 C393.094437,61.2948713 388.90992,61.2493187 388.533784,60.0194005 C388.345716,59.2450075 388.251682,59.2905601 387.17029,60.1105056 C385.524693,61.3404238 383.173841,61.2948713 381.575262,59.973848 L381.575262,59.973848 Z M385.618727,53.6875991 C385.618727,52.9587587 385.383642,52.7765486 384.349267,52.9132062 C383.549978,53.0043112 382.985773,53.3687314 382.891739,53.8698092 C382.750688,54.4619921 383.03279,54.6442022 384.161199,54.6442022 C385.336625,54.6442022 385.618727,54.4619921 385.618727,53.6875991 Z" id="Shape"></path>
            <path d="M238,50.4073933 C238,49.3435398 240.279318,46 241.008699,46 C242.513049,46 242.285117,47.6717699 240.461663,49.3941995 C238.547036,51.1672887 238,51.4205872 238,50.4073933 Z" id="Path"></path>
            <path d="M29.1203274,49.3443445 C28.7517641,47.9737551 29.2677527,46.8140255 30.1523045,47.0248854 C30.778862,47.1303154 31,47.5520352 31,48.5009048 C31,49.4497745 30.778862,49.8714943 30.1523045,49.9769242 C29.6731723,50.0823542 29.2308963,49.8187793 29.1203274,49.3443445 L29.1203274,49.3443445 Z" id="Path"></path>
            <path d="M114.176442,49.3424843 C113.64094,47.8622771 114.371171,46.8578509 115.734267,47.0164445 C116.707908,47.1221736 117,47.4393608 117,48.4966516 C117,49.5539424 116.707908,49.8711297 115.734267,49.9768588 C114.906673,50.0825878 114.322488,49.8182651 114.176442,49.3424843 L114.176442,49.3424843 Z" id="Path"></path>
            <path d="M133.134374,49.25 C132.71056,48.05 133.322737,47 134.5,47 C135.677263,47 136.28944,48.05 135.865626,49.25 C135.677263,49.65 135.112177,50 134.5,50 C133.887823,50 133.322737,49.65 133.134374,49.25 Z" id="Path"></path>
            <path d="M254.120327,49.3443445 C253.751764,47.9737551 254.267753,46.8140255 255.152304,47.0248854 C255.778862,47.1303154 256,47.5520352 256,48.5009048 C256,49.4497745 255.778862,49.8714943 255.152304,49.9769242 C254.673172,50.0823542 254.230896,49.8187793 254.120327,49.3443445 L254.120327,49.3443445 Z" id="Path"></path>
            <path d="M300.120327,49.3443445 C299.751764,47.9737551 300.267753,46.8140255 301.152304,47.0248854 C301.778862,47.1303154 302,47.5520352 302,48.5009048 C302,49.4497745 301.778862,49.8714943 301.152304,49.9769242 C300.673172,50.0823542 300.230896,49.8187793 300.120327,49.3443445 L300.120327,49.3443445 Z" id="Path"></path>
            <path d="M37.2821295,37.6045364 C34.6855057,35.9938296 33.4335621,34.0149611 32.4134599,30.241305 C30.7442017,23.7064371 34.2681912,16.3432056 40.481541,13.3058727 C43.7273208,11.741186 48.1786759,11.5571052 52.2590847,12.8916909 C56.6177032,14.2722968 56.5713349,14.088216 56.7104398,25.1330632 L56.8495446,34.7512843 L58.4724345,35.2575064 C60.1416927,35.8097488 60.3271658,36.1779103 59.5852733,37.6045364 C59.1679587,38.3408596 58.5651711,38.4789202 55.7367059,38.4789202 C53.6965014,38.4789202 52.1199798,38.2488192 51.7954019,37.9266778 C51.4708239,37.6045364 51.2389825,36.5000517 51.2389825,35.395567 L51.2389825,33.4166986 L49.523356,35.3035266 C45.9529983,39.2152433 41.2234335,40.089627 37.2821295,37.6045364 Z M45.7211569,34.5672035 C48.8278318,32.9564966 51.2389825,27.7562144 51.2389825,22.6479726 C51.2389825,16.6193268 49.8015657,14.7324988 45.4429472,15.1006603 C43.4027428,15.2847411 42.5681137,15.6068825 41.4552749,16.665347 C39.1368608,18.8282963 38.1167586,21.2673667 37.8849172,25.1330632 C37.4212344,32.9104764 40.8524873,37.0522941 45.7211569,34.5672035 L45.7211569,34.5672035 Z" id="Shape"></path>
            <path d="M90.5657692,37.1810127 C89.5020844,36.6817136 88.5771411,35.6831152 87.9296808,34.3667811 C86.9584903,32.5057569 86.865996,31.7341127 86.865996,24.3807976 C86.865996,20.0232776 86.6810074,16.2104476 86.4960187,15.9381026 C86.31103,15.6657576 85.6635697,15.2572401 85.0161094,15.0756767 C83.1662229,14.5309867 82.6575041,13.9862967 83.21247,12.9876984 C83.5824473,12.261445 84.2299076,12.1252725 87.6059506,12.1252725 C91.3982181,12.1252725 91.5369596,12.1706634 91.9531841,13.3054342 C92.2306671,13.9409059 92.4156557,18.2076442 92.4156557,22.8375093 C92.4156557,32.2788027 92.7393859,33.5951369 95.1904856,34.1398269 C98.3352928,34.8206894 102.173807,32.0518485 102.913762,28.6021452 C103.098751,27.6489377 103.283739,24.3354068 103.283739,21.2488301 L103.283739,15.6203667 L101.665089,15.0756767 C100.000191,14.5309867 99.5377191,13.7139517 100.231427,12.6699625 C100.786392,11.8075367 108.093444,11.7621459 108.64841,12.6245717 C108.879646,12.9876984 109.064635,17.7537359 109.064635,23.2914176 C109.064635,33.8220911 109.157129,34.3667811 111.192004,34.3667811 C112.671914,34.3667811 113.411868,35.4561611 112.764408,36.6363227 C112.301936,37.4987486 111.931959,37.5895303 108.00095,37.4533577 L103.746211,37.3171852 L103.60747,35.8646786 C103.514975,35.0476436 103.329987,34.3667811 103.237492,34.3667811 C103.098751,34.3667811 102.312549,34.8660802 101.4801,35.5015519 C98.104057,38.0434386 93.6643292,38.7243011 90.5657692,37.1810127 L90.5657692,37.1810127 Z" id="Path"></path>
            <path d="M154.741756,37.0971941 C150.345127,34.7972671 147.984832,28.2654743 149.419521,22.6996509 C151.131893,16.2138567 155.806203,11.8899939 161.915204,11.0620202 C164.692022,10.6940318 170.708461,12.0279895 172.235712,13.3619472 L173.438999,14.3739151 L173.392719,22.1016699 C173.346439,26.3795341 173.438999,30.7493955 173.624121,31.8533605 C173.855522,33.601305 174.086924,33.9232948 175.475333,34.3372817 C177.141424,34.8892641 177.326545,35.2572525 176.58606,36.6832072 C176.169537,37.4191839 175.567893,37.5571795 172.744795,37.5571795 C170.708461,37.5571795 169.134931,37.3271868 168.810969,37.005197 C168.487007,36.6832072 168.255605,35.5792422 168.255605,34.4752773 L168.255605,32.49734 L166.543234,34.3832802 C165.617628,35.3952481 164.044098,36.6372087 163.118491,37.1431926 C160.804476,38.2931561 157.009491,38.2931561 154.741756,37.0971941 L154.741756,37.0971941 Z M163.072211,33.4173108 C167.052317,30.9793882 169.412613,23.0216407 167.746522,17.179826 C167.098598,14.7879019 165.617628,13.9139297 162.470567,14.1899209 C159.554908,14.4199136 157.749976,15.7538713 156.083885,18.9277706 C154.926878,21.1816991 154.510355,26.793521 155.29712,29.6914291 C156.407847,33.8312977 159.740029,35.4412466 163.072211,33.4173108 Z" id="Shape"></path>
            <path d="M200.517141,37.2077719 L198.169808,36.4286385 L198.028968,32.2121519 C197.935075,29.6914262 198.075915,27.9498339 198.357595,27.9498339 C198.592328,27.9498339 199.108741,27.8123398 199.531261,27.6748457 C200.047674,27.4915202 200.611034,28.1789908 201.64386,30.3788969 C202.62974,32.5329716 203.427833,33.5870932 204.460659,34.0912383 C207.371351,35.6036738 211.87823,34.5495521 213.192736,32.0288264 C213.568309,31.3413558 213.896936,29.7372576 213.896936,28.4998105 C213.896936,25.2457828 212.629376,23.7791787 205.869059,19.1502097 C198.169808,13.8337701 196.808355,9.20480111 201.596914,4.53000074 C205.399592,0.817659278 211.502656,-0.0531368685 216.619841,2.33009469 L218.591601,3.29255359 L218.591601,5.90494203 C218.591601,10.2589228 216.666788,10.9463934 214.648082,7.32571469 C213.192736,4.71332625 212.30075,4.11751836 209.90647,4.11751836 C206.338525,4.11751836 204.085086,6.54658129 204.695392,9.75477762 C205.024019,11.5422013 207.230511,13.696276 211.549603,16.4919899 C217.324041,20.2959941 220,24.054167 220,28.3623163 C219.953053,32.1204892 216.807628,35.9244934 212.535483,37.3452661 C209.718684,38.2618936 203.521726,38.2160622 200.517141,37.2077719 L200.517141,37.2077719 Z" id="Path"></path>
            <path d="M264.016352,36.8918096 C258.229564,33.9456002 255.565805,26.534042 257.770295,19.582829 C258.918468,15.9461017 262.776326,12.1712708 266.083062,11.3426494 C271.777997,10.0076483 276.60032,12.6316161 278.483322,18.2017933 C279.172226,20.2273123 279.172226,23.9100742 278.483322,24.600592 C278.115907,24.9688682 275.589928,25.1530063 270.170556,25.1530063 L262.408911,25.1530063 L262.730399,26.6721455 C263.327449,29.7564586 263.924499,30.9993907 265.486013,32.5185299 C266.863819,33.8535311 267.460869,34.0837037 269.849067,34.2678418 C272.191339,34.4519799 272.880242,34.3138763 274.717318,33.2090478 C276.141051,32.3804264 276.967735,32.1042192 277.289223,32.4264609 C277.978127,33.1169787 277.381077,35.0043942 276.095124,36.5235334 C275.038806,37.720431 274.717318,37.8125001 270.675751,37.9506036 C266.817893,38.0887072 266.174916,37.9966382 264.016352,36.8918096 L264.016352,36.8918096 Z M273.79878,20.7336921 C274.212122,19.0304148 273.247657,16.1302398 271.823924,15.0714458 C270.40019,13.9205827 268.057919,13.8285137 266.174916,14.7952386 C264.751183,15.531791 263.281522,17.9255862 262.730399,20.457485 L262.408911,21.9305897 L267.966065,21.9305897 L273.523218,21.9305897 L273.79878,20.7336921 L273.79878,20.7336921 Z" id="Shape"></path>
            <path d="M289.539696,37.0004925 C283.288639,33.9470539 280.368437,26.3134573 282.923614,19.4663525 C284.155574,16.0890644 286.117584,13.8221175 289.220299,12.2953982 C291.547334,11.1387927 292.277385,11 296.475174,11 C302.133065,11 303,11.5551707 303,14.9324588 C303,18.3560112 301.26613,19.3275599 299.942914,16.5979708 C299.075979,14.7474019 297.707135,14.0071744 295.060702,14.0071744 C292.551154,14.0071744 290.361002,15.4876295 288.900901,18.1709543 C287.258288,21.1781287 287.258288,26.7298353 288.855273,29.9220666 C290.589143,33.345619 291.912359,34.1321107 295.83638,34.1321107 C298.482813,34.1321107 299.395376,33.9470539 300.53608,33.1142979 C303.182513,31.2174648 303.866935,33.7157327 301.448643,36.5378503 C300.399195,37.74072 300.125427,37.8332485 296.064521,37.9720411 C292.368641,38.0645696 291.547334,37.9720411 289.539696,37.0004925 L289.539696,37.0004925 Z" id="Path"></path>
            <path d="M348.165684,37.4620275 C345.963702,36.7729969 342.385481,33.3737796 341.100991,30.8013989 C339.633003,27.7696646 339.633003,21.844002 341.100991,18.5366554 C343.66997,12.886605 349.81717,9.76299988 355.001003,11.4626085 C358.900347,12.7947342 361.790448,16.8829821 361.973947,21.3846483 C362.111571,25.1513485 362.019821,25.1972839 353.303642,25.1972839 L345.780203,25.1972839 L345.780203,26.7131511 C345.780203,28.8721134 347.569314,32.1335246 349.450173,33.3737796 C351.606281,34.8437114 355.826747,34.6599699 358.120478,33.052232 C359.450842,32.0875893 359.680215,32.0416539 360.32246,32.6388137 C360.91883,33.2819089 360.872956,33.5575211 359.817839,35.2571297 C359.12972,36.3136432 358.074603,37.3701567 357.432359,37.5998336 C355.918496,38.1969934 350.092418,38.1051226 348.165684,37.4620275 Z M356.698365,20.3740701 C357.111236,16.6992406 355.046878,14.1727953 351.560406,14.1727953 C348.762054,14.1727953 345.780203,17.617948 345.780203,20.8334238 L345.780203,22.0277434 L351.193409,21.8899373 L356.560741,21.7521312 L356.698365,20.3740701 Z" id="Shape"></path>
            <path d="M0,37.2209404 C0,36.1210916 0.454545455,35.6169942 2.04545455,34.7921076 L3.40909091,34.058875 L3.40909091,19.9441483 L3.40909091,5.78359456 L1.81818182,5.23367014 C0.227272727,4.68374572 -0.272727273,3.8588591 0.363636364,2.85066433 C0.727272727,2.30073992 10.6818182,1.70498846 12.3636364,2.16325881 C13.8181818,2.52987509 13.1818182,4.22547538 11.2727273,5.14201607 L9.54545455,5.92107566 L9.54545455,11.7411091 C9.54545455,15.1781367 9.72727273,17.3778344 9.95454545,17.1028721 C10.1818182,16.873737 12.9545455,13.4825364 16.1363636,9.58723844 C21.2727273,3.30893468 22.0909091,2.43822102 23.5909091,2.20908585 C28.5,1.33837219 29.6818182,3.35476172 25.5909091,5.60028642 C23.8636364,6.51682711 21.9090909,8.34990851 18.6363636,12.1535524 C16.1363636,15.0864826 14.0909091,17.6986236 14.0909091,18.0652399 C14.0909091,18.7984724 26.7727273,33.4631236 28.6363636,34.8379346 C29.4545455,35.4795131 30,36.3043997 30,36.9459782 C30,37.9083459 29.8181818,38 27.2272727,38 C25.7272727,38 24.0909091,37.7708648 23.6363636,37.5417297 C23.1363636,37.2667674 19.8181818,33.5089506 16.2727273,29.2012093 L9.77272727,21.3189593 L9.63636364,27.459782 C9.59090909,30.8509826 9.59090909,33.8297398 9.72727273,34.1505291 C9.81818182,34.4254913 10.6818182,34.7921076 11.5454545,34.9754157 C12.6818182,35.2045509 13.1818182,35.5253401 13.1818182,36.0752645 C13.1818182,37.7708648 12.2727273,38 6.04545455,38 C0.590909091,38 0,37.9083459 0,37.2209404 L0,37.2209404 Z" id="Path"></path>
            <path d="M63.1167188,37.6723775 C62.665173,36.8767229 63.5682645,35.6130362 65.0583654,34.8173816 L66.6387754,34.021727 L66.7742391,25.597149 C66.8193937,20.9636311 66.7742391,16.7045389 66.6387754,16.1429003 C66.5033117,15.4876554 65.9163022,15.0196232 65.1035199,14.8324104 C63.2521825,14.4111815 62.665173,13.5687237 63.3876462,12.4922498 C63.8391919,11.8838081 64.7422833,11.649792 66.9548574,11.5093824 C71.0639234,11.3221696 71.8315512,11.6029888 71.8315512,13.2411012 C71.8315512,13.9899526 71.9670149,14.5983943 72.1024786,14.5983943 C72.2379423,14.5983943 73.2764975,13.849543 74.4053618,12.9602819 C77.972573,10.1520893 79.6884467,10.3393021 81.3140113,13.6623301 C82.1719482,15.4408521 82.2171027,15.5812618 81.4946296,16.7513421 C80.6818473,18.0150288 80.0948378,18.061832 77.4307181,16.8917517 C75.4890715,16.0960971 73.8183523,16.6577356 72.8701063,18.4830609 C72.2830969,19.6531412 72.057324,21.38486 72.0121694,26.2055907 C71.8767057,33.6004981 72.1024786,34.4897592 74.2698981,34.9109881 C76.1663901,35.2854137 76.5727812,35.8002491 75.8954626,37.0639358 C75.4439169,37.9531968 74.9923712,38 69.3480497,38 C66.0517659,38 63.2070279,37.8595904 63.1167188,37.6723775 L63.1167188,37.6723775 Z" id="Path"></path>
            <path d="M116.105701,37.5344828 C115.6493,36.7896552 116.744663,35.2534483 117.976947,34.9275862 C118.570269,34.787931 119.300512,34.2758621 119.528712,33.8103448 C120.030754,32.8793103 120.167675,17.1448276 119.711273,15.9344828 C119.574353,15.562069 118.75283,15.0965517 117.885667,14.9103448 C116.014421,14.537931 115.69494,14.1189655 116.333902,12.862069 C116.790303,12.0241379 117.292345,11.9310345 120.897917,11.9310345 L125.005531,11.9310345 L125.005531,14.0258621 L125.005531,16.1206897 L126.876777,14.2586207 C128.839303,12.35 132.079754,11 134.818163,11 C137.145811,11 140.112421,12.862069 141.162144,14.9568966 C142.029307,16.5862069 142.120587,17.8431034 142.257508,25.5241379 L142.440068,34.2758621 L144.220034,34.787931 C145.361038,35.1603448 146,35.6258621 146,36.137931 C146,37.7206897 145.041557,38 139.062697,38 C133.81408,38 133.220758,37.9068966 133.220758,37.2086207 C133.220758,36.0448276 133.722799,35.4396552 135.274565,34.6948276 L136.643769,34.0431034 L136.78069,26.9206897 C136.96325,16.4465517 136.278648,14.8172414 131.897193,15.3293103 C127.83522,15.7948276 125.644493,19.8913793 125.142451,28.2706897 C124.82297,33.3448276 125.233731,34.5086207 127.287538,34.9741379 C128.930584,35.3465517 129.113144,35.6258621 128.611103,36.9758621 C128.245981,37.9534483 128.017781,38 122.312762,38 C118.935391,38 116.288262,37.8137931 116.105701,37.5344828 L116.105701,37.5344828 Z" id="Path"></path>
            <path d="M223,37.2113593 C223,36.0515935 223.502146,35.4485153 225.054233,34.7062652 L226.423722,34.0567963 L226.423722,18.7942786 L226.423722,3.48537017 L224.962934,3.11424512 C223.228248,2.65033881 222.817401,2.14004186 223.228248,0.887494809 C223.502146,0.00607281087 223.867343,-0.0867084521 227.701912,0.0524634424 L231.901678,0.191635337 L232.129926,7.98526143 L232.358174,15.8252781 L233.499415,14.5727311 C235.507999,12.3923714 237.973079,11.3717775 241.351151,11.3253869 C244.637924,11.3253869 245.961764,11.9748557 247.833399,14.5263405 C248.700741,15.6861063 248.792041,16.6603095 249.020289,24.6858888 C249.157238,29.6032957 249.431136,33.8712338 249.613734,34.1959682 C249.841982,34.474312 250.344128,34.7526558 250.800624,34.7526558 C251.211471,34.7526558 251.941865,35.0309996 252.398361,35.355734 C253.083106,35.866031 253.174405,36.1443747 252.717909,36.9794061 C252.215763,37.9536094 251.850566,38 246.281311,38 C242.948888,38 240.30121,37.8144375 240.118611,37.5360937 C239.662115,36.7938436 240.757706,35.2629527 241.990246,34.9382183 C243.724932,34.474312 243.99883,33.4073275 243.95318,27.4693267 C243.90753,17.4025596 243.131487,15.2685906 239.570816,15.2685906 C234.686305,15.2685906 232.129926,20.3251694 232.129926,29.8816395 L232.129926,34.2423588 L233.955911,34.7990464 C235.142801,35.1701715 235.781896,35.6340778 235.781896,36.1443747 C235.781896,37.7216562 234.823254,38 228.843153,38 C223.593445,38 223,37.9072187 223,37.2113593 L223,37.2113593 Z" id="Path"></path>
            <path d="M306.111328,37.5360937 C305.65418,36.7938436 306.659905,35.4021246 308.122778,34.7990464 C308.854214,34.474312 309.585651,33.7784525 309.722795,33.221765 C310.179943,31.5053116 310.042799,5.66572985 309.585651,4.45957343 C309.311362,3.71732333 308.625641,3.16063575 307.75706,2.97507323 C306.019898,2.60394817 305.699895,2.09365123 306.339902,0.887494809 C306.797049,0.00607281087 307.208482,-0.0867084521 310.81995,0.0524634424 L314.797136,0.191635337 L314.93428,7.98526143 L315.025709,15.7788875 L316.94573,14.1088248 C318.911466,12.438762 322.340074,11.0934337 324.808672,11.0934337 C327.140126,11.0934337 329.837298,12.7634965 331.071597,14.9438562 C332.077322,16.7530908 332.168751,17.4489503 332.397325,25.7064827 L332.625899,34.474312 L334.363061,34.8918277 C336.145937,35.355734 336.328796,35.6804684 335.59736,37.118578 C335.140212,37.9072187 334.591635,38 329.197291,38 C323.848662,38 323.25437,37.9072187 323.25437,37.2113593 C323.25437,36.0515935 323.757232,35.4485153 325.311535,34.7062652 L326.682978,34.0567963 L326.820122,27.1909829 C326.865837,23.3405604 326.728693,19.5365287 326.454404,18.5159348 C325.814397,16.1036219 324.30581,15.083028 321.837211,15.4077625 C317.448593,16.0108407 315.025709,21.252982 315.025709,30.1599833 C315.025709,33.9640151 315.254283,34.4279214 317.448593,34.984609 C318.682892,35.3093434 318.911466,35.866031 318.408603,37.2577499 C318.180029,37.8608281 317.174304,38 312.282823,38 C308.945644,38 306.294187,37.8144375 306.111328,37.5360937 L306.111328,37.5360937 Z" id="Path"></path>
            <path d="M365.114647,37.6603549 C364.657092,36.8693845 365.617958,35.4735544 367.127891,34.7756393 L368.683579,34.0311966 L368.683579,24.7721903 L368.683579,15.513184 L367.082135,14.9548519 C365.480692,14.3965199 364.794359,13.1402728 365.617958,12.3027748 C366.075513,11.8374981 373.442154,11.697915 373.853954,12.1631917 C373.99122,12.3027748 374.082731,13.1402728 374.036976,14.0242985 C373.99122,14.9083243 374.082731,15.652767 374.219998,15.652767 C374.357264,15.652767 375.180864,14.9083243 376.095974,14.0242985 C377.834685,12.3493024 381.220594,11 383.737148,11 C386.07068,11.0465277 388.816012,12.5819408 390.005656,14.5361029 C391.058033,16.2576267 391.103788,16.8159587 391.241055,25.2839947 L391.424077,34.263835 L393.208543,34.7756393 C395.038764,35.380499 395.496319,36.3575801 394.443942,37.4277165 C393.757609,38.1256316 382.822037,38.2186869 382.410238,37.5207718 C381.861171,36.6367461 382.639015,35.4270267 384.148948,34.7291117 L385.613125,34.0311966 L385.750391,27.0520461 C385.841902,23.2367772 385.750391,19.3749806 385.613125,18.5374825 C384.74377,13.6520772 378.383751,14.1638816 375.912952,19.3749806 C374.81482,21.7013641 374.494531,23.3763602 374.128487,28.5874592 C373.853954,32.5888388 374.40302,34.7291117 375.684175,34.7291117 C376.14173,34.7291117 376.873818,35.0082777 377.331374,35.3339714 C378.017707,35.8457757 378.109218,36.1249418 377.651662,36.9624398 C377.148352,37.9395209 376.782307,37.9860485 371.200133,37.9860485 C367.95149,37.9860485 365.206158,37.8464655 365.114647,37.6603549 L365.114647,37.6603549 Z" id="Path"></path>
            <path d="M180.61912,27.7137753 C180.238123,27.5764808 180,26.6154199 180,25.2424756 L180,23 L186.857942,23 L193.715884,23 L193.954007,24.5102387 C194.049256,25.2882404 194.001631,26.4323606 193.763508,27.0273031 C193.382512,27.9883641 193.144389,28.0341289 187.286563,27.9883641 C183.905217,27.9883641 180.904867,27.8510697 180.61912,27.7137753 Z" id="Path"></path>
        </g>
    </g>
</svg>