<svg xmlns="http://www.w3.org/2000/svg" width="500" height="500" viewBox="0 0 500 500"><g fill="none" fill-rule="evenodd"><path fill="#000" fill-rule="nonzero" d="M407.582291,255.746568 L364.624142,255.746568 C364.624142,255.746568 365.096658,279.048229 365.64501,279.048229 L418.25766,279.048229 L407.582291,255.746568 Z"/><path fill="#000" fill-rule="nonzero" d="M404.356347 229.625736 404.397181 220.59975C404.397181 218.859521 405.406383 217.844388 407.168111 217.844388L412.587465 217.844388 412.587465 203.922559 396.457741 203.922559C390.53087 203.922559 387.888278 206.550304 387.888278 212.438078L387.888278 229.614134 412.797471 272.696395C412.797471 272.696395 414.145019 275.219726 413.666668 275.910017 413.188319 276.600308 410.306552 276.490093 410.306552 276.490093L367.768417 276.490093 367.768417 255.560943 367.768417 212.449679C367.768417 206.561906 365.125825 203.93416 359.198954 203.93416L343.057563 203.93416 343.057563 217.855989 348.476917 217.855989C350.226978 217.855989 351.247846 218.859521 351.247846 220.611351L351.247846 241.668118 321.788496 241.668118 321.788496 212.449679C321.788496 206.561906 319.268408 203.93416 313.219033 203.93416L297.095143 203.93416 297.095143 217.855989 302.514497 217.855989C304.264557 217.855989 305.285426 218.859521 305.285426 220.611351L305.285426 292.90625 321.794329 292.90625 321.794329 255.560943 351.25368 255.560943 351.25368 283.526418C351.25368 288.713163 355.482123 292.917852 360.698173 292.917852L421.116092 292.917852C421.116092 292.917852 430.449748 293.376111 433.366515 285.249244 435.291582 277.603839 430.694756 271.14179 430.694756 271.14179L404.356347 229.625736ZM293.606689 276.118844 284.914722 258.948588C283.966946 257.022373 282.431681 255.44295 280.527904 254.435595L280.527904 254.180362C284.308035 253.432064 295.403418 246.790191 295.403418 230.745283 295.403418 213.952077 283.934688 203.92836 267.548289 203.92836L227.442737 203.92836 227.442737 217.850189 235.609686 217.850189 235.609686 292.90625 252.11859 292.90625 252.11859 259.696887 260.460544 259.696887C265.127372 259.696887 267.017437 260.323369 268.901669 263.83283L280.370398 286.264377C283.287166 291.902717 286.168932 292.90625 292.848329 292.90625L301.528629 292.90625 301.528629 278.984421 299.895239 278.984421C297.135977 278.996022 294.99507 278.74659 293.606689 276.118844ZM265.249876 245.664843 252.147757 245.664843 252.147757 217.821185 265.506552 217.821185C273.57433 217.821185 278.486167 222.833043 278.486167 231.603796 278.486167 240.519567 273.568497 245.659042 265.249876 245.659042L265.249876 245.664843Z"/><polygon fill="#000" fill-rule="nonzero" points="44.307 265.15 54.381 207.989 62.198 207.989 53.331 258.107 76.315 258.107 75.003 265.126"/><path fill="#000" fill-rule="nonzero" d="M91.9141679,248.014152 C89.498797,248.025358 87.0880131,247.803895 84.715586,247.352865 C84.715586,256.98213 89.3124114,259.435852 95.1401127,259.435852 C98.9579762,259.403573 102.729216,258.598298 106.223829,257.069141 L105.897151,262.869904 C102.857879,264.256286 98.4243928,265.973311 93.1742115,265.973311 C82.0088258,265.973311 76.7586445,258.380114 76.7586445,248.669638 C76.7586445,236.018176 85.543948,224.347042 98.6752348,224.347042 C106.474671,224.347042 110.657315,228.511989 110.657315,234.550583 C110.657315,240.589176 106.363834,248.014152 91.9141679,248.014152 Z M85.4972796,242.21339 C87.2473401,242.457022 87.6323534,243.031297 91.2433115,243.031297 C101.096152,243.031297 103.802912,238.703929 103.802912,235.438099 C103.802912,232.17227 101.096152,230.867099 97.8935411,230.867099 C92.8183659,230.867099 88.3032099,234.295349 85.5089467,242.21339 L85.4972796,242.21339 Z"/><polygon fill="#000" fill-rule="nonzero" points="110.628 265.15 120.726 207.989 131.226 207.989 122.943 255.027 145.186 255.027 143.378 265.15"/><path fill="#000" fill-rule="nonzero" d="M183.191487 252.248708C182.996487 253.272416 182.887219 254.310444 182.864809 255.352116 182.864809 257.637616 183.850676 257.637616 186.889948 257.637616L184.591535 265.96171C176.220413 265.96171 174.674526 265.143802 172.609455 261.228288 169.488108 264.298875 165.262876 266.002861 160.872383 265.96171 151.101212 265.96171 145.35518 258.530934 145.35518 248.495615 145.35518 236.006574 154.222153 223.679955 169.080166 223.679955 173.268644 223.679955 175.397884 224.660283 177.451289 226.371508L178.617996 224.32964 187.951651 224.32964 183.191487 252.248708ZM155.943046 247.677708C155.943046 253.63509 158.323128 257.637616 163.98749 257.637616 173.099472 257.637616 175.071206 247.515286 175.071206 241.314271 175.071206 235.600521 173.431983 232.032995 168.175968 232.032995 160.866549 232.009849 155.943046 239.109982 155.943046 247.677708ZM198.376177 262.864103 197.886162 265.149603 188.284162 265.149603 199.117037 203.92836 209.378225 203.92836 205.353085 226.377309C208.05334 224.533953 211.272773 223.591425 214.546737 223.685755 225.712121 223.685755 230.880634 231.278953 230.880634 241.088042 230.880634 253.658293 222.25867 265.984913 207.155647 265.984913 202.646326 265.96171 200.756259 264.836362 198.376177 262.864103ZM201.164607 248.362198C201.164607 254.075948 202.914668 257.643417 208.164849 257.643417 215.550105 257.643417 220.415272 250.462073 220.415272 242.050968 220.415272 236.093586 218.03519 232.009849 212.370827 232.009849 203.632193 232.009849 201.170441 241.476693 201.170441 248.333194L201.164607 248.362198Z"/><ellipse cx="383.058" cy="243.948" fill="#000" fill-rule="nonzero" rx="7.222" ry="7.181"/><ellipse cx="375.918" cy="229.904" fill="#000" fill-rule="nonzero" rx="4.002" ry="3.979"/><ellipse cx="379.488" cy="217.311" fill="#000" fill-rule="nonzero" rx="1.954" ry="1.943"/></g></svg>