<svg xmlns="http://www.w3.org/2000/svg" width="500" height="500" viewBox="0 0 500 500"><g fill="none" fill-rule="evenodd"><path fill="#000" fill-rule="nonzero" d="M100.256949,268.737173 C99.5641549,268.390776 98.2651661,267.871181 97.3125743,267.611383 C96.4032822,267.308285 95.6238889,266.918589 95.6238889,266.74539 C95.6238889,266.572192 94.8877952,266.182495 94.0218027,265.879398 C93.1125105,265.5763 91.8135218,265.013405 91.0774281,264.580409 C90.3846341,264.104113 89.4320423,263.757716 89.0423457,263.757716 C88.6093494,263.757716 88.2629524,263.584518 88.2629524,263.368019 C88.2629524,263.151521 87.7433569,262.848424 87.0938625,262.675225 C86.4010685,262.545327 85.5350759,262.15563 85.1020797,261.852532 C84.365986,261.289637 84.365986,261.203038 85.1020797,259.600952 C85.5350759,258.64836 85.9680722,257.825667 86.0979711,257.695768 C86.22787,257.565869 86.6608662,256.786476 87.1371621,255.963783 C87.5701584,255.14109 88.3928513,253.625603 88.9557464,252.629712 C90.9042296,249.165742 92.2898176,246.654364 93.5455068,244.316184 C95.8836866,239.986221 97.1393758,237.77794 98.0919676,236.132554 C98.6115631,235.266562 99.434256,233.707775 99.9105519,232.711884 C100.386848,231.672693 100.863144,230.85 100.949743,230.85 C101.209541,230.85 104.543612,235.396461 105.193106,236.565551 C105.496204,237.085146 105.9292,237.77794 106.188998,238.037738 C106.448795,238.297536 106.925091,238.903731 107.228189,239.336727 C107.531286,239.813023 108.440578,241.155311 109.306571,242.324401 C110.129264,243.536791 111.73135,245.87497 112.85714,247.563656 C113.98293,249.209042 115.15202,250.897727 115.455118,251.244124 C115.758215,251.590521 116.40771,252.456514 116.840706,253.149308 C118.919088,256.35348 118.875788,256.266881 120.131477,257.825667 C120.780972,258.605061 122.12326,261.203038 121.950062,261.332937 C121.733564,261.462836 116.537608,263.584518 113.160238,264.883506 C111.514852,265.489701 109.306571,266.398993 108.310679,266.83199 C107.314788,267.308285 106.275597,267.654682 106.015799,267.654682 C105.756001,267.654682 105.019908,267.91448 104.370413,268.260877 C102.335331,269.300068 101.512638,269.386667 100.256949,268.737173 L100.256949,268.737173 Z M106.102398,265.316503 C107.358088,264.753607 108.873575,264.147413 109.479769,264.017514 C110.085964,263.844315 110.951957,263.541218 111.428253,263.32472 C114.199429,262.11233 115.498417,261.592735 116.970605,261.159738 C117.836597,260.899941 118.572691,260.510244 118.572691,260.293746 C118.572691,259.600952 117.576799,257.695768 117.230402,257.695768 C117.057204,257.695768 116.754107,257.306072 116.624208,256.829776 C116.494309,256.35348 116.104612,255.703986 115.801515,255.444188 C115.498417,255.14109 114.199429,253.322506 112.943739,251.417323 C111.644751,249.512139 110.432361,247.910053 110.259163,247.823454 C110.042664,247.736854 109.912766,247.390457 109.912766,247.08736 C109.912766,246.740963 109.652968,246.307967 109.306571,246.134768 C109.003473,245.96157 108.397279,245.225476 108.007582,244.489382 C107.358088,243.276993 105.063207,239.856322 103.63432,237.994438 C103.287923,237.561442 102.984825,236.998547 102.984825,236.825348 C102.984825,236.65215 102.811627,236.478951 102.551829,236.478951 C102.075533,236.478951 101.902335,265.5763 102.42193,266.052596 C102.898226,266.572192 103.764219,266.398993 106.102398,265.316503 Z M100.040451,254.578195 C99.9971511,248.299749 99.9105519,241.934704 99.8239526,240.375918 L99.7373534,237.561442 L97.7888702,241.025412 C95.7970874,244.575982 95.1908926,245.701772 92.592915,250.681229 C91.7702221,252.283315 90.9475292,253.668903 90.8176303,253.798802 C90.514533,254.0153 87.3969599,260.120547 87.3969599,260.466944 C87.3969599,260.553544 88.1330535,260.899941 89.0423457,261.203038 C89.9083382,261.506135 91.3372259,262.15563 92.1599188,262.675225 C92.9826117,263.194821 94.3681997,263.844315 95.1908926,264.147413 C96.0135855,264.40721 97.1826754,264.926806 97.7888702,265.273203 C100.256949,266.658791 100.17035,266.918589 100.040451,254.578195 L100.040451,254.578195 Z"/><polygon fill="#000" fill-rule="nonzero" points="44.097 250.075 44.097 232.972 45.31 233.102 46.479 233.231 46.609 248.949 46.695 264.624 56.438 264.624 66.18 264.624 66.18 265.923 66.18 267.222 55.139 267.222 44.097 267.222"/><path fill="#000" fill-rule="nonzero" d="M145.851455 250.118334C145.851455 233.18818 145.851455 233.014981 146.717448 233.014981 147.843238 233.014981 148.925729 234.184071 153.125793 239.726423 154.944377 242.107903 156.762961 244.446083 157.195958 244.879079 157.628954 245.355375 158.06195 246.091468 158.235149 246.524465 158.365048 246.957461 158.624845 247.303858 158.841343 247.303858 159.057842 247.303858 160.053733 248.429648 161.049624 249.815236 162.045516 251.157525 163.128006 252.586412 163.431104 252.932809 164.859991 254.534896 166.072381 256.050383 167.068272 257.47927 167.674467 258.345263 168.800257 259.81745 169.579651 260.813341L170.965239 262.545327 170.965239 247.780154 170.965239 233.014981 172.264228 233.014981 173.563216 233.014981 173.563216 250.118334 173.563216 267.221686 172.567325 267.221686C171.917831 267.221686 171.181737 266.702091 170.532243 265.836098 169.969347 265.056705 169.146654 264.017514 168.713658 263.541218 168.280662 263.064922 166.678576 261.02984 165.119789 258.994757 161.56922 254.361697 160.963025 253.582304 159.967134 252.413214 159.534137 251.850319 158.668145 250.724529 158.06195 249.901836 157.412456 249.079143 156.286665 247.606955 155.463973 246.654364 154.684579 245.701772 153.905186 244.74918 153.731988 244.489382 153.558789 244.272884 152.519598 242.887296 151.393808 241.458408 147.756639 236.65215 148.016437 235.742858 148.016437 252.456514L148.016437 267.221686 146.933946 267.221686 145.851455 267.221686 145.851455 250.118334ZM202.444067 258.69166 202.573966 250.118334 203.743056 250.118334 204.955446 250.118334 205.085344 257.392671 205.171944 264.623709 212.143184 264.623709C221.409304 264.623709 223.227888 264.147413 226.994955 260.726742 229.98263 257.955566 230.891922 255.920484 231.06512 251.157525 231.281618 245.658472 230.502225 242.843997 227.990847 240.246019 226.994955 239.206828 225.392869 237.907839 224.440277 237.431543 220.71651 235.43976 219.201023 235.179963 210.757595 235.179963 203.136861 235.179963 202.660565 235.136663 202.444067 234.35727 202.314168 233.880974 202.357468 233.404678 202.487367 233.274779 202.877063 232.841783 219.417521 232.971682 220.240214 233.404678 220.62991 233.621176 221.928899 234.054172 223.054689 234.35727 225.003173 234.833566 227.168154 236.262453 229.89603 238.860431 232.927004 241.761506 234.52909 247.736854 233.749697 252.932809 233.316701 255.617386 232.190911 258.605061 231.498117 258.908158 231.281618 258.994757 231.151719 259.297855 231.151719 259.600952 231.151719 260.207147 227.774349 263.454619 226.345461 264.234012 225.782566 264.49381 225.219671 264.883506 225.089772 265.100004 224.959873 265.273203 223.227888 265.836098 221.236105 266.312394 218.248431 267.048488 216.256648 267.221686 209.978202 267.221686L202.357468 267.221686 202.444067 258.69166 202.444067 258.69166ZM263.842937 266.78869C263.713039 266.572192 263.236743 266.355694 262.847046 266.355694 261.764555 266.355694 256.785098 263.671117 256.482001 262.935023 256.352102 262.588626 256.482001 262.025731 256.828398 261.722634 257.304694 261.246338 257.69439 261.332937 259.253177 262.458727 262.673848 264.970106 270.46778 265.749499 274.581245 264.060813 276.702926 263.151521 278.348312 260.596843 278.348312 258.172064 278.348312 256.526678 278.131814 256.050383 276.616327 254.621495 274.841043 252.932809 271.63687 251.67712 267.523406 250.984326 266.440915 250.811128 265.401724 250.55133 265.141926 250.378132 264.925428 250.204933 263.799638 249.728637 262.717147 249.295641 260.162469 248.386349 257.651091 245.91827 257.304694 243.969787 256.482001 239.509925 258.387184 235.916056 262.543949 234.097472 264.70893 233.101581 265.791421 232.928382 269.168791 232.928382 271.63687 232.928382 273.412155 233.101581 273.715252 233.404678 273.97505 233.664476 274.537945 233.880974 274.970941 233.880974 275.533837 233.880974 278.131814 234.876865 279.127706 235.43976 279.214305 235.52636 279.171005 235.959356 278.997807 236.435652 278.694709 237.518142 278.001915 237.561442 276.31323 236.738749 273.022458 235.093363 272.459563 234.963465 268.519297 235.006764 266.267717 235.006764 264.275934 235.223262 264.146035 235.43976 263.972836 235.699558 263.150143 236.305753 262.284151 236.825348 260.422267 237.951139 259.729473 239.336727 259.729473 241.891405 259.729473 243.493491 259.989271 244.142985 261.20166 245.485274 262.717147 247.13066 264.882128 247.996652 270.987376 249.468839 272.069866 249.728637 273.325556 250.118334 273.801851 250.291532 274.278147 250.50803 275.274039 250.897727 276.010132 251.200824 282.461777 253.625603 282.158679 263.497918 275.533837 265.965997 274.841043 266.225795 273.888451 266.615491 273.498754 266.83199 272.459563 267.351585 264.189334 267.351585 263.842937 266.78869ZM306.493069 250.075034 306.493069 232.971682 307.705459 233.101581 308.874549 233.231479 308.961148 249.252341C309.004448 258.085465 308.961148 265.706199 308.874549 266.269094 308.70135 266.918589 308.311654 267.221686 307.57556 267.221686L306.493069 267.221686 306.493069 250.075034ZM330.74086 266.875289C330.74086 266.702091 330.004767 265.749499 329.138774 264.753607 328.229482 263.801016 326.584096 261.982431 325.458306 260.770042 324.332515 259.514353 323.250025 258.258664 323.076826 257.912266 322.557231 257.046274 318.660264 252.673012 316.798381 250.854427 315.889088 250.031734 315.152995 249.122442 315.152995 248.819345 315.152995 248.559547 318.530366 244.879079 322.64383 240.679015 329.268673 233.837674 330.221265 233.014981 331.520253 233.014981 332.256347 233.014981 332.905842 233.058281 332.905842 233.14488 332.905842 233.231479 330.134665 236.089255 326.757295 239.553225 318.140669 248.25645 317.96747 248.472948 318.703564 249.209042 319.829354 250.378132 323.336624 254.491596 325.977901 257.695768 326.800594 258.734959 327.969684 260.077248 328.575879 260.726742 329.182074 261.376237 330.307864 262.631926 331.130557 263.584518 331.95325 264.49381 332.992441 265.706199 333.468737 266.269094L334.334729 267.221686 332.559445 267.221686C331.563553 267.221686 330.74086 267.048488 330.74086 266.875289L330.74086 266.875289Z"/><polygon fill="#000" fill-rule="nonzero" points="357.587 250.118 357.587 233.015 358.669 233.015 359.752 233.015 359.752 250.118 359.752 267.222 358.669 267.222 357.587 267.222"/><polygon fill="#000" fill-rule="nonzero" points="388.762 265.923 388.762 264.624 399.804 264.624 410.845 264.624 410.845 265.923 410.845 267.222 399.804 267.222 388.762 267.222"/><path fill="#000" fill-rule="nonzero" d="M442.670394 266.78869C442.540496 266.572192 442.107499 266.355694 441.761102 266.355694 440.635312 266.355694 435.612555 263.714416 435.309458 263.021622 435.179559 262.631926 435.309458 262.025731 435.655855 261.722634 436.17545 261.203038 436.565147 261.332937 438.427031 262.588626 442.280698 265.186604 449.728234 265.792799 453.6685 263.887615 457.695365 261.895832 458.431458 256.266881 454.880889 253.972 454.101496 253.452405 452.975706 252.88951 452.41281 252.716311 451.806616 252.543113 451.157121 252.240015 450.897323 252.066817 450.680825 251.893618 449.684934 251.633821 448.732342 251.460622 446.134365 251.027626 439.855919 248.992543 439.855919 248.559547 439.855919 248.386349 439.466222 248.083251 438.989926 247.953352 437.34454 247.433757 435.958952 244.575982 435.958952 241.804805 435.958952 238.210936 437.777537 235.656259 441.371406 234.054172 445.225072 232.408787 450.11793 232.408787 454.707691 234.140772 457.522166 235.179963 458.041762 235.52636 458.041762 236.349053 458.041762 237.648041 457.435567 237.604742 454.317994 236.175854 450.983923 234.703667 445.354971 234.487169 442.713694 235.786157 439.72602 237.215045 438.816728 238.427435 438.643529 241.415109 438.51363 243.753289 438.60023 244.186285 439.596121 245.138877 441.371406 246.914161 441.717803 247.08736 443.969383 247.736854 445.181773 248.039952 446.350863 248.429648 446.567361 248.602847 446.827159 248.776045 447.86635 249.079143 448.94884 249.252341 451.720016 249.685337 455.92008 251.460622 457.305668 252.759611 458.734556 254.0586 459.773747 256.440079 459.773747 258.301963 459.773747 261.246338 457.175769 264.883506 454.361294 265.922697 453.6685 266.225795 452.715908 266.615491 452.326211 266.83199 451.28702 267.351585 443.016791 267.351585 442.670394 266.78869L442.670394 266.78869ZM388.76236 249.945135C388.76236 249.512139 389.065457 248.992543 389.455154 248.862645 390.321146 248.516248 408.593588 248.516248 409.892577 248.862645 410.455472 249.035843 410.845169 249.468839 410.845169 249.945135 410.845169 250.724529 410.325574 250.767828 399.803764 250.767828 389.238655 250.767828 388.76236 250.724529 388.76236 249.945135L388.76236 249.945135Z"/><polygon fill="#000" fill-rule="nonzero" points="388.762 234.097 388.762 233.015 399.804 233.015 410.845 233.015 410.845 234.097 410.845 235.18 399.804 235.18 388.762 235.18"/></g></svg>