<svg xmlns="http://www.w3.org/2000/svg" width="500" height="500" viewBox="0 0 500 500"><path d="M403.189795,7.49183845 C404.67289,7.49183845 406.074805,7.65683635 407.392418,7.90122003 C408.710031,8.23121582 409.865284,8.56121161 410.853494,9.05309213 L410.853494,9.05309213 L411.018976,9.54652924 C410.853494,10.3684056 410.689573,11.2727808 410.606832,12.0931005 C410.524091,12.9149769 410.442911,13.9827934 410.442911,15.3806058 L410.442911,15.3806058 L408.710031,15.3806058 C408.710031,13.8193521 408.628851,12.749979 408.54611,12.091544 C408.135527,11.5156079 407.473598,11.0237274 406.402648,10.5302903 C405.412877,10.1209087 404.259185,9.87185528 402.941572,9.87185528 C401.046332,9.87185528 399.644417,10.366849 398.654646,11.2696676 C397.666437,12.2565419 397.171551,13.3243584 397.171551,14.5571729 C397.171551,15.4615482 397.335472,16.1184266 397.585257,16.6943626 C397.913099,17.2687421 398.326804,17.6796803 398.818567,18.0096761 C399.315014,18.3365587 400.139303,18.6665545 401.129073,18.9124947 C401.953362,19.0774926 403.024313,19.2424905 404.426228,19.4884308 C405.826582,19.7328145 406.733612,19.899369 407.145756,19.9818679 C408.218268,20.2278082 409.042557,20.5562474 409.784105,20.9671855 C410.527213,21.3781237 411.020538,21.8715608 411.432682,22.3634413 C411.844826,22.8568784 412.174229,23.5137568 412.41933,24.3356332 L412.41933,24.3356332 C412.673798,25.0812369 412.836158,25.9856121 412.508316,26.9724863 C412.508316,28.6987379 412.178913,30.1774926 411.437365,31.4928061 C410.944041,32.4765671 410.200932,33.3824989 409.211161,34.2043753 C408.224513,35.0262516 407.233181,35.6021876 406.241849,36.0131258 C404.593271,36.6700042 402.698032,37 400.390648,37 C398.742071,37 397.257414,36.8365587 395.936679,36.5065629 C394.619066,36.2606226 393.217151,35.6862432 391.652876,34.9468658 C392.063459,33.4681111 392.30856,31.0834245 392.30856,27.957804 L392.30856,27.957804 L394.04144,27.957804 C394.04144,28.9446782 394.124181,30.0965503 394.288102,31.575305 C394.782987,32.3971813 395.690017,33.1365587 396.92645,33.7934371 C398.162883,34.4534287 399.482057,34.7803113 400.965152,34.7803113 C402.284326,34.7803113 403.355277,34.6153134 404.427789,34.1203197 C405.497179,33.6284392 406.240288,33.0525032 406.652432,32.2306268 C407.063015,31.4087505 407.3128,30.5043753 407.3128,29.5190576 C407.3128,28.6146824 407.147317,27.8768616 406.816353,27.3009255 C406.488511,26.6424905 405.993626,26.1490534 405.333258,25.8221708 C404.674451,25.4096761 403.522321,25.0796803 401.789441,24.6702987 C399.315014,24.0943626 397.667998,23.76748 396.92645,23.5184266 C395.772758,23.191544 394.782987,22.6965503 394.124181,22.0396719 C393.463813,21.3812369 392.886187,20.6418595 392.558345,19.6580984 C392.22738,18.6712242 392.063459,17.68435 392.063459,16.6165334 C392.063459,15.0552798 392.392862,13.6574674 393.051669,12.4246529 C393.712037,11.1918385 394.536325,10.2065208 395.607276,9.46403029 C396.679788,8.81026504 397.83348,8.31527135 399.151093,7.98527556 C400.468706,7.65683635 401.78788,7.49183845 403.189795,7.49183845 Z M264.644964,7.36864407 C266.950926,7.36864407 269.090173,7.61478814 271.064264,8.02711864 C273.039912,8.44258475 274.601111,8.93957627 275.673071,9.43813559 L275.673071,9.43813559 L275.835112,9.8520339 C275.507915,11.0937288 275.180717,13.1632203 274.931424,16.2251271 L274.931424,16.2251271 L273.286089,16.2251271 C273.286089,15.809661 273.286089,15.1511864 273.205069,14.3202542 C273.205069,13.7401695 273.12249,13.2447458 273.04147,12.8308475 C272.712715,12.4185169 272.383959,12.0861441 271.972626,11.8384322 C271.06738,11.2583475 270.079556,10.7597881 268.929691,10.4305508 C267.778268,10.0997458 266.542709,9.93355932 265.06253,9.93355932 C261.69084,9.93355932 258.975103,11.0106356 256.918434,13.0801271 C254.861765,15.2342797 253.873941,18.13 253.873941,21.7719915 C253.873941,25.8278814 254.944344,28.9744492 257.083591,31.373178 C259.222838,33.7750424 261.854439,34.9320763 264.979952,34.9320763 C265.88364,34.9320763 266.790444,34.8489831 267.613111,34.6843644 C268.518357,34.518178 269.341025,34.1858051 270.162134,33.8565678 C270.162134,33.4442373 270.244712,32.7794915 270.244712,31.7039831 L270.244712,31.7039831 L270.244712,29.800678 C270.244712,28.4758898 270.162134,27.7311864 270.079556,27.480339 C269.996977,27.3157203 269.7508,27.2341949 269.506181,27.1511017 C269.012269,26.9849153 267.69569,26.8202966 265.639021,26.7372034 L265.639021,26.7372034 L265.639021,25.0816102 L271.726449,25.1631356 L271.721774,25.1662712 L277.974359,24.7523729 L277.974359,26.0740254 C277.151691,26.2402119 276.657779,26.4879237 276.41316,26.7356356 C276.246446,26.901822 276.163867,27.3157203 276.163867,27.8958051 C276.082847,29.4683051 276.082847,30.6269068 276.082847,31.2900847 C276.082847,32.2825 276.163867,33.3595763 276.246446,34.4350847 C273.695865,35.4290678 271.558176,36.0075847 269.665106,36.4199153 C267.773594,36.8353814 265.963102,37 264.07159,37 C261.027097,37 258.312918,36.4199153 256.010072,35.4275 C254.364737,34.6827966 252.967137,33.7734746 251.814156,32.6133051 C250.661175,31.4531356 249.757487,30.2114407 249.180997,28.8882203 C248.275751,26.8187288 247.783397,24.5830508 247.783397,22.0165678 C247.783397,19.9470763 248.029574,18.0437712 248.687085,16.4712712 C249.346154,14.8972034 250.167263,13.4924576 251.320244,12.3322881 C252.389088,11.1721186 253.70411,10.1797034 255.106384,9.4365678 C256.502426,8.69029661 257.984162,8.19487288 259.546919,7.8625 C261.108117,7.53169492 262.75501,7.36864407 264.644964,7.36864407 Z M183.250408,7.58974359 C185.714459,7.58974359 187.932727,8.0004666 189.903657,8.6570011 C191.38302,9.23263561 192.694381,9.97162587 193.845515,10.9595392 C194.99665,11.9458967 195.898891,12.9306984 196.474459,13.9995117 L196.474459,13.9995117 C197.04847,14.9858692 197.460701,16.1355825 197.787374,17.3693073 C198.115603,18.5983647 198.282051,19.9985568 198.282051,21.4765373 C198.282051,24.0217753 197.869821,26.4036576 196.96758,28.5397284 C196.309566,30.1001647 195.324879,31.5797009 194.092854,32.81187 C192.860829,34.044039 191.38302,35.0288407 189.82121,35.686931 C187.606054,36.589277 185.140447,37 182.348168,37 C179.308549,37 176.679606,36.4259213 174.54534,35.357108 C172.407963,34.2882947 170.684372,32.6454027 169.452347,30.5077761 C168.220321,28.3763727 167.563863,25.7471231 167.563863,22.5422391 C167.563863,20.077901 167.974538,17.9402745 168.711887,16.1355825 C169.452347,14.327779 170.51948,12.7673427 171.916397,11.4527179 C173.313315,10.1365374 174.791123,9.23419138 176.433824,8.65855686 C178.487199,7.91645507 180.786358,7.58974359 183.250408,7.58974359 Z M238.473646,7.58974359 C240.630009,7.58974359 242.20527,7.75761393 243.284237,8.08707909 C244.361633,8.41811313 245.274122,8.99859936 246.020133,9.99327036 C246.766144,10.9863725 247.179198,12.1457761 247.179198,13.5546318 C247.179198,15.2113709 246.682905,16.7018085 245.687177,18.0259447 C244.693019,19.4379382 243.117759,20.4294714 240.959825,21.257841 C241.292781,21.9214779 241.707406,22.5003953 242.122031,23.1640323 C242.536656,23.8261003 242.786373,24.1571344 242.869612,24.321867 C242.951281,24.4865995 243.03452,24.652901 243.117759,24.7376206 L243.117759,24.7376206 L246.26828,29.4599545 C247.097529,30.7825218 247.512154,31.4461588 247.593823,31.5308784 C248.67279,32.8534457 249.250752,33.6802463 249.50204,33.9312674 L249.50204,33.9312674 C249.668518,34.1807196 249.834996,34.2638703 250.083143,34.347021 C250.33286,34.4301718 250.747485,34.5117536 251.410256,34.5117536 L251.410256,34.5117536 L251.410256,36.1669238 C249.725843,36.103188 248.370097,36.0912375 247.432315,36.0889968 L246.850953,36.0884797 C245.771986,36.0884797 244.693019,36.0884797 243.615623,36.1716305 C243.532384,35.8390275 243.365905,35.5079935 243.117759,35.010658 L243.117759,35.010658 L238.723363,27.8063532 C237.479489,25.7354294 236.400522,24.0786903 235.571272,22.9177178 C235.158218,22.3388005 234.742022,21.9246157 234.325827,21.5951506 L234.325827,21.5951506 L234.577114,20.9315136 C236.235614,21.0162332 237.479489,20.8483629 238.308738,20.435747 C239.137988,20.0199933 239.80076,19.3579252 240.381863,18.3648231 C240.961395,17.3732899 241.209542,16.2938993 241.209542,15.051345 C241.209542,13.8087907 240.879727,12.7325378 240.298624,11.9057372 C239.717521,11.0742299 238.97151,10.4937436 238.060592,10.1642785 C237.481059,9.91639516 236.485331,9.83167554 234.99331,9.83167554 C234.412207,9.83167554 233.749435,9.91482627 233.083523,9.997977 C233.083523,10.4937436 233.000283,11.5715654 233.000283,13.313024 C232.931179,16.5349036 232.920548,18.8693903 232.918912,20.3155336 L232.918615,21.0162332 C232.918615,23.0055752 233.000283,25.1580809 233.000283,27.4768881 C233.000283,30.2945996 233.081952,31.8681879 233.081952,32.2823727 C233.166762,33.0275915 233.250001,33.524927 233.33324,33.7728103 C233.33324,33.9391118 233.498147,34.0238314 233.581387,34.1022755 C233.664626,34.1869951 233.911202,34.2701458 234.16249,34.3532966 C234.495446,34.3532966 235.239886,34.4380162 236.56857,34.4380162 L236.56857,34.4380162 L236.56857,36.257919 C234.245729,36.1731993 231.924458,36.1731993 229.521518,36.1731993 L228.638283,36.1734418 C226.882804,36.1748963 225.196227,36.185078 223.63196,36.2563501 L223.63196,36.2563501 L223.63196,34.4364473 C225.127122,34.3517277 226.119709,34.268577 226.367856,34.1854262 C226.534334,34.1854262 226.617573,34.1022755 226.700812,34.0191248 C226.782481,33.9375429 226.864149,33.6896596 226.864149,33.4386385 C226.947388,32.9428719 227.030628,32.1145024 227.030628,31.0382495 L227.030628,31.0382495 L227.195535,25.0733613 L227.195535,17.5333158 L227.113867,13.2267355 C227.113867,11.4868457 227.030628,10.4906059 226.862579,10.1611407 C226.78091,9.99640812 226.699242,9.91325739 226.532764,9.82853778 C226.284617,9.74695593 225.538606,9.58222335 224.3764,9.49907262 C223.880107,9.58222335 223.54715,9.6638052 223.382243,9.74695593 C223.215764,9.91325739 223.132525,10.0795589 222.967618,10.409024 C222.80114,10.7416269 222.71633,12.067332 222.637803,14.5508717 C222.554563,17.0359803 222.471324,18.9390338 222.471324,20.3510274 L222.471324,20.3510274 L222.471324,25.1518054 C222.471324,26.3959286 222.388085,27.6384829 222.223178,28.9641879 C222.055129,30.2067422 221.642075,31.3677147 221.144211,32.2776661 C220.646347,33.1891863 219.900336,34.0175559 218.906179,34.7627747 C217.910451,35.5095624 216.749815,36.005329 215.422701,36.4195138 C214.095588,36.8336985 212.521898,37 210.778589,37 C208.705464,37 206.797247,36.7489789 204.975411,36.1684927 C203.646727,35.7543079 202.56933,35.1753906 201.74008,34.5117536 C200.910831,33.8496855 200.329727,33.1028978 199.835005,32.1929465 C199.33557,31.2814262 199.085853,30.5362074 199.002614,29.7078378 C198.931861,29.2851027 198.921248,28.262737 198.919656,26.6455582 L198.91926,15.9915162 C198.918347,14.3317125 198.910126,12.8085414 198.836136,11.483708 C198.752896,10.9032217 198.669657,10.409024 198.587989,10.1580029 C198.50475,10.0748522 198.338272,9.8269689 198.090125,9.66066744 L198.090125,9.66066744 L195.435897,9.41278413 L195.435897,7.75447617 L202.069896,7.8376269 L204.807362,7.8376269 L207.544829,7.75290729 L208.290839,7.75290729 L208.290839,9.41278413 C206.798818,9.41278413 205.886329,9.57908559 205.473275,9.82540002 C205.225128,9.9901326 205.141889,10.2411537 205.05865,10.5706188 C204.892172,11.3974195 204.810503,13.2220289 204.810503,16.1197534 L204.810714,24.2116641 C204.812051,26.1425282 204.821854,27.3830404 204.893742,27.8816595 C205.05865,29.1242138 205.391606,30.2020356 205.891041,30.9472544 C206.472144,31.7756239 207.216584,32.3561102 208.29398,32.8534457 C209.371377,33.3492123 210.698491,33.6002333 212.35542,33.6002333 C214.265207,33.6002333 215.59075,32.8550145 216.752956,32.2745283 C217.915162,31.6940421 218.659602,30.7825218 219.155896,29.7894197 C219.65376,28.7947487 219.901907,26.8085445 219.901907,23.9061133 L219.901907,23.9061133 L219.901043,12.9419671 C219.891831,11.4471731 219.808967,10.4727944 219.65376,10.1627096 C219.570521,9.91639516 219.405613,9.74852481 219.154325,9.66537408 C218.7397,9.41749077 217.743972,9.24962043 216.251951,9.24962043 L216.251951,9.24962043 L216.251951,7.59288135 C218.7397,7.67603208 220.150053,7.75761393 220.644776,7.75761393 L221.225879,7.75761393 L223.465482,7.6744632 L225.786753,7.6744632 L225.786753,7.75604505 L230.679012,7.75604505 C232.089365,7.75604505 233.33324,7.75604505 234.327397,7.67289432 C235.985897,7.58974359 237.39625,7.58974359 238.473646,7.58974359 Z M65.0415718,7.58974359 C65.4525141,7.8375608 65.8618998,8.17007503 66.1109558,8.41789224 C66.4393983,8.75040647 66.7693975,9.1644808 67.0962834,9.66011522 C67.5072257,10.1573181 68.0006678,11.0685953 68.7400526,12.3108183 C68.824109,12.3923784 69.150995,13.0558384 69.7269368,14.1333727 L69.7269368,14.1333727 L72.0275912,18.3572445 L74.6582446,14.5458786 L77.9473397,9.65854676 L77.9473397,8.00381792 C78.9721012,8.07309171 79.7720205,8.08463735 80.3416927,8.08656162 L80.6558232,8.08694647 C81.0683221,8.08694647 81.8902067,8.00538638 82.9595907,8.00538638 L82.9595907,8.00538638 L83.4499196,8.00538638 L87.6418425,8.08851494 L90.272496,8.08851494 C92.0781516,8.08851494 94.1328632,8.00695484 96.4366307,8.00695484 L96.4366307,8.00695484 L100.546054,7.92539475 L100.546054,7.92539475 L100.769201,7.92559179 C101.309853,7.92687259 102.221993,7.93647856 103.503593,8.00852331 C103.668593,8.00852331 103.833592,8.00852331 104.163592,8.09165186 L104.163592,8.09165186 L104.327035,8.33946907 L103.916092,11.2411263 C103.916092,11.4058149 103.835149,12.4002207 103.752649,14.1380781 L103.752649,14.1380781 L102.19138,14.1380781 C102.19138,12.4833493 102.10888,11.487375 102.02638,11.1579977 C101.94388,10.9917406 101.861381,10.827052 101.780437,10.7439234 C101.615438,10.5776663 101.039496,10.4929693 100.136668,10.4145461 C98.7388417,10.2467205 97.5060147,10.163592 96.190688,10.163592 C94.957861,10.163592 93.7250341,10.2467205 92.4906506,10.3282806 C92.3272076,11.9030178 92.2447078,13.8071323 92.2447078,16.2100182 L92.2447078,16.2100182 L92.2447078,20.3507615 C93.1490922,20.43389 94.1344198,20.43389 95.1197474,20.43389 L95.4357106,20.433129 C95.9653777,20.4302752 96.9966789,20.4167195 98.4897857,20.3523299 C99.227614,20.3523299 99.6401129,20.2692014 99.8035558,20.1845043 C99.9685554,20.0998073 100.051055,19.9366871 100.133555,19.77043 C100.296998,19.2732271 100.379498,18.4450785 100.379498,17.2028555 L100.379498,17.2028555 L102.024824,17.2028555 L101.942324,21.6729761 L102.02638,26.1462336 L100.298555,26.1462336 C100.298555,24.5714964 100.217611,23.5770906 99.9685554,23.2477133 C99.8051124,22.9983276 99.4766699,22.833639 99.0657276,22.7505104 C98.0819566,22.5842533 96.9300728,22.5026932 95.4513031,22.5026932 C94.1344198,22.5026932 93.0665924,22.5026932 92.2447078,22.5858217 L92.2447078,22.5858217 L92.2447078,31.2813826 C92.2447078,32.2757884 92.3287642,33.103937 92.3287642,33.7658286 C93.1580859,33.8304841 94.1380711,33.844852 95.2284382,33.8480449 L96.1891314,33.8489571 C97.6694577,33.8489571 98.9847844,33.7658286 100.214498,33.6827 C101.448882,33.6011399 102.26921,33.4348828 102.518266,33.2670572 C102.600765,33.2670572 102.681709,33.103937 102.762652,32.9376799 C103.010151,32.2757884 103.256094,31.0335654 103.502037,29.211011 L103.502037,29.211011 L103.498923,29.2988449 L105.307692,29.2988449 C105.06175,31.949548 104.89675,34.1830398 104.89675,35.9240341 L104.89675,35.9240341 L104.650807,36.1702829 C103.746423,36.2534114 102.513596,36.33654 100.952326,36.33654 L100.952326,36.33654 L97.6647879,36.2534114 C94.8791512,36.1797619 92.8362098,36.1701554 91.539034,36.1689024 L90.8032124,36.1688625 C90.7793657,36.1688995 90.7537718,36.1689457 90.7264285,36.1690036 L90.4330448,36.1698988 C89.4865475,36.1735998 87.4424563,36.1888668 84.2655778,36.251843 L84.2655778,36.251843 L84.2655778,35.1758771 C85.0905757,34.8449313 85.7474607,34.430857 86.2424594,34.0183512 C86.3234026,33.5211483 86.3234026,32.5267425 86.4059024,31.2845195 C86.4884022,28.8832021 86.570902,27.2269048 86.570902,26.150939 L86.5704477,16.9923189 C86.563884,16.5919257 86.4884022,15.2856477 86.4884022,13.0652492 C86.4884022,11.4920804 86.4059024,10.5792347 86.244016,10.2498574 C86.1615163,10.0836003 86.0790165,10.0020402 85.9124603,9.91734321 C85.5030746,9.75265456 84.6002468,9.669526 83.2039769,9.58796591 C82.378979,9.58796591 81.8030372,9.669526 81.4761512,9.83421465 C81.3127083,10.0004718 80.9827091,10.248289 80.4908236,10.8286204 C79.5864392,11.8214577 78.1045563,13.7271407 76.0498447,16.4594039 L76.0498447,16.4594039 L73.750747,19.6073098 L73.2573049,20.3538984 L73.2573049,20.3538984 L73.2919758,20.4212563 C73.4479048,20.7199596 74.0053218,21.7541084 74.9010742,23.3339788 C75.5579592,24.5762017 75.9704582,25.3227903 76.1339011,25.5706075 L76.1339011,25.5706075 L78.6804982,30.2085537 C79.2564401,31.201391 79.6673824,31.7817224 79.7483256,31.949548 C80.4067672,33.0239454 80.9002093,33.6858369 81.1461521,34.0983428 C81.3095951,34.2645999 81.3920948,34.430857 81.558651,34.5124171 C81.7236506,34.5955457 81.8870935,34.6771058 82.0536497,34.6771058 C82.4630354,34.7602343 82.7914779,34.8433629 82.9564775,34.8433629 L82.9564775,34.8433629 L83.448363,34.8433629 L83.448363,36.4980917 C81.1539351,36.4290793 79.6819997,36.418462 79.0853664,36.4168286 L78.8470544,36.4165316 C77.8601702,36.4165316 76.7113996,36.4980917 75.5595158,36.4980917 C75.1485735,35.9193287 74.4885753,34.8433629 73.5857474,33.1854971 L73.5857474,33.1854971 L69.3953811,25.399645 C68.3259971,26.8912537 67.5041125,28.0503481 67.0106704,28.7953682 C66.4378417,29.6235168 65.8618998,30.4516655 65.285958,31.3645112 C64.6275163,32.2757884 63.8881314,33.4348828 63.0678034,34.8433629 L63.0678034,34.8433629 L63.0678034,36.4165316 L57.3130544,36.4165316 L57.3130544,34.7602343 C58.3824384,34.6771058 59.0393234,34.6771058 59.204323,34.5939772 C59.2852662,34.5108487 59.4502658,34.5108487 59.5343221,34.4292886 C59.6962085,34.2630314 60.0262076,33.9320857 60.43715,33.4364513 C61.0115352,32.6898627 61.9984194,31.3660796 63.3121896,29.6250853 C64.3815735,28.2181737 65.0400152,27.3068965 65.3669011,26.8928221 L65.3669011,26.8928221 L68.0800544,23.0845931 L66.5218981,20.3570353 L63.8912446,15.7190892 C62.9853036,14.229049 62.163419,12.9036974 61.2605912,11.9077232 C60.6846493,11.2458317 59.8627647,10.417683 59.5358787,10.2514259 C59.2074362,10.0036087 59.2074362,10.0036087 58.8774371,9.83578312 C58.5505511,9.67109446 58.3014952,9.58953437 57.9746093,9.83578312 C57.8096097,10.0036087 57.7271099,10.1682973 57.6430535,10.4161146 C57.4811672,10.7486288 57.3986674,12.0739803 57.3161676,14.5568578 C57.2336678,17.0413038 57.1527246,18.9438498 57.1527246,20.3554669 L57.1527246,20.3554669 L57.1527246,25.1549647 C57.1527246,26.3987562 57.0702249,27.6409791 56.9067819,28.9663307 C56.7417823,30.2085537 56.3323966,31.3692165 55.8389545,32.2789253 C55.347069,33.1902025 54.6061276,34.0183512 53.6192434,34.7633713 C52.6339158,35.5099598 51.482032,36.0055942 50.1682619,36.4196686 C48.8529351,36.8337429 47.2932223,37 45.5653966,37 C43.510685,37 41.6194164,36.7490459 39.8137608,36.1687144 C38.4968775,35.7546401 37.4290501,35.1758771 36.6071655,34.5124171 C35.7852808,33.8505256 35.209339,33.103937 34.7158969,32.1942283 C34.2208982,31.2829511 33.976512,30.537931 33.8940122,29.7097823 C33.8238874,29.2871599 33.8133687,28.2650668 33.8117909,26.6483193 L33.8114014,15.9971181 C33.8105131,14.337757 33.8025188,12.8149921 33.7305693,11.490512 C33.6480695,10.9101805 33.5655697,10.4161146 33.4815133,10.1651604 C33.3990135,10.0820319 33.2355706,9.83421465 32.9896278,9.66795754 L32.9896278,9.66795754 L30.3589744,9.42014033 L30.3589744,7.76227456 L36.935608,7.84540312 L39.6440914,7.84540312 L42.3572447,7.7607061 L43.0981861,7.7607061 L43.0981861,9.42014033 C41.6178598,9.42014033 40.715032,9.58639744 40.3040897,9.83264619 C40.0565904,9.99733484 39.9740906,10.248289 39.8931474,10.5776663 C39.7281478,11.4042465 39.6440914,13.2283694 39.6440914,16.1253212 L39.6445873,24.5141231 C39.6468187,26.2739143 39.6590914,27.4118409 39.7265912,27.884091 C39.8915908,29.1263139 40.1375335,30.1207197 40.7134754,30.9488684 C41.2878607,31.777017 42.0272456,32.3573485 43.0981861,32.8545513 C44.1675701,33.3501858 45.4813402,33.6011399 47.1251095,33.6011399 C49.0148215,33.6011399 50.4951478,33.2686257 51.5645318,32.7729913 C52.7133024,32.1926598 53.4542438,31.2813826 53.9461293,30.2885453 C54.4395714,29.2941395 54.6886273,27.3084649 54.6886273,24.4068077 L54.6886273,24.4068077 L54.6886273,13.7177299 C54.6886273,12.0614326 54.604571,10.9838983 54.4395714,10.654521 C54.3570716,10.4082722 54.1951852,10.2404467 53.9461293,10.1573181 C53.535187,9.90950089 52.5483028,9.74324378 51.0695331,9.74324378 L51.0695331,9.74324378 L51.0695331,8.08694647 C53.535187,8.17007503 55.0155133,8.25320359 55.5089554,8.25320359 L55.5089554,8.25320359 L55.5355549,8.25372018 C55.5839015,8.25483593 55.6931996,8.25743367 55.8671521,8.25821935 L56.0321743,8.25837218 C56.9373175,8.25614924 59.0494224,8.20335706 62.6599743,7.84069773 L62.6599743,7.84069773 Z M115.325676,8.08292235 L117.133269,12.1076966 L118.528631,15.1476692 L124.937652,28.3717054 C126.333014,25.7424558 127.401703,23.6888408 128.059716,22.2108603 L128.059716,22.2108603 L130.688659,16.6256497 C132.166468,13.5047772 133.068708,11.5336179 133.395382,10.8755276 C133.725166,10.2189931 134.135841,9.23263561 134.546517,8.1653781 C136.271663,8.24783386 137.421242,8.33028961 137.912808,8.33028961 L137.912808,8.33028961 L143.579814,8.16693387 L144.48361,8.16693387 L147.27589,8.24938963 L153.927582,8.24938963 C155.817621,8.16693387 157.132093,8.16693387 157.70766,8.16693387 C159.925928,8.16693387 161.649519,8.33028961 162.881545,8.82346837 C164.032679,9.23419138 164.93492,9.89383742 165.510488,10.7961834 C166.082944,11.6985294 166.331838,12.6848869 166.331838,13.7521444 C166.331838,14.9003019 166.002053,15.970671 165.345595,16.953917 C164.689137,17.9418302 163.867787,18.6808205 162.881545,19.256455 C162.305977,19.5847223 160.993061,19.9938895 158.939686,20.569524 C161.322846,20.8184471 163.046437,21.2276143 164.029568,21.720793 L164.029568,21.720793 C164.936476,22.2139718 165.757826,23.0354178 166.333393,24.2675868 C166.908961,25.3364001 167.235634,26.4845576 167.235634,27.7167266 C167.235634,29.0313514 166.908961,30.2635204 166.333393,31.3307779 C165.757826,32.3995912 164.936476,33.3843929 164.034235,34.1264947 C163.128883,34.8639292 161.980859,35.5204637 160.829725,35.9311867 C159.680145,36.3419097 158.119891,36.5877212 156.312298,36.5877212 L156.312298,36.5877212 L149.495713,36.5068212 C148.42858,36.5068212 146.950772,36.5068212 145.22407,36.5877212 L145.22407,36.5877212 L145.22407,35.6044752 C145.962974,35.1937522 146.538541,34.7830292 147.031663,34.3723062 C147.114109,33.6348717 147.194999,32.8943257 147.194999,31.9079682 C147.263704,30.264039 147.275155,27.4813733 147.277064,23.6031871 L147.277127,20.4289437 C147.275429,19.0557479 147.264673,17.1468323 147.196555,14.657602 C147.114109,12.4390754 147.031663,11.1260064 146.947661,10.7961834 C146.86677,10.6328277 146.784324,10.4679162 146.620987,10.3870162 C146.292758,10.2252162 145.387407,10.0587489 143.909598,9.97629317 L143.909598,9.97629317 L143.663815,9.97629317 C142.349344,9.97629317 141.443992,10.1427605 141.117319,10.4694719 C140.706643,10.7977392 140.541751,11.4573852 140.541751,12.3597312 L140.541751,12.3597312 L140.541751,14.9049692 L140.459305,20.5741913 L140.459305,30.6757992 C140.541751,32.3186912 140.622642,33.3859487 140.703532,33.7966717 C140.787534,34.044039 140.787534,34.2073947 140.952426,34.2882947 L140.952426,34.2882947 L141.442436,34.5372177 C141.607329,34.6181177 142.509569,34.7005735 143.987378,34.7814735 L143.987378,34.7814735 L143.987378,36.508377 L137.500577,36.4259213 L131.174003,36.508377 L131.174003,34.7814735 C132.900705,34.7005735 133.802946,34.6181177 134.05184,34.454762 C134.299178,34.2898505 134.462515,33.9615832 134.544961,33.4684045 C134.627407,32.9752257 134.709853,31.3338894 134.709853,28.4557169 L134.709853,13.7537002 L130.027535,23.2003293 L127.810822,27.8831939 C127.152809,29.1153629 126.331459,30.9231664 125.264325,33.303493 C124.606312,34.6990177 124.114746,35.8502867 123.704071,36.7526327 L123.704071,36.7526327 L122.308709,36.7526327 C121.815588,35.6044752 121.075128,34.0424832 120.172887,32.0728797 C118.612633,28.7030841 117.463054,26.1562904 116.641703,24.5118426 L116.641703,24.5118426 L111.302927,13.6681329 L111.302975,23.9523834 C111.303499,25.5085395 111.309797,27.3407491 111.385373,29.451409 C111.467819,31.7492798 111.467819,32.9830045 111.54871,33.309716 C111.631156,33.639539 111.713602,33.801339 111.794493,33.9662505 C111.878494,34.0487063 112.043387,34.212062 112.37006,34.292962 C112.617398,34.3769735 113.438749,34.4594293 114.834111,34.541885 L114.834111,34.541885 L114.834111,36.2641213 C113.356302,36.1863328 111.796048,36.1863328 110.235794,36.1863328 L109.317242,36.1866161 C107.686692,36.188174 106.350175,36.1983003 105.307692,36.2641213 L105.307692,36.2641213 L105.307692,34.5403293 C106.866391,34.4578735 107.771743,34.292962 108.017526,34.2089505 C108.182418,34.2089505 108.345755,34.1280505 108.428201,33.963139 C108.594649,33.7997833 108.672428,33.5508602 108.672428,33.2241487 C108.75643,32.4851585 108.838876,30.7598107 108.921322,28.2114611 C108.988064,27.1485005 109.000777,25.5462031 109.003199,23.3624765 L109.003768,21.7239046 C109.003768,19.0121993 108.922878,16.630317 108.922878,14.495802 C108.922878,12.3597312 108.838876,11.1275622 108.673984,10.7152834 C108.593093,10.5503719 108.510647,10.3839046 108.428201,10.3061162 C108.34731,10.2221047 108.098416,10.1396489 107.771743,10.0571932 C106.866391,9.89383742 106.129043,9.81138166 105.388583,9.81138166 L105.388583,9.81138166 L105.388583,8.08447812 C107.650259,8.15122802 109.318632,8.16394228 110.438265,8.16636405 L111.97616,8.16626178 C113.093595,8.16357341 114.210631,8.15013157 115.325676,8.08292235 L115.325676,8.08292235 Z M18.4289982,0 L18.4289982,2.48338983 C16.2071728,2.56491525 14.8905932,2.73110169 14.3966811,2.97881356 C14.1505041,3.145 13.9837892,3.31118644 13.9058851,3.55889831 C13.8217487,3.80661017 13.7391703,4.96521186 13.6565919,7.11779661 C13.6215587,8.03101438 13.5868059,8.30341364 13.5584009,8.56096026 L13.5466337,8.67225301 C13.5144946,8.9953475 13.4929933,9.42839625 13.4929933,11.092161 L13.4929933,11.092161 L13.4929933,19.5347458 C13.5755717,22.3489407 13.5755717,25.0816102 13.5755717,27.8127119 C13.6409462,29.9760752 13.6545659,31.4634134 13.6574033,32.27706 L13.6579887,32.5116096 C13.6580425,32.5469697 13.6580783,32.5804644 13.6581022,32.6120939 L13.65815,32.7794915 C16.2913092,32.8625847 18.1002429,32.945678 19.0880671,32.945678 C21.9674033,32.945678 24.6005625,32.7779237 26.7382515,32.4486864 C27.4798987,32.2825 27.9722527,32.2009746 28.1374095,32.0347881 C28.3041243,31.8686017 28.4661648,31.5393644 28.6313216,30.9592797 L28.6313216,30.9592797 C29.0379811,29.5498305 29.3667365,27.8095763 29.7796283,25.9909322 L29.7796283,25.9909322 L32.1634943,25.9909322 C32.082474,26.5694492 32.082474,26.9002542 32.082474,26.9833475 L32.082474,26.9833475 L31.3423849,32.8594492 C31.1772282,34.6827966 31.0962079,35.8398305 31.0962079,36.1722034 C30.6038539,36.336822 30.0273634,36.4183475 29.4508729,36.5014407 C28.29945,36.5845339 26.4889583,36.6676271 24.0209559,36.6676271 C23.6096221,36.6676271 21.3877967,36.5845339 17.1934389,36.5014407 C14.4024392,36.4278224 12.3595546,36.41822 11.0627363,36.4169675 L10.5295206,36.4167797 C8.63800864,36.4167797 5.75555626,36.5014407 1.89151199,36.6676271 L1.89151199,36.6676271 L1.89151199,35.1782203 C2.3854241,34.9273729 3.12707131,34.5981356 4.03075908,34.0180508 C4.35951446,33.770339 4.68826984,33.6041525 4.77084821,33.4379661 C4.85498466,33.3564407 4.93288877,33.1902542 4.93288877,33.1087288 C5.01702522,32.6133051 5.09960359,30.8730508 5.18218195,27.8942373 C5.24927688,25.4726774 5.26185717,22.6153865 5.26421598,19.4089802 L5.26476032,9.93199153 C5.18062387,6.2915678 5.01702522,4.13741525 4.85342657,3.64199153 C4.77084821,3.39271186 4.60569148,3.22809322 4.44365091,3.145 C3.9497388,2.89728814 2.46800247,2.64800847 0,2.56491525 L0,2.56491525 L0,0 C2.46800247,0.0815254237 5.2663184,0.164618644 8.47285191,0.164618644 C11.9286786,0.164618644 15.3019269,0.0815254237 18.4289982,0 L18.4289982,0 Z M324.310989,0 L324.723133,0.326882625 C324.557651,1.5596971 324.390608,2.54657131 324.390608,3.44938999 L324.390608,3.44938999 L324.390163,3.67183074 C324.388119,4.21918229 324.376669,5.71877817 324.31255,8.21720656 L324.31255,8.21720656 L324.476471,8.21720656 C326.702675,8.21720656 328.847699,8.21720656 330.908421,8.1362642 L330.908421,8.1362642 L331.482925,8.1362642 C333.543647,8.20501332 335.089405,8.21647151 336.121103,8.21838121 L337.518042,8.21811561 C338.637876,8.21552545 339.758908,8.20257467 340.877942,8.13782078 L340.877942,8.13782078 L342.692002,12.1647034 L344.092356,15.2062684 L350.524306,28.4372318 C351.92466,25.806605 352.997172,23.7519142 353.657539,22.2731594 L353.657539,22.2731594 L356.295887,16.6850231 C357.778983,13.5625158 358.684451,11.5887674 359.012293,10.9318889 C359.343258,10.2750105 359.755402,9.28813631 360.167546,8.22031973 C361.898865,8.30281868 363.052557,8.38531763 363.545881,8.38531763 L363.545881,8.38531763 L368.905319,8.22187631 L369.564125,8.22187631 L373.602827,8.30437526 L376.241176,8.30437526 C378.052113,8.30437526 380.112835,8.2234329 382.423341,8.2234329 L382.423341,8.2234329 L386.544784,8.14249053 L386.544784,8.14249053 L386.768583,8.14268609 C387.310817,8.14395718 388.225625,8.15349039 389.510974,8.22498948 C389.676457,8.22498948 389.841939,8.22498948 390.169781,8.30748843 L390.169781,8.30748843 L390.333702,8.55342869 L389.921558,11.433109 C389.921558,11.5965503 389.838816,12.5834245 389.754514,14.3081195 L389.754514,14.3081195 L388.188678,14.3081195 C388.188678,12.6659234 388.107498,11.6774926 388.026318,11.35061 C387.942016,11.1856121 387.859275,11.0221708 387.776534,10.9396719 C387.611051,10.774674 387.033425,10.6906184 386.127956,10.6127892 C384.727602,10.4462347 383.491169,10.3637358 382.171995,10.3637358 C380.935562,10.3637358 379.699129,10.4462347 378.462696,10.5271771 C378.297214,12.0899874 378.216034,13.9796803 378.216034,16.3643668 L378.216034,16.3643668 L378.216034,20.4737484 C379.121502,20.5562474 380.111273,20.5562474 381.101044,20.5562474 L381.101044,20.5562474 L381.23237,20.556153 C381.681547,20.5553505 382.783638,20.5477271 384.479379,20.475305 C385.220926,20.475305 385.634632,20.3928061 385.798553,20.3087505 C385.964035,20.224695 386.048337,20.0628103 386.126395,19.8978124 C386.293438,19.4043753 386.37618,18.5824989 386.37618,17.3496845 L386.37618,17.3496845 L388.024757,17.3496845 L387.942016,21.7859487 L388.026318,26.225326 L386.293438,26.225326 C386.293438,24.6625158 386.212258,23.6756416 385.962474,23.3487589 C385.798553,23.1012621 385.46915,22.9378208 385.057005,22.8553218 C384.067235,22.6903239 382.915104,22.6093816 381.432009,22.6093816 C380.111273,22.6093816 379.040323,22.6093816 378.216034,22.6918805 L378.216034,22.6918805 L378.216034,31.3215818 C378.216034,32.308456 378.297214,33.1303324 378.297214,33.7872108 C379.369726,33.8697097 380.6889,33.8697097 382.171995,33.8697097 C383.65509,33.8697097 384.975825,33.7872108 386.209136,33.7047118 C387.445569,33.6237695 388.269858,33.4587716 388.514959,33.2922171 C388.599261,33.2922171 388.682002,33.1303324 388.764743,32.9653345 L388.764743,32.9653345 C389.009844,32.3115692 389.258068,31.0787547 389.671773,29.3540597 L389.671773,29.3540597 L391.32035,29.3540597 C391.072127,31.9846866 390.909767,34.2012621 390.909767,35.9290703 L390.909767,35.9290703 L390.659983,36.1734539 C389.752953,36.2559529 388.51652,36.3384518 386.950684,36.3384518 L386.950684,36.3384518 L383.653529,36.2559529 C381.137901,36.1901703 379.228484,36.1758697 377.92453,36.1727609 L377.512303,36.1720839 C377.447335,36.1720217 377.384236,36.1719803 377.323005,36.1719526 L376.840761,36.1719593 C376.820277,36.17198 376.798047,36.1720075 376.774068,36.1720443 L376.510986,36.1726848 C375.614217,36.1756094 373.530636,36.1893971 370.218248,36.2543963 L370.218248,36.2543963 L370.218248,35.1865797 C371.040976,34.8581405 371.701343,34.4472024 372.196229,34.0378208 C372.27897,33.5443837 372.27897,32.5575095 372.36015,31.324695 C372.442891,28.941565 372.524071,27.2978124 372.524071,26.2299958 L372.524071,26.2299958 L372.524071,17.2702987 C372.524071,16.9418595 372.442891,15.6265461 372.442891,13.325915 C372.442891,11.7646613 372.36015,10.8602861 372.193106,10.5302903 C372.111926,10.366849 372.030746,10.28435 371.865264,10.2034077 C371.535861,10.0384098 370.54609,9.95591081 368.980254,9.87341186 C367.826562,9.87341186 367.085014,10.0399663 366.75405,10.366849 C366.341906,10.6952882 366.176424,11.3552798 366.176424,12.2580984 L366.176424,12.2580984 L366.176424,14.8046698 L366.093682,20.4768616 L366.093682,30.583761 C366.176424,32.2275137 366.260726,33.2953302 366.338783,33.7062684 C366.423086,33.9537653 366.423086,34.1172066 366.588568,34.1981489 L366.588568,34.1981489 L367.083453,34.4472024 C367.247374,34.5281447 368.152843,34.6106437 369.635938,34.691586 L369.635938,34.691586 L369.635938,36.4193942 L363.125931,36.3368952 L356.779845,36.4193942 L356.779845,34.691586 C358.509602,34.6106437 359.415071,34.5281447 359.664855,34.3647034 C359.911517,34.1997055 360.077,33.8712663 360.158179,33.3778292 C360.240921,32.8843921 360.323662,31.242196 360.323662,28.3625158 L360.323662,13.6527976 L355.624592,23.1043753 L353.399949,27.7896929 C352.741143,29.0225074 351.916854,30.8312579 350.844342,33.2128313 C350.183974,34.6090871 349.69065,35.7609592 349.278506,36.6637779 L349.278506,36.6637779 L347.878152,36.6637779 C347.384827,35.5150189 346.640157,33.9522087 345.734689,31.9815734 C344.168853,28.6100126 343.015161,26.0618847 342.190872,24.4165755 L342.190872,24.4165755 L336.832996,13.5671855 L336.832996,23.5962558 C336.832996,25.2400084 336.832996,27.2122003 336.915737,29.5159445 C336.998478,31.8150189 336.998478,33.04939 337.081219,33.3762726 C337.162399,33.7047118 337.24514,33.8697097 337.32632,34.0362642 C337.410622,34.1140934 337.576104,34.2806479 337.903946,34.3631468 C338.150609,34.4456458 338.974897,34.5265881 340.376812,34.6075305 L340.376812,34.6075305 L340.376812,36.3353387 C338.892156,36.2528397 337.32632,36.2528397 335.760484,36.2528397 C333.946424,36.2528397 332.544509,36.2528397 331.389256,36.3353387 L331.389256,36.3353387 L330.814752,36.3353387 C328.75403,36.2528397 326.610567,36.2528397 324.304744,36.2528397 C322.076979,36.2528397 320.183301,36.2528397 318.450421,36.3353387 L318.450421,36.3353387 L318.450421,34.5265881 C319.933517,34.4456458 320.676625,34.3631468 320.923287,34.3631468 C321.16995,34.2806479 321.418173,34.1981489 321.500914,34.1140934 C321.582094,34.0362642 321.666396,33.8697097 321.666396,33.7872108 C321.749137,33.625326 321.749137,32.9653345 321.831878,31.8975179 C321.914619,30.2537653 321.995799,28.7734539 321.995799,27.3787547 L321.995799,27.3787547 L321.995799,13.1562474 L321.749137,9.62280185 C321.664835,8.14404712 321.583655,6.74779133 321.336993,5.3468658 C321.173072,4.69310055 321.090331,4.28060581 320.923287,4.11716449 C320.842108,4.03622213 320.512704,3.95372318 320.017819,3.95372318 C318.451983,3.78872528 316.556743,3.70466975 314.330539,3.70466975 L314.330539,3.70466975 L310.209096,3.70466975 C310.204126,3.7450774 310.19946,3.77746809 310.195079,3.803728 L310.186694,3.8486323 C310.180015,3.88017201 310.174095,3.89817469 310.168847,3.91137262 L310.162867,3.92546273 C310.141141,3.97491873 310.13292,3.99661644 310.129809,4.84052221 L310.129108,5.07988163 C310.129009,5.12306969 310.128918,5.16795174 310.128834,5.21459763 L310.128002,6.25980818 C310.127985,6.33013509 310.127971,6.402645 310.12796,6.47740776 L310.127916,24.9006731 C310.127916,29.0100547 310.209096,31.5581826 310.455758,32.3785023 C310.62124,32.9544384 310.950643,33.281321 311.364349,33.5303744 C311.774932,33.7763147 313.175286,33.9413126 315.485792,34.0253681 L315.485792,34.0253681 L315.485792,36.4069415 C311.693752,36.2419436 308.56208,36.1578881 306.006473,36.1578881 C303.286944,36.1578881 300.07097,36.2419436 296.527153,36.4069415 L296.527153,36.4069415 L296.527153,34.0253681 C298.837659,33.9428692 300.153711,33.7778713 300.648596,33.5334876 C301.143482,33.2844342 301.390144,32.9575515 301.557187,32.3816155 C301.802288,31.5597392 301.885029,29.0941102 301.885029,24.9022297 L301.885029,24.9022297 L301.885011,6.78332428 C301.885005,6.70381995 301.884997,6.626584 301.884987,6.55155068 L301.884148,5.27708501 C301.884068,5.22966673 301.883981,5.18399083 301.883885,5.13999156 L301.883213,4.89558945 C301.880618,4.1444742 301.874316,4.01140993 301.859013,3.97039581 L301.854146,3.96032708 L301.854146,3.96032708 L301.842666,3.94413462 C301.832075,3.92757257 301.818836,3.89457299 301.802288,3.77938578 L301.802288,3.77938578 L297.104758,3.77950975 C295.211165,3.7807494 293.582535,3.79438559 292.159047,3.94438368 C291.581421,4.02688263 291.169276,4.10782499 291.086535,4.19032394 C291.005355,4.27437947 290.839873,4.6012621 290.758693,5.17719815 C290.512031,6.49095499 290.344988,8.05376525 290.344988,9.69751788 L290.344988,9.69751788 L287.956424,9.69751788 C287.872122,5.75157762 287.794064,3.53344552 287.794064,3.04000841 C287.711323,2.2181321 287.628582,1.31375684 287.461538,0.326882625 L287.461538,0.326882625 L287.711323,0 C288.618353,0.0809423643 289.606562,0.163441313 290.596333,0.163441313 C291.903826,0.228871513 294.195268,0.242408796 297.431718,0.245209613 L314.582984,0.245280269 C317.94848,0.242640303 320.269477,0.229440471 321.588339,0.163441313 C322.495368,0.163441313 323.402398,0.0809423643 324.310989,0 L324.310989,0 Z M182.839733,9.97318164 C180.868804,9.97318164 179.226103,10.4679162 177.830741,11.3702622 C176.433824,12.2726082 175.447581,13.6696887 174.789568,15.4774922 C174.214,17.2852957 173.887327,19.256455 173.887327,21.4734258 C173.887327,24.5942983 174.299557,27.2235479 175.201798,29.2771629 C176.023148,31.3307779 177.172728,32.8087584 178.487199,33.633316 C179.801671,34.4532062 181.445927,34.8623734 183.250408,34.8623734 C184.893109,34.8623734 186.454919,34.4532062 187.767835,33.633316 C189.082306,32.8087584 190.150995,31.4132337 190.889899,29.5260859 L190.889899,29.5260859 C191.628803,27.5533709 192.039478,25.2539444 192.204371,22.6246948 C192.204371,20.7344355 191.957032,19.0090878 191.544801,17.4486515 C191.135682,15.8882152 190.479224,14.4911347 189.74032,13.4238772 C188.99986,12.2757197 188.097619,11.4511621 187.028931,10.8755276 C185.961798,10.3030047 184.566436,9.97318164 182.839733,9.97318164 Z M331.559421,9.70685738 C330.157506,9.78935633 329.334779,9.78935633 329.084994,9.8702987 C328.839893,9.95279764 328.59167,10.0352966 328.507368,10.1193521 C328.343447,10.2002945 328.260706,10.2812369 328.260706,10.4462347 C328.177964,10.692175 328.095223,11.1031132 328.095223,11.7615482 C328.027573,12.0352475 328.016298,12.5370296 328.014419,13.2677953 L328.014043,13.73374 C327.945568,16.4557222 327.933762,18.1617086 327.931726,18.8102314 L327.931302,27.2106437 L328.014043,30.9090871 L328.014043,30.9090871 L328.014432,31.4418954 C328.016958,32.539294 328.0359,33.2660665 328.177964,33.6222129 C328.177964,33.7856542 328.343447,33.9506521 328.424627,34.0347076 C328.507368,34.11565 328.755591,34.1981489 329.002253,34.2806479 C329.250476,34.3631468 330.074765,34.4472024 331.393939,34.4472024 C332.549192,34.3631468 333.29074,34.2806479 333.537402,34.1981489 C333.702884,34.1981489 333.866805,34.11565 333.947985,33.9522087 C334.115029,33.7872108 334.19777,33.5412705 334.19777,33.2112747 C334.27895,32.4718973 334.361691,30.7472024 334.444432,28.1990745 L334.444432,28.1990745 C334.44131,26.8868742 334.524051,24.7481279 334.608353,21.6256205 C334.608353,18.9124947 334.527173,16.5293647 334.527173,14.3937316 C334.527173,12.2565419 334.442871,11.0237274 334.277388,10.6112326 C334.196209,10.4462347 334.113467,10.2796803 334.032287,10.2018511 C333.951108,10.1177955 333.701323,10.0352966 333.373481,9.95279764 C332.714675,9.78935633 332.137048,9.78935633 331.559421,9.70685738 Z M154.423815,21.8841488 C153.848247,21.8841488 153.355126,21.8841488 152.862005,21.9666045 L152.862005,21.9666045 L152.862005,34.1264947 C153.353571,34.2073947 154.174921,34.2898505 155.406946,34.2898505 C157.049647,34.2898505 158.364118,33.7157717 159.432807,32.6469585 L159.432807,32.6469585 C160.49994,31.4972452 160.994617,29.9352532 161.075507,27.8816381 C161.075507,26.4036576 160.83128,25.2523886 160.255713,24.3500426 C159.762591,23.4476966 159.022132,22.8720621 158.119891,22.4597833 C157.216095,22.0506161 155.984069,21.8841488 154.423815,21.8841488 Z M155.326056,10.2205489 C154.420704,10.2205489 153.683355,10.3030047 152.942895,10.3854604 C152.862005,11.3733737 152.779559,12.5215312 152.779559,13.7537002 L152.779559,13.7537002 L152.779559,16.8745727 L152.778003,16.8714612 L152.778003,19.7496338 L153.929138,19.7496338 C154.832934,19.7496338 155.654285,19.6656223 156.475635,19.5007107 C157.212983,19.418255 157.870997,19.1724435 158.364118,18.7617205 C158.857239,18.4334532 159.26947,17.8578187 159.596144,17.1203842 C159.924373,16.381394 160.089265,15.559948 160.089265,14.5735904 C160.089265,13.5872329 159.924373,12.7673427 159.513697,12.1092524 C159.103022,11.3702622 158.611457,10.8770834 158.035889,10.6312719 C157.460322,10.3839046 156.558081,10.2205489 155.326056,10.2205489 Z" transform="translate(43.466 232)"/></svg>