<svg xmlns="http://www.w3.org/2000/svg" width="500" height="500" viewBox="0 0 500 500"><path d="M68.8666667,270.975 L83.4666667,238.175 L83.9666667,238.175 L83.9666667,261.375 C83.9666667,262.941667 83.9,264.183333 83.7666667,265.1 C83.6333333,266.016667 83.3666667,266.725 82.9666667,267.225 C82.5666667,267.725 82.0083333,268.066667 81.2916667,268.25 C80.575,268.433333 79.6333333,268.541667 78.4666667,268.575 L78.4666667,268.575 L78.4666667,270.475 L94.6666667,270.475 L94.6666667,268.575 C93.5,268.541667 92.5583333,268.441667 91.8416667,268.275 C91.125,268.108333 90.575,267.758333 90.1916667,267.225 C89.8083333,266.691667 89.55,265.941667 89.4166667,264.975 C89.2833333,264.008333 89.2166667,262.691667 89.2166667,261.025 L89.2166667,261.025 L89.2166667,241.425 C89.2166667,239.925 89.275,238.691667 89.3916667,237.725 C89.5083333,236.758333 89.7416667,236 90.0916667,235.45 C90.4416667,234.9 90.9416667,234.508333 91.5916667,234.275 C92.2416667,234.041667 93.1,233.908333 94.1666667,233.875 L94.1666667,233.875 L94.1666667,231.975 L82.9666667,231.975 L69.9666667,261.525 L69.7666667,261.525 L57.1666667,231.975 L45.2166667,231.975 L45.2166667,233.875 C46.2833333,233.941667 47.15,234.083333 47.8166667,234.3 C48.4833333,234.516667 48.9916667,234.891667 49.3416667,235.425 C49.6916667,235.958333 49.925,236.683333 50.0416667,237.6 C50.1583333,238.516667 50.2166667,239.675 50.2166667,241.075 L50.2166667,241.075 L50.2166667,261.375 C50.2166667,262.941667 50.15,264.183333 50.0166667,265.1 C49.8833333,266.016667 49.6166667,266.725 49.2166667,267.225 C48.8166667,267.725 48.2583333,268.066667 47.5416667,268.25 C46.825,268.433333 45.8833333,268.541667 44.7166667,268.575 L44.7166667,268.575 L44.7166667,270.475 L58.6666667,270.475 L58.6666667,268.575 C57.5,268.541667 56.5583333,268.441667 55.8416667,268.275 C55.125,268.108333 54.575,267.758333 54.1916667,267.225 C53.8083333,266.691667 53.55,265.941667 53.4166667,264.975 C53.2833333,264.008333 53.2166667,262.691667 53.2166667,261.025 L53.2166667,261.025 L53.2166667,238.175 L53.4166667,238.175 L67.7666667,270.975 L68.8666667,270.975 Z M119.166667,270.975 C120.333333,270.975 121.45,270.716667 122.516667,270.2 C123.583333,269.683333 124.316667,269.041667 124.716667,268.275 L124.716667,268.275 L124.016667,267.075 C123.716667,267.575 123.35,267.883333 122.916667,268 C122.483333,268.116667 122.033333,268.175 121.566667,268.175 C120.066667,268.175 119.316667,266.275 119.316667,262.475 L119.316667,262.475 L119.316667,251.275 C119.316667,248.441667 118.616667,246.433333 117.216667,245.25 C115.816667,244.066667 113.45,243.475 110.116667,243.475 C106.983333,243.475 104.566667,243.916667 102.866667,244.8 C101.166667,245.683333 100.316667,246.925 100.316667,248.525 C100.316667,250.191667 101.15,251.025 102.816667,251.025 C103.483333,251.025 103.991667,250.866667 104.341667,250.55 C104.691667,250.233333 105.05,249.591667 105.416667,248.625 C105.616667,247.991667 105.825,247.458333 106.041667,247.025 C106.258333,246.591667 106.5,246.258333 106.766667,246.025 C107.033333,245.791667 107.366667,245.625 107.766667,245.525 C108.166667,245.425 108.65,245.375 109.216667,245.375 C112.683333,245.375 114.416667,247.408333 114.416667,251.475 L114.416667,251.475 L114.416667,253.525 L107.216667,256.675 C105.716667,257.341667 104.45,258 103.416667,258.65 C102.383333,259.3 101.55,259.958333 100.916667,260.625 C100.283333,261.291667 99.825,261.991667 99.5416667,262.725 C99.2583333,263.458333 99.1166667,264.225 99.1166667,265.025 C99.1166667,266.825 99.7166667,268.258333 100.916667,269.325 C102.116667,270.391667 103.766667,270.925 105.866667,270.925 C107.733333,270.925 109.433333,270.45 110.966667,269.5 C112.5,268.55 113.7,267.258333 114.566667,265.625 L114.566667,265.625 L114.816667,265.625 C114.816667,267.325 115.175,268.641667 115.891667,269.575 C116.608333,270.508333 117.7,270.975 119.166667,270.975 Z M108.166667,267.925 C106.966667,267.925 106,267.575 105.266667,266.875 C104.533333,266.175 104.166667,265.275 104.166667,264.175 C104.166667,263.441667 104.341667,262.725 104.691667,262.025 C105.041667,261.325 105.616667,260.625 106.416667,259.925 C107.216667,259.225 108.275,258.525 109.591667,257.825 C110.908333,257.125 112.516667,256.408333 114.416667,255.675 L114.416667,255.675 L114.416667,259.625 C114.416667,260.758333 114.25,261.833333 113.916667,262.85 C113.583333,263.866667 113.133333,264.75 112.566667,265.5 C112,266.25 111.341667,266.841667 110.591667,267.275 C109.841667,267.708333 109.033333,267.925 108.166667,267.925 Z M136.416667,270.975 C138.116667,270.975 139.541667,270.65 140.691667,270 C141.841667,269.35 142.65,268.408333 143.116667,267.175 L143.116667,267.175 L141.866667,266.225 C141.3,267.058333 140.725,267.65 140.141667,268 C139.558333,268.35 138.85,268.525 138.016667,268.525 C137.35,268.525 136.8,268.425 136.366667,268.225 C135.933333,268.025 135.583333,267.683333 135.316667,267.2 C135.05,266.716667 134.858333,266.075 134.741667,265.275 C134.625,264.475 134.566667,263.491667 134.566667,262.325 L134.566667,262.325 L134.566667,247.125 L141.266667,247.125 L141.266667,244.775 L134.566667,244.775 L134.566667,238.475 L133.116667,238.475 C132.583333,239.908333 131.816667,241.141667 130.816667,242.175 C129.816667,243.208333 128.433333,244.241667 126.666667,245.275 L126.666667,245.275 L126.666667,247.125 L129.666667,247.125 L129.666667,264.875 C129.666667,266.841667 130.241667,268.35 131.391667,269.4 C132.541667,270.45 134.216667,270.975 136.416667,270.975 Z M155.316667,270.975 C157.016667,270.975 158.441667,270.65 159.591667,270 C160.741667,269.35 161.55,268.408333 162.016667,267.175 L162.016667,267.175 L160.766667,266.225 C160.2,267.058333 159.625,267.65 159.041667,268 C158.458333,268.35 157.75,268.525 156.916667,268.525 C156.25,268.525 155.7,268.425 155.266667,268.225 C154.833333,268.025 154.483333,267.683333 154.216667,267.2 C153.95,266.716667 153.758333,266.075 153.641667,265.275 C153.525,264.475 153.466667,263.491667 153.466667,262.325 L153.466667,262.325 L153.466667,247.125 L160.166667,247.125 L160.166667,244.775 L153.466667,244.775 L153.466667,238.475 L152.016667,238.475 C151.483333,239.908333 150.716667,241.141667 149.716667,242.175 C148.716667,243.208333 147.333333,244.241667 145.566667,245.275 L145.566667,245.275 L145.566667,247.125 L148.566667,247.125 L148.566667,264.875 C148.566667,266.841667 149.141667,268.35 150.291667,269.4 C151.441667,270.45 153.116667,270.975 155.316667,270.975 Z M176.966667,270.475 L176.966667,268.725 C176,268.658333 175.25,268.558333 174.716667,268.425 C174.183333,268.291667 173.775,268.016667 173.491667,267.6 C173.208333,267.183333 173.033333,266.575 172.966667,265.775 C172.9,264.975 172.866667,263.891667 172.866667,262.525 L172.866667,262.525 L172.867177,255.804082 C172.869218,255.177551 172.877381,254.642857 172.891667,254.2 C172.908333,253.683333 172.95,253.225 173.016667,252.825 C173.083333,252.425 173.175,252.066667 173.291667,251.75 C173.408333,251.433333 173.55,251.091667 173.716667,250.725 C174.45,249.325 175.458333,248.225 176.741667,247.425 C178.025,246.625 179.45,246.225 181.016667,246.225 C183.05,246.225 184.5,247.016667 185.366667,248.6 C186.233333,250.183333 186.666667,252.841667 186.666667,256.575 L186.666667,256.575 L186.666667,262.875 C186.666667,264.141667 186.625,265.15 186.541667,265.9 C186.458333,266.65 186.275,267.225 185.991667,267.625 C185.708333,268.025 185.283333,268.3 184.716667,268.45 C184.15,268.6 183.4,268.691667 182.466667,268.725 L182.466667,268.725 L182.466667,270.475 L195.716667,270.475 L195.716667,268.725 C194.75,268.658333 194,268.558333 193.466667,268.425 C192.933333,268.291667 192.525,268.008333 192.241667,267.575 C191.958333,267.141667 191.783333,266.533333 191.716667,265.75 C191.65,264.966667 191.616667,263.891667 191.616667,262.525 L191.616667,254.525 C191.616667,252.391667 191.483333,250.7 191.216667,249.45 C190.95,248.2 190.533333,247.191667 189.966667,246.425 C189.266667,245.525 188.275,244.808333 186.991667,244.275 C185.708333,243.741667 184.3,243.475 182.766667,243.475 C181.866667,243.475 180.941667,243.591667 179.991667,243.825 C179.041667,244.058333 178.133333,244.375 177.266667,244.775 C176.4,245.175 175.591667,245.65 174.841667,246.2 C174.091667,246.75 173.466667,247.358333 172.966667,248.025 L172.966667,248.025 L172.766667,248.025 L172.766667,228.975 L163.566667,230.875 L163.566667,232.575 C164.3,232.575 164.916667,232.608333 165.416667,232.675 C165.916667,232.741667 166.316667,232.85 166.616667,233 C166.916667,233.15 167.141667,233.35 167.291667,233.6 C167.441667,233.85 167.55,234.175 167.616667,234.575 C167.75,235.175 167.841667,236.058333 167.891667,237.225 C167.941667,238.391667 167.966667,239.958333 167.966667,241.925 L167.966667,241.925 L167.966667,262.875 C167.966667,264.141667 167.925,265.15 167.841667,265.9 C167.758333,266.65 167.566667,267.225 167.266667,267.625 C166.966667,268.025 166.533333,268.291667 165.966667,268.425 C165.4,268.558333 164.633333,268.658333 163.666667,268.725 L163.666667,268.725 L163.666667,270.475 L176.966667,270.475 Z M205.616667,236.425 C206.483333,236.425 207.216667,236.125 207.816667,235.525 C208.416667,234.925 208.716667,234.191667 208.716667,233.325 C208.716667,232.458333 208.416667,231.725 207.816667,231.125 C207.216667,230.525 206.483333,230.225 205.616667,230.225 C204.75,230.225 204.016667,230.525 203.416667,231.125 C202.816667,231.725 202.516667,232.458333 202.516667,233.325 C202.516667,234.191667 202.816667,234.925 203.416667,235.525 C204.016667,236.125 204.75,236.425 205.616667,236.425 Z M212.916667,270.475 L212.916667,268.725 C211.916667,268.691667 211.116667,268.591667 210.516667,268.425 C209.916667,268.258333 209.45,267.95 209.116667,267.5 C208.783333,267.05 208.558333,266.433333 208.441667,265.65 C208.325,264.866667 208.266667,263.825 208.266667,262.525 L208.266667,262.525 L208.266667,243.475 L198.466667,245.375 L198.466667,247.125 C200.133333,247.125 201.266667,247.266667 201.866667,247.55 C202.466667,247.833333 202.85,248.358333 203.016667,249.125 C203.15,249.591667 203.241667,250.45 203.291667,251.7 C203.341667,252.95 203.366667,254.541667 203.366667,256.475 L203.366667,256.475 L203.366667,262.875 C203.366667,264.041667 203.308333,265 203.191667,265.75 C203.075,266.5 202.841667,267.083333 202.491667,267.5 C202.141667,267.916667 201.65,268.216667 201.016667,268.4 C200.383333,268.583333 199.566667,268.691667 198.566667,268.725 L198.566667,268.725 L198.566667,270.475 L212.916667,270.475 Z M229.466667,270.975 C233.666667,270.975 237.183333,269.258333 240.016667,265.825 L240.016667,265.825 L238.466667,264.425 C237.2,265.825 235.966667,266.833333 234.766667,267.45 C233.566667,268.066667 232.266667,268.375 230.866667,268.375 C229.533333,268.375 228.325,268.1 227.241667,267.55 C226.158333,267 225.225,266.225 224.441667,265.225 C223.658333,264.225 223.058333,263.016667 222.641667,261.6 C222.225,260.183333 222.016667,258.608333 222.016667,256.875 C222.016667,256.408333 222.033333,255.983333 222.066667,255.6 C222.1,255.216667 222.15,254.891667 222.216667,254.625 L222.216667,254.625 L238.666667,254.625 C239.333333,254.625 239.758333,254.575 239.941667,254.475 C240.125,254.375 240.216667,254.091667 240.216667,253.625 C240.216667,250.358333 239.333333,247.85 237.566667,246.1 C235.8,244.35 233.3,243.475 230.066667,243.475 C228.066667,243.475 226.225,243.825 224.541667,244.525 C222.858333,245.225 221.408333,246.191667 220.191667,247.425 C218.975,248.658333 218.033333,250.141667 217.366667,251.875 C216.7,253.608333 216.366667,255.491667 216.366667,257.525 C216.366667,259.525 216.683333,261.35 217.316667,263 C217.95,264.65 218.841667,266.066667 219.991667,267.25 C221.141667,268.433333 222.516667,269.35 224.116667,270 C225.716667,270.65 227.5,270.975 229.466667,270.975 Z M231.766667,252.325 L222.566667,252.325 C223.433333,248.025 225.666667,245.875 229.266667,245.875 C230.966667,245.875 232.308333,246.333333 233.291667,247.25 C234.275,248.166667 234.766667,249.391667 234.766667,250.925 C234.766667,251.225 234.733333,251.466667 234.666667,251.65 C234.6,251.833333 234.466667,251.975 234.266667,252.075 C234.066667,252.175 233.766667,252.241667 233.366667,252.275 C232.966667,252.308333 232.433333,252.325 231.766667,252.325 L231.766667,252.325 Z M266.716667,271.025 L274.966667,270.425 L274.966667,268.675 C274.2,268.675 273.575,268.65 273.091667,268.6 C272.608333,268.55 272.216667,268.45 271.916667,268.3 C271.616667,268.15 271.391667,267.95 271.241667,267.7 C271.091667,267.45 270.983333,267.108333 270.916667,266.675 C270.816667,266.075 270.741667,265.175 270.691667,263.975 C270.641667,262.775 270.616667,261.225 270.616667,259.325 L270.616667,243.975 L261.566667,243.975 L261.566667,245.725 C262.533333,245.825 263.291667,245.95 263.841667,246.1 C264.391667,246.25 264.808333,246.533333 265.091667,246.95 C265.375,247.366667 265.55,247.966667 265.616667,248.75 C265.683333,249.533333 265.716667,250.608333 265.716667,251.975 L265.716667,251.975 L265.716667,256.875 C265.716667,257.575 265.7,258.175 265.666667,258.675 C265.633333,259.175 265.583333,259.625 265.516667,260.025 C265.45,260.425 265.366667,260.791667 265.266667,261.125 C265.166667,261.458333 265.033333,261.825 264.866667,262.225 C263.233333,266.058333 260.95,267.975 258.016667,267.975 C256.15,267.975 254.791667,267.158333 253.941667,265.525 C253.091667,263.891667 252.666667,261.258333 252.666667,257.625 L252.666667,257.625 L252.666667,243.975 L243.616667,243.975 L243.616667,245.725 C244.583333,245.825 245.341667,245.95 245.891667,246.1 C246.441667,246.25 246.858333,246.533333 247.141667,246.95 C247.425,247.366667 247.6,247.966667 247.666667,248.75 C247.733333,249.533333 247.766667,250.608333 247.766667,251.975 L247.766667,251.975 L247.766667,259.925 C247.766667,261.991667 247.891667,263.675 248.141667,264.975 C248.391667,266.275 248.8,267.291667 249.366667,268.025 C250.033333,268.925 251.025,269.641667 252.341667,270.175 C253.658333,270.708333 255.016667,270.975 256.416667,270.975 C258.216667,270.975 259.941667,270.5 261.591667,269.55 C263.241667,268.6 264.7,267.091667 265.966667,265.025 L265.966667,265.025 L266.166667,265.025 L266.716667,271.025 Z M310.316667,270.475 L310.316667,268.575 C308.816667,268.575 307.608333,268.5 306.691667,268.35 C305.775,268.2 305.075,267.908333 304.591667,267.475 C304.108333,267.041667 303.791667,266.433333 303.641667,265.65 C303.491667,264.866667 303.416667,263.858333 303.416667,262.625 L303.416667,262.625 L303.416667,252.225 C304.183333,252.225 304.841667,252.25 305.391667,252.3 C305.941667,252.35 306.425,252.466667 306.841667,252.65 C307.258333,252.833333 307.658333,253.091667 308.041667,253.425 C308.425,253.758333 308.833333,254.208333 309.266667,254.775 L309.266667,254.775 L321.516667,270.475 L331.166667,270.475 L331.166667,268.575 C329.666667,268.341667 328.375,267.983333 327.291667,267.5 C326.208333,267.016667 325.216667,266.225 324.316667,265.125 L324.316667,265.125 L313.266667,251.825 C316.766667,251.225 319.316667,250.041667 320.916667,248.275 C322.516667,246.508333 323.316667,244.291667 323.316667,241.625 C323.316667,238.591667 322.058333,236.225 319.541667,234.525 C317.025,232.825 313.466667,231.975 308.866667,231.975 L308.866667,231.975 L293.166667,231.975 L293.166667,233.875 C294.233333,233.941667 295.1,234.05 295.766667,234.2 C296.433333,234.35 296.941667,234.633333 297.291667,235.05 C297.641667,235.466667 297.875,236.033333 297.991667,236.75 C298.108333,237.466667 298.166667,238.408333 298.166667,239.575 L298.166667,239.575 L298.166667,262.875 C298.166667,264.041667 298.1,264.991667 297.966667,265.725 C297.833333,266.458333 297.566667,267.025 297.166667,267.425 C296.766667,267.825 296.208333,268.108333 295.491667,268.275 C294.775,268.441667 293.833333,268.541667 292.666667,268.575 L292.666667,268.575 L292.666667,270.475 L310.316667,270.475 Z M306.966667,249.725 L303.416667,249.725 L303.416667,235.175 C303.416667,234.608333 303.7,234.325 304.266667,234.325 L304.266667,234.325 L308.866667,234.325 C311.6,234.325 313.608333,234.908333 314.891667,236.075 C316.175,237.241667 316.816667,239.175 316.816667,241.875 C316.816667,244.675 316.008333,246.683333 314.391667,247.9 C312.775,249.116667 310.3,249.725 306.966667,249.725 L306.966667,249.725 Z M338.566667,236.425 C339.433333,236.425 340.166667,236.125 340.766667,235.525 C341.366667,234.925 341.666667,234.191667 341.666667,233.325 C341.666667,232.458333 341.366667,231.725 340.766667,231.125 C340.166667,230.525 339.433333,230.225 338.566667,230.225 C337.7,230.225 336.966667,230.525 336.366667,231.125 C335.766667,231.725 335.466667,232.458333 335.466667,233.325 C335.466667,234.191667 335.766667,234.925 336.366667,235.525 C336.966667,236.125 337.7,236.425 338.566667,236.425 Z M345.866667,270.475 L345.866667,268.725 C344.866667,268.691667 344.066667,268.591667 343.466667,268.425 C342.866667,268.258333 342.4,267.95 342.066667,267.5 C341.733333,267.05 341.508333,266.433333 341.391667,265.65 C341.275,264.866667 341.216667,263.825 341.216667,262.525 L341.216667,262.525 L341.216667,243.475 L331.416667,245.375 L331.416667,247.125 C333.083333,247.125 334.216667,247.266667 334.816667,247.55 C335.416667,247.833333 335.8,248.358333 335.966667,249.125 C336.1,249.591667 336.191667,250.45 336.241667,251.7 C336.291667,252.95 336.316667,254.541667 336.316667,256.475 L336.316667,256.475 L336.316667,262.875 C336.316667,264.041667 336.258333,265 336.141667,265.75 C336.025,266.5 335.791667,267.083333 335.441667,267.5 C335.091667,267.916667 334.6,268.216667 333.966667,268.4 C333.333333,268.583333 332.516667,268.691667 331.516667,268.725 L331.516667,268.725 L331.516667,270.475 L345.866667,270.475 Z M361.366667,270.975 C363.566667,270.975 365.616667,270.566667 367.516667,269.75 C369.416667,268.933333 370.966667,267.791667 372.166667,266.325 L372.166667,266.325 L370.666667,264.875 C369.4,266.108333 368.15,267 366.916667,267.55 C365.683333,268.1 364.366667,268.375 362.966667,268.375 C360.366667,268.375 358.391667,267.383333 357.041667,265.4 C355.691667,263.416667 355.016667,260.508333 355.016667,256.675 C355.016667,253.108333 355.625,250.408333 356.841667,248.575 C358.058333,246.741667 359.85,245.825 362.216667,245.825 C363.183333,245.825 363.975,245.983333 364.591667,246.3 C365.208333,246.616667 365.85,247.158333 366.516667,247.925 C367.15,248.791667 367.666667,249.35 368.066667,249.6 C368.466667,249.85 368.966667,249.975 369.566667,249.975 C370.333333,249.975 370.933333,249.791667 371.366667,249.425 C371.8,249.058333 372.016667,248.541667 372.016667,247.875 C372.016667,247.241667 371.8,246.65 371.366667,246.1 C370.933333,245.55 370.325,245.083333 369.541667,244.7 C368.758333,244.316667 367.833333,244.016667 366.766667,243.8 C365.7,243.583333 364.516667,243.475 363.216667,243.475 C361.15,243.475 359.258333,243.8 357.541667,244.45 C355.825,245.1 354.358333,246.033333 353.141667,247.25 C351.925,248.466667 350.983333,249.933333 350.316667,251.65 C349.65,253.366667 349.316667,255.291667 349.316667,257.425 C349.316667,259.458333 349.608333,261.308333 350.191667,262.975 C350.775,264.641667 351.6,266.066667 352.666667,267.25 C353.733333,268.433333 355.008333,269.35 356.491667,270 C357.975,270.65 359.6,270.975 361.366667,270.975 Z M395.866667,270.975 C397.033333,270.975 398.15,270.716667 399.216667,270.2 C400.283333,269.683333 401.016667,269.041667 401.416667,268.275 L401.416667,268.275 L400.716667,267.075 C400.416667,267.575 400.05,267.883333 399.616667,268 C399.183333,268.116667 398.733333,268.175 398.266667,268.175 C396.766667,268.175 396.016667,266.275 396.016667,262.475 L396.016667,262.475 L396.016667,251.275 C396.016667,248.441667 395.316667,246.433333 393.916667,245.25 C392.516667,244.066667 390.15,243.475 386.816667,243.475 C383.683333,243.475 381.266667,243.916667 379.566667,244.8 C377.866667,245.683333 377.016667,246.925 377.016667,248.525 C377.016667,250.191667 377.85,251.025 379.516667,251.025 C380.183333,251.025 380.691667,250.866667 381.041667,250.55 C381.391667,250.233333 381.75,249.591667 382.116667,248.625 C382.316667,247.991667 382.525,247.458333 382.741667,247.025 C382.958333,246.591667 383.2,246.258333 383.466667,246.025 C383.733333,245.791667 384.066667,245.625 384.466667,245.525 C384.866667,245.425 385.35,245.375 385.916667,245.375 C389.383333,245.375 391.116667,247.408333 391.116667,251.475 L391.116667,251.475 L391.116667,253.525 L383.916667,256.675 C382.416667,257.341667 381.15,258 380.116667,258.65 C379.083333,259.3 378.25,259.958333 377.616667,260.625 C376.983333,261.291667 376.525,261.991667 376.241667,262.725 C375.958333,263.458333 375.816667,264.225 375.816667,265.025 C375.816667,266.825 376.416667,268.258333 377.616667,269.325 C378.816667,270.391667 380.466667,270.925 382.566667,270.925 C384.433333,270.925 386.133333,270.45 387.666667,269.5 C389.2,268.55 390.4,267.258333 391.266667,265.625 L391.266667,265.625 L391.516667,265.625 C391.516667,267.325 391.875,268.641667 392.591667,269.575 C393.308333,270.508333 394.4,270.975 395.866667,270.975 Z M384.866667,267.925 C383.666667,267.925 382.7,267.575 381.966667,266.875 C381.233333,266.175 380.866667,265.275 380.866667,264.175 C380.866667,263.441667 381.041667,262.725 381.391667,262.025 C381.741667,261.325 382.316667,260.625 383.116667,259.925 C383.916667,259.225 384.975,258.525 386.291667,257.825 C387.608333,257.125 389.216667,256.408333 391.116667,255.675 L391.116667,255.675 L391.116667,259.625 C391.116667,260.758333 390.95,261.833333 390.616667,262.85 C390.283333,263.866667 389.833333,264.75 389.266667,265.5 C388.7,266.25 388.041667,266.841667 387.291667,267.275 C386.541667,267.708333 385.733333,267.925 384.866667,267.925 Z M416.566667,270.475 L416.566667,268.725 C415.6,268.658333 414.85,268.558333 414.316667,268.425 C413.783333,268.291667 413.375,268.016667 413.091667,267.6 C412.808333,267.183333 412.633333,266.575 412.566667,265.775 C412.5,264.975 412.466667,263.891667 412.466667,262.525 L412.466667,262.525 L412.466667,260.825 C412.466667,259.491667 412.541667,258.216667 412.691667,257 C412.841667,255.783333 413.05,254.691667 413.316667,253.725 C413.816667,251.958333 414.516667,250.5 415.416667,249.35 C416.316667,248.2 417.216667,247.625 418.116667,247.625 C418.416667,247.625 418.691667,247.691667 418.941667,247.825 C419.191667,247.958333 419.458333,248.1 419.741667,248.25 C420.025,248.4 420.35,248.541667 420.716667,248.675 C421.083333,248.808333 421.533333,248.875 422.066667,248.875 C423,248.875 423.716667,248.65 424.216667,248.2 C424.716667,247.75 424.966667,247.125 424.966667,246.325 C424.966667,245.458333 424.658333,244.766667 424.041667,244.25 C423.425,243.733333 422.583333,243.475 421.516667,243.475 C420.65,243.475 419.8,243.641667 418.966667,243.975 C418.133333,244.308333 417.333333,244.766667 416.566667,245.35 C415.8,245.933333 415.091667,246.641667 414.441667,247.475 C413.791667,248.308333 413.25,249.225 412.816667,250.225 L412.816667,250.225 L412.616667,250.225 L411.916667,244.025 L403.166667,245.925 L403.166667,247.675 C404.233333,247.675 405.066667,247.733333 405.666667,247.85 C406.266667,247.966667 406.708333,248.325 406.991667,248.925 C407.275,249.525 407.441667,250.458333 407.491667,251.725 C407.541667,252.991667 407.566667,254.758333 407.566667,257.025 L407.566667,257.025 L407.566667,262.875 C407.566667,264.141667 407.525,265.15 407.441667,265.9 C407.358333,266.65 407.166667,267.225 406.866667,267.625 C406.566667,268.025 406.133333,268.3 405.566667,268.45 C405,268.6 404.233333,268.691667 403.266667,268.725 L403.266667,268.725 L403.266667,270.475 L416.566667,270.475 Z M449.416667,270.975 L457.716667,270.425 L457.716667,268.725 C456.95,268.725 456.325,268.691667 455.841667,268.625 C455.358333,268.558333 454.975,268.45 454.691667,268.3 C454.408333,268.15 454.191667,267.941667 454.041667,267.675 C453.891667,267.408333 453.766667,267.075 453.666667,266.675 C453.5,266.041667 453.4,264.983333 453.366667,263.5 C453.333333,262.016667 453.316667,260.125 453.316667,257.825 L453.316667,228.975 L443.066667,230.875 L443.066667,232.375 C444.8,232.375 446.05,232.525 446.816667,232.825 C447.583333,233.125 448.05,233.641667 448.216667,234.375 C448.316667,234.841667 448.391667,235.708333 448.441667,236.975 C448.491667,238.241667 448.516667,239.825 448.516667,241.725 L448.516667,241.725 L448.516667,246.825 C447.35,245.658333 446.141667,244.808333 444.891667,244.275 C443.641667,243.741667 442.216667,243.475 440.616667,243.475 C438.75,243.475 437.016667,243.816667 435.416667,244.5 C433.816667,245.183333 432.441667,246.133333 431.291667,247.35 C430.141667,248.566667 429.241667,250.016667 428.591667,251.7 C427.941667,253.383333 427.616667,255.208333 427.616667,257.175 C427.616667,259.175 427.941667,261.025 428.591667,262.725 C429.241667,264.425 430.141667,265.883333 431.291667,267.1 C432.441667,268.316667 433.808333,269.266667 435.391667,269.95 C436.975,270.633333 438.716667,270.975 440.616667,270.975 C442.45,270.975 444.041667,270.616667 445.391667,269.9 C446.741667,269.183333 448.016667,267.975 449.216667,266.275 L449.216667,266.275 L449.416667,266.275 L449.416667,270.975 Z M440.616667,268.575 C439.416667,268.575 438.358333,268.3 437.441667,267.75 C436.525,267.2 435.758333,266.416667 435.141667,265.4 C434.525,264.383333 434.058333,263.158333 433.741667,261.725 C433.425,260.291667 433.266667,258.691667 433.266667,256.925 C433.266667,253.525 433.891667,250.833333 435.141667,248.85 C436.391667,246.866667 438.216667,245.875 440.616667,245.875 C441.783333,245.875 442.958333,246.133333 444.141667,246.65 C445.325,247.166667 446.3,247.925 447.066667,248.925 C447.6,249.591667 447.958333,250.375 448.141667,251.275 C448.325,252.175 448.416667,253.491667 448.416667,255.225 L448.416667,255.225 L448.416667,258.525 C448.416667,260.325 448.316667,261.741667 448.116667,262.775 C447.916667,263.808333 447.583333,264.691667 447.116667,265.425 C446.783333,265.925 446.366667,266.366667 445.866667,266.75 C445.366667,267.133333 444.825,267.466667 444.241667,267.75 C443.658333,268.033333 443.058333,268.241667 442.441667,268.375 C441.825,268.508333 441.216667,268.575 440.616667,268.575 Z"/></svg>