<svg xmlns="http://www.w3.org/2000/svg" width="500" height="500" viewBox="0 0 500 500"><g fill="none" fill-rule="evenodd"><path fill="#000" fill-rule="nonzero" d="M88.6913716 294.629986C88.1534233 293.769269 89.4982941 292.479986 90.8951665 292.479986 91.9172684 292.479986 92.1862425 292.74896 92.1862425 293.824857 92.1862425 294.954548 91.9172684 295.169727 90.6261924 295.169727 89.7116802 295.169727 88.8509629 294.900753 88.6895784 294.631779L88.6913716 294.629986ZM99.4987534 294.307217C99.1221896 293.33891 99.9829069 291.942037 101.005009 291.942037 101.381573 291.942037 101.650547 291.2965 101.596752 290.489577 101.596752 289.252296 101.811931 288.983322 102.941623 288.983322 104.609262 288.983322 105.091623 290.973731 103.640955 292.047834 103.103007 292.424398 102.672648 293.23132 102.672648 293.823063 102.672648 295.221729 100.038495 295.652088 99.5005465 294.307217L99.4987534 294.307217ZM79.9801951 293.33891C78.1511708 292.531987 76.5929138 290.059218 76.5929138 288.06881 76.5929138 285.918809 78.5295278 283.444247 80.5719383 282.852504 85.5192697 281.507633 89.2293199 285.163889 87.7768594 289.896041 86.7547576 293.283322 83.3136815 294.789577 79.9801951 293.337117L79.9801951 293.33891ZM93.6924978 292.800962C91.3273184 291.025732 91.434908 287.530861 93.9076772 285.81122 97.2949584 283.44604 101.542957 286.887116 100.198086 290.866141 99.8753172 291.780653 99.1759844 292.74896 98.6380361 293.016141 97.2393704 293.769269 94.7666013 293.661679 93.6907047 292.800962L93.6924978 292.800962ZM108.586494 292.478193C108.371314 292.101629 108.425109 291.617475 108.747878 291.294706 109.501006 290.541579 111.166852 291.187117 110.897878 292.101629 110.575109 292.962346 109.068854 293.23132 108.586494 292.478193ZM72.0221463 290.650962C70.9462496 289.844039 71.2152238 288.339577 72.5600946 287.855423 73.5284016 287.47886 74.9790689 288.500961 74.9790689 289.576858 74.9790689 290.760344 73.0962497 291.459677 72.0221463 290.652755L72.0221463 290.650962ZM105.737161 289.682655C104.230905 288.176399 105.360597 285.488451 107.51239 285.488451 108.157928 285.488451 108.911056 285.757425 109.28762 286.133989 109.664183 286.510553 109.933158 287.26368 109.933158 287.909218 109.933158 288.554756 109.664183 289.307884 109.28762 289.684448 108.911056 290.061012 108.157928 290.329986 107.51239 290.329986 106.866852 290.329986 106.113725 290.061012 105.737161 289.684448L105.737161 289.682655ZM112.942082 289.62886C111.543416 288.606758 112.02757 286.833322 113.69521 286.833322 114.663517 286.833322 115.093875 287.156091 115.201465 287.963013 115.416644 289.576858 114.125568 290.489577 112.943875 289.630653L112.942082 289.62886ZM65.4089682 288.391579C63.6875336 287.208092 63.9565078 284.466349 65.9469165 283.390452 67.1841977 282.69112 67.5607615 282.69112 68.7424547 283.336658 70.8924548 284.466349 71.1614289 286.454965 69.3879926 288.015015 67.666558 289.467475 67.0228132 289.52127 65.4089682 288.391579L65.4089682 288.391579ZM101.650547 287.799835C101.058804 287.208092 101.327778 286.562554 102.1347 286.562554 102.565059 286.562554 102.941623 286.777734 102.941623 287.046708 102.941623 287.746041 102.080905 288.230194 101.650547 287.799835L101.650547 287.799835ZM114.017979 285.219477C113.58762 284.03599 114.233158 282.800502 115.309055 282.800502 116.546336 282.800502 117.566644 284.091578 117.138079 285.165682 116.70772 286.241578 114.45013 286.295373 114.019772 285.219477L114.017979 285.219477ZM100.359471 284.304964C98.5304464 282.47594 100.68224 279.465223 102.939829 280.648709 104.822649 281.670811 104.015726 284.950502 101.863933 284.950502 101.379779 284.950502 100.734241 284.681528 100.357678 284.304964L100.359471 284.304964ZM120.523567 284.627733C119.878029 283.982195 120.093208 282.423939 120.953926 281.724606 122.029822 280.810094 123.48049 281.99358 123.26531 283.55363 123.103926 284.683321 121.274901 285.382654 120.523567 284.629527L120.523567 284.627733ZM61.64333 283.928401C61.8585093 283.229068 62.6116369 283.067683 62.6654318 283.713221 62.6654318 283.928401 62.3964576 284.197375 62.0736886 284.358759 61.6971248 284.466349 61.4819455 284.25117 61.64333 283.928401L61.64333 283.928401ZM89.8748579 283.659426C89.1217302 281.776607 91.112139 280.056966 92.5628063 281.240452 92.993165 281.617016 93.2621392 282.423939 93.1545495 283.015682 92.9393702 284.414347 90.3590114 284.898501 89.8748579 283.66122L89.8748579 283.659426ZM110.576902 283.498042C110.684492 282.960094 111.114851 282.529735 111.545209 282.529735 111.975568 282.529735 112.405927 282.960094 112.513516 283.498042 112.621106 284.14358 112.352132 284.412554 111.545209 284.412554 110.738287 284.412554 110.469313 284.14358 110.576902 283.498042L110.576902 283.498042ZM96.7032153 283.282863C96.2190618 282.47594 97.3487533 281.507633 98.3170602 281.884197 98.8012137 282.099376 99.1777775 282.58353 99.1777775 283.067683 99.1777775 283.982195 97.2949584 284.197375 96.7050084 283.282863L96.7032153 283.282863ZM63.1495853 281.670811C62.288868 280.110761 62.8806111 279.036657 64.4944561 279.036657 65.2475837 279.036657 66.0007114 279.359426 66.1620959 279.789785 66.5386597 280.811887 65.4627631 282.800502 64.4944561 282.800502 64.0640974 282.800502 63.4723543 282.316349 63.1495853 281.670811ZM72.2911204 281.99358C71.3228134 280.863888 71.8607618 279.305631 73.3132222 279.144247 75.303631 278.821478 76.1087603 280.542913 74.658093 281.939785 73.6359912 283.015682 73.1518377 283.015682 72.2929136 281.99358L72.2911204 281.99358ZM106.167519 281.99358C106.167519 281.563221 106.544083 281.186657 106.974442 281.186657 107.404801 281.186657 107.781364 281.563221 107.781364 281.99358 107.781364 282.423939 107.404801 282.800502 106.974442 282.800502 106.544083 282.800502 106.167519 282.423939 106.167519 281.99358ZM59.439535 281.509426C58.6864074 280.594914 59.0629712 279.572812 60.1926627 279.572812 61.376149 279.572812 61.7527128 280.648709 60.8919955 281.509426 60.1926627 282.208759 60.0312782 282.208759 59.439535 281.509426L59.439535 281.509426ZM92.6166012 279.572812C91.2717304 278.174147 91.056551 277.636198 91.3255252 276.185531 92.0786529 272.367891 96.1114721 270.861636 98.8532154 273.389993 101.110805 275.486198 100.736035 279.036657 98.0462929 280.379735 95.7887031 281.563221 94.4438323 281.348042 92.614808 279.572812L92.6166012 279.572812ZM115.093875 280.379735C114.717311 279.303838 115.25526 277.960761 116.115977 277.960761 116.546336 277.960761 116.653925 277.476607 116.492541 276.61589 116.331156 275.539993 116.492541 275.271019 117.407053 275.271019 118.160181 275.271019 118.536744 275.593788 118.536744 276.346916 118.536744 276.938659 118.26777 277.422812 117.998796 277.422812 117.676027 277.422812 117.676027 277.799376 118.052591 278.444914 118.429155 278.982862 118.536744 279.84358 118.37536 280.327733 117.945001 281.40363 115.526027 281.457425 115.095668 280.381528L115.093875 280.379735ZM76.861888 279.357633C75.248043 277.743788 75.1942482 276.938659 76.5929138 275.378609 78.6891191 273.174814 81.9706039 274.464097 81.9706039 277.528609 81.9706039 279.034864 81.2712711 279.786199 79.4440399 280.324147 78.5295278 280.593121 77.8839898 280.377942 76.8636812 279.35584L76.861888 279.357633ZM66.698251 279.088659C65.4071751 277.689993 65.7837389 275.217224 67.343789 274.410302 69.0114288 273.603379 70.5696858 274.033738 71.5379928 275.593788 72.2373256 276.562095 72.2373256 277.046248 71.6993773 278.066557 70.515891 280.377942 68.2583012 280.8083 66.698251 279.088659L66.698251 279.088659ZM107.725776 279.088659C104.553674 276.5083 107.671982 270.807841 111.758596 271.829943 113.157261 272.152712 114.769313 274.625481 114.769313 276.454505 114.769313 279.519018 110.306135 281.186657 107.725776 279.088659L107.725776 279.088659ZM84.0130144 278.981069C82.829528 278.335531 82.7757332 276.185531 83.8516299 275.271019 84.4971678 274.733071 84.9813213 274.733071 86.00163 275.163429 87.6692698 275.916557 87.8306543 278.174147 86.324399 279.034864 85.0871178 279.680402 85.1409127 279.680402 84.0130144 278.981069L84.0130144 278.981069ZM122.029822 278.443121C121.760848 277.582404 121.922233 277.044455 122.567771 276.560302 123.912641 275.5382 125.094335 276.237533 124.879155 277.905173 124.663976 279.787992 122.567771 280.162762 122.029822 278.443121ZM54.1156398 277.853171C53.3087173 277.046248 53.3087173 274.573479 54.1156398 273.766557 55.1915364 272.69066 57.1263572 273.013429 58.0946642 274.46589 58.9015867 275.703171 58.9015867 275.91835 58.0946642 277.153838 57.1263572 278.606299 55.1915364 278.929068 54.1156398 277.853171L54.1156398 277.853171ZM60.6768161 277.153838C59.3857402 275.862762 59.3319453 275.647583 60.085073 274.573479 60.9457903 273.228609 63.3647646 272.744455 64.5482509 273.712762 65.6779424 274.627274 65.4627631 276.723479 64.1178922 277.637992 62.5040473 278.767683 62.2350731 278.713888 60.6768161 277.153838ZM101.865726 277.691786C100.789829 276.346916 101.435367 275.003838 103.210597 275.003838 104.340288 275.003838 104.878237 275.272812 104.985826 275.972145 105.201006 277.101836 104.232699 278.498709 103.210597 278.498709 102.834033 278.498709 102.24229 278.122145 101.865726 277.691786L101.865726 277.691786ZM127.407512 276.884864C126.977154 276.131736 127.568897 275.271019 128.537204 275.271019 128.967562 275.271019 129.290331 275.755172 129.290331 276.346916 129.290331 277.476607 127.999255 277.853171 127.407512 276.884864ZM72.9366584 275.701378C72.0759411 274.84066 72.1297359 273.926148 73.0442481 273.174814 74.5505034 271.937533 76.7005035 274.089326 75.4632224 275.593788 74.7100947 276.5083 73.7955826 276.562095 72.9366584 275.701378L72.9366584 275.701378ZM119.503258 274.141328C117.943208 273.28061 118.212182 270.108508 119.933617 268.978817 121.224693 268.171894 121.493667 268.171894 122.78295 268.871227 125.470898 270.377482 124.611974 274.733071 121.599464 274.733071 120.953926 274.733071 119.985619 274.464097 119.503258 274.141328L119.503258 274.141328Z"/><path fill="#000" fill-rule="nonzero" d="M80.0339899 273.443788C79.4422468 271.883738 80.0339899 270.702045 81.4326556 270.702045 82.562347 270.702045 82.7775264 270.971019 82.7775264 272.31589 82.7775264 273.606966 82.5085522 273.983529 81.5402452 274.091119 80.8409124 274.198709 80.2491693 273.929735 80.0339899 273.445581L80.0339899 273.443788ZM87.6154749 273.121019C87.4002956 272.79825 87.4540905 272.260302 87.7768594 271.937533 88.0996284 271.614764 88.4223974 271.614764 88.6913716 272.045122 88.9065509 272.367891 88.8527561 272.90584 88.5299871 273.228609 88.2072181 273.551378 87.8844491 273.551378 87.6154749 273.121019ZM127.084743 272.79825C126.170231 271.668558 127.084743 270.164096 128.806178 270.164096 129.774485 270.164096 130.151049 270.486865 130.258638 271.455172 130.581407 273.499376 128.429614 274.412095 127.086536 272.800043L127.084743 272.79825ZM104.930238 272.367891C104.49988 271.291995 105.790956 270.271686 106.544083 271.02302 107.297211 271.776148 106.866852 273.119226 105.898545 273.119226 105.521981 273.119226 105.091623 272.796457 104.930238 272.366098L104.930238 272.367891ZM69.280403 271.453379C68.7962495 270.646457 69.925941 269.67815 70.8942479 270.054713 71.3784014 270.269893 71.7549653 270.754046 71.7549653 271.2382 71.7549653 272.152712 69.8721461 272.367891 69.2821961 271.453379L69.280403 271.453379ZM101.327778 271.2382C101.327778 270.807841 101.596752 270.431277 101.865726 270.431277 102.188495 270.431277 102.403674 270.807841 102.403674 271.2382 102.403674 271.668558 102.188495 272.045122 101.865726 272.045122 101.596752 272.045122 101.327778 271.668558 101.327778 271.2382ZM54.1156398 270.592662C54.3846139 269.193996 56.1598434 269.032612 56.1598434 270.377482 56.1598434 271.184405 55.8370744 271.507174 55.0301519 271.507174 54.2770243 271.507174 54.0080501 271.2382 54.1156398 270.592662ZM57.4491262 270.162303C56.9649727 268.925022 57.6105107 267.743329 58.7402022 267.743329 60.3002523 267.743329 61.320561 269.141994 60.4616368 270.162303 60.085073 270.592662 59.3319453 270.969226 58.7402022 270.969226 58.2022539 270.969226 57.6105107 270.592662 57.4491262 270.162303ZM49.4910774 269.249584C48.3613859 267.689534 48.4151807 267.045789 49.598667 265.969893 51.0511275 264.678817 52.770769 264.840201 53.7928708 266.400251 54.5997933 267.637532 54.5997933 267.852712 53.7928708 269.0882 52.6631793 270.809634 50.6207689 270.863429 49.4910774 269.249584L49.4910774 269.249584ZM62.7192266 269.572353C60.675023 268.119893 59.762304 265.808508 60.4616368 263.71051 62.4520456 257.579692 71.2152238 258.709383 71.2152238 265.05538 71.2152238 269.357174 66.2140975 272.045122 62.7192266 269.572353L62.7192266 269.572353ZM115.309055 269.357174C115.309055 268.550251 115.578029 268.281277 116.277362 268.388867 116.761515 268.496456 117.191874 268.926815 117.191874 269.357174 117.191874 269.787532 116.761515 270.217891 116.277362 270.325481 115.578029 270.43307 115.309055 270.164096 115.309055 269.357174ZM131.601716 269.572353C131.225152 268.604046 132.516228 267.528149 133.269356 268.281277 133.861099 268.87302 133.323151 270.431277 132.516228 270.431277 132.193459 270.431277 131.816895 270.054713 131.601716 269.57056L131.601716 269.572353ZM88.2610129 269.572353C87.5616801 268.819225 87.8844491 267.260968 88.9065509 266.72302 90.3590114 265.916098 92.1324477 267.314763 91.3255252 268.659634 90.6799872 269.681736 88.9065509 270.219684 88.2610129 269.574146L88.2610129 269.572353ZM108.31752 268.87302C107.940956 268.066098 107.994751 267.581944 108.640289 266.936406 109.66239 265.968099 110.415518 266.075689 111.220647 267.31297 111.597211 267.958508 111.543416 268.442662 111.059263 269.034405 110.090956 270.217891 109.015059 270.110301 108.31752 268.87302L108.31752 268.87302ZM96.5956256 268.765431C96.7032153 268.442662 97.0259843 268.227482 97.2949584 268.227482 97.5639326 268.227482 97.8867016 268.442662 97.9942912 268.765431 98.1018809 269.0882 97.7791119 269.357174 97.2949584 269.357174 96.8108049 269.357174 96.4880359 269.0882 96.5956256 268.765431ZM71.7531721 267.743329C71.7531721 266.936406 72.0221463 266.667432 72.7214791 266.775022 73.2056326 266.882612 73.6359912 267.31297 73.6359912 267.743329 73.6359912 268.173687 73.2056326 268.604046 72.7214791 268.711636 72.0221463 268.819225 71.7531721 268.550251 71.7531721 267.743329ZM83.5826557 268.281277C83.5826557 268.012303 83.9592195 267.743329 84.3895782 267.743329 84.8199368 267.743329 85.1965007 268.012303 85.1965007 268.281277 85.1965007 268.604046 84.8199368 268.819225 84.3895782 268.819225 83.9592195 268.819225 83.5826557 268.604046 83.5826557 268.281277ZM125.739873 266.936406C125.255719 265.699125 125.901257 264.517432 127.084743 264.517432 128.483409 264.517432 129.503718 266.238867 128.644793 267.097791 127.730281 268.012303 126.064435 267.904713 125.741666 266.936406L125.739873 266.936406ZM201.12795 266.936406C197.902054 265.806715 196.395798 264.463637 194.514772 261.020768 192.257183 257.095538 192.042003 252.417181 193.976824 249.083695 195.967233 245.588824 198.278617 243.114261 200.374823 242.201542 202.955181 241.125646 208.709435 241.179441 211.343589 242.255337 215.161229 243.815387 218.010562 248.386155 218.440921 253.600667L218.709895 256.987949 209.46077 256.987949C204.405849 256.987949 200.26544 257.095538 200.26544 257.256923 200.26544 258.440409 201.879285 260.429025 203.383747 261.074563 205.910311 262.096665 207.954515 262.04287 210.803847 260.751794 213.384206 259.514513 214.191129 259.729692 216.289127 261.989075L217.526408 263.333946 215.589794 264.893996C214.513898 265.808508 212.740461 266.776815 211.61077 267.151586 208.815232 267.958508 203.706516 267.850918 201.126157 266.936406L201.12795 266.936406ZM211.022613 251.289283C211.022613 249.783028 208.011896 247.310258 206.182871 247.310258 203.279744 247.310258 200.267233 249.460259 200.267233 251.558257 200.267233 251.934821 202.203847 252.15 205.644923 252.15 210.161896 252.15 211.022613 252.04241 211.022613 251.289283ZM226.346968 266.721227C220.646509 264.140868 217.797176 256.826564 219.841379 249.944412 220.809686 246.66472 223.659019 243.277439 226.454557 242.147748 230.057018 240.587698 237.423324 241.717389 238.284041 243.922977 238.983374 245.698207 239.252348 244.191951 239.252348 238.599082L239.252348 232.522059 243.177578 232.360675 247.049012 232.19929 247.049012 249.729233 247.049012 267.20538 243.016193 267.20538C238.983374 267.20538 238.983374 267.20538 238.983374 265.75292L238.983374 264.354254 237.799887 265.483946C235.165734 267.90292 230.164608 268.494663 226.346968 266.721227L226.346968 266.721227ZM236.187836 260.536614C238.232039 259.460718 239.252348 257.310718 239.198553 254.192411 239.144758 250.966514 237.746093 248.92231 235.058144 248.007798 232.477785 247.147081 229.572864 248.061593 228.014607 250.157798 226.562147 252.094412 226.508352 256.663387 227.853223 258.600001 229.682247 261.234154 233.284708 262.041077 236.187836 260.536614ZM263.987212 266.990201C261.837212 266.021894 260.761315 264.732611 259.793008 261.881485 259.03988 259.78528 259.03988 259.354921 259.954392 257.310718 261.998596 252.63236 264.901724 251.28749 271.945261 251.771643 275.709106 252.040617 276.08567 251.933028 276.08567 251.07231 276.08567 250.534362 275.440132 249.566055 274.633209 248.92231 273.288338 247.900208 272.696595 247.792619 269.363109 248.007798 267.318905 248.169183 265.11511 248.438157 264.469572 248.653336 263.55506 248.92231 263.286086 248.653336 262.748137 246.878107 261.77983 243.706005 261.941215 243.168056 263.877829 242.468723 266.619572 241.500417 273.449723 241.177648 276.514235 241.930775 279.740132 242.683903 282.160899 245.049082 283.019823 248.221184 283.342592 249.350876 283.611567 254.083028 283.611567 258.759592L283.611567 267.201794 279.847721 267.201794C276.352851 267.201794 276.083876 267.094205 276.083876 266.018308 276.083876 264.996206 275.976287 264.942411 275.169364 265.695539 272.6428 267.791744 267.211315 268.437282 263.985419 266.986615L263.987212 266.990201ZM274.687004 261.235947C275.816695 260.37523 276.08567 259.729692 275.97808 258.440409 275.816695 256.987949 275.547721 256.718975 273.72049 256.344204 268.988338 255.375897 265.224493 258.011844 267.161107 261.022561 267.914235 262.152253 268.452183 262.367432 270.655978 262.367432 272.485002 262.367432 273.666695 262.044663 274.688797 261.23774L274.687004 261.235947ZM322.598475 266.506048C321.146014 265.699125 320.071911 264.515639 319.264988 262.903587 318.189092 260.699792 318.081502 259.623895 318.027707 251.773436 318.027707 243.546413 318.081502 243.008465 319.049809 243.008465 320.018116 243.008465 320.071911 243.600208 320.28709 251.504462 320.502269 260.645997 320.932628 262.258049 323.728166 264.463637 324.750268 265.27056 325.931961 265.593329 327.92237 265.593329 331.202061 265.593329 333.622829 264.409842 335.503855 261.883278 336.794931 260.054254 336.848726 259.733278 336.848726 251.504462L336.848726 243.008465 338.193596 243.008465 339.538467 243.008465 339.538467 255.106923 339.538467 267.20538 338.193596 267.20538C337.063905 267.20538 336.848726 266.936406 336.848726 265.483946L336.848726 263.816306 335.665239 264.892203C332.224163 268.01051 326.523704 268.709843 322.598475 266.506048L322.598475 266.506048ZM351.473747 266.667432C350.50544 266.075689 349.483339 264.945998 349.216158 264.194663 348.893389 263.441535 348.678209 258.870768 348.678209 253.977231L348.678209 245.158465 346.79539 245.158465C345.289135 245.158465 344.912571 244.943286 344.912571 244.082568 344.912571 243.221851 345.289135 243.006672 346.79539 243.006672L348.678209 243.006672 348.678209 239.242827C348.678209 235.586571 348.732004 235.478982 350.02308 235.478982 351.314156 235.478982 351.367951 235.586571 351.367951 239.242827L351.367951 243.006672 355.669744 243.006672C359.594974 243.006672 359.971538 243.114261 359.971538 244.082568 359.971538 245.050875 359.594974 245.158465 355.669744 245.158465L351.367951 245.158465 351.367951 254.192411C351.367951 259.139742 351.58313 263.441535 351.798309 263.764304 352.659027 265.109175 354.755232 265.700918 357.337384 265.378149 359.487384 265.109175 359.971538 265.16297 359.971538 265.808508 359.971538 267.904713 354.432463 268.442662 351.47554 266.669225L351.473747 266.667432ZM370.402356 266.882612C366.100562 264.786406 365.347435 262.473228 365.347435 251.558257 365.347435 243.385029 365.401229 243.008465 366.423331 243.008465 367.445433 243.008465 367.499228 243.385029 367.499228 250.858924 367.499228 259.731485 368.359945 263.011177 371.209278 264.678817 374.327585 266.507841 380.727377 265.378149 382.12425 262.688408 382.447019 262.096665 382.984967 261.397332 383.307736 261.182152 383.6843 260.913178 383.953274 257.579692 384.060864 251.879233L384.222248 243.006672 385.567119 243.006672 386.858195 243.006672 386.858195 255.10513 386.858195 267.203587 385.513324 267.203587C384.329838 267.203587 384.168453 266.988408 384.168453 265.213179 384.168453 263.330359 384.168453 263.276565 383.253941 264.352461 382.715993 264.944204 381.424917 265.966306 380.404608 266.610051 378.093223 268.008717 372.930713 268.116306 370.402356 266.879025L370.402356 266.882612ZM417.505111 267.043996C412.826753 264.893996 409.97742 260.430818 409.97742 255.214512 409.97742 251.396872 410.838138 249.191284 413.579881 246.234362 416.106445 243.385029 418.204444 242.470517 422.183468 242.470517 425.624544 242.524311 426.700441 242.95467 429.549774 245.588824 431.914953 247.685029 433.098439 250.428565 433.098439 253.546873L433.098439 255.912052 423.042392 256.019642 412.93255 256.181026 413.04014 257.794871C413.201524 259.944871 415.781883 263.49533 418.041266 264.623229 420.191266 265.75292 424.279673 265.86051 426.483468 264.945998 427.290391 264.623229 428.633468 263.708716 429.494186 262.955589 430.839056 261.718308 431.000441 261.664513 431.859365 262.471435 432.612493 263.278358 432.612493 263.493537 431.966955 264.30046 431.536596 264.784613 430.030341 265.806715 428.525879 266.45046 425.515161 267.849125 419.922292 268.171894 417.503318 267.042203L417.505111 267.043996ZM430.948439 253.654462C430.948439 252.470976 428.47567 247.631234 427.399773 246.66472 426.861825 246.180567 425.35557 245.481234 424.120082 245.10467 419.979673 243.921184 415.57029 246.072977 413.687471 250.213386 411.750857 254.40759 411.483676 254.3 421.806904 254.3 428.742851 254.3 430.948439 254.138616 430.948439 253.654462L430.948439 253.654462ZM441.650025 266.775022C440.305154 266.290868 438.639307 265.483946 438.047564 265.053587 437.025462 264.30046 436.971667 264.139075 437.724795 263.170768 438.208948 262.52523 438.639307 262.310051 438.908281 262.686615 439.607614 263.762511 443.586638 265.266973 446.328382 265.482153 449.715663 265.751127 452.028841 264.67523 452.995355 262.363846 454.125046 259.622102 452.618791 258.115847 446.756947 256.179233 441.110283 254.296414 439.336847 253.168516 438.476129 251.070517 437.561617 248.920517 438.207155 246.714929 440.358949 244.618724 441.972794 243.058673 442.724128 242.789699 445.30628 242.57452 448.854946 242.305546 452.134637 243.058673 454.071251 244.564929 455.147148 245.425646 455.254738 245.748415 454.662994 246.393953 454.071251 247.147081 453.748482 247.093286 451.759867 246.178774 450.361201 245.587031 448.264996 245.156672 446.382177 245.156672 443.801818 245.156672 443.04869 245.371851 441.972794 246.501543 441.219666 247.200876 440.627923 248.276772 440.627923 248.866722 440.627923 250.211593 443.369666 252.469183 445.575254 252.953336 446.543561 253.168516 447.671459 253.545079 448.155613 253.760259 448.585972 254.029233 449.769458 254.513386 450.789767 254.88995 451.758073 255.266514 453.31633 256.127231 454.123253 256.880359 455.414329 257.956256 455.683303 258.547999 455.683303 260.697999 455.683303 263.708716 454.714996 265.214972 451.919458 266.667432 449.339099 268.012303 445.144895 268.012303 441.648231 266.775022L441.650025 266.775022ZM156.175195 250.536155 156.175195 233.86693 160.15422 233.86693 164.079449 233.86693 167.305346 238.868056C169.080576 241.556005 171.069191 244.7299 171.714729 245.804003L172.898216 247.848207 174.243086 246.288157C174.942419 245.427439 175.534162 244.620517 175.534162 244.459132 175.534162 244.297748 177.040418 241.824979 178.813854 239.027647L182.093546 233.865137 186.341544 233.865137 190.589543 233.865137 190.589543 250.534362 190.589543 267.203587 186.556723 267.203587 182.523904 267.203587 182.523904 256.611385 182.523904 246.019182 179.620776 250.320976C174.83483 257.256923 173.115188 259.67769 172.846214 259.67769 172.684829 259.67769 170.80201 256.935947 168.65201 253.546873 166.50201 250.159591 164.404012 247.095079 163.973653 246.77231 163.27432 246.180567 163.16673 247.417848 163.16673 256.666973L163.16673 267.20538 159.671859 267.20538 156.176989 267.20538 156.176989 250.536155 156.175195 250.536155Z"/><polygon fill="#000" fill-rule="nonzero" points="249.845 254.461 250.006 241.664 253.931 241.502 257.803 241.341 257.803 254.3 257.803 267.205 253.77 267.205 249.737 267.205 249.845 254.461"/><path fill="#000" fill-rule="nonzero" d="M287.915153 250.536155 287.915153 233.86693 300.013611 233.86693 312.112069 233.86693 312.112069 235.211801 312.112069 236.556671 301.358482 236.556671 290.5511 236.556671 290.712484 243.169849 290.873869 249.729233 300.445763 249.890617C309.533503 249.998207 309.963862 250.052002 309.963862 251.074103 309.963862 252.096205 309.587298 252.15 300.284378 252.15L290.604895 252.15 290.604895 259.67769 290.604895 267.20538 289.260024 267.20538 287.915153 267.20538 287.915153 250.536155 287.915153 250.536155ZM394.384092 255.106923 394.384092 243.008465 395.728963 243.008465C397.020039 243.008465 397.073833 243.169849 397.073833 246.072977L397.073833 249.13749 398.956653 246.933695C401.000856 244.51472 404.657112 242.470517 406.914701 242.470517 408.098188 242.470517 408.367162 242.739491 408.367162 243.815387 408.367162 244.945079 408.044393 245.214053 406.270957 245.483027 402.991265 246.020976 400.193934 247.902002 398.689472 250.537948 397.505985 252.741743 397.344601 253.656255 397.183216 260.109842 396.968037 267.207174 396.968037 267.207174 395.676961 267.207174L394.385885 267.207174 394.385885 255.108716 394.384092 255.106923ZM114.986286 265.914305C114.502132 264.730818 115.793208 263.333946 117.136286 263.549125 117.943208 263.656715 118.265977 264.087073 118.265977 265.05538 118.265977 266.131277 117.943208 266.454046 116.759722 266.561636 115.791415 266.669225 115.199672 266.454046 114.984492 265.916098L114.986286 265.914305ZM130.149256 265.806715C128.427821 264.139075 129.396128 261.289742 131.709306 261.289742 133.269356 261.289742 134.12828 262.311844 134.12828 264.08528 134.12828 266.34287 131.709306 267.418767 130.149256 265.806715ZM56.9129711 265.001586C56.4288176 264.194663 57.5047142 263.226356 58.526816 263.60292 59.0109695 263.818099 59.2261488 264.302253 59.0647643 264.786406 58.6882005 265.700918 57.4509194 265.862303 56.9147642 265.001586L56.9129711 265.001586ZM98.4784447 265.27056C97.6715222 264.409842 98.1018809 262.421227 99.2315724 262.098458 100.684033 261.614304 101.489162 262.421227 101.221981 264.035072 101.060597 265.326148 99.2853672 266.079275 98.4802379 265.272353L98.4784447 265.27056ZM119.826027 264.840201C119.449463 263.818099 120.52536 261.829484 121.493667 261.829484 122.461974 261.829484 123.537871 263.819892 123.161307 264.840201 122.999922 265.27056 122.246795 265.593329 121.493667 265.593329 120.740539 265.593329 119.987412 265.27056 119.826027 264.840201ZM79.8726054 264.302253C78.4739398 262.634613 80.6257331 260.484613 82.2915797 261.883278 82.7219384 262.259842 83.0447074 263.066765 82.9371177 263.658508 82.7219384 265.057174 80.7871176 265.433737 79.8726054 264.304046L79.8726054 264.302253ZM47.8252307 263.387741C47.2872824 261.773896 48.7935377 260.269433 50.1366154 261.076356 50.6207689 261.399125 51.0511275 262.259842 51.0511275 262.959175 51.0511275 264.788199 48.3631791 265.16297 47.8252307 263.389534L47.8252307 263.387741ZM106.705468 262.634613C106.705468 261.558716 106.920647 261.235947 107.673775 261.397332 108.157928 261.504921 108.588287 262.04287 108.588287 262.634613 108.588287 263.226356 108.157928 263.764304 107.673775 263.871894 106.920647 264.033279 106.705468 263.71051 106.705468 262.634613ZM73.7973757 262.419434C72.4525049 261.128358 72.5600946 258.279025 73.8511706 257.525897 75.4112207 256.718975 76.861888 256.880359 77.830195 257.956256 79.0136813 259.247332 78.9598864 260.859383 77.7226053 262.258049 76.539119 263.656715 75.0346569 263.71051 73.7973757 262.419434L73.7973757 262.419434ZM93.8000875 262.365639C93.8000875 261.773896 94.0690616 261.289742 94.3380358 261.289742 94.6608048 261.289742 94.8759841 261.773896 94.8759841 262.365639 94.8759841 262.957382 94.6608048 263.441535 94.3380358 263.441535 94.0690616 263.441535 93.8000875 262.957382 93.8000875 262.365639ZM54.7073829 262.311844C53.7928708 261.989075 53.4701018 261.451127 53.4701018 260.215639 53.4701018 258.22523 55.2453313 257.204921 56.9649727 258.33282 59.3301522 259.839075 57.3415366 263.387741 54.7073829 262.311844ZM87.1313215 261.989075C86.5395783 261.397332 86.8085525 260.751794 87.6154749 260.751794 88.0458336 260.751794 88.4223974 260.966973 88.4223974 261.235947 88.4223974 261.93528 87.5616801 262.419434 87.1313215 261.989075ZM125.094335 261.720101C124.179822 260.805589 124.287412 258.870768 125.255719 258.063845 125.739873 257.687282 126.708179 257.525897 127.674693 257.741076 128.85818 257.956256 129.396128 257.794871 129.611307 257.256923 130.041666 256.234821 132.299256 256.234821 132.729614 257.256923 133.267563 258.763178 132.46064 259.783487 130.846795 259.568307 129.663309 259.406923 129.286745 259.568307 129.286745 260.213845 129.286745 261.397332 128.210848 262.363846 126.867771 262.363846 126.222233 262.363846 125.469105 262.094871 125.092541 261.718308L125.094335 261.720101ZM113.802799 261.34533C114.017979 260.645997 114.771106 260.484613 114.824901 261.130151 114.824901 261.34533 114.555927 261.614304 114.233158 261.775689 113.856594 261.883278 113.641415 261.668099 113.802799 261.34533L113.802799 261.34533ZM122.298796 259.67769C122.298796 259.408716 122.67536 259.139742 123.105719 259.139742 123.536078 259.139742 123.912641 259.408716 123.912641 259.67769 123.912641 260.000459 123.536078 260.215639 123.105719 260.215639 122.67536 260.215639 122.298796 260.000459 122.298796 259.67769ZM46.6955393 258.924563C46.5341548 258.494204 46.4803599 257.579692 46.5879496 256.880359 46.6955393 255.912052 47.0721031 255.643078 48.3093842 255.643078 50.2459982 255.643078 51.3201017 257.095538 50.4593844 258.492411 49.7062567 259.675897 47.1258979 259.998666 46.6955393 258.922769L46.6955393 258.924563ZM59.1705608 258.816973C58.6864074 258.386614 58.3098435 257.418307 58.3098435 256.772769 58.3098435 255.481693 60.3540472 253.224104 61.4819455 253.224104 62.6654318 253.224104 64.3850732 255.268307 64.3850732 256.772769 64.3850732 259.353128 60.997792 260.644204 59.1687677 258.816973L59.1705608 258.816973ZM81.1636814 259.139742C80.7333227 258.386614 81.3250659 257.525897 82.2933729 257.525897 82.7237315 257.525897 83.0465005 258.010051 83.0465005 258.601794 83.0465005 259.731485 81.7554246 260.108049 81.1636814 259.139742ZM101.327778 258.655588C101.327778 257.848666 101.650547 257.525897 102.457469 257.525897 103.80234 257.525897 103.640955 259.301126 102.24229 259.570101 101.596752 259.67769 101.327778 259.408716 101.327778 258.655588L101.327778 258.655588ZM133.590332 258.063845C133.590332 257.256923 133.859306 256.987949 134.558639 257.095538 135.042792 257.203128 135.473151 257.633487 135.473151 258.063845 135.473151 258.494204 135.042792 258.924563 134.558639 259.032152 133.859306 259.139742 133.590332 258.870768 133.590332 258.063845ZM113.910389 257.848666C113.372441 256.45 114.125568 255.268307 115.416644 255.483487 116.331156 255.591076 116.653925 256.021435 116.653925 256.989742 116.653925 257.958049 116.331156 258.388407 115.416644 258.495997 114.717311 258.603587 114.071773 258.334613 113.910389 257.850459L113.910389 257.848666ZM118.911515 257.741076C118.212182 256.987949 118.534951 254.945538 119.449463 254.622769 120.794334 254.084821 122.191207 255.698666 121.439872 256.880359 120.794334 257.902461 119.503258 258.33282 118.913308 257.741076L118.911515 257.741076ZM105.145418 255.698666C104.661264 255.106923 104.607469 254.622769 105.091623 253.815847 106.113725 251.879233 108.532699 252.73995 108.20993 254.891743 107.994751 256.397999 106.113725 256.882152 105.145418 255.698666Z"/><path fill="#000" fill-rule="nonzero" d="M53.149126 255.375897C51.6966655 254.784154 50.2459982 252.526564 50.2459982 250.805129 50.2459982 248.868515 52.503588 246.77231 54.5477916 246.77231 56.7515866 246.77231 58.0964574 247.525438 59.0647643 249.352669 59.5489178 250.159591 59.8716868 250.48236 59.9254817 250.159591 59.9254817 249.729233 60.6248145 249.460259 61.5931215 249.460259 63.0455819 249.460259 63.2069664 249.621643 63.0455819 250.912719 62.8304026 252.687948 61.4855318 253.116514 60.2500438 251.881026 59.550711 251.127898 59.3893265 251.127898 59.3893265 251.773436 59.3893265 252.956923 56.4324039 255.913845 55.2489176 255.86005 54.7109693 255.86005 53.7964571 255.644871 53.1527123 255.375897L53.149126 255.375897ZM123.213309 255.537281C122.567771 254.945538 122.836745 252.849333 123.589872 252.203795 124.611974 251.343078 126.60059 252.311385 126.60059 253.656255 126.60059 255.37769 124.289205 256.666973 123.213309 255.539075L123.213309 255.537281ZM132.516228 255.268307C132.516228 254.084821 133.43074 253.064512 134.076278 253.439283 135.09838 254.084821 134.775611 255.912052 133.592125 255.912052 133.000382 255.912052 132.516228 255.589283 132.516228 255.266514L132.516228 255.268307ZM80.3567589 254.837949C80.3567589 254.568974 80.7333227 254.3 81.1636814 254.3 81.5940401 254.3 81.9706039 254.568974 81.9706039 254.837949 81.9706039 255.160718 81.5940401 255.375897 81.1636814 255.375897 80.7333227 255.375897 80.3567589 255.160718 80.3567589 254.837949ZM71.2152238 253.815847C70.4620961 252.363386 71.1076341 251.074103 72.5600946 251.074103 73.2594274 251.074103 73.9587602 251.450667 74.1201447 251.934821 74.5505034 253.010717 73.5821964 254.837949 72.5600946 254.837949 72.1297359 254.837949 71.5379928 254.353795 71.2152238 253.815847ZM115.416644 253.062719C113.964184 251.502669 113.802799 248.384362 115.201465 247.147081 117.781824 244.835696 122.298796 246.609132 122.298796 250.050209 122.298796 251.933028 119.879822 254.298207 117.997003 254.298207 117.190081 254.298207 116.060389 253.760259 115.416644 253.060926L115.416644 253.062719ZM100.897419 252.741743C101.005009 252.365179 101.273983 252.096205 101.489162 252.096205 102.1347 252.15 101.973316 252.903128 101.327778 253.172102 100.951214 253.279692 100.736035 253.064512 100.897419 252.741743L100.897419 252.741743ZM46.2113858 251.612052C45.7810271 250.267181 46.2651806 249.462052 47.5024617 249.462052 49.008717 249.462052 49.9752309 250.860717 49.1701015 251.881026 48.2017946 253.010717 46.5897428 252.903128 46.2131789 251.612052L46.2113858 251.612052ZM109.76998 252.365179C109.016852 251.612052 109.393416 250.48236 110.361723 250.643745 110.845877 250.751334 111.276235 251.181693 111.276235 251.558257 111.276235 252.418974 110.307928 252.903128 109.76998 252.365179L109.76998 252.365179ZM127.407512 252.15C127.192333 251.773436 127.246128 251.289283 127.568897 250.966514 128.322024 250.213386 129.987871 250.858924 129.718897 251.773436 129.396128 252.634154 127.889873 252.903128 127.407512 252.15ZM64.2254819 251.074103C64.2254819 250.374771 64.6020457 249.998207 65.3013786 249.998207 66.0007114 249.998207 66.3772752 250.374771 66.3772752 251.074103 66.3772752 251.773436 66.0007114 252.15 65.3013786 252.15 64.6020457 252.15 64.2254819 251.773436 64.2254819 251.074103L64.2254819 251.074103ZM131.547921 251.504462C131.171357 251.127898 130.902383 250.320976 130.902383 249.621643 130.902383 247.954003 133.428947 247.256464 134.504844 248.653336 135.419356 249.944412 135.365561 250.267181 134.343459 251.28749 133.321358 252.309591 132.406845 252.363386 131.547921 251.502669L131.547921 251.504462ZM135.849715 251.235488C136.118689 249.836822 137.893918 249.675438 137.893918 251.020309 137.893918 251.827231 137.571149 252.15 136.764227 252.15 136.011099 252.15 135.742125 251.881026 135.849715 251.235488ZM124.181616 250.536155C123.751257 249.783028 124.343 248.92231 125.311307 248.92231 125.741666 248.92231 126.064435 249.406464 126.064435 249.998207 126.064435 251.127898 124.773359 251.504462 124.181616 250.536155ZM69.1728133 246.933695C69.4417875 245.535029 71.2170169 245.373644 71.2170169 246.718515 71.2170169 247.525438 70.8942479 247.848207 70.0873255 247.848207 69.3341978 247.848207 69.0652236 247.579233 69.1728133 246.933695ZM48.9011274 246.718515C48.2555894 245.750208 49.1163067 243.546413 50.1384085 243.546413 51.4832793 243.546413 52.6111776 245.590617 51.8060483 246.557131 51.1067155 247.417848 49.387074 247.579233 48.9029205 246.718515L48.9011274 246.718515ZM63.4185594 246.718515C63.2033801 246.449541 63.2033801 245.588824 63.3647646 244.835696 63.8489181 243.060467 65.6761492 243.060467 66.1603027 244.835696 66.5368665 246.503336 66.1065079 247.308465 64.7616371 247.308465 64.2236888 247.308465 63.5781508 247.039491 63.4167663 246.716722L63.4185594 246.718515ZM100.789829 246.77231C100.789829 246.503336 101.166393 246.234362 101.596752 246.234362 102.02711 246.234362 102.403674 246.503336 102.403674 246.77231 102.403674 247.095079 102.02711 247.310258 101.596752 247.310258 101.166393 247.310258 100.789829 247.095079 100.789829 246.77231ZM104.607469 246.557131C103.800547 245.642619 104.661264 243.546413 105.84475 243.546413 107.082032 243.546413 108.048545 245.160258 107.404801 246.126772 106.651673 247.364053 105.414392 247.525438 104.609262 246.557131L104.607469 246.557131ZM128.214435 246.395746C126.331616 245.10467 126.064435 244.620517 126.064435 242.362927 126.064435 237.68457 132.892792 236.501083 134.614227 240.910467 135.313559 242.84708 134.721816 244.997081 133.161766 246.234362 131.547921 247.525438 129.935869 247.579233 128.214435 246.395746L128.214435 246.395746ZM134.23587 246.826105C134.343459 246.449541 134.612434 246.180567 134.827613 246.180567 135.473151 246.234362 135.311766 246.987489 134.666228 247.256464 134.289665 247.364053 134.074485 247.148874 134.23587 246.826105ZM46.0500013 246.072977C45.2968736 245.21226 45.7272323 244.620517 47.1258979 244.620517 47.8252307 244.620517 48.0942049 244.943286 47.9866152 245.535029 47.7714359 246.718515 46.8031289 246.987489 46.0500013 246.072977ZM82.2933729 246.395746C81.7016297 245.804003 81.9706039 245.158465 82.7775264 245.158465 83.207885 245.158465 83.5844489 245.373644 83.5844489 245.642619 83.5844489 246.341951 82.7237315 246.826105 82.2933729 246.395746ZM121.976027 244.889491C121.599464 243.921184 122.137412 243.006672 123.159514 243.006672 123.589872 243.006672 123.912641 243.54462 123.912641 244.351543 123.912641 245.804003 122.460181 246.234362 121.976027 244.889491ZM136.118689 244.245746C135.365561 243.492618 135.742125 241.934361 136.710432 241.934361 138.055303 241.934361 138.378072 242.310925 138.055303 243.602001 137.786329 244.624103 136.818022 244.946872 136.118689 244.247539L136.118689 244.245746ZM56.1598434 243.008465C54.8149726 241.663594 54.7611778 240.212927 56.0522537 239.083235 58.0426625 237.254211 61.5375335 238.437697 61.5375335 240.91226 61.5375335 242.25713 59.6547143 244.084362 58.3116367 244.084362 57.7198935 244.084362 56.7515866 243.600208 56.1616366 243.008465L56.1598434 243.008465ZM47.2872824 242.470517C46.6955393 241.556005 47.5562566 239.782568 48.5783584 239.782568 49.8694344 239.782568 50.889743 241.019849 50.4611775 242.147748 50.0846137 243.116055 47.8270239 243.331234 47.2890756 242.470517L47.2872824 242.470517ZM73.2056326 242.631901C72.5062997 241.932568 72.8290687 239.890158 73.6897861 239.567389 74.7656827 239.13703 76.0549655 240.159132 76.0549655 241.396413 76.0549655 242.633694 74.0645567 243.492618 73.2056326 242.633694L73.2056326 242.631901ZM113.910389 241.717389C113.372441 240.318723 114.125568 239.13703 115.416644 239.35221 116.331156 239.459799 116.653925 239.890158 116.653925 240.858465 116.653925 241.826772 116.331156 242.25713 115.416644 242.36472 114.717311 242.47231 114.071773 242.203336 113.910389 241.719182L113.910389 241.717389ZM118.642541 241.986363C118.212182 241.771184 117.997003 240.964261 118.104593 240.264929 118.319772 238.704878 120.523567 238.435904 121.384284 239.888365 122.406386 241.50221 120.362182 243.114261 118.642541 241.98457L118.642541 241.986363ZM52.1270242 241.39462C51.6966655 240.695287 52.2884087 239.780775 53.2029208 239.780775 53.9560484 239.780775 54.6553813 241.071851 54.1712278 241.609799 53.6332795 242.093953 52.503588 241.986363 52.1270242 241.39462ZM98.9625982 241.50221C98.8012137 241.179441 98.9088034 240.749082 99.2315724 240.587698 100.038495 240.049749 100.576443 240.749082 99.8771104 241.448415 99.5005465 241.824979 99.1777775 241.824979 98.9625982 241.50221ZM63.4185594 240.856672C63.2033801 240.480108 63.2571749 239.995954 63.5799439 239.673185 64.3330716 238.920058 65.9989182 239.565596 65.7299441 240.480108 65.4071751 241.340825 63.9009198 241.609799 63.4185594 240.856672ZM108.31752 240.587698C107.349213 239.404211 107.887161 237.899749 109.339621 237.899749 111.061056 237.899749 111.973775 239.406004 111.061056 240.533903 110.146544 241.609799 109.178237 241.609799 108.319313 240.587698L108.31752 240.587698ZM86.2723973 239.782568C86.2723973 239.513594 86.6489611 239.24462 87.0793198 239.24462 87.5096784 239.24462 87.8862423 239.513594 87.8862423 239.782568 87.8862423 240.105337 87.5096784 240.320517 87.0793198 240.320517 86.6489611 240.320517 86.2723973 240.105337 86.2723973 239.782568ZM91.9172684 239.782568C91.4869097 239.029441 92.0786529 238.168723 93.0469598 238.168723 93.4773185 238.168723 93.8000875 238.652877 93.8000875 239.24462 93.8000875 240.374311 92.5090115 240.750875 91.9172684 239.782568ZM80.0339899 238.975646C79.5498364 237.738365 80.1953744 236.556671 81.3250659 236.556671 82.8313212 236.556671 83.6364505 237.632568 82.9927057 238.814261 82.3471677 239.997748 80.4661417 240.105337 80.0357831 238.975646L80.0339899 238.975646ZM65.9451234 238.383903C63.8489181 236.931442 64.9230216 233.328982 67.3975839 233.328982 68.6886598 233.328982 70.1393271 234.996621 70.1393271 236.447289 70.1393271 237.415596 68.3640977 239.242827 67.4513787 239.242827 67.2899942 239.242827 66.5906614 238.866263 65.9451234 238.382109L65.9451234 238.383903Z"/><polygon fill="#000" fill-rule="nonzero" points="249.737 235.75 249.737 232.255 253.77 232.255 257.803 232.255 257.803 235.75 257.803 239.245 253.77 239.245 249.737 239.245 249.737 235.75"/><path fill="#000" fill-rule="nonzero" d="M48.3093842 237.361801C47.2872824 235.801751 47.7176411 234.135904 49.4390757 233.006213 52.2884087 231.123393 55.6236882 235.371392 53.2029208 237.845954 51.85805 239.190825 49.331486 238.921851 48.3093842 237.361801L48.3093842 237.361801ZM60.5154317 238.007339C59.0629712 236.232109 61.9678921 234.028314 63.5799439 235.695954 64.2792767 236.395287 64.3330716 236.771851 63.9027129 237.524978 63.1495853 238.708465 61.376149 238.977439 60.5154317 238.009132L60.5154317 238.007339ZM133.052383 237.361801C133.052383 236.931442 133.321358 236.554878 133.590332 236.554878 133.913101 236.554878 134.12828 236.931442 134.12828 237.361801 134.12828 237.792159 133.913101 238.168723 133.590332 238.168723 133.321358 238.168723 133.052383 237.792159 133.052383 237.361801ZM121.760848 236.554878C121.760848 235.747956 122.029822 235.478982 122.729155 235.586571 123.213309 235.694161 123.643667 236.12452 123.643667 236.554878 123.643667 236.985237 123.213309 237.415596 122.729155 237.523185 122.029822 237.630775 121.760848 237.361801 121.760848 236.554878ZM126.869564 237.146621C126.493 236.501083 127.515102 235.855545 128.214435 236.285904 128.806178 236.662468 128.429614 237.630775 127.676486 237.630775 127.407512 237.630775 127.084743 237.415596 126.869564 237.146621ZM87.6692698 236.716263C87.5078853 236.501083 87.3465008 235.90934 87.3465008 235.371392 87.3465008 234.080316 89.1217302 234.2417 89.3907044 235.532776 89.5520889 236.447289 88.2610129 237.308006 87.6692698 236.716263L87.6692698 236.716263ZM102.511264 236.608673C102.080905 236.393494 101.865726 235.586571 101.973316 234.887238 102.188495 233.327188 104.39229 233.058214 105.253007 234.510675 106.275109 236.12452 104.230905 237.736571 102.511264 236.60688L102.511264 236.608673ZM56.1598434 235.803544C54.7073829 234.028314 57.1281504 231.932109 58.7402022 233.545954 59.439535 234.245287 59.4933298 234.621851 59.0629712 235.374978 58.2560487 236.612259 57.0187676 236.773644 56.1598434 235.805337L56.1598434 235.803544ZM95.4121393 235.749749C95.4121393 235.265595 95.6811135 234.942826 96.0038824 235.050416 96.3266514 235.158006 96.5956256 235.480775 96.5956256 235.749749 96.5956256 236.018723 96.3266514 236.341492 96.0038824 236.449082 95.6811135 236.556671 95.4121393 236.233902 95.4121393 235.749749ZM133.428947 235.695954C132.56823 234.835237 133.052383 233.330775 134.182075 233.330775 134.988997 233.330775 135.257971 233.599749 135.096587 234.514261 134.935202 235.697747 134.074485 236.28949 133.428947 235.697747L133.428947 235.695954ZM111.599004 233.920725C110.792082 233.382776 111.168646 231.71693 112.083158 231.71693 112.89008 231.71693 113.428029 233.27698 112.836285 233.86693 112.567311 234.135904 112.029363 234.135904 111.599004 233.920725L111.599004 233.920725ZM115.685618 233.275187C114.555927 232.629649 114.502132 230.694828 115.631824 230.264469 116.277362 229.995495 116.115977 229.780316 114.878696 229.242367 113.964184 228.865804 113.103466 228.058881 112.888287 227.467138 112.350339 225.745703 113.749004 223.434319 115.414851 223.219139 118.371774 222.89637 120.362182 227.144369 117.99521 228.596829 116.704134 229.403752 116.596544 230.103085 117.726236 230.103085 118.855927 230.103085 118.748337 232.629649 117.564851 233.275187 116.973108 233.597956 116.273775 233.597956 115.682032 233.275187L115.685618 233.275187ZM129.127154 233.113802C128.85818 232.522059 128.374026 232.360675 127.136745 232.575854 125.253926 233.006213 123.910848 232.0917 123.910848 230.425854 123.910848 227.737905 127.728488 226.877188 128.85818 229.242367 129.180949 230.103085 129.987871 230.641033 130.848588 230.748623 131.924485 230.856212 132.247254 231.178981 132.247254 232.254878 132.247254 233.330775 131.924485 233.653544 130.848588 233.761133 129.934076 233.868723 129.288538 233.599749 129.127154 233.115595L129.127154 233.113802ZM60.730611 232.791033C60.3002523 232.037906 60.8919955 231.177188 61.8603025 231.177188 62.2906611 231.177188 62.6134301 231.661342 62.6134301 232.253085 62.6134301 233.382776 61.3223541 233.75934 60.730611 232.791033ZM71.4304031 232.575854C70.8924548 231.177188 71.6455824 229.995495 72.9366584 230.210674 73.8511706 230.318264 74.1739395 230.748623 74.1739395 231.71693 74.1739395 232.685237 73.8511706 233.115595 72.9366584 233.223185 72.2373256 233.330775 71.5917876 233.061801 71.4304031 232.577647L71.4304031 232.575854ZM79.3884519 232.844828C78.1511708 232.0917 78.8505036 230.372059 80.5181434 230.210674 82.1857832 229.995495 82.9909125 231.286571 81.9706039 232.522059 81.2174762 233.436571 80.4105538 233.544161 79.3902451 232.844828L79.3884519 232.844828ZM120.953926 232.253085C120.523567 231.553752 121.11531 230.63924 122.029822 230.63924 122.78295 230.63924 123.482283 231.930316 122.998129 232.468264 122.460181 232.952418 121.330489 232.844828 120.953926 232.253085ZM53.0415363 231.394161C51.1587172 230.103085 50.6763568 228.222059 51.535281 226.070265 53.471895 221.499498 59.116766 222.30642 59.762304 227.253752 60.0312782 229.136571 59.8698937 229.672726 58.6864074 230.856212 57.0725624 232.470057 54.8687674 232.685237 53.0397431 231.394161L53.0415363 231.394161ZM105.84475 230.910007C105.360597 229.672726 106.006135 228.491033 107.135826 228.491033 108.695877 228.491033 109.716185 229.889699 108.857261 230.910007 108.480697 231.340366 107.72757 231.71693 107.135826 231.71693 106.597878 231.71693 106.006135 231.340366 105.84475 230.910007ZM63.0419956 230.04929C61.8047145 229.349957 61.7509196 226.177855 62.9344059 225.048164 64.1178922 223.810883 66.1603027 223.972267 67.1286097 225.370933 69.3861995 228.543035 66.3216872 231.984111 63.0419956 230.04929L63.0419956 230.04929ZM89.6058837 229.726521C89.7134734 229.188573 90.1438321 228.758214 90.5741907 228.758214 91.0045494 228.758214 91.434908 229.188573 91.5424977 229.726521 91.6500874 230.372059 91.3811132 230.641033 90.5741907 230.641033 89.7672682 230.641033 89.4982941 230.372059 89.6058837 229.726521ZM130.20305 229.242367C129.449923 228.435445 129.880281 227.413343 130.956178 227.413343 131.709306 227.413343 131.97828 227.682317 131.87069 228.327855 131.709306 229.296162 130.794794 229.780316 130.20305 229.242367ZM69.8183513 226.070265C69.0652236 224.940574 69.0114288 224.402626 69.4955823 223.328522 71.0556324 219.941241 75.5188103 220.748163 75.5188103 224.458214 75.5188103 225.74929 75.1960414 226.448622 74.4967085 226.877188 72.6676842 227.845495 70.7866583 227.522726 69.8183513 226.070265L69.8183513 226.070265ZM94.6608048 226.554419C92.8855753 224.832984 93.9076772 222.037446 96.2746498 222.037446 98.4784447 222.037446 99.1777775 222.629189 99.1777775 224.510215 99.1777775 227.144369 96.4360343 228.38165 94.6608048 226.554419ZM101.005009 226.608214C100.46706 225.263343 101.220188 224.18924 102.618854 224.18924 103.963724 224.18924 104.715059 225.265136 104.232699 226.608214 104.017519 227.038572 103.318186 227.415136 102.618854 227.415136 101.865726 227.415136 101.166393 227.038572 101.005009 226.608214ZM124.020231 226.930983C124.127821 226.554419 124.396795 226.285445 124.611974 226.285445 125.257512 226.33924 125.096128 227.092367 124.45059 227.361341 124.074026 227.468931 123.858847 227.253752 124.020231 226.930983L124.020231 226.930983ZM83.8516299 226.12406C81.6478349 225.155753 80.3567589 223.059548 80.3567589 220.369806 80.3567589 218.594577 80.6795279 217.843242 82.1857832 216.336987 84.9813213 213.541449 89.0679354 213.971808 91.112139 217.305294 92.4570098 219.509089 92.4570098 221.284319 91.112139 223.489907 89.4982941 226.177855 86.5413715 227.253752 83.853423 226.12406L83.8516299 226.12406ZM77.8839898 225.586112C77.4536311 224.402626 78.0453743 223.810883 78.8522968 224.617805 79.3364503 225.101959 79.3364503 225.424727 78.8522968 225.908881 78.3681433 226.393034 78.152964 226.285445 77.8839898 225.586112L77.8839898 225.586112ZM108.855468 225.263343C108.855468 224.56401 109.232032 224.187446 109.931364 224.187446 110.630697 224.187446 111.007261 224.56401 111.007261 225.263343 111.007261 225.962676 110.630697 226.33924 109.931364 226.33924 109.232032 226.33924 108.855468 225.962676 108.855468 225.263343ZM119.0729 224.456421C117.835619 223.00396 119.987412 220.584986 121.330489 221.929857 121.707053 222.30642 122.191207 222.30642 122.836745 221.929857 124.665769 220.74637 126.869564 222.844369 125.524693 224.456421 124.663976 225.478522 122.89054 225.478522 122.513976 224.456421 122.245002 223.757088 122.083617 223.757088 121.384284 224.456421 120.415977 225.478522 119.931824 225.478522 119.0729 224.456421L119.0729 224.456421ZM126.923359 224.348831C126.331616 223.757088 126.60059 223.11155 127.407512 223.11155 127.837871 223.11155 128.214435 223.326729 128.214435 223.595703 128.214435 224.295036 127.353717 224.77919 126.923359 224.348831L126.923359 224.348831ZM57.8794849 223.005753C56.3732296 221.499498 57.7181004 219.134318 59.9756902 219.457087 61.5895351 219.672267 62.5022541 221.232317 61.7509196 222.467805 60.997792 223.597496 58.793997 223.920265 57.8794849 223.005753ZM63.7413284 222.951958C62.7730214 221.714677 63.6337388 220.317805 65.2475837 220.532984 66.3234804 220.640574 66.6462494 220.963343 66.6462494 222.039239 66.6462494 223.59929 64.8172251 224.18924 63.7431216 222.953752L63.7413284 222.951958ZM102.403674 222.037446C101.166393 220.800165 101.058804 219.779856 101.919521 218.219806 102.349879 217.359089 102.296085 216.982525 101.596752 216.444577 100.198086 215.47627 100.789829 213.756628 102.565059 213.541449 104.017519 213.380065 104.232699 213.702834 104.071314 215.745244 103.963724 216.390782 104.340288 216.659756 105.2548 216.659756 107.942749 216.659756 109.341415 220.423601 107.351006 222.198831 106.006135 223.436112 103.69475 223.328522 102.403674 222.037446L102.403674 222.037446ZM109.716185 221.768472C109.232032 220.477396 109.931364 219.349498 111.276235 219.349498 112.567311 219.349498 113.533825 220.963343 112.89008 222.037446 112.352132 222.844369 110.094542 222.682984 109.717978 221.768472L109.716185 221.768472ZM67.989327 220.477396C67.989327 219.778063 67.6127632 219.509089 66.6444562 219.509089 64.7078422 219.509089 63.6875336 218.379398 63.6875336 216.444577 63.6875336 214.294577 64.5482509 213.433859 66.6444562 213.433859 67.5589683 213.433859 68.5810702 213.702834 68.9558408 214.079397 69.7627633 214.88632 69.8165581 218.112217 69.0096357 218.59637 68.579277 218.865344 68.6868667 219.134318 69.2786098 219.457087 70.515891 220.15642 70.3545065 221.501291 69.0634305 221.501291 68.3640977 221.501291 67.9875338 221.124727 67.9875338 220.479189L67.989327 220.477396ZM75.248043 220.800165C74.1721464 219.939448 74.4411205 218.434986 75.8397862 217.897037 77.0770673 217.412884 78.5815295 219.134318 77.8839898 220.262217 77.1308622 221.499498 76.4315293 221.660882 75.2498362 220.800165L75.248043 220.800165ZM96.7570101 220.423601C96.2728566 218.917346 97.0797791 218.112217 98.6936241 218.379398 99.661931 218.486987 99.9847 218.863551 99.9847 219.885653 99.9847 221.714677 97.2967516 222.143243 96.7588033 220.423601L96.7570101 220.423601ZM92.993165 220.423601C92.5628063 219.724268 93.1545495 218.809756 94.0690616 218.809756 94.8221893 218.809756 95.5215221 220.100832 95.0373686 220.638781 94.4994203 221.122934 93.3697288 221.015344 92.993165 220.423601ZM116.114184 219.885653C115.899005 219.509089 115.952799 219.024936 116.275568 218.702167 117.028696 217.949039 118.694543 218.594577 118.425569 219.509089 118.1028 220.369806 116.596544 220.638781 116.114184 219.885653ZM123.643667 219.885653C123.213309 219.132525 123.805052 218.271808 124.773359 218.271808 125.203717 218.271808 125.526486 218.755961 125.526486 219.347705 125.526486 220.477396 124.23541 220.85396 123.643667 219.885653ZM119.610848 218.811549C119.610848 218.004627 119.879822 217.735653 120.579155 217.843242 121.063308 217.950832 121.493667 218.381191 121.493667 218.811549 121.493667 219.241908 121.063308 219.672267 120.579155 219.779856 119.879822 219.887446 119.610848 219.618472 119.610848 218.811549ZM60.9995851 218.004627C60.4616368 217.359089 60.5154317 217.14391 61.2685593 216.874936 62.5058404 216.390782 63.4185594 217.412884 62.4520456 218.219806 61.8603025 218.70396 61.5375335 218.650165 60.9995851 218.004627ZM111.704801 218.434986C111.328237 218.327396 111.005468 217.466679 111.005468 216.605961 111.005468 215.314885 111.220647 215.045911 112.350339 215.045911 113.910389 215.045911 114.661723 216.390782 113.856594 217.62627 113.264851 218.594577 112.619313 218.809756 111.706594 218.433192L111.704801 218.434986ZM92.1862425 216.390782C91.1103459 215.045911 91.7558839 213.702834 93.5311133 213.702834 94.6608048 213.702834 95.1987531 213.971808 95.3063428 214.671141 95.5215221 215.800832 94.5532151 217.197704 93.5311133 217.197704 93.1545495 217.197704 92.5628063 216.821141 92.1862425 216.390782ZM71.8069669 215.262884C69.5493771 212.413551 71.0538393 208.972475 74.5487102 208.972475 77.8821966 208.972475 79.3346571 212.897704 76.8600948 215.316679 75.1386602 217.091908 73.2038394 217.038113 71.8051738 215.262884L71.8069669 215.262884ZM116.383158 215.58386C116.383158 214.884527 116.759722 214.507963 117.459055 214.507963 118.158388 214.507963 118.534951 214.884527 118.534951 215.58386 118.534951 216.283192 118.158388 216.659756 117.459055 216.659756 116.759722 216.659756 116.383158 216.283192 116.383158 215.58386ZM119.987412 215.960423C119.826027 215.530065 119.879822 214.884527 120.148796 214.507963 120.740539 213.539656 122.406386 214.292784 122.193 215.422475 121.977821 216.605961 120.363976 216.982525 119.989205 215.960423L119.987412 215.960423ZM79.3346571 215.370473C78.5815295 214.455961 78.9580933 213.433859 80.0877848 213.433859 81.2712711 213.433859 81.6478349 214.509756 80.7871176 215.370473 80.0877848 216.069806 79.9264003 216.069806 79.3346571 215.370473ZM96.0576773 214.402166C94.6052168 212.949706 95.8962928 209.670014 97.8867016 209.670014 98.8550086 209.670014 100.789829 211.606628 100.789829 212.519347 100.789829 214.455961 97.4025481 215.745244 96.0576773 214.402166ZM106.813057 213.595244C106.920647 213.057296 107.458595 212.626937 108.050339 212.626937 108.642082 212.626937 109.18003 213.057296 109.28762 213.595244 109.449004 214.294577 109.126235 214.509756 108.050339 214.509756 106.974442 214.509756 106.651673 214.294577 106.813057 213.595244ZM110.576902 212.519347C110.684492 211.981399 111.114851 211.55104 111.545209 211.55104 111.975568 211.55104 112.405927 211.981399 112.513516 212.519347 112.621106 213.164885 112.352132 213.433859 111.545209 213.433859 110.738287 213.433859 110.469313 213.164885 110.576902 212.519347ZM114.340748 212.519347C114.609722 211.120682 116.384951 210.959297 116.384951 212.304168 116.384951 213.11109 116.062182 213.433859 115.25526 213.433859 114.502132 213.433859 114.233158 213.164885 114.340748 212.519347L114.340748 212.519347ZM84.2281937 212.250373C83.2060919 211.228271 83.475066 209.777604 84.766142 209.347245 86.2723973 208.863092 87.5616801 210.423142 86.7565508 211.873809 86.1648076 213.057296 85.1427058 213.164885 84.2299868 212.250373L84.2281937 212.250373ZM90.3590114 211.497245C89.3369096 210.528938 89.2293199 208.002375 90.1438321 207.087862 91.2197287 206.011966 94.2304461 206.28094 94.8759841 207.464426 96.5974188 210.744118 92.8855753 214.077604 90.3590114 211.497245L90.3590114 211.497245ZM101.919521 210.799706C101.112598 209.347245 102.511264 207.573809 103.856135 208.380731 105.093416 209.133859 105.416185 210.745911 104.447878 211.337654 103.318186 212.090782 102.457469 211.875602 101.921314 210.799706L101.919521 210.799706ZM78.5815295 210.369347C77.774607 209.616219 78.2587605 207.627604 79.2808623 207.35863 80.8409124 206.982066 82.1301952 208.380731 81.4308624 209.723809 80.8929141 210.745911 79.2808623 211.122475 78.5815295 210.369347L78.5815295 210.369347ZM106.974442 209.132066C106.759263 208.755502 106.813057 208.271349 107.135826 207.94858 107.888954 207.195452 109.554801 207.84099 109.285827 208.755502 108.963058 209.616219 107.456802 209.885194 106.974442 209.132066ZM84.6585523 207.787195C83.797835 206.711299 84.1743988 205.153042 85.41168 204.937862 86.8641405 204.615093 87.9920388 206.282733 87.2944991 207.572016 86.6489611 208.809297 85.5730645 208.863092 84.6603455 207.787195L84.6585523 207.787195ZM96.7032153 207.249247C96.1652669 205.904376 96.9183946 204.830273 98.3170602 204.830273 99.9309052 204.830273 100.46706 205.529605 99.9847 206.980273 99.5543414 208.271349 97.1353671 208.486528 96.7050084 207.249247L96.7032153 207.249247Z"/></g></svg>