<svg xmlns="http://www.w3.org/2000/svg" width="500" height="500" viewBox="0 0 500 500"><path fill-rule="evenodd" d="M341.123711,202.091074 C340.689535,201.21393 340.434864,200.151318 340.428133,199.172902 C340.374282,190.86733 340.39672,182.560629 340.39672,174.255058 L340.39672,172.081525 L338.266232,172.081525 C332.092419,172.081525 325.919727,172.024427 319.748158,172.117608 C318.002482,172.144239 316.694348,171.632379 315.352556,170.529548 C298.281732,156.492059 278.69673,148.573685 256.671598,147.217956 C231.113491,145.644398 207.937403,152.583907 187.623054,168.273615 C183.97733,171.089619 180.527488,172.440297 175.993668,172.159307 C170.63424,171.827281 165.239812,172.081525 159.607315,172.081525 L159.607315,174.335082 C159.607315,182.641218 159.631659,190.947355 159.575115,199.253042 C159.568608,200.228984 159.284767,201.284618 158.849135,202.16457 C143.102826,234.015078 143.034614,265.863111 158.739301,297.751264 C159.249316,298.785317 159.567598,300.0318 159.571414,301.182742 C159.623695,317.733198 159.607315,334.283654 159.607315,350.835239 L159.607315,353 L340.39672,353 L340.39672,350.758803 C340.39672,334.146531 340.3855,317.534258 340.427011,300.923099 C340.430377,299.945247 340.698511,298.885344 341.133808,298.007518 C356.95708,266.027213 356.95708,234.068472 341.123711,202.091074 Z M164.69468,348.174799 L164.69468,307.782683 C178.128081,327.082375 195.671786,340.404794 217.427326,348.174799 L164.69468,348.174799 Z M247.373069,348.156824 C230.26511,347.635295 214.472468,343.052874 199.67551,334.256674 C215.555549,312.940591 231.33933,291.754886 247.373069,270.233102 L247.373069,348.156824 Z M335.301052,348.139961 L282.516798,348.139961 C304.32877,340.392434 321.852841,327.093622 335.301052,307.779327 L335.301052,348.139961 Z M252.623784,348.062412 L252.623784,270.256709 C268.599634,291.779606 284.353348,313.00465 300.107062,334.229711 C289.841682,341.734458 265.919417,348.704186 252.623784,348.062412 Z M273.892756,226.766818 C273.908463,227.112782 273.915195,227.460756 273.915195,227.810541 C273.915195,240.235132 264.543968,250.483831 252.500375,251.842701 C252.505985,255.803582 252.512717,259.183345 252.521691,260.808618 C252.526179,261.567296 252.956988,262.431632 253.428186,263.06892 C270.044641,285.50448 286.690265,307.918693 303.333646,330.332906 C303.648899,330.758894 303.996687,331.160145 304.372524,331.627715 C304.756213,331.384934 305.065858,331.206229 305.357552,331.002788 C317.553722,322.574131 327.374831,311.93576 334.80405,299.097773 C335.255054,298.317747 335.421096,297.267944 335.423339,296.344051 C335.455874,273.791586 335.450184,251.238007 335.450184,228.685094 L335.450184,226.686345 L273.892756,226.766818 Z M225.656011,226.768845 L164.643297,226.751867 C164.610089,227.364434 164.561959,227.839314 164.561959,228.314642 C164.559085,251.112131 164.550741,273.910734 164.588549,296.709336 C164.590456,297.563554 164.838732,298.545909 165.302863,299.248385 C168.005743,303.336273 170.61831,307.505065 173.613781,311.372649 C179.736549,319.278663 187.087347,325.912328 195.491273,331.580502 C195.820886,331.17812 196.020472,330.951088 196.199977,330.71055 C213.062576,308.07605 229.929438,285.444906 246.759279,262.784557 C247.21836,262.166374 247.48627,261.249209 247.489971,260.469167 C247.496703,258.919216 247.503884,255.694552 247.510503,251.891027 C235.246906,250.745717 225.633909,240.393951 225.633909,227.810541 C225.633909,227.462101 225.641315,227.115357 225.656011,226.768845 Z M159.503539,287.020723 C154.539918,274.702006 152.061867,262.383289 152.063771,250.064588 C152.065793,237.746552 154.547547,225.427719 159.503539,213.108337 L159.503539,287.020723 Z M340.488715,287.011719 L340.488715,213.15565 C350.419771,237.750938 350.426502,262.383289 340.488715,287.011719 Z M231.772158,218.192733 C230.241439,221.060867 229.373649,224.335005 229.373649,227.810541 C229.373649,238.326176 237.317484,246.99783 247.516785,248.125397 C247.52778,241.041472 247.536531,233.249323 247.538101,230.546287 L250.000784,232.475245 L252.47906,230.532797 L252.47906,230.520986 L250.000784,232.475245 L231.772158,218.192733 Z M267.908545,218.442591 L252.47906,230.532797 C252.481304,233.279658 252.486913,240.988743 252.494765,248.06898 C262.470698,246.735047 270.175903,238.167141 270.175903,227.810541 C270.175903,224.435363 269.356916,221.250155 267.908545,218.442591 Z M270.898407,216.100005 C271.843046,217.805752 272.587988,219.638039 273.100696,221.564521 L335.449143,221.630839 C335.449143,215.532292 335.489531,209.603346 335.410999,203.676311 C335.397536,202.6498 335.082281,201.516384 334.569573,200.625634 C330.290648,193.183601 325.04689,186.474862 318.968438,180.420472 C318.597089,180.050469 318.180865,179.724524 317.774736,179.367662 L270.898407,216.100005 Z M228.789028,215.855214 L182.160301,179.319435 C176.617668,184.677063 171.977715,190.531035 167.722013,196.744228 C165.446802,200.06646 164.206653,203.419259 164.485783,207.534791 C164.800812,212.164657 164.558705,216.832833 164.558705,221.564305 L226.463218,221.507987 C227.000944,219.509455 227.788293,217.613092 228.789028,215.855214 Z M268.33711,212.35426 L312.530978,177.058801 L252.60359,177.058801 L252.453256,203.772416 C258.820036,204.477485 264.44524,207.668657 268.33711,212.35426 Z M247.2583,203.755106 L247.435223,177.051375 L187.455217,177.051375 L231.392732,212.139356 C235.310405,207.532315 240.921698,204.413974 247.2583,203.755106 Z M335.343685,177.119272 L335.343685,191.931287 C331.236409,186.960523 327.18523,182.058222 323.104881,177.119272 L335.343685,177.119272 Z M164.750327,177.055545 L176.944028,177.055545 C172.837315,182.026292 168.807003,186.905335 164.750327,191.816525 L164.750327,177.055545 Z M238.418965,152.530962 C264.414949,149.825567 287.83909,156.211517 308.857879,171.569216 C308.804028,171.720494 308.750177,171.871671 308.695203,172.023413 L191.258458,172.023413 C195.675489,165.287579 223.283081,154.105981 238.418965,152.530962 Z M265.412318,214.689869 C261.668539,210.217044 256.051188,207.371602 249.775281,207.371602 C243.598775,207.371602 238.060069,210.126902 234.318309,214.475761 L250.000784,226.99915 L265.412318,214.689869 Z"/></svg>