<svg xmlns="http://www.w3.org/2000/svg" width="500" height="500" viewBox="0 0 500 500"><path fill="#060606" d="M32.5960256,0 L34.5553495,1.42496287 C35.6686018,2.22650448 37.1380947,3.87411779 37.8505762,5.16549039 C39.0596356,7.19498296 39.1800181,7.75894898 39.1862038,11.4049617 L39.1864788,11.7559437 C39.1864788,15.407411 39.0528886,16.3425429 38.2068169,17.8120358 C37.6279257,18.7471677 37.3162151,19.6377695 37.4943354,19.8158899 C37.6279257,19.9494801 38.9638284,19.7713598 40.4333213,19.4151191 C41.9028143,19.0143483 43.728548,18.7026376 44.4410294,18.7026376 C46.4448834,18.7026376 50.7643021,19.90495 51.6549039,20.7064917 C52.1002048,21.1072625 53.4806376,21.5970935 54.8165403,21.7752138 C58.2692715,22.3433848 58.7621719,23.0831401 58.7792434,28.2467542 L58.7797183,32.9522663 L60.2046811,31.7499539 C60.8948975,31.1710627 61.651909,30.4975451 62.3991796,29.8066329 L62.8053557,29.4285109 C64.8941872,27.4707641 66.7951344,25.486392 66.7951344,25.2040307 C66.7951344,25.0047084 67.4454434,24.2621401 68.3839781,23.312377 L68.7070013,22.9885765 C69.2060586,22.4927477 69.7671145,21.954455 70.3449085,21.4157048 L70.7942973,20.9996996 C72.6741931,19.2719608 74.6067397,17.6518988 75.077731,17.5448553 C75.6120921,17.411265 77.6604762,17.3667349 79.6198002,17.4557951 L83.1822074,17.5893854 L84.1173392,15.8081818 C84.6517003,14.8285198 85.2751216,12.8246658 85.497772,11.3997029 C85.7204225,9.97474007 86.1211933,8.5497772 86.3883738,8.23806657 C86.6110242,7.97088604 87.0563251,6.63498335 87.2789756,5.29908066 C87.9023968,2.09291421 89.46095,0.445300896 91.954635,0.445300896 C93.468658,0.445300896 94.0475492,0.712481433 95.3834519,2.1374443 C97.5208962,4.31941869 97.9661971,5.34361075 97.9661971,7.74823559 C97.9661971,10.1973905 96.8084148,14.7839897 95.6951625,16.876904 C95.2053315,17.7675057 94.8490908,18.7916978 94.8490908,19.1479385 C94.8490908,19.5041792 94.3147297,20.8400819 93.7358386,22.0423943 C93.1124173,23.2892369 92.6225863,24.4915493 92.6225863,24.8032599 C92.6225863,25.0704404 92.0882253,26.3172829 91.464804,27.5195954 C90.0843712,30.1914007 90.1734314,31.3937132 91.6874545,29.7906299 C93.0678872,28.321137 95.7396926,24.3134289 95.7396926,23.6454776 C95.7396926,23.378297 95.9623431,23.1556466 96.1849935,23.1556466 C96.452174,23.1556466 96.6302944,22.843936 96.6302944,22.4431652 C96.6302944,21.1517926 99.6583405,17.901096 101.083303,17.5893854 C102.382098,17.2863334 102.418175,17.2779153 102.419177,14.3313426 L102.419206,14.0715083 C102.419206,9.70755953 102.975173,8.93601339 106.350321,8.90689712 L106.560504,8.90601792 C110.746333,8.90601792 111.102574,9.08413828 112.438476,12.1121844 C114.53139,16.6987836 113.150958,20.4838412 109.45496,20.4838412 C107.807347,20.4838412 107.718287,20.5729014 108.074527,21.4635032 C108.742479,23.378297 108.386238,27.8758361 107.451106,29.2562689 C105.758963,31.7054238 105.714433,31.8835441 107.094865,30.9929424 C108.653419,29.9687503 111.770525,27.0742945 111.770525,26.6289936 C111.770525,26.4508732 112.616597,25.0704404 113.640789,23.5564174 C114.887631,21.7306837 116.401654,20.2611908 118.182858,19.1034084 C120.717647,17.4557951 120.847637,17.3713021 124.732814,17.3669692 L129.894271,17.3667349 L131.630945,19.2815288 C132.610607,20.3057209 133.857449,22.1759846 134.480871,23.378297 C135.861303,26.1391626 136.039424,26.2727529 138.354988,26.2727529 C140.804143,26.2727529 141.605685,27.3860051 141.605685,30.6812317 C141.605685,32.4179052 141.383034,33.2194468 140.848673,33.6647477 C140.180722,34.1545787 145.925104,34.2436389 175.448553,34.288169 L181.269819,34.2888134 C181.574145,34.2888941 181.875358,34.2889838 182.173492,34.2890832 L183.925605,34.2898029 C208.357052,34.3018903 210.794631,34.3962202 212.041013,35.0449495 L212.155006,35.1074065 C212.167426,35.1145298 212.179786,35.1217149 212.192111,35.1289623 L212.274937,35.1787708 C213.735524,36.0693726 214.141638,36.9314751 214.154463,41.3901839 L214.154066,41.9665171 C214.150149,42.959167 214.130357,44.1144754 214.100671,45.4652215 C213.96708,51.699434 213.92255,52.0111446 212.720238,53.8368783 C212.052287,54.8610704 210.983564,55.8852624 210.360143,56.1079129 C209.736722,56.3750934 204.526701,56.5532138 198.78232,56.5532138 L197.161909,56.5538102 C189.888913,56.5601768 188.532809,56.6268794 187.771697,57.1806742 L187.693548,57.2407859 C187.617137,57.3027335 187.545249,57.3702441 187.471677,57.4438156 C187.448072,57.467421 187.42509,57.4908531 187.402716,57.5146041 L187.358773,57.5626772 L187.358773,57.5626772 L187.316421,57.612476 C187.28871,57.6464448 187.26204,57.6821474 187.236372,57.7207507 L187.198617,57.7809769 C186.661922,58.6900304 186.590035,61.2472433 186.58199,77.4580519 L186.581075,81.9798949 C186.581075,82.3545619 186.581005,82.7246399 186.580862,83.0901496 L186.58022,84.1729942 C186.569772,97.1596273 186.462709,104.107685 186.206683,106.011816 L186.185001,106.158839 C186.15563,106.339359 186.124402,106.457949 186.091244,106.515974 C185.824064,107.005805 185.067052,107.985467 184.443631,108.697949 L183.330379,109.989321 L174.000581,109.989052 C165.275411,109.982184 164.921891,109.82249 164.316031,107.139396 C164.09338,106.204264 163.91526,94.6709705 163.8262,81.534594 C163.78167,67.0177848 163.559019,57.4438156 163.291839,57.0875749 C162.990694,56.7003895 160.237376,56.5625778 152.261301,56.5536795 L150.553146,56.553108 C150.415214,56.5530702 150.279062,56.5530209 150.144664,56.5529583 L149.359108,56.5524066 C142.092226,56.5453457 140.351559,56.4821924 139.259916,56.0016732 L139.147193,55.9495351 C139.091819,55.9226797 139.037769,55.8946331 138.984332,55.8653425 L138.878063,55.8050871 L138.772165,55.741421 C138.701409,55.6978192 138.630056,55.6518812 138.556422,55.603482 L138.444049,55.5290217 L136.930025,54.5048297 L136.930025,35.6686018 L135.594123,35.9357823 C133.679329,36.2474929 132.254366,37.3607452 130.606753,39.76537 L129.18179,41.8582842 L130.295042,44.4410294 C130.918463,45.8214622 131.809065,47.6917259 132.298896,48.5823277 C132.744197,49.4729295 133.144968,50.719772 133.144968,51.3431933 C133.144968,51.9220845 133.590269,52.9908066 134.0801,53.658758 C134.614461,54.3267093 135.237882,55.7516722 135.416002,56.8649244 C135.638653,57.9336466 136.217544,59.3586094 136.707375,59.9820307 C137.197206,60.6054519 137.597977,61.5405838 137.597977,62.0749449 C137.597977,62.5647759 137.998748,63.6780281 138.488579,64.4795697 C138.97841,65.2811113 139.37918,66.1717131 139.37918,66.5279538 C139.37918,66.8396645 139.869011,68.0419769 140.447903,69.1997592 C141.026794,70.4020716 141.650215,71.8715646 141.828335,72.4949858 C141.961926,73.1184071 142.496287,74.1425992 142.986118,74.7214903 C143.431419,75.3449116 143.832189,76.3245736 143.832189,76.9034647 C143.832189,77.526886 144.32202,78.9518488 144.900912,80.1096312 C146.860235,83.8501587 148.285198,87.0563251 148.285198,87.6797464 C148.285198,87.991457 148.685969,89.0156491 149.1758,89.9062509 C149.665631,90.7968527 150.378113,92.3999359 150.778883,93.5131881 C151.179654,94.6264404 151.847605,96.5412342 152.292906,97.7435466 C152.738207,98.9903892 153.406159,100.593472 153.806929,101.305954 C154.2077,102.062965 154.519411,103.666049 154.519411,104.912891 C154.519411,106.872215 154.341291,107.317516 153.049918,108.564358 L151.580425,109.989321 L133.100438,109.989321 L131.586415,108.341708 C130.740343,107.451106 129.938801,106.159734 129.805211,105.536312 C129.627091,104.912891 129.27085,104.111349 128.959139,103.755109 C128.602899,103.398868 128.157598,102.508266 127.934947,101.751255 C127.249522,99.566462 126.399248,99.3186461 116.384199,99.3029752 L104.912891,99.3020998 L103.265278,101.038773 C102.330146,102.107495 101.439544,103.621518 101.172364,104.779301 C100.816123,106.159734 100.103641,107.228456 98.8567989,108.386238 L97.0755953,109.989321 L86.5478888,109.989898 C85.4774582,109.991525 84.5239848,109.99612 83.6747605,109.997437 L82.8598152,109.997429 C77.3050636,109.98631 76.8077635,109.704105 76.7981764,106.904671 L76.798567,106.634781 C76.8013913,106.126211 76.8144045,105.541206 76.8144045,104.868361 C76.8144045,102.107495 76.9925249,100.949713 77.6159462,100.014581 C78.061247,99.3466299 78.7291984,97.7880767 79.0854391,96.5857643 C79.4416798,95.3389218 80.0651011,94.2256696 80.4213418,94.0920793 C80.7330524,93.958489 81.0447631,93.3350678 81.0447631,92.7561766 C81.0447631,92.1327554 81.4455339,90.7968527 81.8908348,89.7726606 C84.1173392,85.007941 85.007941,82.9595569 85.2751216,81.9353648 C85.4532419,81.3119436 85.9430729,80.1986913 86.3438437,79.4862099 C86.7891446,78.7291984 87.2789756,77.2597054 87.457096,76.1909833 C87.6352163,75.1222611 88.1695774,73.6972983 88.6148783,73.0293469 C89.1047093,72.3168655 89.5054801,71.3372035 89.5054801,70.8028424 C89.5054801,70.0013008 91.2421536,65.7709423 92.7116465,63.0546069 C92.934297,62.609306 93.5131881,61.1843431 93.958489,59.9375006 C95.8287528,54.7720102 96.4967041,53.168927 97.1646555,52.1002048 C97.5654263,51.4767836 98.0107272,50.2744711 98.1888475,49.4283994 C98.3669679,48.5823277 98.901329,47.2464251 99.3466299,46.4894135 C100.237232,45.0199206 99.8809909,44.0847887 98.411498,44.0847887 C98.0107272,44.0847887 96.8974749,43.5058975 95.917813,42.748886 C94.9826811,42.0364046 93.958489,41.4129833 93.6913085,41.4129833 C93.424128,41.4129833 92.3108757,42.0364046 91.1976235,42.748886 C88.7929986,44.3519692 85.0524711,44.8863303 81.534594,44.1293188 C79.6198002,43.728548 78.7737285,43.7730781 76.7253444,44.3519692 C73.1629372,45.3761613 70.7583124,44.8863303 65.9045326,42.0809347 C65.2811113,41.7246939 64.7467503,41.6356338 64.6576901,41.8582842 C64.5686299,42.1254648 64.2123892,42.3035851 63.8561485,42.3035851 C63.4999078,42.3035851 63.2327272,42.5262356 63.2327272,42.748886 C63.2327272,43.0160665 62.6983661,43.4613674 62.0304148,43.728548 C61.3179334,44.0402586 60.2046811,44.6636799 59.4921997,45.1535108 C58.4680076,45.8659923 57.2211651,46.0886427 53.4806376,46.222233 C47.736256,46.4448834 45.3316312,45.9105224 44.5746197,44.218379 C44.0847887,43.1941869 43.9511984,43.1051267 43.3723073,43.728548 C42.8379462,44.2629091 42.6152957,47.2464251 42.259055,60.160151 C41.9918745,68.7989884 41.8582842,78.1948373 41.9473444,80.9557029 C42.0987467,87.1631974 41.1884403,87.7082457 51.7687173,87.7320915 L53.3400504,87.7325311 C54.5777665,87.7310675 55.9509267,87.7264731 57.4744313,87.7248507 L60.3314487,87.7248579 C74.3090348,87.7353912 74.7125843,87.9166465 75.567562,90.3960819 C76.1464532,92.1327554 76.2355134,99.39116 75.7456824,104.823831 C75.3391227,109.517748 77.0799375,109.978269 60.3441284,109.999192 L57.1139224,109.999017 C54.8203378,109.996815 52.2405138,109.99155 49.338381,109.989856 L21.7752138,109.989321 L20.7510217,108.876069 C20.0830704,108.163588 19.5932394,106.961275 19.4151191,105.625373 C19.2511352,104.252008 19.341912,100.236682 19.5484618,96.1680373 L19.5928026,95.3263371 C19.8376108,90.8422691 20.2117129,86.5106548 20.5283713,85.8094826 C20.9736722,84.8743508 20.9291421,84.1618693 20.3502509,82.2916056 C19.7713598,80.3322816 19.5932394,76.7253444 19.5041792,61.0062227 C19.3584055,45.772871 19.331933,42.7678919 18.7901271,41.3489506 L18.7523798,41.2545374 C18.745953,41.2391698 18.7394578,41.2239759 18.7328932,41.2089398 L18.6926664,41.1204942 C18.6858208,41.1060275 18.678904,41.0916876 18.671915,41.0774588 L18.6291081,40.9932942 C18.6145457,40.9656004 18.5996873,40.9382262 18.5845254,40.9110466 L18.538122,40.8299664 L18.538122,40.8299664 L18.4861435,40.7432285 C18.441914,40.6708894 18.39538,40.5980827 18.3463969,40.5223815 C17.8120358,39.6763098 17.3667349,38.4739974 17.3667349,37.8060461 C17.3667349,37.1826248 16.876904,35.7131318 16.2980128,34.4662893 C15.7191216,33.2639769 15.1402305,31.9280742 15.0066402,31.4827733 C14.5168092,30.1468707 13.8043278,30.6367016 13.8043278,32.284315 C13.8043278,33.1749167 13.403557,34.6889398 12.8691959,35.6686018 C12.3793649,36.6482637 11.8450038,38.5185275 11.7114136,39.76537 C11.5778233,41.1012727 10.954402,42.8824763 10.2864507,43.9511984 L9.12866837,45.8214622 L5.967032,45.8659923 C3.02804609,45.8659923 2.76086555,45.7769321 1.42496287,44.3964993 L0,42.9270064 L0,37.8505762 C0,33.5311575 0.133590269,32.5069654 0.890601792,31.2601229 C1.38043278,30.4585813 1.91479385,28.6773777 2.04838412,27.2524148 C2.22650448,25.8719821 2.71633546,24.0462484 3.20616645,23.2001767 C3.65146735,22.3986351 4.14129833,20.7955518 4.31941869,19.6377695 C4.45300896,18.5245173 4.94283994,17.0104942 5.34361075,16.2534827 C5.78891165,15.5410013 6.27874263,13.937918 6.45686299,12.6910755 C6.63498335,11.4887631 7.16934442,9.8411498 7.61464532,9.08413828 C8.10447631,8.32712675 8.46071702,7.2584046 8.46071702,6.72404353 C8.46071702,4.49753905 10.5981613,2.22650448 12.6910755,2.22650448 C13.0473162,2.22650448 14.2496287,1.73667349 15.407411,1.11325224 C15.7167258,0.948284368 15.9889049,0.807719907 16.2544112,0.687955726 L16.4527658,0.601976344 C17.7401259,0.0677288192 19.0498948,0.00640530302 23.911417,0.000556442111 L32.5960256,0 Z M362.118689,34.288169 L363.588181,35.7576619 C364.523313,36.6927938 365.191265,37.8951062 365.369385,39.0083585 C365.547505,39.9434904 366.081867,41.3684532 366.527167,42.1254648 C367.016998,42.8824763 367.373239,43.8176082 367.373239,44.1738489 C367.373239,44.5300896 367.86307,45.7769321 368.486491,46.9347144 C369.073241,48.0243919 369.541654,49.2324054 369.594731,49.7048794 L369.599744,49.7846402 C369.599744,50.185411 370.089575,51.4767836 370.712996,52.6345659 C371.336417,53.7923482 371.826248,54.9501306 371.826248,55.2618412 C371.826248,55.7962023 373.473861,59.8484404 375.210535,63.4553777 C375.789426,64.7022202 376.279257,65.9045326 376.279257,66.1717131 C376.279257,66.6615441 377.74875,70.2684814 379.396363,73.6972983 C379.886194,74.6769602 380.376025,76.1909833 380.509616,77.0815851 C380.643206,77.9721869 381.133037,79.040909 381.578338,79.4416798 C382.068169,79.8869807 382.558,80.8666427 382.69159,81.7127144 C382.86971,82.514256 383.270481,83.4048578 383.626722,83.7165684 C383.982963,84.0282791 384.383733,84.9634109 384.561854,85.8985428 C384.739974,86.7891446 385.318865,88.3031677 385.897756,89.3273597 C386.476648,90.3070217 386.966479,91.5538642 386.966479,92.0436952 C386.966479,92.5335262 387.367249,93.468658 387.85708,94.0920793 C388.346911,94.7155006 388.747682,95.5170422 388.747682,95.8732829 C388.747682,96.2295236 389.237513,97.431836 389.860934,98.5896183 C390.796066,100.326292 390.974187,101.305954 390.974187,104.24494 C390.974187,107.451106 390.840596,107.896407 389.860934,108.876069 L389.770437,108.970095 C389.755716,108.985307 389.741155,109.000292 389.726722,109.015054 L389.641389,109.100967 C389.522712,109.21818 389.408491,109.319928 389.279217,109.408251 L389.179135,109.472008 C388.420031,109.921565 387.058068,109.980447 381.847567,109.988159 L381.152772,109.988898 L380.9722,109.989012 L380.9722,109.989012 L369.644274,109.989321 L368.04119,107.940937 C367.195119,106.783155 366.482637,105.447252 366.482637,104.912891 C366.482637,103.755109 364.033482,100.059111 363.00929,99.6583405 C362.60852,99.4802201 357.621149,99.3466299 351.965828,99.3466299 C350.97315,99.3418343 350.073947,99.3385881 349.258656,99.337503 L347.941425,99.337874 C342.59995,99.3495881 341.545771,99.4985234 340.913677,100.031874 L340.833306,100.103641 L340.833306,100.103641 C339.764584,101.038773 337.538079,105.180072 337.538079,106.159734 C337.538079,106.605034 336.781068,107.629227 335.890466,108.430768 L334.198322,109.989321 L324.802473,109.989321 C317.588599,109.989321 315.273034,109.855731 314.605083,109.3659 C313.31371,108.430768 313.13559,103.888699 314.293372,101.439544 C314.827733,100.370822 315.362094,98.9458591 315.540215,98.1888475 C315.718335,97.4763661 316.608937,95.2498616 317.544069,93.2460076 C318.434671,91.2421536 319.325272,88.971119 319.503393,88.1250473 C319.681513,87.2789756 320.215874,86.1657234 320.616645,85.5868322 C321.061946,85.0524711 321.596307,83.7165684 321.729897,82.6923764 C321.908018,81.6681843 322.397849,80.3322816 322.84315,79.7088604 C323.28845,79.0854391 323.778281,77.8831267 323.956402,77.037055 C324.134522,76.1909833 324.668883,74.7660204 325.114184,73.9199487 C325.604015,73.073877 325.960256,72.094215 325.960256,71.6934442 C325.960256,71.3372035 326.494617,69.9122407 327.118038,68.576338 C329.567193,63.3663175 330.324205,61.629644 330.635915,60.3382714 C330.769505,59.62579 331.170276,58.6906581 331.481987,58.3344174 C331.793698,57.9781766 332.283529,56.7758642 332.595239,55.7071421 C332.90695,54.5938898 333.441311,53.3025172 333.753021,52.8126863 C334.064732,52.2783252 334.420973,51.209603 334.599093,50.4080614 C334.732683,49.5619897 335.267045,48.3596773 335.756875,47.6471959 C336.246706,46.9792445 336.647477,46.0441126 336.647477,45.5542816 C336.647477,45.1089808 337.137308,43.8621382 337.716199,42.748886 C338.295091,41.6356338 338.873982,40.0325505 339.052102,39.1864788 C339.230222,38.0286965 339.898174,37.1380947 341.278607,35.9357823 L343.282461,34.288169 L362.118689,34.288169 Z M228.386058,34.2889359 C234.234772,34.2975219 235.692931,34.3845375 236.54913,34.8617025 L236.653294,34.9234028 L236.703539,34.9558192 L236.703539,34.9558192 L236.80138,35.0238691 C236.849624,35.0589834 236.897058,35.0957486 236.944607,35.1342407 L238.013329,35.9803124 L238.102389,71.2036133 L238.191449,106.471444 L236.632896,108.208118 L235.029813,109.989321 L226.925337,109.989321 C222.516858,109.989321 218.64274,109.811201 218.420089,109.633081 C218.152909,109.45496 217.395897,108.386238 216.727946,107.228456 L215.525634,105.135542 L215.525896,83.471586 C215.525944,83.298552 215.525999,83.1272305 215.526062,82.9576031 L215.526876,81.4762048 C215.53658,68.5352656 215.615353,66.3679261 216.166542,65.2226696 L216.206722,65.1424722 L216.206722,65.1424722 L216.272436,65.0228714 C216.317592,64.944642 216.365471,64.8687627 216.416235,64.7912804 C217.529488,63.0991369 217.529488,62.119475 216.416235,61.0062227 L216.37968,60.9692667 L216.37968,60.9692667 L216.309589,60.8954306 C215.628531,60.1536808 215.537364,59.2324048 215.526876,51.122458 L215.526128,50.3618109 C215.526036,50.2316412 215.525959,50.0997574 215.525896,49.9661348 L215.525634,37.3162151 L218.55368,34.288169 L228.386058,34.2889359 Z M302.63979,34.2887745 C308.886062,34.2989721 310.847428,34.4405989 311.532507,34.9115902 L311.582263,34.9495865 L311.630028,34.9898463 C312.28501,35.5768997 312.366882,37.3063999 312.377116,60.2107572 L312.377962,62.7467342 L312.378059,63.1855366 L312.378059,63.1855366 L312.3781,79.3074455 C312.37804,79.6106861 312.377972,79.9106504 312.377897,80.2073753 L312.377334,81.9491455 C312.377221,82.2330599 312.377097,82.5138086 312.376963,82.7914284 L312.376012,84.4198959 C312.362546,103.907949 312.278413,106.904949 311.752757,108.033139 L311.718228,108.103478 L311.718228,108.103478 L311.682451,108.169504 C311.664247,108.201584 311.645567,108.232374 311.626399,108.262364 L311.551234,108.373405 C311.516761,108.421933 311.480852,108.469955 311.443447,108.519828 L310.508315,109.766671 L302.671019,109.900261 C301.131334,109.918375 299.893754,109.932805 298.890088,109.936057 L298.180132,109.936283 C294.91324,109.925999 294.562014,109.740255 293.765001,109.009659 C291.583027,106.961275 283.790261,98.0997874 281.207516,94.6709705 C279.738023,92.7116465 277.867759,90.3960819 277.066217,89.5500102 C276.264676,88.6594084 275.463134,87.3680358 275.240484,86.6110242 C275.017833,85.8985428 273.1921,83.5829782 271.188246,81.4900639 C270.970543,81.2575179 270.751191,81.0200241 270.532511,80.7802091 L270.096735,80.2982625 C268.507217,78.5254839 267.037052,76.7220458 266.601646,75.9238027 L265.621984,74.1425992 L265.399334,90.6187323 C265.205628,105.572827 265.113037,108.056137 263.831339,109.123506 L263.741045,109.195007 C263.725677,109.206595 263.710147,109.218029 263.694455,109.229326 L263.598329,109.295604 L263.498198,109.359406 C263.48117,109.369878 263.463972,109.380281 263.4466,109.390631 L263.340284,109.452231 C263.286074,109.482849 263.230273,109.513295 263.172829,109.54402 C261.881457,110.211972 248.56696,110.078381 246.919347,109.3659 C246.162335,109.054189 245.004553,108.119058 244.336602,107.362046 L243.134289,105.892553 L243.134289,36.2029628 L244.069421,35.3568911 C244.901153,34.6127103 245.732884,34.5140303 253.248649,34.510899 L262.282228,34.5108194 L263.61813,35.8467221 C264.330612,36.6037336 265.889165,38.4294673 267.046947,39.9434904 C268.24926,41.4129833 271.099185,44.9308604 273.41475,47.736256 C275.730315,50.4971216 278.40212,53.8814084 279.337252,55.2173111 C280.227854,56.5532138 281.786407,58.5125377 282.766069,59.5812599 C283.745731,60.6054519 284.547272,61.6741741 284.547272,61.8968245 C284.547272,62.1640051 285.437874,63.3217874 286.506596,64.4795697 C287.619849,65.6818821 288.777631,67.1959052 289.089342,67.9083866 C289.217124,68.2104168 289.320662,68.2821363 289.407073,67.9772954 L289.428323,67.8931555 C289.658237,66.8794596 289.763101,62.9258568 289.890883,52.9908066 C290.024473,44.0402586 290.291654,36.4256133 290.469774,36.0248425 C291.21477,34.5786748 292.865446,34.2969538 301.448722,34.2883747 L302.63979,34.2887745 Z M116.624305,65.7264122 C115.822763,64.7022202 115.600113,64.61316 114.976691,65.102991 C114.13062,65.8600025 112.705657,68.9771088 112.661127,70.1794212 C112.661127,70.7137823 112.260356,71.6489141 111.770525,72.2723354 C111.280694,72.8957567 110.835393,73.9199487 110.790863,74.5879001 C110.746333,75.2113213 110.345562,76.057393 109.900261,76.4581638 C109.45496,76.8589346 109.098719,77.3932957 109.098719,77.7050063 C109.098719,78.7737285 111.147104,80.1096312 113.106428,80.2877515 C116.624305,80.6439922 119.4297,80.3322816 120.053122,79.53074 C120.765603,78.551078 121.255434,75.077731 120.854663,73.7863584 C120.676543,73.2519974 120.053122,72.1832752 119.47423,71.3817336 C118.895339,70.6247221 118.227388,69.2888194 117.960207,68.4427477 C117.737557,67.596676 117.114136,66.3498335 116.624305,65.7264122 Z M355.171995,68.086507 C354.682164,65.2811113 351.342407,63.3217874 351.342407,65.8154724 C351.342407,66.3053034 350.986166,67.1513751 350.496335,67.7302663 C350.051034,68.3091574 349.516673,69.5114698 349.338553,70.3575415 L349.338553,70.3575415 L349.286859,70.5768162 C349.071991,71.407091 348.588963,72.5024075 348.18077,73.073877 C347.73547,73.7418284 347.290169,74.6324301 347.201109,75.077731 C347.112048,75.567562 346.889398,76.2800435 346.666747,76.7253444 C346.488627,77.1261152 346.577687,78.1057771 346.889398,78.8182586 C347.379229,80.020571 347.601879,80.1096312 350.407275,80.2877515 C354.147802,80.510402 356.151657,80.3322816 356.908668,79.7088604 C357.621149,79.1299692 358.244571,74.8550806 357.8438,73.2965275 C357.71021,72.7176363 357.086788,71.6489141 356.507897,70.9364327 C355.929006,70.2684814 355.350115,68.9771088 355.171995,68.086507 Z M47.3800153,26.2727529 C46.5339436,26.2727529 42.7043559,29.83516 42.9715365,30.2804609 C43.1051267,30.5031114 42.9270064,30.9038822 42.6152957,31.2601229 C42.3035851,31.5718335 41.6801639,32.3733751 41.234863,33.0858566 C40.5669116,34.0655185 40.5223815,34.4217593 40.9676824,34.9561203 C41.6801639,35.802192 41.5465736,35.802192 43.5949577,34.7334699 C46.4894135,33.2639769 47.9143764,31.794484 48.5377977,29.6125096 C49.1166888,27.4750653 48.715918,26.2727529 47.3800153,26.2727529 Z M81.0892931,27.1633546 C80.2432214,27.1633546 77.6604762,29.3007989 77.1261152,30.4140512 C76.8144045,31.0820025 76.3691036,31.6163636 76.1909833,31.6163636 C75.7011523,31.6163636 74.8105505,33.7092778 75.1222611,34.0209884 C75.134984,34.0337113 75.1470821,34.0459798 75.1586711,34.0577736 L75.2230198,34.1226782 C75.47339,34.3680278 75.5500681,34.2913497 77.2597054,33.5756875 C78.1503072,33.2194468 78.7737285,32.7741459 78.6401382,32.6405557 C78.5065479,32.4624353 78.7291984,31.9280742 79.2190294,31.4382432 C80.1986913,30.3695211 81.6236542,27.1633546 81.0892931,27.1633546 Z M32.0171344,24.9368502 C31.7499539,24.9368502 30.9484123,25.337621 30.2804609,25.827452 C29.5679795,26.3172829 28.4101972,26.851644 27.6531856,26.9852343 C26.0946325,27.2969449 26.0501024,27.5195954 26.9407042,29.6570397 C27.831306,31.8390141 29.3898591,33.8873982 29.8796901,33.6202176 C30.1023406,33.4420973 30.2804609,32.5960256 30.2804609,31.7054238 C30.2804609,30.814822 30.6367016,29.4789193 31.0820025,28.7219078 C32.1952548,26.9407042 32.6850858,24.9368502 32.0171344,24.9368502 Z M124.14989,28.4992573 C123.348348,28.4992573 121.121844,31.3491831 121.121844,32.4179052 C121.121844,33.0858566 121.389024,33.3975672 121.923385,33.3975672 C122.813987,33.3975672 124.37254,31.8835441 124.817841,30.6367016 C125.174082,29.7015698 124.773311,28.4992573 124.14989,28.4992573 Z M24.7684422,10.6876319 L24.4470192,10.6872215 C18.9698182,10.6872215 16.921434,11.8450038 16.921434,14.8730499 C16.921434,15.4964712 16.6097234,16.921434 16.2089526,18.0792164 C15.6300614,19.8158899 15.6300614,20.2166607 16.1198924,20.5729014 C17.0104942,21.1963226 21.6861536,20.7510217 22.5767554,19.9494801 C23.0220563,19.5932394 24.1353086,19.0143483 25.0259103,18.7471677 C27.6531856,17.901096 30.1468707,15.8527119 30.5031114,14.2050986 C30.7702919,12.9582561 30.6367016,12.6020154 29.6570397,11.7114136 C28.5883175,10.8208118 27.9648963,10.6872215 24.4470192,10.6872215 Z" transform="translate(54.256 193.575)"/></svg>