<svg xmlns="http://www.w3.org/2000/svg" width="500" height="500" viewBox="0 0 500 500"><path d="M388.377867,216.422301 C399.561903,279.875963 210.128633,411.12475 157.338387,353.891931 C109.330402,301.837827 98.4842818,223.913211 126.018651,165.005004 C159.890937,92.5313856 377.193831,152.968639 388.377867,216.422301 Z M197.682513,238.00279 C195.598256,236.579287 194.263444,236.516315 189.877635,237.288821 L189.877635,237.288821 L182.180073,238.645806 C181.22841,238.81432 179.715328,239.207225 180.070095,241.193921 L180.070095,241.193921 L184.177413,264.487936 C184.477191,266.186384 185.482069,266.563324 187.053688,266.285718 L187.053688,266.285718 L188.832845,265.971749 C189.461048,265.944276 190.040761,265.626258 190.401496,265.11122 C190.762231,264.596182 190.86297,263.942689 190.674087,263.342924 L190.674087,263.342924 L189.353466,255.854676 L189.931737,255.75268 L198.33085,262.974853 C199.182279,263.760215 200.379307,264.049407 201.495374,263.739377 L201.495374,263.739377 L203.978744,263.301239 C206.462114,262.863989 205.702026,260.736272 204.650141,259.854676 L204.650141,259.854676 L197.618655,254.096804 C201.337502,252.459554 201.979631,249.05911 201.337502,245.422746 C200.724642,241.946914 199.622203,239.324298 197.682513,238.00279 Z M231.828856,244.683056 C230.414222,236.656449 226.516217,230.518089 216.91533,232.210329 C207.314443,233.902568 205.788057,240.997912 207.207126,249.02452 C208.614664,257.011217 212.479853,263.198357 222.080741,261.506117 C231.681628,259.812104 233.238169,252.668866 231.828856,244.683056 Z M217.907791,237.837823 C220.139277,237.444032 221.989388,237.758888 223.066106,239.27463 C224.131295,240.70789 224.757459,243.792591 225.121095,245.860884 C225.484732,247.929176 225.901583,251.013877 225.433291,252.718534 C224.942825,254.511882 223.322426,255.480396 221.087392,255.874188 C218.852359,256.267979 217.039499,255.906117 215.961006,254.389487 C214.939277,252.948245 214.274975,249.906117 213.910452,247.838711 C213.545929,245.771305 213.122869,242.645806 213.590274,240.942036 C214.085175,239.152236 215.676306,238.231615 217.907791,237.837823 Z M254.357461,227.752679 C254.16766,226.676847 253.551252,226.103011 251.422649,226.350461 C249.621318,226.539375 248.530409,226.646692 246.627083,226.982834 C238.225309,228.463987 234.601362,231.620528 236.717548,243.618755 C238.359234,252.92962 241.591163,257.224077 251.647039,255.450241 C253.550365,255.114099 254.612006,254.842702 256.369878,254.404565 C258.457683,253.907891 258.83551,253.157558 258.646596,252.082613 L258.646596,252.082613 L258.413337,250.758445 C258.091385,248.936715 257.575199,248.432059 255.921097,248.723855 C254.429301,248.98727 253.017327,249.451128 251.486507,249.717203 C250.452964,249.924332 249.405142,250.052418 248.352139,250.100352 C244.809788,250.084387 244.129522,246.70523 243.385398,242.485274 C242.622648,238.142923 242.039943,235.087491 244.183624,233.68616 C245.535031,233.06385 246.968689,232.638531 248.440831,232.423189 C249.970764,232.153566 251.455465,232.108333 252.945487,231.842258 C254.599589,231.550462 254.911784,230.89769 254.59072,229.076847 L254.59072,229.076847 Z M280.910899,224.26443 C281.579635,223.208111 281.303803,221.166426 278.944602,221.58239 L278.944602,221.58239 L276.833737,221.954896 C275.760258,222.036957 274.814895,222.692639 274.361896,223.669308 L274.361896,223.669308 L268.214668,234.055118 L266.77786,225.903455 C266.58806,224.826736 265.949479,223.873299 264.171208,224.187268 L264.171208,224.187268 L262.392051,224.501237 C261.440388,224.669752 259.930853,225.063543 260.280299,227.05024 L260.280299,227.05024 L264.387616,250.344254 C264.687395,252.042702 265.69316,252.419642 267.264778,252.142037 L267.264778,252.142037 L269.043936,251.828068 C269.672194,251.800406 270.251861,251.482155 270.612434,250.966927 C270.973007,250.451699 271.073477,249.798091 270.884291,249.198356 L270.884291,249.198356 L269.600033,241.915872 L278.848814,248.862214 C279.685729,249.568976 280.811089,249.830933 281.874092,249.566427 L281.874092,249.566427 L284.729968,249.062658 C287.088283,248.646693 286.708682,246.494143 285.345489,245.538932 L285.345489,245.538932 L272.732628,236.926072 Z M192.862284,242.608989 L193.291382,242.618311 C194.233289,242.877291 194.685617,245.443145 194.820429,246.226294 C195.254132,248.667979 195.086504,249.167314 192.603134,249.605451 L192.603134,249.605451 L188.382291,250.349576 L187.171648,243.479509 C188.198699,243.256005 189.27453,243.066205 190.309564,242.884387 C191.28787,242.667481 192.290127,242.578047 193.291382,242.618311 Z M309.304692,218.406337 C309.114004,217.329618 308.435512,216.383277 306.655468,216.697246 L306.655468,216.697246 L304.917108,217.003232 C303.964559,217.171747 302.455911,217.564652 302.806244,219.551348 L302.806244,219.551348 L304.251033,227.744696 C302.878084,227.944253 301.347263,228.213876 299.692274,228.505672 C297.9956,228.804563 296.504691,229.067978 295.14682,229.350018 L295.14682,229.350018 L293.70203,221.156669 C293.51223,220.079951 292.874536,219.126514 291.094491,219.440483 L291.094491,219.440483 L289.316221,219.754452 C288.365445,219.922967 286.850589,220.316758 287.205356,222.303454 L287.205356,222.303454 L291.312673,245.597469 C291.611565,247.295917 292.61733,247.672857 294.189835,247.395252 L294.189835,247.395252 L295.968106,247.081283 C296.596522,247.053886 297.176442,246.735746 297.537216,246.220479 C297.89799,245.705212 297.998566,245.051449 297.809348,244.451571 L297.809348,244.451571 L296.065667,234.562435 C297.437729,234.362879 298.928638,234.100351 300.625312,233.801459 C302.281188,233.509663 303.812009,233.239153 305.16988,232.958 L305.16988,232.958 L306.913561,242.847136 C307.212452,244.544697 308.21733,244.921637 309.789836,244.644919 L309.789836,244.644919 L311.528195,244.338045 C312.16072,244.312384 312.746043,243.996381 313.114518,243.481626 C313.482992,242.966871 313.593415,242.310923 313.413783,241.703899 L313.413783,241.703899 Z M330.852365,214.392146 C330.326516,213.112082 328.916475,212.438499 327.59028,212.833831 L327.59028,212.833831 L325.893606,213.132722 C324.072764,213.4529 323.623096,214.300793 323.368551,215.753565 L323.368551,215.753565 L318.878972,240.137602 C318.77605,240.607487 318.731663,241.088301 318.746821,241.569087 C318.895823,242.397469 319.210679,242.981061 321.113118,242.645806 L321.113118,242.645806 L323.017331,242.309664 C324.715779,242.010773 325.0262,241.102569 325.234626,239.871526 L325.234626,239.871526 L325.804914,236.570417 C327.385402,236.334497 328.915336,236.063987 330.777864,235.735828 C332.599593,235.41565 333.757908,235.210772 335.736622,234.819641 L335.736622,234.819641 L337.617775,237.986826 C338.081294,239.017788 339.226184,239.558064 340.316667,239.26044 L340.316667,239.26044 L342.592498,238.859553 C343.296711,238.735384 344.494938,238.268865 344.243053,236.861327 C344.184611,236.593927 344.081783,236.338207 343.93884,236.104786 L343.93884,236.104786 Z M351.371213,210.987268 C351.181412,209.910549 350.542831,208.957112 348.763674,209.271081 L348.763674,209.271081 L346.984516,209.58505 C346.032853,209.753565 344.518884,210.147356 344.873652,212.134053 L344.873652,212.134053 L348.980969,235.428067 C349.280747,237.125628 350.285625,237.502568 351.858131,237.224963 L351.858131,237.224963 L363.528198,235.167313 C364.644828,234.971304 365.68873,234.360218 365.391613,232.662657 L365.391613,232.662657 L365.200925,231.585938 C365.048375,230.717646 364.661679,229.248909 362.551701,229.621415 C359.99964,230.073031 357.452277,230.550809 354.910016,231.054674 L354.910016,231.054674 Z M328.24926,221.635605 L333.054582,230.258222 C331.814671,230.477291 331.145935,230.551792 329.903363,230.770861 C328.66079,230.989929 327.592941,231.222302 326.682963,231.382834 L326.682963,231.382834 L328.24926,221.635605 Z"/></svg>