<?xml version="1.0" encoding="UTF-8"?>
<svg width="500px" height="500px" viewBox="0 0 500 500" version="1.1" xmlns="http://www.w3.org/2000/svg" xmlns:xlink="http://www.w3.org/1999/xlink">
    <title>logo-white/svg/sorbonne</title>
    <g id="sorbonne" stroke="none" stroke-width="1" fill="none" fill-rule="evenodd">
        <g id="Logo_of_Sorbonne_University" transform="translate(51.000000, 170.000000)" fill="#000000" fill-rule="nonzero">
            <path d="M46,50 L51,50 L51,38.6376812 C51,37.2173913 49.8461538,36 48.5,36 C47.1538462,36 46,37.2173913 46,38.6376812 L46,50 Z" id="Path"></path>
            <path d="M34,50 L39,50 L39,38.6376812 C39,37.2173913 37.8461538,36 36.5,36 C35.1538462,36 34,37.2173913 34,38.6376812 L34,50 Z" id="Path"></path>
            <path d="M57,50 L62,50 L62,38.6376812 C62,37.2173913 60.8461538,36 59.5,36 C58.1538462,36 57,37.2173913 57,38.6376812 L57,50 Z" id="Path"></path>
            <path d="M49.6262136,6.69456067 C53.1747573,7.32217573 54.4271845,10.460251 54.4271845,12.5523013 L54.4271845,17.1548117 L57.7669903,17.1548117 L57.7669903,19.665272 C66.3252427,23.6401674 72.3786408,32.6359833 72.3786408,41.8410042 C72.3786408,41.8410042 72.3786408,42.0502092 72.3786408,42.0502092 L72.3786408,50 L92,50 L92,42.0502092 C91.5825243,16.1087866 73.2135922,0.418410042 49,0 L49.6262136,6.69456067 Z" id="Path"></path>
            <path d="M46,12.3488149 L46,17 L51,17 L51,12.3488149 C51,11.0803099 49.9130435,10.0232224 48.6086957,10.0232224 C47.0869565,9.81180485 46,11.0803099 46,12.3488149" id="Path"></path>
            <path d="M52.3180189,63.2067594 C32.0445636,57.9880716 24.3113899,53.6043738 24.3113899,40.6620278 C24.3113899,31.4771372 30.5815308,23.5447316 39.1507232,19.9960239 L39.1507232,17.9085487 L42.4947983,17.9085487 L42.4947983,13.5248509 C42.4947983,11.2286282 43.9578312,8.09741551 47.510911,7.67992048 L48.1379251,1 C23.6843759,1 2.99291114,17.9085487 4.03793461,40.6620278 C5.08295808,66.1292247 33.2985918,73.4353877 48.3469298,76.5666004 C60.2601973,79.0715706 88.8938404,85.7514911 96,106 C95.7909953,106 98.5080563,72.6003976 52.3180189,63.2067594" id="Path"></path>
            <path d="M45.3068286,98.5048744 C65.9421286,104.779616 71.2062357,112.309306 71.2062357,123.185524 C71.2062357,139.70901 58.3618143,146.402068 42.1483643,146.402068 C26.7771715,146.402068 13.5116215,139.290694 4.66792149,130.08774 C4.66792149,130.08774 1.29889292,136.780798 1.29889292,136.780798 C7.82638577,148.911965 26.1454786,159.997341 46.35965,159.997341 L46.35965,159.997341 C46.35965,159.997341 46.35965,159.997341 46.35965,159.997341 L46.35965,159.997341 C72.6801857,160.206499 95,148.075332 95,123.60384 C95,97.4590842 66.1526929,87.0011817 50.1498072,83.6546529 C37.51595,80.9355982 5.9313072,72.5692762 0.24607149,55 C0.24607149,55 -6.07085708,85.5370753 45.3068286,98.5048744" id="Path"></path>
            <path d="M123.961538,64.6339869 C123.961538,64.6339869 127.557692,67.9803922 132.211538,67.9803922 C134.75,67.9803922 136.865385,66.7254902 136.865385,64.2156863 C136.865385,58.5686275 121.423077,59.6143791 121.423077,49.9934641 C121.423077,44.7647059 126.076923,41 132.423077,41 C138.769231,41 142.153846,44.3464052 142.153846,44.3464052 L139.615385,48.9477124 C139.615385,48.9477124 136.442308,46.2287582 132.423077,46.2287582 C129.673077,46.2287582 127.557692,47.6928105 127.557692,49.9934641 C127.557692,55.4313725 143,54.1764706 143,64.0065359 C143,69.0261438 138.980769,73 132.211538,73 C125.019231,73 121,68.8169935 121,68.8169935 L123.961538,64.6339869 Z" id="Path"></path>
            <path d="M168,68.5974026 C173.95,68.5974026 178.8375,63.8181818 178.8375,57.5844156 C178.8375,51.5584416 173.95,46.987013 168,46.987013 C162.05,46.987013 157.1625,51.5584416 157.1625,57.5844156 C157.1625,64.025974 161.8375,68.5974026 168,68.5974026 M168,42 C177.5625,42 185,48.8571429 185,57.7922078 C185,66.9350649 177.775,74 168,74 C158.4375,74 151,66.9350649 151,57.7922078 C151,48.8571429 158.225,42 168,42" id="Shape"></path>
            <path d="M205.324786,56.6621622 C208.529915,56.6621622 210.452991,54.777027 210.452991,51.8445946 C210.452991,48.9121622 209.17094,47.027027 204.470085,47.027027 L199.982906,47.027027 L199.982906,56.6621622 L205.324786,56.6621622 L205.324786,56.6621622 Z M194,42 L204.683761,42 C208.316239,42 209.811966,42.2094595 211.307692,42.8378378 C214.512821,44.3040541 216.649573,47.2364865 216.649573,51.4256757 C216.649573,55.1959459 214.512821,58.5472973 211.094017,60.0135135 L211.094017,60.0135135 C211.094017,60.0135135 211.521368,60.4324324 212.162393,61.4797297 L219,73 L212.376068,73 L205.752137,61.4797297 L199.982906,61.4797297 L199.982906,73 L194,73 L194,42 Z" id="Shape"></path>
            <path d="M239.238532,68.1824324 C242.192661,68.1824324 243.880734,66.2972973 243.880734,63.5743243 C243.880734,61.0608108 242.192661,59.1756757 239.238532,59.1756757 L232.908257,59.1756757 L232.908257,68.1824324 L239.238532,68.1824324 Z M238.605505,54.777027 C241.137615,54.777027 242.614679,53.1013514 242.614679,50.7972973 C242.614679,48.4932432 241.137615,47.027027 238.394495,47.027027 L232.697248,47.027027 L232.697248,54.777027 L238.605505,54.777027 Z M227,42 L238.605505,42 C244.513761,42 248.733945,44.9324324 248.733945,49.9594595 C248.733945,52.8918919 247.256881,55.4054054 244.724771,56.6621622 L244.724771,56.6621622 C248.311927,57.7094595 250,60.8513514 250,63.9932432 C250,70.277027 244.724771,73 238.816514,73 L227,73 L227,42 Z" id="Shape"></path>
            <path d="M274,68.5974026 C279.95,68.5974026 284.8375,63.8181818 284.8375,57.5844156 C284.8375,51.5584416 279.95,46.987013 274,46.987013 C268.05,46.987013 263.1625,51.5584416 263.1625,57.5844156 C263.1625,64.025974 268.05,68.5974026 274,68.5974026 M274,42 C283.5625,42 291,48.8571429 291,57.7922078 C291,66.9350649 283.775,74 274,74 C264.4375,74 257,66.9350649 257,57.7922078 C257,48.8571429 264.4375,42 274,42" id="Shape"></path>
            <path d="M301,42 L306.777778,42 L318.952381,60.0135135 C320.190476,61.8986486 321.634921,64.8310811 321.634921,64.8310811 L321.634921,64.8310811 C321.634921,64.8310811 321.222222,61.8986486 321.222222,60.0135135 L321.222222,42 L327,42 L327,73 L321.222222,73 L309.047619,55.1959459 C307.809524,53.3108108 306.365079,50.3783784 306.365079,50.3783784 L306.365079,50.3783784 C306.365079,50.3783784 306.777778,53.3108108 306.777778,55.1959459 L306.777778,73 L301,73 L301,42 Z" id="Path"></path>
            <path d="M339,42 L344.777778,42 L356.952381,60.0135135 C358.190476,61.8986486 359.634921,64.8310811 359.634921,64.8310811 L359.634921,64.8310811 C359.634921,64.8310811 359.222222,61.8986486 359.222222,60.0135135 L359.222222,42 L365,42 L365,73 L359.222222,73 L347.047619,55.1959459 C345.809524,53.3108108 344.365079,50.3783784 344.365079,50.3783784 L344.365079,50.3783784 C344.365079,50.3783784 344.777778,53.3108108 344.777778,55.1959459 L344.777778,73 L339,73 L339,42 L339,42 Z" id="Path"></path>
            <polygon id="Path" points="377 42 377 73 397 73 397 68.0067114 382.833333 68.0067114 382.833333 59.6845638 393.666667 59.6845638 393.666667 54.8993289 382.833333 54.8993289 382.833333 46.7852349 396.375 46.7852349 396.375 42"></polygon>
            <path d="M122,86.2105263 L127.777778,86.2105263 L127.777778,106.421053 C127.777778,110.631579 130.666667,112.947368 135,112.947368 C139.333333,112.947368 142.222222,110.631579 142.222222,106.210526 L142.222222,86 L148,86 L148,106.210526 C148,113.368421 142.84127,118 135,118 C127.15873,118 122,113.157895 122,106.210526 L122,86.2105263 L122,86.2105263 Z" id="Path"></path>
            <path d="M158,87 L163.777778,87 L175.952381,105.013514 C177.190476,106.898649 178.634921,109.831081 178.634921,109.831081 L178.634921,109.831081 C178.634921,109.831081 178.222222,106.898649 178.222222,105.013514 L178.222222,87 L184,87 L184,118 L178.222222,118 L166.047619,100.195946 C164.809524,98.3108108 163.365079,95.3783784 163.365079,95.3783784 L163.365079,95.3783784 C163.365079,95.3783784 163.777778,98.3108108 163.777778,100.195946 L163.777778,118 L158,118 L158,87 Z" id="Path"></path>
            <rect id="Rectangle" x="195" y="87" width="6" height="31"></rect>
            <path d="M207,87 L213.382979,87 L220.617021,107.317568 C221.255319,109.202703 221.893617,111.925676 221.893617,111.925676 L222.106383,111.925676 C222.106383,111.925676 222.744681,109.202703 223.382979,107.317568 L230.617021,87 L237,87 L225.085106,118 L219.12766,118 L207,87 Z" id="Path"></path>
            <polygon id="Path" points="243 87 262.166667 87 262.166667 91.7852349 248.833333 91.7852349 248.833333 99.8993289 259.666667 99.8993289 259.666667 104.684564 248.833333 104.684564 248.833333 113.006711 263 113.006711 263 118 243 118"></polygon>
            <path d="M282.324786,101.662162 C285.529915,101.662162 287.452991,99.777027 287.452991,96.8445946 C287.452991,93.9121622 286.17094,92.027027 281.470085,92.027027 L276.982906,92.027027 L276.982906,101.662162 L282.324786,101.662162 L282.324786,101.662162 Z M271,87 L281.683761,87 C285.316239,87 286.811966,87.2094595 288.307692,87.8378378 C291.512821,89.3040541 293.649573,92.2364865 293.649573,96.4256757 C293.649573,100.195946 291.512821,103.547297 288.094017,105.013514 L288.094017,105.013514 C288.094017,105.013514 288.521368,105.432432 289.162393,106.47973 L296,118 L289.376068,118 L282.752137,106.47973 L276.982906,106.47973 L276.982906,118 L271,118 L271,87 Z" id="Shape"></path>
            <path d="M303.961538,110.633987 C303.961538,110.633987 307.557692,113.980392 312.211538,113.980392 C314.75,113.980392 316.865385,112.72549 316.865385,110.215686 C316.865385,104.568627 301.423077,105.614379 301.423077,95.9934641 C301.423077,90.7647059 306.076923,87 312.423077,87 C318.769231,87 322.153846,90.3464052 322.153846,90.3464052 L319.615385,94.9477124 C319.615385,94.9477124 316.442308,92.2287582 312.423077,92.2287582 C309.673077,92.2287582 307.557692,93.6928105 307.557692,95.9934641 C307.557692,101.431373 323,100.176471 323,110.006536 C323,115.026144 318.980769,119 312.211538,119 C305.019231,119 301,114.816993 301,114.816993 L303.961538,110.633987 Z" id="Path"></path>
            <rect id="Rectangle" x="331" y="87" width="6" height="31"></rect>
            <polygon id="Path" points="354.465116 91.7852349 344 91.7852349 344 87 371 87 371 91.7852349 360.325581 91.7852349 360.325581 118 354.465116 118"></polygon>
            <path d="M378,86.9677419 L378,118 L398,118 L398,113.177419 L383.833333,113.177419 L383.833333,104.790323 L394.666667,104.790323 L394.666667,99.9677419 L383.833333,99.9677419 L383.833333,91.7903226 L397.166667,91.7903226 L397.166667,86.9677419 L378,86.9677419 L378,86.9677419 Z M389.041667,79 L385.5,84.8709677 L390.083333,84.8709677 L394.875,79 L389.041667,79 Z" id="Shape"></path>
        </g>
    </g>
</svg>