<svg xmlns="http://www.w3.org/2000/svg" width="500" height="500" viewBox="0 0 500 500"><g fill="none" fill-rule="evenodd"><path fill="#000" fill-rule="nonzero" d="M67.2373639,232.384462 L56.4442596,232.384462 L56.4442596,236.440504 L56.3062125,236.440504 C53.9684937,231.559812 49.2948724,231.145671 46.4067816,231.145671 C44.0690628,231.145671 38.5671589,231.697859 35.1995359,235.960972 C32.1752144,239.742736 31.7628895,242.489147 31.7628895,247.714957 L31.7628895,270.539957 L43.1753894,270.539957 L43.1753894,249.435097 C43.1753894,246.821284 43.1753894,241.802545 49.2948724,241.802545 C52.5934718,241.802545 55.824864,243.520868 55.824864,249.573144 L55.824864,270.539957 L67.2373639,270.539957 L67.2373639,232.384462 Z" transform="matrix(1 0 0 -1 0 501.686)"/><path fill="#000" fill-rule="nonzero" d="M71.0336594,267.995167 L81.6887166,267.995167 L81.6887166,263.939125 L81.8249473,263.939125 C82.9965314,265.795496 85.4032738,269.301166 92.2075431,269.301166 C95.8512603,269.301166 99.9073023,267.789913 101.970743,266.002566 C104.032368,264.21522 106.36827,261.189082 106.36827,253.696393 L106.36827,229.839673 L94.9557705,229.839673 L94.9557705,250.672071 C94.9557705,253.353092 94.9557705,258.575269 88.9761509,258.575269 C82.4443429,258.575269 82.4443429,252.93895 82.4443429,250.601231 L82.4443429,229.839673 L71.0336594,229.839673 L71.0336594,267.995167 Z" transform="matrix(1 0 0 -1 0 499.14)"/><polygon fill="#000" fill-rule="nonzero" points="121.421 231.146 110.008 231.146 110.008 269.301 121.421 269.301" transform="matrix(1 0 0 -1 0 500.447)"/><polygon fill="#000" fill-rule="nonzero" points="147.486 231.146 136.553 231.146 122.874 269.301 134.699 269.301 141.986 245.513 142.122 245.513 149.41 269.301 161.235 269.301" transform="matrix(1 0 0 -1 0 500.447)"/><path fill="#000" fill-rule="nonzero" d="M186.757099,254.382996 C186.27575,256.651691 184.007055,260.912987 178.094642,260.912987 C172.18223,260.912987 169.913535,256.651691 169.432186,254.382996 L186.757099,254.382996 Z M196.861784,243.039519 C195.005413,238.778223 192.324393,235.477807 189.094817,233.278136 C185.930632,231.00944 182.150685,229.839673 178.23269,229.839673 C167.301538,229.839673 158.021503,238.7092 158.021503,250.054492 C158.021503,260.707733 166.407865,270.539957 178.025619,270.539957 C189.645189,270.539957 198.169599,261.327129 198.169599,249.707558 C198.169599,248.196306 198.031551,247.578726 197.893504,246.683237 L169.294139,246.683237 C169.982558,242.145846 173.762506,239.466642 178.23269,239.466642 C181.73836,239.466642 183.592914,241.045102 185.176822,243.039519 L196.861784,243.039519 Z" transform="matrix(1 0 0 -1 0 500.38)"/><path fill="#000" fill-rule="nonzero" d="M199.962395,267.995167 L210.686475,267.995167 L210.686475,263.939125 L210.824522,263.939125 C211.787219,265.795496 213.77982,269.301166 220.380652,269.301166 L220.380652,257.821459 C215.087635,257.683412 211.374894,256.584484 211.374894,250.806486 L211.374894,229.839673 L199.962395,229.839673 L199.962395,267.995167 Z" transform="matrix(1 0 0 -1 0 499.14)"/><polygon fill="#000" fill-rule="nonzero" points="304.333 231.146 292.921 231.146 292.921 269.301 304.333 269.301" transform="matrix(1 0 0 -1 0 500.447)"/><path fill="#000" fill-rule="nonzero" d="M335.430203,254.382996 C334.947038,256.651691 332.68016,260.912987 326.769564,260.912987 C320.857151,260.912987 318.588456,256.651691 318.107107,254.382996 L335.430203,254.382996 Z M345.534888,243.039519 C343.678518,238.778223 340.999314,235.477807 337.767922,233.278136 C334.605553,231.00944 330.821973,229.839673 326.905794,229.839673 C315.974643,229.839673 306.694607,238.7092 306.694607,250.054492 C306.694607,260.707733 315.080969,270.539957 326.70054,270.539957 C338.318294,270.539957 346.842703,261.327129 346.842703,249.707558 C346.842703,248.196306 346.706472,247.578726 346.568425,246.683237 L317.96906,246.683237 C318.655663,242.145846 322.435611,239.466642 326.905794,239.466642 C330.413281,239.466642 332.267835,241.045102 333.848111,243.039519 L345.534888,243.039519 Z" transform="matrix(1 0 0 -1 0 500.38)"/><path fill="#000" fill-rule="nonzero" d="M349.325735,267.995167 L359.982608,267.995167 L359.982608,263.939125 L360.118839,263.939125 C361.288607,265.795496 363.695349,269.301166 370.501435,269.301166 C374.145152,269.301166 378.199378,267.789913 380.262819,266.002566 C382.32626,264.21522 384.660346,261.189082 384.660346,253.696393 L384.660346,229.839673 L373.249662,229.839673 L373.249662,250.672071 C373.249662,253.353092 373.249662,258.575269 367.270043,258.575269 C360.738235,258.575269 360.738235,252.93895 360.738235,250.601231 L360.738235,229.839673 L349.325735,229.839673 L349.325735,267.995167 Z" transform="matrix(1 0 0 -1 0 499.14)"/><path fill="#000" fill-rule="nonzero" d="M426.886414 245.584309C424.824789 236.921853 417.194053 229.839673 406.878665 229.839673 395.331751 229.839673 386.462224 238.914454 386.462224 250.259747 386.462224 261.465176 395.193703 270.539957 406.606203 270.539957 416.710889 270.539957 424.893813 263.870102 426.81739 254.521043L415.266843 254.521043C414.031685 257.134856 411.761173 259.883083 407.018528 259.883083 401.587464 260.159177 397.943747 255.69081 397.943747 250.190723 397.943747 244.623428 401.587464 240.498363 407.018528 240.498363 411.761173 240.498363 414.031685 243.24659 415.266843 245.584309L426.886414 245.584309ZM456.348573 254.382996C455.867225 256.651691 453.598529 260.912987 447.686117 260.912987 441.773705 260.912987 439.505009 256.651691 439.025477 254.382996L456.348573 254.382996ZM466.455075 243.039519C464.596888 238.778223 461.915868 235.477807 458.686292 233.278136 455.523923 231.00944 451.742159 229.839673 447.824164 229.839673 436.894829 229.839673 427.611161 238.7092 427.611161 250.054492 427.611161 260.707733 435.999339 270.539957 447.617093 270.539957 459.236664 270.539957 467.761073 261.327129 467.761073 249.707558 467.761073 248.196306 467.626659 247.578726 467.486795 246.683237L438.88743 246.683237C439.574033 242.145846 443.355797 239.466642 447.824164 239.466642 451.328018 239.466642 453.186205 241.045102 454.768297 243.039519L466.455075 243.039519Z" transform="matrix(1 0 0 -1 0 500.38)"/><path fill="#000" fill-rule="nonzero" d="M278.830888,245.580676 C277.59573,243.244774 275.327035,240.500179 270.58439,240.500179 C265.153326,240.500179 261.515058,244.616163 261.515058,250.185274 C261.515058,255.685361 265.153326,260.150095 270.58439,259.877634 C275.327035,259.877634 277.59573,257.129407 278.830888,254.515594 L290.375986,254.515594 C288.452408,263.859203 280.274934,270.525426 270.175698,270.525426 C264.762798,270.525426 259.99654,268.438371 256.432745,265.097994 C257.622493,263.48139 258.474389,261.452461 258.74685,258.885875 L251.975276,258.885875 C251.223283,257.258372 250.672911,255.523701 250.371387,253.689127 C250.184296,252.568403 250.037167,251.425881 250.037167,250.250664 C250.037167,244.223818 252.589222,238.894473 256.670694,235.172651 C260.263552,231.888582 265.037076,229.843306 270.449975,229.843306 C280.754466,229.843306 288.383385,236.923669 290.448642,245.580676 L278.830888,245.580676 Z" transform="matrix(1 0 0 -1 0 500.369)"/><path fill="#000" fill-rule="nonzero" d="M245.263644,253.020689 C243.565301,253.46026 241.883306,253.977936 240.175881,254.404793 C236.793727,255.294833 233.876573,256.460968 233.876573,258.528042 C233.876573,259.554313 234.559543,261.067382 237.251462,261.067382 C241.018695,261.067382 241.176723,259.00939 241.251195,258.177475 L246.507884,258.177475 L253.775338,258.177475 C253.502876,260.745878 252.65098,262.776623 251.461232,264.391411 C251.179689,264.774674 250.874532,265.13069 250.558477,265.468542 C246.969252,269.264837 241.245746,270.203921 237.411306,270.203921 C228.570842,270.203921 220.885614,266.240516 220.885614,257.632552 C220.885614,251.925394 225.59193,249.249823 231.122897,247.382554 C239.271309,244.568936 242.328326,244.505362 242.328326,241.550064 C242.328326,239.697326 240.025119,238.596582 237.869041,238.596582 C237.3332,238.596582 233.335283,238.672871 233.02831,242.100436 L220.349773,242.100436 C221.501377,232.066591 230.525298,229.458227 237.716463,229.458227 C242.86235,229.458227 247.446968,230.998542 250.643848,233.632335 C247.132729,238.006249 245.029327,243.559012 245.029327,249.604023 C245.029327,250.764708 245.112882,251.903597 245.263644,253.020689" transform="matrix(1 0 0 -1 0 499.662)"/></g></svg>