<svg xmlns="http://www.w3.org/2000/svg" width="500" height="500" viewBox="0 0 500 500"><path d="M64.4991243 36.2354491C62.3321846 33.9990351 58.1802621 36.1320646 57.8618377 39.0859673 57.2262297 44.9821935 64.2385953 48.3632811 68.7871009 46.5044273 71.8493505 45.2509933 68.7970258 42.6080713 70.0384672 40.5775992 70.9999432 39.0040867 73.678016 39.0429593 74.9235928 40.5598171 75.5269448 41.2979826 75.5269448 43.0877755 74.9219386 43.8180838 69.7026742 50.1084119 59.4812529 48.8921963 57.1228451 41.378209 56.497162 39.3849553 57.1178827 37.0910595 58.7774111 35.2640481 61.657704 32.0897297 61.5464622 31.6422814 61.5721016 30.242455L61.5721016 19.1422652C61.5721016 17.0423187 60.7425442 16.1800918 59.813324 16.1800918 58.830344 16.1800918 58.363873 16.6643449 57.642249 17.3661191L57.1249128 16.6093443 64.7782625 9.44686441C67.5171253 11.2780111 69.3288358 13.3250247 69.3288358 16.5559979L75.9475131 9.87735757 80.2909038 17.2035986 74.8090427 23.0204255 71.0334398 16.0175713 69.3284222 17.5815724 69.3284222 29.1606393C69.3284222 31.4214521 70.6199017 32.8266546 72.326987 32.8266546 73.6201207 32.8266546 75.7411576 31.0972382 77.0843293 30.025761L77.4465887 30.6679857 67.415395 38.9643871C66.5941083 38.176597 65.3088319 37.0749315 64.4991243 36.2354491M28.2103287 20.3353226C26.9726092 22.5940678 25.0417998 24.9611599 22.4191411 24.9611599 18.3106401 24.9611599 15.6900491 21.3563482 15.6900491 17.1064171 15.6900491 12.6964468 20.5900621 9.95303505 20.5900621 6.56160907 20.5900621 2.7979988 17.3719086.968919774 14.1545822.968919774 10.9384963.968919774 7.27413522 2.09829233 7.27413522 6.23987643 7.27413522 10.5981545 13.6087119 13.12694 13.6087119 17.9682305 13.6087119 21.5188687 12.2733973 22.7024147 6.73033261 26.5218527L6.73033261 26.6310267C7.17654023 26.5218527 7.67237241 26.4147463 8.16613691 26.4147463 10.9860532 26.4147463 14.9460941 29.6965847 17.2230349 31.4694225 18.6567715 32.6542092 19.9941537 33.461022 21.874925 33.461022 24.6981496 33.461022 25.9821854 31.2043446 26.3787685 28.3517588L27.1206558 28.3517588C26.6268913 34.4853559 22.81407 39.2741271 17.0754018 39.2741271 10.1465709 39.2741271 6.77995719 31.2543827 3.11766375 31.2543827 1.58509155 31.2543827 1.03839417 33.4076756.89117461 35.1313024L0 35.1313024C.149287255 31.0943434 2.52423658 28.0825454 5.69069783 26.2530529 6.93007152 25.5529329 7.96763862 24.6911195 7.96763862 23.5084005 7.96763862 22.6482412 7.2261648 21.8947748 4.70234176 19.2067772 2.91999254 17.2689376 1.03798064 14.6863922 1.03798064 11.2982745 1.03798064 3.9277849 7.37421144.00206769051 13.4610788.00206769051 19.7460308.00206769051 26.8229084 3.7139857 26.8229084 10.760675 26.8229084 17.3239382 21.6272157 19.4743363 21.6272157 22.3269221 21.6272157 23.1320808 22.4191411 23.6700939 23.0621929 23.6700939 25.1410489 23.6700939 26.4288066 21.8406013 27.5656228 19.9060701L28.2103287 20.3353226ZM44.9759905 17.3218705C44.9759905 16.3008449 44.580648 15.6548984 43.5889837 15.6011384L43.5889837 14.9551919C46.1140473 14.2017255 47.7971474 11.998808 48.6382839 9.79340934 50.2713459 12.2651266 52.3005773 14.2583802 54.923236 14.9551919L54.923236 15.6011384 54.131724 15.6011384C52.7467849 15.6011384 52.3994129 16.5146441 52.3994129 18.5600036L52.3994129 30.5550898C52.3994129 32.4387558 53.1929926 33.1397029 54.131724 33.1397029 54.6771808 33.1397029 55.319819 32.5458622 55.667191 32.1170232L56.0625334 32.815489 49.5306991 39.2712323C47.1032305 37.8164053 45.0260286 36.3094725 44.976404 32.815489L36.8574104 39.2716459C35.5220959 37.1733536 33.5433161 35.0763018 31.0182524 33.9965538L31.0182524 33.3518479C32.9498889 33.3518479 33.6909492 32.6517279 33.6909492 30.5546762L33.6909492 18.3441367C33.6909492 16.6225776 32.9498889 15.8707653 32.1075118 15.8707653 31.4144219 15.8707653 30.970282 16.3012585 30.2267405 16.838858L29.9806853 16.3008449 37.1051198 9.79340934C41.0651606 12.5343399 41.1160258 15.6011384 41.1160258 17.430631L41.1160258 31.3089697C41.1160258 32.2791301 41.3641487 33.5131278 42.3008125 33.5131278 42.7987124 33.5131278 43.0943921 33.2960203 43.4905616 33.0309424L44.9751634 31.8986751 44.9751634 17.3218705 44.9759905 17.3218705ZM99.307867 30.6092633C98.0709745 31.4177302 96.4858829 32.8159026 94.8519939 32.8159026 91.4378233 32.8159026 88.8147511 30.0162496 88.0741044 26.7906524L99.0101195 19.25971 93.5663039 9.79258226 85.7967501 13.3940856C81.1944845 15.547792 80.6486142 17.4302175 80.6486142 26.2522258 80.6486142 33.7831682 83.9656034 36.7982745 90.1000276 39.2728865 93.0712988 36.2044338 96.4854694 33.8365146 99.6556525 31.203104L99.307867 30.6092633ZM87.7755299 23.2396007C87.7755299 20.4432561 87.8760197 16.8901367 87.9256442 13.3423933L88.0232392 13.3423933 92.6751293 22.4865478 87.9256442 25.8225597C87.8259815 25.2291325 87.7755299 24.6386001 87.7755299 23.2396007M103.948592 18.5058301C103.948592 16.6229911 103.156666 15.9232846 102.21504 15.9232846 101.672891 15.9232846 101.02984 16.5150577 100.681641 16.9447237L100.288366 16.2458443 106.81896 9.7929958C109.243947 11.2445145 111.322803 12.7493797 111.37036 16.2458443L118.10152 9.84634221C120.528161 11.297861 122.607431 12.8027261 122.657055 16.3008449L130.771086 9.79258226C132.108469 11.8892204 134.08973 13.9858586 136.612312 15.0635389L136.612312 15.7094854C134.681916 15.7094854 133.940029 16.4091919 133.940029 18.5058301L133.940029 31.0935164C133.940029 32.4383423 134.681916 33.1901545 135.523053 33.1901545 136.219037 33.1901545 136.66235 32.7604885 137.403824 32.2216483L137.653601 32.7604885 130.525031 39.2716459C126.56499 36.581167 126.51702 33.5127143 126.51702 31.6832217L126.51702 17.8065371C126.51702 16.8372038 126.269311 15.6011384 125.327271 15.6011384 124.933996 15.6011384 124.487788 15.8165918 124.140416 16.084978L122.657055 17.2143506 122.657055 31.7394629C122.657055 32.7604885 123.051571 33.406435 124.041994 33.4597814L124.041994 34.1053144C121.517758 34.8596079 119.836312 37.0629389 118.994348 39.2712323 117.3617 36.7982745 115.330401 34.8062615 113.304064 34.1053144L113.304064 33.4597814 113.895424 33.4597814C114.887088 33.4597814 115.231152 32.3816876 115.231152 30.5021569L115.231152 17.0530707C115.231152 15.8170053 114.588927 15.547792 114.191517 15.547792 113.747377 15.547792 113.253199 15.7632454 112.856202 16.0308045L111.370773 17.1610042 111.370773 31.7398764C111.370773 32.760902 111.769011 33.4068485 112.756126 33.4601949L112.756126 34.1057279C110.233957 34.8600214 108.550444 37.0633524 107.710548 39.2716459 106.075418 36.798688 104.048254 34.806675 101.425596 34.1057279L101.425596 33.4601949 102.215453 33.4601949C103.603287 33.4601949 103.949005 32.5458622 103.949005 30.5025704L103.949005 18.5058301 103.948592 18.5058301ZM157.090305 9.79258226 149.517596 15.2781652 149.517596 7.80056922C149.517596 3.92737136 150.163129.96974685 154.023093.96974685L155.110698.96974685 155.110698.00165415241 154.812951.00165415241C148.329501.00165415241 142.836061 1.83073318 142.145038 7.15627686L142.046203 7.15627686C141.548303 5.21926439 140.459044 3.28225192 139.572004 2.31457276L139.02448 2.90593224C140.361449 4.0353048 142.094173 8.33899583 142.094173 11.8350469L142.094173 28.6176638C142.094173 30.7693025 141.599168 31.9540892 139.669599 31.9540892L139.669599 32.6000357C143.282268 33.8332063 146.448729 36.4186465 149.073456 39.2683376 150.359146 36.7428604 154.812951 35.2905146 156.891807 34.4820476 159.416044 33.5135413 161.09749 32.0628497 161.09749 27.7037445L161.09749 17.9669899C161.098317 14.2004849 159.2192 12.4280606 157.090305 9.79258226M153.676135 33.8915152C152.390858 32.3841688 150.952986 31.1476899 149.518009 29.9653844L149.518009 16.4075377C150.163542 15.8695247 151.103101 15.1181259 152.093111 15.1181259 153.428425 15.1181259 153.676135 16.7313381 153.676135 19.3126429L153.676135 33.8915152 153.676135 33.8915152ZM178.865981 17.3218705C178.865981 16.3008449 178.470639 15.6548984 177.478974 15.6011384L177.478974 14.9551919C180.004038 14.2017255 181.686725 11.998808 182.526621 9.79340934 184.159682 12.2651266 186.190568 14.2583802 188.81364 14.9551919L188.81364 15.6011384 188.022128 15.6011384C186.636776 15.6011384 186.289404 16.5146441 186.289404 18.5600036L186.289404 30.5550898C186.289404 32.4387558 187.082983 33.1397029 188.022128 33.1397029 188.567999 33.1397029 189.210223 32.5458622 189.557595 32.1170232L189.953765 32.815489 183.42069 39.2712323C180.993221 37.8164053 178.91726 36.3094725 178.866395 32.815489L170.748228 39.2712323C169.412914 37.17294 167.436202 35.0758883 164.911138 33.9961403L164.911138 33.3514344C166.84112 33.3514344 167.581767 32.6513144 167.581767 30.5542627L167.581767 18.3441367C167.581767 16.6225776 166.840707 15.8707653 165.99833 15.8707653 165.30524 15.8707653 164.8611 16.3012585 164.117558 16.838858L163.871503 16.3008449 170.998005 9.79340934C174.956806 12.5343399 175.00643 15.6011384 175.00643 17.430631L175.00643 31.3089697C175.00643 32.2791301 175.254553 33.5131278 176.193698 33.5131278 176.68953 33.5131278 176.98521 33.2960203 177.381793 33.0309424L178.866395 31.8986751 178.866395 17.3218705 178.865981 17.3218705ZM213.157388 17.5385645 207.910003 23.3475342 204.297334 16.3550184 202.664272 17.9144706 202.664272 29.4815448C202.664272 31.7398764 203.901164 33.1355675 205.535053 33.1355675 206.769465 33.1355675 208.802004 31.4177302 210.088521 30.3400499L210.435893 30.9859965 200.833539 39.2728865C198.310129 36.7432739 195.489386 34.1077956 192.023109 33.2951932L192.023109 32.6529686C193.310867 32.6529686 195.241263 32.169129 195.241263 30.5546762L195.241263 19.4735092C195.241263 17.3768711 194.447683 16.5150577 193.558576 16.5150577 192.618604 16.5150577 192.17157 17.0013785 191.481375 17.7006714L190.985542 16.9455508 198.310129 9.79258226C200.932788 11.6195936 202.664272 13.6645395 202.664272 16.8905502L208.999262 10.2222483 213.157388 17.5385645ZM237.29602 16.3550184 237.29602 15.7086584C233.535718 14.8480856 229.924704 12.8039667 227.296669 9.79340934 222.299061 15.2244052 215.522826 14.901432 215.522826 18.8275627L215.522826 31.8490505C215.522826 35.0767154 216.014936 36.6345134 220.123851 39.2716459 222.349926 37.0633524 224.723635 35.0217148 227.19866 33.1397029 227.19866 39.7004849 231.011482 40.5072977 231.011482 44.5401213 231.011482 48.5779073 227.296669 50.0298396 224.130208 50.0298396 223.485502 50.0298396 221.111793 49.9239739 221.111793 49.0613334 221.111793 48.091173 224.182727 49.0046787 224.182727 45.2935877 224.231111 42.8218705 221.806951 41.8537778 219.874074 41.8537778 217.943264 41.8537778 216.164637 43.1427761 216.164637 45.4035889 216.164637 50.4599192 222.349513 51 225.715299 51 230.913473 51 237.246809 47.6094011 237.246809 41.1548984 237.246809 39.1599906 236.553719 37.9255794 235.911495 36.9574867 235.214269 35.9898075 234.525315 35.2913416 234.525315 34.4828747L234.525315 19.0430161C234.525729 17.1080713 235.41773 16.3550184 237.29602 16.3550184M227.101893 32.1670613 225.219881 33.6764754C224.825365 33.9948997 224.427128 34.0486597 224.183141 34.0486597 223.243996 34.0486597 222.943353 32.6004492 222.943353 30.9843423L222.943353 15.3844445C224.231525 16.5167118 225.615637 17.4839774 227.101893 18.1836839L227.101893 32.1670613ZM259.519144 30.6092633C258.281838 31.4177302 256.696747 32.8159026 255.062444 32.8159026 251.649928 32.8159026 249.023961 30.0162496 248.282901 26.7906524L259.22057 19.25971 253.775927 9.79258226 246.006787 13.3940856C241.404935 15.547792 240.860719 17.4302175 240.860719 26.2522258 240.860719 33.7831682 244.176054 36.7982745 250.312959 39.2728865 253.280509 36.2044338 256.69716 33.8365146 259.863208 31.203104L259.519144 30.6092633ZM247.98598 23.2396007C247.98598 20.4432561 248.083575 16.8901367 248.13444 13.3423933L248.23369 13.3423933 252.883512 22.4865478 248.13444 25.8225597C248.036845 25.2291325 247.98598 24.6386001 247.98598 23.2396007M282.719459 17.5385645 277.47166 23.3475342 273.856097 16.3550184 272.224275 17.9144706 272.224275 29.4815448C272.224275 31.7398764 273.461995 33.1355675 275.097952 33.1355675 276.333604 33.1355675 278.361594 31.4177302 279.650179 30.3400499L279.996311 30.9859965 270.397264 39.2728865C267.87096 36.7432739 265.047735 34.1077956 261.584354 33.2951932L261.584354 32.6529686C262.872938 32.6529686 264.802094 32.169129 264.802094 30.5546762L264.802094 19.4735092C264.802094 17.3768711 264.009341 16.5150577 263.116926 16.5150577 262.17654 16.5150577 261.732814 17.0013785 261.03807 17.7006714L260.546787 16.9455508 267.87096 9.79258226C270.494859 11.6195936 272.224275 13.6645395 272.224275 16.8905502L278.556784 10.2222483 282.719459 17.5385645ZM339.030115 13.2882198C339.574331 13.3415663 340.265354 13.3415663 341.058106 13.3415663 342.196577 13.3415663 343.876782 13.1794593 344.970177 12.9656601L344.970177 12.264713C344.572353 12.318473 344.029791 12.3743006 343.48268 12.3743006 341.946386 12.3743006 341.701985 11.081167 341.553938 8.0706096 341.304161 2.69130597 336.899981 0 332.397791 0 328.388126 0 326.065282 1.29147949 323.289201 4.41203801 322.348402 1.93783955 321.161134 0 318.490505 0 316.163939 0 315.027537 2.42085205 314.033805 4.3586916 311.907805 1.18354605 308.790142 0 305.869735 0 299.038913 0 294.190179 4.95005108 294.190179 11.7825276 294.190179 18.6666964 301.268711 18.6666964 301.268711 21.0875484 301.268711 22.700347 298.59436 24.316454 297.008855 24.316454L296.763213 24.316454 296.763213 25.2837196C299.831666 25.2837196 305.422701 21.087962 305.422701 15.8165918 305.422701 9.3620891 298.347891 9.30708853 298.347891 5.16550444 298.347891 3.33642541 300.475958 1.61362568 301.862138 1.61362568 305.520296 1.61362568 306.8614 6.13277006 306.8614 14.3113131 306.8614 21.3559347 306.414365 24.4219062 305.227511 26.3593322 304.286712 26.0347048 303.445162 25.9838396 302.998127 25.9838396 298.148566 25.9838396 295.128497 32.3308224 294.484618 36.5782722L295.376206 36.7428604C295.677262 34.9117137 296.266967 32.8150755 298.246161 32.8150755 302.505603 32.8150755 305.473566 39.2708188 310.964938 39.2708188 313.492483 39.2708188 315.521301 37.8159918 317.104325 36.3131943 318.636897 34.8608485 319.728224 33.4039537 320.372517 33.4039537 321.362113 33.4039537 322.597765 34.8608485 324.327182 36.3131943 326.009868 37.8164053 328.239252 39.2708188 331.206801 39.2708188 337.394986 39.2708188 344.522315 31.7373952 344.522315 25.0136792 344.522315 17.9661629 337.541378 17.7523637 337.541378 15.1160583 337.542205 14.4171789 338.090557 14.0412727 339.030115 13.2882198M317.301996 32.8159026C314.087151 32.8159026 309.481577 27.0619334 305.821352 26.4672656L305.821352 26.3597457C312.747701 24.5840131 316.065931 20.4957754 316.065931 12.6418598 316.065931 10.0051408 315.421639 7.42466309 314.531705 5.00381104 315.373255 3.7660915 316.905413 2.90510517 318.293661 2.90510517 319.923828 2.90510517 321.754975 3.66063928 322.895099 5.00381104 320.665302 7.96226262 318.338323 11.081167 318.338323 15.1706453 318.338323 17.376044 319.728224 19.2584694 321.114404 20.9804421 322.449719 22.6490683 323.831763 24.2085205 323.831763 25.8750791 323.832177 28.7805978 319.924241 32.8159026 317.301996 32.8159026M340.659869 32.1670613C340.659869 33.4043673 339.074777 34.7516744 337.940442 34.7516744 334.178486 34.7516744 330.961573 27.0044516 326.408932 27.0044516 325.71791 27.0044516 325.024407 27.0044516 324.429326 27.1136257L324.429326 27.0044516C327.400597 25.3908259 329.922766 22.4319608 329.922766 18.505003 329.922766 12.698101 324.081954 10.2755948 324.081954 6.45532978 324.081954 4.03654542 326.900629 1.61403921 328.634594 1.61403921 331.014093 1.61403921 331.853575 3.71274508 332.0529 6.02566369 332.09963 9.3620891 333.487878 12.6418598 338.09097 13.1256994L338.09097 13.1794593C334.969585 14.6330457 331.603798 16.5704718 331.603798 20.7666429 331.603798 27.437426 340.659869 27.8670921 340.659869 32.1670613M363.473112 9.79258226C360.206988 13.4478455 354.465839 14.5255258 349.663007 14.3634189L349.663007 30.0704231C349.663007 30.715129 349.565826 32.1170232 347.835996 32.2811978L347.835996 32.9225954C351.644682 34.0494867 355.0084 36.4740606 357.830798 39.2720594 359.217391 36.3653001 361.048124 35.2917552 363.765897 34.5908081 367.875639 33.5135413 368.669632 32.3825146 368.669632 22.9166275 368.670045 15.4919644 368.123348 13.3423933 363.473112 9.79258226M361.24745 33.2472228C360.058528 32.0640903 358.671107 30.7701296 357.088911 29.9107974L357.088911 14.4717659C360.552292 15.2789923 361.24745 17.0009649 361.24745 19.4735092L361.24745 33.2472228ZM393.212291 17.5385645 387.968628 23.3475342 384.355545 16.3550184 382.719589 17.9144706 382.719589 29.4815448C382.719589 31.7398764 383.959376 33.1355675 385.591197 33.1355675 386.828917 33.1355675 388.856908 31.4177302 390.14756 30.3400499L390.49121 30.9859965 380.888442 39.2728865C378.36586 36.7432739 375.545116 34.1077956 372.082148 33.2951932L372.082148 32.6529686C373.368665 32.6529686 375.296993 32.169129 375.296993 30.5546762L375.296993 19.4735092C375.296993 17.3768711 374.506308 16.5150577 373.614307 16.5150577 372.675162 16.5150577 372.230195 17.0013785 371.535451 17.7006714L371.043754 16.9455508 378.366273 9.79258226C380.988518 11.6195936 382.719589 13.6645395 382.719589 16.8905502L389.054165 10.2222483 393.212291 17.5385645ZM404.886885 27.5441188C404.886885 29.8566239 405.084143 32.3312359 406.715964 32.3312359 408.055001 32.3312359 409.193471 31.3085562 409.884493 30.8247166L410.282317 31.3635568 402.064074 39.2716459C400.53357 36.7436875 397.710758 34.1057279 394.938813 33.4635032L394.938813 32.6533821C395.332914 32.760902 395.6807 32.8159026 395.979688 32.8159026 397.316657 32.8159026 397.461395 32.2220619 397.461395 30.5550898L397.461395 17.2147641 394.345799 17.2147641 394.345799 16.5684041C399.541905 15.009779 402.509455 7.53301007 403.994883 2.36750564L404.887299 2.36750564 404.887299 13.3407392 409.931636 13.3407392 409.931636 17.2147641 404.886885 17.2147641 404.886885 27.5441188Z" transform="translate(44.859 224.5)"/></svg>