<?xml version="1.0" encoding="UTF-8"?>
<svg width="30px" height="31px" viewBox="0 0 30 31" version="1.1" xmlns="http://www.w3.org/2000/svg" xmlns:xlink="http://www.w3.org/1999/xlink">
    <title>behance</title>
    <g id="Symbols" stroke="none" stroke-width="1" fill="none" fill-rule="evenodd">
        <g id="nav" transform="translate(-1271.000000, -28.000000)">
            <g transform="translate(38.650432, 28.500000)" id="behance">
                <g transform="translate(1232.348499, 0.000000)">
                    <g transform="translate(5.314311, 8.946510)" fill="#000000" fill-rule="nonzero" id="Shape">
                        <path d="M17.7569048,1.61426407 L12.1069805,1.61426407 L12.1069805,0 L17.7569048,0 L17.7569048,1.61426407 Z M19.1500147,9.68558442 C18.7932623,10.7324347 17.5123438,12.1069805 15.0328341,12.1069805 C12.5517103,12.1069805 10.5419515,10.7114492 10.5419515,7.52650622 C10.5419515,4.37061997 12.4185335,2.74828458 14.9537352,2.74828458 C17.4413161,2.74828458 18.9603386,4.18659386 19.2920699,6.32065096 C19.3550262,6.72905977 19.3800473,7.27952382 19.3687474,8.04791352 L12.8898986,8.04791352 C12.9948258,10.6396145 15.7011395,10.7211348 16.5930204,9.68558442 L19.1500147,9.68558442 Z M12.9463978,6.45705628 L16.9538084,6.45705628 C16.8690595,5.20842302 16.0369064,4.66603029 14.9545423,4.66603029 C13.7712868,4.66603029 13.1167027,5.28590769 12.9463978,6.45705628 Z M5.21891574,12.0972949 L0,12.0972949 L0,0.0169497727 L5.61198904,0.0169497727 C10.0318441,0.0823274675 10.1157858,4.41097657 7.80738817,5.5910036 C10.6008721,6.60798997 10.6944995,12.0972949 5.21891574,12.0972949 Z M2.4213961,4.84279221 L5.31415732,4.84279221 C7.33844446,4.84279221 7.65968301,2.4213961 5.06233212,2.4213961 L2.4213961,2.4213961 L2.4213961,4.84279221 Z M5.15838083,7.26418831 L2.4213961,7.26418831 L2.4213961,9.69849853 L5.11802423,9.69849853 C7.5838126,9.69849853 7.43287891,7.26418831 5.15838083,7.26418831 L5.15838083,7.26418831 Z"></path>
                    </g>
                    <rect id="Rectangle" x="0" y="0" width="30" height="30"></rect>
                </g>
            </g>
        </g>
    </g>
</svg>