<?xml version="1.0" encoding="UTF-8"?>
<svg width="31px" height="31px" viewBox="0 0 31 31" version="1.1" xmlns="http://www.w3.org/2000/svg" xmlns:xlink="http://www.w3.org/1999/xlink">
    <title>github</title>
    <g id="Symbols" stroke="none" stroke-width="1" fill="none" fill-rule="evenodd">
        <g id="nav" transform="translate(-1324.000000, -28.000000)">
            <g transform="translate(38.650432, 28.500000)" id="github">
                <g transform="translate(1285.575758, 0.000000)">
                    <path d="M12.0705114,4.64588701 C13.2307602,4.3233936 14.4746634,4.1621469 15.7112923,4.15608499 C16.9479211,4.1621469 18.1930367,4.3233936 19.3557103,4.64588701 C22.1332757,2.76427132 23.3529313,3.15465808 23.3529313,3.15465808 C24.1446162,5.15872428 23.6463275,6.63904178 23.4959923,7.00518092 C24.4295258,8.02358116 24.9932831,9.32204148 24.9932831,10.9102609 C24.9932831,16.4981261 21.5901289,17.728693 18.3506462,18.0887703 C18.8719702,18.5397761 19.348436,19.4248144 19.348436,20.7826814 L19.3486134,26.2558805 C17.9696418,26.6613607 16.5102273,26.8789158 15,26.8789158 C13.9993624,26.8789158 13.0210318,26.7834081 12.0736269,26.6010113 L12.0741485,22.0665931 C8.02721994,22.9467819 7.18461498,20.3498613 7.18461498,20.3498613 C6.52265482,18.6682885 5.56851078,18.2209198 5.56851078,18.2209198 C4.2482276,17.3176958 5.66913842,17.3370939 5.66913842,17.3370939 C7.13005782,17.4389339 7.89870753,18.8368095 7.89870753,18.8368095 C9.19595546,21.0603167 11.3018617,20.4177546 12.1323428,20.0455536 C12.2620676,19.1059581 12.6391182,18.4633961 13.0561773,18.1008941 C9.82518133,17.7311178 6.42808908,16.4835775 6.42808908,10.9102609 C6.42808908,9.3208291 6.99669589,8.02358116 7.9265923,7.00518092 C7.77625703,6.6378294 7.27796833,5.1575119 8.06844091,3.15465808 C8.06844091,3.15465808 9.2905212,2.76427132 12.0705114,4.64588701 Z" fill="#000000" fill-rule="nonzero"></path>
                    <rect id="Rectangle" x="0" y="0" width="30" height="30"></rect>
                </g>
            </g>
        </g>
    </g>
</svg>