<?xml version="1.0" encoding="UTF-8"?>
<svg width="31px" height="31px" viewBox="0 0 31 31" version="1.1" xmlns="http://www.w3.org/2000/svg" xmlns:xlink="http://www.w3.org/1999/xlink">
    <title>linkedin</title>
    <g id="Symbols" stroke="none" stroke-width="1" fill="none" fill-rule="evenodd">
        <g id="nav" transform="translate(-1220.000000, -28.000000)">
            <g transform="translate(38.650432, 28.500000)" id="linkedin">
                <g transform="translate(1182.222449, 0.000000)">
                    <g transform="translate(7.337951, 7.657203)" fill="#000000" fill-rule="nonzero" id="Shape">
                        <path d="M3.1797505,1.59626029 C3.1797505,2.47803447 2.47101093,3.19252058 1.59626029,3.19252058 C0.721509651,3.19252058 0.0127700823,2.47803447 0.0127700823,1.59626029 C0.0127700823,0.71512461 0.721509651,0 1.59626029,0 C2.47101093,0 3.1797505,0.71512461 3.1797505,1.59626029 Z M3.19252058,4.46952881 L0,4.46952881 L0,14.6855947 L3.19252058,14.6855947 L3.19252058,4.46952881 Z M8.28906043,4.46952881 L5.11697199,4.46952881 L5.11697199,14.6855947 L8.28969894,14.6855947 L8.28969894,9.3227986 C8.28969894,6.34098438 12.1392403,6.0970758 12.1392403,9.3227986 L12.1392403,14.6855947 L15.3240988,14.6855947 L15.3240988,8.21690947 C15.3240988,3.18549703 9.62736506,3.36874772 8.28906043,5.84550518 L8.28906043,4.46952881 Z"></path>
                    </g>
                    <rect id="Rectangle" x="0" y="0" width="30" height="30"></rect>
                </g>
            </g>
        </g>
    </g>
</svg>