<svg xmlns="http://www.w3.org/2000/svg" width="810" height="910" viewBox="0 0 810 910">
  <g fill="none" fill-rule="evenodd">
    <path stroke="#FFD526" stroke-width="3.75" d="M614.275854,215.546269 L662.399673,173.685474 M662.399673,173.685474 L728.750234,216.173794 M614.14546,215.546269 L658.614149,196.186721 M658.418557,196.207095 L728.693186,216.198243 M728.701336,215.847807 L714.28049,257.272594 L709.476258,306.508842 M709.476258,306.508842 L738.30165,368.959785 M614.361426,215.236581 L609.316779,251.02587 L622.046568,374.725679 M622.046568,374.725679 L613.880595,444.380932 M613.864296,444.254612 L621.088981,499.142659 M620.962661,498.902243 L653.353536,519.459793 M653.068297,519.382371 L738.43612,504.158782 M738.30165,504.427722 L738.285351,368.784567 M658.573401,196.215245 L632.376278,239.498157 L622.046568,373.764017 M622.046568,373.764017 L688.820912,301.227854 M688.820912,301.227854 L658.630449,196.190796 M688.820912,301.227854 L709.476258,306.989673 M709.476258,306.989673 L665.57397,393.425103 L653.272039,519.317174 M653.272039,519.317174 L613.945793,444.201639 M738.142732,368.678621 L710.437919,449.66192 L653.251665,519.199004 M738.30165,503.946891 L710.458293,449.649696 M613.89282,444.307585 L688.772014,301.337875 M658.679347,196.533082 L714.040074,257.513009 M665.57397,393.225436 L738.05716,368.470805 M613.962092,444.344259 L665.688065,393.196912 M632.364053,239.657076 L688.560122,301.378623 M632.376278,239.498157 L614.361426,215.236581 M609.227132,251.013645 L632.616693,239.738573"/>
    <polygon stroke="#000" stroke-width=".75" points="569.945 501.015 569.945 830.649 673.817 883.088 673.825 544.078"/>
    <polygon stroke="#000" stroke-width=".75" points="777.669 512.108 777.669 841.742 673.798 883.085 673.806 544.079"/>
    <line x1="619.464" x2="569.139" y1="486.549" y2="500.436" stroke="#000" stroke-width=".75"/>
    <line x1="778.435" x2="738.151" y1="511.677" y2="497.855" stroke="#000" stroke-width=".75"/>
    <polygon stroke="#000" stroke-width=".75" points="297.089 698.829 297.089 830.646 400.961 883.085 400.969 741.892"/>
    <polygon stroke="#000" stroke-width=".75" points="504.814 709.921 504.814 841.738 400.942 883.085 400.95 741.892"/>
    <line x1="358.445" x2="296.283" y1="680.063" y2="698.249" stroke="#000" stroke-width=".75"/>
    <path stroke="#FFD526" stroke-width="3.75" d="M445.769959,719.67036 L458.21451,699.968526 L462.362693,666.094411 L463.145062,235.689815 L442.404144,173.324444 L418.558202,130.807601 L352.187266,133.574415 L339.306708,586.594353 L337.578978,620.122107 L347.945361,663.290924 L386.660382,721.398091 L445.769959,719.67036 Z M337.578978,620.122107 L364.819259,663.290924 L372.137665,679.419126 L386.660382,721.398091 L337.578978,620.122107 Z M457.183576,701.598461 L446.409709,668.869375 L382.47145,672.10072 L372.915959,681.668436 L457.183576,701.598461 Z M463.145062,235.689815 L446.193742,670.760099 L463.145062,235.689815 Z M442.404144,173.324444 L385.625374,177.277035 L382.47145,672.10072 L442.404144,173.324444 Z M352.187266,133.574415 L369.692763,171.67821 L365.29194,664.330007 L352.187266,133.574415 Z M385.625374,177.277035 L369.692763,171.67821 L385.625374,177.277035 Z"/>
    <polygon stroke="#000" stroke-width=".75" points="22.662 166.502 22.662 830.651 126.533 883.086 126.542 209.564"/>
    <polygon stroke="#000" stroke-width=".75" points="230.386 177.595 230.386 841.74 126.515 883.088 126.523 209.566"/>
    <line x1="83.298" x2="21.858" y1="148.333" y2="165.924" stroke="#000" stroke-width=".75"/>
    <line x1="231.151" x2="169.56" y1="177.164" y2="154.679" stroke="#000" stroke-width=".75"/>
    <path stroke="#FFD526" stroke-width="3.75" d="M108.352315,185.778774 L83.8829225,158.078036 L83.8829225,124.370989 L112.251934,33.705879 L163.256661,25.0876 L190.077234,97.5911643 L190.077234,129.912767 L156.830644,169.157516 L140.620945,180.236996 L108.352315,185.778774 Z M106.722381,141.477152 L107.895933,65.8604131 L136.973966,114.14315 L142.980275,151.594971 L130.53165,154.382159 L106.722381,141.477152 Z M83.8829225,124.370989 L106.722381,141.477152 L108.217846,65.8604131 L83.8829225,124.370989 Z M107.96928,66.1415769 L112.251934,33.705879 L107.96928,66.1415769 Z M163.256661,25.0876 L107.895933,65.8604131 L163.256661,25.0876 Z M190.077234,97.5911643 L136.973966,114.14315 L190.077234,97.5911643 Z M156.830644,169.157516 L143.424432,151.085617 L156.830644,169.157516 Z M130.53165,154.382159 L140.620945,180.236996 L130.53165,154.382159 Z"/>
  </g>
</svg>
